<svg width="17" height="17" viewBox="0 0 17 17" fill="none" xmlns="http://www.w3.org/2000/svg">
<g clip-path="url(#clip0_4426_65990)">
<path d="M8.22635 13.7972C7.76559 13.5968 7.35135 13.3032 7.00975 12.9348C6.30759 12.1845 5.91701 11.1953 5.91718 10.1677C5.91774 9.14032 6.30822 8.15138 7.00975 7.40073L7.99861 6.35657C8.05972 6.28875 8.13414 6.23425 8.21722 6.19643C8.29905 6.15851 8.3874 6.13668 8.47748 6.13212C8.56822 6.12881 8.65874 6.14332 8.74391 6.17482C8.82859 6.20729 8.90599 6.25623 8.97163 6.31882C9.0373 6.38116 9.09016 6.45573 9.12725 6.53833C9.16501 6.62088 9.18509 6.71041 9.18621 6.80118C9.18828 6.89231 9.17131 6.98288 9.13639 7.06709C9.10326 7.15109 9.05342 7.22749 8.98989 7.29167L7.99846 8.34242C7.53455 8.83698 7.27641 9.48966 7.27655 10.1677C7.27607 10.8465 7.53422 11.4999 7.99846 11.995C8.21975 12.2204 8.48364 12.3996 8.7748 12.5221C9.06569 12.6441 9.37802 12.7069 9.69348 12.7068C10.0094 12.7067 10.3222 12.6439 10.6137 12.5221C10.9044 12.3995 11.1678 12.2204 11.3885 11.995L13.3785 9.90524C13.8426 9.41013 14.1008 8.7568 14.1004 8.07814C14.1008 7.39948 13.8426 6.74615 13.3785 6.25104C12.9923 5.83848 12.4694 5.58021 11.9071 5.52426C11.7275 5.50568 11.5625 5.41725 11.4475 5.27806C11.3342 5.13779 11.2801 4.95874 11.297 4.77918C11.3046 4.68946 11.3307 4.60229 11.3738 4.52321C11.4151 4.44399 11.4724 4.37421 11.5421 4.31832C11.611 4.26145 11.6904 4.21873 11.7759 4.19261C11.8623 4.1674 11.953 4.16019 12.0424 4.1714C12.9293 4.26028 13.7549 4.66469 14.3688 5.31101C15.07 6.0618 15.46 7.05085 15.4599 8.07816C15.4603 9.1055 15.0703 10.0946 14.3688 10.8452L12.3793 12.9349C12.0347 13.3033 11.618 13.5969 11.1551 13.7973C10.6919 13.9972 10.1927 14.1002 9.6883 14.0998H9.67607C9.17726 14.0988 8.68392 13.9958 8.22635 13.7972ZM4.9639 12.8356C4.07477 12.7482 3.24765 12.3409 2.63641 11.6893C1.93553 10.9384 1.54579 9.94945 1.5459 8.92227C1.54637 7.8951 1.93603 6.90625 2.63641 6.15488L4.62687 4.06532C4.97106 3.69806 5.38685 3.40521 5.84858 3.20484C6.30927 3.00508 6.80609 2.90212 7.30822 2.90234C7.81102 2.90196 8.30854 3.00493 8.76989 3.20484C9.23056 3.40605 9.64551 3.6988 9.98956 4.06532C10.6902 4.81641 11.08 5.8053 11.0801 6.83247C11.0803 7.85966 10.6905 8.84861 9.98956 9.59949L8.99868 10.645C8.93783 10.7123 8.86421 10.7668 8.7821 10.8054C8.7001 10.8431 8.61153 10.8645 8.52134 10.8682C8.4301 10.8712 8.33912 10.8567 8.25337 10.8254C8.16883 10.7932 8.09132 10.7449 8.02512 10.6833C7.95893 10.6207 7.90601 10.5454 7.86954 10.4619C7.83355 10.3789 7.81388 10.2897 7.81159 10.1993C7.80971 10.1087 7.82666 10.0186 7.86137 9.93491C7.89439 9.8501 7.9446 9.77302 8.00882 9.70853L8.9987 8.6645C9.46293 8.16932 9.72156 7.51617 9.72215 6.83741C9.72149 6.15866 9.46287 5.50553 8.9987 5.0103C8.77699 4.78583 8.51272 4.60785 8.22136 4.48677C7.93067 4.36456 7.61851 4.3016 7.30317 4.30159C6.98784 4.3017 6.6757 4.36465 6.38498 4.48677C6.09396 4.60823 5.82991 4.78617 5.60807 5.0103L3.61923 7.10005C3.15478 7.5951 2.89611 8.24833 2.89574 8.92715C2.89611 9.60595 3.15479 10.2592 3.61923 10.7542C4.00575 11.1672 4.52919 11.4255 5.09207 11.4811C5.18073 11.4903 5.26672 11.5169 5.34507 11.5594C5.42343 11.6018 5.49262 11.6594 5.54866 11.7287C5.60533 11.7976 5.64788 11.877 5.67387 11.9623C5.69986 12.0477 5.70877 12.1373 5.70012 12.2261C5.68439 12.3934 5.60615 12.5485 5.481 12.6606C5.35706 12.774 5.19492 12.8364 5.02697 12.8355L4.9639 12.8356Z" fill="#A6A6A6"/>
</g>
<defs>
<clipPath id="clip0_4426_65990">
<rect width="16" height="16" fill="white" transform="translate(0.5 0.499512)"/>
</clipPath>
</defs>
</svg>
