<svg width="24" height="24" viewBox="0 0 24 24" fill="none" xmlns="http://www.w3.org/2000/svg">
<g clip-path="url(#clip0_4426_58164)">
<path fill-rule="evenodd" clip-rule="evenodd" d="M10.7942 8.33297C11.1513 8.57153 11.5711 8.69887 12.0005 8.69887C12.576 8.69807 13.1278 8.46907 13.5348 8.06208C13.9418 7.65509 14.1708 7.10331 14.1716 6.52774C14.1716 6.09833 14.0443 5.67856 13.8057 5.32152C13.5671 4.96448 13.228 4.6862 12.8313 4.52188C12.4346 4.35755 11.9981 4.31455 11.5769 4.39833C11.1557 4.4821 10.7689 4.68888 10.4652 4.99252C10.1616 5.29616 9.95483 5.68301 9.87105 6.10417C9.78728 6.52533 9.83028 6.96187 9.9946 7.35859C10.1589 7.75531 10.4372 8.0944 10.7942 8.33297ZM11.5985 5.92616C11.7175 5.84666 11.8574 5.80423 12.0005 5.80423C12.1919 5.80564 12.3751 5.88232 12.5105 6.0177C12.6459 6.15308 12.7226 6.33629 12.724 6.52774C12.724 6.67083 12.6815 6.81072 12.602 6.9297C12.5225 7.04868 12.4095 7.14141 12.2773 7.19617C12.1451 7.25093 11.9997 7.26526 11.8593 7.23735C11.719 7.20943 11.59 7.14052 11.4889 7.03934C11.3877 6.93815 11.3188 6.80924 11.2909 6.66889C11.2629 6.52854 11.2773 6.38307 11.332 6.25086C11.3868 6.11866 11.4795 6.00566 11.5985 5.92616Z" fill="#F8F8F8"/>
<path fill-rule="evenodd" clip-rule="evenodd" d="M3.55773 11.1106H3.31657C2.86941 11.1085 2.44114 10.93 2.1249 10.6139C1.80865 10.2977 1.62999 9.86952 1.62778 9.42236V6.21876C1.6371 5.88407 1.74197 5.55904 1.93001 5.28202C2.11806 5.00499 2.38144 4.78755 2.68905 4.65536L11.373 1.18179C11.7786 1.03706 12.2218 1.03706 12.6274 1.18179L21.3113 4.65536C21.6183 4.78855 21.8811 5.00623 22.0691 5.28302C22.2571 5.55981 22.3625 5.88433 22.3732 6.21876V9.42236C22.371 9.86952 22.1923 10.2977 21.8761 10.6139C21.5598 10.93 21.1316 11.1085 20.6844 11.1106H20.4438V16.4181H20.6844C21.1317 16.4202 21.56 16.5987 21.8763 16.915C22.1926 17.2313 22.3711 17.6596 22.3732 18.1069V20.2774H22.6143C22.8062 20.2782 22.99 20.3546 23.1259 20.49C23.2618 20.6255 23.3388 20.8091 23.3403 21.0009C23.339 21.1929 23.262 21.3766 23.1261 21.5122C22.9902 21.6478 22.8063 21.7242 22.6143 21.725H21.6508L21.6497 21.725H2.35129L2.35017 21.725H1.3866C1.19504 21.7236 1.01175 21.6469 0.876349 21.5113C0.740953 21.3758 0.664342 21.1925 0.663086 21.0009C0.664499 20.8095 0.741179 20.6263 0.876559 20.4909C1.01194 20.3555 1.19515 20.2788 1.3866 20.2774H1.62778V18.1069C1.62984 17.6596 1.80842 17.2313 2.12469 16.915C2.44095 16.5987 2.86931 16.4202 3.31657 16.4181H3.55773V11.1106ZM20.9256 18.1069V20.2774H3.0754L3.0766 18.1069C3.0766 18.0433 3.10189 17.9822 3.14689 17.9372C3.19189 17.8922 3.25293 17.8669 3.31657 17.8669H20.6856C20.7492 17.8669 20.8103 17.8922 20.8553 17.9372C20.9003 17.9822 20.9256 18.0433 20.9256 18.1069ZM18.9962 16.4181V11.1106H16.5839V16.4181H18.9962ZM12.7246 11.1106H15.1363V16.4181H12.7246V11.1106ZM11.277 16.4181V11.1106H8.86466V16.4181H11.277ZM5.00535 11.1106H7.41704V16.4181H5.00535V11.1106ZM12.0005 2.51303C11.968 2.51034 11.9352 2.51359 11.9039 2.52262L3.22958 5.99679C3.15153 6.04817 3.09631 6.12768 3.0754 6.21876V9.42236C3.0754 9.45388 3.08161 9.48508 3.09367 9.51419C3.10573 9.54331 3.12341 9.56976 3.14569 9.59205C3.16797 9.61433 3.19443 9.63201 3.22354 9.64406C3.25266 9.65613 3.28386 9.66233 3.31537 9.66233H20.6844C20.7159 9.66233 20.7471 9.65613 20.7762 9.64406C20.8053 9.63201 20.8318 9.61433 20.8541 9.59205C20.8764 9.56976 20.894 9.54331 20.9061 9.51419C20.9182 9.48508 20.9244 9.45388 20.9244 9.42236V6.21876C20.9159 6.17295 20.8977 6.12947 20.8711 6.0912C20.8446 6.05293 20.8102 6.02075 20.7702 5.99679L12.0875 2.52322C12.0595 2.51387 12.0299 2.5104 12.0005 2.51303Z" fill="#F8F8F8"/>
</g>
<defs>
<clipPath id="clip0_4426_58164">
<rect width="24" height="24" fill="white"/>
</clipPath>
</defs>
</svg>
