<svg width="16" height="16" viewBox="0 0 16 16" fill="none" xmlns="http://www.w3.org/2000/svg">
    <g clip-path="url(#clip0_9658_2805)">
    <path d="M3.29923 6.87189C3.23319 6.80306 3.18791 6.71691 3.16877 6.62346C3.14959 6.53041 3.15935 6.43367 3.1965 6.34623L4.38902 3.49881C4.39782 3.47921 4.40526 3.46119 4.41206 3.44559C4.42187 3.41987 4.43347 3.39487 4.44683 3.37079C4.53082 3.1776 4.61742 2.99569 4.70502 2.8301C4.79261 2.6645 4.88525 2.50607 4.97844 2.36528C5.06727 2.22946 5.16434 2.09929 5.26944 1.97565C5.36496 1.86253 5.46912 1.75698 5.58076 1.65974C5.68498 1.56887 5.79697 1.48731 5.9155 1.4161C6.02988 1.34757 6.15055 1.2899 6.27564 1.24375C6.40206 1.19756 6.53233 1.16312 6.66508 1.14092C6.80429 1.11799 6.94506 1.10663 7.08615 1.10694C7.65825 1.12678 8.22203 1.25069 8.74974 1.47255L8.75872 1.47616C8.80792 1.49376 8.85444 1.51376 8.90364 1.53456H8.90598L8.95442 1.55487L10.468 2.1897C11.1767 2.43756 11.815 2.85356 12.3277 3.40204C12.4033 3.49289 12.4719 3.58927 12.5331 3.6904C12.6081 3.80652 12.6685 3.93143 12.7128 4.06236C12.7427 4.13278 12.7662 4.2058 12.7831 4.28041C12.8289 4.43798 12.857 4.60018 12.8667 4.76398C12.8772 4.94486 12.8707 5.12631 12.8472 5.30595C12.8202 5.51136 12.7781 5.71455 12.7218 5.91393C12.6563 6.14468 12.5782 6.37165 12.4878 6.59387C12.4479 6.68127 12.3841 6.75545 12.3035 6.80773C12.2228 6.86001 12.1289 6.88826 12.0328 6.88907C11.9851 6.88897 11.9378 6.88248 11.8918 6.86984C11.6417 6.79741 11.3823 6.76067 11.1219 6.76066H7.98025L8.18336 5.7987H11.1285C11.3305 5.79958 11.532 5.81667 11.7312 5.84987C11.9031 5.42697 11.9434 4.9621 11.8468 4.51595C11.8409 4.48883 11.8335 4.46214 11.8242 4.43597C11.8206 4.42557 11.8168 4.41559 11.8144 4.40599C11.7899 4.3323 11.7577 4.26136 11.7183 4.19438L11.6937 4.15435C11.6636 4.10291 11.6292 4.05419 11.5906 4.00875C11.1731 3.58194 10.6611 3.25906 10.0962 3.06602L8.86809 2.55443V2.55042L8.41069 2.3849L7.92048 2.20728C7.65787 2.11874 7.38316 2.07111 7.10607 2.06607C6.34371 2.06607 5.84188 2.54246 5.31671 3.7656C5.31315 3.7755 5.30878 3.78513 5.30382 3.7944C5.29901 3.80375 5.29504 3.81338 5.29132 3.82321L4.45112 5.81793C4.59352 5.80514 4.73111 5.7987 4.8679 5.7987H5.29327L4.58315 6.77541C4.32149 6.80306 4.06562 6.86945 3.82342 6.97227C3.7649 6.99847 3.70121 7.01203 3.6371 7.01221C3.51056 7.0107 3.3896 6.96048 3.29923 6.87189Z" fill="#A6A6A6"/>
    <path d="M10.5008 14.8947H5.49863C5.32709 14.894 5.15575 14.8833 4.98546 14.8627C2.73437 14.7151 1.45163 13.426 1.29764 11.1493C1.27633 10.9876 1.26564 10.8248 1.26564 10.6617V9.41097C1.26422 8.93641 1.35663 8.46626 1.53758 8.02756C1.71852 7.58885 1.98443 7.19025 2.31999 6.85469C2.65555 6.51913 3.05415 6.25323 3.49285 6.07228C3.93156 5.89134 4.40171 5.79892 4.87626 5.80035H11.1359C11.4901 5.7984 11.8425 5.85032 12.1811 5.95434C12.9204 6.1831 13.5676 6.64155 14.0286 7.26313C14.4897 7.88472 14.7406 8.63707 14.745 9.41097V10.6617C14.745 10.8029 14.7386 10.9373 14.7322 11.0657C14.5926 13.5732 13.1302 14.8947 10.5008 14.8947ZM4.86986 6.7623C4.52171 6.76114 4.17676 6.82885 3.85489 6.96155C3.53301 7.09424 3.24056 7.2893 2.99438 7.53548C2.74819 7.78167 2.55314 8.07411 2.42044 8.39599C2.28775 8.71787 2.22003 9.06281 2.22119 9.41097V10.6617C2.22119 10.7965 2.23399 10.9309 2.24679 11.0593C2.36679 12.8872 3.26634 13.7851 5.06865 13.9067C5.20893 13.926 5.35025 13.9367 5.49183 13.9387H10.4944C12.6107 13.9387 13.6498 13.0088 13.7522 11.0189C13.7586 10.9033 13.765 10.7881 13.765 10.6589V9.41097C13.7616 8.84294 13.5776 8.29071 13.2397 7.83414C12.9018 7.37756 12.4274 7.04029 11.8851 6.87109C11.635 6.79851 11.3759 6.76175 11.1155 6.7619L4.86986 6.7623Z" fill="#A6A6A6"/>
    <path d="M1.73975 9.89457C1.6128 9.89342 1.49139 9.84249 1.40162 9.75272C1.31186 9.66296 1.26092 9.54154 1.25977 9.4146V7.53469C1.25836 6.55524 1.5972 5.60572 2.21835 4.84843C2.8395 4.09114 3.7044 3.57311 4.6652 3.3829C4.75098 3.36746 4.8393 3.37474 4.92139 3.404C5.00349 3.43325 5.0765 3.48348 5.13318 3.54969C5.18787 3.61701 5.2233 3.6979 5.2357 3.78376C5.2481 3.86961 5.23699 3.95722 5.20357 4.03726L4.08123 6.71713C4.03172 6.83022 3.94311 6.92167 3.83164 6.97472C3.35575 7.18021 2.95036 7.52043 2.66544 7.95346C2.38051 8.3865 2.2285 8.89343 2.22812 9.4118C2.22624 9.54022 2.174 9.66276 2.08266 9.75306C1.99132 9.84335 1.86818 9.89417 1.73975 9.89457ZM3.89564 4.67843C3.48484 4.91004 3.12892 5.22766 2.85223 5.60956C2.57555 5.99145 2.38462 6.42861 2.29252 6.89112C2.57569 6.59856 2.90771 6.35763 3.27367 6.17916L3.89564 4.67843Z" fill="#A6A6A6"/>
    <path d="M14.2598 9.89051C14.1329 9.88936 14.0115 9.83842 13.9217 9.74866C13.832 9.65889 13.781 9.53748 13.7799 9.41053C13.7765 8.84251 13.5925 8.29028 13.2545 7.8337C12.9166 7.37713 12.4422 7.03986 11.9 6.87066C11.8362 6.85197 11.7771 6.82014 11.7263 6.77722C11.6756 6.73431 11.6344 6.68126 11.6054 6.62148C11.5764 6.5617 11.5602 6.49651 11.5579 6.43011C11.5556 6.3637 11.5672 6.29755 11.592 6.23589C11.8636 5.70618 11.9537 5.10189 11.8484 4.51598C11.8372 4.45958 11.8228 4.43358 11.8164 4.40798C11.776 4.31696 11.7649 4.21568 11.7844 4.11806C11.804 4.02045 11.8533 3.93128 11.9256 3.86281C11.9979 3.79382 12.09 3.74929 12.189 3.73551C12.2879 3.72173 12.3887 3.7394 12.4771 3.78602C13.1613 4.14297 13.7342 4.68097 14.1334 5.34132C14.5326 6.00167 14.7428 6.75898 14.741 7.53063V9.41053C14.7399 9.53768 14.6888 9.65928 14.5987 9.74908C14.5087 9.83888 14.387 9.88968 14.2598 9.89051ZM12.6499 6.1307C13.0497 6.317 13.4109 6.57684 13.7147 6.89666C13.5951 6.27386 13.2939 5.70035 12.8491 5.24834C12.8112 5.54891 12.7446 5.84518 12.6503 6.1331L12.6499 6.1307Z" fill="#A6A6A6"/>
    </g>
    <defs>
    <clipPath id="clip0_9658_2805">
    <rect width="16" height="16" fill="white"/>
    </clipPath>
    </defs>
    </svg>
    