<svg width="24" height="24" viewBox="0 0 24 24" fill="none" xmlns="http://www.w3.org/2000/svg">
<g clip-path="url(#clip0_4426_54096)">
<path fill-rule="evenodd" clip-rule="evenodd" d="M11.2718 16.4157C11.5504 16.4724 11.8341 16.501 12.1184 16.5009C12.4025 16.501 12.686 16.4724 12.9644 16.4157C13.2343 16.3601 13.4979 16.2782 13.7518 16.1709C14.0013 16.0652 14.2402 15.9356 14.4648 15.784C14.6878 15.6334 14.8954 15.4618 15.0858 15.2716C15.2758 15.0811 15.4476 14.8729 15.5984 14.65C15.7501 14.4253 15.8794 14.1864 15.9851 13.9367C16.0925 13.6827 16.1746 13.4187 16.23 13.1484C16.2867 12.87 16.3158 12.5867 16.3161 12.3026C16.3158 12.0185 16.2867 11.735 16.23 11.4566C16.1746 11.1866 16.0925 10.9228 15.9851 10.6689C15.8794 10.4192 15.7501 10.1804 15.5984 9.95563C15.4476 9.73277 15.2758 9.52474 15.0858 9.33417C14.8954 9.14402 14.6878 8.97246 14.4648 8.82183C14.2403 8.67003 14.0013 8.54042 13.7518 8.43487C13.4979 8.32748 13.2344 8.24551 12.9644 8.19013C12.686 8.13334 12.4025 8.10475 12.1184 8.10488C11.8341 8.10478 11.5504 8.13337 11.2718 8.19013C11.0018 8.24543 10.7376 8.3274 10.4838 8.43487C10.2343 8.54061 9.99596 8.67021 9.7714 8.82183C9.54855 8.97266 9.34037 9.1442 9.1498 9.33417C8.95985 9.52477 8.78801 9.7328 8.63717 9.95563C8.4853 10.1803 8.35599 10.4191 8.2505 10.6689C8.14305 10.9227 8.06094 11.1866 8.00561 11.4566C7.94876 11.735 7.92046 12.0185 7.92065 12.3026C7.92045 12.5867 7.94876 12.8701 8.00561 13.1484C8.06089 13.4187 8.143 13.6827 8.2505 13.9367C8.35602 14.1865 8.48533 14.4254 8.63717 14.65C8.78801 14.8728 8.95984 15.081 9.1498 15.2716C9.34038 15.4616 9.54856 15.6331 9.7714 15.784C9.99592 15.9356 10.2343 16.0652 10.4838 16.1709C10.7377 16.2782 11.0018 16.3601 11.2718 16.4157ZM10.3116 10.4961C10.7907 10.0169 11.4408 9.74755 12.1184 9.74691C12.7959 9.74771 13.4455 10.0171 13.9246 10.4962C14.4037 10.9753 14.6731 11.625 14.6739 12.3026C14.6731 12.9802 14.4037 13.6297 13.9246 14.1088C13.4455 14.5879 12.7959 14.8575 12.1184 14.8583C11.4408 14.8577 10.7907 14.5881 10.3116 14.109C9.83242 13.6298 9.56288 12.9802 9.56225 12.3026C9.56288 11.625 9.83242 10.9752 10.3116 10.4961Z" fill="white"/>
<path fill-rule="evenodd" clip-rule="evenodd" d="M12.1402 20.2125H12.4261C12.8109 20.2031 13.195 20.1735 13.5767 20.1237C13.9433 20.0752 14.3067 20.008 14.6664 19.9222C15.0108 19.84 15.3574 19.7386 15.6946 19.6222C16.0192 19.5106 16.3433 19.381 16.6601 19.2376C16.9637 19.1008 17.2677 18.9472 17.5635 18.7816C17.8449 18.6239 18.1283 18.4511 18.4036 18.2676C18.9271 17.9178 19.4269 17.5336 19.8993 17.1175C20.7228 16.3895 21.4727 15.5829 22.1391 14.7089C22.5908 14.1224 23.0049 13.5075 23.3782 12.8682C23.4808 12.6966 23.6782 12.3487 23.6782 12.3487C23.6782 12.3487 23.4778 11.9095 23.3782 11.7379C22.6637 10.5105 18.7624 4.3877 12.129 4.3877C12.0216 4.3877 11.913 4.38953 11.8056 4.39253C11.4204 4.40223 11.0359 4.43221 10.6538 4.48246C10.2874 4.53093 9.92357 4.59817 9.56411 4.684C9.21975 4.76619 8.87426 4.86757 8.5365 4.98396C8.21314 5.09554 7.88833 5.2252 7.57217 5.36858C7.27221 5.50536 6.96804 5.65895 6.67228 5.82453C6.39092 5.98291 6.10752 6.15563 5.83215 6.33921C5.30914 6.68888 4.80978 7.07289 4.33761 7.48867C3.51494 8.21741 2.76509 9.02416 2.09785 9.89746C1.83809 10.237 1.58722 10.5885 1.35205 10.9425C1.17567 11.2089 1.00823 11.4764 0.85465 11.7385C0.752663 11.9119 0.554688 12.272 0.554688 12.272C0.554688 12.272 0.755062 12.6972 0.85465 12.8688C1.1952 13.4463 1.56989 14.003 1.97658 14.536C2.6519 15.4298 3.41226 16.2562 4.2468 17.0035C4.73892 17.4419 5.2598 17.8466 5.80637 18.2148C6.09674 18.4092 6.39408 18.5922 6.69044 18.7584C7.0036 18.9323 7.32506 19.0942 7.64482 19.2382C7.97777 19.3888 8.32166 19.5244 8.66422 19.6402C9.02221 19.7614 9.38647 19.8639 9.7551 19.9474C10.1376 20.0339 10.5243 20.0993 10.9139 20.1435C11.3211 20.1895 11.7304 20.2125 12.1402 20.2125ZM11.8496 5.98051H12.0622C14.4889 5.98051 16.5237 7.15093 17.8418 8.02562C18.3632 8.40143 18.858 8.81335 19.3217 9.25842C19.747 9.65677 20.1944 10.1164 20.6516 10.6168C21.0047 11.0022 21.2947 11.376 21.5193 11.6653C21.6155 11.7893 21.6998 11.8979 21.7718 11.9852C21.8128 12.0352 21.8414 12.0652 21.8616 12.0864C21.9077 12.1348 21.9106 12.1379 21.9194 12.2288C21.9301 12.3397 21.9166 12.3604 21.857 12.452C21.8463 12.4684 21.8341 12.4871 21.8204 12.5089C20.6722 14.384 19.0977 15.9614 17.2249 17.1133C16.5222 17.5271 15.7803 17.8708 15.0103 18.1392C14.5973 18.2804 14.1753 18.3924 13.7466 18.4745C13.2952 18.5603 12.8374 18.6092 12.378 18.6204H12.132C10.3254 18.5619 8.56626 18.0274 7.03259 17.0708C6.3719 16.6821 5.75076 16.2301 5.17774 15.7209C4.64938 15.2558 4.14859 14.7601 3.67793 14.2367C3.24272 13.6964 2.83836 13.1317 2.46753 12.5454C2.40625 12.4643 2.36766 12.3686 2.35505 12.2677C2.36323 12.179 2.40277 12.0962 2.46695 12.0344C2.78913 11.5453 3.15636 11.0874 3.56369 10.6665C3.99863 10.2106 4.42818 9.77197 4.83853 9.37062C5.35086 8.86848 5.83584 8.41925 6.27858 8.0347C7.86349 6.76369 9.81891 6.04266 11.8496 5.98051Z" fill="white"/>
</g>
<defs>
<clipPath id="clip0_4426_54096">
<rect width="24" height="24" fill="white"/>
</clipPath>
</defs>
</svg>
