<svg width="17" height="16" viewBox="0 0 17 16" fill="none" xmlns="http://www.w3.org/2000/svg">
<path d="M8.49989 15.1663C6.59937 15.1663 4.7767 14.4113 3.43283 13.0674C2.08896 11.7236 1.33398 9.90089 1.33398 8.00038C1.33398 6.09986 2.08896 4.27718 3.43283 2.93332C4.7767 1.58945 6.59937 0.834473 8.49989 0.834473C8.63219 0.835415 8.7588 0.88839 8.85236 0.981942C8.94591 1.0755 8.99888 1.20211 8.99983 1.33441C8.99888 1.46671 8.94591 1.59332 8.85236 1.68688C8.7588 1.78043 8.63219 1.83341 8.49989 1.83435C7.28036 1.83435 6.08822 2.19598 5.07423 2.87351C4.06023 3.55104 3.26991 4.51405 2.80322 5.64074C2.33653 6.76743 2.21442 8.00722 2.45234 9.20331C2.69026 10.3994 3.27751 11.4981 4.13985 12.3604C5.00218 13.2228 6.10086 13.81 7.29696 14.0479C8.49305 14.2858 9.73283 14.1637 10.8595 13.697C11.9862 13.2304 12.9492 12.44 13.6268 11.426C14.3043 10.412 14.6659 9.2199 14.6659 8.00038C14.6659 7.86778 14.7186 7.74062 14.8123 7.64687C14.9061 7.55311 15.0333 7.50044 15.1659 7.50044C15.2984 7.50044 15.4256 7.55311 15.5194 7.64687C15.6131 7.74062 15.6658 7.86778 15.6658 8.00038C15.6642 9.9004 14.9087 11.7222 13.5652 13.0657C12.2217 14.4092 10.3999 15.1647 8.49989 15.1663Z" fill="#2196F3"/>
<path fill-rule="evenodd" clip-rule="evenodd" d="M8.4995 11.4995C8.3672 11.4986 8.24058 11.4456 8.14703 11.3521C8.05348 11.2585 8.0005 11.1319 7.99956 10.9996V10.9399C7.11847 10.6627 6.33202 9.87863 6.33202 9.12394C6.33307 8.99171 6.38612 8.8655 6.47966 8.77203C6.5732 8.67856 6.69973 8.62533 6.83196 8.62439C6.96444 8.62502 7.09118 8.67776 7.18504 8.77125C7.2789 8.86474 7.3323 8.99147 7.33346 9.12394C7.33346 9.23833 7.39726 9.36611 7.59124 9.58209C7.71229 9.70115 7.85021 9.79975 7.99956 9.87535V8.35362L7.33268 8.12094C7.02334 8.03679 6.75391 7.84643 6.57105 7.58312C6.3882 7.3198 6.3036 7.00053 6.3328 6.68128C6.3328 5.95634 7.09211 5.12096 8.00328 4.94274C8.01687 4.83171 8.06716 4.72775 8.14703 4.64788C8.24058 4.55433 8.3672 4.50136 8.4995 4.50041C8.6318 4.50136 8.75841 4.55433 8.85197 4.64788C8.94552 4.74144 8.99849 4.86805 8.99944 5.00035V5.01347C9.87944 5.29136 10.6666 6.07483 10.6666 6.82931C10.6655 6.9615 10.6125 7.08777 10.519 7.18121C10.4255 7.27466 10.2989 7.32781 10.1667 7.32885C10.0345 7.32781 9.9087 7.27466 9.81518 7.18121C9.72166 7.08777 9.66791 6.9615 9.66676 6.82931C9.66676 6.58446 9.37005 6.27399 8.99944 6.08298V7.64329L9.66754 7.87722C9.93372 7.94723 10.1714 8.09802 10.3479 8.3092C10.5244 8.52038 10.6309 8.78122 10.6526 9.05559C10.6625 9.12809 10.6675 9.20113 10.6674 9.27431V9.3161C10.6384 10.031 9.89283 10.8368 8.99923 11.0109C8.99544 11.1391 8.94286 11.2612 8.85197 11.3521C8.75841 11.4456 8.6318 11.4986 8.4995 11.4995ZM8.99944 9.98161C9.08994 9.949 9.17626 9.90424 9.25587 9.84807C9.45132 9.71017 9.595 9.51117 9.6652 9.28251C9.6596 8.94976 9.55785 8.89764 9.33868 8.82085L8.99944 8.70249V9.98161ZM7.99956 5.9716C7.90799 6.00474 7.82074 6.05045 7.74044 6.10791C7.54443 6.24817 7.40161 6.45042 7.33502 6.68206C7.33502 7.04201 7.43439 7.09538 7.66076 7.17457L7.99956 7.2932V5.9716Z" fill="#2196F3"/>
<path d="M11.6413 5.12927C11.702 5.15448 11.767 5.16734 11.8327 5.16713C11.8983 5.1674 11.9634 5.15459 12.024 5.12946C12.0846 5.10433 12.1396 5.06737 12.1858 5.02075L14.6647 2.54337V4.00248C14.6657 4.13478 14.7186 4.26139 14.8122 4.35494C14.9057 4.4485 15.0323 4.50147 15.1646 4.50241C15.2969 4.50147 15.4236 4.4485 15.5171 4.35494C15.6107 4.26139 15.6636 4.13478 15.6646 4.00248V1.38367C15.6662 1.36743 15.667 1.35106 15.667 1.33461C15.667 1.20207 15.6143 1.07497 15.5206 0.981252C15.4269 0.887537 15.2998 0.834888 15.1673 0.834888C15.1558 0.834888 15.1443 0.835285 15.1329 0.836072H12.4982C12.3659 0.837014 12.2393 0.889989 12.1457 0.983542C12.0522 1.07709 11.9992 1.20371 11.9982 1.33601C11.9992 1.46831 12.0522 1.59492 12.1457 1.68848C12.2393 1.78203 12.3659 1.835 12.4982 1.83595H13.9587L11.4795 4.31364C11.3866 4.40779 11.3346 4.53473 11.3346 4.66699C11.3346 4.79925 11.3866 4.92619 11.4795 5.02035C11.5257 5.06704 11.5807 5.10407 11.6413 5.12927Z" fill="#2196F3"/>
</svg>
