<svg width="32" height="32" viewBox="0 0 32 32" fill="none" xmlns="http://www.w3.org/2000/svg">
<path d="M13.0754 12.8573C12.9708 12.9544 12.8103 13.0029 12.5938 13.0029H11.9722V11.8661H12.5938C13.0194 11.8661 13.2322 12.0565 13.2322 12.4373C13.2322 12.6165 13.1799 12.7565 13.0754 12.8573Z" fill="#A6A6A6"/>
<path d="M16.8856 14.1341C16.6616 14.3581 16.3443 14.4701 15.9336 14.4701H15.3792V11.8885H15.9336C16.3443 11.8885 16.6616 12.0043 16.8856 12.2357C17.1096 12.4635 17.2216 12.7808 17.2216 13.1877C17.2216 13.5947 17.1096 13.9101 16.8856 14.1341Z" fill="#A6A6A6"/>
<path fill-rule="evenodd" clip-rule="evenodd" d="M18.6647 30.3289H13.3325C6.09505 30.3289 3.80264 27.2365 3.80264 19.999V16.231C3.10188 15.8651 3.1332 15.3144 3.17637 14.5555C3.18767 14.3568 3.19978 14.1439 3.19978 13.9163V11.6833C3.19978 11.4557 3.18767 11.2428 3.17637 11.0441C3.13068 10.241 3.09826 9.67108 3.93305 9.30653C4.50741 3.98861 7.06685 1.6709 13.3325 1.6709H18.6647C24.9297 1.6709 27.4893 3.98814 28.064 9.30545C28.9014 9.66997 28.8689 10.2403 28.8232 11.0443C28.8119 11.243 28.7998 11.4559 28.7998 11.6835V13.9165C28.7998 14.1441 28.8119 14.357 28.8232 14.5557C28.8664 15.3153 28.8978 15.8663 28.1946 16.2323V19.9998C28.1946 27.2365 25.9022 30.3289 18.6647 30.3289ZM5.80239 19.9998V16.6768C6.67812 16.7599 7.83853 16.7999 9.37392 16.7999H22.6256C24.1601 16.7999 25.3201 16.7599 26.1956 16.677V19.9998C26.1956 26.1446 24.8095 28.3308 18.6647 28.3308H13.3333C7.18851 28.3308 5.80239 26.1446 5.80239 19.9998ZM9.37392 8.7999C7.93823 8.7999 6.8304 8.83492 5.9766 8.90735C6.50308 5.10255 8.35852 3.67065 13.3325 3.67065H18.6647C23.6386 3.67065 25.4946 5.10251 26.0213 8.90722C25.1678 8.83488 24.0604 8.7999 22.6256 8.7999H9.37392ZM13.8874 13.0253C13.9882 12.8424 14.0386 12.6464 14.0386 12.4373C14.0386 12.2059 13.9844 11.9987 13.8762 11.8157C13.7716 11.6328 13.613 11.4891 13.4002 11.3845C13.1874 11.28 12.9298 11.2277 12.6274 11.2277H11.1882V15.1365H11.9722V13.6357H12.6274C12.9484 13.6357 13.2135 13.5797 13.4226 13.4677C13.6354 13.3557 13.7903 13.2083 13.8874 13.0253ZM17.0424 11.4685C16.7325 11.308 16.3723 11.2277 15.9616 11.2277H14.5952V15.1365H15.9616C16.3723 15.1365 16.7325 15.0563 17.0424 14.8957C17.356 14.7352 17.5968 14.5093 17.7648 14.2181C17.9365 13.9232 18.0224 13.5797 18.0224 13.1877C18.0224 12.7957 17.9365 12.4523 17.7648 12.1573C17.5968 11.8587 17.356 11.6291 17.0424 11.4685ZM21.0229 11.8605V11.2277H18.6093V15.1365H19.3933V13.4845H20.6421V12.8629H19.3933V11.8605H21.0229Z" fill="#A6A6A6"/>
</svg>
