<svg width="16" height="16" viewBox="0 0 16 16" fill="none" xmlns="http://www.w3.org/2000/svg">
<g clip-path="url(#clip0_9658_2850)">
<path d="M6.01294 14.8998C2.52757 14.8998 1.03809 13.4101 1.03809 9.92437V6.073C1.03809 2.58683 2.52757 1.09717 6.01294 1.09717H9.86548C13.3521 1.09717 14.8407 2.58683 14.8407 6.073V9.92437C14.8407 13.4101 13.3517 14.8998 9.86548 14.8998H6.01294ZM2.00142 6.073V9.92437C2.00142 12.8845 3.0544 13.937 6.01294 13.937H9.86548C12.8256 13.937 13.8786 12.8837 13.8786 9.92437V6.073C13.8786 3.11285 12.8252 2.0604 9.86548 2.0604H6.01294C3.054 2.062 2.00102 3.11522 2.00102 6.07456L2.00142 6.073ZM11.482 10.8813C11.3929 10.7919 11.342 10.6713 11.3406 10.5452V5.45178C11.342 5.32564 11.3929 5.20503 11.482 5.11573C11.5723 5.02787 11.6924 4.97741 11.8183 4.97451C11.9444 4.97747 12.0646 5.02791 12.155 5.11573C12.2439 5.20517 12.2942 5.32573 12.2957 5.45178V10.5452C12.2942 10.6713 12.2439 10.7918 12.155 10.8813C12.0655 10.9705 11.9447 11.0211 11.8183 11.0224C11.6921 11.0217 11.5713 10.9716 11.4816 10.8828L11.482 10.8813ZM9.57289 10.8813C9.48402 10.7918 9.43368 10.6713 9.43225 10.5452V7.99868C9.43321 7.87253 9.48362 7.75178 9.57289 7.66263C9.61667 7.61768 9.66893 7.58201 9.7268 7.55774C9.78467 7.53348 9.84688 7.52113 9.90962 7.52141C9.97225 7.52117 10.0343 7.53358 10.0921 7.55784C10.1498 7.5821 10.2019 7.61773 10.2456 7.66263C10.2901 7.70659 10.3256 7.75889 10.3499 7.81655C10.3741 7.87421 10.3867 7.93614 10.387 7.99868V10.5452C10.3859 10.6714 10.335 10.7922 10.2456 10.8813C10.1554 10.969 10.0354 11.0194 9.90962 11.0224C9.78364 11.02 9.6633 10.9702 9.5725 10.8828L9.57289 10.8813ZM7.66459 10.8813C7.57517 10.7922 7.52424 10.6714 7.52318 10.5452V5.45178C7.52424 5.32557 7.57517 5.20481 7.66459 5.11573C7.75477 5.02796 7.87474 4.97751 8.00054 4.97451C8.1266 4.97747 8.2468 5.02791 8.33728 5.11573C8.42611 5.20517 8.47644 5.32573 8.47791 5.45178V10.5452C8.47644 10.6713 8.42611 10.7918 8.33728 10.8813C8.24775 10.9705 8.12695 11.0211 8.00054 11.0224C7.87442 11.0218 7.75364 10.9717 7.6642 10.8828L7.66459 10.8813ZM5.75512 10.8813C5.66628 10.7918 5.61595 10.6713 5.61449 10.5452V9.90757C5.61544 9.78141 5.66585 9.66067 5.75512 9.57152C5.79892 9.52659 5.85117 9.49099 5.90903 9.46673C5.9669 9.44247 6.02911 9.43004 6.09185 9.4303C6.15448 9.43001 6.21655 9.44236 6.27428 9.46663C6.33202 9.49089 6.38419 9.52657 6.42781 9.57152C6.47237 9.61544 6.50781 9.66777 6.53211 9.72543C6.55641 9.78309 6.56929 9.845 6.56961 9.90757V10.5452C6.56823 10.6714 6.51719 10.7921 6.42781 10.8813C6.33762 10.969 6.21766 11.0194 6.09185 11.0224C5.96577 11.0199 5.84533 10.9701 5.75434 10.8828L5.75512 10.8813ZM3.84643 10.8813C3.75716 10.7921 3.70675 10.6714 3.7058 10.5452V5.45178C3.70675 5.32562 3.75716 5.20488 3.84643 5.11573C3.9368 5.028 4.05725 4.97757 4.18316 4.97451C4.30908 4.97757 4.42914 5.028 4.51951 5.11573C4.60846 5.20513 4.65892 5.32568 4.66053 5.45178V10.5452C4.65892 10.6713 4.60846 10.7919 4.51951 10.8813C4.43011 10.9704 4.30944 11.021 4.18316 11.0224C4.05684 11.0217 3.93551 10.9716 3.84565 10.8828L3.84643 10.8813ZM5.75512 8.33464C5.66563 8.24564 5.61518 8.12489 5.61449 7.99868V5.45217C5.61595 5.32612 5.66628 5.20556 5.75512 5.11612C5.84559 5.0283 5.9658 4.97786 6.09185 4.9749C6.21768 4.97782 6.33767 5.02828 6.42781 5.11612C6.51719 5.20526 6.56823 5.32594 6.56961 5.45217V7.99868C6.56929 8.06126 6.55641 8.12316 6.53211 8.18082C6.50781 8.23849 6.47237 8.29071 6.42781 8.33464C6.3842 8.3796 6.33203 8.41536 6.27428 8.43962C6.21654 8.46389 6.15449 8.47617 6.09185 8.47586C6.02909 8.47646 5.96704 8.46439 5.90903 8.44041C5.85103 8.41642 5.79835 8.38105 5.75434 8.3363L5.75512 8.33464ZM9.57328 6.42575C9.48379 6.33675 9.43334 6.21601 9.43265 6.0898V5.45217C9.43411 5.32612 9.48444 5.20556 9.57328 5.11612C9.66375 5.0283 9.78396 4.97786 9.91001 4.9749C10.0358 4.97794 10.1558 5.02838 10.246 5.11612C10.3354 5.2052 10.3863 5.32596 10.3874 5.45217V6.0898C10.3871 6.15235 10.3745 6.21418 10.3503 6.27184C10.326 6.3295 10.2905 6.38181 10.246 6.42575C10.2023 6.47066 10.1502 6.50638 10.0924 6.53064C10.0347 6.5549 9.97264 6.56722 9.91001 6.56697C9.84722 6.56752 9.7852 6.55538 9.72719 6.53133C9.66918 6.50727 9.61647 6.47185 9.5725 6.42702L9.57328 6.42575Z" fill="#A6A6A6"/>
</g>
<defs>
<clipPath id="clip0_9658_2850">
<rect width="16" height="16" fill="white"/>
</clipPath>
</defs>
</svg>
