<svg width="112" height="113" viewBox="0 0 112 113" fill="none" xmlns="http://www.w3.org/2000/svg">
<g clip-path="url(#clip0_4426_74790)">
<path fill-rule="evenodd" clip-rule="evenodd" d="M44.1064 104.889H45.3286C52.1372 104.905 58.7831 102.809 64.3517 98.8913C69.9188 94.9936 74.1441 89.4686 76.4458 83.0743C77.3974 80.3044 77.948 77.4122 78.081 74.4863V74.4474C78.3387 73.2399 78.3367 71.9914 78.0755 70.7847C77.8144 69.5779 77.3 68.4403 76.5661 67.4474C75.2294 65.8043 73.3355 64.7082 71.245 64.3671L66.6704 64.121H22.8001L18.22 64.3671C16.1304 64.7104 14.2372 65.8061 12.899 67.4474C12.166 68.4407 11.6543 69.5784 11.395 70.7854C11.1358 71.9923 11.1347 73.2407 11.395 74.4474V74.4925C11.5258 77.4186 12.0765 80.3104 13.0302 83.0798C15.3308 89.474 19.5575 94.9979 25.1271 98.8913C30.6819 102.803 37.3126 104.898 44.1064 104.889ZM24.2603 70.648L27.7931 70.4798H61.6283L65.1611 70.648C66.7309 70.8604 68.1782 71.6106 69.2572 72.7705C69.8155 73.4257 70.2137 74.2028 70.4165 75.0394C70.6193 75.8759 70.621 76.7483 70.4247 77.5864V77.6145C70.3241 79.6392 69.9018 81.6344 69.1697 83.5248C67.0914 88.1066 63.708 91.9741 59.4435 94.6435C55.179 97.3128 50.2212 98.6659 45.1919 98.5331H44.2404C39.2115 98.6633 34.2556 97.3091 29.9915 94.64C25.7275 91.971 22.343 88.105 20.2626 83.5248C19.5278 81.635 19.1046 79.6396 19.0048 77.6145V77.5919C18.808 76.7535 18.809 75.8808 19.0103 75.0435C19.2116 74.2062 19.6078 73.4278 20.1642 72.7705C21.2461 71.6145 22.6919 70.865 24.2603 70.648Z" fill="#4B4B4B"/>
<path fill-rule="evenodd" clip-rule="evenodd" d="M36.5978 47.5712C39.0865 48.6031 41.7567 49.1313 44.4509 49.1243C47.1467 49.1311 49.8162 48.6031 52.3068 47.5712C54.7973 46.5393 57.0584 45.0242 58.9595 43.1128C60.869 41.2129 62.3829 38.9534 63.4138 36.4648C64.4447 33.9763 64.9736 31.3081 64.9669 28.6145C64.9734 25.9196 64.4447 23.2499 63.4138 20.76C62.3829 18.2701 60.869 16.0088 58.9595 14.1072C57.0586 12.196 54.7974 10.6812 52.3068 9.6502C49.8161 8.61924 47.1465 8.09259 44.4509 8.10118C41.757 8.09252 39.0866 8.61919 36.5978 9.6502C34.1089 10.6812 31.8519 12.1961 29.9532 14.1072C28.0425 16.008 26.5249 18.2692 25.4935 20.7593C24.4621 23.2493 23.936 25.9193 23.9431 28.6145C23.9359 31.3084 24.4621 33.9768 25.4935 36.4655C26.5249 38.9542 28.0425 41.2137 29.9532 43.1128C31.852 45.0242 34.109 46.5393 36.5978 47.5712ZM34.4212 18.567C37.0809 15.9062 40.6887 14.4091 44.4509 14.4039V14.4183C48.2116 14.4227 51.817 15.9175 54.4779 18.5752C57.1387 21.2329 58.6362 24.8366 58.645 28.5974C58.6399 32.3605 57.1446 35.9677 54.4833 38.6284C51.8221 41.2891 48.2141 42.7864 44.4509 42.7908C40.689 42.7849 37.0835 41.287 34.424 38.6264C31.7644 35.9658 30.2667 32.3593 30.2622 28.5974C30.2659 24.8352 31.7615 21.2278 34.4212 18.567Z" fill="#4B4B4B"/>
<path d="M83.3382 65.0089C83.5136 65.4338 83.7719 65.8195 84.098 66.1435C84.4201 66.4709 84.8041 66.7308 85.2276 66.9082C85.6511 67.0857 86.1058 67.1771 86.565 67.177C87.4909 67.1708 88.3771 66.8002 89.0318 66.1454C89.6866 65.4907 90.0572 64.6045 90.0634 63.6786L90.0659 54.059L99.6918 53.9041C100.62 53.8944 101.506 53.5165 102.155 52.8536C102.804 52.1907 103.163 51.2971 103.154 50.3693C103.144 49.4414 102.766 48.5555 102.103 47.9063C101.44 47.2571 100.547 46.8978 99.6188 46.9075L90.067 47.0617L90.0694 37.5159C90.0511 36.6007 89.6747 35.7291 89.0209 35.0883C88.3672 34.4475 87.4883 34.0886 86.5729 34.0886C85.6575 34.0886 84.7785 34.4475 84.1248 35.0883C83.4711 35.7291 83.0947 36.6007 83.0764 37.5159V47.1328L73.462 47.2876C72.5362 47.3036 71.6539 47.6834 71.006 48.345C70.3581 49.0065 69.9968 49.8965 70.0002 50.8225C70.0024 51.2822 70.0961 51.7368 70.276 52.1599C70.4558 52.583 70.7181 52.966 71.0476 53.2865C71.372 53.6129 71.7596 53.8697 72.1866 54.0413C72.6136 54.2128 73.071 54.2955 73.5311 54.2843L83.0764 54.1301V63.6687C83.0738 64.1284 83.1628 64.584 83.3382 65.0089Z" fill="#4B4B4B"/>
</g>
<defs>
<clipPath id="clip0_4426_74790">
<rect width="112" height="112" fill="white" transform="translate(0 0.499512)"/>
</clipPath>
</defs>
</svg>
