<svg width="24" height="24" viewBox="0 0 24 24" fill="none" xmlns="http://www.w3.org/2000/svg">
<g clip-path="url(#clip0_4426_58113)">
<path d="M9.25434 10.8627C9.37364 10.7938 9.4727 10.6948 9.54156 10.5755C9.61042 10.4563 9.64666 10.321 9.64663 10.1833V3.12433C9.64593 2.99929 9.61533 2.87622 9.55739 2.7654C9.49944 2.65457 9.41583 2.55921 9.31353 2.48725C9.21122 2.4153 9.09319 2.36884 8.96928 2.35175C8.84536 2.33467 8.71916 2.34745 8.60119 2.38903C6.3112 3.19925 4.38542 4.7995 3.17002 6.90211C1.95462 9.00472 1.52932 11.4718 1.97059 13.8598C1.99346 13.9833 2.04566 14.0995 2.1228 14.1986C2.19994 14.2977 2.29976 14.3769 2.41387 14.4294C2.5167 14.4775 2.62889 14.5023 2.74241 14.502C2.88011 14.502 3.01541 14.4659 3.13469 14.3971L9.25434 10.8627ZM8.07749 4.31259V9.73033L3.38183 12.4392C3.37007 12.2912 3.37007 12.1421 3.37007 11.997C3.37146 10.4072 3.81167 8.84851 4.64224 7.49268C5.47281 6.13685 6.66152 5.03644 8.07749 4.31259ZM20.8601 6.94989C20.8513 6.93224 20.8424 6.91361 20.8317 6.89597C20.8209 6.87832 20.812 6.86361 20.8013 6.84793C19.902 5.31241 18.6166 4.03874 17.0728 3.15336C15.5289 2.26798 13.7802 1.80169 12.0003 1.80078C11.7923 1.80078 11.5927 1.88342 11.4456 2.03051C11.2984 2.1776 11.2158 2.37709 11.2158 2.58511V11.5882L3.48677 16.0883C3.39708 16.1403 3.31858 16.2095 3.25582 16.292C3.19305 16.3745 3.14726 16.4685 3.12109 16.5688C3.09491 16.6691 3.08888 16.7736 3.10334 16.8762C3.11779 16.9788 3.15245 17.0776 3.20531 17.1667C4.33927 19.0971 6.07723 20.6008 8.15097 21.4457C10.2247 22.2906 12.5189 22.4297 14.6796 21.8417C16.8403 21.2536 18.7474 19.971 20.1065 18.1918C21.4656 16.4126 22.2012 14.2357 22.1998 11.997C22.202 10.2265 21.7401 8.48635 20.8601 6.94989ZM12.7849 3.40473C14.0292 3.51923 15.2339 3.90234 16.3157 4.52762C17.3975 5.15289 18.3306 6.00543 19.0507 7.02636L12.7849 10.6745V3.40473ZM12.0003 20.6246C10.6307 20.6211 9.28134 20.2934 8.06273 19.6684C6.84412 19.0433 5.79088 18.1387 4.98922 17.0285L12.3838 12.7235L12.4054 12.7098L19.8362 8.38325C20.4428 9.69772 20.7087 11.1436 20.6095 12.5878C20.5104 14.032 20.0493 15.428 19.2688 16.6473C18.4883 17.8666 17.4135 18.87 16.1433 19.5651C14.8731 20.2601 13.4484 20.6245 12.0003 20.6246Z" fill="#F8F8F8"/>
</g>
<defs>
<clipPath id="clip0_4426_58113">
<rect width="24" height="24" fill="white"/>
</clipPath>
</defs>
</svg>
