<svg width="17" height="16" viewBox="0 0 17 16" fill="none" xmlns="http://www.w3.org/2000/svg">
<g id="a1">
<path id="Path 5685" d="M4.19142 7.10317C4.66664 6.27983 5.62384 5.82467 6.88223 5.82467L8.06857 5.82467L8.06857 1.79758C8.0658 1.77403 8.06441 1.75033 8.06441 1.72662C8.06423 1.64844 8.07948 1.57099 8.10928 1.49871C8.13908 1.42642 8.18285 1.36071 8.23808 1.30537C8.29331 1.25003 8.35891 1.20614 8.43114 1.17619C8.50336 1.14624 8.58078 1.13084 8.65897 1.13086C8.9883 1.13086 9.26311 1.39824 9.26311 1.72749C9.26311 1.7438 9.26247 1.7599 9.26118 1.7758L9.26118 5.82467L10.4566 5.82467C11.715 5.82467 12.6722 6.27983 13.1474 7.10317C13.6228 7.93319 13.5357 8.98412 12.9065 10.0751L11.1193 13.1743C10.4901 14.2654 9.61993 14.8677 8.6695 14.8677C7.71906 14.8677 6.84878 14.2653 6.21287 13.1743L4.42574 10.0751C4.06427 9.45269 3.88353 8.8368 3.88353 8.27452C3.88349 7.85283 3.98389 7.45799 4.19142 7.10317ZM12.1151 7.72825C11.8402 7.24869 11.2201 6.98664 10.3762 6.98664L6.96224 6.98664C6.11843 6.98664 5.49823 7.24869 5.22332 7.72825C4.94841 8.20781 5.03157 8.87263 5.45353 9.60788L7.16049 12.5679C7.58235 13.303 8.11942 13.7059 8.66921 13.7059C9.21899 13.7059 9.75605 13.303 10.178 12.5679L11.885 9.60788C12.1471 9.16036 12.275 8.73849 12.275 8.36752C12.2783 8.14413 12.2232 7.92375 12.1152 7.72819L12.1151 7.72825Z" fill="#FF2211"/>
</g>
</svg>
