<svg width="181" height="37" viewBox="0 0 181 37" fill="none" xmlns="http://www.w3.org/2000/svg">
<path id="Vector 2" d="M2.5 16C1.11929 16 0 17.1193 0 18.5C0 19.8807 1.11929 21 2.5 21V16ZM180.268 20.2678C181.244 19.2915 181.244 17.7085 180.268 16.7322L164.358 0.82233C163.382 -0.15398 161.799 -0.15398 160.822 0.82233C159.846 1.79864 159.846 3.38155 160.822 4.35786L174.964 18.5L160.822 32.6421C159.846 33.6184 159.846 35.2014 160.822 36.1777C161.799 37.154 163.382 37.154 164.358 36.1777L180.268 20.2678ZM2.5 21H178.5V16H2.5V21Z" fill="#FFC107"/>
</svg>
