<svg width="17" height="16" viewBox="0 0 17 16" fill="none" xmlns="http://www.w3.org/2000/svg">
<g id="a1">
<path id="Path 5685" d="M4.19142 8.89683C4.66664 9.72017 5.62384 10.1753 6.88223 10.1753L8.06857 10.1753L8.06857 14.2024C8.0658 14.226 8.06441 14.2497 8.06441 14.2734C8.06423 14.3516 8.07948 14.429 8.10928 14.5013C8.13908 14.5736 8.18285 14.6393 8.23808 14.6946C8.29331 14.75 8.35891 14.7939 8.43114 14.8238C8.50336 14.8538 8.58078 14.8692 8.65897 14.8691C8.9883 14.8691 9.26311 14.6018 9.26311 14.2725C9.26311 14.2562 9.26247 14.2401 9.26118 14.2242L9.26118 10.1753L10.4566 10.1753C11.715 10.1753 12.6722 9.72017 13.1474 8.89683C13.6228 8.06681 13.5357 7.01588 12.9065 5.92487L11.1193 2.82572C10.4901 1.73463 9.61993 1.13227 8.6695 1.13227C7.71906 1.13227 6.84878 1.73467 6.21287 2.82572L4.42574 5.92487C4.06427 6.54731 3.88353 7.1632 3.88353 7.72548C3.88349 8.14717 3.98389 8.54201 4.19142 8.89683ZM12.1151 8.27175C11.8402 8.75131 11.2201 9.01336 10.3762 9.01336L6.96224 9.01336C6.11843 9.01336 5.49823 8.75131 5.22332 8.27175C4.94841 7.79219 5.03157 7.12737 5.45353 6.39212L7.16049 3.43208C7.58235 2.69699 8.11942 2.29415 8.66921 2.29415C9.21899 2.29415 9.75605 2.69703 10.178 3.43208L11.885 6.39212C12.1471 6.83964 12.275 7.26151 12.275 7.63248C12.2783 7.85587 12.2232 8.07625 12.1152 8.27181L12.1151 8.27175Z" fill="#4CAF50"/>
</g>
</svg>
