<svg width="181" height="37" viewBox="0 0 181 37" fill="none" xmlns="http://www.w3.org/2000/svg">
<path id="Vector 3" d="M0.732233 16.7322C-0.244078 17.7085 -0.244078 19.2915 0.732233 20.2678L16.6421 36.1777C17.6184 37.154 19.2014 37.154 20.1777 36.1777C21.154 35.2014 21.154 33.6184 20.1777 32.6421L6.03553 18.5L20.1777 4.35786C21.154 3.38155 21.154 1.79864 20.1777 0.82233C19.2014 -0.15398 17.6184 -0.15398 16.6421 0.82233L0.732233 16.7322ZM178.5 21C179.881 21 181 19.8807 181 18.5C181 17.1193 179.881 16 178.5 16V21ZM2.5 21H178.5V16H2.5V21Z" fill="#FFC107"/>
</svg>
