<svg width="16" height="17" viewBox="0 0 16 17" fill="none" xmlns="http://www.w3.org/2000/svg">
<g clip-path="url(#clip0_7150_3050)">
<path d="M0.799999 3.96655L8.46959 1.19531L14.8 4.39531L7.2 7.59531L0.799999 3.96655Z" fill="#DA8B18"/>
<path d="M1.33927 6.72266L7.19999 10.3944V15.621L1.33927 12.0018V6.72266Z" fill="#E7A919"/>
<path d="M14.4388 7.03125L7.19994 10.3937V15.5938L14.4388 12.3363V7.03125Z" fill="#D19916"/>
<path d="M14.7999 4.39453L7.19995 7.59453V10.3945L14.8368 6.84667L14.7999 4.39453Z" fill="#DFA41D"/>
<path d="M0.799999 3.96484L7.2 7.59375V10.3938L0.799999 6.38042V3.96484Z" fill="#F4B320"/>
<path d="M5.16791 3.83373L2.59999 4.99495C2.67273 8.14257 2.59999 12.8171 2.59999 12.8171L4.59999 14.0171V6.17421L7.45501 5.06825L9.77204 6.31892V14.4385L12 13.4365V5.4849L9.98869 4.06172L12.3052 3.14121L9.91746 1.875L7.51854 2.88207L5.16791 3.83373Z" fill="#C23432"/>
<path d="M6.21823 2.04825C5.77821 1.62703 5.26376 1.13457 4.20071 1.30367C3.47779 2.65897 3.43396 3.4495 3.65805 4.88522L6.62452 4.29189L6.95012 2.55538C6.70977 2.47128 6.43706 2.25773 6.21823 2.04825Z" fill="#FB4E4D"/>
<path d="M9.099 2.10423C9.65301 1.58837 10.2907 0.994556 11.1106 1.55631C11.5809 1.95487 11.3377 3.95694 10.8262 5.31705C9.92312 4.70001 9.22114 4.41492 8.10779 4.23401L8.14397 2.6697C8.41191 2.63419 8.79731 2.38515 9.099 2.10423Z" fill="#FB4E4D"/>
<path d="M6.83341 2.62287C6.85952 2.56883 6.9172 2.53748 6.97689 2.54376L8.13622 2.6658C8.20406 2.67294 8.25787 2.72649 8.26417 2.79441C8.3141 3.33277 8.28509 3.66445 8.16976 4.16184C8.15497 4.22566 8.09848 4.2709 8.03299 4.27236L6.66269 4.30281C6.58201 4.3046 6.51532 4.23989 6.51531 4.1592C6.51527 3.57352 6.55544 3.19817 6.83341 2.62287Z" fill="#EC4143"/>
<path d="M9.1831 5.26343C8.62624 5.05223 8.12469 4.23828 8.12469 4.23828C8.12469 4.23828 8.66431 4.26072 9.43569 4.46979C10.2071 4.67886 10.8577 5.1862 10.8211 5.32119C10.7846 5.45618 9.76344 5.48353 9.1831 5.26343Z" fill="#370404"/>
<path d="M4.98418 5.18933C5.4757 5.13431 6.53487 4.31121 6.53487 4.31121C6.53487 4.31121 5.61693 4.40235 4.95418 4.40235C4.29142 4.40235 3.69415 4.7491 3.69415 4.88138C3.69415 5.01366 4.47193 5.24667 4.98418 5.18933Z" fill="#370404"/>
</g>
<defs>
<clipPath id="clip0_7150_3050">
<rect width="16" height="16" fill="white" transform="translate(0 0.394531)"/>
</clipPath>
</defs>
</svg>
