<svg width="24" height="24" viewBox="0 0 24 24" fill="none" xmlns="http://www.w3.org/2000/svg">
<g clip-path="url(#clip0_4421_44609)">
<path d="M14.7571 15.606C15.139 15.9879 15.5191 16.1168 15.8178 15.8182C16.1165 15.5195 15.9875 15.1394 15.6057 14.7575L12.848 11.9999L15.6057 9.24223C15.9875 8.86041 16.1165 8.48029 15.8178 8.1816C15.5191 7.88291 15.139 8.0119 14.7571 8.39373L11.9995 11.1514L9.24185 8.39373C8.86002 8.0119 8.47991 7.88291 8.18122 8.1816C7.88253 8.48029 8.01152 8.86041 8.39335 9.24223L11.151 11.9999L8.39335 14.7575C8.01152 15.1394 7.88253 15.5195 8.18122 15.8182C8.47991 16.1168 8.86003 15.9879 9.24185 15.606L11.9995 12.8484L14.7571 15.606Z" fill="#A6A6A6"/>
<path fill-rule="evenodd" clip-rule="evenodd" d="M11.9997 22.8182C14.927 22.8182 17.5998 21.6727 19.6362 19.6363C21.6726 17.5999 22.8181 14.9271 22.8181 11.9997C22.8181 6.01774 17.9816 1.18125 11.9997 1.18125C9.07232 1.18125 6.39952 2.32674 4.3631 4.36315C2.32669 6.39957 1.1812 9.07237 1.1812 11.9997C1.1812 17.9817 6.01769 22.8182 11.9997 22.8182ZM12.0095 21.6063C14.6089 21.609 16.9812 20.5943 18.7876 18.7879C20.5939 16.9816 21.6086 14.6093 21.6059 12.0099C21.6004 6.69809 17.3013 2.39899 11.9895 2.39347C9.39012 2.39076 7.01783 3.40544 5.21145 5.21183C3.40506 7.01821 2.39038 9.3905 2.39308 11.9899C2.39861 17.3017 6.69771 21.6008 12.0095 21.6063Z" fill="#A6A6A6"/>
</g>
<defs>
<clipPath id="clip0_4421_44609">
<rect width="24" height="24" fill="white"/>
</clipPath>
</defs>
</svg>
