<svg width="32" height="32" viewBox="0 0 32 32" fill="none" xmlns="http://www.w3.org/2000/svg">
<g id="Email 4">
<g id="Union">
<path d="M7.18262 11.4527C12.9842 16.1511 13.0742 16.2017 13.167 16.2377C13.994 16.8198 14.9823 17.1275 15.9936 17.1175C16.9987 17.1296 17.9827 16.8244 18.8045 16.2455C18.9053 16.2095 19.0019 16.1559 24.8107 11.4527C25.0098 11.2912 25.1362 11.0573 25.1631 10.8023C25.1899 10.5473 25.1148 10.2922 24.9537 10.0927C24.7922 9.89363 24.5587 9.76684 24.3037 9.74C24.0487 9.71315 23.793 9.78847 23.5936 9.94957L17.7951 14.6007C17.2707 14.983 16.6386 15.1888 15.9897 15.1888C15.3407 15.1888 14.7086 14.983 14.1842 14.6007L8.39981 9.94957C8.20037 9.78847 7.94462 9.71315 7.68965 9.74C7.43469 9.76684 7.20117 9.89363 7.03965 10.0927C6.87876 10.2923 6.80344 10.5474 6.83028 10.8023C6.85712 11.0572 6.9837 11.2911 7.18262 11.4527Z" fill="#FFC107"/>
<path fill-rule="evenodd" clip-rule="evenodd" d="M9.57393 27.8872H22.4243C27.1147 27.8872 29.8139 25.188 29.8139 20.4976V11.5024C29.8139 6.81119 27.1147 4.11279 22.4243 4.11279H9.57393C4.88273 4.11279 2.18433 6.81119 2.18433 11.5024V20.4976C2.18433 25.188 4.88273 27.8872 9.57393 27.8872ZM4.11233 11.5024C4.11233 7.82639 5.89793 6.04079 9.57393 6.04079H22.4243C26.0995 6.04079 27.8859 7.82719 27.8859 11.5024V20.4976C27.8859 24.1728 26.0995 25.9592 22.4243 25.9592H9.57393C5.89873 25.9592 4.11233 24.1728 4.11233 20.4976V11.5024Z" fill="#FFC107"/>
</g>
</g>
</svg>
