<svg width="18" height="18" viewBox="0 0 18 18" fill="none" xmlns="http://www.w3.org/2000/svg">
<path d="M14.3438 2.25V12.375C14.3438 12.5988 14.2549 12.8134 14.0967 12.9716C13.9384 13.1299 13.7238 13.2188 13.5001 13.2188H5.41412L7.34912 15.153C7.4276 15.2315 7.48986 15.3247 7.53234 15.4273C7.57481 15.5298 7.59667 15.6397 7.59667 15.7507C7.59667 15.8617 7.57481 15.9716 7.53234 16.0742C7.48986 16.1767 7.4276 16.2699 7.34912 16.3484C7.27063 16.4268 7.17746 16.4891 7.07491 16.5316C6.97236 16.5741 6.86246 16.5959 6.75146 16.5959C6.64047 16.5959 6.53056 16.5741 6.42801 16.5316C6.32547 16.4891 6.23229 16.4268 6.1538 16.3484L2.77881 12.9734C2.70015 12.895 2.63773 12.8018 2.59515 12.6993C2.55256 12.5967 2.53064 12.4868 2.53064 12.3757C2.53064 12.2647 2.55256 12.1547 2.59515 12.0521C2.63773 11.9496 2.70015 11.8564 2.77881 11.778L6.1538 8.40305C6.23229 8.32456 6.32547 8.2623 6.42801 8.21983C6.53056 8.17735 6.64047 8.15549 6.75146 8.15549C6.86246 8.15549 6.97236 8.17735 7.07491 8.21983C7.17746 8.2623 7.27063 8.32456 7.34912 8.40305C7.4276 8.48153 7.48986 8.57471 7.53234 8.67725C7.57481 8.7798 7.59667 8.88971 7.59667 9.0007C7.59667 9.1117 7.57481 9.22161 7.53234 9.32415C7.48986 9.4267 7.4276 9.51987 7.34912 9.59836L5.41412 11.5312H12.6563V2.25C12.6563 2.02622 12.7452 1.81161 12.9034 1.65338C13.0617 1.49514 13.2763 1.40625 13.5001 1.40625C13.7238 1.40625 13.9384 1.49514 14.0967 1.65338C14.2549 1.81161 14.3438 2.02622 14.3438 2.25Z" fill="#1C1B19"/>
</svg>
