<svg width="32" height="32" viewBox="0 0 32 32" fill="none" xmlns="http://www.w3.org/2000/svg">
<g clip-path="url(#clip0_4421_45323)">
<rect width="32" height="32" rx="16" fill="#2B2B2B"/>
<path d="M9.08872 22.1904C10.3118 20.5541 11.0471 18.4517 11.0471 16.1585C11.0471 13.7441 10.232 11.5412 8.89073 9.87109C5.48422 10.9205 2.79665 13.1748 1.6001 16.001C2.81973 18.8818 5.58849 21.1684 9.08872 22.1904Z" fill="#FFC107"/>
<path d="M9.15776 22.2141C10.4268 22.5776 11.7907 22.7751 13.2109 22.7751C18.5848 22.7751 23.153 19.946 24.8216 16.0048C23.153 12.0635 18.5848 9.23438 13.2109 9.23438C11.6906 9.23438 10.2348 9.4608 8.89087 9.87477C10.232 11.5448 11.0472 13.7477 11.0472 16.162C11.0472 18.4118 10.3394 20.4779 9.15776 22.1004V22.2141Z" fill="#FFD45F"/>
<path d="M6.00873 15.5306C6.00873 15.0089 6.43169 14.5859 6.95343 14.5859C7.47518 14.5859 7.89814 15.0089 7.89814 15.5306C7.89814 16.0524 7.47518 16.4753 6.95343 16.4753C6.43169 16.4753 6.00873 16.0524 6.00873 15.5306Z" fill="#463A3A"/>
<path d="M18.0988 6.39844L9.78754 9.62244L9.78948 9.62841C10.8755 9.37073 12.0235 9.23263 13.2108 9.23263C14.9479 9.23263 16.6008 9.52825 18.0988 10.0615C18.3102 9.24372 18.0988 6.39844 18.0988 6.39844Z" fill="#FFC414"/>
<path d="M10.0605 22.4372C11.0659 22.6552 12.1218 22.7714 13.2108 22.7714C14.9618 22.7714 16.6273 22.471 18.1348 21.9297C18.3429 22.7922 18.1348 25.4488 18.1348 25.4488C18.1348 25.4488 11.1548 23.2656 10.0605 22.4372Z" fill="#FFC414"/>
<path d="M24.075 17.4076C24.3654 16.9582 24.6155 16.4886 24.8215 16.002C24.6155 15.5155 24.3654 15.0459 24.075 14.5965C25.4353 12.4915 27.6785 10.8289 30.4001 9.94141C29.712 11.6801 29.3114 13.7633 29.3114 16.002C29.3114 18.2408 29.712 20.3239 30.4001 22.0627C27.6785 21.1752 25.4353 19.5126 24.075 17.4076Z" fill="#FFC414"/>
</g>
<defs>
<clipPath id="clip0_4421_45323">
<rect width="32" height="32" fill="white"/>
</clipPath>
</defs>
</svg>
