<svg width="16" height="16" viewBox="0 0 16 16" fill="none" xmlns="http://www.w3.org/2000/svg">
<g clip-path="url(#clip0_4426_83483)">
<path fill-rule="evenodd" clip-rule="evenodd" d="M9.48006 0.942994L8.64305 0.508482C8.56202 0.460535 8.46158 0.446282 8.36497 0.477589L6.04317 1.23C6.01777 1.2149 5.9893 1.19816 5.9581 1.18008C5.82158 1.10095 5.63132 0.995307 5.41709 0.88984C5.20372 0.784803 4.96123 0.677283 4.72104 0.596604C4.48626 0.517744 4.22805 0.455576 3.99139 0.461588C3.86059 0.46491 3.74893 0.541674 3.69485 0.651423C3.37276 1.25774 3.21197 1.78896 3.15515 2.31804L0.679693 3.25478C0.573338 3.29502 0.49594 3.38483 0.469738 3.492C0.462654 3.52081 0.459483 3.55007 0.460025 3.57909V5.98082C0.459866 5.98903 0.460004 5.99723 0.460436 6.0054C0.466381 6.12717 0.536394 6.23212 0.637484 6.28725L0.999743 6.51591L7.30903 10.3135L13.1171 7.62815L14.0988 7.1722V7.17427L14.7788 6.85988V6.85561L14.9666 6.76795C15.081 6.7207 15.1637 6.61291 15.1754 6.48505C15.1768 6.47023 15.1772 6.45526 15.1767 6.44024L15.1401 4.00377C15.1408 3.87888 15.0724 3.75827 14.9534 3.6981L11.7077 2.0574C11.7035 1.94902 11.6951 1.84445 11.6818 1.74485C11.6422 1.44793 11.5541 1.14819 11.3644 0.935758C11.3405 0.908963 11.3133 0.88685 11.2839 0.869485C11.0438 0.708859 10.8009 0.620382 10.5566 0.600078C10.3064 0.579296 10.0765 0.631737 9.87065 0.720446C9.73369 0.779469 9.6032 0.85681 9.48006 0.942994ZM6.7949 1.70121L8.43863 1.16853L8.91622 1.41646L8.88457 1.44593C8.59338 1.65926 8.41249 1.77543 8.08422 1.92894L7.03129 1.82811C6.99568 1.81204 6.94052 1.78392 6.86705 1.74259C6.84368 1.72944 6.81954 1.71558 6.7949 1.70121ZM5.81398 1.88648L5.80553 1.88119C5.79678 1.87574 5.78351 1.86752 5.76618 1.85694C5.73148 1.83577 5.68059 1.8052 5.61712 1.7684C5.48984 1.69464 5.31355 1.5968 5.11675 1.49992C4.91907 1.40261 4.70605 1.30891 4.50452 1.24121C4.39087 1.20304 4.28846 1.17577 4.19947 1.15944C3.94555 1.68519 3.84064 2.13062 3.81628 2.5763L3.81608 2.57999C3.81518 2.59672 3.8144 2.61346 3.81372 2.6302C3.79492 3.09638 3.85993 3.57328 3.9525 4.17229C4.45343 4.20127 4.84283 4.17745 5.21217 4.09437C5.58939 4.00951 5.96167 3.85931 6.42352 3.61797C6.38649 3.3752 6.37072 3.16046 6.38921 2.94194C6.40635 2.73925 6.45194 2.5445 6.52438 2.33002C6.4203 2.27119 6.30785 2.20298 6.20503 2.13882C6.0987 2.07247 6.0004 2.00901 5.92879 1.96223C5.89294 1.9388 5.86364 1.91947 5.84321 1.90593L5.81949 1.89016L5.81398 1.88648ZM7.17634 2.52511C7.11115 2.71382 7.07866 2.8589 7.06678 2.99926C7.05481 3.14076 7.0627 3.28963 7.09165 3.48771C7.36067 3.51003 7.57444 3.51646 7.84802 3.5096C7.88993 3.34385 7.91161 3.20702 7.91609 3.07142C7.92074 2.93084 7.90721 2.78082 7.86872 2.59141L7.17634 2.52511ZM6.87059 4.15052C6.32284 4.44554 5.85642 4.64644 5.3614 4.75779C4.86105 4.87034 4.35069 4.88716 3.72032 4.838L7.22223 6.82356L13.991 3.97355L11.679 2.80481C11.605 3.52683 11.4078 4.3403 11.1482 5.0331C11.0951 5.19006 10.9336 5.28859 10.7656 5.2581C9.68511 5.062 9.05032 4.8443 8.01454 4.18464C7.58234 4.2009 7.29657 4.19157 6.87059 4.15052ZM8.504 3.68923C9.29489 4.18046 9.81603 4.37493 10.6036 4.53479C10.8019 3.94364 10.949 3.2852 11.0055 2.70508C11.0382 2.36997 11.0394 2.07234 11.0077 1.83464C10.9792 1.62068 10.9284 1.48902 10.8797 1.41762C10.7329 1.3244 10.6076 1.28666 10.5003 1.27774C10.3829 1.26799 10.2651 1.29092 10.1398 1.34493C9.87296 1.45991 9.6187 1.69151 9.3308 1.95959C9.31646 1.97293 9.30128 1.98481 9.28544 1.99521C9.01557 2.19286 8.81829 2.32332 8.53694 2.46508C8.582 2.68949 8.60242 2.8913 8.59572 3.09389C8.58908 3.29467 8.5561 3.48587 8.504 3.68923ZM3.137 3.05197L1.59767 3.63447L3.34553 4.6255C3.33459 4.59991 3.32667 4.57266 3.32222 4.54418L3.30833 4.45528C3.22999 3.95447 3.15838 3.49662 3.137 3.05197ZM1.54046 6.05447L6.85998 9.38719L6.86002 7.39989L1.14003 4.15669V5.80043L1.52092 6.04117C1.52763 6.04541 1.53414 6.04985 1.54046 6.05447ZM14.4936 6.23834L14.4676 4.51068L7.54002 7.42757L7.54002 9.46865L14.2836 6.33664C14.2873 6.33471 14.2911 6.33285 14.295 6.33105L14.4936 6.23834Z" fill="#FFC107"/>
<path d="M1.13984 7.59275C1.13984 7.49866 1.2432 7.44117 1.32314 7.4908L6.80314 10.8928C6.8384 10.9147 6.85984 10.9532 6.85984 10.9948V15.0122C6.85984 15.1059 6.7572 15.1635 6.67724 15.1146L1.19724 11.7637C1.16159 11.7419 1.13984 11.7031 1.13984 11.6613V7.59275Z" fill="#FFC107"/>
<path d="M14.4912 11.9762C14.4912 12.023 14.4641 12.0654 14.4217 12.0851L7.71038 15.2016C7.63085 15.2385 7.53984 15.1804 7.53984 15.0927V11.0337C7.53984 10.9873 7.56665 10.945 7.60865 10.9252L14.32 7.75974C14.3996 7.7222 14.4912 7.78027 14.4912 7.86827V11.9762Z" fill="#FFC107"/>
</g>
<defs>
<clipPath id="clip0_4426_83483">
<rect width="16" height="16" fill="white"/>
</clipPath>
</defs>
</svg>
