<svg width="24" height="25" viewBox="0 0 24 25" fill="none" xmlns="http://www.w3.org/2000/svg">
<path d="M22.3877 12.4999C22.3885 12.3807 22.3656 12.2626 22.3203 12.1523C22.2751 12.042 22.2084 11.9418 22.1241 11.8575C22.0398 11.7732 21.9396 11.7065 21.8293 11.6612C21.719 11.616 21.6008 11.5931 21.4816 11.5939H2.63047C2.39009 11.5939 2.15956 11.6894 1.98958 11.8594C1.81961 12.0293 1.72412 12.2599 1.72412 12.5002C1.72412 12.7406 1.81961 12.9712 1.98958 13.1411C2.15956 13.3111 2.39009 13.4066 2.63047 13.4066H21.4816C21.7218 13.4058 21.9519 13.31 22.1216 13.1401C22.2914 12.9703 22.387 12.7401 22.3877 12.4999Z" fill="#FFC107"/>
<path d="M1.86833 19.0553C1.86753 19.1745 1.89042 19.2927 1.93567 19.4029C1.98092 19.5132 2.04763 19.6134 2.13192 19.6977C2.21622 19.782 2.31642 19.8487 2.4267 19.894C2.53699 19.9392 2.65517 19.9621 2.77437 19.9613H21.3369C21.5772 19.9613 21.8077 19.8659 21.9776 19.6959C22.1475 19.526 22.2429 19.2956 22.2429 19.0553C22.2429 18.815 22.1475 18.5845 21.9776 18.4146C21.8077 18.2447 21.5772 18.1492 21.3369 18.1492H2.77497C2.53534 18.1516 2.30619 18.2478 2.13668 18.4172C1.96717 18.5866 1.87083 18.8157 1.86833 19.0553Z" fill="#FFC107"/>
<path d="M1.93567 6.29229C1.89042 6.182 1.86753 6.06383 1.86833 5.94462C1.86912 5.70446 1.96491 5.47437 2.13479 5.30461C2.30466 5.13485 2.53481 5.03921 2.77497 5.03857H21.3369C21.5772 5.03857 21.8077 5.13403 21.9776 5.30395C22.1475 5.47387 22.2429 5.70432 22.2429 5.94462C22.2429 6.18492 22.1475 6.41537 21.9776 6.58529C21.8077 6.75521 21.5772 6.85066 21.3369 6.85066H2.77437C2.65517 6.85146 2.53699 6.82857 2.4267 6.78332C2.31642 6.73807 2.21622 6.67136 2.13192 6.58707C2.04763 6.50277 1.98092 6.40258 1.93567 6.29229Z" fill="#FFC107"/>
</svg>
