<svg width="40" height="40" viewBox="0 0 40 40" fill="none" xmlns="http://www.w3.org/2000/svg">
<g clip-path="url(#clip0_36882_45)">
<path fill-rule="evenodd" clip-rule="evenodd" d="M3.35133 10.552C3.22896 10.9805 3.13942 11.4185 3.08343 11.8616C3.02746 12.3136 2.99973 12.769 3.00004 13.2247V28.7794C2.99886 29.2165 3.02433 29.6531 3.07633 30.0869C3.12701 30.5142 3.21205 30.9365 3.33004 31.3493C3.53715 32.1406 3.93462 32.8641 4.48594 33.4518C4.76556 33.7313 5.08088 33.9699 5.42273 34.1611C5.77804 34.3604 6.1517 34.5214 6.5387 34.6415C7.33779 34.8847 8.16679 35.0057 8.99954 35.0006H23.9996C24.4302 35.0032 24.8604 34.977 25.2877 34.9224C25.7088 34.8674 26.1249 34.7763 26.5314 34.6501C27.3116 34.4282 28.022 33.9989 28.593 33.4047C28.852 33.1161 29.0716 32.7922 29.246 32.442C29.4285 32.0759 29.5751 31.6914 29.6824 31.2945C29.793 30.8857 29.8735 30.4688 29.9237 30.0473C29.9745 29.628 29.9999 29.2057 30 28.7831V13.2284C30.0003 12.7926 29.9791 12.3571 29.9352 11.9237C29.8914 11.4868 29.8166 11.0539 29.7117 10.6284C29.5405 9.81988 29.1664 9.07246 28.6276 8.46169C28.3496 8.17392 28.03 7.93317 27.6802 7.74781C27.3144 7.55547 26.9297 7.40532 26.5323 7.30025C25.704 7.08975 24.8532 6.9895 24.0005 7.00173H8.45131C7.7037 6.99082 6.95915 7.09748 6.24241 7.31819C5.5849 7.51596 4.9862 7.88261 4.50191 8.38441C4.23257 8.67965 4.00233 9.01084 3.81706 9.36898C3.62366 9.74596 3.46719 10.1423 3.35133 10.552ZM24.0099 33.3006L8.99954 33.3005L8.98911 33.3006C8.32983 33.3046 7.67278 33.2091 7.0383 33.0166C6.76784 32.9323 6.50543 32.8193 6.25447 32.6785L6.25249 32.6774C6.05549 32.5672 5.87183 32.4299 5.70694 32.2685C5.36251 31.8945 5.10884 31.4316 4.97464 30.9188L4.96982 30.9004L4.96458 30.8821C4.87145 30.5563 4.80442 30.2232 4.7645 29.8867L4.76424 29.8845C4.72048 29.5195 4.69904 29.152 4.70004 28.784L4.70004 13.2236C4.69978 12.8382 4.72318 12.4538 4.77028 12.0726C4.81551 11.7156 4.88765 11.3632 4.98598 11.0189L4.9872 11.0146C5.07186 10.7152 5.18635 10.4247 5.32827 10.1476C5.44196 9.92833 5.58117 9.72699 5.74157 9.54811C6.0237 9.26136 6.36483 9.0566 6.73206 8.94615L6.74272 8.9429C7.28994 8.77439 7.85732 8.69324 8.42649 8.70155L8.4389 8.70173H24.0127L24.0249 8.70156C24.7252 8.69151 25.4242 8.77346 26.1053 8.94578C26.3742 9.01749 26.636 9.11967 26.8865 9.25116C27.0652 9.34613 27.2312 9.46871 27.3789 9.61629C27.7073 9.99888 27.9401 10.468 28.0485 10.9804L28.0544 11.008L28.0611 11.0354C28.1468 11.383 28.2079 11.7366 28.2437 12.0934L28.2439 12.0949C28.2818 12.4694 28.3003 12.8473 28.3 13.2272V28.7828C28.2999 29.1373 28.2786 29.4916 28.236 29.8431L28.2357 29.8461C28.1951 30.1866 28.1302 30.5224 28.0414 30.8506C27.9636 31.1383 27.8572 31.4174 27.7247 31.6833L27.7242 31.6842C27.6214 31.8906 27.4943 32.0798 27.3468 32.2478C26.9844 32.6177 26.5428 32.8794 26.0664 33.0149L26.0467 33.0205L26.0272 33.0265C25.7139 33.1239 25.3936 33.194 25.0699 33.2364C24.7181 33.2813 24.3641 33.3027 24.0099 33.3006Z" fill="#6E7191"/>
</g>
<defs>
<clipPath id="clip0_36882_45">
<rect width="40" height="40" fill="white" transform="translate(0 0.000854492)"/>
</clipPath>
</defs>
</svg>
