<svg width="40" height="40" viewBox="0 0 40 40" fill="none" xmlns="http://www.w3.org/2000/svg">
<g clip-path="url(#clip0_36882_49)">
<path d="M37.1014 6.10192C37.4334 5.76997 37.4334 5.23178 37.1014 4.89984C36.7695 4.56789 36.2313 4.56789 35.8994 4.89984L18.0004 22.7988L10.6014 15.3998C10.2695 15.0679 9.7313 15.0679 9.39935 15.3998C9.0674 15.7318 9.0674 16.27 9.39935 16.6019L17.3994 24.6019C17.7313 24.9339 18.2695 24.9339 18.6014 24.6019L37.1014 6.10192Z" fill="#6E7191"/>
<path d="M30.1596 9.27581C30.3873 9.05096 30.4541 8.70431 30.2894 8.43001C29.4152 6.97463 27.8213 6.00079 26 6.00079H9C6.23858 6.00079 4 8.23937 4 11.0008V29.0008C4 31.7622 6.23858 34.0008 9 34.0008H26C28.7614 34.0008 31 31.7622 31 29.0008V16.035C31 15.2803 30.0897 14.8999 29.5527 15.4303C29.391 15.59 29.3 15.8078 29.3 16.035V29.0008C29.3 30.8233 27.8225 32.3008 26 32.3008H9C7.17746 32.3008 5.7 30.8233 5.7 29.0008V11.0008C5.7 9.17825 7.17746 7.70079 9 7.70079H26C27.0771 7.70079 28.0337 8.21683 28.636 9.01515C28.9911 9.48585 29.7401 9.69016 30.1596 9.27581Z" fill="#6E7191"/>
</g>
<defs>
<clipPath id="clip0_36882_49">
<rect width="40" height="40" fill="white" transform="translate(0 0.000854492)"/>
</clipPath>
</defs>
</svg>
