<svg width="17" height="16" viewBox="0 0 17 16" fill="none" xmlns="http://www.w3.org/2000/svg">
<g clip-path="url(#clip0_4421_43467)">
<path d="M8.49953 9.12271C8.37245 9.12155 8.2509 9.0705 8.16111 8.98056C8.07132 8.89062 8.02047 8.76899 8.01953 8.64191V5.43391C8.02068 5.30696 8.07162 5.18553 8.16139 5.09576C8.25116 5.00599 8.37258 4.95505 8.49953 4.95391C8.62648 4.95505 8.7479 5.00599 8.83767 5.09576C8.92744 5.18553 8.97838 5.30696 8.97953 5.43391V8.64191C8.97859 8.76899 8.92774 8.89062 8.83795 8.98056C8.74816 9.0705 8.62662 9.12155 8.49953 9.12271Z" fill="white"/>
<path d="M8.25499 11.156C8.33206 11.1889 8.41482 11.2062 8.49859 11.2072C8.58296 11.2062 8.66629 11.1885 8.74379 11.1552C8.82148 11.1226 8.89304 11.077 8.95539 11.0204C9.0134 10.9591 9.05916 10.8873 9.09019 10.8088C9.12304 10.7317 9.14043 10.649 9.14139 10.5652C9.14043 10.4814 9.12304 10.3987 9.09019 10.3216C9.05762 10.2439 9.01203 10.1724 8.95539 10.11C8.89304 10.0534 8.82148 10.0078 8.74379 9.97521C8.58763 9.91087 8.41236 9.91087 8.25619 9.97521C8.17851 10.0078 8.10695 10.0534 8.04459 10.11C7.98796 10.1724 7.94237 10.2439 7.90979 10.3216C7.87669 10.3993 7.85929 10.4828 7.85859 10.5672C7.86002 10.6498 7.87741 10.7313 7.90979 10.8072C7.9402 10.8864 7.98555 10.9591 8.04339 11.0212C8.10575 11.0778 8.17731 11.1234 8.25499 11.156Z" fill="white"/>
<path fill-rule="evenodd" clip-rule="evenodd" d="M8.50027 14.8951C7.13661 14.8951 5.80357 14.4907 4.66973 13.7331C3.53588 12.9755 2.65216 11.8987 2.13031 10.6388C1.60846 9.37894 1.47192 7.99262 1.73795 6.65516C2.00399 5.3177 2.66066 4.08917 3.62491 3.12491C4.58917 2.16066 5.8177 1.50399 7.15516 1.23795C8.49262 0.971916 9.87894 1.10846 11.1388 1.63031C12.3987 2.15216 13.4755 3.03588 14.2331 4.16973C14.9907 5.30357 15.3951 6.63661 15.3951 8.00027C15.3935 9.8284 14.6666 11.5812 13.3739 12.8739C12.0812 14.1666 10.3284 14.8935 8.50027 14.8951ZM8.50027 2.06747C7.32687 2.06747 6.17983 2.41542 5.20418 3.06733C4.22854 3.71923 3.46812 4.64581 3.01908 5.72989C2.57004 6.81396 2.45255 8.00685 2.68147 9.1577C2.91039 10.3086 3.47543 11.3657 4.30515 12.1954C5.13487 13.0251 6.19199 13.5902 7.34284 13.8191C8.49369 14.048 9.68658 13.9305 10.7707 13.4815C11.8547 13.0324 12.7813 12.272 13.4332 11.2964C14.0851 10.3207 14.4331 9.17367 14.4331 8.00027C14.4312 6.42738 13.8055 4.91946 12.6933 3.80725C11.5811 2.69505 10.0732 2.06938 8.50027 2.06747Z" fill="white"/>
</g>
<defs>
<clipPath id="clip0_4421_43467">
<rect width="16" height="16" fill="white" transform="translate(0.5)"/>
</clipPath>
</defs>
</svg>
