<svg width="16" height="16" viewBox="0 0 16 16" fill="none" xmlns="http://www.w3.org/2000/svg">
<path d="M7.99935 1.13159C6.64099 1.13159 5.31313 1.53439 4.18369 2.28906C3.05426 3.04372 2.17397 4.11636 1.65415 5.37132C1.13432 6.62628 0.998314 8.00721 1.26332 9.33947C1.52832 10.6717 2.18243 11.8955 3.14294 12.856C4.10345 13.8165 5.32721 14.4706 6.65947 14.7356C7.99173 15.0006 9.37266 14.8646 10.6276 14.3448C11.8826 13.825 12.9552 12.9447 13.7099 11.8152C14.4645 10.6858 14.8674 9.35795 14.8674 7.99959C14.8642 6.17906 14.1396 4.434 12.8523 3.14669C11.5649 1.85937 9.81988 1.13476 7.99935 1.13159V1.13159ZM7.48415 5.25159C7.48415 5.11495 7.53843 4.98391 7.63505 4.88729C7.73167 4.79067 7.86271 4.73639 7.99935 4.73639C8.13599 4.73639 8.26703 4.79067 8.36365 4.88729C8.46027 4.98391 8.51455 5.11495 8.51455 5.25159V8.68559C8.51455 8.82223 8.46027 8.95327 8.36365 9.04989C8.26703 9.14651 8.13599 9.20079 7.99935 9.20079C7.86271 9.20079 7.73167 9.14651 7.63505 9.04989C7.53843 8.95327 7.48415 8.82223 7.48415 8.68559V5.25159ZM8.63135 11.008C8.59812 11.0921 8.54911 11.1691 8.48695 11.2348C8.42012 11.2955 8.34342 11.3443 8.26015 11.3792C8.17819 11.4151 8.08966 11.4337 8.00015 11.4337C7.91065 11.4337 7.82211 11.4151 7.74015 11.3792C7.65688 11.3443 7.58018 11.2955 7.51335 11.2348C7.4512 11.1691 7.40218 11.0921 7.36895 11.008C7.33299 10.926 7.31443 10.8375 7.31443 10.748C7.31443 10.6585 7.33299 10.57 7.36895 10.488C7.39986 10.4028 7.44909 10.3255 7.51316 10.2614C7.57723 10.1973 7.65458 10.1481 7.73975 10.1172C7.90638 10.049 8.09312 10.049 8.25975 10.1172C8.34492 10.1481 8.42227 10.1973 8.48634 10.2614C8.55041 10.3255 8.59964 10.4028 8.63055 10.488C8.66651 10.57 8.68507 10.6585 8.68507 10.748C8.68507 10.8375 8.66651 10.926 8.63055 11.008H8.63135Z" fill="#A6A6A6"/>
</svg>
