<svg xmlns="http://www.w3.org/2000/svg" version="1.1" xmlns:xlink="http://www.w3.org/1999/xlink" width="512" height="512" x="0" y="0" viewBox="0 0 64 64" style="enable-background:new 0 0 512 512" xml:space="preserve" class=""><g><path d="M18.5 3.9h19.1c.3 0 .6.2.8.4l5.7 6.5c.4.4.3 1-.1 1.4s-1 .3-1.4-.1l-4-4.6V16c0 .3 0 .5.1.8.1.5-.2 1-.8 1.2-.5.1-1-.2-1.2-.8-.1-.4-.1-.8-.1-1.2V5.9H18.5c-1.3 0-2.4.6-3.3 1.5-.9 1-1.4 2.4-1.4 3.9V42c0 .6-.5 1-1 1-.6 0-1-.5-1-1V11.3c0-2 .7-3.9 1.9-5.2 1.3-1.4 3-2.2 4.8-2.2zm-12.9 56c-.4.4-1 .4-1.4 0s-.4-1 0-1.4c18-18.2 36.1-36.3 54.2-54.4.4-.4 1-.4 1.4 0s.4 1 0 1.4L49.1 16.3c.9 1 1.9 2.1 2.8 3.1.2.2.3.4.3.7v32.5c0 2-.7 3.9-1.9 5.2-1.2 1.4-2.9 2.2-4.8 2.2h-27c-1.9 0-3.5-.9-4.8-2.2-1-1.2-1.7-2.7-1.9-4.3zm42.1-42.2-1.4 1.4h2.6zm-3.4 3.4L13.8 51.6v1.1c0 1.5.5 2.9 1.4 3.9s2 1.6 3.3 1.6h26.9c1.3 0 2.4-.6 3.3-1.6s1.4-2.4 1.4-3.9V21.1z" fill="#000000" opacity="1" data-original="#000000" class=""></path></g></svg>