<svg width="24" height="24" viewBox="0 0 24 24" fill="none" xmlns="http://www.w3.org/2000/svg">
<path d="M13.9988 22.7474H9.99975C4.57163 22.7474 2.25232 20.4281 2.25232 15V9.00074C2.25232 3.57322 4.57163 1.25391 9.99975 1.25391H13.9988C19.427 1.25391 21.7463 3.57322 21.7463 9.00134V15.0006C21.7463 20.4281 19.427 22.7474 13.9988 22.7474ZM9.99975 2.75372C5.39113 2.75372 3.75213 4.39271 3.75213 9.00134V15.0006C3.75213 19.6092 5.39173 21.2488 10.0004 21.2488H13.9988C18.6075 21.2488 20.2471 19.6092 20.2471 15.0006V9.00134C20.2471 4.39271 18.6075 2.75372 13.9988 2.75372H9.99975Z" fill="#A6A6A6"/>
<path d="M7.91141 8.55019H14.8105C15.0094 8.55019 15.2002 8.6292 15.3408 8.76984C15.4814 8.91047 15.5605 9.10121 15.5605 9.3001C15.5605 9.49899 15.4814 9.68973 15.3408 9.83036C15.2002 9.971 15.0094 10.05 14.8105 10.05H7.91141C7.71252 10.05 7.52178 9.971 7.38115 9.83036C7.24051 9.68973 7.16151 9.49899 7.16151 9.3001C7.16151 9.10121 7.24051 8.91047 7.38115 8.76984C7.52178 8.6292 7.71252 8.55019 7.91141 8.55019Z" fill="#A6A6A6"/>
<path d="M7.91141 13.9495H12.4108C12.6097 13.9495 12.8005 14.0285 12.9411 14.1692C13.0817 14.3098 13.1608 14.5005 13.1608 14.6994C13.1608 14.8983 13.0817 15.0891 12.9411 15.2297C12.8005 15.3703 12.6097 15.4493 12.4108 15.4493H7.91141C7.71252 15.4493 7.52178 15.3703 7.38115 15.2297C7.24051 15.0891 7.16151 14.8983 7.16151 14.6994C7.16151 14.5005 7.24051 14.3098 7.38115 14.1692C7.52178 14.0285 7.71252 13.9495 7.91141 13.9495Z" fill="#A6A6A6"/>
</svg>
