<svg width="16" height="17" viewBox="0 0 16 17" fill="none" xmlns="http://www.w3.org/2000/svg">
<path fill-rule="evenodd" clip-rule="evenodd" d="M2.51051 13.993C2.85357 14.3195 3.31039 14.4992 3.78398 14.4938C3.82598 14.4938 3.87851 14.4918 3.92851 14.4854H3.95703C3.99343 14.4834 4.03344 14.4814 4.07344 14.4814L6.13833 14.1897C6.64153 14.0946 7.10787 13.8596 7.48368 13.5117L12.8959 8.10004C13.1956 7.80558 13.4532 7.47102 13.6612 7.10597C13.8369 6.79564 13.9458 6.45204 13.9811 6.09716C14.0211 5.66558 13.9487 5.23098 13.7713 4.83551C13.5592 4.3743 13.2625 3.95707 12.8963 3.6055C12.5998 3.30182 12.2604 3.043 11.8893 2.83712C11.5077 2.62436 11.0792 2.50985 10.6424 2.50391C10.2144 2.52894 9.79576 2.63924 9.41107 2.82843C9.02638 3.01761 8.68355 3.28183 8.40245 3.6055L2.9906 9.01764C2.8145 9.20209 2.66866 9.41323 2.55855 9.64324C2.44352 9.8698 2.36387 10.1126 2.32222 10.3633L2.03081 12.4286C1.98332 12.7159 2.00247 13.0103 2.08706 13.2889C2.16787 13.5549 2.3135 13.7968 2.51051 13.993ZM9.6435 3.75023C9.92034 3.61407 10.2219 3.53472 10.5298 3.51672V3.51868C10.8424 3.52223 11.149 3.60309 11.4228 3.75394C11.69 3.90205 11.9344 4.08821 12.1479 4.30669C12.4112 4.55978 12.6249 4.8601 12.7776 5.19196C12.9054 5.47654 12.9572 5.7894 12.928 6.09999C12.9031 6.3554 12.8248 6.60272 12.6983 6.82599C12.5487 7.08878 12.3635 7.32963 12.1479 7.54163L11.2023 8.46718C10.4529 8.19338 9.77089 7.75491 9.20554 7.18134C8.66873 6.63672 8.25196 5.98509 7.98028 5.26985L8.9177 4.30952C9.11997 4.07656 9.36665 3.88638 9.6435 3.75023ZM7.34768 5.91792L3.59764 9.75965C3.47103 9.89239 3.36601 10.0443 3.2867 10.2097C3.23452 10.3726 3.20746 10.5426 3.20662 10.7137C3.17942 11.0265 3.13367 11.5505 3.01247 12.4141C2.97819 12.6209 2.99172 12.8328 3.05232 13.0334C3.10383 13.2019 3.1041 13.2021 3.19406 13.2805L3.19451 13.2809L3.2367 13.3185C3.32947 13.4233 3.45593 13.4927 3.59413 13.5149C3.60653 13.5149 3.9057 13.4893 4.31211 13.4473C4.69292 13.4073 5.24813 13.3457 5.72934 13.2697C6.07714 13.239 6.40835 13.1076 6.68249 12.8914L10.5238 9.13131C9.79849 8.85638 9.13807 8.42637 8.58807 7.8686C8.04128 7.31408 7.61903 6.64861 7.34768 5.91792Z" fill="#A6A6A6"/>
</svg>
