<svg width="32" height="32" viewBox="0 0 32 32" fill="none" xmlns="http://www.w3.org/2000/svg">
<path d="M27.8918 14.2055C27.4726 13.9789 23.8775 11.893 22.5286 11.1078L22.5246 11.1052L6.1848 1.67163C5.90643 1.5017 5.59429 1.39465 5.27022 1.35796C4.94615 1.32127 4.61797 1.35584 4.30866 1.45923C4.27375 1.47177 4.24095 1.48438 4.20702 1.49991C4.12823 1.52559 4.05122 1.55642 3.97647 1.59221C3.66405 1.77894 3.40774 2.04644 3.23452 2.36655C3.06129 2.68665 2.97754 3.04754 2.9921 3.41122V28.725C2.98218 29.0638 3.06243 29.3992 3.22463 29.6968C3.38683 29.9945 3.62517 30.2437 3.91527 30.419C3.98218 30.4517 4.05112 30.4801 4.12166 30.504C4.16023 30.5218 4.197 30.5373 4.2368 30.5514C4.42775 30.6206 4.62885 30.6577 4.83194 30.6612C5.22193 30.657 5.604 30.5506 5.94002 30.3526C6.45824 30.0518 22.5246 20.7758 22.5246 20.7758L27.8853 17.6807C28.2168 17.5147 28.4965 17.2613 28.6943 16.9478C28.8921 16.6343 29.0005 16.2727 29.0077 15.9021C28.9914 15.5451 28.8792 15.1991 28.6828 14.9005C28.4864 14.6019 28.2132 14.3618 27.8918 14.2055ZM5.65877 26.4535V5.47062L16.2456 15.9494L5.65877 26.4535ZM12.3494 23.5712L18.1408 17.8251L19.6735 19.3422C17.9873 20.3159 15.1384 21.9609 12.3494 23.5712ZM18.1385 14.0712L12.2747 8.26725L19.6795 12.5423L18.1385 14.0712ZM22.0675 17.9601L20.0337 15.9471L22.0707 13.926C23.031 14.4837 24.5278 15.3518 25.5585 15.9451L22.0675 17.9601Z" fill="white"/>
</svg>
