<svg width="16" height="17" viewBox="0 0 16 17" fill="none" xmlns="http://www.w3.org/2000/svg">
<g clip-path="url(#clip0_4421_11455)">
<path d="M4.54696 3.33221C4.54674 3.26655 4.55961 3.2015 4.58481 3.14086C4.61001 3.08023 4.64704 3.02522 4.69374 2.97906C5.36978 2.30143 6.23158 1.83951 7.17015 1.65169C8.10873 1.46388 9.08192 1.55862 9.96666 1.92392C10.8514 2.28923 11.6079 2.9087 12.1406 3.70398C12.6732 4.49927 12.9581 5.43465 12.9591 6.39183L12.9459 8.83832L13.639 8.11161C13.7309 8.01615 13.857 7.96111 13.9895 7.95859C14.122 7.95608 14.2501 8.0063 14.3455 8.09822C14.441 8.19013 14.496 8.3162 14.4986 8.4487C14.5011 8.58119 14.4508 8.70926 14.3589 8.80473L12.7991 10.4313C12.7303 10.5039 12.6412 10.5541 12.5435 10.5753C12.4458 10.5966 12.3439 10.588 12.2512 10.5506C12.1584 10.5132 12.0791 10.4487 12.0234 10.3656C11.9678 10.2825 11.9385 10.1846 11.9392 10.0846L11.9524 6.38503C11.9516 5.62543 11.7255 4.88315 11.3027 4.25209C10.8799 3.62104 10.2794 3.12957 9.57723 2.83987C8.87504 2.55018 8.1027 2.47528 7.35793 2.62464C6.61317 2.774 5.92944 3.14092 5.39325 3.67897C5.29915 3.77195 5.17219 3.8241 5.0399 3.8241C4.9076 3.8241 4.78064 3.77195 4.68654 3.67897C4.59594 3.58642 4.54574 3.46172 4.54696 3.33221Z" fill="#A6A6A6"/>
<path d="M1.49854 8.99069C1.49863 8.86135 1.54879 8.73708 1.63852 8.64393L3.19832 7.01733C3.26715 6.94477 3.35621 6.8946 3.45393 6.87333C3.55165 6.85207 3.65352 6.8607 3.74627 6.8981C3.83902 6.9355 3.91837 6.99995 3.974 7.08305C4.02964 7.16616 4.05898 7.26408 4.05822 7.36409L4.04502 11.0636C4.04576 11.8233 4.27182 12.5656 4.69459 13.1967C5.11736 13.8278 5.71784 14.3194 6.42004 14.6091C7.12224 14.8988 7.89461 14.9738 8.63942 14.8244C9.38422 14.6751 10.068 14.3082 10.6042 13.7701C10.6506 13.7236 10.7057 13.6867 10.7663 13.6614C10.8269 13.6362 10.892 13.6232 10.9576 13.6231C11.0233 13.623 11.0884 13.6359 11.1491 13.6609C11.2098 13.686 11.265 13.7227 11.3115 13.7691C11.358 13.8155 11.3949 13.8706 11.4202 13.9312C11.4454 13.9918 11.4584 14.0569 11.4585 14.1225C11.4586 14.1882 11.4457 14.2533 11.4207 14.314C11.3956 14.3747 11.3589 14.4299 11.3125 14.4764C10.6364 15.1542 9.77453 15.6163 8.83582 15.8041C7.8971 15.992 6.92375 15.8972 6.0389 15.5318C5.15405 15.1664 4.39747 14.5467 3.86485 13.7512C3.33224 12.9558 3.04753 12.0202 3.04674 11.0628L3.05834 8.61713L2.36683 9.34304C2.32148 9.39063 2.26714 9.42875 2.20696 9.4552C2.14678 9.48164 2.08195 9.4959 2.01622 9.49712C1.9505 9.49835 1.88519 9.48653 1.82406 9.46235C1.76293 9.43817 1.70721 9.4021 1.66012 9.35624C1.61003 9.30927 1.5699 9.2527 1.54215 9.1899C1.51438 9.12709 1.49955 9.05934 1.49854 8.99069Z" fill="#A6A6A6"/>
</g>
<defs>
<clipPath id="clip0_4421_11455">
<rect width="16" height="16" fill="white" transform="matrix(0 1 -1 0 16 0.727539)"/>
</clipPath>
</defs>
</svg>
