<svg width="24" height="24" viewBox="0 0 24 24" fill="none" xmlns="http://www.w3.org/2000/svg">
<g clip-path="url(#clip0_4421_44613)">
<path fill-rule="evenodd" clip-rule="evenodd" d="M7.14423 2.03008C6.89257 2.00075 6.63786 2.04685 6.41244 2.16252C6.18702 2.2782 6.00106 2.45824 5.87814 2.6798C5.75992 2.89288 5.70516 3.13512 5.71997 3.37794V20.1541C5.70249 20.434 5.76707 20.7131 5.9061 20.957C6.04973 21.209 6.26611 21.4117 6.52691 21.5387C6.7877 21.6656 7.08076 21.7109 7.3677 21.6685C7.65464 21.6261 7.92208 21.498 8.135 21.301L8.14131 21.2952L12.2366 17.2835V6.29656L7.83202 2.33246L7.82594 2.32728C7.63317 2.16286 7.39589 2.05942 7.14423 2.03008ZM6.96031 3.23016C6.97417 3.22304 6.98983 3.22021 7.0053 3.22201C7.01943 3.22366 7.03281 3.2291 7.04405 3.23773L11.0366 6.831V16.7792L7.3157 20.4241C7.28096 20.4547 7.2381 20.4746 7.19226 20.4814C7.14443 20.4884 7.09559 20.4809 7.05213 20.4597C7.00866 20.4386 6.9726 20.4048 6.94866 20.3628C6.92472 20.3208 6.91403 20.2725 6.91797 20.2244L6.91997 20.1999V3.33167L6.91788 3.30665C6.91657 3.29113 6.91991 3.27557 6.92747 3.26195C6.93503 3.24833 6.94646 3.23727 6.96031 3.23016Z" fill="#2196F3"/>
<path fill-rule="evenodd" clip-rule="evenodd" d="M12.666 16.701L12.6743 17.2439C14.0942 17.2223 15.4486 16.643 16.445 15.6312C17.4415 14.6194 18 13.2564 18 11.8363C18 10.4162 17.4415 9.05313 16.445 8.04136C15.4486 7.02958 14.0942 6.45031 12.6743 6.42863L12.6668 6.91694C12.6343 6.99087 12.6162 7.0726 12.6162 7.15856L12.6162 16.4613C12.6162 16.5465 12.634 16.6276 12.666 16.701ZM13.8162 7.81007C14.4819 8.01256 15.0932 8.37887 15.59 8.88338C16.3654 9.67066 16.8 10.7313 16.8 11.8363C16.8 12.9413 16.3654 14.0019 15.59 14.7892C15.0932 15.2937 14.4819 15.66 13.8162 15.8625L13.8162 7.81007Z" fill="#2196F3"/>
</g>
<defs>
<clipPath id="clip0_4421_44613">
<rect width="24" height="24" fill="white" transform="matrix(-1 0 0 1 24 0)"/>
</clipPath>
</defs>
</svg>
