<svg width="32" height="32" viewBox="0 0 32 32" fill="none" xmlns="http://www.w3.org/2000/svg">
<g id="Support" clip-path="url(#clip0_1380_132297)">
<g id="Group 10275">
<path id="Union" fill-rule="evenodd" clip-rule="evenodd" d="M5.54819 7.47757C7.89651 4.79272 11.3912 3.16455 15.9432 3.16455C20.4952 3.16455 23.9898 4.79272 26.3381 7.47757C28.6752 10.1496 29.8128 13.4374 29.8128 17.4099V27.9758C29.8128 28.4176 29.4546 28.7758 29.0128 28.7758H25.963C25.4165 28.7758 24.888 28.6986 24.3879 28.5546C23.0827 28.9631 20.4779 29.7546 18.6308 30.1628C18.5477 30.4359 18.3207 30.6556 18.0211 30.7151L15.6672 31.1831C15.2338 31.2692 14.8127 30.9878 14.7265 30.5544L14.4146 28.9851C14.3284 28.5518 14.6099 28.1307 15.0432 28.0445L17.3972 27.5766C17.8305 27.4904 18.2517 27.7719 18.3378 28.2052L18.4108 28.5725C19.9518 28.2308 21.2614 27.9288 22.4625 27.57C21.1339 26.5298 20.2801 24.911 20.2801 23.0928C20.2801 19.9542 22.8244 17.4099 25.963 17.4099H28.44C28.3715 13.8373 27.3194 10.6652 25.3145 8.37294C23.2523 6.01525 20.1474 4.52455 15.9432 4.52455C11.7389 4.52455 8.63403 6.01525 6.57187 8.37294C4.56689 10.6652 3.50856 13.8373 3.44008 17.4099H7.06641C9.57729 17.4099 11.6128 19.4453 11.6128 21.9562C11.6128 25.7225 8.55955 28.7758 4.79322 28.7758H2.67587C2.34682 28.7758 2.08008 28.509 2.08008 28.18V17.4099C2.08008 13.4374 3.21108 10.1496 5.54819 7.47757ZM7.06641 18.7699H3.44008V27.4158H4.79322C7.80844 27.4158 10.2528 24.9714 10.2528 21.9562C10.2528 20.1964 8.82618 18.7699 7.06641 18.7699ZM25.963 18.7699C23.5755 18.7699 21.6401 20.7053 21.6401 23.0928C21.6401 25.4803 23.5755 27.4158 25.963 27.4158H28.4528V18.7699H25.963Z" fill="#FFC107"/>
</g>
</g>
<defs>
<clipPath id="clip0_1380_132297">
<rect width="32" height="32" fill="white"/>
</clipPath>
</defs>
</svg>
