<svg width="24" height="24" viewBox="0 0 24 24" fill="none" xmlns="http://www.w3.org/2000/svg">
<path d="M7.06052 21.3205C6.84899 21.3194 6.64683 21.2353 6.49686 21.0861C6.34689 20.937 6.26118 20.7347 6.25898 20.5232C6.26023 20.311 6.34505 20.1079 6.4951 19.9578C6.64516 19.8077 6.84831 19.7229 7.06052 19.7217H21.9693C22.1808 19.7236 22.3828 19.8087 22.5318 19.9588C22.6808 20.1089 22.7647 20.3118 22.765 20.5232C22.7638 20.734 22.6795 20.9358 22.5306 21.085C22.3818 21.2342 22.1801 21.3188 21.9693 21.3205H7.06052ZM2.00049 20.5232C2.00173 20.3118 2.08584 20.1093 2.23486 19.9594C2.38388 19.8095 2.58597 19.7242 2.79734 19.7217C3.00966 19.7229 3.2131 19.8076 3.36334 19.9577C3.51359 20.1077 3.59848 20.3109 3.60006 20.5232C3.5977 20.7349 3.51237 20.9371 3.36217 21.0863C3.21198 21.2355 3.00903 21.3196 2.79734 21.3205C2.58681 21.318 2.38533 21.2331 2.23662 21.0841C2.0879 20.935 2.00368 20.7338 2.00166 20.5232H2.00049ZM7.06052 15.9981C6.84831 15.9969 6.64516 15.9121 6.4951 15.762C6.34505 15.612 6.26023 15.4088 6.25898 15.1966C6.26093 14.992 6.34094 14.7956 6.48221 14.6476C6.62348 14.4995 6.81577 14.4107 7.02009 14.3991H22.0098C22.2132 14.4116 22.4046 14.5009 22.5447 14.6489C22.6848 14.7969 22.7637 14.9928 22.765 15.1966C22.7647 15.408 22.6808 15.6107 22.5318 15.7608C22.3828 15.9109 22.1808 15.9962 21.9693 15.9981H7.06052ZM2.00049 15.1966C2.00198 14.9925 2.08075 14.7966 2.22138 14.6488C2.36201 14.5009 2.55378 14.412 2.7575 14.4003H2.79734H2.83953C3.04384 14.4113 3.23605 14.4998 3.37741 14.6477C3.51876 14.7957 3.59837 14.992 3.60006 15.1966C3.59848 15.4089 3.51359 15.612 3.36334 15.762C3.2131 15.912 3.00966 15.9969 2.79734 15.9981C2.58618 15.9953 2.38421 15.9097 2.23544 15.7598C2.08668 15.6099 2.0029 15.4078 2.00166 15.1966H2.00049ZM7.06052 10.6715C6.84899 10.6704 6.64683 10.5862 6.49686 10.437C6.34689 10.2878 6.26118 10.0856 6.25898 9.87407C6.26039 9.66197 6.34565 9.45901 6.49569 9.30909C6.64572 9.15917 6.84842 9.07437 7.06052 9.07311H21.9693C22.1807 9.075 22.3829 9.16016 22.5318 9.31011C22.6808 9.46007 22.7645 9.66271 22.765 9.87407C22.7638 10.0848 22.6795 10.2866 22.5306 10.4358C22.3818 10.585 22.1801 10.6698 21.9693 10.6715H7.06052ZM2.00049 9.87407C2.00189 9.66279 2.08585 9.46049 2.23486 9.3107C2.38386 9.16091 2.58608 9.07562 2.79734 9.07311C3.00956 9.07436 3.21253 9.15905 3.36276 9.30894C3.51299 9.45883 3.59833 9.66186 3.60006 9.87407C3.59754 10.0857 3.51175 10.2878 3.36159 10.437C3.21143 10.5861 3.00899 10.6704 2.79734 10.6715C2.58686 10.6689 2.38588 10.5838 2.2372 10.4348C2.08852 10.2858 2.00384 10.0846 2.00166 9.87407H2.00049ZM7.06052 5.34474C6.84875 5.34442 6.64583 5.26045 6.49569 5.1111C6.34555 4.96175 6.2604 4.75921 6.25898 4.54744C6.26118 4.33592 6.34689 4.1337 6.49686 3.98452C6.64683 3.83533 6.84899 3.75109 7.06052 3.75H21.9693C22.1801 3.75173 22.3818 3.83633 22.5306 3.98554C22.6795 4.13476 22.7638 4.33666 22.765 4.54744C22.7644 4.75841 22.6802 4.96058 22.5312 5.10993C22.3822 5.25928 22.1803 5.34363 21.9693 5.34474H7.06052ZM2.00049 4.54744C2.00252 4.3367 2.08706 4.13506 2.23603 3.98598C2.385 3.8369 2.5866 3.75219 2.79734 3.75C3.00903 3.75093 3.21198 3.83504 3.36217 3.98422C3.51237 4.13341 3.5977 4.33576 3.60006 4.54744C3.59832 4.75932 3.51309 4.96193 3.36276 5.11125C3.21243 5.26056 3.00923 5.34443 2.79734 5.34474C2.58651 5.34285 2.38489 5.25807 2.23603 5.10876C2.08717 4.95944 2.00291 4.75769 2.00166 4.54686L2.00049 4.54744Z" fill="#FFC107"/>
</svg>
