<svg width="24" height="24" viewBox="0 0 24 24" fill="none" xmlns="http://www.w3.org/2000/svg">
<g clip-path="url(#clip0_4426_83769)">
<path d="M9.17289 1.00643C9.44568 0.93628 9.72368 1.10056 9.79383 1.37335L10.6886 4.85297C11.4614 4.43288 12.2146 3.50651 13.0451 1.8696C13.1725 1.61842 13.4795 1.51811 13.7306 1.64555C13.9818 1.77299 14.0821 2.07993 13.9547 2.33111C13.0556 4.10317 12.1213 5.33275 10.9482 5.86259L12.2605 10.9659L16.1001 7.14247C15.3365 6.12238 15.1387 4.6323 15.2469 2.71659C15.2628 2.43537 15.5036 2.22027 15.7849 2.23615C16.0661 2.25203 16.2812 2.49287 16.2653 2.77409C16.1648 4.55372 16.3607 5.69023 16.8337 6.41198L19.3964 3.86007C19.596 3.66132 19.9189 3.662 20.1176 3.86159C20.3164 4.06118 20.3157 4.38409 20.1161 4.58284L17.5704 7.11785C18.3242 7.571 19.5045 7.75066 21.3365 7.6368C21.6176 7.61933 21.8597 7.83306 21.8771 8.11418C21.8946 8.3953 21.6809 8.63736 21.3998 8.65484C19.4165 8.7781 17.883 8.59597 16.8317 7.85343L13.0891 11.5802L18.3258 13.0318C18.835 11.8639 20.0325 10.9555 21.7511 10.1025C22.0034 9.97728 22.3094 10.0803 22.4346 10.3326C22.5599 10.5849 22.4568 10.8909 22.2045 11.0162C20.6081 11.8085 19.7171 12.5406 19.3234 13.3084L22.8087 14.2745C23.0801 14.3498 23.2392 14.6308 23.1639 14.9022C23.0887 15.1736 22.8076 15.3327 22.5362 15.2574L19.0739 14.2977C19.0526 15.177 19.4799 16.292 20.4846 17.8283C20.6388 18.064 20.5726 18.3801 20.3369 18.5342C20.1012 18.6884 19.7851 18.6223 19.631 18.3865C18.5433 16.7234 17.9435 15.3003 18.0693 14.0192L12.6601 12.5198L14.1066 18.1453C15.4348 17.9015 16.8897 18.491 18.5828 19.6198C18.8172 19.776 18.8805 20.0926 18.7242 20.327C18.568 20.5614 18.2514 20.6247 18.017 20.4685C16.3981 19.3892 15.2607 19.0028 14.3616 19.137L15.1938 22.3733C15.264 22.6461 15.0997 22.9241 14.8269 22.9943C14.5541 23.0644 14.2761 22.9002 14.206 22.6274L13.4058 19.5155C12.7041 19.9817 12.0115 20.8833 11.2547 22.3749C11.1273 22.626 10.8203 22.7264 10.5691 22.5989C10.318 22.4715 10.2176 22.1645 10.3451 21.9134C11.1897 20.2486 12.0655 19.0627 13.141 18.4858L11.7167 12.9469L7.84476 16.8025C8.72819 17.8238 8.95754 19.3767 8.84282 21.4083C8.82694 21.6896 8.58609 21.9047 8.30488 21.8888C8.02366 21.8729 7.80856 21.6321 7.82444 21.3508C7.93413 19.4083 7.69065 18.232 7.1192 17.525L4.75144 19.8827C4.55186 20.0815 4.22894 20.0808 4.03019 19.8812C3.83145 19.6816 3.83213 19.3587 4.03172 19.16L6.30839 16.8929C5.55085 16.5243 4.42259 16.3844 2.75324 16.4881C2.47212 16.5056 2.23006 16.2919 2.21259 16.0108C2.19512 15.7296 2.40885 15.4876 2.68997 15.4701C4.55309 15.3543 6.01932 15.508 7.06175 16.1427L11.1268 12.0948L5.84789 10.6314C5.39694 11.9045 4.16037 12.8716 2.33748 13.7763C2.08518 13.9016 1.77914 13.7985 1.65392 13.5462C1.5287 13.2939 1.63172 12.9879 1.88402 12.8627C3.62707 11.9976 4.52921 11.2043 4.86119 10.3579L1.64098 9.46529C1.36956 9.39005 1.21051 9.10902 1.28575 8.83759C1.36099 8.56616 1.64202 8.40712 1.91345 8.48236L5.00962 9.34061C4.95537 8.49998 4.51926 7.45015 3.60396 6.05057C3.44979 5.81484 3.51592 5.49877 3.75165 5.3446C3.98738 5.19044 4.30345 5.25656 4.45761 5.49229C5.47922 7.05441 6.07042 8.40482 6.03419 9.62462L11.233 11.0657L9.9645 6.1328C8.69813 6.2739 7.31348 5.68902 5.717 4.6247C5.48264 4.46846 5.41931 4.15182 5.57555 3.91746C5.73179 3.6831 6.04843 3.61977 6.28279 3.77601C7.76584 4.76471 8.8448 5.17195 9.70668 5.13016L8.80596 1.62737C8.73582 1.35458 8.90009 1.07657 9.17289 1.00643Z" fill="#FFC107"/>
</g>
<defs>
<clipPath id="clip0_4426_83769">
<rect width="24" height="24" fill="white"/>
</clipPath>
</defs>
</svg>
