<svg width="24" height="24" viewBox="0 0 24 24" fill="none" xmlns="http://www.w3.org/2000/svg">
<g clip-path="url(#clip0_4426_83733)">
<path d="M12.1478 14.3829C11.7502 14.3829 11.4278 14.7053 11.4278 15.1029V17.863C11.4278 18.2607 11.7502 18.583 12.1478 18.583C12.5455 18.583 12.8678 18.2607 12.8678 17.863V15.1029C12.8678 14.7053 12.5455 14.3829 12.1478 14.3829Z" fill="#FFC107"/>
<path fill-rule="evenodd" clip-rule="evenodd" d="M5.53942 8.17446V9.70481C3.58732 10.3131 2.92139 11.8273 2.92139 14.8677V17.9799C2.92139 22.1962 4.20242 23.4773 8.41932 23.4773H15.5817C19.7968 23.4773 21.0778 22.1962 21.0796 17.9799V14.8677C21.0796 11.8229 20.4115 10.3087 18.4529 9.7022V8.17446C18.4529 5.40179 17.7839 1.7207 11.9992 1.7207C6.21444 1.7207 5.54542 5.40179 5.53942 8.17446ZM17.0159 8.17446V9.43177C16.5807 9.38936 16.1037 9.36972 15.5817 9.36972H8.41932C7.89505 9.36972 7.41615 9.38952 6.97946 9.43231V8.17446C6.97946 5.16299 7.82728 3.15474 11.9962 3.15474C16.1651 3.15474 17.0159 5.16239 17.0159 8.17446ZM8.41932 10.8038C4.99924 10.8038 4.35602 11.4542 4.35602 14.8671V17.9799C4.35602 21.3934 4.99684 22.0432 8.41932 22.0432H15.5817C19.0018 22.0432 19.645 21.3928 19.645 17.9799V14.8677C19.6438 11.4542 19.0018 10.8038 15.5817 10.8038H8.41932Z" fill="#FFC107"/>
</g>
<defs>
<clipPath id="clip0_4426_83733">
<rect width="24" height="24" fill="white"/>
</clipPath>
</defs>
</svg>
