<svg width="24" height="24" viewBox="0 0 24 24" fill="none" xmlns="http://www.w3.org/2000/svg">
<g clip-path="url(#clip0_4426_83674)">
<path d="M5.38691 8.58891C9.7381 12.1127 9.80559 12.1506 9.87519 12.1776C10.4954 12.6142 11.2366 12.845 11.9951 12.8375C12.749 12.8466 13.487 12.6177 14.1033 12.1835C14.1789 12.1565 14.2514 12.1163 18.608 8.58891C18.7573 8.46777 18.8521 8.29234 18.8723 8.10112C18.8924 7.90989 18.836 7.71852 18.7152 7.56894C18.5941 7.41961 18.419 7.32452 18.2277 7.30439C18.0365 7.28425 17.8447 7.34074 17.6951 7.46157L13.3463 10.9499C12.9529 11.2366 12.4789 11.391 11.9922 11.391C11.5055 11.391 11.0314 11.2366 10.6381 10.9499L6.2998 7.46157C6.15021 7.34074 5.9584 7.28425 5.76718 7.30439C5.57595 7.32452 5.40082 7.41961 5.27968 7.56894C5.15901 7.71858 5.10252 7.90994 5.12265 8.10112C5.14278 8.29229 5.23772 8.46768 5.38691 8.58891Z" fill="#FFC107"/>
<path fill-rule="evenodd" clip-rule="evenodd" d="M7.18038 20.9148H16.8182C20.336 20.9148 22.3604 18.8904 22.3604 15.3726V8.62618C22.3604 5.10778 20.336 3.08398 16.8182 3.08398H7.18038C3.66198 3.08398 1.63818 5.10778 1.63818 8.62618V15.3726C1.63818 18.8904 3.66198 20.9148 7.18038 20.9148ZM3.08418 8.62618C3.08418 5.86918 4.42338 4.52998 7.18038 4.52998H16.8182C19.5746 4.52998 20.9144 5.86978 20.9144 8.62618V15.3726C20.9144 18.129 19.5746 19.4688 16.8182 19.4688H7.18038C4.42398 19.4688 3.08418 18.129 3.08418 15.3726V8.62618Z" fill="#FFC107"/>
</g>
<defs>
<clipPath id="clip0_4426_83674">
<rect width="24" height="24" fill="white"/>
</clipPath>
</defs>
</svg>
