<svg width="24" height="24" viewBox="0 0 24 24" fill="none" xmlns="http://www.w3.org/2000/svg">
<g clip-path="url(#clip0_4426_83685)">
<path d="M16.6223 23.594H7.74296C7.10652 23.594 6.49633 23.341 6.0463 22.891C5.59627 22.441 5.34326 21.8308 5.34326 21.1943V3.19657C5.34406 2.56038 5.59761 1.95036 6.04747 1.5005C6.49733 1.05064 7.10677 0.797669 7.74296 0.796875H16.6223C17.2585 0.797669 17.868 1.05064 18.3178 1.5005C18.7677 1.95036 19.0212 2.56038 19.022 3.19657V21.1943C19.022 21.8308 18.769 22.441 18.319 22.891C17.869 23.341 17.2588 23.594 16.6223 23.594ZM8.56317 22.1241H8.56669C8.60988 22.1241 8.65007 22.1299 8.69206 22.1299H15.6697C15.7117 22.1299 15.7519 22.1301 15.7951 22.1241H15.8021C15.9137 22.1241 16.0244 22.1241 16.1384 22.1241H16.4981C16.6385 22.1241 16.7576 22.1242 16.8614 22.12C17.2843 22.1134 17.5264 21.7987 17.5468 21.233C17.5618 20.837 17.5563 20.6271 17.5503 20.4052C17.5503 20.3392 17.5504 20.2699 17.5468 20.1931C17.5463 20.1867 17.5463 20.1801 17.5468 20.1737C17.5474 20.1656 17.5474 20.1573 17.5468 20.1491C17.5468 20.1083 17.5468 20.0697 17.5468 20.0331V4.35834C17.5468 4.31455 17.5468 4.26454 17.5468 4.21715C17.5439 4.21035 17.5427 4.20286 17.5433 4.19547C17.5433 4.11748 17.5432 4.04764 17.5468 3.98105C17.5528 3.75907 17.5589 3.54912 17.5433 3.15556C17.5235 2.59823 17.2742 2.27575 16.8578 2.26915C16.7379 2.26915 16.6046 2.26446 16.4348 2.26446C16.2933 2.26446 16.1446 2.26446 15.979 2.26446H15.7869C15.7461 2.26446 15.7064 2.25861 15.6662 2.25861H8.68855C8.64655 2.25861 8.60517 2.25905 8.56317 2.26505H8.36632C8.20254 2.26505 8.05553 2.26505 7.91755 2.26505C7.74897 2.26505 7.61394 2.26494 7.49456 2.26974C7.08001 2.27634 6.83066 2.59882 6.81027 3.15615C6.79647 3.48671 6.80195 3.6842 6.80675 3.87618C6.80675 3.97636 6.81027 4.07734 6.81027 4.19313V4.21012C6.80667 4.26111 6.80441 4.30911 6.80441 4.3601V20.0355C6.80441 20.0859 6.80427 20.1379 6.81027 20.1931V20.1984C6.81027 20.3135 6.81035 20.4134 6.80675 20.513C6.80195 20.7043 6.79587 20.9018 6.81027 21.2324C6.83006 21.7975 7.07281 22.1128 7.49456 22.1194C7.60134 22.1194 7.71738 22.1235 7.85896 22.1235H8.21517C8.33515 22.1253 8.44679 22.1241 8.56317 22.1241Z" fill="#FFC107"/>
<path d="M10.3836 2.25969H14.1263V2.89502C14.1263 3.0607 13.9919 3.19502 13.8263 3.19502H10.6836C10.5179 3.19502 10.3836 3.0607 10.3836 2.89502V2.25969Z" fill="#FFC107"/>
</g>
<defs>
<clipPath id="clip0_4426_83685">
<rect width="24" height="24" fill="white"/>
</clipPath>
</defs>
</svg>
