<svg width="24" height="24" viewBox="0 0 24 24" fill="none" xmlns="http://www.w3.org/2000/svg">
<g clip-path="url(#clip0_4426_83781)">
<path fill-rule="evenodd" clip-rule="evenodd" d="M9.45123 22.3692H9.71314C11.1721 22.3725 12.5962 21.9235 13.7895 21.084C14.9825 20.2487 15.8879 19.0648 16.3811 17.6946C16.585 17.101 16.703 16.4813 16.7315 15.8543V15.846C16.7867 15.5872 16.7863 15.3197 16.7303 15.0611C16.6744 14.8025 16.5641 14.5587 16.4069 14.346C16.1205 13.9939 15.7146 13.759 15.2667 13.6859L14.2864 13.6332H4.8856L3.90416 13.6859C3.45637 13.7595 3.05069 13.9943 2.76392 14.346C2.60687 14.5588 2.49721 14.8026 2.44166 15.0613C2.3861 15.3199 2.38587 15.5874 2.44166 15.846V15.8556C2.46968 16.4827 2.58768 17.1023 2.79205 17.6958C3.28503 19.066 4.19076 20.2496 5.38423 21.084C6.57456 21.9221 7.99542 22.3711 9.45123 22.3692ZM5.19849 15.0318L5.95552 14.9958H13.2059L13.9629 15.0318C14.2993 15.0773 14.6095 15.2381 14.8407 15.4866C14.9603 15.627 15.0457 15.7936 15.0891 15.9728C15.1326 16.1521 15.1329 16.339 15.0909 16.5186V16.5246C15.0693 16.9585 14.9788 17.386 14.8219 17.7911C14.3766 18.7729 13.6516 19.6017 12.7378 20.1737C11.8239 20.7457 10.7616 21.0356 9.68384 21.0072H9.47994C8.40234 21.0351 7.34034 20.7449 6.42662 20.173C5.5129 19.601 4.78765 18.7726 4.34185 17.7911C4.18439 17.3862 4.09369 16.9586 4.07232 16.5246V16.5198C4.03016 16.3401 4.03036 16.1531 4.07349 15.9737C4.11663 15.7943 4.20154 15.6275 4.32076 15.4866C4.55259 15.2389 4.86242 15.0783 5.19849 15.0318Z" fill="#FFC107"/>
<path fill-rule="evenodd" clip-rule="evenodd" d="M7.84224 10.0868C8.37554 10.3079 8.94773 10.4211 9.52505 10.4196C10.1027 10.4211 10.6748 10.3079 11.2085 10.0868C11.7421 9.86567 12.2267 9.541 12.634 9.13142C13.0432 8.72431 13.3676 8.24012 13.5885 7.70686C13.8094 7.17359 13.9228 6.60184 13.9213 6.02463C13.9227 5.44716 13.8094 4.87508 13.5885 4.34153C13.3676 3.80797 13.0432 3.32343 12.634 2.91594C12.2267 2.50639 11.7422 2.18178 11.2085 1.96086C10.6747 1.73994 10.1027 1.62709 9.52505 1.62893C8.94778 1.62707 8.37557 1.73993 7.84224 1.96086C7.30892 2.18179 6.82527 2.50641 6.41841 2.91594C6.00896 3.32326 5.68376 3.8078 5.46275 4.34138C5.24174 4.87496 5.12901 5.44709 5.13052 6.02463C5.12898 6.60191 5.24173 7.17371 5.46275 7.707C5.68377 8.2403 6.00896 8.72447 6.41841 9.13142C6.82529 9.541 7.30894 9.86566 7.84224 10.0868ZM7.37584 3.8716C7.94578 3.30144 8.71888 2.98063 9.52505 2.97951V2.98259C10.3309 2.98354 11.1035 3.30386 11.6737 3.87336C12.2439 4.44286 12.5648 5.2151 12.5667 6.02097C12.5655 6.82736 12.2451 7.60033 11.6749 8.17048C11.1046 8.74063 10.3314 9.06147 9.52505 9.06242C8.71893 9.06115 7.94633 8.74017 7.37642 8.17004C6.80651 7.59991 6.48558 6.8271 6.48462 6.02097C6.48542 5.21479 6.80589 4.44177 7.37584 3.8716Z" fill="#FFC107"/>
<path d="M18.5508 11.477C19.6488 11.4611 21.3624 11.4438 21.3624 11.4438C21.5612 11.4418 21.7511 11.3608 21.8902 11.2187C22.0293 11.0767 22.1063 10.8852 22.1042 10.6864C22.1021 10.4876 22.0212 10.2977 21.8791 10.1586C21.7371 10.0195 21.5456 9.94249 21.3467 9.94457C21.3467 9.94457 19.643 9.97697 18.5512 9.99285C17.4541 10.0088 15.7417 10.026 15.7417 10.026C15.5433 10.0294 15.3543 10.1108 15.2154 10.2526C15.0766 10.3944 14.9992 10.5851 14.9999 10.7835C15.0004 10.882 15.0205 10.9794 15.059 11.0701C15.0975 11.1607 15.1537 11.2428 15.2244 11.3115C15.2939 11.3814 15.3769 11.4365 15.4684 11.4732C15.5599 11.51 15.6579 11.5277 15.7565 11.5253C15.7565 11.5253 17.4595 11.4929 18.5508 11.477Z" fill="#FFC107"/>
</g>
<defs>
<clipPath id="clip0_4426_83781">
<rect width="24" height="24" fill="white"/>
</clipPath>
</defs>
</svg>
