<svg width="18" height="36" viewBox="0 0 18 36" fill="none" xmlns="http://www.w3.org/2000/svg">
<path fill-rule="evenodd" clip-rule="evenodd" d="M17.3367 8.57143C17.3367 13.3053 13.6058 17.1429 9.00338 17.1429C4.401 17.1429 0.670044 13.3053 0.670044 8.57143C0.670044 3.83756 4.401 0 9.00338 0C13.6058 0 17.3367 3.83756 17.3367 8.57143Z" fill="#1C1B19"/>
<path fill-rule="evenodd" clip-rule="evenodd" d="M11.5032 8.57003C11.5032 9.98968 10.3838 11.1415 9.00321 11.1415C7.6226 11.1415 6.50321 9.98968 6.50321 8.57003C6.50321 7.15039 7.6226 5.9986 9.00321 5.9986C10.3838 5.9986 11.5032 7.15039 11.5032 8.57003ZM10.6699 8.57003C10.6699 9.51758 9.92362 10.2843 9.00321 10.2843C8.0828 10.2843 7.33655 9.51758 7.33655 8.57003C7.33655 7.62249 8.0828 6.85575 9.00321 6.85575C9.92362 6.85575 10.6699 7.62249 10.6699 8.57003Z" fill="#4CAF50"/>
<path fill-rule="evenodd" clip-rule="evenodd" d="M11.8816 14.7559C11.196 15.0957 10.6699 15.7586 10.6699 16.5405V34.2843C10.6699 35.2319 9.92362 35.9986 9.00321 35.9986C8.0828 35.9986 7.33655 35.2319 7.33655 34.2843V16.5405C7.33655 16.07 7.14571 15.6415 6.84379 15.3016C6.64482 15.0773 6.39742 14.8915 6.1248 14.7559C3.88359 13.6509 2.33655 11.2955 2.33655 8.57003C2.33655 4.7832 5.32117 1.71289 9.00321 1.71289C12.6853 1.71289 15.6699 4.7832 15.6699 8.57003C15.6699 11.2955 14.1228 13.6509 11.8816 14.7559ZM9.00321 13.7129C11.7644 13.7129 14.0032 11.411 14.0032 8.57003C14.0032 5.72907 11.7644 3.42718 9.00321 3.42718C6.24198 3.42718 4.00321 5.72907 4.00321 8.57003C4.00321 11.411 6.24198 13.7129 9.00321 13.7129Z" fill="#4CAF50"/>
</svg>
