<svg width="16" height="17" viewBox="0 0 16 17" fill="none" xmlns="http://www.w3.org/2000/svg">
<path d="M14.25 3.5V5.25C14.25 5.44891 14.171 5.63968 14.0303 5.78033C13.8897 5.92098 13.6989 6 13.5 6C13.3011 6 13.1103 5.92098 12.9697 5.78033C12.829 5.63968 12.75 5.44891 12.75 5.25V3.75H11.25C11.0511 3.75 10.8603 3.67098 10.7197 3.53033C10.579 3.38968 10.5 3.19891 10.5 3C10.5 2.80109 10.579 2.61032 10.7197 2.46967C10.8603 2.32902 11.0511 2.25 11.25 2.25H13C13.3315 2.25 13.6495 2.3817 13.8839 2.61612C14.1183 2.85054 14.25 3.16848 14.25 3.5ZM13.5 11C13.3011 11 13.1103 11.079 12.9697 11.2197C12.829 11.3603 12.75 11.5511 12.75 11.75V13.25H11.25C11.0511 13.25 10.8603 13.329 10.7197 13.4697C10.579 13.6103 10.5 13.8011 10.5 14C10.5 14.1989 10.579 14.3897 10.7197 14.5303C10.8603 14.671 11.0511 14.75 11.25 14.75H13C13.3315 14.75 13.6495 14.6183 13.8839 14.3839C14.1183 14.1495 14.25 13.8315 14.25 13.5V11.75C14.25 11.5511 14.171 11.3603 14.0303 11.2197C13.8897 11.079 13.6989 11 13.5 11ZM4.75 13.25H3.25V11.75C3.25 11.5511 3.17098 11.3603 3.03033 11.2197C2.88968 11.079 2.69891 11 2.5 11C2.30109 11 2.11032 11.079 1.96967 11.2197C1.82902 11.3603 1.75 11.5511 1.75 11.75V13.5C1.75 13.8315 1.8817 14.1495 2.11612 14.3839C2.35054 14.6183 2.66848 14.75 3 14.75H4.75C4.94891 14.75 5.13968 14.671 5.28033 14.5303C5.42098 14.3897 5.5 14.1989 5.5 14C5.5 13.8011 5.42098 13.6103 5.28033 13.4697C5.13968 13.329 4.94891 13.25 4.75 13.25ZM2.5 6C2.69891 6 2.88968 5.92098 3.03033 5.78033C3.17098 5.63968 3.25 5.44891 3.25 5.25V3.75H4.75C4.94891 3.75 5.13968 3.67098 5.28033 3.53033C5.42098 3.38968 5.5 3.19891 5.5 3C5.5 2.80109 5.42098 2.61032 5.28033 2.46967C5.13968 2.32902 4.94891 2.25 4.75 2.25H3C2.66848 2.25 2.35054 2.3817 2.11612 2.61612C1.8817 2.85054 1.75 3.16848 1.75 3.5V5.25C1.75 5.44891 1.82902 5.63968 1.96967 5.78033C2.11032 5.92098 2.30109 6 2.5 6ZM11 11.75C10.8836 11.7501 10.7688 11.7231 10.6647 11.6711C10.5605 11.6191 10.4699 11.5437 10.4 11.4506C10.1206 11.0778 9.75817 10.7752 9.34148 10.5667C8.92479 10.3583 8.46529 10.2498 7.99937 10.2498C7.53346 10.2498 7.07396 10.3583 6.65727 10.5667C6.24058 10.7752 5.87817 11.0778 5.59875 11.4506C5.4778 11.6055 5.30086 11.7068 5.10602 11.7326C4.91117 11.7584 4.71399 11.7067 4.55689 11.5886C4.39979 11.4704 4.29533 11.2954 4.26599 11.101C4.23665 10.9067 4.28477 10.7086 4.4 10.5494C4.7978 10.0173 5.30832 9.57979 5.895 9.26812C5.55782 8.86732 5.34211 8.37856 5.27324 7.85933C5.20438 7.3401 5.28524 6.81201 5.50629 6.33717C5.72735 5.86233 6.07941 5.46049 6.52106 5.17893C6.96272 4.89736 7.4756 4.74778 7.99937 4.74778C8.52315 4.74778 9.03603 4.89736 9.47768 5.17893C9.91934 5.46049 10.2714 5.86233 10.4925 6.33717C10.7135 6.81201 10.7944 7.3401 10.7255 7.85933C10.6566 8.37856 10.4409 8.86732 10.1038 9.26812C10.6904 9.57979 11.201 10.0173 11.5988 10.5494C11.6824 10.6607 11.7335 10.7932 11.7461 10.9319C11.7588 11.0706 11.7325 11.2101 11.6704 11.3347C11.6082 11.4594 11.5126 11.5642 11.3942 11.6376C11.2758 11.7109 11.1393 11.7499 11 11.75ZM8 8.75C8.24723 8.75 8.4889 8.67669 8.69446 8.53934C8.90002 8.40199 9.06024 8.20676 9.15485 7.97835C9.24946 7.74995 9.27421 7.49861 9.22598 7.25614C9.17775 7.01366 9.0587 6.79093 8.88388 6.61612C8.70907 6.4413 8.48634 6.32225 8.24386 6.27402C8.00139 6.22579 7.75005 6.25054 7.52165 6.34515C7.29324 6.43976 7.09801 6.59998 6.96066 6.80554C6.82331 7.0111 6.75 7.25277 6.75 7.5C6.75 7.83152 6.8817 8.14946 7.11612 8.38388C7.35054 8.6183 7.66848 8.75 8 8.75Z" fill="#A6A6A6"/>
</svg>
