<svg width="16" height="17" viewBox="0 0 16 17" fill="none" xmlns="http://www.w3.org/2000/svg">
<g clip-path="url(#clip0_971_32126)">
<path fill-rule="evenodd" clip-rule="evenodd" d="M7.49951 9.26416C7.31612 9.21223 7.14095 9.13173 6.98073 9.02472C6.67917 8.82329 6.44412 8.53696 6.30531 8.20194C6.16649 7.86692 6.13015 7.49826 6.20088 7.14258C6.27161 6.7869 6.44623 6.46019 6.70266 6.20377C6.95908 5.94734 7.28579 5.77272 7.64147 5.70199C7.99715 5.63127 8.36581 5.66761 8.70083 5.80642C9.03585 5.94523 9.32218 6.18028 9.5236 6.48184C9.72503 6.7834 9.83249 7.13792 9.83242 7.50056C9.83252 7.74129 9.78518 7.97969 9.6931 8.20213C9.60103 8.42456 9.46601 8.62667 9.29578 8.7969C9.12556 8.96712 8.92345 9.10214 8.70102 9.19421C8.63513 9.22149 8.56784 9.24484 8.49951 9.26419V10.8337C8.49857 10.966 8.44559 11.0926 8.35202 11.1862C8.25846 11.2797 8.13183 11.3327 7.99951 11.3337C7.86719 11.3327 7.74056 11.2797 7.647 11.1862C7.55343 11.0926 7.50045 10.966 7.49951 10.8337V9.26416ZM7.99944 6.66706C7.83469 6.66706 7.67364 6.71591 7.53664 6.80743C7.39965 6.89896 7.29287 7.02905 7.2298 7.18125C7.16674 7.33346 7.15021 7.50094 7.18233 7.66254C7.21444 7.82413 7.29375 7.97258 7.41022 8.0891C7.52669 8.20563 7.67509 8.28501 7.83667 8.3172C7.99825 8.34939 8.16574 8.33294 8.31798 8.26995C8.47022 8.20696 8.60035 8.10024 8.69194 7.96329C8.78353 7.82634 8.83246 7.66531 8.83254 7.50056C8.83254 7.27957 8.74478 7.06763 8.58856 6.91133C8.43233 6.75503 8.22043 6.66717 7.99944 6.66706Z" fill="#A6A6A6"/>
<path fill-rule="evenodd" clip-rule="evenodd" d="M8.00626 15.6687C7.2849 15.6771 6.57966 15.4553 5.99291 15.0356L3.12647 12.8959C2.72617 12.5655 2.39911 12.1554 2.16615 11.6916C1.93319 11.2278 1.79944 10.7206 1.77344 10.2022V5.24284C1.79405 4.70861 1.96687 4.1914 2.27156 3.75209C2.57624 3.31278 3.0001 2.96967 3.49322 2.76315L6.81961 1.51651C7.58684 1.26989 8.41207 1.26989 9.17931 1.51651L12.5057 2.76315C12.9988 2.96967 13.4227 3.31278 13.7274 3.75209C14.032 4.1914 14.2049 4.70861 14.2255 5.24284V10.1958C14.2003 10.7144 14.0669 11.222 13.8338 11.6859C13.6008 12.1499 13.2734 12.56 12.8724 12.8899L10.006 15.0296C9.42723 15.4556 8.72479 15.6801 8.00626 15.6687ZM7.17276 2.45639L3.84678 3.70263C3.54534 3.83976 3.28684 4.05625 3.09896 4.32896C2.91107 4.60167 2.80086 4.92032 2.78011 5.25084V10.2022C2.80533 10.5646 2.90196 10.9185 3.06443 11.2434C3.22689 11.5684 3.452 11.858 3.72679 12.0956L6.59323 14.2353C7.01249 14.5157 7.5055 14.6653 8.00986 14.6653C8.51421 14.6653 9.00723 14.5157 9.42648 14.2353L12.2929 12.0956C12.5683 11.8584 12.7938 11.5689 12.9563 11.2439C13.1188 10.9189 13.2151 10.5648 13.2396 10.2022V5.24284C13.2167 4.91302 13.1055 4.59543 12.9177 4.32333C12.7299 4.05124 12.4724 3.83464 12.1721 3.69623L8.84615 2.45119C8.2998 2.28961 7.7181 2.29142 7.17276 2.45639Z" fill="#A6A6A6"/>
</g>
<defs>
<clipPath id="clip0_971_32126">
<rect width="16" height="16" fill="white" transform="translate(0 0.5)"/>
</clipPath>
</defs>
</svg>
