<svg width="17" height="16" viewBox="0 0 17 16" fill="none" xmlns="http://www.w3.org/2000/svg">
<path d="M13.7946 6.46095L9.10055 11.3812C9.03514 11.45 8.95741 11.5046 8.87182 11.5418C8.78624 11.5791 8.69448 11.5982 8.6018 11.5982C8.50913 11.5982 8.41737 11.5791 8.33179 11.5418C8.2462 11.5046 8.16847 11.45 8.10306 11.3812L3.40898 6.46095C3.2767 6.3223 3.20239 6.13425 3.20239 5.93817C3.20239 5.74209 3.2767 5.55405 3.40898 5.4154C3.54126 5.27675 3.72066 5.19886 3.90773 5.19886C4.09479 5.19886 4.2742 5.27675 4.40647 5.4154L8.60239 9.81346L12.7983 5.41478C12.9306 5.27613 13.11 5.19824 13.2971 5.19824C13.4841 5.19824 13.6635 5.27613 13.7958 5.41478C13.9281 5.55343 14.0024 5.74148 14.0024 5.93756C14.0024 6.13363 13.9281 6.32168 13.7958 6.46033L13.7946 6.46095Z" fill="#A6A6A6"/>
<path d="M14.1514 6.33105L9.18978 11.7221C9.07572 11.8754 8.91889 11.9648 8.71928 11.9904C8.51967 12.0159 8.33433 11.9776 8.16323 11.8754C8.1062 11.8413 8.05868 11.7902 8.02066 11.7221L3.05901 6.33105C2.92593 6.19478 2.84514 6.04574 2.81663 5.88392C2.78811 5.72211 2.80237 5.56029 2.8594 5.39847C2.91643 5.23666 3.01623 5.10039 3.15881 4.98967C3.30138 4.87896 3.45822 4.81508 3.62931 4.79805H13.5526C13.7237 4.81508 13.8853 4.87896 14.0374 4.98967C14.1895 5.10039 14.294 5.23666 14.351 5.39847C14.4081 5.56029 14.4176 5.72211 14.3796 5.88392C14.3415 6.04574 14.2655 6.19478 14.1514 6.33105Z" fill="#A6A6A6"/>
</svg>
