<svg width="17" height="16" viewBox="0 0 17 16" fill="none" xmlns="http://www.w3.org/2000/svg">
<path d="M13.9946 9.53905L9.3005 4.61883C9.23509 4.55003 9.15736 4.49543 9.07177 4.45818C8.98619 4.42093 8.89443 4.40176 8.80176 4.40176C8.70908 4.40176 8.61733 4.42093 8.53174 4.45818C8.44615 4.49543 8.36842 4.55003 8.30301 4.61883L3.60893 9.53905C3.47666 9.6777 3.40234 9.86575 3.40234 10.0618C3.40234 10.2579 3.47666 10.446 3.60893 10.5846C3.74121 10.7233 3.92061 10.8011 4.10768 10.8011C4.29474 10.8011 4.47415 10.7233 4.60642 10.5846L8.80234 6.18654L12.9983 10.5852C13.1305 10.7239 13.3099 10.8018 13.497 10.8018C13.6841 10.8018 13.8635 10.7239 13.9958 10.5852C14.128 10.4466 14.2023 10.2585 14.2023 10.0624C14.2023 9.86637 14.128 9.67832 13.9958 9.53967L13.9946 9.53905Z" fill="#A6A6A6"/>
<path d="M14.3515 9.66895L9.38986 4.27789C9.2758 4.12459 9.11896 4.03517 8.91935 4.00962C8.71975 3.98407 8.5344 4.02239 8.36331 4.12459C8.30628 4.15866 8.25875 4.20976 8.22073 4.27789L3.25908 9.66895C3.12601 9.80522 3.04521 9.95426 3.0167 10.1161C2.98818 10.2779 3.00244 10.4397 3.05947 10.6015C3.1165 10.7633 3.21631 10.8996 3.35888 11.0103C3.50146 11.121 3.65829 11.1849 3.82938 11.202H13.7527C13.9238 11.1849 14.0854 11.121 14.2374 11.0103C14.3895 10.8996 14.4941 10.7633 14.5511 10.6015C14.6081 10.4397 14.6177 10.2779 14.5796 10.1161C14.5416 9.95426 14.4656 9.80522 14.3515 9.66895Z" fill="#FFC107"/>
</svg>
