<svg width="32" height="32" viewBox="0 0 32 32" fill="none" xmlns="http://www.w3.org/2000/svg">
<path d="M13.0546 4.61459L23.0546 14.6146C23.1945 14.7539 23.3054 14.9195 23.3811 15.1019C23.4568 15.2842 23.4958 15.4797 23.4958 15.6771C23.4958 15.8745 23.4568 16.07 23.3811 16.2523C23.3054 16.4346 23.1945 16.6002 23.0546 16.7396L13.0546 26.7396C12.7728 27.0214 12.3906 27.1797 11.9921 27.1797C11.5936 27.1797 11.2114 27.0214 10.9296 26.7396C10.6478 26.4578 10.4895 26.0756 10.4895 25.6771C10.4895 25.2786 10.6478 24.8964 10.9296 24.6146L19.8684 15.6758L10.9284 6.73709C10.6466 6.45529 10.4883 6.0731 10.4883 5.67459C10.4883 5.27607 10.6466 4.89388 10.9284 4.61209C11.2102 4.33029 11.5924 4.17198 11.9909 4.17198C12.3894 4.17198 12.7716 4.33029 13.0534 4.61209L13.0546 4.61459Z" fill="#A6A6A6"/>
</svg>
