<svg width="24" height="24" viewBox="0 0 24 24" fill="none" xmlns="http://www.w3.org/2000/svg">
<path d="M21.933 10.9369C22.4132 10.9369 22.8025 11.3261 22.8025 11.8063C22.8025 12.2865 22.4132 12.6758 21.933 12.6758H4.70317C4.22297 12.6758 3.83369 12.2865 3.83369 11.8063C3.83369 11.3261 4.22297 10.9369 4.70317 10.9369L21.933 10.9369Z" fill="#FFC107"/>
<path d="M9.76525 18.9924C10.1331 19.301 10.6815 19.253 10.9902 18.8852C11.2989 18.5173 11.2509 17.9689 10.883 17.6602L3.90781 11.8073L10.883 5.9545C11.2508 5.64584 11.2988 5.09741 10.9901 4.72955C10.6815 4.3617 10.133 4.31371 9.76517 4.62238L1.75025 11.3477C1.46448 11.5875 1.46448 12.0272 1.75025 12.267L9.76525 18.9924Z" fill="#FFC107"/>
</svg>
