<svg width="17" height="17" viewBox="0 0 17 17" fill="none" xmlns="http://www.w3.org/2000/svg">
<path d="M10.0708 2.9694L5.07083 7.9694C5.00091 8.03908 4.94543 8.12187 4.90758 8.21304C4.86972 8.3042 4.85024 8.40194 4.85024 8.50065C4.85024 8.59936 4.86972 8.6971 4.90758 8.78827C4.94543 8.87943 5.00091 8.96222 5.07083 9.0319L10.0708 14.0319C10.2117 14.1728 10.4028 14.252 10.6021 14.252C10.8013 14.252 10.9924 14.1728 11.1333 14.0319C11.2742 13.891 11.3534 13.6999 11.3534 13.5007C11.3534 13.3014 11.2742 13.1103 11.1333 12.9694L6.66395 8.50003L11.134 4.03065C11.2748 3.88976 11.354 3.69866 11.354 3.4994C11.354 3.30015 11.2748 3.10905 11.134 2.96815C10.9931 2.82726 10.802 2.7481 10.6027 2.7481C10.4034 2.7481 10.2123 2.82726 10.0715 2.96815L10.0708 2.9694Z" fill="#A6A6A6"/>
</svg>
