<svg version="1.2" xmlns="http://www.w3.org/2000/svg" viewBox="0 0 17 16" width="17" height="16">
	<title>arrow-down</title>
	<style>
		.s0 { fill: #a6a6a6 } 
	</style>
	<path class="s0" d="m10.5 13.6l-4.9-4.7q-0.1-0.1-0.1-0.2-0.1-0.2-0.1-0.3 0-0.1 0.1-0.3 0-0.1 0.1-0.2l4.9-4.7q0.3-0.2 0.6-0.2 0.3 0 0.5 0.2 0.2 0.2 0.2 0.5 0 0.3-0.2 0.5l-4.4 4.2 4.4 4.2q0.2 0.2 0.2 0.5 0 0.3-0.2 0.5-0.2 0.2-0.5 0.2-0.3 0-0.6-0.2z"/>
	<path class="s0" d="m10.7 13.9l-5.4-4.9q-0.3-0.2-0.3-0.5 0-0.3 0.1-0.5 0.1-0.1 0.2-0.2l5.4-4.9q0.2-0.2 0.4-0.3 0.3 0 0.5 0.1 0.2 0 0.4 0.3 0.2 0.2 0.2 0.4v9.9q0 0.3-0.2 0.5-0.2 0.3-0.4 0.3-0.2 0.1-0.5 0.1-0.2-0.1-0.4-0.3z"/>
</svg>