<svg width="16" height="16" viewBox="0 0 16 16" fill="none" xmlns="http://www.w3.org/2000/svg">
<g clip-path="url(#clip0_971_32106)">
<path fill-rule="evenodd" clip-rule="evenodd" d="M5.17849 10.893C4.78298 10.8937 4.3971 10.7717 4.0738 10.5439C3.74972 10.3172 3.50378 9.99587 3.36951 9.62388C3.31371 9.46271 3.28153 9.29428 3.27419 9.12388V9.12105C3.25909 9.05082 3.25902 8.97818 3.27419 8.90796C3.28937 8.83775 3.31933 8.77155 3.36209 8.71382C3.43946 8.61832 3.5494 8.55456 3.67068 8.53462L3.93709 8.52027H6.49177L6.75779 8.53462C6.87906 8.55459 6.9886 8.61835 7.06599 8.71382C7.10887 8.77157 7.13903 8.83787 7.15427 8.90816C7.16952 8.97845 7.16977 9.05112 7.15466 9.12144V9.12388C7.14706 9.29425 7.11488 9.46264 7.05935 9.62388C6.92545 9.99596 6.67959 10.3174 6.35545 10.5439C6.03203 10.7715 5.64584 10.8934 5.25037 10.893H5.17849ZM4.36443 9.1191C4.29924 9.12801 4.23924 9.15923 4.19451 9.20748C4.17124 9.23464 4.15487 9.26696 4.14646 9.30171C4.13805 9.33647 4.1378 9.37268 4.14607 9.40748C4.15012 9.4919 4.16776 9.5751 4.19841 9.65386C4.28517 9.84485 4.42641 10.006 4.60427 10.1172C4.78214 10.2284 4.98873 10.2847 5.19841 10.2791H5.23865C5.44837 10.2849 5.6549 10.2287 5.83279 10.1174C6.01068 10.0062 6.15202 9.84494 6.23865 9.65386C6.26891 9.57496 6.28665 9.49185 6.29138 9.40748C6.29954 9.37265 6.29947 9.33637 6.29099 9.30162C6.28251 9.26687 6.26583 9.23463 6.24255 9.20748C6.19774 9.15912 6.13758 9.12789 6.07224 9.1191L5.92537 9.11187H4.51443L4.36443 9.1191Z" fill="#A6A6A6"/>
<path d="M8.42146 10.0207C8.31384 10.0197 8.21095 9.97663 8.13474 9.90064C8.05837 9.82435 8.01493 9.72098 8.01443 9.61304V9.51949C8.01491 9.41166 8.05836 9.3084 8.13474 9.23228C8.21076 9.156 8.31377 9.11284 8.42146 9.11226H11.0515C11.1592 9.11276 11.2623 9.15592 11.3383 9.23228C11.3763 9.26984 11.4063 9.31453 11.4269 9.36382C11.4475 9.41312 11.4582 9.46606 11.4582 9.51949V9.61304C11.4581 9.66653 11.4475 9.71954 11.4269 9.7689C11.4063 9.81826 11.3762 9.86298 11.3383 9.90064C11.2621 9.9767 11.1592 10.0198 11.0515 10.0207H8.42146Z" fill="#A6A6A6"/>
<path d="M8.42146 8.62066C8.31361 8.62027 8.21003 8.5771 8.13396 8.50064C8.05758 8.42453 8.01452 8.32126 8.01404 8.21343V8.11949C8.0145 8.01154 8.05756 7.90815 8.13396 7.83189C8.2101 7.75555 8.31364 7.71239 8.42146 7.71187H10.9812C11.0889 7.71275 11.1921 7.75586 11.2683 7.83189C11.3063 7.86959 11.336 7.91438 11.3566 7.96373C11.3772 8.01308 11.3881 8.06601 11.3883 8.11949V8.21343C11.3881 8.26685 11.3772 8.31972 11.3566 8.369C11.336 8.41828 11.3062 8.46302 11.2683 8.50064C11.1922 8.57678 11.0889 8.6199 10.9812 8.62066H8.42146Z" fill="#A6A6A6"/>
<path fill-rule="evenodd" clip-rule="evenodd" d="M4.35427 7.55865C4.24312 7.44807 4.15484 7.31651 4.0949 7.17164C4.03496 7.02676 4.00452 6.87149 4.00505 6.7147C4.00456 6.55786 4.03496 6.40241 4.0949 6.25748C4.15484 6.11254 4.24314 5.98095 4.35427 5.87027C4.46486 5.75909 4.59612 5.671 4.74099 5.61099C4.88586 5.55098 5.04122 5.52024 5.19802 5.52066C5.35489 5.52023 5.51051 5.55089 5.65545 5.61089C5.80038 5.6709 5.9319 5.75908 6.04255 5.87027C6.15372 5.98094 6.24192 6.11254 6.30193 6.25748C6.36194 6.40241 6.39257 6.55784 6.39216 6.7147C6.39256 6.87151 6.36194 7.02677 6.30193 7.17164C6.24192 7.3165 6.15371 7.44805 6.04255 7.55865C5.93193 7.66991 5.80038 7.75814 5.65545 7.81822C5.51051 7.87829 5.35492 7.90902 5.19802 7.90865C5.04128 7.9091 4.88624 7.87857 4.74138 7.81871C4.59652 7.75884 4.46496 7.67089 4.35427 7.55992V7.55865ZM4.66052 6.71871C4.66063 6.86341 4.718 7.00209 4.82029 7.10445C4.92257 7.20681 5.06152 7.26449 5.20623 7.2647C5.35097 7.26449 5.48981 7.20689 5.59216 7.10455C5.69451 7.0022 5.75211 6.86345 5.75232 6.71871C5.75221 6.57393 5.69454 6.43504 5.59216 6.33267C5.48979 6.2303 5.351 6.17282 5.20623 6.17271C5.06166 6.17292 4.92294 6.23039 4.82068 6.33257C4.71842 6.43476 4.66084 6.57326 4.66052 6.71783V6.71871Z" fill="#A6A6A6"/>
<path d="M8.56716 7.16949C8.45934 7.16843 8.35627 7.12536 8.27966 7.04947C8.2037 6.97291 8.16072 6.86972 8.15974 6.76187V6.66783C8.16069 6.56009 8.20369 6.4571 8.27966 6.38072C8.35612 6.30461 8.45928 6.2615 8.56716 6.2607H12.3273C12.435 6.26137 12.538 6.30451 12.614 6.38072C12.6519 6.41834 12.6821 6.46308 12.7027 6.51236C12.7233 6.56164 12.7338 6.61441 12.734 6.66783V6.76187C12.7337 6.86986 12.6906 6.9733 12.614 7.04947C12.5378 7.12546 12.4349 7.16856 12.3273 7.16949H8.56716Z" fill="#A6A6A6"/>
<path fill-rule="evenodd" clip-rule="evenodd" d="M11.2 3.19995H12.7363C12.885 3.19995 13.0335 3.21488 13.1792 3.24468C13.3206 3.27367 13.4584 3.31657 13.5914 3.37271C13.722 3.42804 13.8473 3.49599 13.9648 3.57554C14.0816 3.65433 14.1903 3.74417 14.2898 3.8439C14.3894 3.94352 14.4792 4.05241 14.5582 4.16909C14.6376 4.2867 14.7054 4.41172 14.7609 4.54233C14.8169 4.67528 14.8597 4.81341 14.8886 4.95474C14.9184 5.10045 14.9335 5.24878 14.9335 5.39751V10.6987C14.9335 10.8474 14.9184 10.9957 14.8886 11.1415C14.8599 11.2828 14.817 11.421 14.7609 11.5539C14.7054 11.6845 14.6376 11.8095 14.5582 11.9271C14.4793 12.0439 14.3895 12.1528 14.2898 12.2523C14.1902 12.3519 14.0815 12.4417 13.9648 12.5207C13.8472 12.6 13.722 12.6679 13.5914 12.7231C13.4584 12.7792 13.3206 12.8221 13.1792 12.8511C13.0335 12.8809 12.885 12.8959 12.7363 12.8959L3.25073 12.9003C3.102 12.9003 2.95349 12.8852 2.80776 12.8555C2.66642 12.8265 2.52858 12.7836 2.39565 12.7275C2.265 12.6723 2.13978 12.6045 2.02222 12.5251C1.90553 12.4462 1.79684 12.3563 1.69722 12.2567C1.59761 12.1571 1.50777 12.0482 1.42886 11.9315C1.34936 11.8139 1.28112 11.689 1.22573 11.5583C1.16969 11.4254 1.12708 11.2873 1.098 11.1459C1.06852 11.0002 1.05351 10.8518 1.05347 10.7031V5.4019C1.05351 5.2532 1.06852 5.10489 1.098 4.95913C1.12692 4.81777 1.16953 4.67962 1.22573 4.54673C1.2811 4.41606 1.34934 4.29103 1.42886 4.17349C1.50765 4.0567 1.5975 3.9478 1.69722 3.84829C1.79678 3.74863 1.90548 3.65879 2.02222 3.57993C2.13974 3.50038 2.26497 3.43242 2.39565 3.3771C2.52856 3.32093 2.66641 3.27803 2.80776 3.24907C2.95348 3.2193 3.102 3.19997 3.25073 3.19995H4.79995H5.67031H11.2ZM6.96395 4.06005H5.83046C5.83046 4.06005 3.74131 4.06042 3.67748 4.06005C3.61364 4.05968 3.4894 4.06005 3.4894 4.06005H3.44331C3.0396 4.06058 2.6526 4.25062 2.36714 4.53608C2.08167 4.82155 1.92118 5.20855 1.92065 5.61226V10.4895C1.92118 10.8932 2.08167 11.2802 2.36714 11.5657C2.6526 11.8511 3.0396 12.0117 3.44331 12.0123H12.5421C12.9459 12.0118 13.3331 11.8513 13.6187 11.5659C13.9043 11.2804 14.065 10.8933 14.0656 10.4895V5.61226C14.065 5.20848 13.9043 4.82146 13.6187 4.53599C13.3331 4.25051 12.9459 4.06047 12.5421 4.06005H8.01831H8.02158H6.96395Z" fill="#A6A6A6"/>
</g>
<defs>
<clipPath id="clip0_971_32106">
<rect width="16" height="16" fill="white"/>
</clipPath>
</defs>
</svg>
