<svg width="16" height="17" viewBox="0 0 16 17" fill="none" xmlns="http://www.w3.org/2000/svg">
<g clip-path="url(#clip0_971_32085)">
<path d="M12.3943 10.6484C12.3977 10.6978 12.4003 10.7352 12.4428 10.7677C12.4659 10.7853 12.4943 10.7946 12.5233 10.7942C12.5573 10.7928 12.5905 10.7834 12.6202 10.7669C12.7254 10.7131 12.8257 10.65 12.9198 10.5785C13.0796 10.4571 13.2201 10.3122 13.3366 10.1489C13.4548 9.98405 13.5467 9.80201 13.6097 9.60923C13.6746 9.40951 13.7076 9.20084 13.7074 8.99084V4.68428C13.7078 4.43168 13.6571 4.18154 13.5585 3.94899C13.5106 3.83691 13.4521 3.72972 13.3835 3.62895C13.3254 3.54287 13.2603 3.46169 13.189 3.38616C13.1848 3.37186 13.1771 3.3589 13.1663 3.34856C13.0806 3.2626 12.9867 3.185 12.8862 3.11691C12.7853 3.04861 12.6783 2.99007 12.5663 2.9421C12.3338 2.84329 12.0837 2.79262 11.8311 2.79297H7.52424C7.31408 2.79275 7.10526 2.82578 6.90546 2.89092C6.71276 2.95378 6.53102 3.04597 6.36637 3.16418C6.20283 3.2808 6.05777 3.42145 5.93627 3.58139C5.86475 3.67537 5.80182 3.77552 5.74798 3.88062C5.73077 3.90675 5.72141 3.93733 5.72141 3.96862C5.72141 3.9999 5.73077 4.03048 5.74798 4.05661C5.78053 4.09952 5.81778 4.10214 5.86736 4.10562C5.88479 4.10684 5.90374 4.10817 5.92455 4.1114H6.32457C6.39885 4.10598 6.47162 4.08744 6.53942 4.05661C6.60134 4.02246 6.65591 3.97617 6.69959 3.92057C6.92209 3.70919 7.21694 3.59111 7.52385 3.59057H11.7491C11.7754 3.59603 11.8019 3.59884 11.8287 3.59897C11.9579 3.5989 12.0861 3.62177 12.2073 3.66655C12.4116 3.74736 12.5872 3.88773 12.7108 4.0694C12.8344 4.25107 12.9005 4.46571 12.9007 4.68545C12.9008 4.71233 12.9035 4.7391 12.9089 4.76543V8.9924C12.9083 9.29911 12.7907 9.594 12.5796 9.81647C12.5237 9.85996 12.4769 9.91446 12.4428 9.97653C12.4121 10.0442 12.3938 10.1168 12.3885 10.1909V10.5909C12.3918 10.6118 12.3931 10.6308 12.3943 10.6484Z" fill="#A6A6A6"/>
<path fill-rule="evenodd" clip-rule="evenodd" d="M5.66164 14.2143L7.68206 14.2147C10.0174 14.2147 11.0572 13.1727 11.0572 10.8394V8.81925C11.0572 6.48393 10.0158 5.44388 7.68206 5.44388H5.66203C3.32672 5.44388 2.28687 6.48593 2.28687 8.81925V10.8394C2.28687 13.1743 3.32793 14.2143 5.66164 14.2143ZM7.68167 13.417H5.66164V13.4163C3.75875 13.4163 3.08377 12.7418 3.08417 10.8389V8.81886C3.08417 6.91596 3.75875 6.2407 5.66164 6.2407H7.68167C9.58456 6.2407 10.2591 6.91596 10.2591 8.81886V10.8389C10.2591 12.7422 9.58496 13.417 7.68167 13.417Z" fill="#A6A6A6"/>
</g>
<defs>
<clipPath id="clip0_971_32085">
<rect width="16" height="16" fill="white" transform="translate(0 0.5)"/>
</clipPath>
</defs>
</svg>
