<svg width="24" height="24" viewBox="0 0 24 24" fill="none" xmlns="http://www.w3.org/2000/svg">
<g clip-path="url(#clip0_971_36897)">
<path d="M4.02967 15.916C4.5034 16.0993 5.22765 16.2375 5.73945 16.2381C5.75987 16.24 5.78058 16.2407 5.80172 16.2406C5.99344 16.2406 6.17731 16.1645 6.31288 16.0289C6.44845 15.8934 6.52461 15.7095 6.52461 15.5178C6.52459 15.3285 6.45037 15.1468 6.31788 15.0117C6.18539 14.8766 6.00521 14.7988 5.81601 14.7951C4.20124 14.6601 3.06727 13.6119 2.86949 12.03C2.76961 11.2321 2.97484 10.629 3.49657 10.1861C3.92973 9.81834 4.57681 9.55087 5.59479 9.31859C5.953 6.69599 8.06206 3.63319 10.845 3.25812C11.0699 3.22795 11.2966 3.21282 11.5235 3.21282C13.8868 3.21282 16.3032 4.88929 17.3997 7.28972C19.4915 7.89241 20.5801 9.12902 20.548 10.8658C20.5165 12.5621 19.3946 14.0111 17.7808 14.6376C17.7754 14.6396 17.7699 14.6417 17.7645 14.6439C17.7464 14.6509 17.7283 14.6577 17.7101 14.6644C17.7041 14.6667 17.699 14.6708 17.6954 14.676C17.5791 14.7374 17.4817 14.8294 17.4138 14.9421C17.346 15.0548 17.3101 15.1838 17.3102 15.3154C17.3102 15.5071 17.3863 15.691 17.5219 15.8265C17.6574 15.9621 17.8413 16.0383 18.033 16.0383C18.0749 16.0383 18.1166 16.0347 18.1578 16.0275C18.1594 16.0279 18.161 16.0279 18.1625 16.0275L18.1737 16.0246C18.2096 16.0176 18.2448 16.0078 18.2791 15.9954C18.7827 15.85 19.2612 15.6284 19.6978 15.3384C20.1567 15.0338 20.5637 14.6575 20.9034 14.2239C21.2435 13.7906 21.512 13.3056 21.6986 12.7873C21.8898 12.2559 21.9923 11.6967 22.0019 11.132C22.0123 10.5674 21.9296 10.0049 21.7572 9.46707C21.5891 8.94251 21.338 8.44831 21.0134 8.0033C20.6892 7.558 20.2957 7.16757 19.8479 6.84688C19.3887 6.51795 18.8786 6.26687 18.3379 6.10374C18.0542 5.45125 17.6757 4.8443 17.2144 4.30259C16.7645 3.7745 16.2409 3.31405 15.6595 2.93548C15.0807 2.55832 14.4509 2.26601 13.7892 2.06746C13.1179 1.86599 12.4208 1.76364 11.7199 1.76367C11.3804 1.76383 11.0413 1.78776 10.7051 1.8353C9.91843 1.9461 9.15548 2.18627 8.44716 2.54607C7.75635 2.89677 7.12658 3.35655 6.5821 3.90769C6.0371 4.45825 5.58436 5.09304 5.24131 5.78764C4.8894 6.49989 4.65778 7.26547 4.55583 8.05335C3.57232 8.28893 2.70955 8.87747 2.13135 9.70722C1.55315 10.537 1.29977 11.5502 1.41933 12.5544C1.47884 13.0595 1.63169 13.5492 1.87004 13.9986C1.98576 14.2166 2.12076 14.4238 2.27344 14.6177C2.42524 14.8103 2.59382 14.989 2.77721 15.1518C2.96058 15.3146 3.15798 15.4608 3.3671 15.5887C3.57774 15.7174 3.79948 15.8269 4.02967 15.916Z" fill="white"/>
<path fill-rule="evenodd" clip-rule="evenodd" d="M8.3984 18.6558L9.78793 21.0657C10.2824 21.914 10.959 22.3824 11.6981 22.3824C12.4372 22.3824 13.1139 21.914 13.603 21.0657L14.9927 18.6558C15.482 17.8074 15.5496 16.9903 15.1801 16.3448C14.8106 15.7048 14.0662 15.3508 13.0878 15.3508H12.4232V11.6431H12.4209C12.4063 11.462 12.3241 11.293 12.1905 11.1697C12.057 11.0465 11.8819 10.9781 11.7002 10.9781C11.5185 10.9781 11.3434 11.0465 11.2099 11.1697C11.0763 11.293 10.9941 11.462 10.9795 11.6431H10.9772V15.3508H10.3085C9.32993 15.3508 8.58572 15.7048 8.21618 16.3448C8.05595 16.6214 7.97323 16.9361 7.97672 17.2557C7.97672 17.6929 8.11728 18.1718 8.3984 18.6558ZM9.77853 18.315C9.52664 17.8517 9.47702 17.4328 9.64115 17.1306C9.80513 16.8285 10.1752 16.6633 10.6789 16.6633H12.7165C13.2201 16.6633 13.5903 16.8285 13.7543 17.1306C13.819 17.2549 13.8518 17.3933 13.8497 17.5335C13.8497 17.7671 13.7733 18.0331 13.6169 18.315L12.5982 20.1801C12.3463 20.6433 12.0259 20.8972 11.6977 20.8972C11.3694 20.8972 11.049 20.6433 10.7972 20.1801L9.77853 18.315Z" fill="white"/>
</g>
<defs>
<clipPath id="clip0_971_36897">
<rect width="24" height="24" fill="white"/>
</clipPath>
</defs>
</svg>
