<svg width="24" height="24" viewBox="0 0 24 24" fill="none" xmlns="http://www.w3.org/2000/svg">
<g clip-path="url(#clip0_971_40021)">
<path d="M5.74123 16.2385C5.76072 16.2403 5.78158 16.2411 5.80321 16.2411C5.82066 16.2411 5.85865 16.2407 5.91883 16.24C5.93603 16.2398 5.95505 16.2395 5.97592 16.2393C5.99439 16.2044 6.01385 16.1692 6.03409 16.1348C6.63643 15.0915 7.84584 14.5169 9.43953 14.5169H10.3545V11.3583C10.3545 10.522 10.6378 10.2673 10.852 10.0748C10.87 10.0585 10.8876 10.0428 10.9044 10.0271C11.1218 9.82491 11.4078 9.71269 11.7047 9.7131C12.0016 9.7127 12.2876 9.82491 12.505 10.0271C12.7221 10.2285 12.9989 10.5014 13.026 11.3583V14.5169H13.9632C15.5081 14.5169 16.6992 15.061 17.3171 16.049C17.742 16.0422 17.9835 16.0388 18.0348 16.0388C18.0766 16.0388 18.1184 16.0352 18.1596 16.028L18.1622 16.0284L18.1642 16.0281L18.1755 16.025C18.2113 16.018 18.2466 16.0082 18.2809 15.9958C18.7845 15.8503 19.2629 15.6288 19.6995 15.3388C20.1584 15.0342 20.5654 14.6579 20.9051 14.2243C21.2453 13.791 21.5137 13.306 21.7003 12.7878C21.8916 12.2564 21.9941 11.6972 22.0036 11.1325C22.014 10.5678 21.9313 10.0053 21.7589 9.46752C21.5909 8.94296 21.3397 8.44876 21.0151 8.00375C20.6909 7.55846 20.2974 7.16803 19.8496 6.84733C19.3905 6.5184 18.8803 6.26733 18.3396 6.1042C18.056 5.45171 17.6774 4.84475 17.2161 4.30304C16.7663 3.77496 16.2426 3.31452 15.6612 2.93596C15.0824 2.55879 14.4526 2.26648 13.7909 2.06794C13.1196 1.86648 12.4225 1.76414 11.7216 1.76416C11.3821 1.76431 11.043 1.78825 10.7068 1.83579C9.92015 1.94659 9.15717 2.18674 8.44886 2.54653C7.75804 2.89724 7.12828 3.35702 6.5838 3.90817C6.03879 4.45873 5.58608 5.09352 5.24303 5.78812C4.89113 6.50038 4.6595 7.26595 4.55755 8.05383C3.57402 8.2894 2.71124 8.87794 2.13304 9.7077C1.55484 10.5375 1.30146 11.5507 1.42105 12.5549C1.48057 13.06 1.63338 13.5497 1.87173 13.9991C1.98744 14.217 2.12246 14.4242 2.27516 14.618C2.42694 14.8107 2.59552 14.9895 2.77893 15.1523C2.96229 15.315 3.1597 15.4613 3.36882 15.5892C3.57946 15.7179 3.80121 15.8274 4.03139 15.9165C4.30439 16.0173 4.58566 16.0941 4.87201 16.146C5.15844 16.2025 5.44932 16.2335 5.74123 16.2385Z" fill="#FFC107"/>
<path fill-rule="evenodd" clip-rule="evenodd" d="M8.40018 18.6563L9.78971 21.0661C10.2842 21.9145 10.9608 22.3828 11.6999 22.3828C12.439 22.3828 13.1156 21.9145 13.6048 21.0661L14.9945 18.6563C15.4838 17.8079 15.5514 16.9907 15.1819 16.3453C14.8123 15.7052 14.068 15.3512 13.0896 15.3512H12.4249V11.6436H12.4226C12.4081 11.4625 12.3259 11.2934 12.1923 11.1702C12.0588 11.0469 11.8837 10.9785 11.702 10.9785C11.5203 10.9785 11.3452 11.0469 11.2116 11.1702C11.0781 11.2934 10.9958 11.4625 10.9813 11.6436H10.979V15.3512H10.3102C9.33171 15.3512 8.5875 15.7052 8.21796 16.3453C8.05773 16.6219 7.97501 16.9365 7.9785 17.2561C7.9785 17.6934 8.11906 18.1722 8.40018 18.6563ZM9.78031 18.3155C9.52842 17.8522 9.4788 17.4332 9.64293 17.131C9.80691 16.829 10.177 16.6637 10.6807 16.6637H12.7183C13.2219 16.6637 13.592 16.829 13.756 17.131C13.8208 17.2553 13.8536 17.3938 13.8515 17.5339C13.8515 17.7676 13.7751 18.0336 13.6187 18.3155L12.6 20.1805C12.3481 20.6437 12.0277 20.8976 11.6995 20.8976C11.3712 20.8976 11.0508 20.6438 10.799 20.1805L9.78031 18.3155Z" fill="#FFC107"/>
</g>
<defs>
<clipPath id="clip0_971_40021">
<rect width="24" height="24" fill="white"/>
</clipPath>
</defs>
</svg>
