<svg width="16" height="16" viewBox="0 0 16 16" fill="none" xmlns="http://www.w3.org/2000/svg">
<path d="M5.33425 9.16532C5.24719 9.16437 5.16116 9.14629 5.08108 9.11212C4.99951 9.0799 4.92484 9.03239 4.86111 8.97214C4.73814 8.84502 4.66882 8.67545 4.66753 8.4986C4.66848 8.41154 4.68656 8.32551 4.72072 8.24543C4.75453 8.16468 4.80187 8.09029 4.86071 8.02546C4.92444 7.96521 4.99911 7.9177 5.08068 7.88548C5.20239 7.83613 5.33579 7.82309 5.46475 7.84793C5.59371 7.87277 5.71272 7.93443 5.80739 8.02546C5.92905 8.15323 5.99803 8.32219 6.00056 8.4986C5.99914 8.54324 5.99473 8.58773 5.98737 8.63178C5.98011 8.67355 5.96663 8.714 5.94737 8.75177C5.9328 8.79425 5.91263 8.83461 5.88738 8.87175C5.86277 8.90668 5.83606 8.94007 5.80739 8.97174C5.67966 9.09351 5.5107 9.16264 5.33425 9.16532Z" fill="#4B4B4B"/>
<path d="M7.41315 9.11292C7.49341 9.14687 7.57958 9.16467 7.66672 9.16532C7.84301 9.16296 8.01195 9.09427 8.13986 8.97294C8.16853 8.94127 8.19525 8.90788 8.21985 8.87295C8.2451 8.8358 8.26527 8.79545 8.27984 8.75297C8.29911 8.7152 8.31259 8.67475 8.31984 8.63298C8.32725 8.58854 8.33166 8.54364 8.33304 8.4986C8.33051 8.32219 8.26152 8.15323 8.13986 8.02546C8.04597 7.93316 7.9269 7.87066 7.7976 7.84583C7.66831 7.82099 7.53455 7.83493 7.41315 7.88588C7.33158 7.9181 7.25692 7.96561 7.19318 8.02586C7.13435 8.09069 7.087 8.16508 7.0532 8.24583C7.01903 8.32591 7.00095 8.41194 7 8.499C7.00108 8.67594 7.07026 8.84566 7.19318 8.97294C7.25692 9.03319 7.33158 9.0807 7.41315 9.11292Z" fill="#4B4B4B"/>
<path d="M5.33425 11.4982C5.24719 11.4973 5.16116 11.4792 5.08108 11.445C5.00033 11.4112 4.92594 11.3639 4.86111 11.305C4.7393 11.1773 4.67017 11.0084 4.66753 10.8319C4.66848 10.7448 4.68656 10.6588 4.72072 10.5787C4.75133 10.4964 4.79904 10.4214 4.86071 10.3588C4.98962 10.2398 5.15862 10.1737 5.33405 10.1737C5.50948 10.1737 5.67847 10.2398 5.80739 10.3588C5.92905 10.4865 5.99803 10.6555 6.00056 10.8319C5.99803 11.0083 5.92905 11.1773 5.80739 11.305C5.6796 11.4267 5.51065 11.4957 5.33425 11.4982Z" fill="#4B4B4B"/>
<path fill-rule="evenodd" clip-rule="evenodd" d="M5.00069 14.6642H10.3332C12.7665 14.6642 14.1663 13.2644 14.1663 10.8315V5.16582C14.1663 2.90474 12.9573 1.53597 10.8332 1.35391V0.999938C10.8322 0.867637 10.7792 0.741023 10.6857 0.64747C10.5921 0.553917 10.4655 0.500942 10.3332 0.5C10.2009 0.500942 10.0743 0.553917 9.98076 0.64747C9.88721 0.741023 9.83423 0.867637 9.83329 0.999938V1.3331H5.50102V0.999938C5.50008 0.867637 5.4471 0.741023 5.35355 0.64747C5.26 0.553917 5.13338 0.500942 5.00108 0.5C4.86878 0.500942 4.74217 0.553917 4.64862 0.64747C4.55506 0.741023 4.50209 0.867637 4.50115 0.999938V1.35388C2.37718 1.53583 1.16797 2.90462 1.16797 5.16582V10.8315C1.16797 13.2644 2.56779 14.6642 5.00069 14.6642ZM4.50115 2.35637C2.93242 2.51109 2.16784 3.43439 2.16784 5.16582V5.22581H13.1661V5.16582C13.1664 3.43453 12.4017 2.51125 10.8332 2.35641V2.99969C10.8322 3.13199 10.7792 3.2586 10.6857 3.35216C10.5921 3.44571 10.4655 3.49868 10.3332 3.49962C10.2009 3.49868 10.0743 3.44571 9.98076 3.35216C9.88721 3.2586 9.83423 3.13199 9.83329 2.99969V2.33297H5.50102V2.99969C5.50008 3.13199 5.4471 3.2586 5.35355 3.35216C5.26 3.44571 5.13338 3.49868 5.00108 3.49962C4.86878 3.49868 4.74217 3.44571 4.64862 3.35216C4.55506 3.2586 4.50209 3.13199 4.50115 2.99969V2.35637ZM13.1661 6.22569V10.8315C13.1661 12.7377 12.2398 13.6644 10.3332 13.6644H5.00069C3.09453 13.6644 2.16784 12.7381 2.16784 10.8315V6.22569H13.1661Z" fill="#4B4B4B"/>
</svg>
