<svg width="16" height="17" viewBox="0 0 16 17" fill="none" xmlns="http://www.w3.org/2000/svg">
<g clip-path="url(#clip0_971_32153)">
<path d="M6.15188 15.4367L9.9066 15.4367C10.1261 15.4367 10.3393 15.4308 10.5402 15.4191C10.7427 15.4074 10.9403 15.3894 11.1275 15.3656C11.3143 15.3418 11.4966 15.3116 11.6692 15.2755C11.8407 15.2396 12.008 15.1967 12.1661 15.1479C12.3199 15.1008 12.4711 15.0455 12.6191 14.9824C12.7595 14.9224 12.8963 14.8541 13.0287 14.778C13.1562 14.7046 13.2788 14.6231 13.3958 14.534C13.5104 14.4465 13.619 14.3516 13.721 14.2498C13.8228 14.1477 13.9178 14.039 14.0053 13.9244C14.0942 13.8073 14.1757 13.6846 14.2491 13.5572C14.3252 13.4248 14.3935 13.288 14.4535 13.1475C14.5166 12.9995 14.5718 12.8482 14.619 12.6944C14.6675 12.5369 14.7103 12.3697 14.7463 12.1973C14.7821 12.0266 14.8124 11.8444 14.8365 11.6555C14.8601 11.47 14.878 11.2724 14.8901 11.0682C14.9017 10.8649 14.9077 10.6516 14.9077 10.4346V6.5629C14.9077 6.34582 14.9016 6.13261 14.8901 5.92926C14.878 5.72504 14.8601 5.52744 14.8365 5.34196C14.8123 5.15247 14.782 4.97013 14.7463 4.80005C14.7105 4.62842 14.6677 4.46119 14.619 4.30293C14.5718 4.14913 14.5165 3.99792 14.4535 3.84991C14.3935 3.70944 14.3253 3.57264 14.2491 3.44022C14.1757 3.31278 14.0943 3.19015 14.0053 3.07307C13.9179 2.9584 13.8229 2.8497 13.721 2.74771C13.619 2.6458 13.5104 2.55079 13.3958 2.4633C13.2787 2.37431 13.1561 2.29284 13.0287 2.21936C12.8963 2.14329 12.7595 2.07506 12.6191 2.01502C12.4711 1.95188 12.3199 1.89662 12.1661 1.84947C12.0094 1.80097 11.8422 1.75812 11.6692 1.72194C11.4973 1.68597 11.315 1.65562 11.1275 1.63176C10.9395 1.60799 10.7419 1.58994 10.5402 1.57828C10.3376 1.56654 10.1244 1.56055 9.9066 1.56055H6.15203C6.02531 1.56459 5.90514 1.61781 5.81698 1.70892C5.72882 1.80003 5.67961 1.92188 5.67974 2.04866C5.67972 2.11185 5.69217 2.17443 5.71637 2.2328C5.74058 2.29118 5.77605 2.3442 5.82078 2.38884C5.86551 2.43347 5.91861 2.46885 5.97703 2.49294C6.03545 2.51702 6.09804 2.52935 6.16124 2.5292C6.17023 2.52919 6.17918 2.52894 6.18806 2.52847H9.9066C10.6686 2.52847 11.2853 2.59787 11.7917 2.74065C12.3142 2.88812 12.7221 3.11382 13.0386 3.43077C13.3553 3.74744 13.5809 4.15546 13.7279 4.67812C13.8705 5.18428 13.9398 5.80084 13.9398 6.56296V10.4346C13.9398 11.1967 13.8705 11.8132 13.7279 12.3193C13.5809 12.8418 13.3553 13.2498 13.0386 13.5668C12.722 13.8838 12.3141 14.1094 11.7917 14.2567C11.2853 14.3995 10.6686 14.4689 9.9066 14.4689H6.19072C6.18113 14.4683 6.17149 14.468 6.1618 14.468C6.03331 14.4694 5.91057 14.5215 5.82027 14.613C5.72998 14.7044 5.67943 14.8278 5.67959 14.9563C5.67955 15.0823 5.72904 15.2033 5.81739 15.2932C5.90574 15.3831 6.02587 15.4346 6.15188 15.4367Z" fill="#FF2211"/>
<path fill-rule="evenodd" clip-rule="evenodd" d="M8.41958 9.94099C8.41958 10.958 8.05178 11.7317 7.38633 12.1158C7.09887 12.2823 6.77183 12.3682 6.43965 12.3645C5.98521 12.3645 5.48747 12.2185 4.98434 11.9263L2.47952 10.4819C1.59774 9.96792 1.11084 9.26453 1.11084 8.49636C1.11084 7.72819 1.59772 7.02488 2.47952 6.51639L4.98432 5.0719C5.86609 4.56337 6.71551 4.49305 7.38635 4.8772C8.05172 5.2613 8.4196 6.03494 8.4196 7.052V8.01827H11.692C11.7049 8.0172 11.7179 8.01667 11.7311 8.01667C11.8596 8.01811 11.9823 8.07021 12.0726 8.16165C12.1629 8.25308 12.2135 8.37645 12.2133 8.50496C12.2133 8.56815 12.2009 8.63073 12.1767 8.6891C12.1525 8.74748 12.117 8.8005 12.0722 8.84514C12.0275 8.88978 11.9744 8.92515 11.916 8.94924C11.8576 8.97332 11.795 8.98564 11.7318 8.9855C11.7126 8.9855 11.6935 8.98438 11.6744 8.98214H8.41958V9.94099ZM7.48052 7.11702C7.48052 6.43494 7.2687 5.93374 6.88112 5.71157C6.72305 5.62422 6.54492 5.57968 6.36435 5.58236C6.06466 5.58236 5.72363 5.68574 5.36193 5.89755L2.96965 7.27718C2.37551 7.61823 2.04992 8.0523 2.04992 8.49665C2.04992 8.94101 2.37551 9.37509 2.96965 9.71604L5.36193 11.0957C5.95619 11.4367 6.49351 11.5039 6.88112 11.2817C7.26872 11.0595 7.48052 10.5583 7.48052 9.87627V7.11702Z" fill="#FF2211"/>
</g>
<defs>
<clipPath id="clip0_971_32153">
<rect width="16" height="16" fill="white" transform="translate(0 0.5)"/>
</clipPath>
</defs>
</svg>
