<svg width="16" height="17" viewBox="0 0 16 17" fill="none" xmlns="http://www.w3.org/2000/svg">
<g clip-path="url(#clip0_4421_46328)">
<path d="M7.51467 11.9243C7.41844 12.0205 7.36438 12.151 7.36427 12.2871C7.36438 12.4232 7.41844 12.5536 7.51467 12.6498C7.61089 12.746 7.74149 12.8002 7.87757 12.8003C8.01372 12.8003 8.14416 12.7462 8.24047 12.65C8.33678 12.5538 8.39115 12.4232 8.39125 12.2871C8.39115 12.1509 8.33678 12.0203 8.24047 11.9241C8.14416 11.8279 8.01372 11.7738 7.87757 11.7738C7.74149 11.7739 7.61089 11.8281 7.51467 11.9243Z" fill="#A6A6A6"/>
<path d="M7.58733 11.055C7.66816 11.1117 7.76336 11.1443 7.86194 11.1491L7.86819 11.1522C7.95705 11.1459 8.04364 11.1208 8.1221 11.0786C8.20057 11.0364 8.26938 10.9781 8.32367 10.9075C8.37293 10.8416 8.39714 10.7604 8.39203 10.6783C8.3206 10.2834 8.34569 9.87709 8.46547 9.49415C8.56032 9.2298 8.71762 8.99219 8.92369 8.80136C9.2974 8.56041 9.60991 8.23623 9.83738 7.85417C9.92882 7.69555 10.0079 7.52995 10.0733 7.35894C10.1354 7.1954 10.184 7.02709 10.219 6.85571C10.2528 6.6918 10.2729 6.52538 10.2788 6.35814C10.2846 6.19769 10.2759 6.03706 10.253 5.87814C10.2315 5.72656 10.1954 5.57743 10.1448 5.43292C10.0959 5.29319 10.032 5.15909 9.95457 5.03291C9.87845 4.91016 9.78815 4.79684 9.68542 4.6953C9.58169 4.59328 9.46572 4.50476 9.33971 4.43201C9.205 4.35417 9.06026 4.29498 8.90962 4.25603C8.7597 4.21777 8.60536 4.19863 8.45063 4.1989C8.23147 4.19997 8.01365 4.23445 7.80491 4.30125C7.58302 4.37206 7.37175 4.47184 7.17599 4.59803C6.74401 4.8802 6.38554 5.26146 6.13065 5.71007C6.03889 5.86852 5.96015 6.03415 5.8951 6.2053C5.83262 6.36875 5.78357 6.53708 5.74861 6.70853C5.72862 6.8561 5.71839 7.00485 5.71814 7.15376C5.71814 7.28987 5.77229 7.42041 5.86853 7.51666C5.96478 7.61291 6.09532 7.66696 6.23143 7.66696C6.36791 7.66792 6.49923 7.61477 6.59668 7.5192C6.69412 7.42363 6.74968 7.29336 6.75137 7.15689C6.75137 7.14842 6.75366 7.12398 6.75587 7.10033C6.75795 7.07818 6.75996 7.05672 6.75996 7.04975C6.77526 6.73085 6.86812 6.42052 7.03067 6.14573C7.15622 5.8968 7.34315 5.68388 7.57365 5.52706C7.80416 5.37024 8.07065 5.27469 8.34828 5.24932C8.50182 5.2477 8.65291 5.28702 8.78618 5.36329C8.92149 5.44864 9.0344 5.56529 9.1151 5.70343C9.19579 5.84157 9.24198 5.99708 9.24987 6.15686C9.2807 6.54778 9.18846 6.93863 8.98619 7.27456C8.83699 7.53885 8.62913 7.76516 8.37836 7.9361C8.36796 7.9429 8.05276 8.22415 7.99476 8.27615C7.7522 8.49739 7.57627 8.78213 7.48732 9.09815C7.34133 9.49768 7.29735 9.92727 7.3588 10.3482C7.35295 10.451 7.35295 10.5541 7.3588 10.657C7.36586 10.7302 7.37918 10.7587 7.38987 10.7815C7.39675 10.7962 7.40255 10.8085 7.4049 10.829C7.44307 10.9201 7.50649 10.9984 7.58733 11.055Z" fill="#A6A6A6"/>
<path fill-rule="evenodd" clip-rule="evenodd" d="M4.05661 14.402C5.22403 15.182 6.59655 15.5983 8.00059 15.5983C9.88287 15.5968 11.6876 14.8483 13.0186 13.5174C14.3495 12.1864 15.098 10.3816 15.0996 8.49937C15.0996 7.09533 14.6832 5.72281 13.9032 4.55539C13.1231 3.38797 12.0144 2.47808 10.7173 1.94077C9.42008 1.40347 7.99272 1.26288 6.61565 1.5368C5.23858 1.81071 3.97367 2.48683 2.98086 3.47964C1.98805 4.47245 1.31194 5.73736 1.03802 7.11443C0.764104 8.4915 0.904687 9.91886 1.44199 11.216C1.9793 12.5132 2.88919 13.6219 4.05661 14.402ZM4.60682 3.42072C5.61138 2.74949 6.79242 2.39122 8.00059 2.39122C9.6201 2.39312 11.1727 3.03691 12.3179 4.18208C13.4631 5.32724 14.1072 6.87987 14.1091 8.49937C14.1092 9.70755 13.751 10.8886 13.0799 11.8932C12.4087 12.8978 11.4547 13.6808 10.3385 14.1432C9.22233 14.6056 7.99409 14.7267 6.80912 14.491C5.62415 14.2553 4.53567 13.6736 3.68133 12.8193C2.827 11.965 2.24518 10.8766 2.00944 9.69164C1.77371 8.50668 1.89466 7.27844 2.35699 6.16222C2.81932 5.04601 3.60227 4.09196 4.60682 3.42072Z" fill="#A6A6A6"/>
</g>
<defs>
<clipPath id="clip0_4421_46328">
<rect width="16" height="16" fill="white" transform="translate(0 0.5)"/>
</clipPath>
</defs>
</svg>
