<svg width="15" height="17" viewBox="0 0 15 17" fill="none" xmlns="http://www.w3.org/2000/svg">
<path fill-rule="evenodd" clip-rule="evenodd" d="M5.29579 15.4145H5.47041C6.44322 15.4168 7.39317 15.1175 8.18883 14.5578C8.98431 14.0008 9.58767 13.2113 9.91661 12.2976C10.0525 11.9019 10.1312 11.4888 10.1502 11.0709V11.0652C10.1867 10.8926 10.1864 10.7144 10.149 10.542C10.1117 10.3697 10.038 10.2071 9.93341 10.0652C9.74247 9.83041 9.47228 9.67391 9.17362 9.62521L8.51931 9.58996H2.25119L1.59687 9.62521C1.29834 9.67426 1.02788 9.8307 0.836697 10.0652C0.732177 10.2072 0.659268 10.3697 0.622239 10.5421C0.58521 10.7145 0.585251 10.8928 0.622239 11.0652V11.0716C0.640868 11.4897 0.719665 11.9029 0.856229 12.2984C1.18484 13.212 1.78829 14.0014 2.58401 14.5578C3.37771 15.1166 4.3251 15.4158 5.29579 15.4145ZM2.45978 10.5224L2.96488 10.4984H7.79898L8.30368 10.5224C8.52783 10.5528 8.73486 10.66 8.88885 10.8256C8.96881 10.9191 9.02536 11.0301 9.05448 11.1497C9.0836 11.2692 9.08443 11.3939 9.05643 11.5136V11.5176C9.04224 11.8069 8.98151 12.0921 8.87674 12.3621C8.57985 13.0167 8.09648 13.5692 7.48725 13.9506C6.87803 14.332 6.16979 14.5254 5.45127 14.5065H5.31532C4.59676 14.5251 3.88863 14.3316 3.27934 13.9502C2.67004 13.5689 2.18678 13.0165 1.88946 12.3621C1.78449 12.0921 1.72363 11.807 1.70938 11.5176V11.5144C1.68107 11.3947 1.68139 11.2699 1.71016 11.1503C1.73892 11.0306 1.79536 10.9194 1.875 10.8256C2.02952 10.6606 2.2359 10.5536 2.45978 10.5224Z" fill="#A6A6A6"/>
<path fill-rule="evenodd" clip-rule="evenodd" d="M4.22311 7.22496C4.57872 7.37238 4.96006 7.44777 5.34501 7.44674C5.7302 7.44774 6.11183 7.37237 6.4677 7.22496C6.82357 7.07755 7.14646 6.86102 7.41811 6.58793C7.69101 6.31651 7.90757 5.99361 8.05485 5.63801C8.20213 5.28241 8.2774 4.90119 8.27634 4.5163C8.27736 4.13123 8.20212 3.74979 8.05485 3.394C7.90757 3.03821 7.69099 2.71508 7.41811 2.44339C7.14649 2.17029 6.82358 1.95382 6.4677 1.80646C6.11182 1.65911 5.73019 1.58381 5.34501 1.58497C4.96007 1.58378 4.57874 1.65911 4.22311 1.80646C3.86748 1.95382 3.54476 2.17028 3.27348 2.44339C3.00047 2.71501 2.78409 3.03811 2.63674 3.39391C2.4894 3.74971 2.41382 4.1312 2.41486 4.5163C2.4138 4.90122 2.489 5.2825 2.63635 5.6381C2.7837 5.99371 3.00047 6.31657 3.27348 6.58793C3.54479 6.86103 3.8675 7.07754 4.22311 7.22496ZM3.91256 3.0815C4.2925 2.7014 4.80758 2.4875 5.34501 2.48666V2.48783C5.88248 2.48836 6.39762 2.70193 6.77786 3.08179C7.1581 3.46165 7.37252 3.97678 7.37358 4.51425C7.37284 5.05196 7.1589 5.5675 6.77864 5.94768C6.39838 6.32787 5.88273 6.54169 5.34501 6.54233C4.80751 6.54148 4.29212 6.32748 3.91216 5.94729C3.53221 5.56711 3.31854 5.05175 3.31801 4.51425C3.31864 3.97681 3.53261 3.46159 3.91256 3.0815Z" fill="#A6A6A6"/>
<path fill-rule="evenodd" clip-rule="evenodd" d="M9.96365 13.2057C9.90005 13.3261 9.87286 13.3865 9.89646 13.4593L9.89803 13.458C9.92003 13.5308 10.0582 13.4956 10.0582 13.4956L10.2496 13.458L10.5672 13.3696L10.8715 13.2496C11.1064 13.1475 11.3303 13.022 11.5399 12.8748C12.1776 12.4284 12.6614 11.7957 12.9251 11.0632C13.0343 10.746 13.0974 10.4148 13.1126 10.0796V10.0751C13.1418 9.93705 13.1414 9.79437 13.1114 9.65646C13.0814 9.51855 13.0227 9.38856 12.9387 9.27511C12.786 9.08717 12.5695 8.96174 12.3305 8.92236C12.3305 8.92236 11.9974 8.88955 11.2254 8.88955C10.8561 8.88892 10.6602 8.89384 10.4263 8.89971C10.2115 8.9051 9.9646 8.9113 9.52185 8.91474C9.44783 8.9053 9.37266 8.9184 9.30622 8.95234C9.28533 8.96677 9.26826 8.98624 9.257 9.00899C9.24573 9.03173 9.24059 9.05697 9.24176 9.08233C9.24506 9.10984 9.25498 9.13612 9.27106 9.1587C9.28713 9.18127 9.30864 9.19941 9.33356 9.21153C9.39225 9.24271 9.41218 9.24524 9.46828 9.25239C9.49784 9.25615 9.53743 9.26119 9.59802 9.27237C9.82833 9.30779 10.0487 9.39135 10.2445 9.51759C10.3585 9.59059 10.4432 9.70109 10.4844 9.83C10.5415 9.953 10.5689 10.0876 10.5645 10.2232C10.5745 10.5596 10.5729 10.8724 10.5645 11.0724V11.078C10.552 11.4997 10.4785 11.9174 10.3461 12.3181C10.3097 12.4201 10.2723 12.5181 10.2351 12.6097C10.2203 12.6489 10.2054 12.6868 10.1906 12.7228C10.117 12.8985 10.0405 13.0609 9.96365 13.2057ZM11.4469 10.3472C11.4602 10.1078 11.4576 9.86774 11.4387 9.62873L11.636 9.6384C11.8156 9.6626 11.9817 9.74839 12.1051 9.88117C12.1692 9.95614 12.2146 10.0451 12.2379 10.1409C12.2613 10.2368 12.2619 10.3367 12.2395 10.4328V10.436C12.2283 10.6678 12.1797 10.8964 12.0957 11.1128C11.9052 11.5716 11.5885 11.9668 11.1824 12.2528C11.2092 12.152 11.2346 12.0489 11.2578 11.9465C11.369 11.4242 11.4322 10.8929 11.4469 10.3592V10.3472Z" fill="#A6A6A6"/>
<path fill-rule="evenodd" clip-rule="evenodd" d="M8.05814 6.54105C8.00414 6.60945 7.96003 6.66709 7.99603 6.7603C8.02422 6.83361 8.07024 6.85364 8.13922 6.88367C8.15831 6.89199 8.17917 6.90107 8.20189 6.91225C8.53316 7.08148 8.90024 7.16954 9.27223 7.1691C9.68981 7.17024 10.1 7.05974 10.4605 6.84907C10.6303 6.74792 10.7869 6.62606 10.9266 6.48627C11.1454 6.26868 11.3186 6.00991 11.4367 5.72482C11.5548 5.43974 11.6153 5.13406 11.6145 4.82548C11.6153 4.51679 11.5548 4.21096 11.4367 3.92575C11.3186 3.64054 11.1454 3.38158 10.9266 3.16382C10.7089 2.94492 10.4501 2.77136 10.1648 2.65326C9.8796 2.53516 9.57352 2.47487 9.26481 2.47581C9.17688 2.47582 9.08893 2.48058 9.00152 2.49017H8.99605C8.81895 2.5099 8.64464 2.54906 8.47612 2.60697C8.37611 2.64217 8.33903 2.65859 8.30463 2.75219C8.29103 2.79031 8.28698 2.83119 8.29291 2.87123C8.29884 2.91127 8.31455 2.94924 8.33861 2.98178C8.57635 3.45959 8.70193 3.98536 8.70581 4.51903C8.70527 4.92857 8.63538 5.33513 8.49956 5.7215C8.4318 5.91485 8.34492 6.10085 8.23978 6.27669C8.18492 6.36859 8.12423 6.45686 8.05814 6.54105ZM9.41559 4.53944C9.4172 4.08775 9.36115 3.63774 9.24879 3.20025L9.26364 3.19976C9.69469 3.20018 10.108 3.37167 10.4129 3.67643C10.7177 3.98119 10.8893 4.39443 10.8898 4.82548C10.8893 5.25654 10.7177 5.66977 10.4129 5.97453C10.108 6.2793 9.69469 6.45069 9.26364 6.45111C9.19679 6.4512 9.12999 6.44718 9.06363 6.4391C9.18114 6.14668 9.26891 5.84307 9.32536 5.53302C9.38603 5.2053 9.41613 4.87273 9.41559 4.53944Z" fill="#A6A6A6"/>
</svg>
