<svg width="16" height="17" viewBox="0 0 16 17" fill="none" xmlns="http://www.w3.org/2000/svg">
<path d="M4.69847 2.11133C4.69847 2.54587 4.69847 2.98088 4.69847 3.42439C4.82977 3.42439 4.95588 3.42439 5.08577 3.42439C5.08577 5.86631 5.08577 8.29973 5.08577 10.7431C4.9573 10.7431 4.82883 10.7431 4.6961 10.7431C4.69469 10.778 4.69233 10.8035 4.69233 10.829C4.69233 11.2565 4.69327 11.6839 4.69091 12.1114C4.69044 12.1681 4.70744 12.1997 4.75703 12.2281C5.96146 12.921 7.16542 13.6153 8.36843 14.3105C8.41141 14.3356 8.44258 14.3379 8.48745 14.3119C9.69283 13.6148 10.8987 12.9195 12.1055 12.2252C12.1489 12.2002 12.1669 12.1737 12.1669 12.1218C12.1654 10.7298 12.1654 9.33837 12.1669 7.94643C12.1669 7.89542 12.1513 7.86755 12.1069 7.84204C10.8977 7.14678 9.68952 6.4501 8.48179 5.75201C8.43881 5.72697 8.40952 5.73217 8.36984 5.75531C8.07795 5.92582 7.78416 6.09444 7.49132 6.26306C7.46723 6.27723 7.4422 6.28998 7.40489 6.3103C7.40489 6.13176 7.40347 5.96408 7.40678 5.79641C7.40725 5.7794 7.42945 5.7572 7.4474 5.74681C7.76007 5.56497 8.07464 5.38596 8.38638 5.20317C8.43125 5.17672 8.45817 5.19655 8.49123 5.21545C9.25073 5.65376 10.0107 6.09161 10.7702 6.52993C11.3677 6.87425 11.9642 7.21999 12.5631 7.56196C12.6184 7.5936 12.6378 7.62714 12.6378 7.68996C12.6359 9.25099 12.6359 10.8125 12.6382 12.3735C12.6382 12.4411 12.6137 12.4741 12.5579 12.5063C11.2071 13.2837 9.85672 14.0626 8.50682 14.8414C8.48273 14.8556 8.46006 14.8726 8.43692 14.8882C8.43172 14.8882 8.42653 14.8882 8.42133 14.8882C8.39819 14.8726 8.37599 14.8551 8.35143 14.8414C6.99916 14.0611 5.64737 13.2809 4.29368 12.5025C4.23795 12.4704 4.22 12.4359 4.22 12.374C4.22236 11.8634 4.22142 11.3524 4.22142 10.8418C4.22142 10.8111 4.22142 10.7804 4.22142 10.744C4.08728 10.744 3.96258 10.744 3.83789 10.744C3.83789 8.30445 3.83789 5.86442 3.83789 3.42486C3.96164 3.42486 4.08539 3.42486 4.21339 3.42486C4.21339 2.97993 4.21339 2.54539 4.21339 2.11133C4.37492 2.11133 4.53693 2.11133 4.69847 2.11133Z" fill="#FFC107"/>
<path d="M6.21502 10.4326C6.08325 10.4326 5.9595 10.4326 5.83008 10.4326C5.83008 8.5329 5.83008 6.63982 5.83008 4.7406C5.94816 4.7406 6.06435 4.7406 6.18905 4.7406C6.18905 4.54034 6.18905 4.34621 6.18905 4.14453C6.35955 4.14453 6.52156 4.14453 6.69207 4.14453C6.69207 4.34007 6.69207 4.5342 6.69207 4.73541C6.82149 4.73541 6.94288 4.73541 7.0704 4.73541C7.0704 6.63557 7.0704 8.52865 7.0704 10.4302C6.94476 10.4302 6.81865 10.4302 6.68499 10.4302C6.68499 10.6281 6.68357 10.8175 6.68688 11.0074C6.68735 11.0268 6.70955 11.0528 6.72844 11.0636C7.28201 11.3848 7.83651 11.7046 8.39244 12.0229C8.4118 12.0338 8.44865 12.0333 8.46801 12.0224C9.02347 11.7041 9.57798 11.3843 10.1315 11.0627C10.1528 11.0504 10.1722 11.0154 10.1726 10.9909C10.175 10.3523 10.175 9.71371 10.1726 9.07513C10.1726 9.05057 10.1523 9.01609 10.1311 9.00334C9.5775 8.68168 9.02347 8.36145 8.46754 8.04404C8.44581 8.03176 8.40283 8.03838 8.37874 8.05207C8.08448 8.2188 7.79164 8.38837 7.49833 8.55746C7.47188 8.57258 7.44496 8.58674 7.40575 8.60847C7.40575 8.42993 7.40434 8.26226 7.40764 8.09458C7.40812 8.07758 7.43031 8.05538 7.44826 8.04499C7.76094 7.86314 8.07409 7.68224 8.38866 7.5037C8.40992 7.4919 8.44959 7.49142 8.47037 7.50323C9.1817 7.91085 9.89207 8.31988 10.601 8.73128C10.6232 8.74403 10.6421 8.7837 10.6426 8.8111C10.645 9.6268 10.645 10.4425 10.6426 11.2587C10.6426 11.2851 10.6209 11.3234 10.5982 11.3366C9.8916 11.7466 9.18358 12.1547 8.47462 12.5609C8.45195 12.5736 8.40897 12.5736 8.3863 12.5609C7.67734 12.1547 6.96933 11.7471 6.26273 11.3366C6.23864 11.3229 6.2188 11.2804 6.21833 11.2511C6.21502 11.0088 6.21644 10.7665 6.21644 10.5237C6.21502 10.4949 6.21502 10.4666 6.21502 10.4326Z" fill="#FFC107"/>
<path d="M11.987 12.0897C11.8453 12.1719 11.7149 12.2474 11.585 12.3225C10.5615 12.9129 9.53796 13.5024 8.51538 14.0942C8.45965 14.1263 8.42139 14.1306 8.36235 14.0966C7.20657 13.4282 6.04985 12.7627 4.89171 12.0982C4.83881 12.0679 4.8218 12.0358 4.82228 11.9758C4.82511 11.6292 4.82369 11.2825 4.82369 10.9358C4.82369 10.9103 4.82369 10.9386 4.82369 10.9074C4.95028 10.9074 5.15952 10.9074 5.28657 10.9074C5.28657 8.86794 5.28657 6.78074 5.28657 4.74219C5.46228 4.74219 5.45425 4.74219 5.62759 4.74219C5.62759 6.67777 5.62948 8.67335 5.62948 10.6146C5.72961 10.6146 5.90815 10.6146 6.01206 10.6146C6.01206 10.651 6.01206 10.616 6.01206 10.6439C6.01206 10.8654 6.01017 11.0869 6.01395 11.3084C6.01442 11.3377 6.03521 11.3793 6.05929 11.3935C6.83107 11.8521 7.60474 12.3079 8.37652 12.7665C8.42186 12.7934 8.44784 12.7755 8.4809 12.7561C9.23332 12.3164 9.9862 11.8767 10.7381 11.435C10.7863 11.4067 10.8208 11.4024 10.8709 11.4322C11.218 11.6377 11.5671 11.8398 11.9152 12.0434C11.936 12.0561 11.9549 12.0694 11.987 12.0897Z" fill="#FFC107"/>
</svg>
