<svg width="25" height="24" viewBox="0 0 25 24" fill="none" xmlns="http://www.w3.org/2000/svg">
<g clip-path="url(#clip0_958_13129)">
<path d="M5.72016 8.5894C10.0714 12.1132 10.1388 12.1511 10.2084 12.1781C10.8287 12.6147 11.5699 12.8455 12.3284 12.838C13.0823 12.8471 13.8202 12.6182 14.4366 12.184C14.5122 12.157 14.5847 12.1168 18.9413 8.5894C19.0906 8.46826 19.1854 8.29283 19.2055 8.1016C19.2256 7.91038 19.1693 7.71901 19.0485 7.56943C18.9273 7.4201 18.7522 7.32501 18.561 7.30488C18.3698 7.28474 18.1779 7.34123 18.0284 7.46205L13.6795 10.9504C13.2862 11.2371 12.8121 11.3915 12.3254 11.3915C11.8387 11.3915 11.3647 11.2371 10.9713 10.9504L6.63305 7.46205C6.48347 7.34123 6.29166 7.28474 6.10043 7.30488C5.90921 7.32501 5.73407 7.4201 5.61293 7.56943C5.49226 7.71907 5.43577 7.91043 5.4559 8.1016C5.47603 8.29278 5.57097 8.46817 5.72016 8.5894Z" fill="#A6A6A6"/>
<path fill-rule="evenodd" clip-rule="evenodd" d="M7.51364 20.9153H17.1514C20.6692 20.9153 22.6936 18.8909 22.6936 15.3731V8.62667C22.6936 5.10827 20.6692 3.08447 17.1514 3.08447H7.51364C3.99524 3.08447 1.97144 5.10827 1.97144 8.62667V15.3731C1.97144 18.8909 3.99524 20.9153 7.51364 20.9153ZM3.41744 8.62667C3.41744 5.86967 4.75664 4.53047 7.51364 4.53047H17.1514C19.9078 4.53047 21.2476 5.87027 21.2476 8.62667V15.3731C21.2476 18.1295 19.9078 19.4693 17.1514 19.4693H7.51364C4.75724 19.4693 3.41744 18.1295 3.41744 15.3731V8.62667Z" fill="#A6A6A6"/>
</g>
<defs>
<clipPath id="clip0_958_13129">
<rect width="24" height="24" fill="white" transform="translate(0.333252)"/>
</clipPath>
</defs>
</svg>
