<svg width="24" height="24" viewBox="0 0 24 24" fill="none" xmlns="http://www.w3.org/2000/svg">
<path d="M19.6925 15.178L18.1049 8.36497C17.8235 6.92497 17.0903 5.61219 16.0118 4.61728C14.9334 3.62237 13.5659 2.99713 12.1079 2.83237V2.26177C12.1155 2.16287 12.1026 2.06348 12.0699 1.96983C12.0373 1.87617 11.9856 1.79027 11.9182 1.71751C11.8508 1.64475 11.7691 1.5867 11.6782 1.54701C11.5873 1.50731 11.4892 1.48682 11.39 1.48682C11.2909 1.48682 11.1927 1.50731 11.1019 1.54701C11.011 1.5867 10.9293 1.64475 10.8619 1.71751C10.7945 1.79027 10.7428 1.87617 10.7102 1.96983C10.6775 2.06348 10.6646 2.16287 10.6721 2.26177V2.83297C9.21796 2.99598 7.8534 3.61763 6.77608 4.60789C5.69877 5.59816 4.96462 6.90563 4.67994 8.34097L3.08934 15.178C2.9673 15.6958 3.03815 16.2404 3.28863 16.7097C3.5391 17.1791 3.95203 17.5411 4.45014 17.728C5.54159 18.1289 6.66582 18.4343 7.81014 18.6406C7.81014 18.6886 7.80234 18.7366 7.80234 18.7846C7.7962 19.2599 7.8845 19.7316 8.06214 20.1725C8.23977 20.6134 8.50319 21.0146 8.83712 21.3529C9.17104 21.6912 9.56882 21.9597 10.0074 22.1431C10.4459 22.3264 10.9165 22.4208 11.3918 22.4208C11.8672 22.4208 12.3378 22.3264 12.7763 22.1431C13.2149 21.9597 13.6126 21.6912 13.9466 21.3529C14.2805 21.0146 14.5439 20.6134 14.7216 20.1725C14.8992 19.7316 14.9875 19.2599 14.9813 18.7846C14.9813 18.7372 14.9699 18.6892 14.9675 18.6418C16.1125 18.4352 17.2374 18.1295 18.3293 17.728C18.8279 17.5415 19.2414 17.1797 19.4923 16.7103C19.7433 16.2409 19.8144 15.6961 19.6925 15.178V15.178ZM11.3897 20.9656C10.8246 20.961 10.2837 20.7357 9.8823 20.3379C9.4809 19.9401 9.25083 19.4012 9.24114 18.8362C9.95454 18.9173 10.6718 18.9602 11.3897 18.9646C12.1077 18.9601 12.8249 18.9173 13.5383 18.8362C13.5287 19.4012 13.2986 19.9401 12.8972 20.3379C12.4958 20.7357 11.9549 20.961 11.3897 20.9656Z" fill="#FFC107"/>
</svg>
