<svg width="24" height="24" viewBox="0 0 24 24" fill="none" xmlns="http://www.w3.org/2000/svg">
<g clip-path="url(#clip0_971_40023)">
<path d="M19.9926 15.178L18.405 8.36497C18.1235 6.92497 17.3903 5.61219 16.3119 4.61728C15.2335 3.62237 13.866 2.99713 12.408 2.83237V2.26177C12.4156 2.16287 12.4026 2.06348 12.37 1.96983C12.3373 1.87617 12.2857 1.79027 12.2183 1.71751C12.1509 1.64475 12.0692 1.5867 11.9783 1.54701C11.8874 1.50731 11.7893 1.48682 11.6901 1.48682C11.5909 1.48682 11.4928 1.50731 11.4019 1.54701C11.311 1.5867 11.2293 1.64475 11.1619 1.71751C11.0945 1.79027 11.0429 1.87617 11.0102 1.96983C10.9776 2.06348 10.9646 2.16287 10.9722 2.26177V2.83297C9.51801 2.99598 8.15345 3.61763 7.07613 4.60789C5.99882 5.59816 5.26466 6.90563 4.97999 8.34097L3.38939 15.178C3.26735 15.6958 3.3382 16.2404 3.58867 16.7097C3.83915 17.1791 4.25208 17.5411 4.75019 17.728C5.84164 18.1289 6.96587 18.4343 8.11019 18.6406C8.11019 18.6886 8.10239 18.7366 8.10239 18.7846C8.09625 19.2599 8.18455 19.7316 8.36219 20.1725C8.53982 20.6134 8.80324 21.0146 9.13717 21.3529C9.47109 21.6912 9.86887 21.9597 10.3074 22.1431C10.746 22.3264 11.2166 22.4208 11.6919 22.4208C12.1672 22.4208 12.6378 22.3264 13.0764 22.1431C13.5149 21.9597 13.9127 21.6912 14.2466 21.3529C14.5805 21.0146 14.844 20.6134 15.0216 20.1725C15.1992 19.7316 15.2875 19.2599 15.2814 18.7846C15.2814 18.7372 15.27 18.6892 15.2676 18.6418C16.4126 18.4352 17.5374 18.1295 18.6294 17.728C19.1279 17.5415 19.5414 17.1797 19.7924 16.7103C20.0433 16.2409 20.1145 15.6961 19.9926 15.178ZM11.6898 20.9656C11.1247 20.961 10.5837 20.7357 10.1823 20.3379C9.78095 19.9401 9.55088 19.4012 9.54119 18.8362C10.2546 18.9173 10.9718 18.9601 11.6898 18.9646C12.4078 18.9601 13.125 18.9173 13.8384 18.8362C13.8287 19.4012 13.5986 19.9401 13.1972 20.3379C12.7958 20.7357 12.2549 20.961 11.6898 20.9656ZM18.141 16.3624C13.9775 17.8945 9.40451 17.8945 5.24099 16.3624C5.07492 16.2999 4.93728 16.1791 4.85381 16.0225C4.77033 15.8659 4.74672 15.6843 4.78739 15.5116L6.38279 8.65057C6.615 7.41025 7.27425 6.29041 8.24607 5.4855C9.21789 4.68059 10.4409 4.24144 11.7028 4.24429C12.9646 4.24714 14.1857 4.69182 15.1538 5.50111C16.122 6.31041 16.7762 7.43321 17.0028 8.67457L18.5958 15.5116C18.6365 15.6843 18.6129 15.8659 18.5294 16.0225C18.4459 16.1791 18.3083 16.2999 18.1422 16.3624H18.141Z" fill="white"/>
</g>
<defs>
<clipPath id="clip0_971_40023">
<rect width="24" height="24" fill="white"/>
</clipPath>
</defs>
</svg>
