<svg width="16" height="16" viewBox="0 0 16 16" fill="none" xmlns="http://www.w3.org/2000/svg">
<path fill-rule="evenodd" clip-rule="evenodd" d="M5.90335 8.82158C6.24915 9.05263 6.6557 9.17596 7.0716 9.17596C7.62917 9.17554 8.16378 8.95386 8.55803 8.5596C8.95229 8.16534 9.17398 7.63073 9.1744 7.07316C9.1744 6.65727 9.05107 6.25071 8.82001 5.90491C8.58896 5.55911 8.26054 5.28958 7.87631 5.13043C7.49207 4.97127 7.06927 4.92963 6.66136 5.01077C6.25346 5.0919 5.87878 5.29218 5.5847 5.58626C5.29061 5.88034 5.09034 6.25502 5.0092 6.66293C4.92807 7.07083 4.96971 7.49363 5.12887 7.87787C5.28802 8.26211 5.55754 8.59052 5.90335 8.82158ZM6.42025 6.09835C6.61305 5.96952 6.83972 5.90076 7.0716 5.90076C7.38231 5.9015 7.68009 6.02526 7.89979 6.24497C8.1195 6.46467 8.24326 6.76245 8.244 7.07316C8.244 7.30504 8.17524 7.53171 8.04641 7.72451C7.91759 7.91731 7.73449 8.06758 7.52026 8.15632C7.30603 8.24505 7.0703 8.26827 6.84288 8.22303C6.61545 8.1778 6.40655 8.06614 6.24259 7.90217C6.07862 7.73821 5.96696 7.52931 5.92173 7.30189C5.87649 7.07446 5.89971 6.83873 5.98844 6.6245C6.07718 6.41028 6.22745 6.22717 6.42025 6.09835Z" fill="#A6A6A6"/>
<path d="M3.52384 8.9034C3.40072 8.90256 3.28288 8.85328 3.19582 8.76622C3.10876 8.67916 3.05948 8.56132 3.05864 8.4382V5.709C3.05948 5.58588 3.10876 5.46804 3.19582 5.38098C3.28288 5.29392 3.40072 5.24464 3.52384 5.2438C3.64696 5.24464 3.7648 5.29392 3.85186 5.38098C3.93892 5.46804 3.9882 5.58588 3.98904 5.709V8.4382C3.98915 8.49932 3.97719 8.55986 3.95385 8.61635C3.9305 8.67284 3.89624 8.72416 3.85302 8.76738C3.8098 8.8106 3.75848 8.84486 3.70199 8.8682C3.6455 8.89154 3.58496 8.9035 3.52384 8.9034Z" fill="#A6A6A6"/>
<path d="M10.2849 8.76622C10.3719 8.85328 10.4898 8.90256 10.6129 8.9034C10.674 8.9035 10.7346 8.89154 10.7911 8.8682C10.8475 8.84486 10.8989 8.8106 10.9421 8.76738C10.9853 8.72416 11.0196 8.67284 11.0429 8.61635C11.0662 8.55986 11.0782 8.49932 11.0781 8.4382V5.709C11.0773 5.58588 11.028 5.46804 10.9409 5.38098C10.8539 5.29392 10.736 5.24464 10.6129 5.2438C10.4898 5.24464 10.3719 5.29392 10.2849 5.38098C10.1978 5.46804 10.1485 5.58588 10.1477 5.709V8.4382C10.1485 8.56132 10.1978 8.67916 10.2849 8.76622Z" fill="#A6A6A6"/>
<path fill-rule="evenodd" clip-rule="evenodd" d="M9.7945 2.27271C11.3963 2.27271 12.4658 2.98944 12.8406 4.30105C14.1399 4.68599 14.8495 5.75205 14.8495 7.33431V10.5287C14.8499 12.5631 13.6899 13.7231 11.6555 13.7231H6.2031C5.72544 13.7332 5.24998 13.6557 4.8003 13.4943C4.35412 13.3307 3.95996 13.0505 3.65886 12.6829C3.42273 12.3945 3.2506 12.0607 3.15238 11.7035C3.08314 11.6831 3.01484 11.6595 2.9477 11.6327C2.1217 11.3223 1.14771 10.5595 1.14771 8.6615V5.4671C1.14771 3.4387 2.3137 2.27271 4.3421 2.27271H9.7945ZM9.8025 3.21551C11.0454 3.21551 11.7612 3.70314 11.9885 4.71293C11.9899 4.73349 11.9926 4.75399 11.9967 4.77431C12.0409 5.00455 12.0617 5.23868 12.0587 5.47311V8.66871C12.0587 10.1947 11.3207 10.9327 9.7947 10.9327H4.3415C4.10814 10.9343 3.87527 10.9113 3.6467 10.8643C3.62345 10.8585 3.59987 10.8546 3.57617 10.8526C3.47374 10.8322 3.37291 10.8043 3.2745 10.7691C2.4745 10.4651 2.0837 9.78311 2.0837 8.6727V5.4795C2.0837 3.95351 2.8217 3.21551 4.3477 3.21551H9.8025ZM4.23092 11.8623H4.28033C4.30068 11.8625 4.32104 11.8625 4.3414 11.8623H9.8007C11.8291 11.8623 12.9951 10.6963 12.9951 8.66791V5.36191C13.6215 5.70311 13.9255 6.35431 13.9255 7.33431V10.5287C13.9255 12.0547 13.1875 12.7927 11.6615 12.7927H6.2095C5.84465 12.8011 5.48122 12.7443 5.1363 12.6251C4.74948 12.4934 4.42632 12.2212 4.23092 11.8623Z" fill="#A6A6A6"/>
</svg>
