<svg width="16" height="17" viewBox="0 0 16 17" fill="none" xmlns="http://www.w3.org/2000/svg">
<g clip-path="url(#clip0_4421_46336)">
<path d="M8.99855 13.7155C8.33409 13.4257 7.70361 13.0635 7.11848 12.6355C6.49671 12.1776 5.9085 11.6757 5.35838 11.1338C4.81497 10.5845 4.31239 9.99625 3.85469 9.37373C3.43345 8.79265 3.07567 8.16812 2.78745 7.51083C2.53017 6.92092 2.3914 6.28618 2.37903 5.64273C2.37851 5.24709 2.45205 4.85486 2.59584 4.48627C2.74977 4.09958 2.98907 3.75267 3.29587 3.47143C3.47069 3.28647 3.6808 3.13841 3.91378 3.03597C4.14675 2.93353 4.39787 2.8788 4.65234 2.875C4.85617 2.87528 5.0575 2.91991 5.24236 3.0058C5.44604 3.09762 5.62004 3.24447 5.74478 3.42983L6.95968 5.14071C7.06077 5.27835 7.14507 5.42754 7.21086 5.58513C7.27645 5.73191 7.3117 5.89042 7.31448 6.05116C7.3119 6.25453 7.2544 6.45341 7.14807 6.62679C7.05065 6.78969 6.93245 6.93922 6.79644 7.07161L6.44164 7.44282C6.44538 7.45565 6.45059 7.46801 6.45721 7.47962C6.58207 7.68555 6.72504 7.87993 6.88443 8.06045C7.14164 8.35327 7.38365 8.62048 7.62207 8.8661C7.93288 9.16971 8.18733 9.41052 8.42894 9.60933C8.61455 9.77563 8.81777 9.92117 9.03498 10.0434L9.04694 10.0486L9.06257 10.033L9.40858 9.69254C9.54603 9.54899 9.70485 9.42754 9.87941 9.33251C10.0317 9.24081 10.2043 9.18793 10.3818 9.17851C10.5597 9.16842 10.7374 9.20135 10.8999 9.27451C11.0547 9.34108 11.2021 9.42352 11.3399 9.52052L13.076 10.7554C13.2609 10.8764 13.4062 11.0492 13.4936 11.2522C13.568 11.4315 13.6073 11.6234 13.6096 11.8174C13.6082 12.0725 13.5514 12.3242 13.4432 12.5551C13.3366 12.7851 13.1946 12.9971 13.0223 13.1831C12.7489 13.4963 12.4066 13.7418 12.0223 13.9003C11.6496 14.0338 11.2557 14.0986 10.8599 14.0916C10.8139 14.0916 10.7607 14.0916 10.7106 14.0916C10.5889 14.0904 10.4673 14.0817 10.3466 14.0655C9.8846 14.0046 9.43185 13.8871 8.99855 13.7155ZM4.65034 3.66343C4.49643 3.66845 4.34511 3.7044 4.20539 3.76914C4.06567 3.83388 3.94044 3.92608 3.83711 4.04026C3.61349 4.24472 3.43862 4.4968 3.32546 4.77789C3.21507 5.05413 3.15965 5.34926 3.16227 5.64673C3.17411 6.18439 3.29154 6.71446 3.5079 7.20681C3.77106 7.81085 4.10171 8.38319 4.49354 8.9129C4.92366 9.50193 5.397 10.0582 5.90963 10.577C6.43059 11.0918 6.98877 11.5675 7.57968 12.0002C8.11266 12.3956 8.68994 12.7275 9.29979 12.9891C9.67105 13.18 10.0768 13.2946 10.4931 13.326C10.9094 13.3575 11.3277 13.3052 11.7235 13.1723C11.9993 13.0571 12.2444 12.879 12.4392 12.6523C12.5603 12.5222 12.6599 12.3737 12.7343 12.2123C12.7937 12.0861 12.8258 11.9488 12.8283 11.8094C12.8275 11.719 12.8072 11.6297 12.7688 11.5478C12.7369 11.4826 12.6867 11.4281 12.6243 11.391L10.8851 10.1558C10.7961 10.092 10.7003 10.0383 10.5995 9.99575C10.5487 9.96005 10.4876 9.94221 10.4256 9.94503C10.3636 9.94785 10.3043 9.97119 10.257 10.0114C10.1445 10.0731 10.0428 10.1526 9.95583 10.247L9.55581 10.6394C9.45555 10.7325 9.33168 10.7963 9.19768 10.824C9.06368 10.8516 8.92468 10.842 8.79576 10.7962L8.65454 10.7334C8.39037 10.5826 8.14214 10.4054 7.91368 10.2046C7.66247 9.99016 7.3893 9.73894 7.05968 9.41452C6.80207 9.15251 6.54804 8.87529 6.28123 8.56687C6.07777 8.34056 5.8989 8.0933 5.74761 7.82924L5.68481 7.67243C5.65769 7.58765 5.64288 7.49941 5.64082 7.41042C5.64019 7.32023 5.65731 7.23079 5.69121 7.14721C5.72544 7.06315 5.77678 6.98713 5.842 6.92399L6.2344 6.51598C6.3241 6.42791 6.40322 6.32964 6.47006 6.22317C6.50436 6.1699 6.52383 6.10845 6.52645 6.04515C6.52266 5.98756 6.5091 5.93102 6.48641 5.87795C6.43963 5.77992 6.38281 5.68702 6.31683 5.60073L5.10597 3.88505C5.05637 3.81479 4.98917 3.75879 4.91114 3.72264C4.8292 3.68518 4.74042 3.66502 4.65034 3.66343Z" fill="#A6A6A6"/>
</g>
<defs>
<clipPath id="clip0_4421_46336">
<rect width="16" height="16" fill="white" transform="translate(0 0.5)"/>
</clipPath>
</defs>
</svg>
