<svg width="32" height="32" viewBox="0 0 32 32" fill="none" xmlns="http://www.w3.org/2000/svg">
<g clip-path="url(#clip0_1375_123209)">
<path d="M1.66016 10.2505C1.66042 10.1988 1.66596 10.1473 1.67422 10.0963V8.66363C1.67654 6.80841 2.41376 5.02967 3.72552 3.71776C5.03729 2.40585 6.81656 1.66782 8.67178 1.66528H10.2888C10.5504 1.67195 10.7995 1.78043 10.9824 1.96759C11.1654 2.15475 11.2691 2.40576 11.2699 2.6675C11.27 2.79985 11.244 2.93111 11.1933 3.05339C11.1427 3.17567 11.0682 3.28676 10.9746 3.3803C10.881 3.47385 10.7689 3.54772 10.6465 3.59824C10.5242 3.64877 10.393 3.67501 10.2606 3.6748C10.2095 3.67473 10.1596 3.67061 10.1091 3.66269H8.66865C7.34306 3.66375 6.07206 4.1908 5.13472 5.12813C4.19739 6.06547 3.67034 7.33647 3.66928 8.66206V10.3544L3.66303 10.3634C3.63478 10.608 3.51714 10.8335 3.33338 10.9973C3.14962 11.1612 2.91248 11.2518 2.66628 11.252C2.40037 11.2518 2.1454 11.1463 1.95699 10.9587C1.76859 10.771 1.66142 10.5164 1.66016 10.2505Z" fill="white"/>
<path fill-rule="evenodd" clip-rule="evenodd" d="M9.13422 16.9994H6.66734C6.40274 16.9975 6.14951 16.8915 5.96241 16.7044C5.7753 16.5173 5.66935 16.2641 5.66747 15.9995C5.66935 15.7349 5.7753 15.4817 5.96241 15.2946C6.14951 15.1075 6.40274 15.0015 6.66734 14.9996H9.13422V12.6663C9.13422 9.4403 10.9076 7.66693 14.1336 7.66693H17.8667C21.0935 7.66693 22.8661 9.4403 22.8661 12.6663V14.9996H25.333C25.5976 15.0015 25.8508 15.1075 26.0379 15.2946C26.225 15.4817 26.331 15.7349 26.3329 15.9995C26.331 16.2641 26.225 16.5173 26.0379 16.7044C25.8508 16.8915 25.5976 16.9975 25.333 16.9994H22.8661V19.3327C22.8669 22.5595 21.0935 24.332 17.8667 24.332H14.1336C10.9068 24.332 9.13422 22.5587 9.13422 19.3327V16.9994ZM11.134 16.9994V19.3327C11.134 21.4388 12.0275 22.3323 14.1336 22.3323H17.8667C19.9729 22.3323 20.8664 21.4388 20.8664 19.3327V16.9994H11.134ZM20.8664 14.9996V12.6663C20.8664 10.5602 19.9729 9.66668 17.8667 9.66668H14.1336C12.0275 9.66668 11.134 10.5602 11.134 12.6663V14.9996H20.8664Z" fill="white"/>
<path d="M1.66016 21.7466C1.66042 21.7983 1.66596 21.8503 1.67422 21.9013V23.3339C1.67654 25.1892 2.41376 26.9675 3.72552 28.2794C5.03729 29.5913 6.81656 30.3297 8.67178 30.3323H10.2888C10.5504 30.3256 10.7995 30.2171 10.9824 30.03C11.1654 29.8428 11.2691 29.5914 11.2699 29.3297C11.27 29.1973 11.244 29.0665 11.1933 28.9442C11.1427 28.8219 11.0682 28.7108 10.9746 28.6173C10.881 28.5237 10.7689 28.4495 10.6465 28.3989C10.5242 28.3484 10.393 28.3226 10.2606 28.3228C10.2095 28.3228 10.1596 28.327 10.1091 28.3349H8.66865C7.34306 28.3338 6.07206 27.8068 5.13472 26.8694C4.19739 25.9321 3.67034 24.6611 3.66928 23.3355V21.6427L3.66595 21.6382L3.66303 21.6341C3.63478 21.3896 3.51714 21.1637 3.33338 20.9999C3.14962 20.836 2.91248 20.7453 2.66628 20.7452C2.40037 20.7454 2.1454 20.8509 1.95699 21.0385C1.76859 21.2262 1.66142 21.4807 1.66016 21.7466Z" fill="white"/>
<path d="M30.3223 10.0963C30.3305 10.1473 30.3345 10.1988 30.3348 10.2505C30.3335 10.5164 30.2264 10.771 30.038 10.9587C29.8496 11.1463 29.5946 11.2518 29.3287 11.252C29.0825 11.2518 28.8453 11.1612 28.6616 10.9973C28.4778 10.8335 28.3602 10.608 28.3319 10.3634L28.3257 10.3544V8.66206C28.3246 7.33647 27.7976 6.06547 26.8602 5.12813C25.9229 4.1908 24.6519 3.66375 23.3263 3.66269H21.8874C21.8369 3.67061 21.7855 3.67473 21.7343 3.6748C21.602 3.67501 21.4707 3.64877 21.3484 3.59824C21.2261 3.54772 21.1155 3.47385 21.0219 3.3803C20.9283 3.28676 20.8538 3.17567 20.8032 3.05339C20.7526 2.93111 20.7265 2.79985 20.7266 2.6675C20.7274 2.40576 20.8295 2.15475 21.0125 1.96759C21.1955 1.78043 21.4445 1.67195 21.7062 1.66528H23.3247C25.18 1.66782 26.9577 2.40585 28.2694 3.71776C29.5812 5.02967 30.32 6.80841 30.3223 8.66363V10.0963Z" fill="white"/>
<path d="M30.3348 21.7466C30.3345 21.7983 30.3305 21.8503 30.3223 21.9013V23.3339C30.32 25.1892 29.5812 26.9675 28.2694 28.2794C26.9577 29.5913 25.18 30.3297 23.3247 30.3323H21.7062C21.4445 30.3256 21.1955 30.2171 21.0125 30.03C20.8295 29.8428 20.7274 29.5914 20.7266 29.3297C20.7265 29.1973 20.7526 29.0665 20.8032 28.9442C20.8538 28.8219 20.9283 28.7108 21.0219 28.6173C21.1155 28.5237 21.2261 28.4495 21.3484 28.3989C21.4707 28.3484 21.602 28.3226 21.7343 28.3228C21.7855 28.3228 21.8369 28.327 21.8874 28.3349H23.3263C24.6519 28.3338 25.9229 27.8068 26.8602 26.8694C27.7976 25.9321 28.3246 24.6611 28.3257 23.3355V21.6427C28.3257 21.6427 28.3269 21.6411 28.3283 21.6392C28.3296 21.6374 28.3319 21.6341 28.3319 21.6341C28.3602 21.3896 28.4778 21.1637 28.6616 20.9999C28.8453 20.836 29.0825 20.7453 29.3287 20.7452C29.5946 20.7454 29.8496 20.8509 30.038 21.0385C30.2264 21.2262 30.3335 21.4807 30.3348 21.7466Z" fill="white"/>
</g>
<defs>
<clipPath id="clip0_1375_123209">
<rect width="32" height="32" fill="white"/>
</clipPath>
</defs>
</svg>
