<svg width="24" height="24" viewBox="0 0 24 24" fill="none" xmlns="http://www.w3.org/2000/svg">
<path fill-rule="evenodd" clip-rule="evenodd" d="M17.8362 19.5583C16.248 20.6194 14.3808 21.1857 12.4708 21.1856C9.9109 21.1819 7.45688 20.1634 5.64674 18.3533C3.83661 16.5431 2.81807 14.0891 2.81442 11.5292C2.8143 9.61916 3.38058 7.752 4.44166 6.16382C5.50274 4.57564 7.01095 3.33779 8.77556 2.6068C10.5402 1.87581 12.4819 1.68452 14.3553 2.05711C16.2286 2.42971 17.9494 3.34946 19.2999 4.70006C20.6505 6.05065 21.5703 7.77142 21.9429 9.64475C22.3155 11.5181 22.1242 13.4598 21.3932 15.2244C20.6622 16.989 19.4244 18.4973 17.8362 19.5583ZM17.0505 4.67441C15.6949 3.76864 14.1012 3.28519 12.4708 3.28519C10.2852 3.28757 8.18971 4.15691 6.64427 5.70247C5.09883 7.24802 4.22964 9.34353 4.22742 11.5292C4.22753 13.1596 4.7111 14.7533 5.61697 16.1088C6.52284 17.4644 7.81032 18.5208 9.31662 19.1447C10.8229 19.7685 12.4804 19.9317 14.0794 19.6135C15.6784 19.2954 17.1472 18.5102 18.3 17.3573C19.4528 16.2045 20.2378 14.7356 20.5559 13.1366C20.8739 11.5375 20.7106 9.88008 20.0867 8.37383C19.4627 6.86759 18.4061 5.58018 17.0505 4.67441Z" fill="white"/>
<path d="M2.84896 22.0749C2.76325 22.1105 2.67133 22.1286 2.57855 22.1283C2.48572 22.1285 2.39377 22.1103 2.30806 22.0747C2.22235 22.039 2.1446 21.9867 2.07935 21.9207C1.94817 21.7876 1.87463 21.6083 1.87463 21.4215C1.87463 21.2346 1.94817 21.0553 2.07935 20.9223L3.96335 19.0383C4.09685 18.9113 4.27466 18.8416 4.45886 18.8439C4.64306 18.8462 4.81906 18.9204 4.94931 19.0507C5.07957 19.1809 5.15377 19.3569 5.1561 19.5411C5.15842 19.7253 5.08868 19.9032 4.96175 20.0367L3.07775 21.9213C3.01244 21.9872 2.93467 22.0394 2.84896 22.0749Z" fill="white"/>
</svg>
