<svg width="16" height="17" viewBox="0 0 16 17" fill="none" xmlns="http://www.w3.org/2000/svg">
<g clip-path="url(#clip0_971_32110)">
<path d="M6.58785 10.4448C6.64648 10.4691 6.70938 10.4816 6.77288 10.4815C6.83645 10.4817 6.89942 10.4692 6.95813 10.4448C7.01684 10.4205 7.07012 10.3847 7.11489 10.3395L10.9658 6.47143C11.0557 6.38038 11.1061 6.25758 11.1061 6.12962C11.1061 6.00166 11.0557 5.87885 10.9658 5.78781C10.8747 5.69789 10.7519 5.64747 10.624 5.64747C10.496 5.64747 10.3732 5.69789 10.2822 5.78781L6.77328 9.3143L5.74045 8.27707C5.64941 8.18715 5.52661 8.13673 5.39865 8.13673C5.27068 8.13673 5.14788 8.18715 5.05684 8.27707C4.96692 8.36811 4.91649 8.49092 4.91649 8.61888C4.91649 8.74684 4.96692 8.86965 5.05684 8.96069L6.43127 10.3395C6.47599 10.3846 6.52921 10.4204 6.58785 10.4448Z" fill="#A6A6A6"/>
<path fill-rule="evenodd" clip-rule="evenodd" d="M6.05855 14.8216C6.62612 15.2278 7.30835 15.4424 8.0062 15.4345C8.70134 15.4453 9.38085 15.2279 9.94065 14.8156L13.2919 12.7456C13.6797 12.4266 13.9965 12.0301 14.2219 11.5814C14.4473 11.1327 14.5763 10.6418 14.6008 10.1403V5.34901C14.5811 4.83199 14.414 4.33138 14.1193 3.90616C13.8245 3.48093 13.4144 3.14882 12.9371 2.94895L9.14103 1.74292C8.39878 1.50431 7.60042 1.50431 6.85817 1.74292L3.06208 2.94895C2.58485 3.14882 2.1747 3.48093 1.87995 3.90616C1.5852 4.33138 1.41813 4.83199 1.39844 5.34901V10.1467C1.42371 10.648 1.55315 11.1385 1.7785 11.587C2.00384 12.0355 2.32015 12.4321 2.70727 12.7516L6.05855 14.8216ZM3.40249 3.85937L7.19858 2.65334C7.72621 2.49244 8.28943 2.48966 8.81862 2.64534L12.6147 3.85297C12.905 3.987 13.1539 4.19657 13.3353 4.45976C13.5168 4.72295 13.6242 5.03008 13.6463 5.34901V10.1467C13.6225 10.4975 13.5291 10.84 13.3717 11.1544C13.2143 11.4687 12.996 11.7487 12.7295 11.978L9.37824 14.048C8.9727 14.3192 8.49583 14.4639 8.008 14.4639C7.52017 14.4639 7.0433 14.3192 6.63777 14.048L3.28648 11.978C3.02072 11.7481 2.80302 11.468 2.64588 11.1537C2.48874 10.8395 2.39528 10.4972 2.37086 10.1467V5.35541C2.39119 5.03599 2.4979 4.72809 2.67959 4.46459C2.86129 4.2011 3.11115 3.99191 3.40249 3.85937Z" fill="#A6A6A6"/>
</g>
<defs>
<clipPath id="clip0_971_32110">
<rect width="16" height="16" fill="white" transform="translate(0 0.5)"/>
</clipPath>
</defs>
</svg>
