<svg width="22" height="20" viewBox="0 0 22 20" fill="none" xmlns="http://www.w3.org/2000/svg">
<path fill-rule="evenodd" clip-rule="evenodd" d="M9.00762 12.9811C9.59719 13.3751 10.2903 13.5853 10.9994 13.5853C11.9501 13.585 12.8618 13.2072 13.5341 12.5349C14.2063 11.8627 14.5842 10.951 14.5845 10.0002C14.5845 9.29117 14.3742 8.59803 13.9803 8.00847C13.5864 7.4189 13.0264 6.95939 12.3713 6.68804C11.7163 6.4167 10.9954 6.3457 10.3 6.48403C9.60454 6.62236 8.96574 6.96381 8.46435 7.46519C7.96297 7.96658 7.62152 8.60538 7.48319 9.30082C7.34486 9.99626 7.41586 10.7171 7.6872 11.3722C7.95855 12.0273 8.41806 12.5872 9.00762 12.9811ZM9.80433 8.2117C10.1581 7.97534 10.574 7.84918 10.9994 7.84918C11.5696 7.84997 12.1163 8.07686 12.5195 8.48009C12.9228 8.88332 13.1497 9.42998 13.1504 10.0002C13.1504 10.4257 13.0243 10.8416 12.7879 11.1953C12.5516 11.549 12.2156 11.8247 11.8226 11.9875C11.4295 12.1504 10.997 12.193 10.5797 12.11C10.1625 12.027 9.7792 11.8221 9.47837 11.5213C9.17754 11.2204 8.97267 10.8371 8.88967 10.4199C8.80667 10.0026 8.84927 9.57012 9.01208 9.17706C9.17489 8.78401 9.45059 8.44806 9.80433 8.2117Z" fill="white"/>
<path fill-rule="evenodd" clip-rule="evenodd" d="M13.4688 19.6659C13.6651 19.7146 13.8665 19.7402 14.0688 19.7421C14.4746 19.7389 14.8728 19.6319 15.2256 19.4313L16.8793 18.4851C17.1708 18.3222 17.4262 18.1018 17.63 17.8372C17.8338 17.5727 17.9817 17.2695 18.0649 16.9461C18.1531 16.6256 18.1766 16.2907 18.134 15.961C18.0913 15.6313 17.9834 15.3135 17.8165 15.026C17.6846 14.8581 17.5978 14.6593 17.5643 14.4484C17.5308 14.2376 17.5517 14.0217 17.6251 13.8212C17.7631 13.6582 17.9397 13.5326 18.1389 13.4557C18.3381 13.3789 18.5535 13.3533 18.7651 13.3814C19.4366 13.3801 20.0802 13.1128 20.555 12.638C21.0298 12.1632 21.2971 11.5196 21.2984 10.8481V9.16806C21.2971 8.49658 21.0298 7.85298 20.555 7.37817C20.0802 6.90337 19.4366 6.63606 18.7651 6.63479C18.5535 6.66285 18.3381 6.63728 18.1389 6.56043C17.9397 6.48358 17.7631 6.35792 17.6251 6.19498C17.5541 5.9941 17.5345 5.77868 17.5679 5.56828C17.6013 5.35788 17.6868 5.15916 17.8165 4.99015C18.1509 4.40695 18.2402 3.7148 18.0645 3.06584C17.8889 2.41688 17.4628 1.8642 16.8799 1.52927L15.2352 0.583044C14.9729 0.429232 14.6828 0.328766 14.3815 0.287415C14.0803 0.246064 13.7738 0.264644 13.4798 0.342088C13.1857 0.419532 12.9099 0.554314 12.6681 0.738689C12.4263 0.923065 12.2233 1.1534 12.0707 1.41646L11.9657 1.59647C11.4017 2.57149 10.6271 2.57149 10.0631 1.59647L9.94849 1.40506C9.63872 0.878249 9.13329 0.495219 8.54234 0.339446C7.95138 0.183672 7.32281 0.267781 6.79361 0.573443L5.13937 1.52027C4.84778 1.68344 4.59238 1.90416 4.38867 2.16903C4.18497 2.4339 4.0372 2.7374 3.95434 3.06111C3.78092 3.70885 3.87019 4.39887 4.20274 4.98115C4.33538 5.14912 4.42278 5.34827 4.4566 5.5596C4.49042 5.77094 4.46954 5.98741 4.39595 6.18838C4.25798 6.35132 4.08128 6.47698 3.88208 6.55383C3.68288 6.63068 3.46757 6.65625 3.25592 6.62819C2.58445 6.62946 1.94084 6.89677 1.46603 7.37157C0.991229 7.84638 0.723925 8.48998 0.722656 9.16146V10.8415C0.723606 11.5129 0.990523 12.1565 1.46497 12.6315C1.93942 13.1065 2.58275 13.3742 3.25412 13.376C3.46577 13.3479 3.68109 13.3735 3.88028 13.4503C4.07948 13.5272 4.25617 13.6528 4.39415 13.8158C4.46509 14.0167 4.48474 14.2321 4.45132 14.4425C4.41789 14.6529 4.33245 14.8516 4.20274 15.0206C3.86866 15.6037 3.77965 16.2956 3.95526 16.9442C4.13087 17.5929 4.55675 18.1454 5.13937 18.4803L6.78581 19.4241C7.04592 19.5807 7.33517 19.6827 7.63596 19.724C7.93674 19.7653 8.24278 19.7449 8.53545 19.6641C8.82889 19.5875 9.1042 19.4533 9.34542 19.2695C9.58664 19.0856 9.78897 18.8557 9.94069 18.5931L10.0457 18.4131C10.6097 17.4381 11.3843 17.4381 11.9483 18.4131L12.0629 18.6045C12.376 19.1273 12.8802 19.508 13.4688 19.6659ZM12.2965 16.6446C11.9115 16.384 11.4637 16.2312 10.9997 16.202V16.2044C10.5365 16.2361 10.09 16.3902 9.70572 16.6509C9.32149 16.9116 9.01331 17.2695 8.81266 17.6883L8.70766 17.8683C8.58652 18.071 8.39105 18.2185 8.16284 18.2793C8.05211 18.309 7.93649 18.3158 7.82303 18.2994C7.70957 18.283 7.60062 18.2437 7.50283 18.1839L5.84918 17.2371C5.59995 17.0882 5.41836 16.8483 5.34277 16.568C5.26626 16.2895 5.30315 15.992 5.44537 15.7406C5.70829 15.357 5.86457 14.9104 5.8982 14.4465C5.93183 13.9826 5.84161 13.5181 5.63678 13.1006C5.37971 12.712 5.02338 12.3993 4.60475 12.1948C4.18612 11.9904 3.72041 11.9016 3.25592 11.9377C2.96444 11.9376 2.68493 11.8217 2.47882 11.6156C2.27271 11.4095 2.15685 11.13 2.15669 10.8385V9.15846C2.15606 9.01398 2.18406 8.87082 2.23909 8.73723C2.29412 8.60365 2.37509 8.4823 2.4773 8.38019C2.57952 8.27809 2.70096 8.19726 2.8346 8.14237C2.96825 8.08749 3.11145 8.05964 3.25592 8.06043C3.72024 8.09764 4.18605 8.01 4.6051 7.8066C5.02415 7.60319 5.38117 7.29143 5.63918 6.9036C5.84401 6.48604 5.93423 6.02155 5.9006 5.55768C5.86697 5.0938 5.71069 4.64718 5.44777 4.26354C5.37639 4.13865 5.33037 4.00091 5.31235 3.85819C5.29433 3.71548 5.30467 3.57062 5.34277 3.43191C5.41887 3.14981 5.60352 2.90929 5.85638 2.7629L7.51003 1.80527C7.70857 1.69179 7.94357 1.66027 8.165 1.71742C8.38644 1.77457 8.57683 1.91588 8.69566 2.11128L8.80066 2.30269C9.00012 2.72264 9.30836 3.08155 9.69337 3.34216C10.0784 3.60276 10.5261 3.75558 10.9901 3.78472C11.4541 3.75558 11.9019 3.60276 12.2869 3.34216C12.6719 3.08155 12.9801 2.72264 13.1796 2.30269L13.2846 2.12268C13.3429 2.02274 13.4203 1.93529 13.5124 1.86532C13.6046 1.79535 13.7096 1.74424 13.8215 1.71492C13.9334 1.6856 14.05 1.67865 14.1646 1.69447C14.2792 1.71028 14.3896 1.74855 14.4894 1.80707L16.143 2.7533C16.3917 2.90142 16.5732 3.14015 16.6495 3.41931C16.6876 3.55802 16.6979 3.70288 16.6799 3.84559C16.6619 3.9883 16.6158 4.12605 16.5445 4.25094C16.2815 4.63458 16.1253 5.0812 16.0916 5.54508C16.058 6.00896 16.1482 6.47344 16.353 6.891C16.6108 7.27836 16.9673 7.58983 17.3858 7.79321C17.8043 7.99659 18.2695 8.08449 18.7333 8.04783C19.0248 8.04799 19.3043 8.16385 19.5104 8.36996C19.7165 8.57607 19.8324 8.85557 19.8325 9.14706V10.8271C19.8333 10.9717 19.8054 11.115 19.7505 11.2487C19.6955 11.3824 19.6146 11.5039 19.5124 11.6061C19.4101 11.7084 19.2886 11.7893 19.1549 11.8443C19.0212 11.8992 18.8779 11.9271 18.7333 11.9263C18.2695 11.8897 17.8043 11.9776 17.3858 12.1809C16.9673 12.3843 16.6108 12.6958 16.353 13.0832C16.1482 13.5007 16.058 13.9652 16.0916 14.4291C16.1253 14.893 16.2815 15.3396 16.5445 15.7232C16.6158 15.8481 16.6619 15.9859 16.6799 16.1286C16.6979 16.2713 16.6876 16.4161 16.6495 16.5548C16.5728 16.8374 16.3872 17.0779 16.1334 17.2239L14.4798 18.1797C14.2802 18.2926 14.0442 18.3229 13.8226 18.2639C13.6009 18.2049 13.4112 18.0613 13.2942 17.8641L13.1892 17.6841C12.9897 17.2641 12.6815 16.9052 12.2965 16.6446Z" fill="white"/>
</svg>
