<svg width="24" height="24" viewBox="0 0 24 24" fill="none" xmlns="http://www.w3.org/2000/svg">
<path d="M7.78155 21.4265L6.1403 20.4796C5.8506 20.3141 5.59642 20.0928 5.39262 19.8286C5.18882 19.5645 5.03914 19.2625 4.95257 18.9403C4.77799 18.2925 4.86778 17.6024 5.20219 17.0207C5.3313 16.8512 5.41646 16.6518 5.44946 16.4412C5.48245 16.2307 5.4625 16.0152 5.39145 15.8142C5.25367 15.6521 5.07725 15.5275 4.87874 15.451C4.68023 15.3744 4.46564 15.3488 4.2547 15.3765C3.58296 15.3751 2.93961 15.1074 2.46462 14.6324C1.98962 14.1574 1.72189 13.514 1.72046 12.8423V11.1583C1.72189 10.4868 1.98954 9.84329 2.46462 9.36877C2.9397 8.89426 3.58323 8.62759 4.2547 8.62696C4.46593 8.65491 4.68069 8.62904 4.87933 8.55196C5.07796 8.47487 5.25437 8.34886 5.39145 8.18574C5.46502 7.98562 5.48605 7.76999 5.45297 7.55935C5.4199 7.34872 5.33356 7.15013 5.20219 6.98219C4.8683 6.39929 4.77856 5.70792 4.95257 5.0591C5.03601 4.73562 5.1844 4.43232 5.38852 4.16786C5.59263 3.90341 5.84851 3.68363 6.1403 3.52097L7.79444 2.57349C8.32346 2.26847 8.95132 2.18441 9.54175 2.34028C10.1322 2.49615 10.6373 2.87915 10.9469 3.40554L11.0623 3.59773C11.6251 4.57336 12.4021 4.57336 12.9655 3.59773L13.0709 3.41784C13.2234 3.155 13.4263 2.92467 13.668 2.74048C13.9097 2.55629 14.1857 2.42171 14.4796 2.34438C14.7734 2.26705 15.0797 2.24851 15.3808 2.28989C15.6818 2.33126 15.9712 2.43147 16.2333 2.58521L17.8781 3.53211C18.1675 3.69788 18.4215 3.91899 18.6252 4.1831C18.8288 4.44721 18.9785 4.74937 19.0652 5.0714C19.2397 5.71915 19.1501 6.40974 18.8162 6.99157C18.6866 7.16039 18.6012 7.35854 18.5678 7.56873C18.5343 7.77892 18.5538 7.99442 18.6246 8.19511C18.7627 8.35783 18.9393 8.48294 19.1385 8.55957C19.3377 8.63621 19.5533 8.6616 19.7649 8.6334C20.4366 8.63483 21.0805 8.90257 21.5555 9.37756C22.0305 9.85256 22.2977 10.4965 22.2991 11.1682V12.8482C22.2977 13.5199 22.0305 14.1638 21.5555 14.6388C21.0805 15.1138 20.4366 15.381 19.7649 15.3824C19.5533 15.3542 19.3377 15.3796 19.1385 15.4562C18.9393 15.5329 18.7627 15.6586 18.6246 15.8213C18.5517 16.022 18.5308 16.2379 18.5642 16.4488C18.5977 16.6598 18.6847 16.8588 18.8162 17.0272C18.9838 17.3144 19.0922 17.632 19.135 17.9618C19.1777 18.2915 19.154 18.6269 19.0652 18.9473C18.9823 19.271 18.8339 19.5746 18.6299 19.8392C18.4258 20.1038 18.1701 20.3236 17.8781 20.486L16.2263 21.4329C15.8727 21.6323 15.4743 21.7379 15.0684 21.74C14.8661 21.738 14.6647 21.7123 14.4684 21.6632C13.8796 21.5053 13.3757 21.1244 13.0633 20.6009L12.9485 20.4093C12.3827 19.4361 11.6111 19.4361 11.0447 20.4093L10.9392 20.5892C10.7877 20.852 10.5852 21.0826 10.3439 21.2665C10.1027 21.4505 9.8271 21.5843 9.53354 21.6609C9.33781 21.7131 9.13612 21.7397 8.93353 21.74C8.52802 21.7429 8.12955 21.6347 7.78155 21.4265V21.4265ZM9.8482 11.9997C9.84868 12.57 10.0754 13.1165 10.4787 13.5197C10.882 13.9229 11.4289 14.1498 11.9992 14.1501C12.5695 14.1498 13.1166 13.9229 13.5198 13.5197C13.923 13.1164 14.1494 12.5699 14.1497 11.9997C14.149 11.4295 13.9223 10.883 13.5192 10.4797C13.1161 10.0765 12.5694 9.84946 11.9992 9.84867C11.4291 9.8493 10.8825 10.0762 10.4793 10.4792C10.076 10.8822 9.84915 11.4284 9.8482 11.9985V11.9997Z" fill="#FFC107"/>
</svg>
