<svg width="16" height="17" viewBox="0 0 16 17" fill="none" xmlns="http://www.w3.org/2000/svg">
<g clip-path="url(#clip0_4421_46332)">
<path d="M4.83043 14.3509H11.1535C13.4634 14.3509 14.7934 13.0225 14.7934 10.7142V6.2871C14.7934 3.97836 13.4634 2.65039 11.1535 2.65039H4.83043C2.52169 2.65039 1.19373 3.97836 1.19373 6.2871C1.19518 6.41246 1.24563 6.53228 1.33428 6.62094C1.42293 6.70959 1.54275 6.76003 1.66811 6.76149C1.79348 6.76003 1.9133 6.70959 2.00195 6.62094C2.0906 6.53228 2.14105 6.41246 2.1425 6.2871C2.1425 4.47915 3.02168 3.59917 4.83043 3.59917H11.1535C12.9614 3.59917 13.8414 4.47835 13.8414 6.2871V10.7142C13.8414 12.5221 12.9622 13.4021 11.1535 13.4021H4.83043C4.70462 13.4021 4.58396 13.4521 4.49499 13.5411C4.40603 13.63 4.35605 13.7507 4.35605 13.8765C4.35605 14.0023 4.40603 14.123 4.49499 14.212C4.58396 14.3009 4.70462 14.3509 4.83043 14.3509Z" fill="#A6A6A6"/>
<path d="M6.514 8.55103C6.93597 8.88135 7.45812 9.05762 7.99396 9.05062C8.52747 9.05831 9.04732 8.88187 9.46592 8.55103L11.4455 6.96987C11.4947 6.93174 11.5358 6.88414 11.5664 6.82987C11.5969 6.7756 11.6163 6.71577 11.6234 6.6539C11.6305 6.59202 11.6251 6.52936 11.6076 6.46959C11.5901 6.40982 11.5608 6.35416 11.5215 6.30589C11.4833 6.25665 11.4357 6.21554 11.3815 6.18498C11.3272 6.15442 11.2674 6.13502 11.2055 6.12794C11.1436 6.12086 11.081 6.12623 11.0212 6.14374C10.9614 6.16125 10.9058 6.19054 10.8575 6.22989L8.87794 7.81105C8.61982 7.99908 8.3087 8.10038 7.98936 8.10038C7.67002 8.10038 7.3589 7.99908 7.10078 7.81105L5.12083 6.22989C5.02233 6.15636 4.89906 6.12409 4.77717 6.13991C4.65527 6.15573 4.54433 6.2184 4.46786 6.31463C4.39139 6.41087 4.35541 6.53311 4.36754 6.65543C4.37967 6.77774 4.43896 6.89053 4.53285 6.96987L6.514 8.55103Z" fill="#A6A6A6"/>
<path d="M5.46282 11.821H1.66811C1.54275 11.8195 1.42293 11.7691 1.33428 11.6804C1.24563 11.5918 1.19518 11.472 1.19373 11.3466C1.19518 11.2212 1.24563 11.1014 1.33428 11.0128C1.42293 10.9241 1.54275 10.8737 1.66811 10.8722H5.46282C5.58818 10.8737 5.708 10.9241 5.79665 11.0128C5.88531 11.1014 5.93575 11.2212 5.93721 11.3466C5.93575 11.472 5.88531 11.5918 5.79665 11.6804C5.708 11.7691 5.58818 11.8195 5.46282 11.821Z" fill="#A6A6A6"/>
<path d="M1.66811 9.29102H3.56527C3.69063 9.28956 3.81045 9.23912 3.8991 9.15046C3.98775 9.06181 4.0382 8.94199 4.03965 8.81663C4.0382 8.69126 3.98775 8.57145 3.8991 8.48279C3.81045 8.39414 3.69063 8.3437 3.56527 8.34224H1.66811C1.54275 8.3437 1.42293 8.39414 1.33428 8.48279C1.24563 8.57145 1.19518 8.69126 1.19373 8.81663C1.19518 8.94199 1.24563 9.06181 1.33428 9.15046C1.42293 9.23912 1.54275 9.28956 1.66811 9.29102Z" fill="#A6A6A6"/>
</g>
<defs>
<clipPath id="clip0_4421_46332">
<rect width="16" height="16" fill="white" transform="translate(0 0.5)"/>
</clipPath>
</defs>
</svg>
