<svg width="32" height="32" viewBox="0 0 32 32" fill="none" xmlns="http://www.w3.org/2000/svg">
<g clip-path="url(#clip0_1375_123210)">
<path fill-rule="evenodd" clip-rule="evenodd" d="M15.9755 3.28012C20.1389 3.2872 23.1871 4.67996 25.203 6.90163C27.0795 8.96974 28.1305 11.833 28.2806 15.1658H25.9632C22.3655 15.1658 19.4481 18.0779 19.4403 21.6738C19.4402 21.6788 19.4402 21.6838 19.4402 21.6888C19.4402 24.0019 20.6442 26.0339 22.4597 27.192C21.4791 27.4568 20.4157 27.6996 19.2109 27.9668L19.1379 27.5995C19.0518 27.1662 18.6306 26.8847 18.1973 26.9709L15.8434 27.4388C15.41 27.5249 15.1285 27.9461 15.2147 28.3794L15.5267 29.9487C15.6128 30.3821 16.0339 30.6635 16.4673 30.5774L18.8212 30.1094C19.1208 30.0499 19.3478 29.8302 19.4309 29.5571C21.5096 29.0977 23.2404 28.699 24.8784 28.122C25.2312 28.181 25.5936 28.2117 25.9631 28.2117C25.9741 28.2117 25.985 28.2115 25.9958 28.2111H28.3065C28.3173 28.2115 28.3283 28.2117 28.3392 28.2117C29.245 28.2117 29.9792 27.4775 29.9792 26.5717C29.9792 26.5715 29.9792 26.5719 29.9792 26.5717L29.9793 16.0052C29.9793 12.0021 28.8237 8.39185 26.4471 5.77271C24.0593 3.14114 20.5201 1.6001 15.9436 1.6001C15.9436 1.6001 15.9437 1.6001 15.9436 1.6001C11.3671 1.6001 7.82775 3.14177 5.43994 5.77333C3.23096 8.20782 2.07674 11.4986 1.92497 15.1652H1.90781L1.90783 15.9368C1.90775 15.9598 1.90771 15.9828 1.90771 16.0058C1.90771 16.0106 1.90775 16.0153 1.90783 16.02L1.9081 26.7618C1.90802 26.7665 1.90798 26.7712 1.90798 26.7759C1.90798 27.5689 2.55081 28.2117 3.34378 28.2117C3.35473 28.2117 3.36564 28.2115 3.3765 28.2111H4.76059C4.77144 28.2115 4.78235 28.2117 4.79331 28.2117C9.02355 28.2117 12.4528 24.7824 12.4528 20.5522C12.4528 20.552 12.4528 20.5524 12.4528 20.5522C12.4528 17.5774 10.0414 15.1652 7.06661 15.1652H3.60648C3.75676 11.8329 4.80779 8.97011 6.68411 6.90225C8.70513 4.67492 11.7638 3.28072 15.9435 3.28072C15.9542 3.28072 15.9649 3.28052 15.9755 3.28012ZM10.7729 20.5393C10.7663 18.498 9.10948 16.8452 7.06661 16.8452H3.58785L3.58809 26.5311H4.79342C8.09578 26.531 10.7728 23.8546 10.7728 20.5522C10.7728 20.5479 10.7729 20.5436 10.7729 20.5393ZM25.9632 26.5317L28.2993 26.5311V16.8458H25.9631C25.953 16.8458 25.9429 16.8457 25.9329 16.8453C23.2722 16.8616 21.1203 19.0236 21.1203 21.6882C21.1203 21.688 21.1203 21.6884 21.1203 21.6882C21.1203 24.3629 23.2885 26.5317 25.9632 26.5317C25.9633 26.5317 25.9632 26.5317 25.9632 26.5317Z" fill="white"/>
</g>
<defs>
<clipPath id="clip0_1375_123210">
<rect width="32" height="32" fill="white"/>
</clipPath>
</defs>
</svg>
