<svg width="16" height="17" viewBox="0 0 16 17" fill="none" xmlns="http://www.w3.org/2000/svg">
<g clip-path="url(#clip0_4426_90061)">
<path d="M4.83056 14.3489H11.1536C13.4635 14.3489 14.7935 13.0206 14.7935 10.7122V6.28515C14.7935 3.9764 13.4635 2.64844 11.1536 2.64844H4.83056C2.52181 2.64844 1.19385 3.9764 1.19385 6.28515C1.1953 6.41051 1.24575 6.53033 1.3344 6.61898C1.42305 6.70763 1.54287 6.75808 1.66824 6.75953C1.7936 6.75808 1.91342 6.70763 2.00207 6.61898C2.09072 6.53033 2.14117 6.41051 2.14262 6.28515C2.14262 4.47719 3.0218 3.59721 4.83056 3.59721H11.1536C12.9616 3.59721 13.8415 4.47639 13.8415 6.28515V10.7122C13.8415 12.5202 12.9624 13.4002 11.1536 13.4002H4.83056C4.70474 13.4002 4.58408 13.4501 4.49511 13.5391C4.40615 13.6281 4.35617 13.7487 4.35617 13.8746C4.35617 14.0004 4.40615 14.121 4.49511 14.21C4.58408 14.299 4.70474 14.3489 4.83056 14.3489Z" fill="#A6A6A6"/>
<path d="M6.51412 8.54908C6.93609 8.8794 7.45824 9.05566 7.99408 9.04867C8.52759 9.05636 9.04744 8.87992 9.46605 8.54908L11.4456 6.96792C11.4948 6.92978 11.5359 6.88218 11.5665 6.82792C11.5971 6.77365 11.6165 6.71382 11.6235 6.65194C11.6306 6.59007 11.6253 6.5274 11.6077 6.46763C11.5902 6.40787 11.5609 6.35221 11.5216 6.30393C11.4835 6.25469 11.4359 6.21358 11.3816 6.18302C11.3273 6.15246 11.2675 6.13307 11.2056 6.12599C11.1437 6.11891 11.0811 6.12428 11.0213 6.14179C10.9615 6.15929 10.9059 6.18859 10.8576 6.22794L8.87806 7.8091C8.61994 7.99712 8.30883 8.09842 7.98948 8.09842C7.67014 8.09842 7.35903 7.99712 7.10091 7.8091L5.12095 6.22794C5.02245 6.15441 4.89919 6.12213 4.77729 6.13795C4.65539 6.15377 4.54445 6.21644 4.46798 6.31268C4.39151 6.40892 4.35553 6.53115 4.36766 6.65347C4.37979 6.77579 4.43909 6.88858 4.53297 6.96792L6.51412 8.54908Z" fill="#A6A6A6"/>
<path d="M5.46294 11.819H1.66824C1.54287 11.8176 1.42305 11.7671 1.3344 11.6785C1.24575 11.5898 1.1953 11.47 1.19385 11.3446C1.1953 11.2193 1.24575 11.0995 1.3344 11.0108C1.42305 10.9222 1.54287 10.8717 1.66824 10.8703H5.46294C5.58831 10.8717 5.70812 10.9222 5.79678 11.0108C5.88543 11.0995 5.93588 11.2193 5.93733 11.3446C5.93588 11.47 5.88543 11.5898 5.79678 11.6785C5.70812 11.7671 5.58831 11.8176 5.46294 11.819Z" fill="#A6A6A6"/>
<path d="M1.66824 9.28906H3.56539C3.69075 9.28761 3.81057 9.23716 3.89922 9.14851C3.98788 9.05986 4.03832 8.94004 4.03978 8.81468C4.03832 8.68931 3.98788 8.56949 3.89922 8.48084C3.81057 8.39219 3.69075 8.34174 3.56539 8.34029H1.66824C1.54287 8.34174 1.42305 8.39219 1.3344 8.48084C1.24575 8.56949 1.1953 8.68931 1.19385 8.81468C1.1953 8.94004 1.24575 9.05986 1.3344 9.14851C1.42305 9.23716 1.54287 9.28761 1.66824 9.28906Z" fill="#A6A6A6"/>
</g>
<defs>
<clipPath id="clip0_4426_90061">
<rect width="16" height="16" fill="white" transform="translate(0 0.5)"/>
</clipPath>
</defs>
</svg>
