<svg width="24" height="24" viewBox="0 0 24 24" fill="none" xmlns="http://www.w3.org/2000/svg">
<g clip-path="url(#clip0_2967_24944)">
<path d="M12.1553 22.3693H11.8934C10.4376 22.3712 9.01676 21.9222 7.82643 21.084C6.63296 20.2497 5.72723 19.066 5.23425 17.6958C5.02988 17.1024 4.91188 16.4827 4.88386 15.8557V15.846C4.82806 15.5875 4.8283 15.3199 4.88386 15.0613C4.93941 14.8027 5.04907 14.5589 5.20612 14.346C5.49289 13.9943 5.89857 13.7595 6.34636 13.686L7.3278 13.6332H16.7286L17.7089 13.686C18.1568 13.7591 18.5627 13.9939 18.8491 14.346C19.0063 14.5588 19.1166 14.8026 19.1725 15.0612C19.2285 15.3198 19.2289 15.5873 19.1737 15.846V15.8544C19.1452 16.4813 19.0272 17.1011 18.8233 17.6947C18.3301 19.0649 17.4247 20.2488 16.2317 21.084C15.0384 21.9235 13.6143 22.3726 12.1553 22.3693V22.3693ZM8.39772 14.9958L7.64069 15.0319C7.30462 15.0784 6.99479 15.239 6.76296 15.4867C6.64374 15.6276 6.55883 15.7943 6.51569 15.9738C6.47256 16.1532 6.47235 16.3402 6.51452 16.5199V16.5247C6.53589 16.9587 6.62659 17.3862 6.78405 17.7912C7.22985 18.7727 7.9551 19.6011 8.86882 20.173C9.78254 20.745 10.8445 21.0352 11.9221 21.0073H12.126C13.2038 21.0357 14.2661 20.7458 15.1799 20.1738C16.0938 19.6018 16.8188 18.773 17.2641 17.7912C17.421 17.3861 17.5115 16.9586 17.5331 16.5247V16.5187C17.5751 16.3391 17.5748 16.1521 17.5313 15.9729C17.4879 15.7936 17.4025 15.6271 17.2829 15.4867C17.0517 15.2381 16.7415 15.0774 16.4051 15.0319L15.6481 14.9958H8.39772ZM11.9673 10.4197C11.3899 10.4212 10.8177 10.308 10.2844 10.0869C9.75114 9.86572 9.26749 9.54107 8.86061 9.13148C8.45116 8.72454 8.12597 8.24036 7.90495 7.70707C7.68393 7.17377 7.57118 6.60197 7.57272 6.02469C7.57121 5.44715 7.68394 4.87502 7.90495 4.34144C8.12596 3.80786 8.45116 3.32332 8.86061 2.916C9.26747 2.50647 9.75112 2.18185 10.2844 1.96092C10.8178 1.73999 11.39 1.62714 11.9673 1.62899C12.5449 1.62715 13.1169 1.74 13.6507 1.96092C14.1844 2.18184 14.6689 2.50645 15.0762 2.916C15.4854 3.32349 15.8098 3.80803 16.0307 4.34159C16.2516 4.87514 16.3649 5.44722 16.3635 6.02469C16.365 6.6019 16.2516 7.17365 16.0307 7.70692C15.8098 8.24018 15.4854 8.72437 15.0762 9.13148C14.6689 9.54106 14.1843 9.86573 13.6507 10.0869C13.117 10.308 12.5449 10.4211 11.9673 10.4197ZM11.9673 2.97958C11.1611 2.98069 10.388 3.3015 9.81804 3.87167C9.24809 4.44183 8.92762 5.21485 8.92682 6.02103C8.92778 6.82716 9.24871 7.59997 9.81862 8.1701C10.3885 8.74023 11.1611 9.06122 11.9673 9.06249C12.7736 9.06153 13.5468 8.74069 14.1171 8.17054C14.6873 7.60039 15.0077 6.82742 15.0089 6.02103C15.007 5.21516 14.6861 4.44292 14.1159 3.87342C13.5457 3.30392 12.7731 2.9836 11.9673 2.98265V2.97958Z" fill="white"/>
</g>
<defs>
<clipPath id="clip0_2967_24944">
<rect width="24" height="24" fill="white"/>
</clipPath>
</defs>
</svg>
