<svg width="24" height="24" viewBox="0 0 24 24" fill="none" xmlns="http://www.w3.org/2000/svg">
<path d="M12.1295 22.3405H11.867C10.4155 22.3425 8.99908 21.8948 7.81235 21.0589C6.62205 20.2272 5.7192 19.0468 5.22778 17.6804C5.02452 17.0885 4.90673 16.4707 4.87797 15.8455V15.836C4.82262 15.5783 4.82253 15.3117 4.87797 15.0541C4.93342 14.7964 5.04263 14.5534 5.19907 14.3413C5.48409 13.9905 5.88769 13.756 6.33344 13.6814L7.31196 13.6291H16.6846L17.6631 13.6814C18.1092 13.7551 18.5125 13.9899 18.7969 14.3413C18.9537 14.5535 19.0639 14.7967 19.1198 15.0545C19.1756 15.3124 19.1759 15.5791 19.1209 15.8372V15.8455C19.0925 16.4706 18.9749 17.0886 18.7717 17.6804C18.2794 19.0465 17.3767 20.2267 16.1872 21.0595C14.9993 21.8954 13.582 22.3429 12.1295 22.3405ZM11.942 10.4252C11.3666 10.4269 10.7966 10.3142 10.2651 10.0937C9.73358 9.87315 9.25111 9.54912 8.84594 9.14051C8.43714 8.73504 8.11335 8.25242 7.89262 7.72063C7.67189 7.18884 7.55888 6.61858 7.56039 6.0428C7.55891 5.46676 7.6719 4.89617 7.89262 4.36409C8.11334 3.83201 8.43714 3.34903 8.84594 2.94319C9.25111 2.53466 9.73356 2.21079 10.2651 1.99046C10.7966 1.77012 11.3667 1.65764 11.942 1.6597C12.5179 1.65796 13.0887 1.7706 13.6207 1.9909C14.1528 2.2112 14.6356 2.53488 15.0416 2.94319C15.4496 3.34955 15.7729 3.83268 15.9932 4.36468C16.2135 4.89667 16.3261 5.46701 16.3248 6.0428C16.3261 6.61833 16.2135 7.18835 15.9932 7.72005C15.7729 8.25175 15.4496 8.7345 15.0416 9.14051C14.6358 9.54864 14.1535 9.87236 13.6219 10.0929C13.0903 10.3135 12.5199 10.4267 11.9444 10.4258L11.942 10.4252Z" stroke="white"/>
</svg>
