<svg width="24" height="24" viewBox="0 0 24 24" fill="none" xmlns="http://www.w3.org/2000/svg">
<g clip-path="url(#clip0_2967_24945)">
<path d="M12.1294 22.3405H11.8669C10.4154 22.3425 8.99895 21.8948 7.81223 21.0589C6.62193 20.2272 5.71908 19.0468 5.22766 17.6804C5.0244 17.0885 4.9066 16.4707 4.87785 15.8455V15.836C4.8225 15.5783 4.82241 15.3117 4.87785 15.0541C4.93329 14.7964 5.04251 14.5534 5.19894 14.3413C5.48397 13.9905 5.88756 13.756 6.33332 13.6814L7.31184 13.6291H16.6845L17.663 13.6814C18.1091 13.7551 18.5124 13.9899 18.7968 14.3413C18.9536 14.5535 19.0638 14.7967 19.1196 15.0545C19.1755 15.3124 19.1757 15.5791 19.1208 15.8372V15.8455C19.0924 16.4706 18.9748 17.0886 18.7716 17.6804C18.2792 19.0465 17.3766 20.2267 16.187 21.0595C14.9992 21.8954 13.5819 22.3429 12.1294 22.3405ZM11.9419 10.4252C11.3665 10.4269 10.7965 10.3142 10.265 10.0937C9.73346 9.87315 9.25099 9.54912 8.84582 9.14051C8.43702 8.73504 8.11323 8.25242 7.8925 7.72063C7.67177 7.18884 7.55876 6.61858 7.56027 6.0428C7.55878 5.46676 7.67178 4.89617 7.8925 4.36409C8.11322 3.83201 8.43702 3.34903 8.84582 2.94319C9.25099 2.53466 9.73344 2.21079 10.265 1.99046C10.7965 1.77012 11.3665 1.65764 11.9419 1.6597C12.5178 1.65796 13.0886 1.7706 13.6206 1.9909C14.1527 2.2112 14.6354 2.53488 15.0415 2.94319C15.4495 3.34955 15.7728 3.83268 15.9931 4.36468C16.2134 4.89667 16.326 5.46701 16.3247 6.0428C16.326 6.61833 16.2134 7.18835 15.9931 7.72005C15.7728 8.25175 15.4494 8.7345 15.0415 9.14051C14.6357 9.54864 14.1534 9.87236 13.6218 10.0929C13.0902 10.3135 12.5198 10.4267 11.9443 10.4258L11.9419 10.4252Z" fill="#FFC107"/>
</g>
<defs>
<clipPath id="clip0_2967_24945">
<rect width="24" height="24" fill="white"/>
</clipPath>
</defs>
</svg>
