<svg width="24" height="25" viewBox="0 0 24 25" fill="none" xmlns="http://www.w3.org/2000/svg">
<g clip-path="url(#clip0_1183_60413)">
<path d="M4.94836 10.8078C4.84929 10.7046 4.78138 10.5754 4.75266 10.4352C4.7239 10.2956 4.73854 10.1505 4.79426 10.0193L6.58304 5.74822C6.59624 5.71882 6.60741 5.69179 6.61761 5.66839C6.63232 5.6298 6.64971 5.5923 6.66975 5.55619C6.79575 5.2664 6.92565 4.99353 7.05704 4.74514C7.18843 4.49676 7.32738 4.2591 7.46718 4.04791C7.60041 3.84419 7.74602 3.64894 7.90368 3.46347C8.04695 3.2938 8.20319 3.13547 8.37065 2.98962C8.52698 2.85331 8.69497 2.73096 8.87277 2.62416C9.04433 2.52136 9.22534 2.43484 9.41298 2.36562C9.6026 2.29634 9.79801 2.24468 9.99713 2.21138C10.2059 2.17698 10.4171 2.15995 10.6287 2.16041C11.4869 2.19017 12.3326 2.37603 13.1241 2.70882L13.1376 2.71424C13.2114 2.74064 13.2812 2.77063 13.355 2.80183H13.3585L13.4311 2.8323L15.7015 3.78455C16.7646 4.15634 17.722 4.78033 18.491 5.60306C18.6045 5.73934 18.7074 5.88391 18.7992 6.03561C18.9117 6.20977 19.0023 6.39715 19.0687 6.59354C19.1136 6.69917 19.1488 6.8087 19.1742 6.92062C19.2429 7.15698 19.285 7.40027 19.2996 7.64598C19.3154 7.91728 19.3056 8.18946 19.2703 8.45892C19.2298 8.76704 19.1667 9.07183 19.0822 9.37089C18.9839 9.71701 18.8668 10.0575 18.7313 10.3908C18.6714 10.5219 18.5756 10.6332 18.4547 10.7116C18.3338 10.79 18.1928 10.8324 18.0487 10.8336C17.9771 10.8335 17.9062 10.8237 17.8372 10.8048C17.462 10.6961 17.0729 10.641 16.6823 10.641H11.9699L12.2746 9.19805H16.6923C16.9953 9.19937 17.2975 9.22501 17.5964 9.2748C17.8541 8.64046 17.9146 7.94315 17.7698 7.27392C17.7609 7.23325 17.7497 7.19321 17.7358 7.15396C17.7304 7.13836 17.7248 7.12339 17.7212 7.10899C17.6844 6.99845 17.636 6.89204 17.577 6.79157L17.5401 6.73152C17.495 6.65436 17.4433 6.58128 17.3854 6.51312C16.7592 5.87291 15.9912 5.38859 15.1437 5.09903L13.3017 4.33164V4.32563L12.6156 4.07735L11.8802 3.81091C11.4863 3.67811 11.0742 3.60667 10.6586 3.59911C9.51508 3.59911 8.76233 4.31369 7.97457 6.14839C7.96924 6.16324 7.96268 6.17769 7.95524 6.1916C7.94803 6.20563 7.94207 6.22007 7.93649 6.23482L6.6762 9.2269C6.88979 9.2077 7.09617 9.19805 7.30136 9.19805H7.93942L6.87424 10.6631C6.48175 10.7046 6.09794 10.8042 5.73464 10.9584C5.64687 10.9977 5.55133 11.018 5.45517 11.0183C5.26536 11.0161 5.08391 10.9407 4.94836 10.8078Z" fill="#A6A6A6"/>
<path d="M15.7517 22.8423H8.24843C7.99113 22.8413 7.73411 22.8253 7.47867 22.7943C4.10204 22.5729 2.17794 20.6392 1.94695 17.2242C1.91498 16.9817 1.89894 16.7374 1.89895 16.4928V14.6167C1.89681 13.9049 2.03544 13.1996 2.30686 12.5416C2.57828 11.8835 2.97713 11.2856 3.48047 10.7823C3.98381 10.2789 4.58171 9.88009 5.23977 9.60867C5.89782 9.33725 6.60305 9.19862 7.31488 9.20076H16.7044C17.2357 9.19784 17.7643 9.27573 18.2721 9.43175C19.3811 9.77489 20.3519 10.4626 21.0434 11.3949C21.735 12.3273 22.1114 13.4559 22.1179 14.6167V16.4928C22.1179 16.7046 22.1083 16.9062 22.0987 17.0988C21.8894 20.86 19.6959 22.8423 15.7517 22.8423ZM7.30528 10.6437C6.78305 10.6419 6.26563 10.7435 5.78282 10.9426C5.3 11.1416 4.86133 11.4342 4.49206 11.8035C4.12278 12.1727 3.8302 12.6114 3.63115 13.0942C3.43211 13.577 3.33053 14.0945 3.33228 14.6167V16.4928C3.33228 16.695 3.35148 16.8966 3.37068 17.0892C3.55067 19.831 4.9 21.178 7.60347 21.3604C7.81388 21.3893 8.02587 21.4053 8.23823 21.4084H15.7421C18.9165 21.4084 20.4752 20.0134 20.6288 17.0286C20.6384 16.8552 20.648 16.6824 20.648 16.4886V14.6167C20.6429 13.7647 20.3669 12.9363 19.86 12.2514C19.3531 11.5666 18.6415 11.0607 17.8282 10.8069C17.453 10.698 17.0644 10.6429 16.6738 10.6431L7.30528 10.6437Z" fill="#A6A6A6"/>
<path d="M2.60962 15.3416C2.41921 15.3399 2.23708 15.2635 2.10243 15.1288C1.96778 14.9942 1.89138 14.8121 1.88965 14.6216V11.8018C1.88755 10.3326 2.3958 8.90833 3.32752 7.7724C4.25925 6.63647 5.5566 5.85942 6.9978 5.5741C7.12646 5.55095 7.25894 5.56186 7.38209 5.60575C7.50523 5.64964 7.61475 5.72498 7.69976 5.82429C7.78181 5.92528 7.83496 6.04661 7.85355 6.17539C7.87214 6.30417 7.85549 6.43558 7.80536 6.55565L6.12184 10.5755C6.04759 10.7451 5.91467 10.8823 5.74746 10.9618C5.03362 11.2701 4.42554 11.7804 3.99816 12.43C3.57077 13.0795 3.34275 13.8399 3.34218 14.6174C3.33935 14.8101 3.261 14.9939 3.12399 15.1293C2.98698 15.2648 2.80227 15.341 2.60962 15.3416ZM5.84346 7.5174C5.22726 7.86482 4.69338 8.34125 4.27835 8.91409C3.86332 9.48693 3.57693 10.1427 3.43878 10.8364C3.86353 10.3976 4.36157 10.0362 4.9105 9.76849L5.84346 7.5174Z" fill="#A6A6A6"/>
<path d="M21.3898 15.336C21.1993 15.3343 21.0172 15.2579 20.8826 15.1232C20.7479 14.9886 20.6715 14.8065 20.6698 14.616C20.6647 13.764 20.3887 12.9357 19.8818 12.2508C19.3749 11.5659 18.6633 11.06 17.8499 10.8062C17.7543 10.7782 17.6656 10.7305 17.5895 10.6661C17.5134 10.6017 17.4516 10.5221 17.4081 10.4325C17.3646 10.3428 17.3403 10.245 17.3369 10.1454C17.3334 10.0458 17.3508 9.94656 17.388 9.85408C17.7954 9.05952 17.9306 8.15308 17.7725 7.27421C17.7557 7.18962 17.7341 7.15062 17.7245 7.11222C17.664 6.97569 17.6473 6.82377 17.6766 6.67734C17.706 6.53091 17.7799 6.39716 17.8883 6.29446C17.9968 6.19098 18.135 6.12418 18.2835 6.10351C18.4319 6.08284 18.5831 6.10934 18.7157 6.17927C19.7419 6.7147 20.6013 7.52171 21.2001 8.51222C21.799 9.50274 22.1142 10.6387 22.1115 11.7962V14.616C22.1098 14.8068 22.0331 14.9892 21.8981 15.1239C21.7631 15.2586 21.5805 15.3348 21.3898 15.336ZM18.9749 9.69629C19.5746 9.97575 20.1164 10.3655 20.572 10.8452C20.3926 9.91103 19.9409 9.05077 19.2737 8.37276C19.2167 8.82362 19.1169 9.26801 18.9755 9.69989L18.9749 9.69629Z" fill="#A6A6A6"/>
</g>
<defs>
<clipPath id="clip0_1183_60413">
<rect width="24" height="24" fill="white" transform="translate(0 0.5)"/>
</clipPath>
</defs>
</svg>
