<svg width="16" height="17" viewBox="0 0 16 17" fill="none" xmlns="http://www.w3.org/2000/svg">
<path d="M4.70685 14.7142C4.56583 14.7134 4.43106 14.6574 4.33108 14.5579C4.2311 14.4585 4.17396 14.3236 4.17249 14.1826C4.17333 14.0412 4.22987 13.9057 4.32991 13.8057C4.42994 13.7057 4.56538 13.6491 4.70685 13.6483H14.6461C14.787 13.6495 14.9217 13.7063 15.021 13.8064C15.1204 13.9064 15.1763 14.0417 15.1765 14.1826C15.1757 14.3232 15.1195 14.4577 15.0203 14.5571C14.921 14.6566 14.7866 14.713 14.6461 14.7142H4.70685ZM1.3335 14.1826C1.33432 14.0417 1.39039 13.9067 1.48974 13.8068C1.58909 13.7068 1.72382 13.6499 1.86473 13.6483C2.00628 13.6491 2.1419 13.7056 2.24207 13.8056C2.34223 13.9056 2.39883 14.0411 2.39988 14.1826C2.3983 14.3238 2.34142 14.4586 2.24129 14.558C2.14116 14.6575 2.00586 14.7135 1.86473 14.7142C1.72438 14.7125 1.59006 14.6559 1.49091 14.5565C1.39177 14.4572 1.33563 14.323 1.33428 14.1826H1.3335ZM4.70685 11.1659C4.56538 11.1651 4.42994 11.1085 4.32991 11.0085C4.22987 10.9085 4.17333 10.773 4.17249 10.6315C4.17379 10.4951 4.22713 10.3643 4.32131 10.2655C4.41549 10.1668 4.54368 10.1076 4.6799 10.0999H14.673C14.8086 10.1082 14.9362 10.1677 15.0296 10.2664C15.1231 10.3651 15.1757 10.4957 15.1765 10.6315C15.1763 10.7725 15.1204 10.9077 15.021 11.0077C14.9217 11.1078 14.787 11.1646 14.6461 11.1659H4.70685ZM1.3335 10.6315C1.33449 10.4955 1.38701 10.3649 1.48076 10.2663C1.57451 10.1677 1.70235 10.1085 1.83817 10.1007H1.86473H1.89286C2.02907 10.108 2.15721 10.167 2.25144 10.2656C2.34568 10.3643 2.39875 10.4951 2.39988 10.6315C2.39883 10.7731 2.34223 10.9085 2.24207 11.0085C2.1419 11.1085 2.00628 11.1651 1.86473 11.1659C1.72396 11.164 1.58931 11.107 1.49013 11.007C1.39096 10.9071 1.3351 10.7723 1.33428 10.6315H1.3335ZM4.70685 7.61483C4.56583 7.6141 4.43106 7.55794 4.33108 7.45848C4.2311 7.35903 4.17396 7.22421 4.17249 7.0832C4.17343 6.9418 4.23027 6.8065 4.3303 6.70655C4.43032 6.6066 4.56545 6.55007 4.70685 6.54923H14.6461C14.787 6.55049 14.9217 6.60726 15.021 6.70723C15.1203 6.8072 15.1762 6.94229 15.1765 7.0832C15.1757 7.22372 15.1195 7.35822 15.0203 7.4577C14.921 7.55718 14.7866 7.61367 14.6461 7.61483H4.70685ZM1.3335 7.0832C1.33443 6.94235 1.39041 6.80748 1.48974 6.70762C1.58908 6.60776 1.72389 6.5509 1.86473 6.54923C2.00621 6.55006 2.14152 6.60652 2.24168 6.70645C2.34183 6.80638 2.39872 6.94173 2.39988 7.0832C2.3982 7.22429 2.341 7.35905 2.2409 7.45848C2.14079 7.55792 2.00583 7.6141 1.86473 7.61483C1.72441 7.61306 1.59042 7.55636 1.4913 7.45702C1.39218 7.35767 1.33573 7.22353 1.33428 7.0832H1.3335ZM4.70685 4.06365C4.56567 4.06344 4.43039 4.00745 4.3303 3.90789C4.23021 3.80832 4.17344 3.67329 4.17249 3.53212C4.17396 3.3911 4.2311 3.25629 4.33108 3.15683C4.43106 3.05738 4.56583 3.00122 4.70685 3.00049H14.6461C14.7866 3.00164 14.921 3.05804 15.0203 3.15752C15.1195 3.25699 15.1757 3.3916 15.1765 3.53212C15.1761 3.67276 15.12 3.80754 15.0207 3.90711C14.9213 4.00667 14.7867 4.06291 14.6461 4.06365H4.70685ZM1.3335 3.53212C1.33485 3.39162 1.39121 3.2572 1.49052 3.15781C1.58984 3.05842 1.72424 3.00195 1.86473 3.00049C2.00586 3.00111 2.14116 3.05718 2.24129 3.15664C2.34142 3.25609 2.3983 3.391 2.39988 3.53212C2.39872 3.67337 2.3419 3.80844 2.24168 3.90799C2.14146 4.00753 2.00599 4.06344 1.86473 4.06365C1.72418 4.06239 1.58976 4.00587 1.49052 3.90633C1.39128 3.80678 1.33511 3.67228 1.33428 3.53173L1.3335 3.53212Z" fill="#A6A6A6"/>
</svg>
