<svg width="16" height="16" viewBox="0 0 16 16" fill="none" xmlns="http://www.w3.org/2000/svg">
<path d="M8.02971 13.7065L4.70586 6.55991H11.3536L8.02893 13.7065H8.02971ZM6.92957 12.8664L0.817871 6.5603H3.99718L6.92957 12.866V12.8664ZM9.13297 12.8591L12.0622 6.56069H15.2353L9.13297 12.8591ZM15.2236 5.90143H12.181V2.76022L15.222 5.90065L15.2236 5.90143ZM11.1324 5.90143H4.92698L8.02971 2.43342L11.1317 5.90104L11.1324 5.90143ZM3.87841 5.90143H0.817871L3.87841 2.74107V5.90143ZM11.5419 5.3875L8.75949 2.27734H11.5427V5.38828L11.5419 5.3875ZM4.51912 5.3875V2.27773H7.29915L4.52146 5.38789L4.51912 5.3875Z" fill="#2196F3"/>
</svg>
