<svg width="17" height="16" viewBox="0 0 17 16" fill="none" xmlns="http://www.w3.org/2000/svg">
<g id="Analytics 2">
<rect id="Rectangle 3275" x="3.13306" y="2.79492" width="9.999" height="10.399" fill="#2196F3"/>
<path id="Path 5979" d="M10.2525 14.8674H6.41576C2.94325 14.8674 1.46167 13.3858 1.46167 9.91294V6.07699C1.46167 2.60488 2.94325 1.12329 6.41576 1.12329H10.2525C13.725 1.12329 15.2066 2.60488 15.2066 6.07699V9.91294C15.2046 13.3842 13.723 14.8674 10.2525 14.8674ZM11.6077 7.4728C11.4809 7.47436 11.3595 7.5253 11.2699 7.61496C11.1802 7.70463 11.1293 7.82638 11.1277 7.95317V11.9297C11.1293 12.0565 11.1802 12.1775 11.2699 12.2672C11.3595 12.3568 11.4809 12.4078 11.6077 12.4093C11.6709 12.4101 11.7338 12.398 11.7924 12.3742C11.851 12.3503 11.9039 12.315 11.9486 12.2703C11.9934 12.2256 12.0287 12.1726 12.0525 12.1141C12.0764 12.0555 12.0885 11.993 12.0877 11.9297V7.95317C12.0877 7.88995 12.0752 7.82724 12.051 7.76884C12.0267 7.71043 11.9911 7.65725 11.9463 7.61262C11.9015 7.56799 11.8486 7.53276 11.7901 7.50873C11.7316 7.48471 11.669 7.47254 11.6057 7.4728H11.6077ZM8.33412 8.79597C8.20733 8.79753 8.08635 8.84847 7.99669 8.93813C7.90703 9.0278 7.85609 9.14877 7.85453 9.27557V11.9297C7.85609 12.0565 7.90703 12.1775 7.99669 12.2672C8.08635 12.3568 8.20733 12.4078 8.33412 12.4093C8.4614 12.4093 8.58351 12.3595 8.67351 12.2695C8.76351 12.1795 8.81411 12.057 8.81411 11.9297V9.27557C8.81265 9.14843 8.76157 9.02715 8.67156 8.93735C8.58154 8.84756 8.4597 8.79634 8.33256 8.79519L8.33412 8.79597ZM5.06095 10.1246C4.93415 10.1262 4.81318 10.1779 4.72352 10.2676C4.63385 10.3572 4.58252 10.4782 4.58097 10.605V11.9297C4.58252 12.0565 4.63385 12.1775 4.72352 12.2672C4.81318 12.3568 4.93415 12.4078 5.06095 12.4093C5.18823 12.4093 5.31034 12.3595 5.40034 12.2695C5.49033 12.1795 5.54093 12.057 5.54093 11.9297V10.605C5.53958 10.4778 5.48841 10.3567 5.39838 10.2668C5.30835 10.1769 5.1866 10.1258 5.05939 10.1246H5.06095ZM9.73345 3.5853C9.60666 3.58685 9.48568 3.63779 9.39602 3.72746C9.30636 3.81712 9.25542 3.93888 9.25386 4.06567C9.25542 4.19247 9.30636 4.31344 9.39602 4.4031C9.48568 4.49277 9.60666 4.54371 9.73345 4.54526H10.5423C9.02505 6.14185 7.0838 7.27269 4.94652 7.80477C4.88471 7.81947 4.8267 7.84609 4.77546 7.88366C4.72422 7.92123 4.68075 7.96894 4.64814 8.02347C4.61558 8.07742 4.5944 8.13687 4.58526 8.19922C4.57613 8.26157 4.5793 8.32566 4.59503 8.38668C4.62112 8.49067 4.68096 8.58295 4.76531 8.64913C4.84966 8.71531 4.95374 8.75164 5.06095 8.75223C5.10013 8.75442 5.13941 8.74962 5.17694 8.73817C7.43957 8.17778 9.5006 6.99629 11.1277 5.32714V5.93249C11.1293 6.05928 11.1802 6.18025 11.2699 6.26992C11.3595 6.35958 11.4809 6.4113 11.6077 6.41286C11.6702 6.41333 11.7321 6.40121 11.7901 6.37771C11.848 6.35421 11.9009 6.31928 11.9455 6.27539C11.9901 6.23149 12.0254 6.17912 12.0498 6.12151C12.0742 6.0639 12.0872 6.00206 12.0877 5.93951V4.08286C12.0905 4.01085 12.0769 3.93886 12.0482 3.87274C12.0196 3.80662 11.9766 3.74805 11.9221 3.7009C11.8334 3.62658 11.7214 3.58589 11.6057 3.58608H9.73384L9.73345 3.5853Z" fill="#FFC107"/>
</g>
</svg>
