<svg width="32" height="32" viewBox="0 0 32 32" fill="none" xmlns="http://www.w3.org/2000/svg">
<path d="M6.40002 15.5883C6.40002 11.3909 9.80266 7.98828 14 7.98828H18C22.1974 7.98828 25.6 11.3909 25.6 15.5883C25.6 19.7856 22.1974 23.1883 18 23.1883H14C9.80266 23.1883 6.40002 19.7856 6.40002 15.5883Z" fill="#F8F8F8"/>
<path fill-rule="evenodd" clip-rule="evenodd" d="M7.60005 29.2125C4.94908 29.2125 2.80005 27.0635 2.80005 24.4125V7.6125C2.80005 4.96153 4.94908 2.8125 7.60005 2.8125H24.4001C27.051 2.8125 29.2001 4.96153 29.2001 7.6125V24.4125C29.2001 27.0635 27.051 29.2125 24.4001 29.2125H7.60005ZM8.88088 19.8533C8.61533 20.1189 8.18477 20.1189 7.91922 19.8533C7.65366 19.5878 7.65366 19.1572 7.91922 18.8917L11.5192 15.2917C11.7848 15.0261 12.2153 15.0261 12.4809 15.2917L15.6 18.4108L20.7584 13.2525H18.8001C18.4245 13.2525 18.12 12.9481 18.12 12.5725C18.12 12.1969 18.4245 11.8925 18.8001 11.8925H22.4001C22.7756 11.8925 23.0801 12.1969 23.0801 12.5725V16.5725C23.0801 16.9481 22.7756 17.2525 22.4001 17.2525C22.0245 17.2525 21.7201 16.9481 21.7201 16.5725V14.2142L16.0809 19.8533C15.8153 20.1189 15.3848 20.1189 15.1192 19.8533L12 16.7342L8.88088 19.8533Z" fill="#4CAF50"/>
</svg>
