<svg width="32" height="32" viewBox="0 0 32 32" fill="none" xmlns="http://www.w3.org/2000/svg">
<path d="M6.40002 15.5883C6.40002 11.3909 9.80266 7.98828 14 7.98828H18C22.1974 7.98828 25.6 11.3909 25.6 15.5883C25.6 19.7856 22.1974 23.1883 18 23.1883H14C9.80266 23.1883 6.40002 19.7856 6.40002 15.5883Z" fill="#F8F8F8"/>
<path fill-rule="evenodd" clip-rule="evenodd" d="M7.60005 2.8125C4.94908 2.8125 2.80005 4.96153 2.80005 7.6125V24.4125C2.80005 27.0635 4.94908 29.2125 7.60005 29.2125H24.4001C27.051 29.2125 29.2001 27.0635 29.2001 24.4125V7.6125C29.2001 4.96153 27.051 2.8125 24.4001 2.8125H7.60005ZM8.88088 12.1717C8.61533 11.9061 8.18477 11.9061 7.91922 12.1717C7.65366 12.4372 7.65366 12.8678 7.91922 13.1333L11.5192 16.7333C11.7848 16.9989 12.2153 16.9989 12.4809 16.7333L15.6 13.6142L20.7584 18.7725H18.8001C18.4245 18.7725 18.12 19.0769 18.12 19.4525C18.12 19.8281 18.4245 20.1325 18.8001 20.1325H22.4001C22.7756 20.1325 23.0801 19.8281 23.0801 19.4525V15.4525C23.0801 15.0769 22.7756 14.7725 22.4001 14.7725C22.0245 14.7725 21.7201 15.0769 21.7201 15.4525V17.8108L16.0809 12.1717C15.8153 11.9061 15.3848 11.9061 15.1192 12.1717L12 15.2908L8.88088 12.1717Z" fill="#FF2211"/>
</svg>
