<svg width="207" height="62" viewBox="0 0 207 62" fill="none" xmlns="http://www.w3.org/2000/svg">
<g clip-path="url(#clip0_4421_45250)">
<path d="M199.333 61.4894H7.66667C3.37333 61.4894 0 58.1356 0 53.8671V8.13307C0 3.86457 3.37333 0.510742 7.66667 0.510742H199.333C203.627 0.510742 207 3.86457 207 8.13307V53.8671C207 58.1356 203.627 61.4894 199.333 61.4894Z" fill="#1C1B19"/>
<path d="M199.333 1.73032C202.86 1.73032 205.773 4.6268 205.773 8.13307V53.8671C205.773 57.3733 202.86 60.2698 199.333 60.2698H7.66667C4.14 60.2698 1.22667 57.3733 1.22667 53.8671V8.13307C1.22667 4.6268 4.14 1.73032 7.66667 1.73032H199.333ZM199.333 0.510742H7.66667C3.37333 0.510742 0 4.01701 0 8.13307V53.8671C0 58.1356 3.37333 61.4894 7.66667 61.4894H199.333C203.627 61.4894 207 58.1356 207 53.8671V8.13307C207 4.01701 203.627 0.510742 199.333 0.510742Z" fill="#A6A6A6"/>
<path d="M72.68 16.06C72.68 17.2796 72.3733 18.3467 71.6066 19.109C70.6866 20.0236 69.6133 20.481 68.2333 20.481C66.8533 20.481 65.78 20.0236 64.86 19.109C63.94 18.1943 63.48 17.1272 63.48 15.7551C63.48 14.3831 63.94 13.316 64.86 12.4013C65.78 11.4866 66.8533 11.0293 68.2333 11.0293C68.8466 11.0293 69.46 11.1817 70.0733 11.4866C70.6866 11.7915 71.1466 12.0964 71.4533 12.5538L70.6866 13.316C70.0733 12.5538 69.3066 12.2489 68.2333 12.2489C67.3133 12.2489 66.3933 12.5538 65.78 13.316C65.0133 13.9258 64.7066 14.8405 64.7066 15.9076C64.7066 16.9747 65.0133 17.8894 65.78 18.4992C66.5466 19.109 67.3133 19.5663 68.2333 19.5663C69.3066 19.5663 70.0733 19.2614 70.84 18.4992C71.3 18.0418 71.6066 17.4321 71.6066 16.6698H68.2333V15.4503H72.68V16.06ZM79.7333 12.2489H75.5933V15.1454H79.4266V16.2125H75.5933V19.109H79.7333V20.3285H74.3666V11.1817H79.7333V12.2489ZM84.7933 20.3285H83.5666V12.2489H80.96V11.1817H87.4V12.2489H84.7933V20.3285ZM91.8466 20.3285V11.1817H93.0733V20.3285H91.8466ZM98.2866 20.3285H97.06V12.2489H94.4533V11.1817H100.74V12.2489H98.1333V20.3285H98.2866ZM112.853 19.109C111.933 20.0236 110.86 20.481 109.48 20.481C108.1 20.481 107.027 20.0236 106.107 19.109C105.187 18.1943 104.727 17.1272 104.727 15.7551C104.727 14.3831 105.187 13.316 106.107 12.4013C107.027 11.4866 108.1 11.0293 109.48 11.0293C110.86 11.0293 111.933 11.4866 112.853 12.4013C113.773 13.316 114.233 14.3831 114.233 15.7551C114.233 17.1272 113.773 18.1943 112.853 19.109ZM107.027 18.3467C107.64 18.9565 108.56 19.4139 109.48 19.4139C110.4 19.4139 111.32 19.109 111.933 18.3467C112.547 17.7369 113.007 16.8223 113.007 15.7551C113.007 14.688 112.7 13.7733 111.933 13.1636C111.32 12.5538 110.4 12.0964 109.48 12.0964C108.56 12.0964 107.64 12.4013 107.027 13.1636C106.413 13.7733 105.953 14.688 105.953 15.7551C105.953 16.8223 106.26 17.7369 107.027 18.3467ZM115.92 20.3285V11.1817H117.3L121.747 18.3467V11.1817H122.973V20.3285H121.747L116.993 12.8587V20.3285H115.92Z" fill="white"/>
<path d="M71.4551 41.0801H63.2846L61.8807 45.0458H58.5396L65.5308 25.6084H69.237L76.2282 45.0458H72.859L71.4551 41.0801ZM70.5566 38.4829L67.3839 29.4624L64.1831 38.4829H70.5566Z" fill="white"/>
<path d="M82.4688 31.92C83.0117 31.2125 83.751 30.6167 84.687 30.1326C85.6229 29.6486 86.6804 29.4065 87.8597 29.4065C89.2074 29.4065 90.4334 29.7416 91.5378 30.4119C92.6609 31.0635 93.5407 31.9851 94.1771 33.1767C94.8135 34.3683 95.1317 35.7367 95.1317 37.282C95.1317 38.8273 94.8135 40.2144 94.1771 41.4432C93.5407 42.6534 92.6609 43.6029 91.5378 44.2918C90.4334 44.962 89.2074 45.2972 87.8597 45.2972C86.6804 45.2972 85.6322 45.0644 84.715 44.599C83.7978 44.1149 83.0491 43.5191 82.4688 42.8116V52.3628H79.268V29.6579H82.4688V31.92ZM91.8747 37.282C91.8747 36.2208 91.6501 35.3085 91.2009 34.5451C90.7704 33.7632 90.1901 33.1767 89.4601 32.7857C88.7488 32.3761 87.9814 32.1713 87.1578 32.1713C86.3529 32.1713 85.5854 32.3761 84.8554 32.7857C84.1441 33.1953 83.5639 33.7911 83.1146 34.5731C82.6841 35.355 82.4688 36.2766 82.4688 37.3379C82.4688 38.3991 82.6841 39.33 83.1146 40.1306C83.5639 40.9126 84.1441 41.5084 84.8554 41.918C85.5854 42.3276 86.3529 42.5324 87.1578 42.5324C87.9814 42.5324 88.7488 42.3276 89.4601 41.918C90.1901 41.4897 90.7704 40.8753 91.2009 40.0748C91.6501 39.2742 91.8747 38.3433 91.8747 37.282Z" fill="white"/>
<path d="M101.498 31.92C102.041 31.2125 102.78 30.6167 103.716 30.1326C104.652 29.6486 105.709 29.4065 106.889 29.4065C108.236 29.4065 109.462 29.7416 110.567 30.4119C111.69 31.0635 112.57 31.9851 113.206 33.1767C113.842 34.3683 114.161 35.7367 114.161 37.282C114.161 38.8273 113.842 40.2144 113.206 41.4432C112.57 42.6534 111.69 43.6029 110.567 44.2918C109.462 44.962 108.236 45.2972 106.889 45.2972C105.709 45.2972 104.661 45.0644 103.744 44.599C102.827 44.1149 102.078 43.5191 101.498 42.8116V52.3628H98.297V29.6579H101.498V31.92ZM110.904 37.282C110.904 36.2208 110.679 35.3085 110.23 34.5451C109.799 33.7632 109.219 33.1767 108.489 32.7857C107.778 32.3761 107.01 32.1713 106.187 32.1713C105.382 32.1713 104.614 32.3761 103.884 32.7857C103.173 33.1953 102.593 33.7911 102.144 34.5731C101.713 35.355 101.498 36.2766 101.498 37.3379C101.498 38.3991 101.713 39.33 102.144 40.1306C102.593 40.9126 103.173 41.5084 103.884 41.918C104.614 42.3276 105.382 42.5324 106.187 42.5324C107.01 42.5324 107.778 42.3276 108.489 41.918C109.219 41.4897 109.799 40.8753 110.23 40.0748C110.679 39.2742 110.904 38.3433 110.904 37.282Z" fill="white"/>
<path d="M130.235 45.2972C129.018 45.2972 127.923 45.0831 126.95 44.6548C125.995 44.208 125.237 43.6122 124.676 42.8675C124.114 42.1041 123.815 41.257 123.777 40.3261H127.09C127.146 40.9777 127.455 41.527 128.017 41.9738C128.597 42.402 129.318 42.6161 130.179 42.6161C131.077 42.6161 131.77 42.4486 132.256 42.1135C132.762 41.7597 133.015 41.3129 133.015 40.7729C133.015 40.1958 132.734 39.7676 132.172 39.4883C131.629 39.209 130.759 38.9018 129.561 38.5667C128.4 38.2502 127.455 37.943 126.725 37.6451C125.995 37.3472 125.359 36.891 124.816 36.2766C124.292 35.6622 124.03 34.8523 124.03 33.847C124.03 33.0278 124.273 32.283 124.76 31.6128C125.246 30.9239 125.939 30.384 126.838 29.993C127.755 29.602 128.803 29.4065 129.982 29.4065C131.742 29.4065 133.155 29.8534 134.222 30.747C135.307 31.6221 135.888 32.823 135.963 34.3497H132.762C132.706 33.6608 132.425 33.1115 131.92 32.7019C131.414 32.2923 130.731 32.0875 129.87 32.0875C129.028 32.0875 128.382 32.2458 127.933 32.5623C127.483 32.8788 127.259 33.2977 127.259 33.819C127.259 34.2286 127.408 34.5731 127.708 34.8523C128.007 35.1316 128.372 35.355 128.803 35.5226C129.233 35.6715 129.87 35.867 130.712 36.1091C131.835 36.407 132.752 36.7142 133.464 37.0307C134.194 37.3286 134.821 37.7754 135.345 38.3712C135.869 38.967 136.14 39.7582 136.159 40.745C136.159 41.6201 135.916 42.402 135.429 43.0909C134.942 43.7798 134.25 44.3197 133.351 44.7107C132.472 45.1017 131.433 45.2972 130.235 45.2972Z" fill="white"/>
<path d="M143.352 32.2551V40.7729C143.352 41.3501 143.483 41.769 143.745 42.0297C144.026 42.2717 144.494 42.3927 145.149 42.3927H147.114V45.0458H144.587C143.146 45.0458 142.042 44.7107 141.274 44.0404C140.507 43.3702 140.123 42.281 140.123 40.7729V32.2551H138.298V29.6579H140.123V25.8318H143.352V29.6579H147.114V32.2551H143.352Z" fill="white"/>
<path d="M156.775 45.2972C155.315 45.2972 153.995 44.9713 152.816 44.3197C151.637 43.6495 150.71 42.7185 150.036 41.527C149.363 40.3168 149.026 38.9204 149.026 37.3379C149.026 35.7739 149.372 34.3869 150.064 33.1767C150.757 31.9665 151.702 31.0356 152.9 30.384C154.098 29.7323 155.437 29.4065 156.915 29.4065C158.394 29.4065 159.732 29.7323 160.93 30.384C162.128 31.0356 163.074 31.9665 163.766 33.1767C164.459 34.3869 164.805 35.7739 164.805 37.3379C164.805 38.9018 164.449 40.2889 163.738 41.4991C163.027 42.7092 162.053 43.6495 160.818 44.3197C159.601 44.9713 158.254 45.2972 156.775 45.2972ZM156.775 42.5324C157.599 42.5324 158.366 42.3369 159.077 41.9459C159.807 41.5549 160.397 40.9684 160.846 40.1865C161.295 39.4045 161.52 38.455 161.52 37.3379C161.52 36.2208 161.305 35.2806 160.874 34.5172C160.444 33.7353 159.873 33.1488 159.161 32.7578C158.45 32.3668 157.683 32.1713 156.859 32.1713C156.036 32.1713 155.268 32.3668 154.557 32.7578C153.864 33.1488 153.312 33.7353 152.9 34.5172C152.488 35.2806 152.283 36.2208 152.283 37.3379C152.283 38.9949 152.704 40.2796 153.546 41.1919C154.407 42.0855 155.483 42.5324 156.775 42.5324Z" fill="white"/>
<path d="M171.17 31.892C171.638 31.1101 172.256 30.505 173.023 30.0768C173.809 29.6299 174.736 29.4065 175.803 29.4065V32.7019H174.989C173.734 32.7019 172.78 33.0185 172.125 33.6515C171.488 34.2845 171.17 35.383 171.17 36.9469V45.0458H167.969V29.6579H171.17V31.892Z" fill="white"/>
<path d="M192.924 36.9748C192.924 37.552 192.887 38.0733 192.812 38.5388H180.991C181.085 39.7676 181.543 40.7543 182.367 41.4991C183.191 42.2438 184.201 42.6161 185.399 42.6161C187.121 42.6161 188.338 41.8993 189.049 40.4657H192.503C192.035 41.8807 191.183 43.0444 189.948 43.9567C188.731 44.8503 187.215 45.2972 185.399 45.2972C183.921 45.2972 182.592 44.9713 181.412 44.3197C180.252 43.6495 179.335 42.7185 178.661 41.527C178.006 40.3168 177.678 38.9204 177.678 37.3379C177.678 35.7553 177.996 34.3683 178.633 33.1767C179.288 31.9665 180.196 31.0356 181.356 30.384C182.535 29.7323 183.883 29.4065 185.399 29.4065C186.859 29.4065 188.16 29.723 189.302 30.356C190.444 30.9891 191.333 31.8827 191.969 33.0371C192.606 34.1728 192.924 35.4854 192.924 36.9748ZM189.583 35.9694C189.564 34.7965 189.143 33.8563 188.319 33.1488C187.496 32.4413 186.476 32.0875 185.259 32.0875C184.154 32.0875 183.209 32.4413 182.423 33.1488C181.637 33.8377 181.169 34.7779 181.019 35.9694H189.583Z" fill="white"/>
<g clip-path="url(#clip1_4421_45250)">
<path fill-rule="evenodd" clip-rule="evenodd" d="M52.7436 19.9383V42.1431C52.7459 43.2586 52.5265 44.3637 52.0982 45.3947C51.6698 46.4258 51.0409 47.3626 50.2475 48.1514C49.4541 48.9402 48.5118 49.5655 47.4747 49.9914C46.4377 50.4173 45.3262 50.6354 44.2042 50.6331H21.8703C20.7482 50.6354 19.6368 50.4173 18.5997 49.9914C17.5626 49.5655 16.6204 48.9402 15.827 48.1514C15.0336 47.3626 14.4046 46.4258 13.9763 45.3947C13.5479 44.3637 13.3286 43.2586 13.3308 42.1431V19.9383C13.3286 18.8228 13.5479 17.7177 13.9763 16.6867C14.4046 15.6556 15.0336 14.7188 15.827 13.93C16.6204 13.1412 17.5626 12.5159 18.5997 12.09C19.6368 11.6641 20.7482 11.446 21.8703 11.4483H44.2042C45.3262 11.446 46.4377 11.6641 47.4747 12.09C48.5118 12.5159 49.4541 13.1412 50.2475 13.93C51.0409 14.7188 51.6698 15.6556 52.0982 16.6867C52.5265 17.7177 52.7459 18.8228 52.7436 19.9383Z" fill="url(#paint0_linear_4421_45250)"/>
<path fill-rule="evenodd" clip-rule="evenodd" d="M40.46 33.9795H45.3537C45.8328 33.9795 46.2923 34.1687 46.631 34.5055C46.9698 34.8423 47.1601 35.2991 47.1601 35.7755C47.1601 36.2518 46.9698 36.7086 46.631 37.0454C46.2923 37.3822 45.8328 37.5714 45.3537 37.5714H40.46V33.9795Z" fill="white"/>
<path fill-rule="evenodd" clip-rule="evenodd" d="M34.4495 33.9799C34.7908 33.9779 35.1291 34.0433 35.4449 34.1722C35.7606 34.3011 36.0474 34.491 36.2888 34.731C36.5301 34.9709 36.7212 35.2561 36.8508 35.57C36.9805 35.8839 37.0462 36.2203 37.0442 36.5596C37.0455 36.9066 36.9786 37.2505 36.8471 37.5719H20.7207C20.2416 37.5719 19.7822 37.3827 19.4434 37.0459C19.1046 36.7091 18.9143 36.2522 18.9143 35.7759C18.9143 35.2996 19.1046 34.8428 19.4434 34.506C19.7822 34.1692 20.2416 33.9799 20.7207 33.9799H34.4495ZM33.9897 22.1592V25.294H31.8877L29.3259 20.9183C29.2133 20.7253 29.1402 20.5122 29.1106 20.2911C29.081 20.0699 29.0955 19.8452 29.1534 19.6297C29.2112 19.4141 29.3112 19.2121 29.4477 19.035C29.5842 18.8579 29.7544 18.7094 29.9487 18.5978C30.1429 18.4862 30.3574 18.4137 30.5799 18.3846C30.8023 18.3555 31.0284 18.3703 31.2451 18.4281C31.4618 18.4859 31.6649 18.5857 31.8428 18.7216C32.0207 18.8575 32.1699 19.027 32.2818 19.2203L33.9897 22.1592ZM35.7961 25.196L44.7625 40.6414C45.0021 41.0527 45.0675 41.5419 44.9443 42.0012C44.8211 42.4605 44.5194 42.8523 44.1057 43.0904C43.6919 43.3286 43.1999 43.3936 42.738 43.2711C42.276 43.1486 41.8819 42.8487 41.6424 42.4374L36.2231 33.0656C35.7304 32.1513 35.3692 31.4329 35.1392 31.0411C34.5995 30.1268 34.3718 29.0635 34.4902 28.01C34.6086 26.9564 35.0667 25.9693 35.7961 25.196Z" fill="white"/>
<path fill-rule="evenodd" clip-rule="evenodd" d="M28.4391 35.6126H24.2679L33.6941 19.3835C33.9337 18.9722 34.3278 18.6723 34.7897 18.5498C35.2517 18.4273 35.7436 18.4923 36.1574 18.7305C36.5712 18.9686 36.8728 19.3604 36.996 19.8197C37.1192 20.279 37.0538 20.7681 36.8143 21.1795L28.4391 35.6126ZM26.2385 39.3678L24.4978 42.4047C24.3792 42.6083 24.2214 42.7868 24.0334 42.9299C23.8454 43.0729 23.6309 43.1778 23.4022 43.2384C23.1734 43.2991 22.9349 43.3143 22.7003 43.2833C22.4656 43.2523 22.2394 43.1757 22.0345 43.0577C21.8296 42.9398 21.6501 42.7829 21.5062 42.596C21.3623 42.4091 21.2569 42.1959 21.1959 41.9685C21.1349 41.741 21.1195 41.5039 21.1507 41.2706C21.1819 41.0373 21.259 40.8124 21.3776 40.6087L22.6585 38.3882C23.0563 38.1914 23.4952 38.0907 23.9394 38.0943C24.4028 38.0792 24.8616 38.1897 25.2666 38.4141C25.6716 38.6384 26.0076 38.9681 26.2385 39.3678Z" fill="white"/>
</g>
</g>
<defs>
<linearGradient id="paint0_linear_4421_45250" x1="33.0369" y1="50.6331" x2="33.0369" y2="11.4483" gradientUnits="userSpaceOnUse">
<stop stop-color="#1D6FF2"/>
<stop offset="1" stop-color="#1AC8FC"/>
</linearGradient>
<clipPath id="clip0_4421_45250">
<rect width="207" height="61" fill="white" transform="translate(0 0.5)"/>
</clipPath>
<clipPath id="clip1_4421_45250">
<rect width="39.4128" height="39.1849" fill="white" transform="translate(13.3308 11.4482)"/>
</clipPath>
</defs>
</svg>
