<svg width="25" height="24" viewBox="0 0 25 24" fill="none" xmlns="http://www.w3.org/2000/svg">
<path d="M22.4329 13.0627C22.9131 13.0627 23.3024 12.6734 23.3024 12.1932C23.3024 11.713 22.9131 11.3237 22.4329 11.3237H5.20305C4.72285 11.3237 4.33357 11.713 4.33357 12.1932C4.33357 12.6734 4.72285 13.0627 5.20305 13.0627H22.4329Z" fill="#FFD45F"/>
<path d="M10.2651 5.00715C10.633 4.69848 11.1814 4.74647 11.4901 5.11432C11.7987 5.48218 11.7508 6.03061 11.3829 6.33927L4.40769 12.1922L11.3828 18.045C11.7507 18.3537 11.7987 18.9021 11.49 19.27C11.1813 19.6378 10.6329 19.6858 10.265 19.3771L2.25013 12.6518C1.96436 12.412 1.96436 11.9723 2.25013 11.7325L10.2651 5.00715Z" fill="#FFD45F"/>
</svg>
