<svg width="78" height="32" viewBox="0 0 78 32" fill="none" xmlns="http://www.w3.org/2000/svg">
<path d="M58.3961 3.22168C58.3961 4.09076 58.3961 4.96078 58.3961 5.8478C58.6588 5.8478 58.911 5.8478 59.1707 5.8478C59.1707 10.7316 59.1707 15.5985 59.1707 20.4851C58.9138 20.4851 58.6569 20.4851 58.3914 20.4851C58.3886 20.5551 58.3839 20.6061 58.3839 20.6571C58.3839 21.512 58.3857 22.3669 58.381 23.2218C58.3801 23.3352 58.4141 23.3984 58.5133 23.4551C60.9221 24.8409 63.33 26.2296 65.7361 27.6201C65.822 27.6702 65.8844 27.6749 65.9741 27.6229C68.3849 26.2286 70.7966 24.8381 73.2101 23.4495C73.297 23.3994 73.3329 23.3465 73.3329 23.2426C73.3301 20.4587 73.3301 17.6758 73.3329 14.8919C73.3329 14.7899 73.3018 14.7341 73.213 14.6831C70.7947 13.2926 68.3782 11.8992 65.9628 10.503C65.8768 10.453 65.8182 10.4634 65.7389 10.5097C65.1551 10.8507 64.5675 11.1879 63.9819 11.5251C63.9337 11.5535 63.8836 11.579 63.809 11.6196C63.809 11.2625 63.8061 10.9272 63.8128 10.5918C63.8137 10.5578 63.8581 10.5134 63.894 10.4926C64.5194 10.129 65.1485 9.77093 65.772 9.40535C65.8617 9.35245 65.9155 9.39213 65.9817 9.42992C67.5007 10.3066 69.0206 11.1822 70.5396 12.0589C71.7346 12.7475 72.9277 13.439 74.1255 14.1229C74.236 14.1862 74.2747 14.2533 74.2747 14.3789C74.271 17.501 74.271 20.624 74.2757 23.7461C74.2757 23.8812 74.2266 23.9473 74.1151 24.0115C71.4134 25.5664 68.7127 27.1241 66.0128 28.6819C65.9647 28.7102 65.9193 28.7442 65.873 28.7754C65.8626 28.7754 65.8523 28.7754 65.8419 28.7754C65.7956 28.7442 65.7512 28.7093 65.7021 28.6819C62.9975 27.1213 60.2939 25.5608 57.5866 24.004C57.4751 23.9397 57.4392 23.8708 57.4392 23.747C57.4439 22.7259 57.442 21.7037 57.442 20.6826C57.442 20.6212 57.442 20.5598 57.442 20.487C57.1738 20.487 56.9244 20.487 56.675 20.487C56.675 15.6079 56.675 10.7279 56.675 5.84875C56.9225 5.84875 57.17 5.84875 57.426 5.84875C57.426 4.95889 57.426 4.08981 57.426 3.22168C57.7491 3.22168 58.0731 3.22168 58.3961 3.22168Z" fill="#FFC107"/>
<path d="M61.4282 19.8652C61.1646 19.8652 60.9171 19.8652 60.6583 19.8652C60.6583 16.0658 60.6583 12.2796 60.6583 8.48121C60.8945 8.48121 61.1268 8.48121 61.3762 8.48121C61.3762 8.08068 61.3762 7.69243 61.3762 7.28906C61.7172 7.28906 62.0413 7.28906 62.3823 7.28906C62.3823 7.68015 62.3823 8.0684 62.3823 8.47082C62.6411 8.47082 62.8839 8.47082 63.1389 8.47082C63.1389 12.2711 63.1389 16.0573 63.1389 19.8605C62.8877 19.8605 62.6354 19.8605 62.3681 19.8605C62.3681 20.2563 62.3653 20.6351 62.3719 21.0148C62.3728 21.0535 62.4172 21.1055 62.455 21.1272C63.5621 21.7696 64.6712 22.4091 65.783 23.0458C65.8217 23.0675 65.8954 23.0666 65.9342 23.0449C67.0451 22.4082 68.1541 21.7686 69.2612 21.1253C69.3037 21.1008 69.3425 21.0309 69.3434 20.9818C69.3481 19.7046 69.3481 18.4274 69.3434 17.1503C69.3434 17.1011 69.3028 17.0322 69.2603 17.0067C68.1531 16.3634 67.0451 15.7229 65.9332 15.0881C65.8898 15.0635 65.8038 15.0768 65.7556 15.1041C65.1671 15.4376 64.5814 15.7767 63.9948 16.1149C63.9419 16.1452 63.8881 16.1735 63.8096 16.2169C63.8096 15.8599 63.8068 15.5245 63.8134 15.1892C63.8144 15.1552 63.8588 15.1108 63.8947 15.09C64.52 14.7263 65.1463 14.3645 65.7755 14.0074C65.818 13.9838 65.8973 13.9828 65.9389 14.0065C67.3615 14.8217 68.7823 15.6398 70.2002 16.4626C70.2446 16.4881 70.2824 16.5674 70.2833 16.6222C70.288 18.2536 70.288 19.885 70.2833 21.5174C70.2833 21.5703 70.2399 21.6468 70.1945 21.6732C68.7813 22.4932 67.3653 23.3094 65.9474 24.1218C65.902 24.1473 65.8161 24.1473 65.7707 24.1218C64.3528 23.3094 62.9368 22.4941 61.5236 21.6732C61.4754 21.6458 61.4357 21.5608 61.4348 21.5023C61.4282 21.0177 61.431 20.533 61.431 20.0475C61.4282 19.9899 61.4282 19.9332 61.4282 19.8652Z" fill="#FFC107"/>
<path d="M72.9723 23.1803C72.689 23.3447 72.4282 23.4958 72.1685 23.646C70.1214 24.8268 68.0743 26.0058 66.0292 27.1894C65.9177 27.2536 65.8412 27.2621 65.7231 27.1941C63.4116 25.8575 61.0981 24.5264 58.7818 23.1973C58.676 23.1369 58.642 23.0726 58.643 22.9527C58.6486 22.2593 58.6458 21.5659 58.6458 20.8725C58.6458 20.8215 58.6458 20.8782 58.6458 20.8159C58.899 20.8159 59.3174 20.8159 59.5716 20.8159C59.5716 16.7369 59.5716 12.5625 59.5716 8.48535C59.923 8.48535 59.9069 8.48535 60.2536 8.48535C60.2536 12.3565 60.2574 16.3477 60.2574 20.2302C60.4576 20.2302 60.8147 20.2302 61.0225 20.2302C61.0225 20.3029 61.0225 20.233 61.0225 20.2887C61.0225 20.7318 61.0188 21.1748 61.0263 21.6179C61.0273 21.6764 61.0688 21.7596 61.117 21.7879C62.6606 22.7052 64.2079 23.6167 65.7514 24.534C65.8421 24.5878 65.8941 24.5519 65.9602 24.5132C67.465 23.6337 68.9708 22.7543 70.4747 21.871C70.5711 21.8144 70.64 21.8059 70.7401 21.8654C71.4345 22.2763 72.1326 22.6806 72.8288 23.0877C72.8703 23.1132 72.9081 23.1397 72.9723 23.1803Z" fill="#FFC107"/>
<path d="M4.9974 20.5102C5.42085 20.7004 5.90782 20.7955 6.4583 20.7955H7.45871C8.3903 20.7955 9.14722 20.5577 9.72947 20.0823C10.1847 20.5577 10.7616 20.7955 11.4603 20.7955H13.0757C13.912 20.7955 14.6001 20.5841 15.14 20.1615C15.6138 20.5556 16.2257 20.7659 16.9756 20.7926V20.7955H17.3408C17.9971 20.7955 18.5582 20.6581 19.024 20.3834C19.4898 20.0981 19.8392 19.7178 20.0721 19.2423C20.305 18.7669 20.4055 18.2386 20.3738 17.6575L20.0721 9.8125L18.0713 9.90759L18.373 17.7526C18.3835 18.0061 18.3147 18.2016 18.1665 18.339C18.0289 18.4763 17.7537 18.545 17.3408 18.545H17.1408C16.7597 18.545 16.5003 18.4869 16.3627 18.3706C16.2251 18.2439 16.1404 18.0061 16.1087 17.6575V17.6258L15.934 15.6764L13.9332 15.8666L14.1078 17.816V17.8477C14.129 18.1012 14.0655 18.2808 13.9173 18.3865C13.7691 18.4922 13.4885 18.545 13.0757 18.545H11.4603C11.2063 18.545 11.021 18.4552 10.9045 18.2756C10.7987 18.0854 10.6769 17.7103 10.5393 17.1503L9.34836 12.4909L7.39519 13.0297L8.57027 17.6733L8.61791 17.8635C8.62849 17.8952 8.63379 17.9427 8.63379 18.0061C8.63379 18.3654 8.33208 18.545 7.72866 18.545H6.10896C5.89723 18.545 5.73844 18.5239 5.63257 18.4816C5.5373 18.4288 5.48437 18.339 5.47378 18.2122C5.45261 18.0748 5.44202 17.8582 5.44202 17.5624H3.60001C3.60001 18.0907 3.6053 18.434 3.61589 18.5925C3.63706 18.994 3.76409 19.3638 3.99699 19.7019C4.24048 20.04 4.57394 20.3094 4.9974 20.5102Z" fill="#FFC107"/>
<path d="M29.6227 20.7638C30.2261 20.7849 31.1259 20.7955 32.3222 20.7955H36.1491C36.9748 20.7955 37.6577 20.5841 38.1976 20.1615C38.7144 20.5826 39.3837 20.794 40.2054 20.7955C40.2084 20.7955 40.2113 20.7955 40.2142 20.7955H43.0002C43.8365 20.7955 44.5246 20.5841 45.0645 20.1615C45.5393 20.5564 46.1526 20.7668 46.9046 20.7927V20.7955H48.159C49.1542 20.7955 49.9587 20.5208 50.5727 19.9713C51.1867 19.4114 51.4937 18.6665 51.4937 17.7367C51.4937 17.3458 51.4408 16.9443 51.3349 16.5322L50.6998 14.1708L48.7625 14.7414L49.3976 17.1028C49.4612 17.3352 49.4929 17.5307 49.4929 17.6892C49.4929 18.0061 49.3818 18.228 49.1595 18.3548C48.9477 18.4816 48.6143 18.545 48.159 18.545H47.0654C46.6842 18.545 46.4249 18.4922 46.2873 18.3865C46.1602 18.2808 46.0755 18.059 46.0332 17.7209V17.6258L45.8585 15.6764L43.8577 15.8666L44.0324 17.816V17.8477C44.0536 18.1012 43.99 18.2808 43.8418 18.3865C43.6936 18.4922 43.4131 18.545 43.0002 18.545H40.2142C39.8226 18.545 39.5579 18.4869 39.4203 18.3706C39.2932 18.2544 39.2138 18.0167 39.1821 17.6575V17.6258L39.0074 15.6764L37.0066 15.8666L37.1813 17.816V17.8477C37.2025 18.1012 37.1336 18.2808 36.9748 18.3865C36.8266 18.4922 36.5514 18.545 36.1491 18.545H32.4016C30.7607 18.545 29.6756 18.5291 29.1463 18.4974C28.617 18.4552 28.2412 18.3812 28.0188 18.2756C27.8389 18.2016 27.7066 18.1171 27.6219 18.022C27.5372 17.9163 27.4948 17.7843 27.4948 17.6258C27.4948 17.5096 27.5213 17.3563 27.5742 17.1662L28.1935 14.7731L26.2562 14.1867L25.6528 16.5005C25.5575 16.8809 25.5099 17.2507 25.5099 17.6099C25.5099 18.2333 25.6528 18.7827 25.9386 19.2582C26.2351 19.7336 26.6638 20.0928 27.2249 20.3359C27.5425 20.4732 27.8706 20.5736 28.2094 20.637C28.5587 20.7004 29.0298 20.7426 29.6227 20.7638Z" fill="#FFC107"/>
<path d="M15.3147 12.063H13.2345V14.1391H15.3147V12.063Z" fill="#FFC107"/>
<path d="M31.7505 13.0614H29.8926V14.8998H31.7505V13.0614Z" fill="#FFC107"/>
<path d="M35.0058 13.0614H33.1479V14.8998H35.0058V13.0614Z" fill="#FFC107"/>
<path d="M41.0947 22.2377H39.2368V24.0761H41.0947V22.2377Z" fill="#FFC107"/>
<path d="M44.35 22.2377H42.4921V24.0761H44.35V22.2377Z" fill="#FFC107"/>
<path d="M49.1753 22.095H47.0793V24.1712H49.1753V22.095Z" fill="#FFC107"/>
</svg>
