<svg width="14" height="14" viewBox="0 0 14 14" fill="none" xmlns="http://www.w3.org/2000/svg">
<path d="M6.44198 0.449054C6.73958 0.11594 7.26081 0.11594 7.55841 0.449054C7.79533 0.714249 8.18614 0.776146 8.49341 0.597143C8.87938 0.372297 9.3751 0.533366 9.5552 0.942139C9.69858 1.26757 10.0511 1.4472 10.3987 1.37191C10.8352 1.27734 11.2569 1.58372 11.3019 2.02813C11.3377 2.38194 11.6175 2.66173 11.9713 2.69752C12.4157 2.74249 12.7221 3.16417 12.6275 3.60073C12.5522 3.94829 12.7318 4.30083 13.0573 4.44421C13.466 4.62431 13.6271 5.12003 13.4023 5.506C13.2233 5.81328 13.2852 6.20408 13.5504 6.441C13.8835 6.7386 13.8835 7.25983 13.5504 7.55743C13.2852 7.79436 13.2233 8.18516 13.4023 8.49244C13.6271 8.87841 13.466 9.37413 13.0573 9.55422C12.7318 9.6976 12.5522 10.0501 12.6275 10.3977C12.7221 10.8343 12.4157 11.2559 11.9713 11.3009C11.6175 11.3367 11.3377 11.6165 11.3019 11.9703C11.2569 12.4147 10.8352 12.7211 10.3987 12.6265C10.0511 12.5512 9.69858 12.7309 9.5552 13.0563C9.3751 13.4651 8.87938 13.6261 8.49341 13.4013C8.18614 13.2223 7.79533 13.2842 7.55841 13.5494C7.26081 13.8825 6.73958 13.8825 6.44198 13.5494C6.20506 13.2842 5.81425 13.2223 5.50698 13.4013C5.12101 13.6261 4.62528 13.4651 4.44519 13.0563C4.30181 12.7309 3.94926 12.5512 3.60171 12.6265C3.16515 12.7211 2.74346 12.4147 2.6985 11.9703C2.6627 11.6165 2.38292 11.3367 2.02911 11.3009C1.58469 11.2559 1.27832 10.8343 1.37289 10.3977C1.44818 10.0501 1.26854 9.6976 0.943116 9.55422C0.534343 9.37413 0.373274 8.87841 0.59812 8.49244C0.777123 8.18516 0.715226 7.79436 0.45003 7.55743C0.116917 7.25983 0.116917 6.7386 0.45003 6.441C0.715226 6.20408 0.777123 5.81328 0.59812 5.506C0.373274 5.12003 0.534343 4.62431 0.943116 4.44421C1.26854 4.30083 1.44818 3.94829 1.37289 3.60073C1.27832 3.16417 1.58469 2.74249 2.02911 2.69752C2.38292 2.66173 2.6627 2.38194 2.6985 2.02813C2.74346 1.58372 3.16515 1.27734 3.60171 1.37191C3.94926 1.4472 4.30181 1.26757 4.44519 0.942139C4.62528 0.533366 5.12101 0.372297 5.50698 0.597143C5.81425 0.776146 6.20506 0.714249 6.44198 0.449054Z" fill="#4CAF50"/>
<path d="M5.2329 9.26273L3.13715 7.5785C3.09371 7.54374 3.05919 7.50213 3.03563 7.45615C3.01207 7.41017 2.99995 7.36079 3 7.31087C3.0013 7.20936 3.05139 7.11243 3.13929 7.04137C3.22718 6.97031 3.34569 6.93093 3.46876 6.93189C3.59358 6.93189 3.71331 6.97254 3.80198 7.04502L5.56826 8.4645L10.239 4.68408L10.2406 4.68524C10.33 4.62535 10.4433 4.59503 10.5583 4.60017C10.6732 4.60531 10.7818 4.64551 10.8628 4.71302C10.945 4.78014 10.9937 4.87026 10.9994 4.96556C11.0052 5.06087 10.9676 5.15448 10.8939 5.228L10.8888 5.23208C10.8814 5.2391 10.8737 5.24585 10.8658 5.25219C10.8558 5.26067 10.8452 5.26866 10.8342 5.27616L5.89318 9.26726C5.80648 9.34277 5.68949 9.38978 5.56397 9.39961C5.43767 9.38714 5.32058 9.33874 5.2329 9.26273Z" fill="#F8F8F8"/>
</svg>
