<svg width="24" height="24" viewBox="0 0 24 24" fill="none" xmlns="http://www.w3.org/2000/svg">
<g clip-path="url(#clip0_6621_924)">
<path d="M4.02972 15.916C4.50345 16.0993 5.22769 16.2375 5.7395 16.2381C5.75991 16.24 5.78063 16.2407 5.80176 16.2406C5.99349 16.2406 6.17736 16.1645 6.31293 16.0289C6.4485 15.8934 6.52466 15.7095 6.52466 15.5178C6.52464 15.3285 6.45041 15.1468 6.31793 15.0117C6.18544 14.8766 6.00525 14.7988 5.81605 14.7951C4.20129 14.6601 3.06732 13.6119 2.86954 12.03C2.76966 11.2321 2.97489 10.629 3.49662 10.1861C3.92977 9.81834 4.57686 9.55087 5.59484 9.31859C5.95304 6.69599 8.0621 3.63319 10.845 3.25812C11.0699 3.22795 11.2966 3.21282 11.5235 3.21282C13.8869 3.21282 16.3032 4.88929 17.3998 7.28972C19.4915 7.89241 20.5802 9.12902 20.5481 10.8658C20.5166 12.5621 19.3946 14.0111 17.7808 14.6376C17.7754 14.6396 17.77 14.6417 17.7645 14.6439C17.7464 14.6509 17.7283 14.6577 17.7101 14.6644C17.7042 14.6667 17.6991 14.6708 17.6954 14.676C17.5791 14.7374 17.4818 14.8294 17.4139 14.9421C17.346 15.0548 17.3102 15.1838 17.3102 15.3154C17.3102 15.5071 17.3864 15.691 17.5219 15.8265C17.6575 15.9621 17.8414 16.0383 18.0331 16.0383C18.0749 16.0383 18.1167 16.0347 18.1579 16.0275C18.1594 16.0279 18.161 16.0279 18.1625 16.0275L18.1738 16.0246C18.2096 16.0176 18.2448 16.0078 18.2792 15.9954C18.7828 15.85 19.2612 15.6284 19.6979 15.3384C20.1568 15.0338 20.5638 14.6575 20.9035 14.2239C21.2436 13.7906 21.5121 13.3056 21.6986 12.7873C21.8899 12.2559 21.9924 11.6967 22.002 11.132C22.0123 10.5674 21.9296 10.0049 21.7573 9.46707C21.5892 8.94251 21.3381 8.44831 21.0135 8.0033C20.6893 7.558 20.2957 7.16757 19.8479 6.84688C19.3888 6.51795 18.8786 6.26687 18.3379 6.10374C18.0543 5.45125 17.6757 4.8443 17.2145 4.30259C16.7646 3.7745 16.2409 3.31405 15.6595 2.93548C15.0808 2.55832 14.4509 2.26601 13.7892 2.06746C13.1179 1.86599 12.4208 1.76364 11.72 1.76367C11.3804 1.76383 11.0413 1.78776 10.7052 1.8353C9.91847 1.9461 9.15552 2.18627 8.44721 2.54607C7.75639 2.89677 7.12663 3.35655 6.58215 3.90769C6.03714 4.45825 5.58441 5.09304 5.24135 5.78764C4.88945 6.49989 4.65783 7.26547 4.55588 8.05335C3.57237 8.28893 2.70959 8.87747 2.1314 9.70722C1.5532 10.537 1.29981 11.5502 1.41938 12.5544C1.47889 13.0595 1.63173 13.5492 1.87008 13.9986C1.98581 14.2166 2.1208 14.4238 2.27349 14.6177C2.42529 14.8103 2.59387 14.989 2.77725 15.1518C2.96062 15.3146 3.15803 15.4608 3.36714 15.5887C3.57778 15.7174 3.79953 15.8269 4.02972 15.916Z" fill="white"/>
<path fill-rule="evenodd" clip-rule="evenodd" d="M8.39844 18.6558L9.78797 21.0657C10.2825 21.914 10.959 22.3824 11.6982 22.3824C12.4373 22.3824 13.1139 21.914 13.6031 21.0657L14.9928 18.6558C15.4821 17.8074 15.5497 16.9903 15.1802 16.3448C14.8106 15.7048 14.0663 15.3508 13.0878 15.3508H12.4232V11.6431H12.4209C12.4064 11.462 12.3241 11.293 12.1906 11.1697C12.057 11.0465 11.882 10.9781 11.7002 10.9781C11.5185 10.9781 11.3434 11.0465 11.2099 11.1697C11.0763 11.293 10.9941 11.462 10.9796 11.6431H10.9773V15.3508H10.3085C9.32998 15.3508 8.58576 15.7048 8.21622 16.3448C8.056 16.6214 7.97327 16.9361 7.97676 17.2557C7.97676 17.6929 8.11732 18.1718 8.39844 18.6558ZM9.77857 18.315C9.52669 17.8517 9.47707 17.4328 9.64119 17.1306C9.80517 16.8285 10.1753 16.6633 10.679 16.6633H12.7166C13.2202 16.6633 13.5903 16.8285 13.7543 17.1306C13.819 17.2549 13.8519 17.3933 13.8497 17.5335C13.8497 17.7671 13.7733 18.0331 13.617 18.315L12.5982 20.1801C12.3464 20.6433 12.026 20.8972 11.6977 20.8972C11.3695 20.8972 11.049 20.6433 10.7973 20.1801L9.77857 18.315Z" fill="white"/>
</g>
<defs>
<clipPath id="clip0_6621_924">
<rect width="24" height="24" fill="white"/>
</clipPath>
</defs>
</svg>
