<svg width="24" height="24" viewBox="0 0 24 24" fill="none" xmlns="http://www.w3.org/2000/svg">
<path d="M11.1031 15.2646L11.1031 21.305C11.0991 21.3404 11.0971 21.3759 11.0971 21.4116C11.0969 21.5289 11.1198 21.6448 11.1645 21.7532C11.2092 21.8616 11.2749 21.9603 11.3577 22.0433C11.4406 22.1262 11.5389 22.1917 11.6472 22.2366C11.7555 22.2815 11.8716 22.3052 11.9888 22.3052C12.2273 22.3055 12.4563 22.2115 12.626 22.0438C12.7957 21.8762 12.8923 21.6484 12.8948 21.4099C12.8948 21.3859 12.8948 21.3618 12.8948 21.3378L12.8948 15.2646C12.8948 15.2646 13.4342 15.2646 12.0086 15.2646C10.583 15.2646 11.1031 15.2646 11.1031 15.2646Z" fill="#FFC107"/>
<path d="M5.28724 13.3445C6.00004 14.5793 7.43572 15.2646 9.32332 15.2646L11.9958 15.2646L14.6874 15.2646C16.575 15.2646 18.0107 14.5817 18.7235 13.3445C19.4363 12.0995 19.3056 10.5247 18.3636 8.88672L15.6828 4.23789C14.739 2.60169 13.434 1.69785 12.0084 1.69785C10.5828 1.69785 9.27711 2.60229 8.32371 4.23789L5.64305 8.88672C5.1398 9.69978 4.85927 10.631 4.82991 11.5867C4.82162 12.2031 4.97968 12.8102 5.28724 13.3445Z" fill="#4CAF50"/>
</svg>
