<svg width="30" height="31" viewBox="0 0 30 31" fill="none" xmlns="http://www.w3.org/2000/svg">
<g clip-path="url(#clip0_2994_180754)">
<g opacity="0.56" filter="url(#filter0_b_2994_180754)">
<path d="M7.0252 0.421879H22.9894C23.9108 0.420894 24.8233 0.601443 25.6749 0.953213C26.5265 1.30498 27.3004 1.82108 27.9524 2.47202C28.6045 3.12297 29.1219 3.896 29.4751 4.74696C29.8284 5.59793 30.0105 6.51014 30.0111 7.43151V23.4085C30.0115 24.3305 29.8301 25.2435 29.4773 26.0953C29.1245 26.9472 28.6073 27.7211 27.9551 28.3728C27.3029 29.0246 26.5287 29.5413 25.6766 29.8936C24.8246 30.2458 23.9114 30.4266 22.9894 30.4256H7.0252C6.10384 30.4261 5.19141 30.2451 4.34003 29.8929C3.48866 29.5406 2.71502 29.0241 2.06331 28.3728C1.4116 27.7215 0.894588 26.9482 0.541817 26.0971C0.189045 25.2459 0.00742262 24.3336 0.00732422 23.4123L0.00732422 7.43151C0.00851749 5.57137 0.748545 3.78789 2.06463 2.47335C3.38072 1.15881 5.16507 0.420884 7.0252 0.421879V0.421879Z" fill="white" fill-opacity="0.2"/>
</g>
<path d="M20.8811 11.4791H9.24585L15.0635 4.97656L20.8796 11.4784L20.8811 11.4791Z" fill="#FFC107"/>
<path d="M15.0635 26.1108L8.8313 12.7109H21.2957L15.0621 26.1108H15.0635Z" fill="#FFC107"/>
<path d="M17.1321 24.5244L22.6245 12.7148H28.5739L17.1321 24.5244Z" fill="#FFD45F"/>
<path d="M13.0007 24.5348L1.54126 12.7109H7.50245L13.0007 24.5348Z" fill="#FFD45F"/>
<path d="M28.552 11.4757H22.8472V5.58594L28.5491 11.4742L28.552 11.4757Z" fill="#FFC107"/>
<path d="M21.6486 10.5151L16.4316 4.68359H21.6501V10.5166L21.6486 10.5151Z" fill="#FFD45F"/>
<path d="M8.48096 10.5144V4.68359H13.6935L8.48535 10.5151L8.48096 10.5144Z" fill="#FFD45F"/>
<path d="M7.27977 11.4764H1.54126L7.27977 5.55078V11.4764Z" fill="#FFC107"/>
</g>
<defs>
<filter id="filter0_b_2994_180754" x="-3.99268" y="-3.57812" width="38.0037" height="38.0039" filterUnits="userSpaceOnUse" color-interpolation-filters="sRGB">
<feFlood flood-opacity="0" result="BackgroundImageFix"/>
<feGaussianBlur in="BackgroundImageFix" stdDeviation="2"/>
<feComposite in2="SourceAlpha" operator="in" result="effect1_backgroundBlur_2994_180754"/>
<feBlend mode="normal" in="SourceGraphic" in2="effect1_backgroundBlur_2994_180754" result="shape"/>
</filter>
<clipPath id="clip0_2994_180754">
<rect width="30" height="30" fill="white" transform="translate(0 0.40625)"/>
</clipPath>
</defs>
</svg>
