<svg width="16" height="4" viewBox="0 0 16 4" fill="none" xmlns="http://www.w3.org/2000/svg">
<path d="M1.70077 0.378979C2.59552 0.378979 3.32085 1.10431 3.32085 1.99906C3.32085 2.89381 2.59552 3.61914 1.70077 3.61914C0.806023 3.61914 0.0806885 2.89381 0.0806885 1.99906C0.0806885 1.10431 0.806023 0.378979 1.70077 0.378979Z" fill="white"/>
<path d="M14.3014 0.378979C15.1961 0.378979 15.9215 1.10431 15.9215 1.99906C15.9215 2.89381 15.1961 3.61914 14.3014 3.61914C13.4067 3.61914 12.6813 2.89381 12.6813 1.99906C12.6813 1.10431 13.4067 0.378979 14.3014 0.378979Z" fill="white"/>
<path d="M7.70107 0.378979C8.59582 0.378979 9.32115 1.10431 9.32115 1.99906C9.32115 2.89381 8.59582 3.61914 7.70107 3.61914C6.80632 3.61914 6.08099 2.89381 6.08099 1.99906C6.08099 1.10431 6.80632 0.378979 7.70107 0.378979Z" fill="white"/>
</svg>
