<svg width="17" height="16" viewBox="0 0 17 16" fill="none" xmlns="http://www.w3.org/2000/svg">
<g clip-path="url(#clip0_6689_588)">
<path d="M14.9244 10.8747C14.9244 13.3751 13.4372 14.8623 10.9368 14.8623H9.4356V9.87466H9.77119L10.9784 9.85386C11.0268 9.85026 11.1384 9.85386 11.1384 9.85386C11.1384 9.85386 11.1696 9.72945 11.1784 9.68105L11.4184 8.37026C11.4252 8.34266 11.4508 8.13027 11.4508 8.13027H11.2144L9.75122 8.15107H9.402C9.402 8.15107 9.4056 7.90546 9.402 7.81226L9.37441 6.13228C9.37455 6.0781 9.39561 6.02606 9.4332 5.98706C9.47356 5.94931 9.52677 5.9283 9.58203 5.92827L11.2284 5.90063H11.4324V5.69307L11.4048 4.04668V3.84268H11.2008L9.34722 3.87026C9.07668 3.87283 8.80949 3.93052 8.56201 4.03984C8.31379 4.14668 8.0893 4.30182 7.90161 4.49624C7.71394 4.69057 7.56598 4.91967 7.46602 5.17065C7.36573 5.42237 7.31744 5.69177 7.32402 5.96265L7.35522 7.84746C7.35882 7.89226 7.35522 8.20024 7.35522 8.20024C7.35522 8.20024 7.06483 8.19664 7.01963 8.20024L6.19639 8.21064H5.99238V8.41826L6.01318 9.72227V9.92983H6.21719L7.04043 9.91626C7.13403 9.91266 7.39321 9.91626 7.39321 9.91626C7.39321 9.91626 7.38961 10.1619 7.39321 10.2519L7.452 14.1635C7.4556 14.2535 7.452 14.8623 7.452 14.8623H5.18999C2.68959 14.8623 1.20239 13.3751 1.20239 10.8675V5.12627C1.20239 2.62587 2.68959 1.13867 5.18999 1.13867H10.938C13.4384 1.13867 14.9256 2.62587 14.9256 5.12627L14.9244 10.8747Z" fill="#A6A6A6"/>
</g>
<defs>
<clipPath id="clip0_6689_588">
<rect width="16" height="16" fill="white" transform="translate(0.0625)"/>
</clipPath>
</defs>
</svg>
