<svg width="16" height="16" viewBox="0 0 16 16" fill="none" xmlns="http://www.w3.org/2000/svg">
<g clip-path="url(#clip0_957_12966)">
<path d="M8.44799 1.41624C9.95695 3.48782 10.7854 4.62522 10.8238 6.12677C10.8741 8.09868 8.95053 9.44453 9.20005 9.67676C9.80005 10.2685 11.9543 7.70416 12.1992 7.35927C12.559 6.8527 12.891 6.3135 13.2 5.73156C13.2 7.57595 13.2 9.44047 13.2 10.2685C13.2 10.5226 13.2 10.0145 13.2 10.2685C13.2 12.9921 10.8719 15.2 8.00005 15.2C5.12817 15.2 2.80005 12.9921 2.80005 10.2685C2.80005 9.06785 3.25251 7.96738 4.00456 7.11212L4.00005 7.11238C6.00005 4.94251 6.80005 3.36443 8.00005 0.800049C8.15542 1.0146 8.30477 1.21963 8.44799 1.41624Z" fill="#FFC107"/>
<path d="M7.99697 0.803223C11.5773 5.10473 10.8214 6.54189 10.6469 7.24801C10.6469 7.24801 8.00567 3.88207 7.99863 3.97411C7.82084 6.30029 3.71729 7.46885 3.71729 7.46885C6.58465 4.31553 7.32994 2.21568 7.99697 0.803223Z" fill="#FF2211"/>
</g>
<defs>
<clipPath id="clip0_957_12966">
<rect width="16" height="16" fill="white"/>
</clipPath>
</defs>
</svg>
