<svg width="15" height="15" viewBox="0 0 15 15" fill="none" xmlns="http://www.w3.org/2000/svg">
<path d="M0.800003 2.96655L8.46959 0.195312L14.8 3.39531L7.2 6.59531L0.800003 2.96655Z" fill="#DA8B18"/>
<path d="M1.33926 5.72266L7.19999 9.39444V14.621L1.33926 11.0018V5.72266Z" fill="#E7A919"/>
<path d="M14.4388 6.0332L7.19994 9.3957V14.5957L14.4388 11.3382V6.0332Z" fill="#D19916"/>
<path d="M14.8 3.39453L7.19995 6.59453V9.39453L14.8368 5.84667L14.8 3.39453Z" fill="#DFA41D"/>
<path d="M0.800003 2.9668L7.2 6.5957V9.3957L0.800003 5.38238V2.9668Z" fill="#F4B320"/>
<path d="M5.16791 2.83373L2.59999 3.99495C2.67273 7.14257 2.59999 11.8171 2.59999 11.8171L4.59999 13.0171V5.17421L7.45501 4.06825L9.77204 5.31892V13.4385L12 12.4365V4.4849L9.98869 3.06172L12.3052 2.14121L9.91746 0.875L7.51854 1.88207L5.16791 2.83373Z" fill="#C23432"/>
<path d="M6.21823 1.04825C5.77821 0.627035 5.26376 0.134573 4.20071 0.303666C3.47779 1.65897 3.43396 2.4495 3.65805 3.88522L6.62452 3.29189L6.95012 1.55538C6.70977 1.47128 6.43706 1.25773 6.21823 1.04825Z" fill="#FB4E4D"/>
<path d="M9.099 1.10423C9.65301 0.588366 10.2907 -0.00544393 11.1106 0.556308C11.5809 0.95487 11.3377 2.95694 10.8262 4.31705C9.92312 3.70001 9.22114 3.41492 8.10779 3.23401L8.14397 1.6697C8.41191 1.63419 8.79731 1.38515 9.099 1.10423Z" fill="#FB4E4D"/>
<path d="M6.83342 1.62287C6.85953 1.56883 6.91721 1.53748 6.97689 1.54376L8.13623 1.6658C8.20407 1.67294 8.25788 1.72649 8.26417 1.79441C8.3141 2.33277 8.28509 2.66445 8.16977 3.16184C8.15497 3.22566 8.09848 3.2709 8.03299 3.27236L6.6627 3.30281C6.58202 3.3046 6.51533 3.23989 6.51532 3.1592C6.51527 2.57352 6.55544 2.19817 6.83342 1.62287Z" fill="#EC4143"/>
<path d="M9.18311 4.26147C8.62625 4.05027 8.12469 3.23633 8.12469 3.23633C8.12469 3.23633 8.66432 3.25877 9.43569 3.46784C10.2071 3.67691 10.8577 4.18424 10.8212 4.31923C10.7846 4.45423 9.76344 4.48158 9.18311 4.26147Z" fill="#370404"/>
<path d="M4.98418 4.18738C5.4757 4.13236 6.53487 3.30926 6.53487 3.30926C6.53487 3.30926 5.61694 3.40039 4.95418 3.40039C4.29143 3.40039 3.69415 3.74715 3.69415 3.87943C3.69415 4.01171 4.47194 4.24472 4.98418 4.18738Z" fill="#370404"/>
</svg>
