<svg width="209" height="62" viewBox="0 0 209 62" fill="none" xmlns="http://www.w3.org/2000/svg">
<g clip-path="url(#clip0_4421_45238)">
<path d="M201.259 61.4894H7.74074C3.40593 61.4894 0 58.1356 0 53.8671V8.13307C0 3.86457 3.40593 0.510742 7.74074 0.510742H201.259C205.594 0.510742 209 3.86457 209 8.13307V53.8671C209 58.1356 205.594 61.4894 201.259 61.4894Z" fill="#1C1B19"/>
<path d="M201.259 1.73032C204.82 1.73032 207.761 4.6268 207.761 8.13307V53.8671C207.761 57.3733 204.82 60.2698 201.259 60.2698H7.74074C4.18 60.2698 1.23852 57.3733 1.23852 53.8671V8.13307C1.23852 4.6268 4.18 1.73032 7.74074 1.73032H201.259ZM201.259 0.510742H7.74074C3.40593 0.510742 0 4.01701 0 8.13307V53.8671C0 58.1356 3.40593 61.4894 7.74074 61.4894H201.259C205.594 61.4894 209 58.1356 209 53.8671V8.13307C209 4.01701 205.594 0.510742 201.259 0.510742Z" fill="#A6A6A6"/>
<path d="M73.3823 16.06C73.3823 17.2796 73.0726 18.3467 72.2986 19.109C71.3697 20.0236 70.286 20.481 68.8926 20.481C67.4993 20.481 66.4156 20.0236 65.4867 19.109C64.5578 18.1943 64.0934 17.1272 64.0934 15.7551C64.0934 14.3831 64.5578 13.316 65.4867 12.4013C66.4156 11.4866 67.4993 11.0293 68.8926 11.0293C69.5119 11.0293 70.1312 11.1817 70.7504 11.4866C71.3697 11.7915 71.8341 12.0964 72.1437 12.5538L71.3697 13.316C70.7504 12.5538 69.9763 12.2489 68.8926 12.2489C67.9638 12.2489 67.0349 12.5538 66.4156 13.316C65.6415 13.9258 65.3319 14.8405 65.3319 15.9076C65.3319 16.9747 65.6415 17.8894 66.4156 18.4992C67.1897 19.109 67.9638 19.5663 68.8926 19.5663C69.9763 19.5663 70.7504 19.2614 71.5245 18.4992C71.9889 18.0418 72.2986 17.4321 72.2986 16.6698H68.8926V15.4503H73.3823V16.06ZM80.5037 12.2489H76.3237V15.1454H80.1941V16.2125H76.3237V19.109H80.5037V20.3285H75.0852V11.1817H80.5037V12.2489ZM85.6126 20.3285H84.3741V12.2489H81.7423V11.1817H88.2445V12.2489H85.6126V20.3285ZM92.7341 20.3285V11.1817H93.9726V20.3285H92.7341ZM99.2363 20.3285H97.9978V12.2489H95.366V11.1817H101.713V12.2489H99.0815V20.3285H99.2363ZM113.944 19.109C113.015 20.0236 111.931 20.481 110.538 20.481C109.144 20.481 108.061 20.0236 107.132 19.109C106.203 18.1943 105.739 17.1272 105.739 15.7551C105.739 14.3831 106.203 13.316 107.132 12.4013C108.061 11.4866 109.144 11.0293 110.538 11.0293C111.931 11.0293 113.015 11.4866 113.944 12.4013C114.873 13.316 115.337 14.3831 115.337 15.7551C115.337 17.1272 114.873 18.1943 113.944 19.109ZM108.061 18.3467C108.68 18.9565 109.609 19.4139 110.538 19.4139C111.467 19.4139 112.396 19.109 113.015 18.3467C113.634 17.7369 114.099 16.8223 114.099 15.7551C114.099 14.688 113.789 13.7733 113.015 13.1636C112.396 12.5538 111.467 12.0964 110.538 12.0964C109.609 12.0964 108.68 12.4013 108.061 13.1636C107.442 13.7733 106.977 14.688 106.977 15.7551C106.977 16.8223 107.287 17.7369 108.061 18.3467ZM117.04 20.3285V11.1817H118.433L122.923 18.3467V11.1817H124.162V20.3285H122.923L118.124 12.8587V20.3285H117.04Z" fill="white"/>
<path d="M105.429 33.7441C101.713 33.7441 98.7719 36.4881 98.7719 40.2993C98.7719 43.958 101.713 46.8545 105.429 46.8545C109.144 46.8545 112.086 44.1105 112.086 40.2993C112.086 36.3357 109.144 33.7441 105.429 33.7441ZM105.429 44.1105C103.416 44.1105 101.713 42.4336 101.713 40.1469C101.713 37.8602 103.416 36.1832 105.429 36.1832C107.442 36.1832 109.144 37.7077 109.144 40.1469C109.144 42.4336 107.442 44.1105 105.429 44.1105ZM91.0311 33.7441C87.3156 33.7441 84.3741 36.4881 84.3741 40.2993C84.3741 43.958 87.3156 46.8545 91.0311 46.8545C94.7467 46.8545 97.6882 44.1105 97.6882 40.2993C97.6882 36.3357 94.7467 33.7441 91.0311 33.7441ZM91.0311 44.1105C89.0185 44.1105 87.3156 42.4336 87.3156 40.1469C87.3156 37.8602 89.0185 36.1832 91.0311 36.1832C93.0437 36.1832 94.7467 37.7077 94.7467 40.1469C94.7467 42.4336 93.0437 44.1105 91.0311 44.1105ZM73.8467 35.7259V38.4699H80.5037C80.3489 39.9944 79.7297 41.214 78.9556 41.9762C78.0267 42.8909 76.4785 43.958 73.8467 43.958C69.6667 43.958 66.5704 40.7566 66.5704 36.6406C66.5704 32.5245 69.8215 29.3231 73.8467 29.3231C76.0141 29.3231 77.7171 30.2378 78.9556 31.3049L80.9682 29.3231C79.2652 27.7987 77.0978 26.5791 74.0015 26.5791C68.4282 26.5791 63.6289 31.1525 63.6289 36.6406C63.6289 42.1287 68.4282 46.7021 74.0015 46.7021C77.0978 46.7021 79.2652 45.7874 81.123 43.8056C82.9808 41.9762 83.6 39.3846 83.6 37.4028C83.6 36.793 83.6 36.1832 83.4452 35.7259H73.8467ZM144.133 37.8602C143.513 36.3357 141.965 33.7441 138.559 33.7441C135.153 33.7441 132.367 36.3357 132.367 40.2993C132.367 43.958 135.153 46.8545 138.869 46.8545C141.81 46.8545 143.668 45.0251 144.287 43.958L142.12 42.4336C141.346 43.5007 140.417 44.2629 138.869 44.2629C137.321 44.2629 136.392 43.6531 135.618 42.2811L144.442 38.6224L144.133 37.8602ZM135.153 39.9944C135.153 37.5553 137.166 36.1832 138.559 36.1832C139.643 36.1832 140.727 36.793 141.036 37.5553L135.153 39.9944ZM127.877 46.2447H130.819V27.1889H127.877V46.2447ZM123.233 35.1161C122.459 34.3539 121.22 33.5916 119.672 33.5916C116.421 33.5916 113.324 36.4881 113.324 40.1469C113.324 43.8056 116.266 46.5496 119.672 46.5496C121.22 46.5496 122.459 45.7874 123.078 45.0251H123.233V45.9398C123.233 48.379 121.839 49.751 119.672 49.751C117.969 49.751 116.73 48.5314 116.421 47.4643L113.944 48.5314C114.718 50.2083 116.576 52.3426 119.827 52.3426C123.233 52.3426 126.019 50.3608 126.019 45.6349V34.049H123.233V35.1161ZM119.827 44.1105C117.814 44.1105 116.111 42.4336 116.111 40.1469C116.111 37.8602 117.814 36.1832 119.827 36.1832C121.839 36.1832 123.387 37.8602 123.387 40.1469C123.387 42.4336 121.839 44.1105 119.827 44.1105ZM157.602 27.1889H150.635V46.2447H153.576V39.0797H157.602C160.853 39.0797 163.949 36.793 163.949 33.1343C163.949 29.4756 160.853 27.1889 157.602 27.1889ZM157.756 36.3357H153.576V29.7805H157.756C159.924 29.7805 161.162 31.6098 161.162 32.9819C161.007 34.6588 159.769 36.3357 157.756 36.3357ZM175.56 33.5916C173.393 33.5916 171.225 34.5063 170.451 36.4881L173.083 37.5553C173.702 36.4881 174.631 36.1832 175.715 36.1832C177.263 36.1832 178.656 37.0979 178.811 38.6224V38.7748C178.347 38.4699 177.108 38.0126 175.87 38.0126C173.083 38.0126 170.296 39.5371 170.296 42.2811C170.296 44.8727 172.619 46.5496 175.096 46.5496C177.108 46.5496 178.037 45.6349 178.811 44.7203H178.966V46.2447H181.753V38.9273C181.443 35.5735 178.811 33.5916 175.56 33.5916ZM175.25 44.1105C174.322 44.1105 172.928 43.6531 172.928 42.4336C172.928 40.9091 174.631 40.4517 176.024 40.4517C177.263 40.4517 177.882 40.7566 178.656 41.0615C178.347 42.8909 176.799 44.1105 175.25 44.1105ZM191.506 34.049L188.255 42.2811H188.1L184.694 34.049H181.598L186.707 45.6349L183.765 52.0377H186.707L194.602 34.049H191.506ZM165.497 46.2447H168.439V27.1889H165.497V46.2447Z" fill="white"/>
<path d="M16.1007 11.9443C15.6363 12.4017 15.4814 13.1639 15.4814 14.0786V47.7693C15.4814 48.684 15.7911 49.4462 16.2555 49.9035L16.4103 50.056L35.6074 31.1526V30.8477L16.1007 11.9443Z" fill="url(#paint0_linear_4421_45238)"/>
<path d="M41.8 37.5556L35.4526 31.3053V30.848L41.8 24.5977L41.9549 24.7501L49.5408 29.0186C51.7082 30.2382 51.7082 32.22 49.5408 33.4396L41.8 37.5556Z" fill="url(#paint1_linear_4421_45238)"/>
<path d="M41.9548 37.4028L35.4526 31L16.1007 50.0558C16.8748 50.8181 17.9585 50.8181 19.3518 50.2083L41.9548 37.4028Z" fill="url(#paint2_linear_4421_45238)"/>
<path d="M41.9548 24.5976L19.3518 11.9445C17.9585 11.1823 16.8748 11.3347 16.1007 12.0969L35.4526 31.0003L41.9548 24.5976Z" fill="url(#paint3_linear_4421_45238)"/>
<path opacity="0.2" d="M41.8 37.25L19.3518 49.7506C18.1133 50.5129 17.0296 50.3604 16.2555 49.7506L16.1007 49.9031L16.2555 50.0555C17.0296 50.6653 18.1133 50.8177 19.3518 50.0555L41.8 37.25Z" fill="black"/>
<path opacity="0.12" d="M16.1007 49.7509C15.6363 49.2936 15.4814 48.5314 15.4814 47.6167V47.7691C15.4814 48.6838 15.7911 49.446 16.2555 49.9034V49.7509H16.1007ZM49.5407 32.9818L41.8 37.2503L41.9548 37.4028L49.5407 33.1343C50.6244 32.5245 51.0889 31.7622 51.0889 31C51.0889 31.7622 50.4696 32.372 49.5407 32.9818Z" fill="black"/>
<path opacity="0.25" d="M19.3518 12.0965L49.5407 29.0181C50.4696 29.6279 51.0889 30.2377 51.0889 30.9999C51.0889 30.2377 50.6244 29.4755 49.5407 28.8657L19.3518 11.9441C17.1844 10.7245 15.4814 11.6392 15.4814 14.0783V14.2308C15.4814 11.9441 17.1844 10.877 19.3518 12.0965Z" fill="white"/>
</g>
<defs>
<linearGradient id="paint0_linear_4421_45238" x1="33.7496" y1="13.7889" x2="8.16749" y2="39.7669" gradientUnits="userSpaceOnUse">
<stop stop-color="#00A0FF"/>
<stop offset="0.007" stop-color="#00A1FF"/>
<stop offset="0.26" stop-color="#00BEFF"/>
<stop offset="0.512" stop-color="#00D2FF"/>
<stop offset="0.76" stop-color="#00DFFF"/>
<stop offset="1" stop-color="#00E3FF"/>
</linearGradient>
<linearGradient id="paint1_linear_4421_45238" x1="52.3801" y1="31.0019" x2="14.9195" y2="31.0019" gradientUnits="userSpaceOnUse">
<stop stop-color="#FFE000"/>
<stop offset="0.409" stop-color="#FFBD00"/>
<stop offset="0.775" stop-color="#FFA500"/>
<stop offset="1" stop-color="#FF9C00"/>
</linearGradient>
<linearGradient id="paint2_linear_4421_45238" x1="38.4358" y1="34.5002" x2="3.74616" y2="69.7287" gradientUnits="userSpaceOnUse">
<stop stop-color="#FF3A44"/>
<stop offset="1" stop-color="#C31162"/>
</linearGradient>
<linearGradient id="paint3_linear_4421_45238" x1="11.2968" y1="0.779298" x2="26.7881" y2="16.5113" gradientUnits="userSpaceOnUse">
<stop stop-color="#32A071"/>
<stop offset="0.069" stop-color="#2DA771"/>
<stop offset="0.476" stop-color="#15CF74"/>
<stop offset="0.801" stop-color="#06E775"/>
<stop offset="1" stop-color="#00F076"/>
</linearGradient>
<clipPath id="clip0_4421_45238">
<rect width="209" height="61" fill="white" transform="translate(0 0.5)"/>
</clipPath>
</defs>
</svg>
