<svg width="696" height="593" viewBox="0 0 696 593" fill="none" xmlns="http://www.w3.org/2000/svg">
<g clip-path="url(#clip0_4426_125314)">
<g opacity="0.4">
<path d="M394.936 318.437C360.673 298.661 305.293 298.661 271.251 318.437C271.089 318.53 270.933 318.62 270.78 318.716C248.863 331.631 241.393 349.687 248.338 366.138C252.026 374.894 259.799 383.2 271.644 390.032C305.913 409.808 361.305 409.808 395.35 390.032C429.394 370.255 429.202 338.193 394.936 318.437Z" fill="white"/>
<path d="M410.889 309.172C367.822 284.322 297.982 284.322 255.193 309.172C254.045 309.837 252.923 310.515 251.84 311.201L254.027 312.07C255.004 311.452 256.015 310.847 257.052 310.245C298.812 285.991 367.006 285.991 409.042 310.245C451.078 334.498 451.324 373.971 409.549 398.224C367.774 422.477 299.583 422.48 257.535 398.224C242.113 389.325 232.31 378.378 228.148 366.884L225.506 366.977C229.719 378.837 239.783 390.128 255.676 399.297C298.749 424.146 368.601 424.146 411.396 399.297C454.19 374.447 453.953 334.022 410.877 309.172H410.889Z" fill="white"/>
<path d="M426.44 300.141C374.749 270.32 290.899 270.32 239.54 300.141C237.431 301.368 235.409 302.624 233.473 303.911L239.297 306.218C240.964 305.125 242.7 304.054 244.503 303.006C293.139 274.761 372.548 274.761 421.507 303.006C470.467 331.25 470.731 377.219 422.107 405.461C373.483 433.702 294.047 433.711 245.081 405.461C226.489 394.727 214.917 381.444 210.389 367.54L203.354 367.798C208.029 382.652 220.294 396.864 240.149 408.322C291.852 438.152 375.705 438.152 427.073 408.322C478.441 378.493 478.153 329.965 426.452 300.15L426.44 300.141Z" fill="white"/>
<path d="M458.257 281.664C388.902 241.653 276.418 241.656 207.517 281.664C138.615 321.673 138.969 386.786 208.323 426.798C237.51 443.638 274.331 453.392 312.327 456.053L311.962 447.363C277.905 444.717 245 435.835 218.801 420.718C155.267 384.066 154.928 324.415 218.063 287.753C281.198 251.092 384.242 251.101 447.764 287.753C488.927 311.503 503.57 344.893 491.62 375.433L505.714 378.378C519.484 344.77 503.63 307.851 458.25 281.667L458.257 281.664Z" fill="white"/>
<path d="M196.922 433.432C121.232 389.765 120.824 318.713 196.023 275.045C271.221 231.378 393.982 231.378 469.673 275.045C545.363 318.713 545.759 389.762 470.572 433.429C395.386 477.097 272.625 477.1 196.934 433.429L196.922 433.432ZM472.135 273.61C434.807 252.074 385.271 240.214 332.653 240.214C280.034 240.214 230.631 252.077 193.546 273.613C156.461 295.148 136.126 323.78 136.303 354.233C136.48 384.686 157.123 413.326 194.454 434.862C231.785 456.397 281.324 468.254 333.942 468.254C386.56 468.254 435.958 456.397 473.043 434.862C510.128 413.326 530.456 384.689 530.291 354.236C530.127 323.783 509.465 295.146 472.135 273.61Z" fill="white"/>
<path d="M584.157 303.015L578.13 304.051C604.959 347.755 595.969 397.193 551.082 436.899L556.119 438.979C584.475 414.042 599.601 384.821 599.436 354.233C599.334 336.515 594.101 319.249 584.157 303.015ZM511.418 240.113C462.239 214.31 399.149 200.191 332.416 200.191C261.328 200.191 194.577 216.213 144.478 245.306C94.3784 274.398 66.9043 313.092 67.1412 354.236C67.3781 395.38 95.272 434.068 145.707 463.16C196.143 492.253 263.074 508.284 334.158 508.275C376.74 508.275 417.726 502.534 454.538 491.675L451.471 488.526C354.085 517.055 231.665 507.763 150.025 460.658C48.3123 401.982 47.7695 306.502 148.826 247.817C246.809 190.92 404.874 189.188 507.1 242.63L511.421 240.119L511.418 240.113Z" fill="white"/>
<path d="M548.566 229.221C519.322 212.351 485.242 199.286 447.305 190.389C410.667 181.802 371.972 177.448 332.299 177.448C292.626 177.448 253.985 181.799 217.448 190.392C179.614 199.286 145.68 212.354 116.626 229.224C87.5714 246.094 65.1081 265.78 49.8596 287.712C35.136 308.894 27.7352 331.274 27.8701 354.233C28.005 377.192 35.6458 399.582 50.6093 420.755C51.5809 422.131 52.5805 423.496 53.608 424.851L59.5125 423.724C11.3232 360.292 31.7354 283.547 120.986 231.723C237.303 164.179 427.199 164.176 544.278 231.723C661.356 299.269 661.98 409.182 545.663 476.728C473.283 518.76 372.413 534.644 278.325 524.372L276.826 527.902C295.916 529.996 315.106 531.039 334.311 531.024C373.978 531.024 412.625 526.671 449.161 518.083C487.005 509.183 520.921 496.122 549.987 479.242C579.054 462.363 601.508 442.686 616.753 420.764C631.471 399.579 638.866 377.198 638.734 354.242C638.602 331.286 630.961 308.9 615.998 287.721C600.512 265.795 577.827 246.112 548.572 229.233L548.566 229.221Z" fill="white"/>
<path d="M568.192 217.825C536.28 199.415 499.105 185.164 457.702 175.452C434.222 169.977 410.396 166.106 386.39 163.865L386.83 165.024C452.757 171.341 516.075 189.182 566.963 218.538C696.654 293.363 697.341 415.106 568.501 489.925C439.662 564.744 229.308 564.75 99.6172 489.925C-30.0739 415.1 -30.7516 293.357 98.0968 218.538C113.555 209.564 130.183 201.665 147.722 194.848L147.312 193.743C129.289 200.734 112.472 208.761 96.8584 217.822C65.141 236.241 40.6236 257.711 23.9898 281.647C7.92569 304.758 -0.140833 329.186 0.000106314 354.239C0.141046 379.292 8.49545 403.714 24.8174 426.84C41.7151 450.77 66.4725 472.246 98.3847 490.665C130.297 509.084 167.484 523.326 208.887 533.044C248.875 542.414 291.097 547.166 334.38 547.169C377.663 547.172 419.843 542.414 459.726 533.041C501.012 523.338 538.034 509.069 569.752 490.662C601.469 472.255 625.968 450.776 642.599 426.837C658.657 403.723 666.736 379.298 666.589 354.248C666.442 329.198 658.099 304.767 641.774 281.656C624.874 257.72 600.12 236.253 568.195 217.831L568.192 217.825Z" fill="white"/>
</g>
<path opacity="0.1" d="M362.889 224.408C408.664 250.819 404.325 277.425 375.726 294.031C349.544 309.235 316.025 309.837 288.377 310.635C261.418 311.435 242.778 316.238 227.62 325.443L221.419 329.039L175.295 302.43L183.905 297.037C200.44 286.249 224.258 279.229 258.456 277.428C282.652 276.229 302.689 275.031 314.405 268.229C326.463 261.226 326.4 252.021 309.757 241.617C298.314 235.025 280.319 229.412 265.101 227.812L290.86 199.205C310.573 202.199 338.275 210.196 362.889 224.408Z" fill="black"/>
<path opacity="0.1" d="M181.302 325.143C200.029 335.949 199.072 350.553 181.158 361.359C163.243 371.762 137.326 372.359 118.596 361.556C100.217 350.952 101.161 335.949 119.078 325.545C137.338 314.94 163.267 314.74 181.302 325.143Z" fill="black"/>
<path d="M304.333 204.284L304.237 238.419C292.794 231.827 274.799 226.215 259.58 224.615L259.676 190.482C274.895 192.082 292.893 197.685 304.333 204.284Z" fill="#EEEFEF"/>
<path d="M317.494 219.988L317.398 254.121C317.398 249.348 313.263 244.059 304.237 238.419L304.333 204.284C313.359 209.926 317.509 215.212 317.494 219.988Z" fill="#EEEFEF"/>
<path d="M391.868 227.704L391.769 261.837C391.739 273.008 383.655 283.028 370.206 290.837C344.024 306.041 310.507 306.643 282.856 307.44C255.901 308.237 237.276 313.043 222.102 322.249L222.198 288.116C237.357 278.911 255.997 274.104 282.952 273.307C310.603 272.51 344.126 271.908 370.301 256.704C383.751 248.892 391.835 238.872 391.868 227.704Z" fill="url(#paint0_linear_4426_125314)"/>
<path d="M215.994 291.715L215.898 325.85L169.775 299.239L169.871 265.106L215.994 291.715Z" fill="#EEEFEF"/>
<path d="M222.198 288.113L222.102 322.249L215.898 325.85L215.994 291.715L222.198 288.113Z" fill="#EEEFEF"/>
<path d="M357.467 187.081C403.242 213.489 398.903 240.094 370.301 256.704C344.119 271.908 310.603 272.51 282.952 273.307C255.996 274.104 237.372 278.911 222.198 288.116L215.997 291.712L169.865 265.106L178.477 259.712C195.012 248.925 218.831 241.904 253.025 240.103C277.224 238.905 297.262 237.706 308.975 230.904C321.035 223.902 320.969 214.696 304.327 204.293C292.887 197.701 274.888 192.091 259.67 190.491L285.432 161.884C305.151 164.868 332.85 172.881 357.467 187.081Z" fill="white"/>
<path d="M189.207 304.971L189.111 339.104C189.09 345.54 184.367 351.988 175.296 357.463L175.392 323.327C184.466 317.856 189.189 311.407 189.207 304.971Z" fill="#DFE0E1"/>
<path d="M99.3592 339.916L99.4551 305.78C99.4371 312.046 103.803 318.317 112.829 323.525C131.559 334.327 157.477 333.731 175.391 323.327L175.295 357.463C157.378 367.864 131.46 368.463 112.733 357.658C103.704 352.45 99.3412 346.178 99.3592 339.916Z" fill="url(#paint1_linear_4426_125314)"/>
<path d="M175.535 287.112C194.262 297.917 193.306 312.522 175.391 323.327C157.477 333.731 131.559 334.327 112.829 323.525C94.4501 312.921 95.3947 297.917 113.312 287.514C131.571 276.909 157.501 276.717 175.535 287.112Z" fill="white"/>
<path opacity="0.1" d="M399.581 450.012L354.126 423.79L524.408 314.293L587.81 350.871L399.581 450.012Z" fill="black"/>
<path d="M392.351 407.492L347.916 381.857L514.365 274.827L576.34 310.58L392.351 407.492Z" fill="white"/>
<path d="M392.351 407.492L392.24 445.853L347.808 420.221L347.916 381.857L392.351 407.492Z" fill="#EEEFEF"/>
<path d="M576.34 310.58L576.232 348.944L392.24 445.853L392.351 407.492L576.34 310.58Z" fill="#DFE0E1"/>
<path opacity="0.1" d="M355.968 448.663C376.623 460.58 375.546 476.998 355.416 489.139C335.279 500.826 306.537 501.725 285.492 489.586C264.447 477.447 265.509 460.58 285.645 448.888C306.168 436.971 335.309 436.746 355.968 448.663Z" fill="black"/>
<path d="M365.809 425.689L365.698 464.044C365.677 471.284 360.37 478.571 350.12 484.75L350.231 446.395C360.478 440.216 365.788 432.929 365.809 425.689Z" fill="#DFE0E1"/>
<path d="M264.828 464.964L264.936 426.609C264.918 433.714 269.92 440.858 280.307 446.853C301.358 458.995 330.086 458.099 350.231 446.407L350.12 484.762C329.987 496.448 301.241 497.347 280.199 485.208C269.809 479.212 264.807 472.066 264.828 464.964Z" fill="url(#paint2_linear_4426_125314)"/>
<path d="M350.78 405.919C371.438 417.839 370.361 434.253 350.231 446.398C330.095 458.084 301.352 458.983 280.307 446.844C259.262 434.706 260.324 417.839 280.46 406.147C300.983 394.227 330.125 394.002 350.78 405.919Z" fill="white"/>
<path opacity="0.1" d="M485.392 244.634C501.589 244.634 514.719 239.952 514.719 234.176C514.719 228.401 501.589 223.719 485.392 223.719C469.195 223.719 456.064 228.401 456.064 234.176C456.064 239.952 469.195 244.634 485.392 244.634Z" fill="black"/>
<path d="M469.673 230.296C474.36 230.815 474.749 227.689 478.399 228.34C482.048 228.99 484.123 228.603 485.167 227.036C485.662 226.284 485.275 223.86 484.684 221.136C484.039 218.158 483.158 214.844 482.954 212.989C482.561 209.48 483.605 201.929 483.473 198.288C483.341 194.647 480.999 188.271 480.999 188.271L481.898 170.322C481.898 170.322 484.243 186.578 484.897 190.273C485.551 193.967 491.281 221.708 492.196 225.742C492.271 226.08 492.314 226.426 492.325 226.772C492.415 230.347 488.807 233.389 486.075 237.188C483.077 241.356 486.726 242.786 486.726 242.786C493.368 243.954 494.931 239.4 495.917 237.692C496.904 235.984 500.4 234.695 502.349 232.897C504.299 231.099 503.132 228.468 502.349 224.564C502.316 224.381 502.28 224.177 502.244 223.965C501.498 219.326 500.805 205.752 501.183 201.288C501.57 196.604 497.522 188.28 497.522 188.28C497.522 188.28 498.313 187.105 499.021 171.626C499.729 156.146 495.902 142.128 495.902 142.128C476.048 148.664 468.446 139.488 468.446 139.488C468.446 139.488 467.831 139.231 465.747 148.754C463.663 158.276 471.997 189.448 471.997 189.448C473.04 195.561 475.772 221.211 475.772 221.211C475.74 221.42 475.673 221.623 475.574 221.81C474.048 224.687 464.758 227.249 463.666 228.226C462.512 229.253 464.986 229.778 469.673 230.296Z" fill="#17134B"/>
<path d="M469.673 230.296C474.36 230.814 474.749 227.689 478.399 228.339C482.048 228.989 484.123 228.603 485.167 227.036C485.662 226.284 485.275 223.86 484.684 221.136C481.76 222.122 478.632 222.35 475.595 221.798C474.069 224.675 464.779 227.237 463.687 228.213C462.512 229.253 464.986 229.778 469.673 230.296Z" fill="#802A19"/>
<path d="M486.729 242.786C493.371 243.954 494.934 239.4 495.92 237.692C496.907 235.984 500.403 234.695 502.353 232.897C504.302 231.099 503.135 228.469 502.353 224.564C502.32 224.381 502.284 224.178 502.248 223.965C501.228 225.685 499.414 227.561 496.367 227.681C494.964 227.753 493.568 227.442 492.328 226.782C492.418 230.356 488.81 233.398 486.079 237.197C483.086 241.359 486.729 242.786 486.729 242.786Z" fill="#802A19"/>
<path d="M455.45 122.55C457.671 123.883 460.106 124.826 462.647 125.336C465.771 119.176 471.586 107.387 472.542 103.162C473.853 97.3583 473.142 93.4569 467.247 92.6748C465.13 94.5472 463.485 96.8933 462.449 99.5217C461.138 102.95 457.078 116.88 455.45 122.55Z" fill="#F79A4B"/>
<path d="M428.125 148.744C428.482 149.538 433.064 153.668 437.535 151.21C442.007 148.753 457.657 136.015 460.673 129.204C460.673 129.204 461.474 127.679 462.662 125.336C460.121 124.826 457.686 123.883 455.465 122.549C455.03 124.048 454.769 124.946 454.769 124.946C454.769 124.946 450.523 127.736 448.394 130.64C446.265 133.543 443.701 139.24 440.897 139.929C438.093 140.618 432.737 138.586 432.072 139.929C431.406 141.271 435.868 142.716 435.868 142.716C435.868 142.716 427.769 147.953 428.125 148.744Z" fill="#FAC2B0"/>
<path d="M484.183 88.7404C479.928 87.3501 468.053 91.4732 467.259 92.6808C466.464 93.8883 464.212 100.022 465.007 107.435C465.801 114.849 467.705 120.542 467.478 127.425C467.25 134.308 466.551 141.059 466.551 141.059C466.551 141.059 470.371 147.879 482.303 147.177C492.244 146.578 495.917 142.116 495.917 142.116C495.917 142.116 495.518 123.188 497.462 113.392C499.405 103.597 501.189 100.963 498.097 98.1823C495.006 95.4016 490.894 90.9368 484.183 88.7404Z" fill="#F6923C"/>
<path d="M489.974 111.04C490.957 116.326 497.081 126.07 497.77 128.932C501.414 127.655 505.231 127.287 508.164 127.245C507.564 116.817 500.967 99.7132 499.231 99.5394C495.872 99.2068 488.942 105.535 489.974 111.04Z" fill="#F79A4B"/>
<path d="M490.999 150.998C490.999 150.998 491.44 154.519 496.067 155.492C496.067 155.492 508.569 138.23 508.197 127.88C508.197 127.676 508.179 127.467 508.161 127.26C505.228 127.302 501.411 127.67 497.767 128.947C497.799 129.054 497.821 129.163 497.833 129.273L490.999 150.998Z" fill="#FAC2B0"/>
<path d="M489.122 67.9507C487.941 65.5026 483.044 65.5535 480.384 66.3895C477.724 67.2256 474.896 67.4443 472.956 67.0248C471.016 66.6053 469.151 69.1493 470.419 71.8491C471.688 74.5489 473.118 76.0082 475.517 75.4179C477.916 74.8276 479.613 86.0883 482.864 86.0883C486.114 86.0883 490.798 84.4013 490.798 78.4114C490.798 72.4214 489.713 69.1733 489.122 67.9507Z" fill="#3A3A3A"/>
<path d="M480.327 71.088C475.508 71.088 473.247 72.4813 472.755 76.119C472.264 79.7567 472.455 90.0705 475.706 92.6265C475.706 92.6265 484.654 93.8041 486.225 85.3541C487.797 76.9041 487.209 71.4865 479.835 70.9531L480.327 71.088Z" fill="#FAC2B0"/>
<path d="M485.389 81.6088C485.389 81.6088 484.141 81.7406 483.932 79.2326C483.722 76.7246 482.663 75.4181 479.37 75.8826C476.078 76.347 473.799 76.0923 472.153 74.4473C470.506 72.8022 471.73 69.4282 476.756 69.2184C481.781 69.0087 486.759 69.8177 487.941 74.2795C489.122 78.7412 489.095 80.6769 487.485 81.6118C485.875 82.5467 485.389 81.6088 485.389 81.6088Z" fill="#3A3A3A"/>
<path d="M486.48 83.8892L487.746 90.2267C487.746 90.2267 486.864 95.7432 481.212 95.7432C481.212 95.7432 478.12 95.3027 478.12 93.1392L477.193 87.1463L486.48 83.8892Z" fill="#FAC2B0"/>
<path d="M485.389 81.6087C485.389 81.6087 487.788 78.013 489.206 79.676C490.625 81.339 487.677 84.2037 485.59 83.949L485.389 81.6087Z" fill="#FAC2B0"/>
<path opacity="0.1" d="M30.8238 371.133C47.4762 371.133 60.9757 366.319 60.9757 360.382C60.9757 354.444 47.4762 349.63 30.8238 349.63C14.1713 349.63 0.671753 354.444 0.671753 360.382C0.671753 366.319 14.1713 371.133 30.8238 371.133Z" fill="black"/>
<path d="M51.4548 312.276C50.996 317.161 46.7228 345.366 48.555 349.328C48.7807 349.782 49.0673 350.203 49.4067 350.58C43.976 351.524 40.6445 351.015 38.6953 350.298C38.8303 349.834 38.9652 349.355 39.0971 348.869C40.1647 344.908 36.0445 328.895 35.1268 322.953C34.2092 317.011 38.4254 313.043 38.4254 313.043C36.4253 306.751 39.7269 286.974 39.8498 286.228C39.5739 287.019 30.8327 312.336 29.6302 316.088C28.4097 319.902 17.4255 342.621 14.2139 347.191C12.9184 349.043 12.8674 350.715 13.3142 352.156C7.75165 352.291 5.37367 348.581 4.42908 346.235C4.58201 346.004 4.74994 345.768 4.92087 345.519C7.97355 341.096 9.49989 329.815 10.1056 323.714C10.7114 317.613 17.1256 311.06 17.1256 311.06C17.1256 311.06 18.1932 292.455 19.4886 282.393C20.784 272.33 23.6478 270.706 23.6478 270.706L53.5089 265.522C57.6891 275.066 51.9166 307.401 51.4548 312.276Z" fill="#89211B"/>
<path d="M19.0298 369.758C10.6994 372.047 9.35296 361.218 7.29585 358.626C5.23874 356.034 3.2476 355.731 2.18006 353.445C1.17249 351.287 1.79923 350.077 4.43509 346.235C5.37968 348.582 7.75766 352.291 13.3203 352.156C13.95 354.281 15.6382 355.896 15.9111 356.801C16.3639 358.326 27.3482 367.471 19.0298 369.758Z" fill="#4E4019"/>
<path d="M62.748 359.24C57.2544 363.048 51.7637 359.54 49.0169 358.173C46.2701 356.807 45.3495 358.626 40.9564 357.409C37.1061 356.336 37.7568 353.625 38.6954 350.299C40.6445 351.015 43.9761 351.524 49.4068 350.58C52.7533 354.428 62.748 359.24 62.748 359.24Z" fill="#4E4019"/>
<path d="M65.096 246.816C62.285 248.143 60.044 250.434 58.7807 253.273C56.6426 251.799 54.9034 250.441 54.2137 249.522C51.7817 246.273 51.4099 229.235 50.7862 224.052C50.1624 218.868 50.6452 212.692 54.2137 213.342C58.5438 214.127 60.2111 223.566 60.2111 226.826C60.2111 230.086 60.7239 241.326 63.3237 244.574C63.8515 245.189 64.4393 245.974 65.096 246.816Z" fill="#4D67AF"/>
<path d="M90.0991 265.097C89.7753 266.559 82.6354 271.09 79.8706 268.021C77.1057 264.953 72.1609 261.531 72.1609 261.531C72.1609 261.531 64.1843 257.036 58.7747 253.273C60.038 250.434 62.2789 248.143 65.0899 246.815C67.7888 250.249 71.6421 254.753 76.3321 255.538C82.1825 256.509 86.6896 254.876 87.1814 256.662C87.6732 258.448 81.8167 259.26 81.8167 259.26C81.8167 259.26 90.432 263.638 90.0991 265.097Z" fill="#FAC2B0"/>
<path d="M37.3548 208.515C41.8529 207.589 53.065 210.612 55.7459 213.195C58.4267 215.778 58.4447 230.695 56.3456 236.547C54.2465 242.399 56.0038 262.092 54.4414 264.528C52.8791 266.964 38.0985 277.398 23.6567 270.719C23.6567 270.719 17.5603 267.989 19.3656 260.725C21.1708 253.462 21.7645 220.702 23.6087 217.576C25.453 214.451 31.6453 209.684 37.3548 208.515Z" fill="#3D56A5"/>
<path d="M30.5418 228.576C28.5867 231.824 18.6039 245.195 19.0208 248.725C19.1737 250.019 20.3672 252.77 21.9325 255.769C18.412 256.369 15.8511 258.346 14.2168 260.051C10.6544 255.763 7.51174 251.481 7.30183 249.662C6.83403 245.668 17.5634 225.933 19.8484 223.096C22.1334 220.258 23.8487 215.29 27.4681 217.244C32.2391 219.809 32.488 225.322 30.5418 228.576Z" fill="#4D67AF"/>
<path d="M32.2241 280.127C29.8971 278.263 26.6405 272.96 24.5084 271.249C23.3449 270.311 18.487 265.181 14.2258 260.051C15.8601 258.346 18.424 256.38 21.9415 255.769C24.6404 260.938 28.4607 266.841 29.987 267.305C32.407 268.046 37.127 266.287 37.8796 267.677C38.6323 269.067 33.2436 270.745 33.2436 270.745C33.2436 270.745 40.6774 274.734 40.9593 276.591C41.2412 278.449 34.5391 281.985 32.2241 280.127Z" fill="#FAC2B0"/>
<path d="M38.7733 187.027C44.6748 186.727 49.6676 187.354 50.1354 192.007C50.6032 196.661 52.4354 207.969 46.6929 209.521C40.9504 211.074 34.797 205.695 34.6411 196.852C34.4852 188.01 38.7733 187.027 38.7733 187.027Z" fill="#FAC2B0"/>
<path d="M34.2153 200.194C34.2153 200.194 38.2215 196.853 38.2215 192.565C38.2215 192.565 50.6632 195.109 52.3155 185.373C52.3155 185.373 48.5461 185.844 43.7392 184.055C38.9322 182.266 32.3441 182.455 32.2871 187.351C32.2871 187.351 28.4697 188.436 28.4697 193.344C28.4697 198.252 31.2975 202.15 33.8434 203.798L34.2153 200.194Z" fill="#543631"/>
<path d="M33.4238 199.888V210.744C33.4238 210.744 36.4405 216.581 43.3676 214.322C43.3676 214.322 45.1008 213.231 45.2058 211.496C45.3107 209.762 45.2058 202.831 45.2058 202.831L33.4238 199.888Z" fill="#FAC2B0"/>
<path d="M36.2904 199.534C36.2904 199.534 34.2633 196.004 31.6244 197.557C28.9855 199.109 31.3905 203.489 36.2904 202.456V199.534Z" fill="#FAC2B0"/>
<path opacity="0.1" d="M663.974 337.192C681.607 337.192 695.901 332.094 695.901 325.806C695.901 319.517 681.607 314.419 663.974 314.419C646.341 314.419 632.047 319.517 632.047 325.806C632.047 332.094 646.341 337.192 663.974 337.192Z" fill="black"/>
<path d="M646.701 271.467C646.701 271.467 649.313 299.55 648.284 310.721C652.3 311.087 655.155 310.23 656.858 309.433C656.303 304.039 655.79 295.667 657.11 289.89C659.191 280.738 659.605 274.368 657.805 270.347L656.966 241.236C656.966 241.236 661.965 267.845 663.629 274.089C664.96 279.096 672.184 301.956 675.273 313.013C676.032 315.731 676.538 317.73 676.652 318.581C677.222 322.881 673.339 340.482 680.832 340.482C688.326 340.482 688.596 323.702 686.23 318.308C684.113 313.457 683.783 315.407 682.836 310.961C682.728 310.454 682.614 309.861 682.485 309.163C681.231 302.373 681.786 284.349 678.871 277.28C675.957 270.212 674.712 269.936 674.301 266.748C673.89 263.56 680.47 226.829 673.294 219.065C673.294 219.065 656.801 224.588 643.78 215.877C643.792 215.889 641.861 254.843 646.701 271.467Z" fill="#253C80"/>
<path d="M633.804 324.697C633.942 326.495 637.402 328.715 643.651 327.046C649.901 325.377 658.645 321.23 658.774 319.012C658.903 316.795 657.52 314.716 657.52 314.716C657.52 314.716 650.791 322.351 642.656 322.404C641.318 322.404 640.296 322.054 639.525 321.431C636.443 322.911 633.738 323.816 633.804 324.697Z" fill="#FAC2B0"/>
<path d="M633.804 324.697C633.942 326.495 637.402 328.715 643.651 327.046C649.901 325.377 658.645 321.23 658.774 319.012C658.903 316.795 657.52 314.716 657.52 314.716C657.52 314.716 650.791 322.351 642.656 322.404C641.318 322.404 640.296 322.054 639.525 321.431C636.443 322.911 633.738 323.816 633.804 324.697Z" fill="#FAC2B0"/>
<path d="M639.525 321.431C640.296 322.054 641.324 322.411 642.656 322.405C650.791 322.351 657.521 314.716 657.521 314.716C657.521 314.716 657.185 312.585 656.858 309.445C655.155 310.242 652.3 311.099 648.284 310.733C648.207 311.894 648.006 313.043 647.685 314.161C646.458 317.655 642.785 319.867 639.525 321.431Z" fill="#FAC2B0"/>
<path d="M633.804 324.697C633.942 326.495 637.402 328.715 643.651 327.046C649.901 325.377 658.645 321.23 658.774 319.012C658.903 316.795 657.52 314.716 657.52 314.716C657.52 314.716 650.791 322.351 642.656 322.404C641.318 322.404 640.296 322.054 639.525 321.431C636.443 322.911 633.738 323.816 633.804 324.697Z" fill="#24356D"/>
<path d="M676.382 325.29C675.915 331.927 675.606 340.494 680.832 340.494C688.329 340.494 688.596 323.714 686.23 318.32C685.845 317.389 685.391 316.487 684.872 315.623C683.891 314.044 683.531 314.218 682.836 310.961C681.516 312.043 679.144 313.265 675.261 313.016C676.02 315.734 676.526 317.733 676.64 318.584C676.823 319.89 676.592 322.41 676.382 325.29Z" fill="#FAC2B0"/>
<path d="M680.845 340.494C688.341 340.494 688.608 323.714 686.242 318.32C685.857 317.389 685.403 316.487 684.884 315.624C685.763 321.2 687.082 333.902 680.908 333.797C680.908 333.797 677.681 334.357 676.383 325.281C675.915 331.927 675.606 340.494 680.845 340.494Z" fill="#24356D"/>
<path d="M622.256 212.257C622.256 212.257 623.872 213.426 624.553 218.502C624.623 218.465 624.691 218.424 624.757 218.379C624.757 218.379 640.419 212.338 642.299 208.635C644.179 204.931 653.044 183.536 654.255 180.821C655.467 178.107 653.056 173.489 653.056 173.489C651.607 172.659 650.174 172.126 648.051 174.319C645.928 176.513 638.374 200.988 636.479 203.115C634.584 205.243 622.256 212.257 622.256 212.257Z" fill="#434342"/>
<path d="M613.862 221.406C618.819 221.744 623.545 219.111 624.553 218.502C623.872 213.426 622.256 212.258 622.256 212.258C622.256 212.258 613.032 209.921 611.76 210.676C610.489 211.431 614.405 214.298 614.405 214.298C614.405 214.298 607.445 213.699 607.373 214.298C607.301 214.898 608.276 221.028 613.862 221.406Z" fill="#FAC2B0"/>
<path d="M643.409 240.098C643.409 240.098 649.271 226.913 647.391 217.588C647.391 217.588 648.539 220.732 656.921 220.63C656.921 220.63 655.595 209.318 656.096 206.163C656.597 203.008 659.131 191.39 664.304 185.835C667.584 182.323 670.412 176.57 672.04 172.833C670.909 172.072 669.703 171.427 668.442 170.909C666.573 170.167 664.59 169.752 662.579 169.684C657.137 169.441 651.841 171.227 650.848 172.68C649.481 174.676 644.767 184.825 644.665 195.4C644.563 205.974 642.359 223.668 640.581 225.763C638.803 227.857 643.409 240.098 643.409 240.098Z" fill="#4470B6"/>
<path d="M656.921 220.63C656.921 220.63 661.221 238.842 665.935 243.031C670.649 247.22 676.652 247.01 676.652 247.01C676.652 247.01 680.284 231.827 676.092 218.217C671.899 204.607 675.192 199.478 678.113 197.284C678.113 197.284 683.639 187.444 680.811 183.045C678.559 179.536 676.238 175.644 672.046 172.833C670.418 176.57 667.59 182.323 664.31 185.835C659.137 191.39 656.609 203.007 656.102 206.163C655.595 209.318 656.921 220.63 656.921 220.63Z" fill="#2D2D2D"/>
<path d="M643.409 240.098C643.409 240.098 649.817 227.656 647.937 218.337C647.937 218.337 647.457 216.213 648.602 212.419C650.557 205.938 651.922 196.053 653.052 187.513C653.883 181.241 659.599 173.409 662.579 169.684C657.137 169.441 651.841 171.227 650.848 172.68C649.481 174.676 644.767 184.825 644.665 195.4C644.563 205.974 642.359 223.668 640.581 225.763C638.803 227.857 643.409 240.098 643.409 240.098Z" fill="#2D2D2D"/>
<path d="M674.361 191.816C676.49 196.91 683.477 206.873 682.875 209.663C682.443 211.697 678.775 225.088 676.895 233.383C679.249 232.747 681.555 233.631 682.68 234.18C682.723 233.979 682.788 233.784 682.875 233.598C683.579 232.205 694.054 213.043 692.956 207.412C691.859 201.782 685.358 190.815 683.172 186.437C681.894 183.875 679.492 182.91 677.714 182.542C676.969 182.386 676.193 182.481 675.508 182.812C674.823 183.144 674.267 183.692 673.927 184.373C673.117 186.051 672.934 188.424 674.361 191.816Z" fill="#434342"/>
<path d="M675.795 239.687C675.99 242.683 676.287 246.564 679.885 246.962C683.484 247.361 684.875 245.266 683.579 242.671C682.422 240.367 682.212 236.079 682.68 234.179C681.555 233.631 679.249 232.747 676.895 233.382C676.194 236.484 675.747 238.869 675.795 239.687Z" fill="#FAC2B0"/>
<path d="M653.856 149.784C652.957 152.032 652.417 157.335 654.486 162.999C656.555 168.662 657.452 170.906 657.452 170.906C657.452 170.906 672.655 169.468 671.036 157.335C669.416 145.203 653.856 149.784 653.856 149.784Z" fill="#FAC2B0"/>
<path d="M660.153 167.919C660.153 167.919 662.127 172.51 662.112 175.611C662.112 175.611 669.183 178.643 671.168 172.264L670.76 162.046L660.153 167.919Z" fill="#FAC2B0"/>
<path d="M656.297 151.088C656.297 151.088 655.062 154.039 653.05 154.3C653.05 154.3 650.261 144.022 663.053 141.565L656.297 151.088Z" fill="#693215"/>
<path d="M655.823 148.918C655.516 149.676 655.378 150.492 655.421 151.308C655.463 152.125 655.684 152.922 656.069 153.643C656.93 155.224 658.102 156.614 659.515 157.731C663.305 160.763 668.469 167.673 667.665 173.258C667.665 173.258 680.359 162.609 675.576 150.725C670.793 138.841 663.134 141.07 660.141 142.583C658.228 143.551 656.687 146.743 655.823 148.918Z" fill="#52260F"/>
<path opacity="0.1" d="M237.905 432.545C255.485 432.545 269.737 427.462 269.737 421.192C269.737 414.921 255.485 409.838 237.905 409.838C220.326 409.838 206.074 414.921 206.074 421.192C206.074 427.462 220.326 432.545 237.905 432.545Z" fill="black"/>
<path d="M259.994 410.959C259.994 410.959 261.109 417.356 260.429 418.273C259.748 419.19 253.433 420.883 250.152 418.273C246.872 415.663 240.301 408.175 241.543 406.197C242.784 404.22 244.913 403.923 247.18 404.031C249.447 404.139 259.994 410.959 259.994 410.959Z" fill="#3A2410"/>
<path d="M235.914 337.318C235.914 337.318 239.327 360.451 242.874 372.856C242.874 372.856 243.147 381.036 244.512 383.898C245.876 386.76 247.921 393.442 248.74 399.18C249.559 404.918 250.377 410.767 250.377 410.767C250.377 410.767 252.149 414.992 260.873 411.447C260.873 411.447 259.673 394.272 260.135 389.229C260.597 384.186 259.37 374.642 256.372 369.734C256.372 369.734 254.398 335.544 255.415 330.063L235.914 337.318Z" fill="#212120"/>
<path d="M239.072 420.491C239.072 420.491 240.11 426.504 239.696 427.592C239.282 428.68 238.295 431.17 235.234 430.912C232.172 430.655 229.425 428.578 227.437 428.32C225.449 428.063 213.172 424.949 213.535 422.927C213.898 420.904 232.937 418.264 232.937 418.264L239.072 420.491Z" fill="#3A2410"/>
<path d="M217.286 336.437C217.286 336.437 218.591 361.607 221.673 376.59C221.673 376.59 222.132 385.312 223.137 388.629C224.141 391.946 229.059 420.206 229.059 420.206C229.059 420.206 230.781 423.769 240.25 421.066C240.25 421.066 241.885 391.479 241.48 388.629C240.97 385.082 237.711 381.138 237.711 381.138C237.711 381.138 239.144 366.641 239.882 363.078C240.619 359.516 241.981 341.276 240.481 335.652L217.286 336.437Z" fill="#2B2B2B"/>
<path d="M227.314 250.133C227.314 250.133 229.668 245.024 232.088 247.175C234.508 249.327 229.197 253.09 227.314 253.561V250.133Z" fill="#FAC2B0"/>
<path d="M238.103 235.606C235.105 234.896 228.699 234.374 226.408 237.844C224.117 241.314 222.435 251.772 226.129 258.541C226.129 258.541 230.217 259.044 235.869 255.913C241.522 252.781 242.134 236.565 238.103 235.606Z" fill="#FAC2B0"/>
<path d="M228.019 256.356C228.019 256.356 230.883 260.153 230.718 267.123C230.718 267.123 235.923 263.689 242.113 263.428C242.113 263.428 240.76 259.632 241.906 253.078C241.918 253.078 234.682 252.662 228.019 256.356Z" fill="#FAC2B0"/>
<path d="M228.666 250.103C228.127 248.793 227.284 247.385 228.666 244.76C230.049 242.135 230.136 239.864 229.155 239.366C228.175 238.869 224.924 239.276 225.104 237.541C225.284 235.807 237.099 228.852 245.279 237.541C245.279 237.541 252.305 241.677 241.465 257.567C241.465 257.576 232.718 259.937 228.666 250.103Z" fill="#52260F"/>
<path d="M228.693 269.085V265.75C233.039 262.845 238.093 261.175 243.315 260.92L244.401 262.718C244.401 262.718 241.015 265.861 228.693 269.085Z" fill="#F2F2F2"/>
<path d="M204.728 280.229C204.728 280.229 202.929 272.085 201.216 272.358C199.504 272.63 200.422 276.289 200.422 276.289C200.422 276.289 193.615 273.457 192.943 274.92C192.271 276.382 191.599 281.02 192.76 282.516C193.92 284.011 198.032 285.461 202.128 285.812L204.728 280.229Z" fill="#FAC2B0"/>
<path d="M207.199 281.083L204.728 280.229C204.728 280.229 202.743 281.356 202.128 285.818L204.482 287.061C204.78 284.845 205.725 282.766 207.199 281.083Z" fill="#F2F2F2"/>
<path d="M252.707 262.19C252.707 262.19 261.127 265.9 259.394 280.727C258.12 291.622 231.806 296.551 225.689 296.05C219.571 295.55 203.921 287.061 203.921 287.061C203.921 287.061 203.921 282.437 206.92 280.81C206.92 280.81 222.678 285.563 227.311 285.062C231.944 284.562 245.573 273.811 247.513 269.936C249.453 266.062 250.971 262.634 252.707 262.19Z" fill="#383838"/>
<path d="M237.72 264.699C232.547 266.694 224.597 270.751 219.91 275.938C215.223 281.125 222.756 306.224 221.673 311.482C220.591 316.741 218.12 323.516 216.03 339.008C216.03 339.008 225.608 346.691 242.838 341.069C242.838 341.069 248.608 339.988 257.691 332.209C257.691 332.209 254.23 315.204 255.892 304.974C257.553 294.744 264.357 270.182 252.827 262.25C252.755 262.2 252.671 262.169 252.584 262.158C251.664 262.035 246.071 261.48 237.72 264.699Z" fill="#383838"/>
<path d="M220.543 337.291C220.543 337.291 222.942 341.633 223.119 344.263C223.296 346.894 219.82 350.289 216.153 348.372C212.485 346.454 212.395 341.36 214.3 335.661L220.543 337.291Z" fill="#FAC2B0"/>
<path d="M214.966 332.451L214.312 335.664C214.312 335.664 216.036 337.572 220.555 337.294L221.674 334.546C221.674 334.546 216.924 333.95 214.966 332.451Z" fill="#F2F2F2"/>
<path d="M221.697 275.519C227.665 275.875 229.521 281.017 230.013 285.524C230.505 290.031 232.043 304.659 231.491 308.507C230.939 312.354 221.697 335.229 221.697 335.229C221.697 335.229 217.295 335.778 214.653 332.811C214.653 332.811 216.195 321.703 219.826 310.598C219.826 310.598 218.285 292.563 217.625 284.865C216.965 277.167 219.25 275.369 221.697 275.519Z" fill="#454545"/>
<path opacity="0.1" d="M142.418 263.029C158.623 263.029 171.76 258.345 171.76 252.566C171.76 246.787 158.623 242.102 142.418 242.102C126.212 242.102 113.075 246.787 113.075 252.566C113.075 258.345 126.212 263.029 142.418 263.029Z" fill="black"/>
<path d="M144.52 209.192C144.28 215.946 138.702 239.96 138.822 241.362C138.822 241.41 138.822 241.467 138.822 241.527C138.822 241.587 138.822 241.614 138.843 241.662C138.858 241.773 138.876 241.899 138.9 242.033C138.9 242.072 138.9 242.117 138.921 242.162C139.269 244.233 140.226 248.599 140.337 250.462C140.465 252.626 140.846 260.848 136.318 260.462C131.79 260.075 131.604 255.05 131.032 252.054C130.459 249.057 132.306 240.907 132.306 240.907C133.071 235.684 133.008 225.493 133.26 221.226C133.511 216.959 135.557 208.485 135.557 208.485L134.471 199.055L144.499 197.653C144.499 197.653 144.757 202.441 144.52 209.192Z" fill="#FAC2B0"/>
<path d="M136.339 260.47C131.817 260.09 131.625 255.059 131.053 252.062C130.48 249.066 132.327 240.916 132.327 240.916C132.327 240.916 131.128 256.959 136.093 255.898C140.412 254.999 139.311 244.841 138.942 242.162C139.29 244.233 140.247 248.598 140.358 250.462C140.477 252.635 140.867 260.857 136.339 260.47Z" fill="#2B2B2B"/>
<path d="M162.443 253.39C157.18 255.328 151.999 249.746 151.648 248.05C151.297 246.354 148.751 244.002 148.751 244.002V250.393H147.587C147.587 250.393 147.054 244.002 146.562 241.575C146.232 239.948 146.712 237.994 147.066 236.879C147.234 236.334 147.366 235.98 147.366 235.98C148.175 230.638 146.394 219.314 146.445 216.482C146.496 213.651 147.366 204.991 147.366 204.991C146.466 201.512 145.524 197.65 145.524 197.65C147.734 198.483 156.437 196.415 156.437 196.415C156.437 196.415 156.272 202.806 155.867 206.288C155.462 209.77 153.681 234.686 154.571 239.055C155.03 241.302 158.494 244.517 161.031 247.373C163.433 250.076 164.998 252.446 162.443 253.39Z" fill="#FAC2B0"/>
<path d="M162.443 253.39C157.18 255.329 151.998 249.746 151.648 248.05C151.297 246.354 148.751 244.002 148.751 244.002V250.393H147.587C147.587 250.393 147.054 244.002 146.562 241.575C146.232 239.948 146.712 237.994 147.066 236.879C147.45 236.996 147.805 237.193 148.107 237.458C148.409 237.722 148.651 238.048 148.817 238.414C149.522 240.169 152.913 248.655 155.948 248.919C158.047 249.105 160.263 248.62 161.046 247.385C163.433 250.076 164.998 252.446 162.443 253.39Z" fill="#2B2B2B"/>
<path d="M130.117 165.066C130.117 165.066 126.779 174.205 134.384 199.969C134.384 199.969 142.115 202.594 156.838 197.344C156.838 197.344 160.407 173.885 159.501 166.525L152.496 162.519L130.117 165.066Z" fill="#2B2B2B"/>
<path d="M157.435 134.218C157.435 134.218 161.484 143.696 168.507 144.792C168.507 144.792 165.835 146.956 165.145 149.167C165.145 149.167 159.747 149.952 153.282 143L157.435 134.218Z" fill="#454545"/>
<path d="M158.473 155.609L180.189 138.571L180.939 131.751L156.838 150.926L158.473 155.609Z" fill="#79491E"/>
<path d="M140.702 112.829C144.13 112.58 151.858 112.269 153.297 113.218C154.736 114.168 160.128 123.976 160.821 127.901C161.513 131.826 158.269 139.74 156.713 140.993C155.156 142.245 161.298 165.537 159.825 169.339C159.825 169.339 153.945 170.463 151.222 164.803C151.222 164.803 150.703 170.115 146.898 170.679C143.092 171.242 135.74 172.018 129.037 169.339C129.037 169.339 129.037 160.389 131.05 153.904C133.062 147.42 125.952 125.417 125.763 121.474C125.574 117.53 137.371 113.072 140.702 112.829Z" fill="#383838"/>
<path d="M128.444 120.257C131.571 121.195 132.216 125.24 132.297 127.916C132.378 130.592 132.054 146.665 132.054 146.665C132.054 146.665 143.188 154.051 145.548 156.002C145.548 156.002 144.574 158.998 144.981 161.036C144.981 161.036 127.511 156.326 124.83 150.399C122.149 144.472 123.61 128.557 123.775 125.474C123.939 122.391 125.184 119.283 128.444 120.257Z" fill="#454545"/>
<path d="M144.975 161.036C144.975 161.036 150.235 161.485 151.573 160.137C151.573 160.137 153.291 162.612 154.523 162.51C155.756 162.408 158.694 160.188 158.59 159.157C158.485 158.126 155.855 153.742 154.307 153.485C152.76 153.227 145.539 155.996 145.539 155.996C144.704 157.539 144.502 159.346 144.975 161.036Z" fill="#FAC2B0"/>
<path d="M144.184 86.7595C147.695 87.3858 152.205 88.815 153.411 92.6445C154.616 96.474 155.114 104.702 150.643 109.029C150.643 109.029 138.291 107.114 137.725 99.03C137.158 90.9455 141.8 86.334 144.184 86.7595Z" fill="#FAC2B0"/>
<path d="M136.477 113.77C136.477 113.77 138.552 112.67 138.753 111.45C138.954 110.231 138.453 104.28 139.263 100.312C139.263 100.312 144.199 106.162 148.985 106.162C147.208 108.089 146.141 110.565 145.962 113.179L146.949 113.278C146.949 113.278 151.935 116.688 151.783 124.416C151.63 132.144 139.179 120.575 136.477 113.77Z" fill="#FAC2B0"/>
<path d="M143.176 90.487C143.176 90.487 146.733 95.4641 150.229 95.2454C153.726 95.0267 154.191 100.097 154.191 100.097C154.191 100.097 156.368 93.3246 154.239 89.5701C152.109 85.8155 146.742 83.3704 141.491 83.9817C136.24 84.593 127.586 98.5205 138.792 110.267C138.792 110.267 139.167 103.075 140.873 101.445C142.58 99.815 143.95 94.4154 143.176 90.487Z" fill="#A95D26"/>
<path d="M154.436 133.747C153.039 140.582 149.495 142.383 149.495 142.383C149.495 142.383 147.321 135.731 143.845 130.52C142.945 126.846 142.046 123.19 142.046 123.19C142.046 123.19 143.245 123.301 144.814 123.514C146.886 123.793 148.925 123.457 151.156 122.354C151.611 122.132 152.054 121.884 152.481 121.611C152.481 121.611 154.044 127.754 154.436 133.747Z" fill="white"/>
<path d="M149.495 142.383C149.495 142.383 147.321 135.731 143.845 130.52C142.526 128.542 141.017 126.771 139.371 125.647L141.596 122.202L135.56 122.699L135.197 114.036C135.197 114.036 137.188 112.838 137.944 112.721C137.944 112.721 141.41 117.548 145.051 123.948C147.911 128.992 150.253 135.416 149.495 142.383Z" fill="#454545"/>
<path d="M154.436 133.747C153.039 140.582 149.494 142.383 149.494 142.383C153.045 138.452 152.7 128.404 151.147 122.355C150.965 121.635 150.746 120.926 150.49 120.23C148.433 114.756 145.962 113.176 145.962 113.176L146.088 112.164C149.986 113.092 153.315 117.92 153.315 117.92L151.603 119.844L154.601 121.896C155.24 126.945 155.036 130.811 154.436 133.747Z" fill="#454545"/>
<path d="M168.506 148.598C168.506 148.598 167.724 144.978 168.506 143.564C169.289 142.149 173.157 139.737 174.321 140.196C175.484 140.654 175.736 144.313 175.281 145.146C174.825 145.979 170.222 149.554 168.506 148.598Z" fill="#FAC2B0"/>
<path opacity="0.1" d="M499.576 513.165C519.574 513.165 535.785 507.383 535.785 500.25C535.785 493.118 519.574 487.336 499.576 487.336C479.578 487.336 463.366 493.118 463.366 500.25C463.366 507.383 479.578 513.165 499.576 513.165Z" fill="black"/>
<path d="M522.95 488.268C522.95 488.268 524.408 496.181 523.307 496.888C522.207 497.596 515.511 498.776 512.764 496.574C510.017 494.371 499.836 487.504 501.216 485.226C502.595 482.949 504.661 482.658 506.391 483.054C508.122 483.449 522.95 488.268 522.95 488.268Z" fill="#262626"/>
<path d="M500.505 499.223C500.505 499.223 502.904 506.453 500.505 508.047C498.106 509.642 474.68 501.347 475.544 495.309C475.544 495.309 475.976 493.452 479.478 493.916C482.981 494.381 489.218 495.507 494.199 495.115L500.505 499.223Z" fill="#262626"/>
<path d="M514.773 393.136C514.773 393.136 517.727 417.428 516.591 433.888C516.591 433.888 520.906 442.856 521.589 448.759C522.273 454.662 522.951 488.265 522.951 488.265C522.951 488.265 516.354 492.124 512.614 486.901C512.614 486.901 504.776 444.786 503.525 438.769C502.275 432.752 495.219 398.356 495.219 398.356L514.773 393.136Z" fill="#4F3116"/>
<path d="M479.598 383.152C479.598 383.152 478.189 419.148 485.032 445.091C485.032 445.091 489.056 490.937 490.061 495.567C490.061 495.567 491.671 502.204 501.132 499.993C501.132 499.993 504.353 455.345 499.333 447.704C499.333 447.704 503.759 394.412 500.532 384.155C500.526 384.155 487.245 386.367 479.598 383.152Z" fill="#5E3A18"/>
<path d="M466.296 338.993C466.296 338.993 465.564 331.696 464.002 331.463C462.44 331.229 462.844 336.817 462.844 336.817C462.844 336.817 453.986 332.14 452.91 333.68C451.833 335.22 452.385 341.108 453.65 342.87C454.916 344.632 461.147 345.438 466.296 345.585V338.993Z" fill="#F1BAA9"/>
<path d="M476.564 338.993L476.063 347.203L467.909 345.849C467.723 344.297 467.451 340.875 468.263 338.993H476.564Z" fill="#6D421A"/>
<path d="M467.909 345.849L466.296 345.585C465.8 343.416 465.8 341.162 466.296 338.993H468.263C467.451 340.875 467.723 344.297 467.909 345.849Z" fill="white"/>
<path d="M502.059 289.194C498.781 285.644 492.268 285.281 489.377 286.677C486.486 288.074 483.224 292.548 482.105 296.566C480.987 300.584 479.682 309.609 481.547 310.913C483.413 312.216 491.056 312.962 495.812 309.145C500.568 305.327 504.296 291.616 502.059 289.194Z" fill="#FAC2B0"/>
<path d="M486.648 309.954L488.148 320.849C488.148 320.849 497.306 318.02 501.042 317.901L500.319 310.556C500.319 310.556 493.335 308.327 486.648 309.954Z" fill="#FAC2B0"/>
<path d="M483.91 323.792V321.302C483.91 321.302 489.674 317.218 495.722 316.208C501.771 315.198 503.609 315.608 503.609 315.608L504.386 318.629C497.378 319.524 490.504 321.258 483.91 323.792Z" fill="white"/>
<path d="M496.067 319.171C490.505 320.592 478.402 324.265 474.303 333.081C470.203 341.896 478.543 355.746 478.897 369.587C479.25 383.427 475.928 389.993 476.777 404.678C476.777 404.678 479.814 407.375 482.711 407.926L486.034 389.648L487.728 407.363C487.728 407.363 506.455 407.291 515.64 394.511C515.64 394.511 512.107 377.707 512.176 368.88C512.245 360.052 523.2 327.151 512.743 317.901C512.743 317.901 508.221 316.064 496.067 319.171Z" fill="#6D421A"/>
<path d="M487.938 300.818C487.678 300.033 487.591 299.202 487.684 298.38C487.776 297.559 488.044 296.767 488.471 296.059C489.638 294.019 489.449 292.029 487.65 290.621C485.851 289.212 485.314 285.083 487.89 283.822C490.466 282.56 496.199 281.539 499.747 283.522C503.294 285.506 507.279 290.078 508.143 294.984C509.007 299.889 504.79 310.427 500.367 312.273C500.367 312.273 493.221 312.225 490.792 307.416C490.792 307.416 490.211 302.948 489.674 302.322C489.141 301.77 488.56 301.266 487.938 300.818Z" fill="#3E1F10"/>
<path d="M487.062 300.722C487.062 300.722 489.251 296.302 491.86 298.325C494.469 300.347 490.499 305.999 487.062 305.217V300.722Z" fill="#FAC2B0"/>
<path d="M461.489 336.817C461.489 336.817 464.227 322.069 463.087 321.613C461.948 321.158 458.289 327.705 458.289 327.705C458.289 327.705 456.808 322.752 457.036 320.415C457.264 318.077 459.135 314.949 458.005 314.209C456.874 313.469 455.042 317.056 453.788 321.155C452.535 325.254 452.271 332.338 455.288 339.334L461.489 336.817Z" fill="#FAC2B0"/>
<path d="M462.407 338.591L461.489 336.817C461.489 336.817 457.663 336.913 455.291 339.334L455.591 341.171L462.407 338.591Z" fill="white"/>
<path d="M481.505 331.676C486.603 332.874 486.396 338.13 485.29 344.399C484.183 350.667 480.123 377.959 471.448 373.722C462.773 369.485 455.576 341.171 455.576 341.171C455.576 341.171 458.805 338.13 462.407 338.591L469.325 353.897C469.325 353.897 472.398 341.201 473.172 337.576C473.946 333.95 476.801 330.57 481.505 331.676Z" fill="#855221"/>
</g>
<defs>
<linearGradient id="paint0_linear_4426_125314" x1="222.102" y1="274.976" x2="391.868" y2="274.976" gradientUnits="userSpaceOnUse">
<stop stop-color="#EEEFEF"/>
<stop offset="1" stop-color="#DFE0E1"/>
</linearGradient>
<linearGradient id="paint1_linear_4426_125314" x1="99.3592" y1="335.649" x2="175.391" y2="335.649" gradientUnits="userSpaceOnUse">
<stop stop-color="#EEEFEF"/>
<stop offset="1" stop-color="#DFE0E1"/>
</linearGradient>
<linearGradient id="paint2_linear_4426_125314" x1="264.828" y1="460.266" x2="350.231" y2="460.266" gradientUnits="userSpaceOnUse">
<stop stop-color="#EEEFEF"/>
<stop offset="1" stop-color="#DFE0E1"/>
</linearGradient>
<clipPath id="clip0_4426_125314">
<rect width="696" height="593" fill="white"/>
</clipPath>
</defs>
</svg>
