<svg width="24" height="24" viewBox="0 0 24 24" fill="none" xmlns="http://www.w3.org/2000/svg">
<g clip-path="url(#clip0_4424_22198)">
<path d="M5.25024 4.80225H17.8506V18.6026H5.25024V4.80225Z" fill="#4CAF50"/>
<path d="M11.8497 22.651C9.02651 22.6478 6.32 21.5248 4.32371 19.5285C2.32742 17.5322 1.20435 14.8257 1.20117 12.0025C1.20435 9.17934 2.32742 6.47254 4.32371 4.47625C6.32 2.47996 9.02651 1.35718 11.8497 1.354C14.6729 1.35718 17.3794 2.47996 19.3756 4.47625C21.3719 6.47254 22.495 9.17934 22.4982 12.0025C22.495 14.8257 21.3719 17.5322 19.3756 19.5285C17.3794 21.5248 14.6729 22.6478 11.8497 22.651ZM11.6651 16.9154C11.461 16.9156 11.2657 16.9967 11.1213 17.141C10.977 17.2854 10.8959 17.481 10.8958 17.6851C10.8959 17.8892 10.977 18.0851 11.1213 18.2294C11.2657 18.3738 11.461 18.4549 11.6651 18.455C11.8695 18.4552 12.0658 18.3743 12.2106 18.23C12.3554 18.0857 12.4369 17.8895 12.4374 17.6851C12.4369 17.4807 12.3559 17.285 12.2112 17.1407C12.0666 16.9964 11.87 16.9154 11.6657 16.9154H11.6651ZM12.3735 7.12798C12.6049 7.12553 12.8326 7.18505 13.0333 7.30025C13.2361 7.42768 13.4048 7.60227 13.5255 7.80915C13.6462 8.01602 13.7154 8.24902 13.7265 8.48826C13.7736 9.07569 13.6356 9.66302 13.3321 10.1682C13.1082 10.5642 12.7967 10.9034 12.421 11.1599C12.4042 11.1695 11.926 11.5956 11.845 11.6694C11.4829 12.0028 11.2194 12.4298 11.0844 12.9031C10.8834 13.4286 10.8118 13.9947 10.8752 14.5537C10.8836 14.6377 10.8899 14.7104 10.8899 14.7776C10.8899 14.8292 10.8899 14.8741 10.8899 14.9179V14.9431V14.9466C10.8841 15.0448 10.886 15.1434 10.8946 15.2414C10.8974 15.3061 10.9124 15.3698 10.9397 15.4286C10.9522 15.4506 10.9602 15.4749 10.9631 15.5001C11.0206 15.6367 11.1159 15.7541 11.2374 15.839C11.3588 15.924 11.5018 15.9729 11.6499 15.98H11.6598C11.793 15.9702 11.9229 15.9327 12.0407 15.8698C12.1585 15.8069 12.2621 15.7199 12.3442 15.6146C12.4167 15.5149 12.4529 15.3932 12.4468 15.2701C12.3371 14.678 12.3748 14.068 12.5569 13.4941C12.6977 13.0974 12.9337 12.7413 13.2437 12.4566C13.8059 12.0961 14.2754 11.6088 14.6154 11.0339C14.7514 10.7964 14.8687 10.5487 14.9664 10.293C15.06 10.0475 15.1337 9.79503 15.1867 9.5377C15.2379 9.2921 15.2684 9.04251 15.2775 8.79179C15.2861 8.55106 15.2724 8.30993 15.2371 8.07165C15.2042 7.84379 15.1501 7.61974 15.0748 7.4022C15.0025 7.19227 14.9067 6.99103 14.79 6.80219C14.675 6.61827 14.5394 6.44802 14.3857 6.29505C14.2299 6.14263 14.0556 6.01037 13.8671 5.90099C13.6648 5.78452 13.4481 5.69611 13.222 5.63819C12.9972 5.58021 12.7656 5.55115 12.5335 5.55176C12.2048 5.55401 11.8782 5.60552 11.5649 5.7047C11.2324 5.81254 10.9156 5.96285 10.6215 6.15178C9.97435 6.5754 9.43668 7.14635 9.05293 7.81793C8.91693 8.05641 8.79943 8.3051 8.70136 8.56151C8.60629 8.80644 8.53268 9.05908 8.48163 9.3168C8.4519 9.53777 8.43675 9.76036 8.43651 9.98332C8.43667 10.1873 8.5179 10.3831 8.6621 10.5274C8.80631 10.6717 9.00185 10.7529 9.20586 10.7533C9.41068 10.755 9.60808 10.6755 9.75432 10.5321C9.90055 10.3886 9.98355 10.1931 9.98577 9.9883C9.98577 9.9787 9.98567 9.95644 9.98987 9.92824V9.90246V9.88928C9.98987 9.86047 9.99514 9.83522 9.99514 9.82922C10.019 9.35037 10.1584 8.88433 10.4018 8.47127C10.5898 8.09869 10.8691 7.78016 11.2139 7.54517C11.5588 7.31019 11.958 7.16659 12.3735 7.12798Z" fill="#FFC107"/>
</g>
<defs>
<clipPath id="clip0_4424_22198">
<rect width="24" height="24" fill="white"/>
</clipPath>
</defs>
</svg>
