<svg width="17" height="16" viewBox="0 0 17 16" fill="none" xmlns="http://www.w3.org/2000/svg">
<g clip-path="url(#clip0_6689_584)">
<path d="M11.2352 1.16406H5.50774C3.02002 1.16406 1.53674 2.64734 1.53674 5.13506V10.8553C1.53674 13.3499 3.02002 14.8331 5.50774 14.8331H11.228C13.7158 14.8331 15.199 13.3499 15.199 10.8621V5.13506C15.2062 2.64734 13.723 1.16406 11.2352 1.16406ZM8.37149 10.6505C7.84702 10.6505 7.33434 10.495 6.89826 10.2036C6.46219 9.91226 6.12231 9.49812 5.9216 9.01358C5.7209 8.52904 5.66839 7.99586 5.7707 7.48148C5.87302 6.96709 6.12558 6.4946 6.49643 6.12375C6.86728 5.75289 7.33977 5.50034 7.85416 5.39802C8.36854 5.29571 8.90172 5.34822 9.38626 5.54892C9.8708 5.74963 10.2849 6.08951 10.5763 6.52558C10.8677 6.96166 11.0232 7.47434 11.0232 7.9988C11.0232 8.70209 10.7438 9.37656 10.2465 9.87386C9.74925 10.3712 9.07477 10.6505 8.37149 10.6505ZM12.4173 4.49943C12.3826 4.58225 12.334 4.65855 12.2737 4.72504C12.2072 4.7854 12.1309 4.83396 12.0481 4.86865C11.9237 4.92165 11.7864 4.93622 11.6537 4.91049C11.5211 4.88475 11.3991 4.81988 11.3036 4.72424C11.2433 4.65775 11.1947 4.58145 11.16 4.49863C11.1239 4.4167 11.1052 4.32815 11.1052 4.23862C11.1052 4.14908 11.1239 4.06053 11.16 3.9786C11.1931 3.89493 11.2418 3.81835 11.3036 3.75299C11.3832 3.67421 11.481 3.61619 11.5882 3.58404C11.6955 3.55188 11.8091 3.54658 11.9189 3.56858C11.9641 3.57459 12.0081 3.58811 12.0489 3.60858C12.0925 3.62353 12.1339 3.64425 12.1721 3.67019C12.2078 3.69542 12.242 3.7228 12.2745 3.75219C12.3363 3.81755 12.385 3.89413 12.4181 3.9778C12.4542 4.05973 12.4729 4.14828 12.4729 4.23782C12.4729 4.32735 12.4542 4.4159 12.4181 4.49783L12.4173 4.49943Z" fill="#A6A6A6"/>
</g>
<defs>
<clipPath id="clip0_6689_584">
<rect width="16" height="16" fill="white" transform="translate(0.375)"/>
</clipPath>
</defs>
</svg>
