<svg width="520" height="521" viewBox="0 0 520 521" fill="none" xmlns="http://www.w3.org/2000/svg">
<path d="M218.409 104.206C208.571 103.305 198.651 104.305 189.189 107.151C179.433 110.096 159.034 117.904 159.034 117.904C159.034 117.904 164.869 179.334 169.723 181.251C174.578 183.167 225.224 164.701 230.079 163.719C234.934 162.737 218.409 104.206 218.409 104.206Z" fill="#FFC107"/>
<path d="M188.535 135.436C196.33 138.054 196.984 145.861 206.086 154.93C215.188 164 249.544 177.698 249.544 177.698L233.953 207.618C233.953 207.618 189.188 214.724 187.275 201.073C185.361 187.422 188.535 135.436 188.535 135.436Z" fill="#AAAFB8"/>
<path d="M378.05 115.94C367.828 111.265 341.174 118.137 337.16 118.371C328.898 118.839 319.702 118.745 319.702 118.745L294.122 151.19C294.122 151.19 352.144 197.94 370.255 188.59C388.366 179.24 378.05 115.94 378.05 115.94Z" fill="#4CAF50"/>
<path d="M347.896 117.904C358.585 119.821 377.07 137.399 381.971 141.28C386.872 145.16 386.639 204.673 386.639 204.673L335.059 177.371L347.896 117.904Z" fill="#FFC107"/>
<path d="M298.276 72.5566L309.246 114.632C309.246 114.632 286.233 162.598 273.397 166.058C260.56 169.517 251.131 136.044 252.111 127.488C253.092 118.933 259.627 71.8086 259.627 71.8086L298.276 72.5566Z" fill="#EAC4B2"/>
<path d="M251.645 131.182C252.671 122.626 259.346 75.502 259.346 75.502H296.269L287.214 154.464C274.47 157.175 250.711 139.69 251.645 131.182Z" fill="#D6A092"/>
<g style="mix-blend-mode:multiply">
<path d="M301.637 85.4581C305.138 78.352 269.662 74.1444 259.346 80.1284L250.291 133.798C256.499 132.255 257.246 150.956 259.626 148.571C266.115 146.187 295.196 97.9405 301.637 85.4581Z" fill="url(#paint0_linear_4421_45090)"/>
</g>
<path d="M242.495 54.5562C239.555 37.8663 243.102 22.1582 268.169 17.8104C299.443 12.3873 302.898 29.2642 305.512 48.9929C308.406 69.4696 301.497 94.154 285.487 96.1643C264.995 98.7823 256.919 91.9567 249.404 75.0798C247.424 74.8247 245.564 73.9865 244.059 72.6715C242.555 71.3565 241.475 69.6238 240.955 67.6931C239.415 61.1948 238.061 55.8653 242.495 54.5562Z" fill="#D6A092"/>
<path d="M277.271 17.7637C293.422 17.7637 302.477 25.2905 304.811 41.1389C305.278 41.1389 303.971 42.7285 304.391 42.635C309.339 42.074 310.039 47.3101 310.366 54.7901C310.6 60.7275 309.433 62.7377 305.698 64.4207C304.158 79.7082 305.698 89.9464 290.154 94.5747C289.594 94.5747 285.813 96.3981 285.486 96.4449C285.16 96.4916 292.768 92.3775 277.271 17.7637Z" fill="#EAC4B2"/>
<path d="M268.169 9.90927C271.856 7.01074 290.061 10.1431 296.176 13.8831C301.544 17.2024 303.084 21.8774 305.138 30.6665C306.472 34.6099 306.73 38.8385 305.885 42.9151L304.158 43.4761L303.691 38.053C302.971 35.4008 301.696 32.9325 299.949 30.8125C298.203 28.6924 296.025 26.9694 293.562 25.7578C284.74 20.8022 271.063 27.6744 271.063 27.6744L268.169 9.90927Z" fill="#5E2014"/>
<path d="M275.497 26.273C273.163 30.1533 275.497 29.7326 267.002 30.7143C258.506 31.6961 248.33 37.9138 247.117 41.7006C246.322 45.6573 246.211 49.7213 246.79 53.7155L244.596 53.9493L238.854 57.362C237.121 48.6449 237.248 39.6592 239.228 30.9948C239.971 27.2934 241.679 23.8551 244.18 21.0301C246.681 18.2051 249.885 16.0944 253.465 14.9126C257.759 12.9491 265.275 5.28203 270.269 11.1258C272.659 15.9271 274.416 21.0186 275.497 26.273Z" fill="#18362F"/>
<path d="M238.855 48.5259C258.786 27.5349 294.449 23.374 306.352 35.5759C306.352 35.5759 306.025 15.0992 293.609 4.44005C283.853 -3.92829 258.926 1.26114 249.404 6.16994C239.882 11.0787 233.113 27.3947 238.855 48.5259ZM259.253 24.4961C259.95 21.1731 261.751 18.1849 264.362 16.0195C266.973 13.8542 270.241 12.6398 273.63 12.5747C284.04 12.5747 285.72 19.634 285.72 19.634L259.253 24.4961Z" fill="white"/>
<path d="M242.729 9.3019C250.65 4.91531 259.33 2.07556 268.309 0.933594C270.755 4.46873 272.557 8.40993 273.63 12.5745C270.471 13.1043 267.509 14.4657 265.049 16.5195C262.588 18.5733 260.717 21.2455 259.627 24.2621L277.364 21.0363C278.238 23.7352 278.955 26.4825 279.512 29.2645C263.781 32.35 244.503 42.0741 237.221 52.9202C231.619 31.8357 233.673 15.2392 242.729 9.3019Z" fill="#C3D0E5"/>
<path d="M170.144 333.051C169.77 345.58 157.634 508.692 156.607 524.214C155.58 539.735 150.492 607.383 148.205 644.643C146.291 675.218 94.2908 661.941 94.2908 661.941C94.2908 661.941 73.799 671.291 101.573 513.741C111.329 458.248 98.6787 374.191 104.187 340.764C107.386 320.917 115.831 302.289 128.646 286.814L175.605 298.642L170.144 333.051Z" fill="#535449"/>
<path d="M131.774 309.019C112.262 403.596 98.3985 512.431 92.7971 548.849C87.1957 585.268 84.0682 664.884 66.517 674.655C50.3195 683.678 30.4345 688.072 23.6661 673.673C6.44165 636.974 23.386 584.24 28.3339 523.183C32.2083 474.75 33.7019 421.454 45.885 362.969C49.0591 347.682 60.7755 313.133 66.0035 298.594C75.7593 271.572 101.666 293.311 101.666 293.311L131.774 309.019Z" fill="#535449"/>
<path d="M148.578 642.257C150.865 604.857 160.341 540.481 161.415 524.96C162.488 509.439 189.422 366.008 180.74 311.591L163.889 291.441C165.196 322.671 170.377 327.205 163.235 381.81C155.953 437.396 144.844 523.838 142.837 531.786C140.829 539.733 121.084 636.039 133.174 660.443C135.741 665.492 137.842 661.939 141.81 658.947C147.224 656.049 147.924 651.935 148.578 642.257Z" fill="#474840"/>
<path d="M326.377 280.924C334.406 302.055 338.42 306.87 338.42 342.073C338.42 377.277 335.059 462.69 332.632 489.057C331.885 496.911 323.53 644.923 323.53 655.442C323.53 665.961 293.749 660.538 285.58 659.042C264.154 655.115 272.93 523.465 272.93 505.981C272.93 488.496 270.083 397.005 270.083 382.933C270.083 368.862 274.75 284.43 274.75 284.43L326.377 280.924Z" fill="#494949"/>
<path d="M318.675 284.243C321.102 295.884 327.311 427.954 324.09 472.788L317.695 661.332C317.695 661.332 326.33 664.184 327.451 660.678C339.12 623.605 337.907 489.244 340.287 473.442C342.668 457.64 348.456 341.559 344.442 328.515C340.427 315.472 334.779 277.09 334.779 277.09L318.675 284.243Z" fill="#424242"/>
<path d="M224.244 277.136C212.154 297.052 202.632 463.811 200.205 481.249C197.777 498.687 179.433 645.717 179.433 653.197C188.348 663.856 201.932 668.765 222.284 661.986C247.583 653.524 257.993 559.135 258.646 530.664L287.867 344.877L295.756 275.406L224.244 277.136Z" fill="#494949"/>
<path d="M467.393 293.172C481.397 325.43 482.937 323.56 491.713 384.709C495.027 407.711 492.833 466.055 497.828 484.522C522.941 578.023 519.907 686.858 519.907 686.858L477.896 675.685C477.896 675.685 425.849 323.092 423.002 311.451C420.154 299.81 467.393 293.172 467.393 293.172Z" fill="#474840"/>
<path d="M386.499 509.86C405.17 604.763 397.468 670.822 397.468 670.822L452.503 670.495C447.088 564.277 443.774 562.361 441.813 527.298C440.161 502.218 433.828 477.67 423.142 454.928C423.142 454.928 430.797 476.854 433.691 488.495C436.585 500.136 462.538 682.977 462.538 682.977L497.734 681.668C505.249 657.124 486.158 539.032 476.122 493.684C470.287 467.223 459.598 335.2 435.325 289.291L364.42 296.631C364.42 296.631 374.969 451.702 386.499 509.86Z" fill="#535449"/>
<path d="M439.713 108.04C439.479 106.544 435.045 82 435.045 82L400.269 86.3478L394.061 110.892L380.291 119.307L415.393 187.89C437.892 195.37 451.802 134.08 458.104 127.114C455.677 129.919 440.273 118.98 439.713 108.04Z" fill="#D6A092"/>
<path style="mix-blend-mode:multiply" d="M429.817 104.674L383.838 157.268L378.004 118.325L393.267 107.152L429.817 104.674Z" fill="url(#paint1_linear_4421_45090)"/>
<path d="M375.109 114.584C364.56 115.799 352.657 177.463 355.318 184.195C355.318 184.195 356.298 213.414 355.645 247.542C354.338 313.928 357.185 331.319 356.671 335.013C355.038 345.999 491.526 346.887 487.372 335.527C467.113 280.782 469.12 199.95 474.535 177.089C476.206 169.978 476.19 162.573 474.487 155.469C472.785 148.365 469.444 141.76 464.733 136.183C458.591 129.764 452.026 123.766 445.081 118.23C445.081 118.23 430.75 139.408 409.418 138.24C397.329 137.538 394.668 117.95 393.314 107.15L375.109 114.584Z" fill="#4CAF50"/>
<path d="M445.407 117.998C455.676 127.347 467.912 134.265 481.21 138.241C499.088 143.29 459.458 214.912 489.285 334.313C478.431 339.372 466.622 342.05 454.65 342.167C439.713 179.662 469.68 148.807 469.68 148.807L437.519 126.787L445.407 117.998Z" fill="#97FF9B"/>
<path d="M491.713 157.174C498.481 167.88 519.393 246.654 519.72 255.35C520.653 272.835 496.381 327.346 492.46 332.208C492.46 332.208 485.691 361.427 481.77 361.427C477.849 361.427 461.372 347.776 461.372 340.997C461.372 334.218 475.935 320.52 475.935 315.658C475.935 310.796 488.585 262.129 488.585 258.248C488.585 254.368 457.497 196.912 463.332 170.685C469.167 144.458 491.713 157.174 491.713 157.174Z" fill="#EAC4B2"/>
<path d="M436.585 57.7354C433.878 39.8767 428.276 25.2904 402.696 28.8435C396.447 29.4127 390.418 31.4467 385.099 34.7809C373.476 40.204 372.169 49.6475 373.896 63.4856C373.382 63.4856 375.296 65.5894 374.829 65.6829C371.468 66.4309 372.869 73.4435 376.043 80.0354C379.217 86.6272 380.711 90.04 381.878 90.2737C388.506 105.281 397.982 118.324 409.885 117.062L414.086 116.267C427.856 113.649 435.185 99.9044 437.425 83.308C439.172 81.7343 440.509 79.7584 441.323 77.551C442.136 75.3437 442.4 72.9711 442.093 70.6385C441.673 63.6726 441.346 57.6887 436.585 57.7354Z" fill="#EAC4B2"/>
<path d="M373.942 63.6729C373.476 63.6729 375.39 65.7767 374.923 65.8702C371.515 66.6182 372.915 73.584 376.136 80.2226C379.357 86.8612 380.804 90.1805 381.971 90.461C388.553 105.468 398.075 118.511 409.978 117.202H411.005C392.334 90.648 387.666 45.5336 388.086 34.6875L385.192 35.0148H384.959C373.569 40.2976 372.262 49.6477 373.942 63.6729Z" fill="#D6A092"/>
<path d="M390.327 29.0775L390.654 27.2541C390.654 27.2541 391.774 16.8756 390.654 17.1094C386.521 17.8938 382.855 20.2578 380.431 23.7012L378.937 21.9713C378.937 21.9713 376.417 25.4777 374.269 28.0958L370.442 32.7708C370.442 32.7708 371.469 35.3887 371.189 31.4617C367.874 33.3317 367.314 42.6351 368.668 49.1801C368.716 51.4008 368.887 53.6172 369.181 55.8188C370.395 65.6831 372.916 67.8337 372.916 67.8337L375.063 68.6752L376.79 69.9374L374.876 62.1768C374.132 59.3311 374.215 56.3317 375.117 53.532C376.018 50.7324 377.7 48.2491 379.964 46.3751C385.799 40.952 400.829 40.0171 400.829 40.0171L390.327 29.0775Z" fill="#535449"/>
<path d="M435.418 28.7977C432.711 23.0006 430.75 19.4475 421.041 19.0735C419.046 17.3485 416.724 16.0452 414.213 15.2418C411.702 14.4384 409.055 14.1515 406.431 14.3985C406.104 14.9595 413.619 17.8113 413.853 20.7098C409.772 16.5415 404.718 13.4567 399.149 11.7338C401.066 14.5396 402.634 17.5697 403.817 20.7566L405.311 21.2241C403.677 15.6141 393.454 9.48968 393.781 11.5C394.108 13.5102 400.036 16.6893 399.522 21.2241C398.584 18.3728 396.898 15.8265 394.639 13.8525C392.381 11.8784 389.634 10.5491 386.686 10.0039C389.066 15.3802 390.42 19.354 381.645 30.2936C381.645 30.2936 377.257 44.9265 387.619 44.3188C390.84 44.085 402.65 41.5138 410.632 40.2983C416.84 41.4671 426.83 44.9733 428.883 47.4043C431.247 51.449 432.978 55.8319 434.018 60.401L436.959 57.9232L440.553 59.1388C441.026 48.7738 439.275 38.4278 435.418 28.7977Z" fill="#18362F"/>
<path d="M478.082 143.148C493.16 155.818 502.869 193.125 508.237 208.225C493.762 214.078 481.157 223.776 471.781 236.276C471.781 236.276 452.829 201.213 457.217 172.975C461.605 144.738 478.082 143.148 478.082 143.148Z" fill="#4CAF50"/>
<path d="M470.567 145.487C473.741 144.272 482.937 139.643 486.858 142.682C495.587 149.461 511.878 199.765 512.111 208.507C507.943 208.929 503.899 210.168 500.208 212.154C489.285 168.863 487.372 164.561 479.576 153.762C477.429 150.195 474.301 147.322 470.567 145.487Z" fill="#97FF9B"/>
<path d="M458.057 117.296C458.543 116.661 459.207 116.188 459.965 115.938C460.723 115.688 461.538 115.672 462.305 115.893C462.879 116.004 463.422 116.235 463.9 116.572C464.377 116.91 464.777 117.345 465.073 117.849C465.369 118.354 465.554 118.916 465.616 119.497C465.678 120.079 465.616 120.667 465.433 121.223C464.294 125.058 462.441 128.644 459.971 131.789C458.571 133.144 454.463 138.427 452.923 137.679C451.382 136.931 451.942 135.996 453.483 131.181L458.057 117.296Z" fill="#EAC4B2"/>
<path d="M465.619 119.774C468 117.202 473.788 116.969 474.722 121.41C475.655 125.851 470.661 130.152 469.027 133.892C467.393 137.632 462.212 143.242 458.338 143.242C454.463 143.242 455.397 141.092 457.684 137.492C459.971 133.892 465.619 119.774 465.619 119.774Z" fill="#EAC4B2"/>
<path d="M474.862 123.654C475.683 123.24 476.6 123.053 477.517 123.115C478.434 123.177 479.319 123.484 480.077 124.004C480.835 124.525 481.44 125.24 481.828 126.075C482.216 126.91 482.374 127.834 482.284 128.75C481.957 132.864 475.422 139.503 472.948 141.653C470.474 143.804 466.88 146.328 465.339 145.674C463.799 145.019 464.686 139.877 466.553 136.324C468.42 132.771 474.862 123.654 474.862 123.654Z" fill="#EAC4B2"/>
<path d="M481.07 130.387C484.337 131.228 488.072 131.789 487.045 135.763C486.018 139.737 474.768 149.087 473.041 147.591C470.474 145.487 473.881 142.121 476.635 138.241C478.306 135.737 479.788 133.111 481.07 130.387Z" fill="#EAC4B2"/>
<path d="M267.702 123.748C289.174 128.938 298.883 123.094 307.986 108.788C327.451 103.599 345.609 113.463 358.585 119.821C357.278 134.127 346.916 167.928 348.223 184.851C348.223 184.851 346.916 262.177 346.916 293.406C346.908 307.784 348.205 322.133 350.79 336.276C350.79 336.276 269.989 347.824 269.989 334.827C269.989 321.83 267.702 123.748 267.702 123.748Z" fill="#FFD45F"/>
<path d="M254.072 105.749C255.379 118.746 271.623 125.244 285.907 125.244C288.521 133.005 291.088 169.423 291.088 187.609C291.088 205.795 281.986 294.247 289.781 341.044C289.781 341.044 205.479 341.044 202.819 331.694C201.838 328.281 206.46 299.343 210.614 260.54C213.302 233.764 214.16 206.835 213.181 179.942C213.181 155.211 200.205 111.032 204.126 105.843C208.047 100.653 254.072 105.749 254.072 105.749Z" fill="#FFC107"/>
<path opacity="0.44" d="M234.933 158.344C242.729 164.188 283.899 165.169 295.289 165.169C301.637 165.169 335.713 158.344 335.713 158.344L337.673 175.875C322.609 181.785 306.611 184.951 290.434 185.225C271.827 184.807 253.276 183.01 234.933 179.849V158.344Z" fill="white"/>
<path opacity="0.21" d="M236.567 189.9C240.442 190.554 282.732 196.819 292.582 195.744C310.086 193.78 334.592 186.02 336.693 186.02C338.794 186.02 336.039 198.362 336.039 198.362C321.048 204.07 305.339 207.673 289.361 209.067C276.991 210.143 235.447 204.86 235.447 204.86L236.567 189.9Z" fill="white"/>
<path d="M217.616 98.2223C221.236 95.2676 225.595 93.3599 230.219 92.7057C234.607 92.0979 244.829 93.968 246.93 96.3055C248.805 99.5082 250.086 103.024 250.711 106.684L249.591 119.494C249.591 119.494 244.923 121.784 245.716 112.107C245.934 108.066 244.836 104.063 242.589 100.7C244.173 103.593 245.172 106.77 245.53 110.05C245.203 113.556 245.53 121.831 242.309 122.159C239.088 122.486 240.255 120.429 239.508 111.453C238.948 104.253 234.84 102.43 234.84 102.43C236.845 104.656 238.117 107.448 238.481 110.424C238.481 114.585 235.494 125.712 232.833 124.216C230.172 122.72 232.833 117.904 232.04 113.603C231.353 110.908 230.251 108.337 228.772 105.983C230.195 108.204 230.851 110.832 230.639 113.463C230.032 118.138 228.492 124.496 227.092 122.065C225.691 119.634 229.192 112.715 218.83 104.347C212.575 101.962 217.616 98.2223 217.616 98.2223Z" fill="#EAC4B2"/>
<path d="M179.619 135.903C176.912 132.491 178.593 109.536 144.377 97.1003C128.833 91.4435 104.28 86.9554 92.7505 101.027C82.9947 112.949 100.079 148.947 122.718 150.349C145.357 151.752 179.619 135.903 179.619 135.903Z" fill="#535449"/>
<path d="M165.429 122.299L152.546 114.398L149.512 80.457L114.829 84.1036C114.829 84.1036 113.336 94.4822 111.282 107.198C110.722 117.437 96.2979 118.232 96.2046 121.598C96.2046 126.273 119.544 155.866 132.381 161.709C135.881 171.2 165.429 122.299 165.429 122.299Z" fill="#D6A092"/>
<path d="M145.031 141.467C157.354 135.202 156.934 117.156 156.934 117.156C156.934 117.156 162.535 118.091 184.941 133.005C195.817 140.251 166.689 261.709 162.115 307.571C161.788 310.703 148.905 311.919 114.549 312.246C114.549 276.482 131.26 163.72 133.221 144.412C133.268 143.149 140.269 143.851 145.031 141.467Z" fill="#2196F3"/>
<path d="M103.393 116.408C103.393 116.408 93.3105 119.213 70.438 123.421C60.8689 125.197 71.3716 145.955 70.438 157.221C70.8204 172.31 72.4756 187.339 75.3859 202.149C77.3931 211.732 64.2297 280.456 62.9227 297.566C62.1758 306.917 110.908 311.825 143.63 310.563C143.63 275.126 138.962 144.272 135.601 143.944C127.986 143.447 120.735 140.497 114.93 135.535C109.125 130.572 105.079 123.863 103.393 116.408Z" fill="#33A5FF"/>
<path d="M153.573 113.836L157.54 117.342C157.54 117.342 165.662 142.073 135.601 146.468C133.641 142.213 135.275 140.858 135.275 140.858C139.531 140.814 143.679 139.507 147.193 137.102C150.708 134.697 153.432 131.302 155.02 127.347C156.094 122.81 155.584 118.041 153.573 113.836Z" fill="#D3D3D3"/>
<path d="M135.275 140.859C132.847 140.485 111.935 133.893 106.847 122.907C103.72 116.175 107.314 113.557 107.314 113.557L100.499 116.595C100.499 116.595 96.7649 130.62 115.483 139.737C127.946 145.908 127.9 145.674 135.601 146.516L135.275 140.859Z" fill="#8FA4BC"/>
<path d="M165.522 116.549C171.124 129.686 163.469 148.059 154.413 170.312C145.357 192.565 137.982 211.032 140.409 222.953C145.684 247.965 144.004 300.793 145.077 308.319C158.241 310.189 178.686 315.472 184.334 311.732C189.982 307.992 196.61 303.598 191.429 268.395C187.181 239.736 188.068 203.785 190.916 189.667C193.763 175.548 196.19 137.633 188.628 133.566C180.492 128.511 172.766 122.821 165.522 116.549Z" fill="#D3D3D3"/>
<path d="M183.96 309.909C182.862 313.631 182.717 317.57 183.54 321.363C183.54 321.363 185.407 334.546 143.49 328.936C138.822 328.329 143.49 302.896 143.49 302.896L183.96 309.909Z" fill="#D3D3D3"/>
<path d="M150.399 310.375C158.567 304.718 146.291 258.388 143.443 227.346C140.596 196.304 123.372 164.467 116.837 149.413C110.302 134.359 88.8294 126.365 92.5637 112.293C79.4003 121.643 68.1975 119.539 54.5673 127.019C57.3681 146.795 65.8635 194.714 62.0825 201.306C63.6743 217.643 62.3786 234.133 58.2548 250.02C54.4739 265.074 41.7774 295.976 54.4273 304.251C59.7953 307.056 137.095 319.585 150.399 310.375Z" fill="#AAAFB8"/>
<path d="M53.3537 298.314C55.2675 302.569 52.42 315.378 52.42 315.378C52.42 315.378 112.636 333.611 145.077 329.404C146.011 311.077 145.684 305.374 145.684 305.374L53.3537 298.314Z" fill="#AAAFB8"/>
<path d="M73.5655 255.35C78.3342 259.745 83.3863 263.821 88.6894 267.551C91.4901 268.86 95.7379 271.479 95.7379 271.479C95.7379 271.479 89.2028 286.532 82.9479 289.01C80.7073 289.898 78.6068 290.693 76.0395 285.41C74.6793 282.235 72.5829 279.431 69.9245 277.229C68.1507 275.546 63.2029 268.907 63.2029 268.907L73.5655 255.35Z" fill="#EAC4B2"/>
<path d="M57.368 126.085C50.7863 122.813 38.2764 139.316 34.8689 154.136C33.5619 159.839 11.0161 234.593 12.9766 246.795C16.7109 270.17 50.3195 295.836 70.2046 283.634C76.4064 277.88 81.501 271.035 85.2351 263.438C85.2351 263.438 58.0682 236.229 57.228 234.733C54.3806 230.432 66.0969 208.88 66.5637 204.346C69.1777 179.428 61.0556 127.955 57.368 126.085Z" fill="#C3D0E5"/>
<path d="M141.296 215.612C145.031 198.361 121.318 151.984 113.569 142.587C105.527 132.567 95.3947 124.43 83.8816 118.745C71.8385 112.153 71.9784 109.395 71.9784 109.395L71.5584 119.586C71.5584 119.586 70.158 124.869 90.2298 131.928C99.9751 135.446 108.216 142.214 113.569 151.096C138.262 191.255 141.296 215.612 141.296 215.612Z" fill="#D3D3D3"/>
<path d="M141.576 218.417C142.51 191.442 163.188 166.991 164.915 146.187C166.643 125.383 187.415 117.81 187.415 117.81C185.821 114.888 183.537 112.401 180.762 110.567C177.987 108.734 174.806 107.609 171.497 107.291C159.267 105.421 151.005 97.0992 151.472 99.9042C151.939 102.709 158.1 107.945 161.461 116.547C165.51 125.92 166.073 136.435 163.048 146.187C160.201 158.389 140.783 196.491 140.783 203.971C140.783 211.451 141.576 218.417 141.576 218.417Z" fill="#535449"/>
<path d="M108.388 136.744C103.75 131.881 100.952 125.55 100.475 118.842C99.9975 112.135 101.872 105.47 105.774 99.9979C110.068 95.3229 94.7575 96.9591 88.4559 104.673C81.174 113.743 77.113 111.125 72.1184 109.348C68.4307 108.226 81.4541 123.14 92.0968 126.085C98.1281 128.618 103.649 132.23 108.388 136.744Z" fill="#535449"/>
<path d="M96.2513 265.169C92.0878 275.024 85.0412 283.386 76.0396 289.152C70.5315 292.237 69.7845 291.629 70.3913 292.892C70.9982 294.154 74.7792 297.567 77.2998 297.286C84.1616 296.632 104.373 274.425 102.179 269.236C99.9856 264.047 96.2513 265.169 96.2513 265.169Z" fill="#535449"/>
<path d="M61.3357 136.09C53.5404 150.723 26.4668 235.248 30.0144 246.609C34.6822 262.177 60.6822 274.378 64.5565 275.36C67.0305 277.791 59.8887 282.326 59.8887 282.326C59.8887 282.326 18.2047 277.324 18.3447 242.354C18.3447 224.823 41.684 128.938 56.6678 128.283C64.9766 127.956 61.3357 136.09 61.3357 136.09Z" fill="#33A5FF"/>
<path d="M69.9244 150.068C72.8651 157.361 67.4972 203.177 63.6229 212.948C59.7486 222.719 56.8077 229.03 58.7215 232.957C60.6354 236.884 78.9334 251.236 79.9137 255.117C80.224 256.982 80.9764 258.745 82.1076 260.259L84.5348 264.654L79.1668 272.695L71.885 268.768C65.5563 265.229 59.5983 261.063 54.1004 256.332C47.2853 250.021 40.7037 245.112 43.1776 229.03C45.6516 212.948 69.9244 150.068 69.9244 150.068Z" fill="#D3D3D3"/>
<path style="mix-blend-mode:multiply" d="M154.693 104.158L108.014 165.355L90.2765 124.168C90.2765 124.168 107.454 117.482 109.508 109.301C111.562 101.12 114.176 86.627 114.176 86.627L154.693 104.158Z" fill="url(#paint2_linear_4421_45090)"/>
<path d="M174.205 55.8668C174.205 79.8498 166.549 105.282 153.573 107.947C141.716 110.378 115.763 96.3995 108.668 73.5385C101.573 50.6775 110.162 27.349 132.847 23.9362C157.587 20.1495 174.018 35.6238 174.205 55.8668Z" fill="#D6A092"/>
<path d="M149.372 35.6236C149.372 41.5141 130.7 39.9714 124.539 44.4595C118.377 48.9475 116.37 61.1962 116.137 63.4402C115.903 65.6842 111.142 59.5599 108.014 64.7024C104.887 69.845 112.682 80.7378 115.53 81.1585C118.377 81.5793 117.397 95.1837 117.397 95.1837C111.67 89.3574 107.238 82.3848 104.39 74.7228C101.542 67.0608 100.344 58.8825 100.873 50.724C101.081 41.4195 104.94 32.5715 111.615 26.0964C118.29 19.6213 127.243 16.0402 136.535 16.1286C150.865 17.9051 149.372 35.6236 149.372 35.6236Z" fill="#18362F"/>
<path d="M172.851 37.4469C173.178 44.2257 175.418 60.8221 174.111 68.5359C172.804 76.2498 168.136 99.4848 158.801 105.656C154.133 108.788 151.566 108.227 151.566 108.227C151.566 108.227 162.535 102.056 161.788 66.8528C161.649 55.6675 159.185 44.6338 154.553 34.4548C154.553 33.1925 172.851 37.4469 172.851 37.4469Z" fill="#EAC4B2"/>
<path style="mix-blend-mode:multiply" d="M174.205 55.8655L123.558 107.291C123.558 107.291 100.219 82.186 104.887 64.1871C109.555 46.1882 96.3913 35.8097 121.878 38.6147L172.944 44.2715L174.205 55.8655Z" fill="url(#paint3_linear_4421_45090)"/>
<path d="M100.919 57.3611C117.023 53.3406 137.095 47.3098 137.095 47.3098L132.194 11.8262C132.194 11.8262 111.655 17.9972 103.393 30.0588C97.885 37.8662 100.919 57.3611 100.919 57.3611Z" fill="#535449"/>
<path d="M131.821 47.8251L175.325 45.9085C175.325 45.9085 176.959 23.8422 168.93 16.8296C160.901 9.81705 133.968 8.50797 130.654 12.5285C127.339 16.5491 131.821 47.8251 131.821 47.8251Z" fill="#474840"/>
<path d="M124.259 48.5266C128.273 48.7603 154.506 54.2301 158.287 53.7158C162.068 53.2016 197.031 51.8459 197.031 48.5266C197.031 45.2073 175.792 42.3555 175.792 42.3555L124.259 48.5266Z" fill="#535449"/>
<path d="M77.5799 109.443C80.3113 111.397 82.5341 113.98 84.0613 116.974C85.5884 119.967 86.3752 123.285 86.3555 126.647C87.009 134.127 87.9893 146.796 87.9893 146.796C87.4496 147.204 86.8072 147.454 86.134 147.517C85.4607 147.58 84.7833 147.454 84.1775 147.153C83.5718 146.852 83.0616 146.388 82.7043 145.813C82.347 145.238 82.1566 144.575 82.1544 143.898C81.2063 139.252 79.8953 134.687 78.2334 130.246C78.2334 130.246 77.7666 137.072 77.7666 139.971C77.1406 144.338 76.813 148.743 76.7863 153.154C77.113 159.325 74.9659 161.803 73.3788 161.429C70.158 160.681 69.8312 153.014 69.8312 145.861C69.8185 141.724 70.0211 137.589 70.438 133.472C70.438 133.472 68.1042 145.16 68.0108 146.796C67.9174 148.432 72.6785 162.598 68.7575 164C66.0969 164.982 60.5421 151.845 61.1956 147.311C61.8491 142.776 62.0825 135.483 62.0825 135.483C61.3037 139.101 60.8043 142.774 60.5888 146.469C60.5888 150.349 65.5368 160.12 62.316 159.512C59.8084 158.762 57.6751 157.093 56.3411 154.837C54.8633 152.5 53.9815 149.835 53.7737 147.077C54.4272 143.196 54.8941 136.792 54.8941 136.792C54.0059 139.317 53.876 142.047 54.5206 144.646C56.1077 150.443 56.2011 157.362 53.5404 154.417C50.8797 151.471 47.0987 140.672 48.4057 136.792C49.7127 132.911 50.3663 122.486 56.2011 114.679C62.0359 106.871 77.5799 109.443 77.5799 109.443Z" fill="#EAC4B2"/>
<defs>
<linearGradient id="paint0_linear_4421_45090" x1="252.858" y1="146.701" x2="285.618" y2="70.5812" gradientUnits="userSpaceOnUse">
<stop stop-color="white"/>
<stop offset="0.64" stop-color="#C6C0B9"/>
</linearGradient>
<linearGradient id="paint1_linear_4421_45090" x1="384.072" y1="157.736" x2="412.011" y2="92.7836" gradientUnits="userSpaceOnUse">
<stop stop-color="white"/>
<stop offset="0.64" stop-color="#C6C0B9"/>
</linearGradient>
<linearGradient id="paint2_linear_4421_45090" x1="93.4973" y1="160.306" x2="141.542" y2="84.3562" gradientUnits="userSpaceOnUse">
<stop stop-color="white"/>
<stop offset="0.25" stop-color="#FDFCFC"/>
<stop offset="0.44" stop-color="#F5F3F2"/>
<stop offset="0.61" stop-color="#E8E4E2"/>
<stop offset="0.76" stop-color="#D5CECB"/>
<stop offset="0.91" stop-color="#BEB2AE"/>
<stop offset="0.97" stop-color="#B3A6A1"/>
</linearGradient>
<linearGradient id="paint3_linear_4421_45090" x1="107.081" y1="101.214" x2="157.09" y2="22.1344" gradientUnits="userSpaceOnUse">
<stop stop-color="white"/>
<stop offset="0.17" stop-color="#F8F7F7"/>
<stop offset="0.43" stop-color="#E6E2E0"/>
<stop offset="0.76" stop-color="#C8BFBC"/>
<stop offset="0.97" stop-color="#B3A6A1"/>
</linearGradient>
</defs>
</svg>
