<svg width="17" height="16" viewBox="0 0 17 16" fill="none" xmlns="http://www.w3.org/2000/svg">
<g clip-path="url(#clip0_6689_615)">
<path d="M10.6836 14.9108H6.83223C6.62302 14.9108 6.41094 14.9049 6.20173 14.8933C5.99252 14.8817 5.79372 14.8617 5.61811 14.8393C5.4137 14.8133 5.23706 14.7841 5.07746 14.7501C4.88905 14.7101 4.72769 14.67 4.58368 14.624C4.42607 14.574 4.27525 14.5185 4.13444 14.4585C3.99433 14.3993 3.85774 14.3317 3.72583 14.256C3.59948 14.182 3.47761 14.1006 3.36096 14.0121C3.24655 13.9259 3.13856 13.8316 3.03751 13.73C2.93592 13.6289 2.84152 13.5207 2.75507 13.4064C2.66689 13.2896 2.5854 13.1678 2.51131 13.0416C2.43565 12.9098 2.36811 12.7736 2.30896 12.6336C2.24776 12.49 2.19173 12.3388 2.14333 12.184C2.09492 12.0291 2.05808 11.8815 2.02848 11.7379C1.9112 11.3091 1.85431 10.866 1.85933 10.4215V10.2014C1.85933 10.1158 1.8562 10.0242 1.8562 9.93384V9.51224C1.8562 9.54664 1.85613 9.58144 1.85933 9.61664V8.18531C1.85613 8.06531 1.85613 7.93937 1.85933 7.81577V6.4157C1.85933 6.4629 1.85659 6.50766 1.85659 6.55486V6.08404C1.85659 5.99043 1.85652 5.89481 1.85972 5.81801V5.59642C1.85468 5.15186 1.91158 4.70877 2.02887 4.27994C2.06367 4.12234 2.10251 3.9727 2.14372 3.8351C2.19372 3.67509 2.24975 3.52547 2.30935 3.38547C2.36857 3.24552 2.43611 3.10926 2.5117 2.97744C2.58496 2.85071 2.66649 2.7289 2.75547 2.61267C2.84194 2.49835 2.93633 2.39018 3.0379 2.28902C3.13938 2.18743 3.24733 2.09269 3.36135 2.00542C3.47803 1.91742 3.59989 1.83649 3.72622 1.76302C3.85816 1.68739 3.99474 1.61976 4.13483 1.56057C4.28151 1.49727 4.43148 1.44194 4.58407 1.39464C4.74408 1.34544 4.91064 1.30296 5.07785 1.26856C5.24505 1.23416 5.42929 1.20184 5.6185 1.17784C5.82811 1.15263 6.01851 1.1354 6.20212 1.125C6.41093 1.1134 6.62301 1.10742 6.83262 1.10742H10.684C10.8936 1.10742 11.1061 1.1134 11.3149 1.125C11.4985 1.135 11.6901 1.15263 11.8997 1.17784C12.0869 1.20184 12.2684 1.23216 12.4388 1.26856C12.6092 1.30496 12.7701 1.34504 12.9325 1.39464C13.0853 1.4419 13.2354 1.49723 13.3822 1.56057C13.5222 1.61964 13.6586 1.68728 13.7904 1.76302C13.9174 1.8356 14.0394 1.91657 14.1556 2.00542C14.2696 2.09278 14.3775 2.18751 14.4791 2.28902C14.5807 2.39051 14.6754 2.49866 14.7627 2.61267C14.8509 2.72909 14.932 2.85088 15.0049 2.97744C15.0807 3.10924 15.1483 3.2455 15.2076 3.38547C15.2714 3.53204 15.3268 3.68217 15.3733 3.8351C15.4173 3.9843 15.4531 4.1151 15.4799 4.2399C15.6054 4.68093 15.6661 5.13792 15.66 5.59642V10.4226C15.6662 10.8817 15.6055 11.3391 15.4799 11.7807C15.4459 11.9303 15.4113 12.0627 15.3733 12.1855C15.3268 12.3385 15.2715 12.4886 15.2076 12.6351C15.1482 12.7751 15.0806 12.9113 15.0049 13.0432C14.9311 13.1692 14.8501 13.291 14.7627 13.408C14.6754 13.522 14.5806 13.63 14.4791 13.7316C14.378 13.8331 14.27 13.9274 14.1556 14.0136C14.0395 14.1031 13.9175 14.1846 13.7904 14.2577C13.6586 14.3333 13.5221 14.4008 13.3822 14.46C13.241 14.5204 13.0897 14.5761 12.9325 14.6257C12.7877 14.6701 12.626 14.7113 12.4388 14.7517C12.2788 14.7857 12.1021 14.8148 11.8997 14.8408C11.7253 14.8632 11.5289 14.8808 11.3149 14.8948C11.1009 14.9088 10.8928 14.9108 10.6836 14.9108ZM7.59438 6.81728C7.60998 7.1773 7.59998 10.1571 7.59438 11.4211C7.59438 11.4783 7.59438 11.5111 7.59438 11.5147H9.15461V8.88974C9.14793 8.7619 9.16475 8.63397 9.20422 8.51219C9.2643 8.34588 9.37208 8.20109 9.5144 8.09615C9.65869 7.99374 9.83162 7.93912 10.0086 7.94009C10.525 7.94009 10.7977 8.30657 10.7977 9.0002V11.5107H12.3579V8.82177C12.3579 7.49851 11.6862 6.70848 10.5617 6.70848C10.5393 6.70848 10.5162 6.70848 10.4922 6.70848C10.2318 6.70854 9.97546 6.77432 9.74722 6.8997C9.50067 7.03912 9.2958 7.24142 9.15305 7.48606V6.81962L7.59438 6.81728ZM5.16535 6.81728V11.5095H6.72871V6.81728H5.16535ZM5.95719 4.52996C5.73117 4.52337 5.5119 4.60651 5.347 4.76122C5.1821 4.91592 5.0849 5.12961 5.07707 5.35558C5.08469 5.58177 5.18171 5.79572 5.34661 5.95073C5.51151 6.10574 5.73096 6.18924 5.95719 6.18287C6.18338 6.18913 6.40289 6.10562 6.56776 5.95063C6.73264 5.79565 6.82958 5.58173 6.83731 5.35558C6.82979 5.12936 6.73269 4.91537 6.56776 4.76034C6.40284 4.60531 6.18344 4.52192 5.95719 4.52839V4.52996Z" fill="#A6A6A6"/>
</g>
<defs>
<clipPath id="clip0_6689_615">
<rect width="16" height="16" fill="white" transform="translate(0.75)"/>
</clipPath>
</defs>
</svg>
