<svg width="66" height="66" viewBox="0 0 66 66" fill="none" xmlns="http://www.w3.org/2000/svg">
<path d="M32.7098 64C50.6591 64 65.2098 49.6731 65.2098 32C65.2098 14.3269 50.6591 0 32.7098 0C14.7606 0 0.209839 14.3269 0.209839 32C0.209839 49.6731 14.7606 64 32.7098 64Z" fill="#4B4B4B"/>
<path d="M28.2098 9.09007C34.0017 8.28581 37.1715 12.9441 37.2098 20" stroke="#429C46" stroke-width="3.84" stroke-linecap="round" stroke-linejoin="round"/>
<path fill-rule="evenodd" clip-rule="evenodd" d="M22.6525 19.9489C23.403 22.6504 26.3435 24.5736 30.3278 26C32.9238 24.9113 36.0913 22.2773 37.3156 18.3279C40.4466 8.24057 34.8587 8.29363 28.2603 9.6235C23.3947 9.77787 21.198 14.7194 22.6525 19.9489Z" fill="#1C1B19"/>
<path fill-rule="evenodd" clip-rule="evenodd" d="M40.783 39.2357C42.6557 39.9903 48.9824 42.6732 51.3155 42.9698C54.5404 43.3794 55.119 39.5146 52.8064 37.7621C49.1313 34.9776 41.3 31.8368 39.376 31C37.0976 32.1093 35.4115 37.0752 40.783 39.2357Z" fill="#FFC107"/>
<path fill-rule="evenodd" clip-rule="evenodd" d="M46.4654 34.5153C47.4513 36.0452 48.5277 37.4378 49.2098 38C47.8537 37.7011 45.904 35.8368 45.2098 34C45.6082 34.1729 46.0609 34.3344 46.4654 34.5153Z" fill="#CE9E0C"/>
<path fill-rule="evenodd" clip-rule="evenodd" d="M39.4891 30.7C39.8221 40.3805 40.8709 46.0107 39.5907 53.6382C38.9931 57.2018 38.9331 59.8615 39.4808 64.2835C32.7354 65.4224 24.1838 65.1453 17.4384 63.8645C18.1376 59.9916 18.3823 44.4849 16.2098 31.4215C19.5476 28.6672 34.1354 28.042 39.4891 30.7Z" fill="#FFC107"/>
<mask id="mask0_4547_4775" style="mask-type:luminance" maskUnits="userSpaceOnUse" x="16" y="29" width="25" height="36">
<path d="M39.8672 30.9015C40.2008 40.3951 41.2516 45.9165 39.9689 53.3967C39.3701 56.8915 39.3101 59.4998 39.8588 63.8365C33.1004 64.9534 24.5322 64.6816 17.7738 63.4255C18.4743 59.6274 18.7195 44.4202 16.5428 31.6091C19.887 28.908 34.5031 28.2949 39.8672 30.9015Z" fill="white"/>
</mask>
<g mask="url(#mask0_4547_4775)">
<path opacity="0.5" d="M12.0396 45.3306L13.8743 43.5078L15.7091 45.3306L17.5438 43.5078L19.3785 45.3306L21.2132 43.5078L23.048 45.3306L24.8827 43.5078L26.7174 45.3306L28.5521 43.5078L30.3868 45.3306L32.2216 43.5078L34.0563 45.3306L35.891 43.5078L37.7257 45.3306L39.5605 43.5078L41.3952 45.3306L43.2299 43.5078L45.0646 45.3306" stroke="#A6A6A6" stroke-width="3.12" stroke-linecap="round" stroke-linejoin="round"/>
<path opacity="0.5" d="M12.0396 42.8033L13.8743 40.9805L15.7091 42.8033L17.5438 40.9805L19.3785 42.8033L21.2132 40.9805L23.048 42.8033L24.8827 40.9805L26.7174 42.8033L28.5521 40.9805L30.3868 42.8033L32.2216 40.9805L34.0563 42.8033L35.891 40.9805L37.7257 42.8033L39.5605 40.9805L41.3952 42.8033L43.2299 40.9805L45.0646 42.8033" stroke="#A6A6A6" stroke-width="3.12" stroke-linecap="round" stroke-linejoin="round"/>
</g>
<path fill-rule="evenodd" clip-rule="evenodd" d="M18.8331 64L18.2098 63.8779C18.6773 61.0841 18.9313 52.2583 18.28 42.6437C18.976 42.0484 19.7045 41.4995 20.4615 41C20.1498 44.3926 18.5916 50.3601 19.8382 51.8257C21.0847 53.2913 25.5023 54.0089 29.6627 53.5729C32.3304 53.293 24.6827 59.498 18.8331 64Z" fill="#CE9E0C"/>
<path fill-rule="evenodd" clip-rule="evenodd" d="M18.5361 45.1818C16.3407 49.5848 13.5321 52.6397 12.7992 54.3232C11.4451 57.4265 6.4896 55.8098 7.29853 52.8216C8.63487 47.8763 12.2572 33.9898 16.1417 31.342C19.3677 29.1347 22.0857 38.0625 18.5361 45.1818Z" fill="#FFC107"/>
<path fill-rule="evenodd" clip-rule="evenodd" d="M13.8965 52C12.3648 51.9808 8.06317 51.4296 7.20984 52C8.02151 50.6125 11.1098 49.4733 15.2098 50.2549C14.8032 50.648 14.1982 51.6616 13.8965 52Z" fill="#CE9E0C"/>
<path fill-rule="evenodd" clip-rule="evenodd" d="M33.0008 19.1706L33.1426 28.9667C33.1733 31.058 33.7872 34.233 30.6127 37C26.6212 34.3177 26.3843 31.4254 26.3521 29.1767L26.2103 19.3806C26.1474 15.1133 32.9348 14.7136 33.0008 19.1706Z" fill="#FBC9BE"/>
<path fill-rule="evenodd" clip-rule="evenodd" d="M33.1424 26C30.8918 26.2505 29.0029 26.2272 26.2098 26.0124C27.7289 28.3683 30.3937 28.9953 33.2098 29L33.1424 26Z" fill="#E3B4AA"/>
<path fill-rule="evenodd" clip-rule="evenodd" d="M43.868 25.2741C45.6388 22.5134 39.9866 15.1473 39.317 16.0813C38.8738 16.698 40.2885 17.7789 40.794 19.3834C40.09 18.4458 37.6249 15.6941 37.1161 16.7715C36.8913 17.2465 39.0232 18.643 39.7256 20.7709C38.951 19.7957 36.7452 17.5441 36.2709 18.3633C35.7211 19.3081 39.0511 21.3625 39.5402 23.4437C38.8509 23.1085 37.5199 22.5994 37.2983 22.8916C36.7255 23.6445 42.3729 27.6045 43.868 25.2741Z" fill="#FBC9BE"/>
<path fill-rule="evenodd" clip-rule="evenodd" d="M36.7107 22C37.5372 22 38.2098 20.8699 38.2098 19.5008C38.2098 18.1317 37.5372 17 36.7107 17C35.8842 17 35.2098 18.1301 35.2098 19.5008C35.2098 20.8715 35.8842 22 36.7107 22Z" fill="#429C46"/>
<path fill-rule="evenodd" clip-rule="evenodd" d="M29.9999 9.01057C23.441 9.54274 22.7489 15.9862 23.4086 21.5428C23.7904 24.7527 27.2045 28.2143 32.272 27.9896C38.4849 27.7125 39.9746 8.48516 29.9999 9.01057Z" fill="#FBC9BE"/>
<path fill-rule="evenodd" clip-rule="evenodd" d="M36.9894 19.264C36.9185 14.7294 35.7341 13.1585 34.581 12.703C33.6865 12.3549 33.39 12.5974 32.0293 12.5974C30.6686 12.5974 29.2041 12.3664 27.6919 12.9902C24.2128 14.4225 25.5504 18.7789 23.7383 21C23.0316 18.4043 22.8488 15.0809 24.3676 12.3417C25.6327 10.0611 27.9505 8.98854 30.2683 9.00009C36.5759 9.02814 37.7949 14.373 36.9894 19.264Z" fill="#1C1B19"/>
<path fill-rule="evenodd" clip-rule="evenodd" d="M22.6996 19.0124C23.1749 18.907 23.7882 19.4858 24.0697 20.3115C24.3513 21.1371 24.1953 21.8805 23.72 21.9873C23.2448 22.0941 22.6315 21.5139 22.3499 20.6882C22.0684 19.8626 22.2244 19.1192 22.6996 19.0124Z" fill="#FBC9BE"/>
<path fill-rule="evenodd" clip-rule="evenodd" d="M37.1115 14C36.1865 10.3843 32.3375 10.3466 30.2098 11.928C31.7907 9.4332 38.0663 8.64403 37.1115 14Z" fill="#A6A6A6"/>
<path fill-rule="evenodd" clip-rule="evenodd" d="M22.2098 17C24.3359 13.3336 25.7729 12.2918 29.2098 12.3253C25.2233 11.2788 22.5645 12.7365 22.2098 17Z" fill="#A6A6A6"/>
<path fill-rule="evenodd" clip-rule="evenodd" d="M22.2139 19C23.3052 16.8478 23.3441 16.403 25.2098 15C23.0476 15.6368 22.141 17.5314 22.2139 19Z" fill="#A6A6A6"/>
<path fill-rule="evenodd" clip-rule="evenodd" d="M35.2098 9.57354C33.2395 8.87101 31.0516 10.2012 30.2098 11C30.8745 9.31856 32.5024 8.29686 35.2098 9.57354Z" fill="#A6A6A6"/>
<path fill-rule="evenodd" clip-rule="evenodd" d="M23.2098 13C24.6234 10.8591 27.4353 10.567 28.2098 10.8294C27.8607 9.5878 24.2522 9.32989 23.2098 13Z" fill="#A6A6A6"/>
<path fill-rule="evenodd" clip-rule="evenodd" d="M37.1125 17C36.6286 14.3055 35.6741 13.1481 34.713 12.8078C34.0739 12.5815 33.061 12.6559 32.4336 12.7076C36.7971 10.373 37.528 14.3404 37.1059 17H37.1125ZM29.6335 12.6909C28.9819 12.7228 28.3404 12.8516 27.7346 13.0721C26.1526 13.6645 25.5553 14.7976 25.2098 16.0507C25.2148 13.4883 26.9152 12.1942 29.6335 12.6909Z" fill="#A6A6A6"/>
<path d="M23.2098 20.0221C23.2098 19.9243 23.2098 20.1345 23.2098 21" stroke="#D9ABA1" stroke-width="1.2" stroke-linecap="round" stroke-linejoin="round"/>
<path d="M23.2098 20.1934C23.6218 19.8161 24.1138 19.9434 24.2098 21" stroke="#D9ABA1" stroke-width="1.2" stroke-linecap="round" stroke-linejoin="round"/>
<path fill-rule="evenodd" clip-rule="evenodd" d="M28.359 34.1588C28.8742 35.2924 29.8103 36.6173 30.2098 36.9061C29.3166 36.7888 28.2286 36.3141 27.5814 35.3863C27.3189 35.0126 26.0112 37.2906 25.5407 38C24.7895 36.6101 23.8616 32.2563 24.342 29C25.3244 29.9747 27.4179 33.6877 28.359 34.1588Z" fill="#CE9E0C"/>
<path fill-rule="evenodd" clip-rule="evenodd" d="M29.2098 34.4454C27.5395 32.1037 27.1827 30.4547 26.6895 28L25.2098 29.7653C25.5682 32.7243 25.68 35.31 26.632 37C26.8736 36.2877 28.1215 34.9924 29.2098 34.4454Z" fill="#FFC107"/>
<path fill-rule="evenodd" clip-rule="evenodd" d="M32.8679 33.9456C32.2815 35.2537 30.8958 36.2805 30.2098 37C32.2483 35.5366 33.5558 34.495 35.4731 36.4637C36.9956 33.8622 35.7897 31.3065 35.1369 30C34.021 30.4284 33.9819 33.5188 32.8679 33.9456Z" fill="#CE9E0C"/>
<path fill-rule="evenodd" clip-rule="evenodd" d="M33.2098 33.9698C33.688 31.7566 33.5408 30.7605 33.4833 28L34.8379 29.8041C35.2951 32.0949 35.3231 34.12 34.9641 36C34.636 35.3181 34.2167 34.2943 33.2098 33.9698Z" fill="#FFC107"/>
<path d="M52.2098 62H18.2098V63H52.2098V62Z" fill="#4CAF50"/>
<path fill-rule="evenodd" clip-rule="evenodd" d="M47.8619 56H22.5578L18.2098 62H52.2098L47.8619 56Z" fill="#3E8B41"/>
<path fill-rule="evenodd" clip-rule="evenodd" d="M21.5114 60.9984H20.4383C20.2741 60.9984 20.1729 60.9225 20.2225 60.8314L20.572 60.1677C20.6219 60.1112 20.6816 60.0671 20.7474 60.0384C20.8131 60.0096 20.8835 59.9968 20.9539 60.0007H21.9926C22.1511 60.0007 22.2428 60.0766 22.1989 60.1677L21.8876 60.8336C21.8397 60.8912 21.781 60.9359 21.716 60.9644C21.6509 60.9929 21.581 61.0045 21.5114 60.9984Z" fill="#FFD45F"/>
<path fill-rule="evenodd" clip-rule="evenodd" d="M22.4944 59.9986H21.4238C21.2641 59.9986 21.1694 59.9227 21.2266 59.8316L21.5894 59.1679C21.6375 59.1111 21.6963 59.0667 21.7617 59.0379C21.8272 59.009 21.8976 58.9964 21.968 59.0009H22.9992C23.155 59.0009 23.2457 59.0746 23.1964 59.1679L22.875 59.8316C22.8273 59.8894 22.7682 59.9345 22.7022 59.9634C22.6363 59.9923 22.5652 60.0044 22.4944 59.9986Z" fill="#FFD45F"/>
<path fill-rule="evenodd" clip-rule="evenodd" d="M22.8469 58.9987H22.3189C22.2385 58.9987 22.1907 58.9248 22.2172 58.8334L22.4043 58.168C22.4284 58.1121 22.4579 58.0682 22.4908 58.0393C22.5237 58.0104 22.5591 57.9971 22.5946 58.0005H23.1032C23.1805 58.0005 23.2253 58.0766 23.2049 58.168L23.0371 58.8334C23.0134 58.8903 22.984 58.9349 22.951 58.9635C22.918 58.9922 22.8824 59.0042 22.8469 58.9987Z" fill="#FFD45F"/>
<path fill-rule="evenodd" clip-rule="evenodd" d="M23.1809 57.9997H22.3724C22.2511 57.9997 22.1799 57.9316 22.222 57.8456C22.3578 57.5653 22.492 57.2831 22.6295 57.0009C22.7669 56.7187 22.9028 56.4364 23.0402 56.1542C23.0752 56.1046 23.1185 56.0652 23.1671 56.0385C23.2157 56.0119 23.2684 55.9988 23.3216 56.0001H24.0622C24.1753 56.0001 24.2352 56.0701 24.1996 56.1542C24.0783 56.4364 23.9538 56.7187 23.8325 57.0009C23.7113 57.2831 23.5867 57.5633 23.4655 57.8456C23.4305 57.8961 23.3867 57.9362 23.3374 57.9629C23.2881 57.9896 23.2346 58.0022 23.1809 57.9997Z" fill="#FFD45F"/>
<path fill-rule="evenodd" clip-rule="evenodd" d="M23.8324 56.9993H23.3121C23.2334 56.9993 23.1908 56.9255 23.2181 56.8321L23.4192 56.1674C23.4429 56.1136 23.4721 56.0707 23.505 56.0418C23.5378 56.0129 23.5735 55.9987 23.6094 56.0001H24.11C24.1865 56.0001 24.227 56.0761 24.2029 56.1674C24.1439 56.3846 24.0827 56.6127 24.0237 56.8321C24.0006 56.8878 23.9713 56.9319 23.9381 56.961C23.9048 56.99 23.8686 57.0032 23.8324 56.9993Z" fill="#FFD45F"/>
<path fill-rule="evenodd" clip-rule="evenodd" d="M25.5703 61H22.472C22.2861 61 22.1742 60.9195 22.2202 60.8216C22.3241 60.6041 22.43 60.3866 22.53 60.1799C22.5817 60.1181 22.6456 60.0699 22.717 60.039C22.7883 60.0081 22.8652 59.9953 22.9418 60.0015H25.9401C26.1201 60.0015 26.238 60.0842 26.204 60.1799C26.126 60.3974 26.0501 60.615 25.9721 60.8216C25.9342 60.9173 25.7483 61 25.5703 61Z" fill="#FFD45F"/>
<path fill-rule="evenodd" clip-rule="evenodd" d="M24.6825 59.9985H23.4044C23.2616 59.9985 23.1822 59.9212 23.2187 59.8223C23.2965 59.6074 23.3774 59.3925 23.4616 59.1776C23.5009 59.117 23.55 59.0696 23.6051 59.039C23.6602 59.0085 23.7197 58.9956 23.7791 59.0013H25.0159C25.1492 59.0013 25.235 59.0787 25.2032 59.1776C25.135 59.3925 25.0667 59.6074 25.0016 59.8116C24.9636 59.8755 24.9147 59.9259 24.8591 59.9584C24.8035 59.991 24.7429 60.0048 24.6825 59.9985Z" fill="#FFD45F"/>
<path fill-rule="evenodd" clip-rule="evenodd" d="M25.7563 58.9989H23.3929C23.2597 58.9989 23.1832 58.9191 23.2184 58.8243C23.298 58.6088 23.3715 58.3932 23.4526 58.1777C23.4894 58.1179 23.5354 58.0709 23.5872 58.0403C23.639 58.0096 23.695 57.9962 23.7511 58.0009H26.0288C26.1528 58.0009 26.2309 58.0785 26.2048 58.1777C26.1497 58.3932 26.0931 58.6088 26.0365 58.8135C26.0049 58.8756 25.9626 58.9252 25.9136 58.9576C25.8645 58.9901 25.8104 59.0043 25.7563 58.9989Z" fill="#FFD45F"/>
<path fill-rule="evenodd" clip-rule="evenodd" d="M24.8675 57.9992H24.3235C24.2408 57.9992 24.194 57.9233 24.2147 57.8321C24.2724 57.6151 24.3235 57.398 24.3877 57.168C24.4105 57.1119 24.4396 57.0675 24.4727 57.0384C24.5059 57.0093 24.542 56.9965 24.5781 57.0008H25.097C25.1775 57.0008 25.2243 57.0746 25.2058 57.168C25.1547 57.385 25.1068 57.602 25.0557 57.8321C25.0333 57.888 25.0045 57.9323 24.9718 57.9614C24.939 57.9905 24.9033 58.0034 24.8675 57.9992Z" fill="#FFD45F"/>
<path fill-rule="evenodd" clip-rule="evenodd" d="M25.5035 56.9993H24.4331C24.2682 56.9993 24.1734 56.9233 24.2231 56.8322C24.3427 56.6151 24.4669 56.398 24.5844 56.1678C24.6292 56.1124 24.6873 56.0682 24.7538 56.0391C24.8203 56.01 24.8931 55.9968 24.966 56.0007H25.9913C26.1539 56.0007 26.2419 56.0766 26.199 56.1678C26.0952 56.3849 25.9935 56.602 25.8851 56.8322C25.8403 56.8876 25.7822 56.9318 25.7157 56.9609C25.6493 56.99 25.5764 57.0032 25.5035 56.9993Z" fill="#FFD45F"/>
<path fill-rule="evenodd" clip-rule="evenodd" d="M26.9224 61H26.3448C26.2556 61 26.1959 60.9279 26.2127 60.8362C26.2525 60.6179 26.2913 60.3996 26.3322 60.1638C26.3479 60.0721 26.4318 60 26.5167 60H27.0776C27.1625 60 27.2223 60.0721 27.2076 60.1638C27.173 60.3821 27.1416 60.6135 27.1028 60.8362C27.0944 60.9236 27.0084 61 26.9224 61Z" fill="#FFD45F"/>
<path fill-rule="evenodd" clip-rule="evenodd" d="M28.9486 61H28.3531C28.2625 61 28.1977 60.9259 28.2118 60.8366C28.2452 60.6187 28.2754 60.39 28.3089 60.1656C28.3218 60.0741 28.4038 60 28.4912 60H29.0662C29.1547 60 29.2195 60.0741 29.2087 60.1634C29.1828 60.3813 29.158 60.6122 29.1331 60.8344C29.1224 60.9259 29.0393 61 28.9486 61Z" fill="#FFD45F"/>
<path fill-rule="evenodd" clip-rule="evenodd" d="M30.7291 61H29.5184C29.3273 61 29.1918 60.9258 29.2118 60.8362C29.2584 60.6179 29.3073 60.3886 29.3562 60.1638C29.374 60.0742 29.5361 60 29.7183 60H30.9046C31.089 60 31.2222 60.0742 31.2089 60.1638C31.1712 60.3821 31.1423 60.6114 31.109 60.8341C31.0734 60.9258 30.9201 61 30.7291 61Z" fill="#FFD45F"/>
<path fill-rule="evenodd" clip-rule="evenodd" d="M32.7957 61H31.5427C31.3494 61 31.197 60.9258 31.2107 60.8362C31.2425 60.6179 31.2721 60.3886 31.3039 60.1659C31.3176 60.0742 31.4813 60 31.6655 60H32.8867C33.0709 60 33.2164 60.0742 33.2096 60.1638C33.1914 60.3821 33.1778 60.6114 33.1619 60.8362C33.1437 60.9258 32.9867 61 32.7957 61Z" fill="#FFD45F"/>
<path fill-rule="evenodd" clip-rule="evenodd" d="M34.8574 61H33.5643C33.3648 61 33.2052 60.9278 33.2099 60.8359C33.2099 60.6171 33.2358 60.3982 33.2475 60.1641C33.2475 60.0744 33.4118 60 33.6019 60H34.8574C35.0475 60 35.2095 60.0744 35.2095 60.1641C35.2095 60.3829 35.2095 60.6127 35.2095 60.8359C35.2188 60.9234 35.0569 60.9978 34.8574 61Z" fill="#FFD45F"/>
<path fill-rule="evenodd" clip-rule="evenodd" d="M36.0401 61H35.4003C35.3016 61 35.2215 60.9258 35.2203 60.8362C35.2203 60.6179 35.2133 60.3886 35.2098 60.1659C35.2098 60.0742 35.283 60 35.3771 60H35.9971C36.0912 60 36.1748 60.0721 36.1783 60.1638L36.2096 60.8319C36.2143 60.9258 36.1388 61 36.0401 61Z" fill="#FFD45F"/>
<path fill-rule="evenodd" clip-rule="evenodd" d="M38.0517 61H37.4327C37.3359 61 37.2537 60.9256 37.2481 60.8359C37.2357 60.6171 37.2233 60.3982 37.2098 60.1641C37.2098 60.0744 37.2762 60 37.3697 60H37.9684C38.0618 60 38.1428 60.0722 38.1507 60.1641C38.1687 60.3829 38.189 60.6127 38.2092 60.8359C38.2171 60.9256 38.1485 61 38.0517 61Z" fill="#FFD45F"/>
<path fill-rule="evenodd" clip-rule="evenodd" d="M40.0632 61H39.4587C39.368 61 39.2838 60.9256 39.2751 60.8359C39.2543 60.6171 39.2314 60.3982 39.2106 60.1663C39.2019 60.0744 39.2696 60 39.3582 60H39.943C40.0315 60 40.1124 60.0722 40.1234 60.1641L40.2086 60.8337C40.2195 60.9256 40.1561 61 40.0632 61Z" fill="#FFD45F"/>
<path fill-rule="evenodd" clip-rule="evenodd" d="M41.9371 61H40.7584C40.5814 61 40.4131 60.9276 40.3896 60.8355C40.3321 60.6162 40.2724 60.3969 40.2127 60.1645C40.1892 60.0746 40.3129 60 40.4855 60H41.6216C41.7943 60 41.9605 60.0746 41.9904 60.1645C42.065 60.3838 42.1353 60.6031 42.2035 60.8355C42.2398 60.9254 42.1161 61 41.9371 61Z" fill="#FFD45F"/>
<path fill-rule="evenodd" clip-rule="evenodd" d="M43.9527 61H42.8142C42.6386 61 42.4712 60.9276 42.4423 60.8377L42.215 60.1686C42.184 60.0765 42.2956 60.0019 42.4671 60.0019H43.5684C43.638 59.9951 43.7081 60.0066 43.7726 60.0353C43.8371 60.064 43.8939 60.109 43.9382 60.1664C44.025 60.3858 44.1138 60.6051 44.2027 60.8377C44.2399 60.9254 44.1283 61 43.9527 61Z" fill="#FFD45F"/>
<path fill-rule="evenodd" clip-rule="evenodd" d="M45.9756 61H44.858C44.6912 61 44.5163 60.9276 44.4821 60.8376C44.3937 60.6181 44.3073 60.3987 44.2168 60.166C44.1806 60.0761 44.2892 60.0014 44.452 60.0014H45.5254C45.5942 59.9956 45.6633 60.0075 45.7272 60.0361C45.791 60.0646 45.8479 60.1092 45.8932 60.166C45.9977 60.3855 46.0942 60.605 46.1987 60.8376C46.245 60.9254 46.1424 60.9978 45.9756 61Z" fill="#FFD45F"/>
<path fill-rule="evenodd" clip-rule="evenodd" d="M47.985 60.9986H46.9028C46.8332 61.0044 46.7633 60.9925 46.6983 60.9638C46.6333 60.9351 46.5748 60.8903 46.5271 60.8327C46.4234 60.6115 46.3216 60.3902 46.2199 60.169C46.1768 60.0761 46.2766 60.0009 46.4351 60.0009H47.482C47.5512 59.9964 47.6205 60.0089 47.685 60.0375C47.7496 60.0661 47.8078 60.1103 47.8558 60.1668L48.2002 60.8437C48.2413 60.9234 48.1474 60.9986 47.985 60.9986Z" fill="#FFD45F"/>
<path fill-rule="evenodd" clip-rule="evenodd" d="M49.1053 60.9989H48.5751C48.5404 61.0039 48.5056 60.9915 48.4731 60.9626C48.4405 60.9336 48.411 60.8888 48.3864 60.8311C48.3298 60.6102 48.2732 60.3894 48.2166 60.1686C48.1921 60.0736 48.2364 60.0007 48.311 60.0007H48.8242C48.8589 59.9967 48.8936 60.0096 48.926 60.0385C48.9585 60.0673 48.9881 60.1116 49.0129 60.1686C49.0761 60.3894 49.1393 60.6102 49.2015 60.8311C49.2289 60.9216 49.1865 60.9989 49.1053 60.9989Z" fill="#FFD45F"/>
<path fill-rule="evenodd" clip-rule="evenodd" d="M48.9954 59.9986H46.9148C46.8427 60.0045 46.7704 59.9917 46.703 59.961C46.6356 59.9303 46.5749 59.8824 46.5253 59.8209C46.426 59.6016 46.323 59.3933 46.2219 59.1805C46.1751 59.0818 46.2687 59.0007 46.4316 59.0007H48.4429C48.5146 58.9967 48.5861 59.0104 48.653 59.041C48.7198 59.0716 48.7803 59.1184 48.8306 59.1783C48.9485 59.3976 49.0703 59.6038 49.1901 59.8187C49.2538 59.9174 49.1564 59.9986 48.9954 59.9986Z" fill="#FFD45F"/>
<path fill-rule="evenodd" clip-rule="evenodd" d="M48.0229 58.9986H45.8382C45.7739 59.0046 45.7094 58.9917 45.6496 58.9609C45.5899 58.9301 45.5365 58.8822 45.4936 58.8209C45.404 58.6016 45.3092 58.3954 45.2196 58.1805C45.18 58.0818 45.2644 58.0006 45.404 58.0006H47.5146C47.5785 57.9968 47.6424 58.0105 47.7018 58.0408C47.7613 58.0711 47.8149 58.1172 47.8592 58.1761C47.9694 58.3954 48.0832 58.6038 48.1934 58.8187C48.2451 58.9174 48.171 58.9986 48.0229 58.9986Z" fill="#FFD45F"/>
<path fill-rule="evenodd" clip-rule="evenodd" d="M48.0265 57.9991H44.8313C44.7663 58.0038 44.7012 57.9902 44.6413 57.9593C44.5815 57.9284 44.5285 57.8811 44.4867 57.8212C44.3987 57.6017 44.3034 57.3931 44.2191 57.178C44.1806 57.0814 44.2667 57.0002 44.4024 57.0002H47.4802C47.5463 56.9983 47.612 57.0131 47.673 57.0438C47.7339 57.0744 47.7888 57.1202 47.834 57.178C47.9513 57.3975 48.0723 57.6061 48.1896 57.8212C48.2483 57.9178 48.1749 57.9991 48.0265 57.9991Z" fill="#FFD45F"/>
<path fill-rule="evenodd" clip-rule="evenodd" d="M47.0461 56.9997H45.8424C45.7811 57.0025 45.7201 56.9878 45.6639 56.9566C45.6078 56.9255 45.5579 56.8788 45.518 56.8199C45.4191 56.6007 45.3203 56.3946 45.2231 56.1798C45.1798 56.0812 45.2457 56.0001 45.374 56.0001H46.5292C46.5906 55.9989 46.6514 56.0143 46.7077 56.0453C46.7639 56.0763 46.8142 56.1222 46.8553 56.1798C46.9663 56.399 47.0808 56.6051 47.1918 56.8199C47.2438 56.9164 47.1797 56.9997 47.0461 56.9997Z" fill="#FFD45F"/>
<path fill-rule="evenodd" clip-rule="evenodd" d="M46.0949 59.9976H45.5441C45.5081 60.0054 45.4718 59.994 45.4381 59.9642C45.4045 59.9344 45.3744 59.8871 45.3505 59.8261C45.305 59.6091 45.2586 59.392 45.214 59.175C45.1947 59.0795 45.244 59.0013 45.3244 59.0013H45.8558C45.8918 58.9956 45.928 59.0083 45.9615 59.0383C45.995 59.0684 46.0251 59.1151 46.0494 59.175C46.0997 59.392 46.1511 59.6091 46.2043 59.8261C46.2275 59.9216 46.1753 59.9976 46.0949 59.9976Z" fill="#FFD45F"/>
<path fill-rule="evenodd" clip-rule="evenodd" d="M44.0854 60H43.5194C43.4345 60 43.3476 59.9219 43.3297 59.8264C43.2907 59.6094 43.2518 59.3924 43.2128 59.1754C43.1959 59.0821 43.2528 59.0018 43.3356 59.0018H43.8808C43.9164 58.9951 43.9522 59.0072 43.9853 59.0371C44.0183 59.0669 44.0475 59.1136 44.0705 59.1732C44.1144 59.3902 44.1593 59.6072 44.2053 59.8242C44.2262 59.9219 44.1733 60 44.0854 60Z" fill="#FFD45F"/>
<path fill-rule="evenodd" clip-rule="evenodd" d="M42.9416 60H41.7794C41.597 60 41.4309 59.9239 41.4022 59.8283C41.3387 59.6109 41.2752 59.3935 41.2137 59.1761C41.187 59.0804 41.3018 59.0022 41.476 59H42.6013C42.7714 59 42.9416 59.0761 42.9744 59.1739C43.0481 59.3913 43.1281 59.6087 43.2039 59.8152C43.2388 59.9217 43.1158 60 42.9416 60Z" fill="#FFD45F"/>
<path fill-rule="evenodd" clip-rule="evenodd" d="M40.918 60H39.7268C39.542 60 39.3739 59.9219 39.3529 59.8265C39.3025 59.6095 39.2562 59.3926 39.2121 59.1757C39.1911 59.0803 39.3172 59 39.4957 59H40.6554C40.8319 59 40.9979 59.0759 41.0252 59.1735C41.0861 59.3905 41.1449 59.6074 41.208 59.8243C41.2269 59.9219 41.1008 60 40.918 60Z" fill="#FFD45F"/>
<path fill-rule="evenodd" clip-rule="evenodd" d="M38.9059 60H37.6711C37.4844 60 37.3195 59.9239 37.3043 59.8261C37.2718 59.6087 37.2435 59.3913 37.211 59.1739C37.1958 59.0783 37.3325 59 37.5148 59H38.7085C38.8864 59 39.0535 59.0761 39.0752 59.1739C39.1208 59.3913 39.162 59.6087 39.2076 59.8261C39.2293 59.9239 39.0904 60 38.9059 60Z" fill="#FFD45F"/>
<path fill-rule="evenodd" clip-rule="evenodd" d="M37.0462 60H36.4125C36.3179 60 36.2332 59.9217 36.2299 59.8261L36.2098 59.1739C36.2098 59.0783 36.2822 59 36.3735 59H36.9838C37.0785 59 37.1575 59.0783 37.1642 59.1739C37.1798 59.3913 37.1932 59.6087 37.2088 59.8261C37.2199 59.9217 37.142 60 37.0462 60Z" fill="#FFD45F"/>
<path fill-rule="evenodd" clip-rule="evenodd" d="M35.0353 60H34.3888C34.2896 60 34.2098 59.9217 34.2098 59.8261C34.2098 59.6087 34.2098 59.3913 34.2167 59.1739C34.2167 59.0783 34.2965 59 34.3911 59H35.017C35.114 59 35.1915 59.0783 35.1938 59.1739C35.1938 59.3913 35.204 59.6087 35.2097 59.8261C35.2131 59.9217 35.1368 60 35.0353 60Z" fill="#FFD45F"/>
<path fill-rule="evenodd" clip-rule="evenodd" d="M33.8158 60H32.5504C32.3523 60 32.1992 59.9216 32.2104 59.8279L32.278 59.1743C32.278 59.0784 32.4491 59 32.6405 59H33.8721C34.0635 59 34.2121 59.0784 34.2098 59.1743C34.2098 59.3922 34.1963 59.61 34.1896 59.8279C34.1738 59.9238 34.0117 60 33.8158 60Z" fill="#FFD45F"/>
<path fill-rule="evenodd" clip-rule="evenodd" d="M31.7711 60H30.5268C30.334 60 30.1938 59.9219 30.2113 59.8265C30.2529 59.6095 30.288 59.3926 30.3252 59.1757C30.3428 59.0781 30.5114 59 30.6933 59H31.896C32.0778 59 32.2202 59.0781 32.2092 59.1757C32.183 59.3926 32.1589 59.6095 32.1326 59.8265C32.1216 59.9219 31.9551 60 31.7711 60Z" fill="#FFD45F"/>
<path fill-rule="evenodd" clip-rule="evenodd" d="M29.9631 60H29.3573C29.2668 60 29.1986 59.9219 29.2114 59.8265C29.2391 59.6095 29.2657 59.3926 29.2934 59.1757C29.3061 59.0781 29.3913 59 29.4797 59H30.0632C30.1527 59 30.2176 59.0759 30.2091 59.1735C30.1878 59.3905 30.1686 59.6074 30.1473 59.8243C30.1377 59.9197 30.0547 59.9978 29.9631 60Z" fill="#FFD45F"/>
<path fill-rule="evenodd" clip-rule="evenodd" d="M27.9359 60H27.3472C27.2579 60 27.1967 59.9219 27.2123 59.8265C27.2486 59.6095 27.2808 59.3926 27.3161 59.1757C27.3327 59.0781 27.4199 59 27.503 59H28.074C28.1612 59 28.2214 59.0781 28.2079 59.1735C28.1799 59.3905 28.1498 59.6074 28.1228 59.8243C28.1114 59.9306 28.0283 60 27.9359 60Z" fill="#FFD45F"/>
<path fill-rule="evenodd" clip-rule="evenodd" d="M26.6131 60H25.467C25.2894 60 25.1805 59.9219 25.2168 59.8264C25.2995 59.6095 25.3863 59.3925 25.471 59.1755C25.5156 59.1152 25.5734 59.0677 25.6393 59.0374C25.7052 59.0071 25.777 58.9949 25.8484 59.0019H26.9541C27.1256 59.0019 27.2365 59.08 27.2043 59.1755C27.1316 59.3925 27.061 59.6095 26.9904 59.8264C26.9581 59.9262 26.7906 59.9978 26.6131 60Z" fill="#FFD45F"/>
<path fill-rule="evenodd" clip-rule="evenodd" d="M45.0925 58.9983H44.5409C44.5049 59.0048 44.4687 58.9926 44.4353 58.9627C44.402 58.9328 44.3724 58.8862 44.3493 58.8267C44.3026 58.6094 44.259 58.3922 44.2144 58.1749C44.1942 58.0793 44.2428 58.0011 44.3249 58.0011H44.8583C44.8942 57.996 44.9302 58.009 44.9633 58.0392C44.9964 58.0694 45.0257 58.1159 45.0489 58.1749C45.1006 58.3922 45.1503 58.6094 45.204 58.8267C45.2273 58.9201 45.1787 58.9983 45.0925 58.9983Z" fill="#FFD45F"/>
<path fill-rule="evenodd" clip-rule="evenodd" d="M43.9572 58.9977H42.8231C42.7506 59.0055 42.6775 58.9933 42.6109 58.9622C42.5443 58.9312 42.4867 58.8824 42.4437 58.8207C42.3686 58.6021 42.2915 58.3836 42.2165 58.176C42.181 58.0798 42.2915 58.0011 42.4604 58.0011H43.5569C43.6284 57.9959 43.6999 58.0091 43.7653 58.0396C43.8308 58.07 43.8881 58.1169 43.9322 58.176L44.2011 58.8316C44.2428 58.919 44.1303 58.9977 43.9572 58.9977Z" fill="#FFD45F"/>
<path fill-rule="evenodd" clip-rule="evenodd" d="M41.9506 59H40.7713C40.5927 59 40.4226 58.9219 40.3947 58.8263C40.3344 58.6093 40.272 58.3922 40.2139 58.1751C40.1859 58.0796 40.3064 58.0015 40.4764 58.0015H41.6128C41.6844 57.9954 41.7564 58.0082 41.8217 58.0387C41.8869 58.0691 41.9432 58.1161 41.9851 58.1751C42.0604 58.3922 42.1314 58.6093 42.2003 58.8263C42.2455 58.924 42.125 59 41.9506 59Z" fill="#FFD45F"/>
<path fill-rule="evenodd" clip-rule="evenodd" d="M40.0664 59H39.4629C39.3722 59 39.2882 58.9217 39.2783 58.8261C39.2551 58.6087 39.2319 58.3913 39.2109 58.1739C39.2009 58.0761 39.2639 58 39.3535 58H39.9348C40.0244 58 40.1072 58.0783 40.1205 58.1739C40.1503 58.3913 40.1769 58.6087 40.2078 58.8261C40.2222 58.9239 40.1581 59 40.0664 59Z" fill="#FFD45F"/>
<path fill-rule="evenodd" clip-rule="evenodd" d="M38.0556 59H37.4353C37.341 59 37.2569 58.9219 37.2512 58.8265C37.2364 58.6095 37.2239 58.3926 37.2103 58.1757C37.2035 58.0781 37.2728 58 37.366 58H37.9636C38.0556 58 38.1352 58.0781 38.1454 58.1735C38.1659 58.3905 38.1874 58.6074 38.209 58.8243C38.2181 58.9219 38.1488 59 38.0556 59Z" fill="#FFD45F"/>
<path fill-rule="evenodd" clip-rule="evenodd" d="M36.8771 59H35.605C35.4063 59 35.2449 58.9217 35.2379 58.8261C35.2254 58.6101 35.2161 58.3928 35.2098 58.1739C35.2098 58.0783 35.3572 58 35.5466 58H36.7766C36.9613 58 37.1227 58.0783 37.1343 58.1761C37.1577 58.3935 37.1835 58.6109 37.2092 58.8283C37.2209 58.9217 37.0759 59 36.8771 59Z" fill="#FFD45F"/>
<path fill-rule="evenodd" clip-rule="evenodd" d="M34.8477 59H33.5649C33.3684 59 33.2075 58.9217 33.2099 58.8261C33.2099 58.6087 33.2312 58.3913 33.2406 58.1739C33.2406 58.0783 33.4063 58 33.5933 58H34.8382C35.0252 58 35.1909 58.0783 35.1933 58.1739C35.1933 58.3913 35.1933 58.6087 35.2098 58.8261C35.2075 58.9217 35.0442 59 34.8477 59Z" fill="#FFD45F"/>
<path fill-rule="evenodd" clip-rule="evenodd" d="M33.0084 59H32.3755C32.2766 59 32.2033 58.9219 32.2103 58.8265C32.2243 58.6095 32.2371 58.3926 32.2522 58.1757C32.258 58.0803 32.3394 58 32.4337 58H33.0457C33.1387 58 33.2132 58.0781 33.2097 58.1735C33.2027 58.3905 33.1969 58.6074 33.1911 58.8243C33.1888 58.9219 33.1073 59 33.0084 59Z" fill="#FFD45F"/>
<path fill-rule="evenodd" clip-rule="evenodd" d="M30.9843 59H30.3635C30.2708 59 30.2006 58.9219 30.2108 58.8265C30.2334 58.6095 30.2549 58.3926 30.2787 58.1757C30.2889 58.0781 30.3725 58 30.4641 58H31.0567C31.1483 58 31.2162 58.0781 31.2094 58.1735C31.1935 58.3905 31.1788 58.6074 31.1641 58.8243C31.1619 58.9219 31.0782 59 30.9843 59Z" fill="#FFD45F"/>
<path fill-rule="evenodd" clip-rule="evenodd" d="M29.6938 59H28.4945C28.3122 59 28.187 58.9219 28.2133 58.8265C28.2726 58.6095 28.3364 58.3926 28.4001 58.1757C28.4264 58.0781 28.5933 58 28.7713 58H29.9223C30.1002 58 30.2276 58.0803 30.2078 58.1757C30.1617 58.3926 30.1134 58.6095 30.065 58.8265C30.0497 58.9219 29.8805 59 29.6938 59Z" fill="#FFD45F"/>
<path fill-rule="evenodd" clip-rule="evenodd" d="M27.9237 59H27.3405C27.2543 59 27.1958 58.9217 27.2128 58.8261L27.3277 58.1739C27.3448 58.0783 27.4341 58 27.515 58H28.0769C28.1621 58 28.2217 58.0804 28.2078 58.1761L28.1121 58.8283C28.0961 58.9217 28.012 59 27.9237 59Z" fill="#FFD45F"/>
<path fill-rule="evenodd" clip-rule="evenodd" d="M43.9787 57.9983H42.8556C42.7829 58.0048 42.7098 57.9923 42.6433 57.9619C42.5767 57.9315 42.519 57.8843 42.4755 57.8249C42.388 57.608 42.3026 57.3912 42.2171 57.1743C42.1808 57.0789 42.2833 57.0008 42.4456 57.0008H43.5132C43.5859 56.9964 43.6587 57.0098 43.7252 57.04C43.7918 57.0702 43.8501 57.1163 43.8954 57.1743C43.9957 57.3912 44.0939 57.608 44.1943 57.814C44.2498 57.9203 44.1516 57.9983 43.9787 57.9983Z" fill="#FFD45F"/>
<path fill-rule="evenodd" clip-rule="evenodd" d="M42.0859 58H41.5123C41.4233 58 41.3387 57.924 41.3223 57.8263C41.2849 57.6092 41.2497 57.3921 41.2124 57.175C41.197 57.0816 41.253 57.0013 41.3387 57.0013H41.8881C41.9245 56.9956 41.961 57.0087 41.9941 57.0391C42.0272 57.0695 42.0558 57.1163 42.0771 57.175C42.1188 57.3921 42.1606 57.6092 42.2034 57.8263C42.2298 57.9218 42.1716 58 42.0859 58Z" fill="#FFD45F"/>
<path fill-rule="evenodd" clip-rule="evenodd" d="M40.9362 58H39.7533C39.5717 58 39.4014 57.9239 39.3764 57.8261C39.3197 57.6087 39.2697 57.3913 39.213 57.1739C39.188 57.0783 39.3151 57 39.4877 57H40.6229C40.7955 57 40.9658 57.0783 40.9953 57.1739C41.0634 57.3913 41.1338 57.6087 41.2042 57.8152C41.2382 57.9217 41.1156 58 40.9362 58Z" fill="#FFD45F"/>
<path fill-rule="evenodd" clip-rule="evenodd" d="M39.0579 58H38.4528C38.3603 58 38.2737 57.9217 38.2655 57.8261C38.2468 57.6087 38.2292 57.3913 38.2105 57.1739C38.2023 57.0783 38.269 57 38.358 57H38.9432C39.0334 57 39.1165 57.0783 39.1282 57.1739C39.1551 57.3913 39.1808 57.6087 39.2089 57.8261C39.2183 57.9196 39.1551 58 39.0579 58Z" fill="#FFD45F"/>
<path fill-rule="evenodd" clip-rule="evenodd" d="M37.0518 58H36.423C36.3267 58 36.2448 57.9217 36.24 57.8261C36.2303 57.6087 36.2195 57.3913 36.2098 57.1739C36.2098 57.0783 36.2797 57 36.3725 57H36.9747C37.0675 57 37.1494 57.0804 37.1566 57.1739C37.1747 57.3913 37.1915 57.6087 37.2084 57.8261C37.2205 57.9217 37.1554 58 37.0518 58Z" fill="#FFD45F"/>
<path fill-rule="evenodd" clip-rule="evenodd" d="M35.8711 58H34.5724C34.3712 58 34.2098 57.9217 34.2098 57.8261V57.1739C34.2098 57.0783 34.3663 57 34.56 57H35.8016C35.9953 57 36.1542 57.0783 36.1592 57.1739C36.1766 57.3913 36.1915 57.6087 36.2089 57.8261C36.2238 57.9196 36.0673 58 35.8711 58Z" fill="#FFD45F"/>
<path fill-rule="evenodd" clip-rule="evenodd" d="M34.0229 58H33.3785C33.2838 58 33.2051 57.9217 33.2101 57.8261C33.2211 57.6087 33.231 57.3913 33.2408 57.1739C33.2408 57.0804 33.3257 57 33.4179 57H34.0389C34.1324 57 34.2098 57.0783 34.2098 57.1739C34.2098 57.3913 34.2037 57.6087 34.2025 57.8261C34.2025 57.9217 34.1201 58 34.0229 58Z" fill="#FFD45F"/>
<path fill-rule="evenodd" clip-rule="evenodd" d="M31.9945 58H31.3694C31.275 58 31.2021 57.9219 31.2105 57.8243C31.2296 57.6074 31.2475 57.3905 31.2691 57.1735C31.2786 57.0781 31.3611 57 31.4543 57H32.0519C32.1427 57 32.2144 57.0781 32.2096 57.1735C32.1977 57.3905 32.1845 57.6074 32.1726 57.8243C32.1702 57.9219 32.0889 58 31.9945 58Z" fill="#FFD45F"/>
<path fill-rule="evenodd" clip-rule="evenodd" d="M30.714 58H29.502C29.3179 58 29.1874 57.9217 29.2131 57.8261C29.2667 57.6087 29.3249 57.3913 29.3809 57.1739C29.4042 57.0783 29.5743 57 29.7538 57H30.919C31.0985 57 31.2267 57.0783 31.208 57.1739C31.1638 57.3913 31.1265 57.6087 31.0868 57.8261C31.0752 57.9217 30.9097 58 30.714 58Z" fill="#FFD45F"/>
<path fill-rule="evenodd" clip-rule="evenodd" d="M28.9335 58H28.3465C28.2554 58 28.1958 57.9222 28.2127 57.825C28.2487 57.6089 28.2858 57.3928 28.3251 57.1767C28.3449 57.1174 28.3727 57.0696 28.4057 57.0387C28.4386 57.0079 28.4753 56.995 28.5118 57.0017H29.0741C29.1618 57.0017 29.2214 57.0817 29.2079 57.1767C29.1787 57.3928 29.1506 57.6089 29.1213 57.825C29.1078 57.9222 29.0235 58 28.9335 58Z" fill="#FFD45F"/>
<path fill-rule="evenodd" clip-rule="evenodd" d="M27.5832 58H25.4696C25.2883 58 25.1763 57.9195 25.2189 57.8215C25.3174 57.6038 25.4181 57.3861 25.5144 57.1793C25.5605 57.1199 25.621 57.0725 25.6906 57.0413C25.7601 57.0102 25.8365 56.9963 25.9129 57.0008H27.9504C28.1227 57.0008 28.2392 57.0792 28.2034 57.1772C28.1295 57.3949 28.0556 57.6125 27.9795 57.8193C27.9436 57.9216 27.769 58 27.5832 58Z" fill="#FFD45F"/>
<path fill-rule="evenodd" clip-rule="evenodd" d="M45.1026 56.999H44.5652C44.5284 57.0039 44.4916 56.9906 44.4579 56.9603C44.4242 56.9301 44.3946 56.8837 44.3718 56.8253C44.3191 56.6082 44.2643 56.3911 44.2159 56.1739C44.1933 56.0806 44.2353 56.0002 44.3148 56.0002H44.8317C44.8683 55.9979 44.9047 56.0126 44.938 56.0431C44.9714 56.0735 45.0008 56.1191 45.0241 56.1761C45.0832 56.3932 45.1413 56.6104 45.2014 56.8166C45.2294 56.9209 45.1853 56.999 45.1026 56.999Z" fill="#FFD45F"/>
<path fill-rule="evenodd" clip-rule="evenodd" d="M43.9771 56.9991H42.8685C42.7949 57.0037 42.7212 56.9901 42.6543 56.9596C42.5873 56.929 42.5291 56.8824 42.485 56.824L42.2189 56.1781C42.179 56.0818 42.2743 56.0008 42.4406 56.0008H43.5027C43.5765 55.9964 43.6503 56.0103 43.7173 56.0413C43.7843 56.0723 43.8424 56.1193 43.8862 56.1781C43.9882 56.3971 44.0902 56.616 44.1967 56.824C44.2477 56.9225 44.1457 56.9991 43.9771 56.9991Z" fill="#FFD45F"/>
<path fill-rule="evenodd" clip-rule="evenodd" d="M42.0858 56.9987H41.5151C41.4784 57.0044 41.4415 56.9914 41.4084 56.961C41.3753 56.9305 41.347 56.8837 41.3267 56.8255C41.2879 56.6091 41.2525 56.3926 41.2126 56.1762C41.1966 56.081 41.2525 56.0009 41.3347 56.0009H41.8815C41.9182 55.9962 41.955 56.01 41.988 56.0408C42.0211 56.0715 42.0493 56.1182 42.0698 56.1762C42.1143 56.3926 42.1588 56.6091 42.2045 56.8147C42.2273 56.9229 42.1748 56.9987 42.0858 56.9987Z" fill="#FFD45F"/>
<path fill-rule="evenodd" clip-rule="evenodd" d="M40.033 57H30.3974C30.2787 57 30.1939 56.9195 30.2124 56.8215C30.2494 56.6039 30.2848 56.3863 30.3234 56.1817C30.3404 56.0838 30.4483 56.0011 30.5624 56.0011H39.814C39.863 55.9959 39.9121 56.0098 39.9559 56.0412C39.9996 56.0727 40.0364 56.1205 40.0623 56.1795C40.107 56.3972 40.161 56.6039 40.2057 56.8172C40.2288 56.9195 40.1533 57 40.033 57Z" fill="#FFD45F"/>
<path fill-rule="evenodd" clip-rule="evenodd" d="M38.9165 57H37.6985C37.5134 57 37.3477 56.9219 37.3307 56.8265C37.2868 56.6095 37.2503 56.3926 37.2113 56.1757C37.1943 56.0803 37.3258 56 37.5061 56H38.6729C38.8532 56 39.0213 56.0803 39.0457 56.1757C39.0992 56.3926 39.148 56.6095 39.2064 56.8265C39.2332 56.9219 39.0992 57 38.9165 57Z" fill="#FFD45F"/>
<path fill-rule="evenodd" clip-rule="evenodd" d="M37.0451 57H36.4218C36.327 57 36.2447 56.9221 36.2398 56.8247C36.2285 56.6082 36.2198 56.3918 36.2098 56.1753C36.2098 56.0801 36.2747 56 36.3669 56H36.9741C37.0638 56 37.1486 56.0801 37.1561 56.1753C37.1735 56.3918 37.1898 56.6082 37.2097 56.8247C37.2134 56.9221 37.1386 57 37.0451 57Z" fill="#FFD45F"/>
<path fill-rule="evenodd" clip-rule="evenodd" d="M35.8648 57H34.5678C34.3733 57 34.2098 56.9219 34.2098 56.8265C34.2098 56.6095 34.2098 56.3926 34.2098 56.1757C34.2098 56.0803 34.3681 56 34.5549 56H35.7974C35.9893 56 36.1554 56.0803 36.1631 56.1757C36.1787 56.3926 36.1891 56.6095 36.2098 56.8265C36.2098 56.9219 36.0568 57 35.8648 57Z" fill="#FFD45F"/>
<path fill-rule="evenodd" clip-rule="evenodd" d="M34.0235 57H33.381C33.282 57 33.2049 56.9219 33.2101 56.8265C33.2191 56.6095 33.2306 56.3926 33.2422 56.1757C33.2422 56.0803 33.3283 56 33.4234 56H34.0389C34.134 56 34.2111 56.0803 34.2098 56.1757C34.2098 56.3926 34.2098 56.6095 34.2098 56.8265C34.2034 56.9219 34.1237 57 34.0235 57Z" fill="#FFD45F"/>
<path fill-rule="evenodd" clip-rule="evenodd" d="M31.9912 57H31.3677C31.2704 57 31.2019 56.9199 31.2106 56.8247C31.2293 56.6082 31.2505 56.3918 31.2704 56.1753C31.2792 56.0801 31.3627 56 31.455 56H32.0523C32.1446 56 32.2157 56.0801 32.2095 56.1753C32.197 56.3918 32.182 56.6082 32.172 56.8247C32.1683 56.9221 32.0872 57 31.9912 57Z" fill="#FFD45F"/>
<path fill-rule="evenodd" clip-rule="evenodd" d="M30.9593 57H30.3563C30.2634 57 30.1983 56.9199 30.2116 56.8247C30.2393 56.6082 30.2706 56.3918 30.3008 56.1753C30.3141 56.0801 30.3961 56 30.4853 56H31.0654C31.1522 56 31.2186 56.0801 31.2089 56.1753C31.1864 56.3889 31.1647 56.6053 31.1438 56.8247C31.1353 56.9199 31.0545 57 30.9593 57Z" fill="#FFD45F"/>
<path fill-rule="evenodd" clip-rule="evenodd" d="M28.8219 57H27.3896C27.2702 57 27.1891 56.9195 27.2145 56.8215L27.3848 56.1815C27.4128 56.1221 27.4519 56.074 27.4981 56.0423C27.5443 56.0105 27.5958 55.9962 27.6474 56.0009H29.0304C29.1465 56.0009 29.2261 56.0814 29.207 56.1815C29.1656 56.3992 29.129 56.6169 29.0876 56.8215C29.0622 56.9195 28.946 57 28.8219 57Z" fill="#FFD45F"/>
<path fill-rule="evenodd" clip-rule="evenodd" d="M26.8822 56.9987H26.3299C26.2462 56.9987 26.195 56.9227 26.2137 56.8316C26.266 56.6146 26.3218 56.3977 26.373 56.1677C26.3941 56.1127 26.4223 56.0685 26.455 56.0393C26.4878 56.0101 26.5239 55.9968 26.5602 56.0007H27.0915C27.1718 56.0007 27.2206 56.0766 27.2078 56.1677C27.1625 56.3847 27.1171 56.6016 27.0729 56.8316C27.0517 56.8881 27.023 56.9333 26.9895 56.9626C26.9561 56.9919 26.9191 57.0043 26.8822 56.9987Z" fill="#FFD45F"/>
<path fill-rule="evenodd" clip-rule="evenodd" d="M23.3286 54.0768C25.0278 54.1351 27.709 54.21 28.4753 54.3566C29.2416 54.5033 30.6604 55.9774 31.1497 56.6733C31.4233 57.0594 30.7555 57.1537 29.296 56.142C31.0189 58.0636 30.6553 58.8688 30.4259 58.9855C30.0861 59.1591 29.6783 57.7239 28.494 57.2794C28.6367 57.8885 28.4005 58.9167 27.9978 58.8568C27.4643 58.7775 27.3335 57.6147 27.0123 57.4381C25.7754 56.7586 24.2546 58.8523 20.0255 56.8918C15.7963 54.9313 19.8182 53.6682 23.3286 54.0768Z" fill="#FBC9BE"/>
<path fill-rule="evenodd" clip-rule="evenodd" d="M22.5211 57.8354C18.8717 58.2928 10.0426 57.8834 7.86778 55.5033C5.83598 53.2816 8.83107 50.8519 12.4706 51.0071C16.3057 51.167 20.6093 53.2464 23.2098 53.923C21.8405 54.6044 21.3358 55.7384 22.5211 57.8354Z" fill="#FFC107"/>
<path fill-rule="evenodd" clip-rule="evenodd" d="M43.7906 22C46.4593 23.9181 53.8287 31.0722 55.1326 36.3508C55.8336 39.1913 51.5957 39.9483 49.1618 37.6329C46.9745 35.5512 41.5341 27.5105 40.2098 25.277C41.8921 25.0638 43.1657 24.2915 43.7906 22Z" fill="#FFC107"/>
<path fill-rule="evenodd" clip-rule="evenodd" d="M23.709 22C24.5355 22 25.2098 20.8699 25.2098 19.5008C25.2098 18.1317 24.5355 17 23.709 17C22.8825 17 22.2098 18.1301 22.2098 19.5008C22.2098 20.8715 22.879 22 23.709 22Z" fill="#429C46"/>
<path fill-rule="evenodd" clip-rule="evenodd" d="M23.2106 22C23.7606 22 24.2098 21.1 24.2098 20C24.2098 18.9 23.7651 18 23.2106 18C22.6561 18 22.2098 18.9017 22.2098 20C22.2098 21.0983 22.6591 22 23.2106 22Z" fill="#3E8B41"/>
<path fill-rule="evenodd" clip-rule="evenodd" d="M59.2098 36H27.0886L26.2098 56H58.3327L59.2098 36Z" fill="#3E8B41"/>
<path fill-rule="evenodd" clip-rule="evenodd" d="M44.2098 66C47.5149 66 50.2098 65.3258 50.2098 64.5C50.2098 63.6742 47.5149 63 44.2098 63C40.9048 63 38.2098 63.6742 38.2098 64.5C38.2098 65.3258 40.9048 66 44.2098 66Z" fill="#4CAF50"/>
<path d="M50.2098 64H38.2098V65H50.2098V64Z" fill="#4CAF50"/>
<path fill-rule="evenodd" clip-rule="evenodd" d="M44.2098 65C47.5149 65 50.2098 64.5518 50.2098 64C50.2098 63.4482 47.5149 63 44.2098 63C40.9048 63 38.2098 63.4495 38.2098 64C38.2098 64.5505 40.9048 65 44.2098 65Z" fill="#3E8B41"/>
<path fill-rule="evenodd" clip-rule="evenodd" d="M58.2098 37H28.0097L27.2098 55H57.4117L58.2098 37Z" fill="#4CAF50"/>
<path d="M47.2098 47H42.2098V64H47.2098V47Z" fill="#4B4B4B"/>
<path d="M47.2098 58H42.2098V64H47.2098V58Z" fill="#4CAF50"/>
<path d="M23.2988 20C22.9623 16.1482 23.3746 9.8109 28.2098 9" stroke="#429C46" stroke-width="3.84" stroke-linecap="round" stroke-linejoin="round"/>
<path d="M22.7098 20C22.986 20 23.2098 19.7761 23.2098 19.5C23.2098 19.2239 22.986 19 22.7098 19C22.4337 19 22.2098 19.2239 22.2098 19.5C22.2098 19.7761 22.4337 20 22.7098 20Z" fill="#429C46"/>
<path d="M28.7718 23H27.6479C27.406 23 27.2098 23.2239 27.2098 23.5C27.2098 23.7761 27.406 24 27.6479 24H28.7718C29.0137 24 29.2098 23.7761 29.2098 23.5C29.2098 23.2239 29.0137 23 28.7718 23Z" fill="#3E8B41"/>
<path d="M22.2098 20C23.2314 22.1608 24.4041 24 26.6644 24H29.2098" stroke="#429C46" stroke-width="3.84" stroke-linecap="round" stroke-linejoin="round"/>
<path fill-rule="evenodd" clip-rule="evenodd" d="M16.234 61.0087C18.5966 60.7948 21.1403 64.6025 17.0355 64.9761C12.9306 65.3497 13.8732 61.224 16.234 61.0087Z" fill="#4CAF50"/>
<path fill-rule="evenodd" clip-rule="evenodd" d="M15.881 61.009C17.8184 60.8201 19.7003 63.6594 16.4391 63.9771C13.1779 64.2948 13.9437 61.1994 15.881 61.009Z" fill="#4B4B4B"/>
</svg>
