<svg width="264" height="272" viewBox="0 0 264 272" fill="none" xmlns="http://www.w3.org/2000/svg">
<g clip-path="url(#clip0_4421_42721)">
<path d="M132 203.837C188.376 203.837 234.077 158.207 234.077 101.919C234.077 45.6305 188.376 0 132 0C75.6243 0 29.9227 45.6305 29.9227 101.919C29.9227 158.207 75.6243 203.837 132 203.837Z" fill="#2B2B2B" fill-opacity="0.76"/>
<path d="M117.87 27.8317C135.394 25.3232 144.985 39.8528 145.101 61.8608" stroke="#429C46" stroke-width="3.84" stroke-linecap="round" stroke-linejoin="round"/>
<path fill-rule="evenodd" clip-rule="evenodd" d="M98.4514 63.1093C100.843 71.9631 110.212 78.2661 122.906 82.9407C131.177 79.3728 141.269 70.7404 145.17 57.797C155.146 24.7377 137.342 24.9116 116.319 29.27C100.816 29.7759 93.8171 45.9709 98.4514 63.1093Z" fill="#1C1B19"/>
<path fill-rule="evenodd" clip-rule="evenodd" d="M157.294 124.447C163.068 126.913 182.577 135.683 189.771 136.653C199.715 137.991 201.499 125.359 194.368 119.63C183.036 110.529 158.888 100.263 152.955 97.5273C145.929 101.153 140.73 117.385 157.294 124.447Z" fill="#FFC107"/>
<path fill-rule="evenodd" clip-rule="evenodd" d="M175.446 108.033C178.032 113.024 180.856 117.566 182.646 119.4C179.088 118.425 173.973 112.344 172.152 106.352C173.197 106.915 174.385 107.442 175.446 108.033Z" fill="#CE9E0C"/>
<path fill-rule="evenodd" clip-rule="evenodd" d="M153.878 97.9622C154.934 128.155 158.259 145.715 154.2 169.504C152.305 180.618 152.115 188.914 153.852 202.705C132.464 206.258 105.35 205.393 83.9618 201.398C86.1787 189.319 86.9546 140.956 80.0664 100.213C90.6494 91.6222 136.903 89.6723 153.878 97.9622Z" fill="#FFC107"/>
<mask id="mask0_4421_42721" style="mask-type:luminance" maskUnits="userSpaceOnUse" x="80" y="92" width="77" height="113">
<path d="M153.878 97.9622C154.934 128.155 158.259 145.715 154.2 169.504C152.305 180.618 152.115 188.914 153.852 202.705C132.464 206.258 105.35 205.393 83.9618 201.398C86.1787 189.319 86.9546 140.956 80.0664 100.213C90.6494 91.6222 136.903 89.6723 153.878 97.9622Z" fill="white"/>
</mask>
<g mask="url(#mask0_4421_42721)">
<path opacity="0.5" d="M65.8154 143.836L71.6216 138.039L77.4277 143.836L83.2339 138.039L89.04 143.836L94.8461 138.039L100.652 143.836L106.458 138.039L112.265 143.836L118.071 138.039L123.877 143.836L129.683 138.039L135.489 143.836L141.295 138.039L147.101 143.836L152.908 138.039L158.714 143.836L164.52 138.039L170.326 143.836" stroke="#A6A6A6" stroke-width="3.12" stroke-linecap="round" stroke-linejoin="round"/>
<path opacity="0.5" d="M65.8154 135.805L71.6216 130.008L77.4277 135.805L83.2339 130.008L89.04 135.805L94.8461 130.008L100.652 135.805L106.458 130.008L112.265 135.805L118.071 130.008L123.877 135.805L129.683 130.008L135.489 135.805L141.295 130.008L147.101 135.805L152.908 130.008L158.714 135.805L164.52 130.008L170.326 135.805" stroke="#A6A6A6" stroke-width="3.12" stroke-linecap="round" stroke-linejoin="round"/>
</g>
<path fill-rule="evenodd" clip-rule="evenodd" d="M86.0625 201.778L83.9512 201.398C85.5347 192.718 86.395 165.298 84.1887 135.427C86.5466 133.578 89.0143 131.872 91.5783 130.32C90.5227 140.861 85.2444 159.401 89.467 163.954C93.6897 168.507 108.654 170.737 122.747 169.382C131.783 168.513 105.877 187.791 86.0625 201.778Z" fill="#CE9E0C"/>
<path fill-rule="evenodd" clip-rule="evenodd" d="M86.8968 144.479C79.7342 158.387 70.571 168.037 68.1799 173.354C63.762 183.157 47.5945 178.05 50.2337 168.611C54.5936 152.991 66.4117 109.128 79.0849 100.764C89.6099 93.7916 98.4774 121.992 86.8968 144.479Z" fill="#FFC107"/>
<path fill-rule="evenodd" clip-rule="evenodd" d="M73.2264 166.176C68.3756 166.108 54.7523 164.142 52.0498 166.176C54.6203 161.228 64.4011 157.164 77.3857 159.952C76.0978 161.354 74.1818 164.969 73.2264 166.176Z" fill="#CE9E0C"/>
<path fill-rule="evenodd" clip-rule="evenodd" d="M132.702 60.8753L133.166 91.3629C133.267 97.8714 135.278 107.753 124.88 116.364C111.805 108.016 111.029 99.0151 110.924 92.0164L110.459 61.5288C110.253 48.2482 132.486 47.0044 132.702 60.8753Z" fill="#FBC9BE"/>
<path fill-rule="evenodd" clip-rule="evenodd" d="M133.013 82.4492C125.787 83.2977 119.723 83.2187 110.755 82.4914C115.632 90.4703 124.188 92.5942 133.23 92.61L133.013 82.4492Z" fill="#E3B4AA"/>
<path fill-rule="evenodd" clip-rule="evenodd" d="M166.097 79.0766C171.793 70.9606 153.614 49.3057 151.461 52.0515C150.036 53.8644 154.586 57.0423 156.211 61.759C153.947 59.0027 146.019 50.9131 144.383 54.0805C143.659 55.477 150.516 59.5824 152.775 65.8381C150.284 62.9711 143.19 56.3519 141.664 58.7603C139.896 61.5377 150.606 67.5772 152.179 73.6958C149.962 72.7103 145.681 71.2136 144.968 72.0726C143.126 74.286 161.289 85.9277 166.097 79.0766Z" fill="#FBC9BE"/>
<path fill-rule="evenodd" clip-rule="evenodd" d="M145.101 70.0168C147.624 70.0168 149.677 66.3277 149.677 61.8587C149.677 57.3896 147.624 53.6953 145.101 53.6953C142.578 53.6953 140.52 57.3844 140.52 61.8587C140.52 66.333 142.578 70.0168 145.101 70.0168Z" fill="#429C46"/>
<path fill-rule="evenodd" clip-rule="evenodd" d="M122.773 29.2244C102.463 30.8845 100.32 50.9846 102.362 68.318C103.545 78.3312 114.117 89.1296 129.809 88.4287C149.049 87.5644 153.662 27.5854 122.773 29.2244Z" fill="#FBC9BE"/>
<path fill-rule="evenodd" clip-rule="evenodd" d="M145.059 61.1553C144.832 46.6731 141.037 41.656 137.342 40.2014C134.476 39.0894 133.525 39.8641 129.166 39.8641C124.806 39.8641 120.113 39.1263 115.268 41.1184C104.12 45.6928 108.406 59.6059 102.6 66.6995C100.335 58.4096 99.7496 47.7956 104.616 39.0473C108.67 31.764 116.096 28.3384 123.523 28.3753C143.734 28.4649 147.64 45.5347 145.059 61.1553Z" fill="#1C1B19"/>
<path fill-rule="evenodd" clip-rule="evenodd" d="M99.8339 58.8147C101.233 58.43 103.038 60.5433 103.867 63.5578C104.695 66.5723 104.236 69.2864 102.837 69.6764C101.439 70.0664 99.6334 67.9478 98.8047 64.9333C97.976 61.9188 98.4352 59.2047 99.8339 58.8147Z" fill="#FBC9BE"/>
<path fill-rule="evenodd" clip-rule="evenodd" d="M146.367 44.2533C143.411 32.132 131.113 32.0055 124.314 37.3073C129.366 28.9436 149.418 26.298 146.367 44.2533Z" fill="#A6A6A6"/>
<path fill-rule="evenodd" clip-rule="evenodd" d="M97.834 54.3696C104.511 41.6845 109.024 38.0798 119.818 38.1957C107.298 34.5751 98.9477 39.6186 97.834 54.3696Z" fill="#A6A6A6"/>
<path fill-rule="evenodd" clip-rule="evenodd" d="M98.3719 59.9096C101.771 52.6421 101.893 51.1402 107.704 46.4023C100.969 48.5525 98.1449 54.9505 98.3719 59.9096Z" fill="#A6A6A6"/>
<path fill-rule="evenodd" clip-rule="evenodd" d="M138.133 30.1405C131.968 28.0641 125.122 31.9956 122.489 34.3566C124.568 29.3869 129.662 26.3671 138.133 30.1405Z" fill="#A6A6A6"/>
<path fill-rule="evenodd" clip-rule="evenodd" d="M101.344 39.9192C105.746 34.9759 114.502 34.3013 116.915 34.9073C115.827 32.0404 104.59 31.4449 101.344 39.9192Z" fill="#A6A6A6"/>
<path fill-rule="evenodd" clip-rule="evenodd" d="M144.931 54.7468C143.401 45.3977 140.382 41.3819 137.341 40.2014C135.32 39.4161 132.116 39.6743 130.131 39.8535C143.934 31.7534 146.246 45.5189 144.91 54.7468H144.931ZM121.274 39.7956C119.213 39.9063 117.184 40.3532 115.267 41.1183C110.263 43.1737 108.374 47.1052 107.281 51.453C107.297 42.5624 112.676 38.0722 121.274 39.7956Z" fill="#A6A6A6"/>
<path d="M101.406 61.8724C100.456 61.4508 98.5351 62.3573 100.757 66.0885" stroke="#D9ABA1" stroke-width="1.2" stroke-linecap="round" stroke-linejoin="round"/>
<path d="M100.319 64.8177C101.407 64.3961 102.705 64.5384 102.958 65.7189" stroke="#D9ABA1" stroke-width="1.2" stroke-linecap="round" stroke-linejoin="round"/>
<path fill-rule="evenodd" clip-rule="evenodd" d="M118.963 108.343C120.61 111.653 123.603 115.521 124.88 116.364C122.024 116.022 118.546 114.636 116.477 111.927C115.638 110.836 111.457 117.487 109.953 119.558C107.551 115.5 104.585 102.789 106.121 93.2812C109.262 96.1271 115.954 106.968 118.963 108.343Z" fill="#CE9E0C"/>
<path fill-rule="evenodd" clip-rule="evenodd" d="M118.962 108.345C113.599 100.808 112.454 95.5014 110.871 87.6016L106.12 93.2827C107.271 102.806 107.63 111.127 110.686 116.566C111.462 114.274 115.468 110.105 118.962 108.345Z" fill="#FFC107"/>
<path fill-rule="evenodd" clip-rule="evenodd" d="M132.058 106.518C130.475 110.734 126.733 114.043 124.88 116.362C130.385 111.645 133.916 108.288 139.094 114.633C143.206 106.249 139.949 98.0116 138.187 93.8008C135.173 95.1815 135.067 105.142 132.058 106.518Z" fill="#CE9E0C"/>
<path fill-rule="evenodd" clip-rule="evenodd" d="M132.058 106.521C133.858 99.7646 133.303 96.7238 133.087 88.2969L138.186 93.8041C139.906 100.798 140.012 106.979 138.661 112.719C137.426 110.637 135.847 107.512 132.058 106.521Z" fill="#FFC107"/>
<path d="M264 171H0V272H264V171Z" fill="#2B2B2B"/>
<rect x="8" y="217" width="248" height="47" rx="4" fill="#FFC107"/>
<path d="M30.1979 245C29.6432 245 29.1419 244.893 28.6939 244.68C28.2565 244.456 27.9099 244.163 27.6539 243.8C27.4085 243.427 27.2859 243.027 27.2859 242.6C27.2752 242.461 27.2699 242.12 27.2699 241.576H29.3819L29.3979 242.168C29.4085 242.264 29.4405 242.333 29.4939 242.376C29.5579 242.408 29.6592 242.424 29.7979 242.424H31.6539C32.1552 242.424 32.3685 242.253 32.2939 241.912L32.2459 241.72L31.0619 237.048L33.3019 236.424L34.4859 241.128C34.5819 241.512 34.6619 241.789 34.7259 241.96C34.7899 242.131 34.8592 242.253 34.9339 242.328C35.0192 242.392 35.1365 242.424 35.2859 242.424H36.0699L36.2139 243.72L36.0699 245H35.2859C34.5925 245 34.0112 244.776 33.5419 244.328C32.9552 244.776 32.2245 245 31.3499 245H30.1979ZM35.9044 242.424H36.9124C37.275 242.424 37.5204 242.387 37.6484 242.312C37.7764 242.237 37.8297 242.109 37.8084 241.928V241.864L37.6324 239.896L39.9364 239.656L40.1124 241.624V241.704C40.1444 242.013 40.2137 242.211 40.3204 242.296C40.427 242.381 40.6564 242.424 41.0084 242.424L41.1524 243.72L41.0084 245C40.187 245 39.5097 244.797 38.9764 244.392C38.4217 244.797 37.7337 245 36.9124 245H35.9044V242.424ZM37.0084 235.88H39.2644V238.152H37.0084V235.88ZM40.8419 242.424H41.2099C41.5725 242.424 41.8179 242.371 41.9459 242.264C42.0739 242.157 42.1272 241.997 42.1059 241.784L41.8019 233.864L44.1059 233.736L44.4099 241.672C44.4419 242.301 44.3299 242.867 44.0739 243.368C43.8179 243.869 43.4445 244.269 42.9539 244.568C42.4632 244.856 41.8819 245 41.2099 245H40.8419V242.424ZM56.4018 245C55.2178 245 54.3218 244.989 53.7138 244.968C53.1164 244.947 52.6311 244.904 52.2578 244.84C51.8951 244.765 51.5484 244.659 51.2178 244.52C50.6311 244.253 50.1778 243.869 49.8578 243.368C49.5484 242.856 49.3938 242.275 49.3938 241.624C49.3938 241.315 49.4471 240.936 49.5538 240.488L50.1618 238.136L52.3698 238.792L51.7458 241.256C51.7031 241.395 51.6818 241.523 51.6818 241.64C51.6818 241.768 51.7138 241.869 51.7778 241.944C51.8524 242.019 51.9698 242.093 52.1298 242.168C52.3431 242.275 52.7111 242.344 53.2338 242.376C53.7671 242.408 54.8498 242.424 56.4818 242.424H60.2578C60.6418 242.424 60.8924 242.387 61.0098 242.312C61.1378 242.227 61.1911 242.077 61.1698 241.864L60.9938 239.896L63.2818 239.656L63.4578 241.624V241.704C63.4898 242.013 63.5591 242.211 63.6658 242.296C63.7724 242.381 64.0018 242.424 64.3538 242.424H64.5298L64.6737 243.72L64.5298 245H64.3538C63.5218 245 62.8444 244.797 62.3218 244.392C61.7671 244.797 61.0791 245 60.2578 245H56.4818H56.4018ZM54.4818 236.888H58.6258V238.904H54.4818V236.888ZM64.3575 242.424H67.3015C67.6855 242.424 67.9362 242.387 68.0535 242.312C68.1815 242.227 68.2348 242.077 68.2135 241.864L68.0375 239.896L70.3255 239.656L70.5015 241.624L70.5175 241.752C70.5388 242.04 70.6028 242.227 70.7095 242.312C70.8268 242.387 71.0562 242.424 71.3975 242.424L71.5415 243.72L71.3975 245C70.5762 245 69.9042 244.797 69.3815 244.392C68.8055 244.797 68.1122 245 67.3015 245H64.3575V242.424ZM63.9575 246.392H68.1015V248.408H63.9575V246.392ZM71.2325 242.424H72.4965C72.9232 242.424 73.2325 242.376 73.4245 242.28C73.6165 242.173 73.7125 241.987 73.7125 241.72C73.7125 241.571 73.6805 241.384 73.6165 241.16L72.9765 238.776L75.1845 238.12L75.8245 240.504C75.9418 240.973 76.0005 241.389 76.0005 241.752C76.0005 242.392 75.8565 242.957 75.5685 243.448C75.2805 243.939 74.8698 244.323 74.3365 244.6C73.8032 244.867 73.1898 245 72.4965 245H71.2325V242.424ZM71.3605 246.248H73.6165V248.52H71.3605V246.248ZM96.0275 245C95.2702 245 94.6302 244.765 94.1075 244.296C93.5848 244.765 92.9342 245 92.1555 245C91.8248 245 91.5155 244.952 91.2275 244.856C91.2275 245.944 90.8755 246.787 90.1715 247.384C89.4782 247.981 88.4008 248.445 86.9395 248.776C86.4595 248.893 85.9528 248.952 85.4195 248.952C84.5128 248.952 83.7235 248.744 83.0515 248.328C82.3902 247.923 81.8835 247.341 81.5315 246.584C81.1795 245.837 81.0035 244.968 81.0035 243.976C81.0035 242.877 81.2115 241.736 81.6275 240.552L83.8035 241.416C83.4515 242.44 83.2755 243.315 83.2755 244.04C83.2755 244.797 83.4568 245.379 83.8195 245.784C84.1928 246.189 84.7208 246.392 85.4035 246.392C85.6808 246.392 86.0168 246.349 86.4115 246.264C87.1262 246.104 87.6488 245.965 87.9795 245.848C88.3208 245.741 88.5662 245.603 88.7155 245.432C88.8648 245.261 88.9395 245.027 88.9395 244.728C88.9395 244.653 88.9288 244.52 88.9075 244.328L88.2515 239.928L90.5075 239.56L90.7795 241.384C90.8862 241.789 91.0355 242.067 91.2275 242.216C91.4195 242.355 91.7288 242.424 92.1555 242.424C92.5182 242.424 92.7582 242.371 92.8755 242.264C92.9928 242.157 93.0515 241.987 93.0515 241.752V239.768H95.1955V241.752C95.1955 241.997 95.2542 242.173 95.3715 242.28C95.4995 242.376 95.7182 242.424 96.0275 242.424C96.3475 242.424 96.5768 242.376 96.7155 242.28C96.8648 242.184 96.9395 242.013 96.9395 241.768C96.9395 241.597 96.9075 241.395 96.8435 241.16L96.2035 238.776L98.4115 238.12L99.0515 240.504C99.1688 240.909 99.2275 241.331 99.2275 241.768C99.2275 242.397 99.0942 242.957 98.8275 243.448C98.5608 243.928 98.1822 244.307 97.6915 244.584C97.2115 244.861 96.6568 245 96.0275 245ZM104.543 245C103.754 245 103.119 244.877 102.639 244.632C102.17 244.376 101.818 243.976 101.583 243.432C101.359 242.888 101.226 242.152 101.183 241.224L100.895 233.864L103.199 233.736L103.487 241.224C103.509 241.651 103.535 241.939 103.567 242.088C103.599 242.227 103.679 242.317 103.807 242.36C103.935 242.403 104.181 242.424 104.543 242.424H104.703L104.847 243.72L104.703 245H104.543ZM104.545 242.424H105.553C105.916 242.424 106.161 242.387 106.289 242.312C106.417 242.237 106.47 242.109 106.449 241.928V241.864L106.273 239.896L108.577 239.656L108.753 241.624V241.704C108.785 242.013 108.854 242.211 108.961 242.296C109.068 242.381 109.297 242.424 109.649 242.424L109.793 243.72L109.649 245C108.828 245 108.15 244.797 107.617 244.392C107.062 244.797 106.374 245 105.553 245H104.545V242.424ZM105.649 235.88H107.905V238.152H105.649V235.88ZM117.979 245C117.221 245 116.581 244.765 116.059 244.296C115.536 244.765 114.885 245 114.107 245C113.371 245 112.741 244.755 112.219 244.264C111.675 244.755 111.013 245 110.235 245H109.482V242.424H110.235C110.608 242.424 110.848 242.376 110.955 242.28C111.072 242.173 111.131 241.997 111.131 241.752V239.768H113.291V241.752C113.291 241.965 113.349 242.131 113.467 242.248C113.595 242.365 113.808 242.424 114.107 242.424C114.469 242.424 114.709 242.376 114.827 242.28C114.955 242.173 115.019 242.008 115.019 241.784V241.752V239.768H117.163V241.752V241.816C117.163 242.029 117.221 242.184 117.339 242.28C117.467 242.376 117.68 242.424 117.979 242.424C118.299 242.424 118.528 242.376 118.667 242.28C118.816 242.184 118.891 242.013 118.891 241.768C118.891 241.597 118.859 241.395 118.795 241.16L118.155 238.776L120.363 238.12L121.003 240.504C121.12 240.909 121.179 241.336 121.179 241.784C121.179 242.413 121.045 242.973 120.779 243.464C120.512 243.944 120.133 244.323 119.643 244.6C119.163 244.867 118.608 245 117.979 245ZM113.771 235.624H115.067V234.104H116.987V235.624H118.251L118.267 237.816H116.235H115.771H113.755L113.771 235.624ZM120.5 246.6L121.604 246.296C122.308 246.093 122.788 245.896 123.044 245.704C123.311 245.512 123.444 245.229 123.444 244.856C123.444 244.792 123.433 244.675 123.412 244.504L122.772 239.912L125.028 239.576L125.492 242.904L125.668 244.216C125.711 244.483 125.732 244.765 125.732 245.064C125.732 246.056 125.449 246.835 124.884 247.4C124.319 247.976 123.428 248.435 122.212 248.776L121.108 249.08L120.5 246.6ZM130.606 245C129.816 245 129.182 244.877 128.702 244.632C128.232 244.376 127.88 243.976 127.646 243.432C127.422 242.888 127.288 242.152 127.246 241.224L126.958 233.864L129.262 233.736L129.55 241.224C129.571 241.651 129.598 241.939 129.63 242.088C129.662 242.227 129.742 242.317 129.87 242.36C129.998 242.403 130.243 242.424 130.606 242.424H130.766L130.91 243.72L130.766 245H130.606ZM130.607 242.424H134.176C134.357 242.424 134.485 242.392 134.56 242.328C134.645 242.243 134.688 242.147 134.688 242.04C134.688 241.933 134.65 241.827 134.576 241.72L131.056 236.744L131.568 234.792L137.36 232.664L138.16 235.08L133.92 236.632L136.304 240.168C136.805 240.915 137.056 241.661 137.056 242.408C137.056 242.984 136.89 243.496 136.56 243.944C136.314 244.275 135.984 244.536 135.568 244.728C135.162 244.909 134.688 245 134.144 245H130.607V242.424ZM146.465 245C145.676 245 145.041 244.877 144.561 244.632C144.092 244.376 143.74 243.976 143.505 243.432C143.281 242.888 143.148 242.152 143.105 241.224L142.817 233.864L145.121 233.736L145.409 241.224C145.43 241.651 145.457 241.939 145.489 242.088C145.521 242.227 145.601 242.317 145.729 242.36C145.857 242.403 146.102 242.424 146.465 242.424H146.625L146.769 243.72L146.625 245H146.465ZM146.467 242.424H147.731C148.158 242.424 148.467 242.376 148.659 242.28C148.851 242.173 148.947 241.987 148.947 241.72C148.947 241.571 148.915 241.384 148.851 241.16L148.211 238.776L150.419 238.12L151.059 240.504C151.176 240.973 151.235 241.389 151.235 241.752C151.235 242.392 151.091 242.957 150.803 243.448C150.515 243.939 150.104 244.323 149.571 244.6C149.038 244.867 148.424 245 147.731 245H146.467V242.424ZM146.595 246.248H148.851V248.52H146.595V246.248ZM159.518 245.048C158.921 245.048 158.366 244.893 157.854 244.584C157.353 244.275 156.953 243.859 156.654 243.336C156.366 242.813 156.222 242.243 156.222 241.624C156.222 241.101 156.345 240.579 156.59 240.056C156.835 239.523 157.177 239.043 157.614 238.616L157.774 238.456L157.39 238.104L158.974 236.232L161.15 238.232C161.715 238.765 162.126 239.299 162.382 239.832C162.649 240.365 162.782 240.963 162.782 241.624C162.782 242.243 162.633 242.813 162.334 243.336C162.046 243.859 161.651 244.275 161.15 244.584C160.649 244.893 160.105 245.048 159.518 245.048ZM158.462 241.624C158.462 241.88 158.558 242.099 158.75 242.28C158.953 242.451 159.209 242.536 159.518 242.536C159.827 242.536 160.078 242.451 160.27 242.28C160.462 242.099 160.558 241.88 160.558 241.624C160.558 241.4 160.494 241.187 160.366 240.984C160.249 240.771 159.998 240.493 159.614 240.152L159.486 240.024L159.326 240.184C158.985 240.525 158.755 240.797 158.638 241C158.521 241.203 158.462 241.411 158.462 241.624ZM167.073 245C166.518 245 166.017 244.893 165.569 244.68C165.132 244.456 164.785 244.163 164.529 243.8C164.284 243.427 164.161 243.027 164.161 242.6C164.15 242.461 164.145 242.12 164.145 241.576H166.257L166.273 242.168C166.284 242.264 166.316 242.333 166.369 242.376C166.433 242.408 166.534 242.424 166.673 242.424H168.529C169.03 242.424 169.244 242.253 169.169 241.912L169.121 241.72L167.937 237.048L170.177 236.424L171.361 241.128C171.457 241.512 171.537 241.789 171.601 241.96C171.665 242.131 171.734 242.253 171.809 242.328C171.894 242.392 172.012 242.424 172.161 242.424H172.945L173.089 243.72L172.945 245H172.161C171.468 245 170.886 244.776 170.417 244.328C169.83 244.776 169.1 245 168.225 245H167.073ZM172.779 242.424H174.043C174.47 242.424 174.779 242.376 174.971 242.28C175.163 242.173 175.259 241.987 175.259 241.72C175.259 241.571 175.227 241.384 175.163 241.16L174.523 238.776L176.731 238.12L177.371 240.504C177.489 240.973 177.547 241.389 177.547 241.752C177.547 242.392 177.403 242.957 177.115 243.448C176.827 243.939 176.417 244.323 175.883 244.6C175.35 244.867 174.737 245 174.043 245H172.779V242.424ZM173.739 234.584H176.011V236.856H173.739V234.584ZM177.219 246.6L178.323 246.296C179.027 246.093 179.507 245.896 179.763 245.704C180.029 245.512 180.163 245.229 180.163 244.856C180.163 244.792 180.152 244.675 180.131 244.504L179.491 239.912L181.747 239.576L182.211 242.904L182.387 244.216C182.429 244.483 182.451 244.765 182.451 245.064C182.451 246.056 182.168 246.835 181.603 247.4C181.037 247.976 180.147 248.435 178.931 248.776L177.827 249.08L177.219 246.6ZM179.363 235.736H181.635V237.992H179.363V235.736ZM193.393 248.776C192.913 248.893 192.411 248.952 191.889 248.952C190.982 248.952 190.193 248.744 189.521 248.328C188.859 247.923 188.347 247.341 187.985 246.584C187.633 245.837 187.457 244.963 187.457 243.96C187.457 242.872 187.665 241.736 188.081 240.552L190.257 241.416C189.905 242.419 189.729 243.293 189.729 244.04C189.729 244.797 189.91 245.379 190.273 245.784C190.646 246.189 191.174 246.392 191.857 246.392C192.134 246.392 192.47 246.349 192.865 246.264C194.582 245.869 195.441 245.629 195.441 245.544C195.441 245.523 195.366 245.491 195.217 245.448C195.067 245.405 194.955 245.373 194.881 245.352C194.411 245.235 194.006 245.117 193.665 245C192.918 244.723 192.358 244.392 191.985 244.008C191.611 243.624 191.425 243.117 191.425 242.488C191.425 242.061 191.499 241.608 191.649 241.128C191.947 240.157 192.438 239.363 193.121 238.744C193.814 238.125 194.609 237.816 195.505 237.816C195.835 237.816 196.166 237.864 196.497 237.96L197.537 238.248L196.945 240.728L195.905 240.44C195.766 240.397 195.617 240.376 195.457 240.376C194.998 240.376 194.635 240.541 194.369 240.872C194.113 241.203 193.937 241.517 193.841 241.816C193.809 241.912 193.793 241.997 193.793 242.072C193.793 242.2 193.857 242.307 193.985 242.392C194.113 242.467 194.369 242.568 194.753 242.696L195.201 242.84C195.809 243.032 196.262 243.192 196.561 243.32C196.87 243.448 197.121 243.629 197.313 243.864C197.505 244.099 197.643 244.424 197.729 244.84C197.761 245.021 197.777 245.187 197.777 245.336C197.777 246.147 197.387 246.845 196.609 247.432C195.841 248.019 194.769 248.467 193.393 248.776ZM200.401 246.584C201.564 246.339 202.385 246.147 202.865 246.008C203.356 245.88 203.708 245.741 203.921 245.592C204.134 245.453 204.252 245.256 204.273 245H202.689C202.049 245 201.484 244.861 200.993 244.584C200.513 244.296 200.14 243.891 199.873 243.368C199.606 242.845 199.473 242.237 199.473 241.544C199.473 240.893 199.617 240.285 199.905 239.72C200.193 239.144 200.588 238.685 201.089 238.344C201.601 238.003 202.172 237.832 202.801 237.832C203.409 237.832 203.958 237.997 204.449 238.328C204.95 238.659 205.356 239.117 205.665 239.704C205.985 240.28 206.188 240.936 206.273 241.672L206.353 242.424H207.249L207.393 243.72L207.249 245H207.201H206.593C206.593 245.821 206.401 246.477 206.017 246.968C205.633 247.459 205.041 247.859 204.241 248.168C203.452 248.477 202.326 248.787 200.865 249.096L200.401 246.584ZM201.777 241.592C201.777 241.901 201.841 242.12 201.969 242.248C202.097 242.365 202.337 242.424 202.689 242.424H204.033L203.985 241.944C203.932 241.432 203.798 241.048 203.585 240.792C203.382 240.536 203.116 240.408 202.785 240.408C202.476 240.408 202.23 240.52 202.049 240.744C201.868 240.968 201.777 241.251 201.777 241.592ZM215.268 245C214.404 245 213.631 244.685 212.948 244.056C212.703 244.355 212.383 244.589 211.988 244.76C211.593 244.92 211.14 245 210.628 245H207.092V242.424H210.66C210.841 242.424 210.969 242.392 211.044 242.328C211.129 242.243 211.172 242.147 211.172 242.04C211.172 241.933 211.135 241.827 211.06 241.72L207.54 236.744L208.052 234.792L213.844 232.664L214.644 235.08L210.404 236.632L212.788 240.168L213.044 240.584C213.471 241.309 213.839 241.8 214.148 242.056C214.457 242.301 214.831 242.424 215.268 242.424H215.492L215.636 243.72L215.492 245H215.268ZM211.844 230.488L212.42 232.056L208.516 233.464L207.956 231.896L211.844 230.488ZM215.326 242.424H218.27C218.654 242.424 218.905 242.387 219.022 242.312C219.15 242.227 219.204 242.077 219.182 241.864L219.006 239.896L221.294 239.656L221.47 241.624L221.486 241.752C221.508 242.04 221.572 242.227 221.678 242.312C221.796 242.387 222.025 242.424 222.366 242.424L222.51 243.72L222.366 245C221.545 245 220.873 244.797 220.35 244.392C219.774 244.797 219.081 245 218.27 245H215.326V242.424ZM215.934 236.024H220.094V238.04H215.934V236.024ZM222.201 242.424H223.241H223.545C223.268 242.008 223.151 241.613 223.193 241.24L223.289 240.296C223.343 239.72 223.519 239.203 223.817 238.744C224.127 238.285 224.521 237.928 225.001 237.672C225.481 237.416 225.999 237.288 226.553 237.288C227.183 237.288 227.748 237.464 228.249 237.816C228.761 238.157 229.151 238.611 229.417 239.176C229.695 239.731 229.817 240.323 229.785 240.952L229.737 241.704C229.727 241.939 229.647 242.179 229.497 242.424H230.697L230.841 243.72L230.697 245H229.481C228.543 245 227.54 244.808 226.473 244.424C225.375 244.808 224.297 245 223.241 245H222.201V242.424ZM225.465 233.944H227.737V236.216H225.465V233.944ZM225.481 241.336C225.705 241.603 226.015 241.816 226.409 241.976C226.975 241.816 227.321 241.635 227.449 241.432L227.529 240.92C227.561 240.653 227.476 240.408 227.273 240.184C227.081 239.96 226.836 239.848 226.537 239.848C226.281 239.848 226.052 239.928 225.849 240.088C225.657 240.248 225.551 240.456 225.529 240.712L225.481 241.336ZM230.545 242.424H234.113C234.294 242.424 234.422 242.392 234.497 242.328C234.582 242.243 234.625 242.147 234.625 242.04C234.625 241.933 234.588 241.827 234.513 241.72L230.993 236.744L231.505 234.792L237.297 232.664L238.097 235.08L233.857 236.632L236.241 240.168C236.742 240.915 236.993 241.661 236.993 242.408C236.993 242.984 236.828 243.496 236.497 243.944C236.252 244.275 235.921 244.536 235.505 244.728C235.1 244.909 234.625 245 234.081 245H230.545V242.424ZM235.297 230.488L235.873 232.056L231.969 233.464L231.409 231.896L235.297 230.488Z" fill="#1C1B19"/>
<path d="M193.376 196.891H85.5244V199.199H193.376V196.891Z" fill="#4CAF50"/>
<path fill-rule="evenodd" clip-rule="evenodd" d="M179.584 177.332H99.3166L85.5244 196.889H193.376L179.584 177.332Z" fill="#3E8B41"/>
<path fill-rule="evenodd" clip-rule="evenodd" d="M95.6012 194.708H92.2336C91.8483 194.708 91.616 194.56 91.7058 194.376L92.4289 193.185C92.5445 193.071 92.6828 192.984 92.8347 192.927C92.9866 192.871 93.1487 192.847 93.3104 192.858H96.5935C96.963 192.858 97.1952 193.011 97.0949 193.19C96.8785 193.585 96.6621 193.975 96.451 194.381C96.3408 194.493 96.208 194.58 96.0614 194.636C95.9148 194.692 95.7579 194.717 95.6012 194.708Z" fill="#FFD45F"/>
<path fill-rule="evenodd" clip-rule="evenodd" d="M96.6934 192.442H93.727C93.273 192.442 92.9933 192.257 93.1305 192.036L94.0964 190.423C94.2344 190.286 94.3996 190.179 94.5813 190.109C94.7631 190.039 94.9575 190.008 95.1521 190.017H98.0235C98.4616 190.017 98.715 190.202 98.5935 190.423L97.7332 192.041C97.6007 192.181 97.4386 192.29 97.2587 192.359C97.0788 192.428 96.8856 192.456 96.6934 192.442Z" fill="#FFD45F"/>
<path fill-rule="evenodd" clip-rule="evenodd" d="M98.2553 189.602H95.3892C94.9616 189.602 94.7083 189.418 94.8613 189.196L95.8325 187.584C95.9612 187.446 96.1187 187.338 96.2939 187.268C96.469 187.198 96.6576 187.167 96.846 187.178H99.6065C100.024 187.178 100.266 187.357 100.134 187.584L99.274 189.196C99.1462 189.337 98.9881 189.446 98.8116 189.517C98.635 189.587 98.4448 189.616 98.2553 189.602Z" fill="#FFD45F"/>
<path fill-rule="evenodd" clip-rule="evenodd" d="M99.8128 186.772H97.0734C96.6564 186.772 96.4083 186.593 96.5456 186.371L97.5168 184.759C97.6418 184.623 97.7949 184.517 97.9654 184.447C98.1359 184.377 98.3196 184.345 98.5038 184.353H101.143C101.544 184.353 101.776 184.537 101.671 184.759L100.8 186.371C100.677 186.509 100.524 186.617 100.353 186.687C100.182 186.756 99.9971 186.785 99.8128 186.772Z" fill="#FFD45F"/>
<path fill-rule="evenodd" clip-rule="evenodd" d="M101.37 183.921H98.7307C98.3349 183.921 98.1026 183.742 98.2399 183.516C98.6832 182.778 99.1213 182.035 99.57 181.292C100.019 180.548 100.462 179.805 100.911 179.062C101.025 178.932 101.166 178.828 101.325 178.758C101.483 178.688 101.656 178.653 101.829 178.656H104.247C104.616 178.656 104.811 178.841 104.695 179.062C104.299 179.805 103.893 180.548 103.497 181.292C103.101 182.035 102.695 182.772 102.299 183.516C102.185 183.649 102.042 183.754 101.881 183.824C101.72 183.895 101.545 183.928 101.37 183.921Z" fill="#FFD45F"/>
<path fill-rule="evenodd" clip-rule="evenodd" d="M102.927 181.081H100.415C100.035 181.081 99.8287 180.902 99.9606 180.675L100.932 179.062C101.046 178.932 101.187 178.828 101.346 178.758C101.505 178.688 101.677 178.653 101.85 178.656H104.268C104.637 178.656 104.833 178.841 104.716 179.062C104.431 179.589 104.136 180.143 103.851 180.675C103.739 180.81 103.598 180.917 103.437 180.988C103.277 181.058 103.102 181.09 102.927 181.081Z" fill="#FFD45F"/>
<path fill-rule="evenodd" clip-rule="evenodd" d="M101.555 194.677H98.1766C97.7965 194.677 97.559 194.534 97.6487 194.35C97.8599 193.955 98.0657 193.565 98.2768 193.159C98.384 193.044 98.5154 192.955 98.6615 192.898C98.8076 192.84 98.9647 192.816 99.1214 192.827H102.399C102.769 192.827 103.011 192.98 102.927 193.159C102.748 193.559 102.558 193.955 102.399 194.345C102.294 194.462 102.163 194.553 102.016 194.611C101.87 194.668 101.712 194.691 101.555 194.677Z" fill="#FFD45F"/>
<path fill-rule="evenodd" clip-rule="evenodd" d="M107.736 192.427H99.5546C99.0637 192.427 98.7681 192.232 98.8895 191.994C99.164 191.467 99.4438 190.94 99.7077 190.44C99.8442 190.29 100.013 190.173 100.201 190.098C100.39 190.024 100.593 189.993 100.795 190.008H108.712C109.188 190.008 109.499 190.208 109.409 190.44C109.203 190.967 109.003 191.494 108.797 191.994C108.697 192.226 108.206 192.427 107.736 192.427Z" fill="#FFD45F"/>
<path fill-rule="evenodd" clip-rule="evenodd" d="M105.25 189.593H101C100.525 189.593 100.262 189.403 100.383 189.161C100.642 188.634 100.911 188.107 101.191 187.58C101.321 187.432 101.484 187.315 101.668 187.24C101.851 187.165 102.049 187.134 102.246 187.148H106.358C106.801 187.148 107.086 187.338 106.981 187.58C106.754 188.107 106.527 188.634 106.31 189.135C106.184 189.291 106.022 189.415 105.837 189.495C105.652 189.575 105.45 189.608 105.25 189.593Z" fill="#FFD45F"/>
<path fill-rule="evenodd" clip-rule="evenodd" d="M110.607 186.77H102.457C101.998 186.77 101.734 186.575 101.856 186.344C102.13 185.817 102.383 185.29 102.663 184.763C102.79 184.617 102.949 184.502 103.127 184.427C103.306 184.352 103.499 184.319 103.692 184.33H111.547C111.974 184.33 112.243 184.52 112.154 184.763C111.963 185.29 111.768 185.817 111.573 186.317C111.464 186.469 111.318 186.59 111.149 186.67C110.98 186.749 110.793 186.784 110.607 186.77Z" fill="#FFD45F"/>
<path fill-rule="evenodd" clip-rule="evenodd" d="M106.469 183.915H103.83C103.429 183.915 103.202 183.73 103.302 183.509C103.582 182.982 103.83 182.455 104.141 181.896C104.252 181.76 104.393 181.652 104.554 181.582C104.714 181.511 104.89 181.48 105.065 181.49H107.583C107.973 181.49 108.2 181.669 108.11 181.896C107.862 182.423 107.63 182.95 107.382 183.509C107.273 183.644 107.134 183.752 106.975 183.823C106.816 183.893 106.642 183.925 106.469 183.915Z" fill="#FFD45F"/>
<path fill-rule="evenodd" clip-rule="evenodd" d="M107.799 181.082H105.297C104.912 181.082 104.69 180.898 104.806 180.676C105.086 180.149 105.376 179.622 105.651 179.064C105.755 178.929 105.891 178.822 106.047 178.751C106.202 178.68 106.372 178.648 106.543 178.658H108.939C109.319 178.658 109.525 178.842 109.425 179.064C109.182 179.591 108.944 180.118 108.691 180.676C108.586 180.811 108.45 180.918 108.295 180.989C108.14 181.06 107.969 181.092 107.799 181.082Z" fill="#FFD45F"/>
<path fill-rule="evenodd" clip-rule="evenodd" d="M107.049 194.677H104.13C103.75 194.677 103.497 194.534 103.576 194.35C103.755 193.955 103.935 193.559 104.104 193.164C104.183 192.98 104.553 192.832 104.922 192.832H107.778C108.147 192.832 108.395 192.98 108.305 193.159C108.147 193.559 107.989 193.955 107.841 194.35C107.799 194.54 107.429 194.677 107.049 194.677Z" fill="#FFD45F"/>
<path fill-rule="evenodd" clip-rule="evenodd" d="M112.629 194.678H109.71C109.33 194.678 109.076 194.53 109.14 194.346C109.282 193.951 109.435 193.561 109.588 193.16C109.652 192.981 110.005 192.828 110.375 192.828H113.23C113.6 192.828 113.864 192.976 113.811 193.16C113.684 193.555 113.552 193.951 113.431 194.346C113.373 194.536 113.009 194.678 112.629 194.678Z" fill="#FFD45F"/>
<path fill-rule="evenodd" clip-rule="evenodd" d="M118.234 194.677H115.321C114.941 194.677 114.672 194.534 114.724 194.355C114.835 193.955 114.967 193.559 115.083 193.164C115.141 192.985 115.484 192.832 115.854 192.832H118.688C119.068 192.832 119.343 192.974 119.295 193.159C119.2 193.554 119.095 193.949 119.005 194.345C118.942 194.518 118.599 194.677 118.234 194.677Z" fill="#FFD45F"/>
<path fill-rule="evenodd" clip-rule="evenodd" d="M123.803 194.677H120.874C120.494 194.677 120.214 194.529 120.256 194.345C120.341 193.949 120.43 193.559 120.52 193.159C120.562 192.98 120.89 192.832 121.264 192.832H124.115C124.484 192.832 124.774 192.98 124.743 193.159C124.679 193.554 124.605 193.949 124.542 194.345C124.521 194.513 124.183 194.677 123.803 194.677Z" fill="#FFD45F"/>
<path fill-rule="evenodd" clip-rule="evenodd" d="M129.382 194.648H126.474C126.083 194.648 125.793 194.506 125.819 194.326C125.872 193.926 125.94 193.531 125.999 193.135C125.999 192.956 126.352 192.809 126.732 192.809H129.572C129.941 192.809 130.237 192.951 130.221 193.135C130.179 193.531 130.137 193.926 130.105 194.321C130.089 194.5 129.762 194.648 129.382 194.648Z" fill="#FFD45F"/>
<path fill-rule="evenodd" clip-rule="evenodd" d="M134.967 194.641H132.053C131.673 194.641 131.377 194.494 131.388 194.309C131.414 193.919 131.451 193.524 131.483 193.129C131.483 192.944 131.81 192.797 132.18 192.797H135.014C135.399 192.797 135.711 192.944 135.706 193.124C135.706 193.524 135.679 193.914 135.679 194.309C135.679 194.494 135.352 194.641 134.967 194.641Z" fill="#FFD45F"/>
<path fill-rule="evenodd" clip-rule="evenodd" d="M140.556 194.63H137.637C137.257 194.63 136.94 194.482 136.94 194.303C136.94 193.908 136.94 193.512 136.94 193.117C136.94 192.933 137.247 192.79 137.616 192.785H140.461C140.831 192.785 141.153 192.927 141.163 193.112C141.189 193.507 141.205 193.897 141.232 194.292C141.253 194.482 140.931 194.63 140.556 194.63Z" fill="#FFD45F"/>
<path fill-rule="evenodd" clip-rule="evenodd" d="M146.135 194.621H143.227C142.836 194.621 142.525 194.473 142.514 194.294C142.488 193.899 142.461 193.503 142.43 193.108C142.43 192.929 142.694 192.781 143.074 192.781H145.919C146.288 192.781 146.615 192.924 146.642 193.108C146.689 193.503 146.742 193.893 146.79 194.294C146.816 194.473 146.515 194.621 146.135 194.621Z" fill="#FFD45F"/>
<path fill-rule="evenodd" clip-rule="evenodd" d="M151.725 194.609H148.806C148.426 194.609 148.104 194.461 148.078 194.282C148.02 193.887 147.957 193.492 147.893 193.102C147.867 192.917 148.152 192.77 148.521 192.77H151.377C151.746 192.77 152.079 192.917 152.116 193.096C152.195 193.492 152.285 193.882 152.364 194.282C152.401 194.461 152.105 194.609 151.725 194.609Z" fill="#FFD45F"/>
<path fill-rule="evenodd" clip-rule="evenodd" d="M157.293 194.597H154.39C154.01 194.597 153.672 194.455 153.63 194.27C153.535 193.875 153.456 193.48 153.372 193.09C153.335 192.905 153.599 192.758 153.968 192.758H156.813C157.183 192.758 157.541 192.905 157.594 193.09C157.705 193.48 157.805 193.875 157.916 194.27C157.969 194.45 157.689 194.597 157.293 194.597Z" fill="#FFD45F"/>
<path fill-rule="evenodd" clip-rule="evenodd" d="M162.889 194.589H159.98C159.6 194.589 159.252 194.442 159.199 194.262L158.877 193.098C158.819 192.913 159.083 192.771 159.452 192.766H162.287C162.667 192.766 163.031 192.908 163.095 193.092C163.232 193.482 163.369 193.872 163.517 194.273C163.554 194.442 163.279 194.589 162.889 194.589Z" fill="#FFD45F"/>
<path fill-rule="evenodd" clip-rule="evenodd" d="M168.478 194.576H165.56C165.179 194.576 164.821 194.434 164.752 194.249C164.604 193.854 164.456 193.464 164.314 193.069C164.25 192.89 164.499 192.742 164.868 192.742H167.718C168.093 192.742 168.463 192.884 168.536 193.069C168.7 193.464 168.874 193.854 169.064 194.249C169.117 194.429 168.858 194.576 168.478 194.576Z" fill="#FFD45F"/>
<path fill-rule="evenodd" clip-rule="evenodd" d="M174.063 194.567H171.155C170.764 194.567 170.394 194.425 170.315 194.24C170.141 193.845 169.951 193.455 169.787 193.065C169.708 192.881 169.951 192.733 170.315 192.733H173.155C173.31 192.722 173.466 192.746 173.611 192.802C173.756 192.859 173.887 192.947 173.994 193.06L174.591 194.24C174.712 194.419 174.443 194.567 174.063 194.567Z" fill="#FFD45F"/>
<path fill-rule="evenodd" clip-rule="evenodd" d="M179.642 194.557H176.734C176.576 194.57 176.417 194.547 176.269 194.491C176.121 194.434 175.987 194.345 175.879 194.23C175.667 193.84 175.477 193.445 175.272 193.055C175.171 192.87 175.404 192.723 175.773 192.723H178.607C178.769 192.709 178.932 192.731 179.085 192.788C179.237 192.844 179.375 192.934 179.489 193.049C179.716 193.434 179.938 193.829 180.165 194.225C180.27 194.414 180.033 194.557 179.642 194.557Z" fill="#FFD45F"/>
<path fill-rule="evenodd" clip-rule="evenodd" d="M185.918 194.547H182.55C182.391 194.559 182.23 194.536 182.08 194.48C181.93 194.425 181.793 194.338 181.679 194.226C181.442 193.825 181.199 193.441 180.967 193.045C180.856 192.866 181.078 192.719 181.447 192.713H184.741C184.904 192.703 185.067 192.726 185.22 192.782C185.374 192.837 185.514 192.923 185.633 193.035L186.414 194.215C186.52 194.4 186.324 194.547 185.918 194.547Z" fill="#FFD45F"/>
<path fill-rule="evenodd" clip-rule="evenodd" d="M113.579 192.418H110.67C110.222 192.418 109.921 192.244 110.005 192.022C110.206 191.495 110.401 190.968 110.607 190.399C110.686 190.178 111.108 190.004 111.536 190.004H114.36C114.787 190.004 115.088 190.178 115.014 190.399C114.84 190.926 114.682 191.485 114.487 192.022C114.444 192.233 114.012 192.418 113.579 192.418Z" fill="#FFD45F"/>
<path fill-rule="evenodd" clip-rule="evenodd" d="M119.459 192.407H116.546C116.102 192.407 115.785 192.228 115.854 192.012C116.018 191.485 116.165 190.932 116.329 190.389C116.392 190.167 116.794 189.988 117.221 189.988H120.035C120.467 189.988 120.784 190.167 120.731 190.384C120.605 190.911 120.483 191.469 120.362 192.007C120.309 192.228 119.903 192.407 119.459 192.407Z" fill="#FFD45F"/>
<path fill-rule="evenodd" clip-rule="evenodd" d="M125.333 192.394H122.457C122.003 192.394 121.681 192.215 121.728 191.999C121.839 191.472 121.955 190.919 122.071 190.376C122.114 190.16 122.499 189.98 122.932 189.98H125.75C126.189 189.98 126.505 190.16 126.474 190.376C126.384 190.903 126.315 191.456 126.236 191.994C126.152 192.215 125.787 192.394 125.333 192.394Z" fill="#FFD45F"/>
<path fill-rule="evenodd" clip-rule="evenodd" d="M131.219 192.386H128.31C127.862 192.386 127.508 192.207 127.54 191.991C127.614 191.464 127.682 190.911 127.756 190.373C127.788 190.152 128.168 189.973 128.595 189.973H131.43C131.857 189.973 132.195 190.152 132.179 190.368C132.137 190.895 132.106 191.448 132.069 191.991C132.026 192.207 131.662 192.386 131.219 192.386Z" fill="#FFD45F"/>
<path fill-rule="evenodd" clip-rule="evenodd" d="M137.093 192.381H134.185C133.736 192.381 133.377 192.207 133.388 191.986C133.388 191.459 133.446 190.932 133.472 190.368C133.472 190.152 133.842 189.973 134.269 189.973H137.093C137.521 189.973 137.885 190.152 137.885 190.368C137.885 190.895 137.885 191.448 137.885 191.986C137.906 192.197 137.542 192.376 137.093 192.381Z" fill="#FFD45F"/>
<path fill-rule="evenodd" clip-rule="evenodd" d="M142.968 192.371H140.06C139.611 192.371 139.247 192.192 139.242 191.975C139.242 191.448 139.21 190.895 139.194 190.358C139.194 190.136 139.527 189.957 139.954 189.957H142.773C143.201 189.957 143.581 190.131 143.596 190.352L143.739 191.965C143.76 192.192 143.417 192.371 142.968 192.371Z" fill="#FFD45F"/>
<path fill-rule="evenodd" clip-rule="evenodd" d="M148.848 192.358H145.945C145.491 192.358 145.106 192.178 145.08 191.962C145.022 191.435 144.963 190.908 144.9 190.344C144.9 190.128 145.212 189.949 145.65 189.949H148.458C148.896 189.949 149.276 190.123 149.313 190.344C149.397 190.871 149.492 191.425 149.587 191.962C149.624 192.178 149.302 192.358 148.848 192.358Z" fill="#FFD45F"/>
<path fill-rule="evenodd" clip-rule="evenodd" d="M154.734 192.35H151.815C151.377 192.35 150.971 192.171 150.928 191.955C150.828 191.428 150.717 190.901 150.617 190.342C150.575 190.121 150.902 189.941 151.33 189.941H154.153C154.581 189.941 154.972 190.115 155.024 190.337L155.436 191.949C155.489 192.171 155.183 192.35 154.734 192.35Z" fill="#FFD45F"/>
<path fill-rule="evenodd" clip-rule="evenodd" d="M160.608 192.337H157.689C157.251 192.337 156.834 192.163 156.776 191.942C156.634 191.414 156.486 190.887 156.338 190.329C156.28 190.113 156.586 189.934 157.014 189.934H159.827C160.255 189.934 160.666 190.113 160.74 190.329C160.925 190.856 161.099 191.383 161.268 191.942C161.358 192.158 161.052 192.337 160.608 192.337Z" fill="#FFD45F"/>
<path fill-rule="evenodd" clip-rule="evenodd" d="M166.484 192.328H163.575C163.126 192.328 162.699 192.154 162.625 191.938L162.044 190.331C161.965 190.109 162.25 189.93 162.688 189.93H165.502C165.68 189.914 165.859 189.942 166.023 190.011C166.188 190.079 166.333 190.188 166.447 190.326C166.668 190.853 166.895 191.38 167.122 191.938C167.217 192.149 166.932 192.328 166.484 192.328Z" fill="#FFD45F"/>
<path fill-rule="evenodd" clip-rule="evenodd" d="M172.368 192.323H169.434C168.995 192.323 168.536 192.149 168.446 191.933C168.214 191.406 167.987 190.879 167.75 190.321C167.655 190.105 167.94 189.925 168.367 189.925H171.186C171.367 189.911 171.548 189.94 171.716 190.008C171.884 190.077 172.033 190.184 172.152 190.321C172.426 190.848 172.68 191.375 172.954 191.933C173.076 192.144 172.806 192.318 172.368 192.323Z" fill="#FFD45F"/>
<path fill-rule="evenodd" clip-rule="evenodd" d="M178.243 192.313H175.324C175.137 192.326 174.948 192.298 174.773 192.23C174.597 192.161 174.44 192.055 174.311 191.917C174.031 191.39 173.757 190.863 173.482 190.336C173.366 190.115 173.635 189.936 174.063 189.936H176.887C177.073 189.925 177.26 189.955 177.434 190.023C177.608 190.091 177.766 190.196 177.895 190.331L178.824 191.944C178.935 192.133 178.681 192.313 178.243 192.313Z" fill="#FFD45F"/>
<path fill-rule="evenodd" clip-rule="evenodd" d="M184.313 192.302H181.346C181.152 192.314 180.957 192.284 180.775 192.215C180.593 192.146 180.428 192.039 180.291 191.901C179.974 191.374 179.657 190.847 179.341 190.32C179.203 190.094 179.452 189.92 179.869 189.92H182.74C182.934 189.91 183.128 189.941 183.31 190.01C183.491 190.079 183.657 190.184 183.796 190.32C184.149 190.847 184.503 191.374 184.851 191.901C185.004 192.117 184.767 192.302 184.313 192.302Z" fill="#FFD45F"/>
<path fill-rule="evenodd" clip-rule="evenodd" d="M182.429 189.485H176.565C176.362 189.5 176.158 189.469 175.968 189.395C175.778 189.321 175.607 189.206 175.467 189.059C175.187 188.532 174.897 188.031 174.612 187.52C174.48 187.283 174.744 187.088 175.203 187.088H180.872C181.074 187.078 181.276 187.111 181.464 187.185C181.652 187.258 181.823 187.371 181.965 187.514C182.297 188.041 182.64 188.537 182.978 189.053C183.158 189.29 182.883 189.485 182.429 189.485Z" fill="#FFD45F"/>
<path fill-rule="evenodd" clip-rule="evenodd" d="M180.592 186.677H173.9C173.703 186.691 173.505 186.66 173.322 186.586C173.139 186.512 172.975 186.397 172.844 186.25C172.569 185.723 172.279 185.227 172.005 184.711C171.883 184.474 172.142 184.279 172.569 184.279H179.035C179.231 184.27 179.427 184.303 179.609 184.375C179.791 184.448 179.955 184.559 180.091 184.7C180.429 185.227 180.777 185.728 181.115 186.245C181.273 186.482 181.046 186.677 180.592 186.677Z" fill="#FFD45F"/>
<path fill-rule="evenodd" clip-rule="evenodd" d="M178.766 183.867H169.566C169.378 183.878 169.191 183.846 169.019 183.772C168.846 183.697 168.694 183.584 168.573 183.44C168.32 182.913 168.046 182.412 167.803 181.896C167.692 181.664 167.94 181.469 168.331 181.469H177.193C177.383 181.465 177.572 181.5 177.748 181.574C177.923 181.647 178.082 181.757 178.212 181.896C178.549 182.423 178.898 182.924 179.236 183.44C179.405 183.672 179.193 183.867 178.766 183.867Z" fill="#FFD45F"/>
<path fill-rule="evenodd" clip-rule="evenodd" d="M176.944 181.06H173.281C173.095 181.066 172.909 181.031 172.738 180.956C172.567 180.881 172.416 180.769 172.294 180.627C171.993 180.1 171.692 179.605 171.397 179.089C171.265 178.851 171.466 178.656 171.856 178.656H175.371C175.558 178.654 175.743 178.691 175.914 178.765C176.086 178.84 176.239 178.95 176.364 179.089C176.702 179.616 177.05 180.111 177.388 180.627C177.546 180.859 177.351 181.06 176.944 181.06Z" fill="#FFD45F"/>
<path fill-rule="evenodd" clip-rule="evenodd" d="M174.185 189.496H171.181C170.985 189.516 170.787 189.488 170.603 189.415C170.42 189.343 170.256 189.228 170.126 189.08C169.877 188.553 169.624 188.026 169.381 187.499C169.276 187.267 169.545 187.077 169.983 187.077H172.881C173.077 187.064 173.274 187.094 173.457 187.167C173.64 187.24 173.804 187.354 173.936 187.499C174.211 188.026 174.491 188.553 174.781 189.08C174.908 189.312 174.623 189.496 174.185 189.496Z" fill="#FFD45F"/>
<path fill-rule="evenodd" clip-rule="evenodd" d="M168.404 189.507H165.412C164.963 189.507 164.504 189.317 164.409 189.085C164.203 188.558 163.997 188.031 163.791 187.504C163.702 187.277 164.002 187.082 164.44 187.082H167.322C167.511 187.066 167.7 187.096 167.875 187.168C168.049 187.241 168.204 187.354 168.325 187.499C168.558 188.026 168.795 188.553 169.038 189.08C169.149 189.317 168.869 189.507 168.404 189.507Z" fill="#FFD45F"/>
<path fill-rule="evenodd" clip-rule="evenodd" d="M162.651 189.514H159.658C159.188 189.514 158.761 189.33 158.687 189.098C158.523 188.571 158.36 188.044 158.201 187.517C158.133 187.285 158.428 187.095 158.877 187.09H161.775C162.213 187.09 162.651 187.274 162.735 187.511C162.925 188.038 163.131 188.565 163.327 189.066C163.416 189.324 163.1 189.514 162.651 189.514Z" fill="#FFD45F"/>
<path fill-rule="evenodd" clip-rule="evenodd" d="M156.898 189.523H153.905C153.441 189.523 153.019 189.334 152.966 189.102C152.839 188.575 152.723 188.048 152.612 187.521C152.559 187.289 152.876 187.094 153.325 187.094H156.238C156.682 187.094 157.099 187.278 157.167 187.515C157.32 188.042 157.468 188.569 157.627 189.096C157.674 189.334 157.357 189.523 156.898 189.523Z" fill="#FFD45F"/>
<path fill-rule="evenodd" clip-rule="evenodd" d="M151.145 189.53H148.141C147.687 189.53 147.286 189.345 147.249 189.108C147.17 188.581 147.102 188.054 147.022 187.527C146.985 187.295 147.318 187.105 147.761 187.105H150.664C151.097 187.105 151.504 187.29 151.556 187.527C151.667 188.054 151.768 188.581 151.878 189.108C151.931 189.345 151.593 189.53 151.145 189.53Z" fill="#FFD45F"/>
<path fill-rule="evenodd" clip-rule="evenodd" d="M145.386 189.538H142.382C141.934 189.538 141.533 189.348 141.517 189.116L141.422 187.535C141.422 187.303 141.765 187.113 142.198 187.113H145.09C145.539 187.113 145.914 187.303 145.945 187.535C146.019 188.062 146.083 188.589 146.156 189.116C146.209 189.348 145.84 189.538 145.386 189.538Z" fill="#FFD45F"/>
<path fill-rule="evenodd" clip-rule="evenodd" d="M139.622 189.545H136.629C136.17 189.545 135.801 189.356 135.801 189.124C135.801 188.597 135.801 188.07 135.832 187.543C135.832 187.311 136.202 187.121 136.64 187.121H139.538C139.986 187.121 140.345 187.311 140.356 187.543C140.356 188.07 140.403 188.597 140.43 189.124C140.446 189.356 140.092 189.545 139.622 189.545Z" fill="#FFD45F"/>
<path fill-rule="evenodd" clip-rule="evenodd" d="M133.869 189.548H130.902C130.438 189.548 130.079 189.358 130.105 189.132L130.263 187.551C130.263 187.319 130.665 187.129 131.113 187.129H134.001C134.449 187.129 134.798 187.319 134.792 187.551C134.792 188.078 134.761 188.605 134.745 189.132C134.708 189.363 134.328 189.548 133.869 189.548Z" fill="#FFD45F"/>
<path fill-rule="evenodd" clip-rule="evenodd" d="M128.12 189.562H125.122C124.658 189.562 124.32 189.373 124.362 189.141C124.462 188.614 124.547 188.087 124.636 187.56C124.679 187.323 125.085 187.133 125.523 187.133H128.421C128.859 187.133 129.202 187.323 129.176 187.56C129.112 188.087 129.054 188.614 128.991 189.141C128.965 189.373 128.563 189.562 128.12 189.562Z" fill="#FFD45F"/>
<path fill-rule="evenodd" clip-rule="evenodd" d="M122.356 189.57H119.353C118.904 189.57 118.566 189.38 118.63 189.149C118.767 188.622 118.899 188.095 119.036 187.568C119.099 187.33 119.522 187.141 119.96 187.141H122.852C123.296 187.141 123.618 187.325 123.575 187.562C123.47 188.089 123.375 188.616 123.269 189.143C123.222 189.375 122.81 189.565 122.356 189.57Z" fill="#FFD45F"/>
<path fill-rule="evenodd" clip-rule="evenodd" d="M116.593 189.578H113.6C113.146 189.578 112.835 189.388 112.914 189.156C113.098 188.629 113.262 188.102 113.442 187.575C113.526 187.338 113.969 187.148 114.392 187.148H117.295C117.738 187.148 118.044 187.338 117.976 187.57C117.833 188.097 117.68 188.624 117.543 189.151C117.485 189.409 117.062 189.578 116.593 189.578Z" fill="#FFD45F"/>
<path fill-rule="evenodd" clip-rule="evenodd" d="M110.845 189.585H107.846C107.382 189.585 107.097 189.395 107.192 189.164C107.408 188.637 107.635 188.11 107.857 187.583C107.974 187.436 108.125 187.321 108.297 187.247C108.469 187.174 108.657 187.144 108.844 187.161H111.737C112.185 187.161 112.476 187.351 112.391 187.583C112.201 188.11 112.016 188.637 111.832 189.164C111.747 189.406 111.309 189.58 110.845 189.585Z" fill="#FFD45F"/>
<path fill-rule="evenodd" clip-rule="evenodd" d="M171.133 186.687H168.262C168.074 186.703 167.885 186.673 167.712 186.601C167.538 186.528 167.385 186.415 167.264 186.271C167.021 185.744 166.794 185.217 166.562 184.69C166.456 184.458 166.71 184.268 167.137 184.268H169.914C170.101 184.256 170.288 184.287 170.46 184.361C170.633 184.434 170.785 184.547 170.906 184.69C171.175 185.217 171.434 185.744 171.714 186.271C171.835 186.498 171.582 186.687 171.133 186.687Z" fill="#FFD45F"/>
<path fill-rule="evenodd" clip-rule="evenodd" d="M165.607 186.695H162.736C162.552 186.714 162.367 186.684 162.198 186.609C162.03 186.535 161.884 186.417 161.775 186.268C161.585 185.741 161.39 185.214 161.2 184.713C161.11 184.481 161.39 184.292 161.817 184.292H164.594C164.774 184.279 164.956 184.311 165.121 184.384C165.287 184.458 165.432 184.571 165.544 184.713L166.225 186.294C166.33 186.505 166.045 186.695 165.607 186.695Z" fill="#FFD45F"/>
<path fill-rule="evenodd" clip-rule="evenodd" d="M160.096 186.697H157.204C156.766 186.697 156.349 186.508 156.28 186.276C156.132 185.749 155.979 185.222 155.837 184.695C155.768 184.463 156.064 184.273 156.481 184.273H159.268C159.443 184.258 159.62 184.29 159.78 184.363C159.94 184.437 160.078 184.551 160.181 184.695C160.366 185.222 160.54 185.749 160.709 186.276C160.82 186.513 160.524 186.697 160.096 186.697Z" fill="#FFD45F"/>
<path fill-rule="evenodd" clip-rule="evenodd" d="M154.559 186.706H151.677C151.244 186.706 150.843 186.516 150.796 186.284C150.685 185.757 150.574 185.23 150.474 184.703C150.426 184.466 150.727 184.281 151.155 184.281H153.931C154.359 184.281 154.754 184.471 154.818 184.703C154.96 185.23 155.087 185.757 155.235 186.284C155.303 186.521 154.997 186.706 154.559 186.706Z" fill="#FFD45F"/>
<path fill-rule="evenodd" clip-rule="evenodd" d="M149.038 186.711H146.156C145.718 186.711 145.328 186.521 145.301 186.289C145.233 185.762 145.175 185.235 145.111 184.708C145.08 184.471 145.402 184.281 145.834 184.281H148.611C149.038 184.281 149.408 184.471 149.455 184.703C149.55 185.23 149.651 185.757 149.751 186.284C149.793 186.521 149.471 186.711 149.038 186.711Z" fill="#FFD45F"/>
<path fill-rule="evenodd" clip-rule="evenodd" d="M143.512 186.713H140.641C140.192 186.713 139.828 186.524 139.812 186.292C139.784 185.768 139.763 185.241 139.749 184.711C139.749 184.479 140.082 184.289 140.509 184.289H143.285C143.702 184.289 144.067 184.479 144.093 184.716C144.146 185.243 144.204 185.77 144.262 186.297C144.288 186.524 143.961 186.713 143.512 186.713Z" fill="#FFD45F"/>
<path fill-rule="evenodd" clip-rule="evenodd" d="M137.986 186.721H135.125C134.687 186.721 134.328 186.531 134.333 186.3C134.333 185.773 134.381 185.246 134.402 184.718C134.402 184.487 134.771 184.297 135.188 184.297H137.965C138.382 184.297 138.751 184.487 138.756 184.718C138.756 185.246 138.756 185.773 138.793 186.3C138.788 186.531 138.424 186.721 137.986 186.721Z" fill="#FFD45F"/>
<path fill-rule="evenodd" clip-rule="evenodd" d="M132.454 186.726H129.583C129.134 186.726 128.801 186.537 128.833 186.305C128.896 185.778 128.954 185.251 129.023 184.724C129.049 184.492 129.419 184.297 129.846 184.297H132.623C133.045 184.297 133.383 184.487 133.367 184.718C133.335 185.246 133.309 185.773 133.283 186.3C133.272 186.537 132.903 186.726 132.454 186.726Z" fill="#FFD45F"/>
<path fill-rule="evenodd" clip-rule="evenodd" d="M126.938 186.73H124.04C123.607 186.73 123.28 186.541 123.328 186.309C123.433 185.782 123.534 185.255 123.644 184.728C123.692 184.491 124.083 184.301 124.51 184.301H127.276C127.703 184.301 128.02 184.49 127.988 184.722C127.915 185.249 127.846 185.776 127.777 186.303C127.767 186.541 127.376 186.73 126.938 186.73Z" fill="#FFD45F"/>
<path fill-rule="evenodd" clip-rule="evenodd" d="M121.401 186.734H118.519C118.081 186.734 117.78 186.544 117.844 186.313C117.986 185.786 118.139 185.259 118.292 184.732C118.356 184.494 118.757 184.305 119.184 184.305H121.95C122.378 184.305 122.684 184.5 122.636 184.732C122.525 185.259 122.409 185.786 122.293 186.313C122.256 186.544 121.85 186.734 121.401 186.734Z" fill="#FFD45F"/>
<path fill-rule="evenodd" clip-rule="evenodd" d="M115.89 186.741H112.998C112.57 186.741 112.28 186.551 112.364 186.319L112.934 184.738C113.019 184.506 113.462 184.316 113.863 184.316H116.65C117.072 184.316 117.368 184.511 117.299 184.743L116.824 186.324C116.745 186.551 116.328 186.741 115.89 186.741Z" fill="#FFD45F"/>
<path fill-rule="evenodd" clip-rule="evenodd" d="M166.932 183.876H164.156C163.976 183.891 163.796 183.861 163.631 183.787C163.467 183.713 163.324 183.598 163.216 183.454C163 182.927 162.789 182.4 162.578 181.873C162.488 181.641 162.741 181.451 163.142 181.451H165.782C165.961 181.44 166.141 181.473 166.306 181.546C166.47 181.62 166.615 181.732 166.726 181.873C166.974 182.4 167.217 182.927 167.465 183.428C167.603 183.686 167.36 183.876 166.932 183.876Z" fill="#FFD45F"/>
<path fill-rule="evenodd" clip-rule="evenodd" d="M161.632 183.88H158.877C158.45 183.88 158.043 183.696 157.964 183.459C157.785 182.932 157.616 182.405 157.436 181.878C157.362 181.651 157.631 181.456 158.043 181.456H160.682C160.857 181.443 161.033 181.474 161.192 181.548C161.351 181.622 161.488 181.735 161.59 181.878C161.791 182.405 161.991 182.932 162.197 183.459C162.324 183.691 162.044 183.88 161.632 183.88Z" fill="#FFD45F"/>
<path fill-rule="evenodd" clip-rule="evenodd" d="M156.348 183.885H153.598C153.176 183.885 152.78 183.701 152.722 183.464C152.59 182.937 152.474 182.41 152.342 181.883C152.284 181.651 152.58 181.461 152.981 181.461H155.62C156.021 181.461 156.417 181.651 156.486 181.883C156.644 182.41 156.808 182.937 156.971 183.437C157.051 183.695 156.765 183.885 156.348 183.885Z" fill="#FFD45F"/>
<path fill-rule="evenodd" clip-rule="evenodd" d="M151.049 183.889H148.321C147.904 183.889 147.513 183.699 147.476 183.467C147.392 182.94 147.312 182.413 147.228 181.886C147.191 181.655 147.492 181.465 147.893 181.465H150.532C150.939 181.465 151.313 181.655 151.366 181.886C151.488 182.413 151.604 182.94 151.73 183.467C151.773 183.694 151.488 183.889 151.049 183.889Z" fill="#FFD45F"/>
<path fill-rule="evenodd" clip-rule="evenodd" d="M145.755 183.889H143C142.577 183.889 142.219 183.699 142.197 183.467C142.155 182.94 142.108 182.413 142.065 181.886C142.065 181.655 142.372 181.465 142.778 181.465H145.417C145.824 181.465 146.183 181.66 146.214 181.886C146.293 182.413 146.367 182.94 146.441 183.467C146.494 183.699 146.209 183.889 145.755 183.889Z" fill="#FFD45F"/>
<path fill-rule="evenodd" clip-rule="evenodd" d="M140.472 183.897H137.711C137.284 183.897 136.94 183.707 136.94 183.475V181.894C136.94 181.662 137.273 181.473 137.685 181.473H140.324C140.736 181.473 141.073 181.662 141.084 181.894C141.121 182.421 141.153 182.948 141.189 183.475C141.221 183.702 140.889 183.897 140.472 183.897Z" fill="#FFD45F"/>
<path fill-rule="evenodd" clip-rule="evenodd" d="M135.173 183.893H132.407C132 183.893 131.662 183.703 131.684 183.471C131.731 182.944 131.773 182.417 131.816 181.89C131.816 181.664 132.18 181.469 132.576 181.469H135.241C135.642 181.469 135.975 181.658 135.975 181.89C135.975 182.417 135.948 182.944 135.943 183.471C135.943 183.703 135.59 183.893 135.173 183.893Z" fill="#FFD45F"/>
<path fill-rule="evenodd" clip-rule="evenodd" d="M129.879 183.898H127.118C126.701 183.898 126.379 183.709 126.416 183.471C126.5 182.944 126.58 182.417 126.675 181.89C126.717 181.658 127.081 181.469 127.493 181.469H130.132C130.533 181.469 130.85 181.658 130.829 181.89C130.776 182.417 130.718 182.944 130.665 183.471C130.654 183.709 130.296 183.898 129.879 183.898Z" fill="#FFD45F"/>
<path fill-rule="evenodd" clip-rule="evenodd" d="M124.569 183.905H121.824C121.407 183.905 121.111 183.715 121.169 183.483C121.291 182.956 121.423 182.429 121.549 181.902C121.602 181.67 121.988 181.48 122.394 181.48H125.033C125.44 181.48 125.73 181.67 125.688 181.902C125.587 182.429 125.503 182.956 125.413 183.483C125.387 183.715 125.012 183.905 124.569 183.905Z" fill="#FFD45F"/>
<path fill-rule="evenodd" clip-rule="evenodd" d="M119.289 183.912H116.534C116.107 183.912 115.827 183.722 115.906 183.485C116.075 182.958 116.249 182.431 116.434 181.904C116.526 181.759 116.657 181.642 116.812 181.567C116.966 181.492 117.139 181.461 117.31 181.477H119.949C120.361 181.477 120.641 181.672 120.577 181.904C120.44 182.431 120.308 182.958 120.171 183.485C120.108 183.722 119.712 183.912 119.289 183.912Z" fill="#FFD45F"/>
<path fill-rule="evenodd" clip-rule="evenodd" d="M113.98 183.909H108.997C108.57 183.909 108.306 183.714 108.406 183.477C108.638 182.95 108.876 182.423 109.103 181.922C109.211 181.779 109.354 181.664 109.518 181.588C109.682 181.513 109.862 181.479 110.042 181.49H114.845C115.252 181.49 115.526 181.68 115.442 181.917C115.268 182.444 115.094 182.971 114.914 183.472C114.83 183.72 114.418 183.909 113.98 183.909Z" fill="#FFD45F"/>
<path fill-rule="evenodd" clip-rule="evenodd" d="M170.764 181.058H168.125C167.944 181.069 167.764 181.037 167.598 180.964C167.433 180.89 167.287 180.778 167.175 180.636C166.916 180.109 166.647 179.582 166.41 179.055C166.299 178.828 166.505 178.633 166.895 178.633H169.434C169.614 178.628 169.792 178.663 169.956 178.737C170.12 178.811 170.265 178.922 170.379 179.06C170.669 179.587 170.954 180.114 171.25 180.615C171.387 180.868 171.171 181.058 170.764 181.058Z" fill="#FFD45F"/>
<path fill-rule="evenodd" clip-rule="evenodd" d="M165.702 181.061H163.063C162.888 181.072 162.713 181.04 162.553 180.966C162.394 180.892 162.255 180.78 162.15 180.64L161.517 179.085C161.422 178.853 161.649 178.658 162.044 178.658H164.573C164.749 178.648 164.924 178.681 165.084 178.756C165.243 178.83 165.381 178.943 165.486 179.085C165.729 179.612 165.972 180.139 166.225 180.64C166.346 180.877 166.104 181.061 165.702 181.061Z" fill="#FFD45F"/>
<path fill-rule="evenodd" clip-rule="evenodd" d="M160.635 181.061H157.995C157.826 181.075 157.655 181.043 157.502 180.969C157.349 180.895 157.218 180.781 157.124 180.639C156.945 180.112 156.781 179.585 156.597 179.058C156.523 178.826 156.781 178.631 157.161 178.631H159.69C159.86 178.62 160.03 178.653 160.182 178.728C160.335 178.803 160.466 178.917 160.561 179.058C160.766 179.585 160.972 180.112 161.183 180.613C161.289 180.876 161.046 181.061 160.635 181.061Z" fill="#FFD45F"/>
<path fill-rule="evenodd" clip-rule="evenodd" d="M155.568 181.066H122.583C122.177 181.066 121.887 180.871 121.95 180.634C122.077 180.107 122.198 179.58 122.33 179.085C122.388 178.847 122.758 178.647 123.148 178.647H154.818C154.986 178.635 155.154 178.668 155.304 178.744C155.453 178.821 155.58 178.936 155.668 179.079C155.821 179.606 156.006 180.107 156.159 180.623C156.238 180.871 155.979 181.066 155.568 181.066Z" fill="#FFD45F"/>
<path fill-rule="evenodd" clip-rule="evenodd" d="M150.521 181.066H147.882C147.481 181.066 147.122 180.877 147.085 180.645C146.99 180.118 146.911 179.591 146.826 179.064C146.79 178.832 147.075 178.637 147.465 178.637H149.993C150.384 178.637 150.748 178.832 150.801 179.064C150.917 179.591 151.023 180.118 151.149 180.645C151.207 180.877 150.917 181.066 150.521 181.066Z" fill="#FFD45F"/>
<path fill-rule="evenodd" clip-rule="evenodd" d="M145.454 181.064H142.815C142.414 181.064 142.066 180.874 142.045 180.637C141.997 180.11 141.96 179.583 141.918 179.056C141.918 178.824 142.192 178.629 142.583 178.629H145.154C145.534 178.629 145.893 178.824 145.924 179.056C145.998 179.583 146.067 180.11 146.151 180.637C146.167 180.874 145.85 181.064 145.454 181.064Z" fill="#FFD45F"/>
<path fill-rule="evenodd" clip-rule="evenodd" d="M140.403 181.07H137.764C137.368 181.07 137.035 180.88 137.035 180.649C137.035 180.122 137.035 179.595 137.035 179.068C137.035 178.836 137.357 178.641 137.737 178.641H140.265C140.656 178.641 140.994 178.836 141.01 179.068C141.041 179.595 141.063 180.122 141.105 180.649C141.105 180.88 140.793 181.07 140.403 181.07Z" fill="#FFD45F"/>
<path fill-rule="evenodd" clip-rule="evenodd" d="M135.325 181.07H132.686C132.28 181.07 131.963 180.88 131.984 180.649C132.021 180.122 132.069 179.595 132.116 179.068C132.116 178.836 132.47 178.641 132.86 178.641H135.389C135.779 178.641 136.096 178.836 136.091 179.068C136.091 179.595 136.091 180.122 136.091 180.649C136.064 180.88 135.737 181.07 135.325 181.07Z" fill="#FFD45F"/>
<path fill-rule="evenodd" clip-rule="evenodd" d="M130.268 181.072H127.629C127.217 181.072 126.927 180.877 126.964 180.645C127.043 180.118 127.133 179.591 127.217 179.064C127.254 178.832 127.608 178.637 127.999 178.637H130.527C130.918 178.637 131.218 178.832 131.192 179.064C131.139 179.591 131.076 180.118 131.034 180.645C131.018 180.882 130.675 181.072 130.268 181.072Z" fill="#FFD45F"/>
<path fill-rule="evenodd" clip-rule="evenodd" d="M125.207 181.075H122.568C122.161 181.075 121.876 180.88 121.934 180.649C122.056 180.122 122.193 179.595 122.325 179.068C122.383 178.836 122.742 178.641 123.132 178.641H125.671C126.051 178.641 126.342 178.836 126.299 179.068C126.201 179.587 126.106 180.114 126.014 180.649C125.977 180.88 125.624 181.075 125.207 181.075Z" fill="#FFD45F"/>
<path fill-rule="evenodd" clip-rule="evenodd" d="M120.129 181.077H115.379C114.983 181.077 114.714 180.882 114.798 180.645L115.363 179.096C115.456 178.952 115.585 178.835 115.739 178.759C115.892 178.682 116.063 178.647 116.234 178.658H120.821C121.206 178.658 121.47 178.853 121.406 179.096C121.269 179.623 121.148 180.15 121.011 180.645C120.926 180.882 120.541 181.077 120.129 181.077Z" fill="#FFD45F"/>
<path fill-rule="evenodd" clip-rule="evenodd" d="M112.676 181.082H110.169C109.789 181.082 109.557 180.898 109.641 180.676C109.879 180.149 110.132 179.622 110.364 179.064C110.46 178.93 110.589 178.823 110.737 178.752C110.886 178.681 111.05 178.648 111.214 178.658H113.626C113.991 178.658 114.212 178.842 114.154 179.064C113.948 179.591 113.743 180.118 113.542 180.676C113.446 180.814 113.315 180.923 113.163 180.994C113.011 181.066 112.844 181.096 112.676 181.082Z" fill="#FFD45F"/>
<path fill-rule="evenodd" clip-rule="evenodd" d="M102.605 171.173C107.884 171.378 116.213 171.642 118.593 172.158C120.974 172.675 125.381 177.866 126.901 180.316C127.751 181.676 125.677 182.008 121.143 178.445C126.495 185.212 125.365 188.048 124.653 188.459C123.597 189.07 122.33 184.016 118.651 182.451C119.095 184.596 118.361 188.216 117.11 188.005C115.453 187.726 115.046 183.631 114.049 183.009C110.206 180.617 105.482 187.99 92.3444 181.086C79.2067 174.182 91.7004 169.734 102.605 171.173Z" fill="#FBC9BE"/>
<path fill-rule="evenodd" clip-rule="evenodd" d="M99.0892 183.92C87.3714 185.427 59.0216 184.078 52.0384 176.236C45.5144 168.916 55.1315 160.911 66.8177 161.422C79.132 161.949 92.9506 168.8 101.301 171.029C96.904 173.274 95.2836 177.011 99.0892 183.92Z" fill="#FFC107"/>
<path fill-rule="evenodd" clip-rule="evenodd" d="M167.075 70.793C175.415 76.7218 198.444 98.8352 202.519 115.151C204.709 123.931 191.466 126.271 183.86 119.115C177.024 112.68 160.023 87.8259 155.885 80.9221C161.142 80.2633 165.122 77.876 167.075 70.793Z" fill="#FFC107"/>
<path fill-rule="evenodd" clip-rule="evenodd" d="M101.766 70.0168C104.289 70.0168 106.347 66.3277 106.347 61.8587C106.347 57.3896 104.289 53.6953 101.766 53.6953C99.2428 53.6953 97.1896 57.3844 97.1896 61.8587C97.1896 66.333 99.2323 70.0168 101.766 70.0168Z" fill="#429C46"/>
<path fill-rule="evenodd" clip-rule="evenodd" d="M100.726 68.1951C102.684 68.1951 104.284 65.3493 104.284 61.871C104.284 58.3927 102.7 55.5469 100.726 55.5469C98.7519 55.5469 97.1631 58.398 97.1631 61.871C97.1631 65.344 98.7624 68.1951 100.726 68.1951Z" fill="#3E8B41"/>
<path fill-rule="evenodd" clip-rule="evenodd" d="M214.468 113.211H113.758L111.003 178.086H211.718L214.468 113.211Z" fill="#3E8B41"/>
<path fill-rule="evenodd" clip-rule="evenodd" d="M168.616 209.543C179.109 209.543 187.665 207.715 187.665 205.475C187.665 203.235 179.109 201.406 168.616 201.406C158.122 201.406 149.566 203.235 149.566 205.475C149.566 207.715 158.122 209.543 168.616 209.543Z" fill="#4CAF50"/>
<path d="M187.66 203.625H149.566V205.475H187.66V203.625Z" fill="#4CAF50"/>
<path fill-rule="evenodd" clip-rule="evenodd" d="M168.616 207.696C179.109 207.696 187.665 205.872 187.665 203.627C187.665 201.382 179.109 199.559 168.616 199.559C158.122 199.559 149.566 201.387 149.566 203.627C149.566 205.867 158.122 207.696 168.616 207.696Z" fill="#3E8B41"/>
<path fill-rule="evenodd" clip-rule="evenodd" d="M211.834 115.859H116.17L113.637 175.438H209.306L211.834 115.859Z" fill="#4CAF50"/>
<path d="M176.122 149.664H161.11V203.625H176.122V149.664Z" fill="#4B4B4B"/>
<path d="M176.122 184.727H161.11V203.625H176.122V184.727Z" fill="#4CAF50"/>
<path d="M100.076 61.8728C98.857 49.9571 100.351 30.3523 117.869 27.8438" stroke="#429C46" stroke-width="3.84" stroke-linecap="round" stroke-linejoin="round"/>
<path d="M99.9817 64.8159C100.955 64.8159 101.745 63.4073 101.745 61.6697C101.745 59.9321 100.955 58.5234 99.9817 58.5234C99.0081 58.5234 98.2188 59.9321 98.2188 61.6697C98.2188 63.4073 99.0081 64.8159 99.9817 64.8159Z" fill="#429C46"/>
<path d="M119.358 73.4531H115.025C114.092 73.4531 113.336 74.207 113.336 75.1369C113.336 76.0669 114.092 76.8207 115.025 76.8207H119.358C120.291 76.8207 121.048 76.0669 121.048 75.1369C121.048 74.207 120.291 73.4531 119.358 73.4531Z" fill="#3E8B41"/>
<path d="M99.1953 62.1016C102.051 69.1477 105.329 75.1451 111.647 75.1451H118.762" stroke="#429C46" stroke-width="3.84" stroke-linecap="round" stroke-linejoin="round"/>
<path fill-rule="evenodd" clip-rule="evenodd" d="M78.8628 193.449C86.0202 192.68 93.7265 206.377 81.2908 207.721C68.8551 209.064 71.7107 194.224 78.8628 193.449Z" fill="#4CAF50"/>
<path fill-rule="evenodd" clip-rule="evenodd" d="M78.8628 193.451C85.3129 192.756 91.5782 203.211 80.7207 204.381C69.8632 205.551 72.4127 194.152 78.8628 193.451Z" fill="#4B4B4B"/>
<path fill-rule="evenodd" clip-rule="evenodd" d="M78.9736 194.092C79.1466 194.079 79.3179 194.133 79.453 194.241C79.5882 194.35 79.6771 194.505 79.702 194.677L79.9554 196.173C79.9704 196.254 79.9684 196.337 79.9495 196.417C79.9305 196.497 79.8951 196.572 79.8454 196.638C79.7957 196.703 79.7329 196.757 79.6609 196.797C79.589 196.837 79.5095 196.862 79.4276 196.869C79.2567 196.885 79.0861 196.836 78.9493 196.733C78.8125 196.63 78.7195 196.479 78.6886 196.31L78.43 194.808C78.4115 194.725 78.4114 194.638 78.4297 194.555C78.448 194.471 78.4842 194.393 78.5359 194.325C78.5876 194.256 78.6535 194.2 78.7291 194.16C78.8047 194.12 78.8881 194.096 78.9736 194.092Z" fill="#4CAF50"/>
</g>
<defs>
<clipPath id="clip0_4421_42721">
<rect width="264" height="272" fill="white"/>
</clipPath>
</defs>
</svg>
