<svg width="25" height="24" viewBox="0 0 25 24" fill="none" xmlns="http://www.w3.org/2000/svg">
<g clip-path="url(#clip0_6621_971)">
<path fill-rule="evenodd" clip-rule="evenodd" d="M18.6337 1.89763C18.925 2.0183 19.1896 2.19517 19.4125 2.41813L21.9829 4.98853C22.4328 5.4386 22.6855 6.04894 22.6855 6.68533C22.6855 7.32172 22.4328 7.93207 21.9829 8.38213L19.4125 10.9525C19.1896 11.1755 18.925 11.3524 18.6337 11.473C18.6125 11.4818 18.5911 11.4903 18.5696 11.4985C18.2969 11.6024 18.0073 11.6558 17.7151 11.6558C17.4228 11.6558 17.1332 11.6024 16.8605 11.4985C16.839 11.4903 16.8177 11.4818 16.7964 11.473C16.5052 11.3524 16.2405 11.1755 16.0177 10.9525L13.4473 8.38213C13.207 8.14183 13.023 7.85583 12.9037 7.54458C12.7995 7.27288 12.7446 6.98194 12.7446 6.68533C12.7446 6.38873 12.7995 6.09778 12.9037 5.82608C13.023 5.51483 13.207 5.22883 13.4473 4.98853L16.0189 2.41813H16.0177L16.0189 2.41693C16.2415 2.19453 16.5057 2.01808 16.7964 1.89763C17.0876 1.77695 17.3998 1.71484 17.7151 1.71484C17.9258 1.71484 18.1351 1.74259 18.3377 1.79702C18.4383 1.82403 18.5371 1.85761 18.6337 1.89763ZM18.5639 3.26666L21.1342 5.83693C21.3591 6.06195 21.4855 6.3672 21.4855 6.68533C21.4855 7.00347 21.3592 7.30858 21.1343 7.5336L18.5639 10.104C18.4525 10.2155 18.32 10.3041 18.1744 10.3644C18.0288 10.4248 17.8727 10.4558 17.7151 10.4558C17.5574 10.4558 17.4013 10.4248 17.2557 10.3644C17.1101 10.3041 16.9778 10.2157 16.8664 10.1042L14.2959 7.53373C14.071 7.30871 13.9446 7.00347 13.9446 6.68533C13.9446 6.36729 14.0708 6.06226 14.2956 5.83726L16.8993 3.23481C17.0035 3.13817 17.1242 3.06074 17.2557 3.00623C17.4014 2.9459 17.5574 2.91484 17.7151 2.91484C17.8727 2.91484 18.0288 2.9459 18.1744 3.00623C18.32 3.06657 18.4525 3.15518 18.5639 3.26666Z" fill="#A6A6A6"/>
<path fill-rule="evenodd" clip-rule="evenodd" d="M18.8905 12.6985C19.527 12.6985 20.1374 12.9514 20.5875 13.4015C21.0376 13.8516 21.2905 14.462 21.2905 15.0985V19.8865C21.2905 20.5231 21.0376 21.1335 20.5875 21.5836C20.1374 22.0337 19.527 22.2865 18.8905 22.2865H14.1037C13.4671 22.2865 12.8567 22.0337 12.4066 21.5836C11.9565 21.1335 11.7037 20.5231 11.7037 19.8865V15.0985C11.7037 14.462 11.9565 13.8516 12.4066 13.4015C12.8567 12.9514 13.4671 12.6985 14.1037 12.6985H18.8905Z" fill="#A6A6A6"/>
<path fill-rule="evenodd" clip-rule="evenodd" d="M11.7037 10.2985C11.7037 10.9351 11.4508 11.5455 11.0007 11.9956C10.5506 12.4457 9.94018 12.6985 9.30366 12.6985H4.51566C3.87914 12.6985 3.26869 12.4457 2.81861 11.9956C2.36852 11.5455 2.11566 10.9351 2.11566 10.2985V5.51053C2.11566 4.87401 2.36852 4.26356 2.81861 3.81347C3.26869 3.36339 3.87914 3.11053 4.51566 3.11053H9.30366C9.94018 3.11053 10.5506 3.36339 11.0007 3.81347C11.4508 4.26356 11.7037 4.87401 11.7037 5.51053V10.2985Z" fill="#A6A6A6"/>
<path fill-rule="evenodd" clip-rule="evenodd" d="M2.11566 16.296C2.11566 15.6595 2.36852 15.0491 2.81861 14.599C3.26869 14.1489 3.87914 13.896 4.51566 13.896H8.10366C8.74018 13.896 9.35063 14.1489 9.80072 14.599C10.2508 15.0491 10.5037 15.6595 10.5037 16.296V19.8852C10.5037 20.5218 10.2508 21.1322 9.80072 21.5823C9.35063 22.0324 8.74018 22.2852 8.10366 22.2852H4.51686C3.88034 22.2852 3.26989 22.0324 2.81981 21.5823C2.36972 21.1322 2.11686 20.5218 2.11686 19.8852V16.2972L2.11566 16.296Z" fill="#A6A6A6"/>
</g>
<defs>
<clipPath id="clip0_6621_971">
<rect width="24" height="24" fill="white" transform="translate(0.400024)"/>
</clipPath>
</defs>
</svg>
