<svg width="17" height="16" viewBox="0 0 17 16" fill="none" xmlns="http://www.w3.org/2000/svg">
<g clip-path="url(#clip0_6689_628)">
<path d="M2.15149 14.8687L2.38781 13.0074C2.31548 12.9068 2.24871 12.8022 2.18781 12.6942C2.12581 12.5854 2.06799 12.4694 2.01399 12.3502C1.90345 12.0978 1.81506 11.8364 1.74992 11.5687C1.67744 11.2693 1.62519 10.9655 1.59406 10.6591C1.5589 10.3135 1.54184 9.96636 1.54289 9.61904V5.78945C1.54289 5.57305 1.54887 5.3622 1.56047 5.1626C1.57207 4.963 1.59 4.76664 1.6136 4.58184C1.6372 4.39704 1.66706 4.2158 1.70266 4.0458C1.73826 3.8758 1.78244 3.7098 1.82844 3.5542C1.87503 3.40208 1.92971 3.25259 1.99211 3.10625C2.051 2.96748 2.11778 2.83222 2.19211 2.70107C2.26438 2.57507 2.34477 2.45368 2.43235 2.33779C2.51855 2.22509 2.61177 2.11827 2.71203 2.01787C2.81245 1.91762 2.91966 1.82401 3.03235 1.73779C3.14818 1.65014 3.26918 1.57004 3.39524 1.49785C3.52619 1.42256 3.66176 1.35506 3.8007 1.2958C3.94705 1.2334 4.09664 1.17882 4.24875 1.13223C4.40435 1.08423 4.56856 1.04185 4.74016 1.00625C4.91176 0.97065 5.0905 0.940592 5.2761 0.916992C5.4617 0.893392 5.65616 0.877058 5.85696 0.864258C6.05775 0.851458 6.26752 0.84668 6.48352 0.84668H10.3128C10.5292 0.84668 10.7402 0.852658 10.9394 0.864258C11.1386 0.875858 11.3358 0.893792 11.5202 0.916992C11.7046 0.940192 11.8862 0.97065 12.0562 1.00625C12.2262 1.04185 12.3928 1.08623 12.548 1.13223C12.7 1.17882 12.849 1.2334 12.9952 1.2958C13.1343 1.35506 13.27 1.42256 13.4011 1.49785C13.527 1.57004 13.6483 1.65015 13.764 1.73779C13.8767 1.82392 13.9836 1.91754 14.0839 2.01787C14.1843 2.11812 14.278 2.22495 14.364 2.33779C14.4517 2.45359 14.5317 2.57499 14.6038 2.70107C14.6785 2.83206 14.7453 2.96734 14.8038 3.10625C14.8662 3.25259 14.9209 3.40208 14.9675 3.5542C15.0155 3.7098 15.0581 3.8742 15.0933 4.0458C15.1285 4.2174 15.1591 4.39624 15.1827 4.58184C15.2063 4.76744 15.2227 4.9618 15.2359 5.1626C15.2491 5.3634 15.253 5.57305 15.253 5.78945V9.61904C15.253 9.83544 15.2471 10.0462 15.2359 10.2458C15.2247 10.4454 15.2063 10.6419 15.1827 10.8267C15.1591 11.0115 15.1289 11.1926 15.0933 11.3626C15.0577 11.5326 15.0135 11.699 14.9675 11.8542C14.9209 12.0063 14.8662 12.1559 14.8038 12.3022C14.7453 12.4412 14.6785 12.5764 14.6038 12.7074C14.5317 12.8335 14.4517 12.9548 14.364 13.0706C14.278 13.1834 14.1843 13.2904 14.0839 13.3906C13.9836 13.491 13.8768 13.5845 13.764 13.6706C13.6483 13.7583 13.527 13.8385 13.4011 13.9106C13.27 13.9861 13.1343 14.0537 12.9952 14.1131C12.849 14.1754 12.6999 14.23 12.548 14.2767C12.3924 14.3247 12.2278 14.367 12.0562 14.4026C11.8846 14.4382 11.7062 14.4682 11.5202 14.4918C11.3342 14.5154 11.1402 14.5318 10.9394 14.5446C10.7386 14.5574 10.5292 14.5622 10.3128 14.5622H6.48352C6.20712 14.5622 5.94053 14.5526 5.69133 14.5334C5.44213 14.5142 5.19861 14.4851 4.97141 14.4467C4.75377 14.41 4.53825 14.361 4.3261 14.3002C4.13033 14.2438 3.93874 14.1744 3.75227 14.0923L2.14524 14.8654L2.15149 14.8687ZM7.31985 7.82861L9.07063 9.69668L12.8308 5.70625L9.45578 7.57422L7.66203 5.70625L3.90227 9.69668L7.31906 7.82861H7.31985Z" fill="#A6A6A6"/>
</g>
<defs>
<clipPath id="clip0_6689_628">
<rect width="16" height="16" fill="white" transform="translate(0.375)"/>
</clipPath>
</defs>
</svg>
