<svg width="17" height="16" viewBox="0 0 17 16" fill="none" xmlns="http://www.w3.org/2000/svg">
<g clip-path="url(#clip0_6689_592)">
<path d="M9.13607 1.96023C8.38784 1.96023 7.78386 2.56706 7.77255 3.32906C7.7696 3.52786 7.60605 3.68662 7.40725 3.68367C7.20844 3.68072 7.04968 3.51717 7.05263 3.31837C7.06957 2.17687 7.98058 1.24023 9.13607 1.24023C10.2867 1.24023 11.2195 2.17304 11.2195 3.32371C11.2195 4.30238 10.5451 5.12263 9.63614 5.3467C9.4431 5.39429 9.24803 5.27637 9.20044 5.08333C9.15285 4.89029 9.27077 4.69522 9.46381 4.64763C10.0587 4.50098 10.4995 3.96338 10.4995 3.32371C10.4995 2.57068 9.88909 1.96023 9.13607 1.96023Z" fill="#A6A6A6"/>
<path d="M9.57607 6.21937C9.57607 6.02054 9.73724 5.85936 9.93606 5.85936H12.4178C12.9009 5.85936 13.2926 6.25102 13.2926 6.73415V10.9811C13.2926 13.2412 11.4605 15.0733 9.20041 15.0733C7.57594 15.0733 6.17324 14.1267 5.51253 12.7566C5.42617 12.5775 5.50133 12.3623 5.68042 12.276C5.8595 12.1896 6.07469 12.2648 6.16106 12.4439C6.70627 13.5744 7.86274 14.3533 9.20041 14.3533C11.0628 14.3533 12.5726 12.8435 12.5726 10.9811V6.73415C12.5726 6.64866 12.5031 6.57936 12.4176 6.57936H9.93606C9.73724 6.57936 9.57607 6.41819 9.57607 6.21937Z" fill="#A6A6A6"/>
<path fill-rule="evenodd" clip-rule="evenodd" d="M12.0717 3.90279C12.0717 3.07196 12.7452 2.39844 13.5761 2.39844C14.4069 2.39844 15.0804 3.07196 15.0804 3.90279C15.0804 4.73361 14.4069 5.40713 13.5761 5.40713C12.7452 5.40713 12.0717 4.73361 12.0717 3.90279ZM13.5761 3.11844C13.1429 3.11844 12.7917 3.4696 12.7917 3.90279C12.7917 4.33597 13.1429 4.68713 13.5761 4.68713C14.0092 4.68713 14.3604 4.33597 14.3604 3.90279C14.3604 3.4696 14.0092 3.11844 13.5761 3.11844Z" fill="#A6A6A6"/>
<path d="M13.7899 6.21931C13.7899 6.02048 13.9511 5.85931 14.1499 5.85931H15.6352C16.1183 5.85931 16.51 6.25096 16.51 6.73409V9.82279C16.51 11.2987 15.4205 12.5195 14.0018 12.726C13.8051 12.7546 13.6224 12.6183 13.5937 12.4216C13.5651 12.2248 13.7014 12.0421 13.8981 12.0135C14.9681 11.8578 15.79 10.9359 15.79 9.82279V6.73409C15.79 6.6486 15.7207 6.57931 15.6352 6.57931H14.1499C13.9511 6.57931 13.7899 6.41813 13.7899 6.21931Z" fill="#A6A6A6"/>
<path fill-rule="evenodd" clip-rule="evenodd" d="M1.86476 4.1602C1.58045 4.1602 1.34998 4.39067 1.34998 4.67498V11.1098C1.34998 11.3941 1.58045 11.6245 1.86476 11.6245H8.29954C8.58385 11.6245 8.81432 11.3941 8.81432 11.1098V4.67498C8.81432 4.39067 8.58385 4.1602 8.29954 4.1602H1.86476ZM6.75514 6.54104H5.40384V9.95147H4.76036V6.54104H3.40906V5.89756H6.75514V6.54104Z" fill="#A6A6A6"/>
</g>
<defs>
<clipPath id="clip0_6689_592">
<rect width="16" height="16" fill="white" transform="translate(0.75)"/>
</clipPath>
</defs>
</svg>
