<svg width="16" height="16" viewBox="0 0 16 16" fill="none" xmlns="http://www.w3.org/2000/svg">
<path d="M2.7998 10.7973C2.7998 10.3555 3.15796 9.99731 3.59976 9.99731H12.3993C12.8411 9.99731 13.1993 10.3555 13.1993 10.7973C13.1993 11.2391 12.8411 11.5972 12.3993 11.5972H3.59976C3.15796 11.5972 2.7998 11.2391 2.7998 10.7973Z" fill="#2196F3"/>
<path d="M2.7998 5.79748C2.7998 5.46613 3.03398 5.19751 3.32286 5.19751H9.07641C9.36529 5.19751 9.59947 5.46613 9.59947 5.79748C9.59947 6.12883 9.36529 6.39745 9.07641 6.39745H3.32286C3.03398 6.39745 2.7998 6.12883 2.7998 5.79748Z" fill="#2196F3"/>
<path d="M8.39966 6.99741C10.7072 7.1974 11.1013 5.82311 10.7072 3.99756H12.0918C13.3662 3.99756 14.3994 5.02086 14.3994 6.28316V8.11164C14.3994 9.37394 13.3662 9.99726 12.0918 9.99726H10.7072C9.4328 9.99726 8.39966 9.37394 8.39966 8.11164V6.99741Z" fill="#F8F8F8"/>
<path d="M11.5314 13.8745H4.46339C2.18842 13.8745 1.36555 13.251 1.20317 11.406C1.18157 11.166 1.17114 10.9036 1.17114 10.6092V5.38786C1.17114 2.88571 1.94152 2.12256 4.46847 2.12256H11.5264C14.0521 2.12256 14.8217 2.88571 14.8217 5.38786V10.6022C14.8253 11.9004 14.6131 12.6934 14.1327 13.1746C13.644 13.6653 12.8661 13.8745 11.5314 13.8745ZM3.5045 10.3803C3.37834 10.3802 3.25753 10.4303 3.16821 10.5194C3.07889 10.6085 3.02859 10.7291 3.02838 10.8553C3.02848 10.9816 3.07851 11.1027 3.16782 11.192C3.25713 11.2813 3.3782 11.3317 3.5045 11.3318H12.529C12.6553 11.3317 12.7763 11.2813 12.8657 11.192C12.9551 11.1027 13.0053 10.9816 13.0055 10.8553C13.0051 10.7292 12.9547 10.6084 12.8653 10.5194C12.7759 10.4304 12.6551 10.3802 12.529 10.3803H3.5045ZM9.90386 7.28532C9.84148 7.28487 9.77959 7.29686 9.72185 7.32048C9.66411 7.34409 9.61175 7.37877 9.56757 7.42281C9.47891 7.51263 9.4293 7.63406 9.4293 7.76028C9.4293 7.88649 9.47891 8.00714 9.56757 8.09696L10.5214 9.04999C10.565 9.09461 10.6173 9.12984 10.6749 9.15389C10.7325 9.17794 10.7941 9.19016 10.8565 9.18982C10.9192 9.19036 10.9818 9.17794 11.0397 9.15389C11.0976 9.12983 11.1501 9.0948 11.194 9.04999L13.7347 6.50806C13.7793 6.46411 13.8147 6.41202 13.8386 6.35417C13.8625 6.29632 13.8747 6.23397 13.8742 6.17137C13.8746 6.10891 13.8625 6.04707 13.8386 5.98936C13.8147 5.93165 13.7792 5.87931 13.7347 5.83547C13.6906 5.79125 13.6382 5.75611 13.5804 5.73235C13.5227 5.7086 13.4609 5.69681 13.3984 5.6972C13.3358 5.69687 13.2736 5.7086 13.2156 5.73235C13.1577 5.7561 13.1053 5.79128 13.061 5.83547L10.8565 8.03994L10.2421 7.42281C10.1975 7.37868 10.1444 7.34409 10.0863 7.32048C10.0281 7.29686 9.96583 7.28479 9.90308 7.28532H9.90386ZM3.5045 5.29646C3.37809 5.29667 3.25713 5.34683 3.16782 5.43629C3.07851 5.52575 3.02838 5.64735 3.02838 5.77376C3.03004 5.89958 3.08079 6.0199 3.16977 6.10888C3.25875 6.19786 3.37868 6.24861 3.5045 6.25027H8.81061C8.93629 6.24851 9.05619 6.19708 9.14496 6.1081C9.23372 6.01911 9.28412 5.89944 9.28557 5.77376C9.28567 5.64752 9.23598 5.52652 9.14691 5.43707C9.05783 5.34762 8.93685 5.29688 8.81061 5.29646H3.5045Z" fill="#FFC107"/>
</svg>
