<svg width="544" height="578" viewBox="0 0 544 578" fill="none" xmlns="http://www.w3.org/2000/svg">
<g clip-path="url(#clip0_1318_82440)">
<path d="M30.5559 184.768C17.7029 148.585 23.4397 102.803 54.2367 79.8524C74.5892 64.694 101.368 62.1111 126.669 60.0753L362.699 41.0316C414.659 36.8398 473.713 35.0448 510.947 71.5235C549.999 109.83 547.186 172.631 538.799 226.643C534.004 257.539 523.363 294.051 493.266 302.522C470.275 309.001 444.766 295.518 422.334 303.617C403.361 310.479 392.774 330.573 386.424 349.705C380.074 368.836 375.53 389.631 362.064 404.57C337.978 431.341 295.817 429.262 260.422 422.509C219.246 414.65 177.666 402.808 144.088 377.734C109.382 351.795 99.945 321.402 89.2706 281.99C79.4064 245.533 43.6718 221.685 30.5559 184.768Z" fill="#969696" fill-opacity="0.6"/>
<path d="M207.16 558.595L533.271 365.969L344.646 248.806L0 438.587L207.16 558.595Z" fill="#F8F8F8"/>
<path d="M512.502 159.015L424.523 101.009L500.58 121.727C500.58 121.727 519.356 146.659 512.502 159.015Z" fill="#CACACA"/>
<path d="M514.945 158.961L512.613 159.114C512.613 159.114 513.904 110.629 480.108 127.133C456.525 138.636 446.804 174.557 438.56 194.673C412.208 259.05 361.737 403.41 339.501 461.023C338.859 462.694 338.239 464.288 337.64 465.806C337.637 465.846 337.637 465.886 337.64 465.926C332.626 477.725 325.203 488.363 316.664 495.378C313.916 497.283 311.189 499.089 308.781 500.599C304.632 503.237 301.588 504.977 301.588 504.977L207.237 558.551L0.0117188 438.587L2.694 436.967L97.0447 383.392C97.0447 383.392 100.866 381.203 105.803 378.008L107.774 376.727L111.649 374.122C111.967 373.881 112.274 373.641 112.58 373.378C120.32 367.019 127.152 357.694 132.079 347.209C132.079 347.209 132.144 347.275 132.188 347.308C132.779 345.874 133.403 344.364 134.027 342.788C134.137 342.514 134.257 342.251 134.356 341.989C157.084 285.492 211.649 134.696 234.148 73.0339C238.68 60.6117 244.154 42.1917 253.132 27.3617C259.011 17.3145 266.631 8.88705 274.962 4.09327C283.721 -0.985062 291.779 -1.1164 297.8 2.75802L305.748 6.89511L306.022 7.0374L311.124 9.68601C311.299 9.77357 311.485 9.86112 311.649 9.95963C358.212 34.1474 450.208 83.9348 490.027 113.004L492.676 114.919C501.084 121.234 506.755 126.455 508.573 130.056C515.426 143.682 514.945 158.961 514.945 158.961Z" fill="#757575"/>
<path d="M190.049 247.591L234.466 273.453L231.269 281.683L186.918 255.854L190.049 247.591Z" fill="#EDEDED"/>
<path d="M357.402 344.145L354.27 353.294L312.076 328.735L300.482 321.993L242.742 288.36L246.016 279.286L357.402 344.145Z" fill="#EDEDED"/>
<path d="M306.832 294.784L303.613 303.004L249.496 271.483L237.881 264.719L193.398 238.824L196.53 230.572L306.832 294.784Z" fill="#EDEDED"/>
<path d="M363.872 328.001L360.741 336.265L315.109 309.691L318.383 301.515L363.872 328.001Z" fill="#EDEDED"/>
<path d="M281.596 259.838L278.465 268.232L200.613 222.91L203.668 214.461L281.596 259.838Z" fill="#EDEDED"/>
<path d="M293.134 266.558L339.806 293.723L336.675 302.128L289.938 274.909L293.134 266.558Z" fill="#EDEDED"/>
<path d="M371.009 311.891L367.965 320.34L348.16 308.804L351.357 300.443L371.009 311.891Z" fill="#EDEDED"/>
<path d="M209.874 199.697L254.488 225.669L251.291 233.746L206.754 207.807L209.874 199.697Z" fill="#EDEDED"/>
<path d="M377.23 297.126L374.109 305.236L354.578 293.876L342.973 287.112L296.356 259.991L284.773 253.227L262.789 240.433L266.052 232.4L377.23 297.126Z" fill="#EDEDED"/>
<path d="M131.653 383.743L176.266 409.714L169.369 416.325L124.832 390.397L131.653 383.743Z" fill="#EDEDED"/>
<path d="M299.004 481.172L292.184 487.827L180.863 423.023L187.826 416.445L299.004 481.172Z" fill="#EDEDED"/>
<path d="M244.46 354.378L241.328 362.762L163.477 317.451L166.531 309.001L244.46 354.378Z" fill="#EDEDED"/>
<path d="M255.998 361.098L302.669 388.263L299.538 396.668L252.801 369.449L255.998 361.098Z" fill="#EDEDED"/>
<path d="M333.872 406.431L330.829 414.869L311.023 403.334L314.22 394.983L333.872 406.431Z" fill="#EDEDED"/>
<path d="M172.737 294.237L217.351 320.198L214.154 328.275L169.617 302.347L172.737 294.237Z" fill="#EDEDED"/>
<path d="M340.093 391.667L336.973 399.777L317.441 388.416L305.836 381.652L259.23 354.52L247.636 347.767L225.652 334.973L228.915 326.94L340.093 391.667Z" fill="#EDEDED"/>
<path d="M215.129 184.101L306.951 237.565L303.535 246.496L211.801 193.086L215.129 184.101Z" fill="#EDEDED"/>
<path d="M382.482 281.541L379.154 290.516L315.031 253.183L318.502 244.285L382.482 281.541Z" fill="#EDEDED"/>
<path d="M385.076 275.248L217.734 177.807L221.063 168.822L388.404 266.262L385.076 275.248Z" fill="#EDEDED"/>
<path d="M177.809 278.947L269.631 332.412L266.226 341.354L174.492 287.944L177.809 278.947Z" fill="#EDEDED"/>
<path d="M345.162 376.399L341.834 385.373L277.711 348.041L281.181 339.143L345.162 376.399Z" fill="#EDEDED"/>
<path d="M347.756 370.106L180.414 272.665L183.742 263.679L351.095 361.12L347.756 370.106Z" fill="#EDEDED"/>
<path d="M221.634 414.88L215.821 422.717L137.969 377.395L143.706 369.504L221.634 414.88Z" fill="#EDEDED"/>
<path d="M233.183 421.6L279.855 448.765L274.03 456.612L227.293 429.393L233.183 421.6Z" fill="#EDEDED"/>
<path d="M311.057 466.933L305.309 474.824L285.504 463.289L291.394 455.485L311.057 466.933Z" fill="#EDEDED"/>
<path d="M149.925 354.739L194.527 380.7L191.331 388.777L146.805 362.849L149.925 354.739Z" fill="#EDEDED"/>
<path d="M317.265 452.169L314.145 460.279L294.625 448.918L283.02 442.154L236.403 415.023L224.809 408.27L202.836 395.475L206.098 387.442L317.265 452.169Z" fill="#EDEDED"/>
<path d="M154.992 339.449L246.814 392.914L243.398 401.856L151.664 348.446L154.992 339.449Z" fill="#EDEDED"/>
<path d="M322.346 436.901L319.018 445.876L254.895 408.532L258.365 399.645L322.346 436.901Z" fill="#EDEDED"/>
<path d="M324.939 430.608L157.598 333.167L160.926 324.182L328.279 421.622L324.939 430.608Z" fill="#EDEDED"/>
<path d="M226.12 155.984L251.783 170.923L248.487 178.924L222.891 164.017L226.12 155.984Z" fill="#EDEDED"/>
<path d="M299.671 198.799L296.376 206.8L259.984 185.622L263.367 177.654L299.671 198.799Z" fill="#EDEDED"/>
<path d="M357.4 232.421L354.104 240.422L307.859 213.498L311.22 205.53L357.4 232.421Z" fill="#EDEDED"/>
<path d="M393.453 253.424L390.245 261.458L365.59 247.109L368.973 239.163L393.453 253.424Z" fill="#EDEDED"/>
<path d="M322.773 195.264L319.664 202.63L228.379 149.483L231.422 142.073L322.773 195.264Z" fill="#EDEDED"/>
<path d="M398.752 239.503L395.73 246.923L331.137 209.317L334.312 201.984L398.752 239.503Z" fill="#EDEDED"/>
<path d="M274.775 114.81L390.2 181.616L385.066 195.33L269.574 128.48L274.775 114.81Z" fill="#EDEDED"/>
<path opacity="0.5" d="M257.147 72.5961L293.747 93.9163L291.699 99.3668L255.133 78.0794L257.147 72.5961Z" fill="#98A1AA"/>
<path opacity="0.5" d="M323.867 111.45L321.853 116.922L296.289 102.037L298.358 96.5868L323.867 111.45Z" fill="#98A1AA"/>
<path opacity="0.5" d="M325.486 107.028L258.758 68.1854L260.783 62.7021L327.501 101.556L325.486 107.028Z" fill="#98A1AA"/>
<path opacity="0.5" d="M264.42 53.1036L274.645 59.0575L272.598 64.5189L262.395 58.576L264.42 53.1036Z" fill="#98A1AA"/>
<path opacity="0.5" d="M293.737 70.1774L291.69 75.6388L277.184 67.1895L279.264 61.739L293.737 70.1774Z" fill="#98A1AA"/>
<path opacity="0.5" d="M305.418 76.974L316.75 83.5736L314.702 89.046L296.266 78.3092L298.346 72.8588L300.864 74.3254L305.418 76.974Z" fill="#98A1AA"/>
<path opacity="0.5" d="M331.124 91.9463L329.109 97.4296L319.289 91.7055L321.369 86.266L331.124 91.9463Z" fill="#98A1AA"/>
<path opacity="0.5" d="M287.803 55.008L304.466 64.705L302.419 70.1664L266.027 48.9775L268.042 43.5051L283.249 52.3594L287.803 55.008Z" fill="#98A1AA"/>
<path opacity="0.5" d="M334.76 82.3479L332.746 87.8312L306.996 72.8369L309.065 67.3865L334.76 82.3479Z" fill="#98A1AA"/>
<path opacity="0.5" d="M271.678 33.8956L286.852 42.7389L284.805 48.2003L269.652 39.3789L271.678 33.8956Z" fill="#98A1AA"/>
<path opacity="0.5" d="M291.46 45.4204L322.629 63.5667L320.582 69.0281L310.652 63.2384L306.021 60.546L289.391 50.8709L291.46 45.4204Z" fill="#98A1AA"/>
<path opacity="0.5" d="M338.395 72.7383L336.38 78.2216L325.137 71.6876L327.217 66.2372L338.395 72.7383Z" fill="#98A1AA"/>
<path d="M188.812 493.31C187.148 496.539 183.633 502.066 185.932 505.798C187.706 508.643 191.406 509.442 194.516 508.961C198.183 508.392 202.289 505.524 203.427 501.858C204.774 497.48 201.906 494.393 198.347 492.336C198.008 492.15 196.88 492.161 197.603 492.588C200.241 494.109 203.077 496.659 202.53 500.052C201.763 504.933 195.534 509.902 190.487 508.337C183.568 506.214 187.564 498.487 189.742 494.317C191.538 490.826 193.957 487.159 195.578 483.372C195.895 483.394 196.213 483.394 196.53 483.372C196.842 484.312 197.457 485.121 198.28 485.672C199.103 486.223 200.086 486.484 201.074 486.415C201.571 487.208 202.246 487.874 203.044 488.363C203.069 489.15 203.271 489.921 203.636 490.618C204 491.316 204.517 491.923 205.148 492.393C205.78 492.863 206.509 493.185 207.282 493.334C208.055 493.484 208.852 493.457 209.613 493.255C209.723 493.255 209.865 493.255 209.832 493.069C209.73 492.534 209.661 491.993 209.624 491.449C210.029 492.391 210.27 493.266 210.018 493.638C209.623 494.153 209.439 494.799 209.504 495.444C209.59 496.007 209.81 496.542 210.145 497.003C210.48 497.463 210.921 497.837 211.43 498.093C211.724 498.318 212.064 498.474 212.426 498.55C212.788 498.626 213.162 498.619 213.522 498.531C213.637 499.086 213.87 499.611 214.204 500.069C214.538 500.528 214.966 500.91 215.459 501.19C216.861 501.934 218.207 501.19 219.116 500.096C219.156 500.051 219.193 500.003 219.225 499.953C219.558 500.64 220.014 501.26 220.572 501.781C221.354 502.468 222.321 502.91 223.353 503.051C223.921 505.123 224.654 507.147 225.543 509.103C226.495 511.15 228.181 514.959 231.017 514.937C234.706 514.937 235.757 508.753 236.381 506.126C237.18 502.733 237.859 497.677 233.589 496.385C230.382 495.411 228.75 497.392 226.889 499.767C226.191 500.704 225.303 501.484 224.284 502.055C223.276 498.279 222.608 494.393 221.952 490.53C220.622 483.577 219.991 476.508 220.068 469.429C220.068 469.024 218.831 468.805 218.82 469.089C218.705 473.647 218.946 478.207 219.543 482.726C219.302 482.372 219.027 482.043 218.722 481.741C218.58 481.599 217.627 481.172 217.529 481.555C216.994 484.895 216.957 488.296 217.419 491.646C217.552 493.962 217.941 496.257 218.58 498.487C218.255 499.218 217.741 499.849 217.091 500.315C215.295 501.518 214.693 499.22 214.518 497.031C214.741 496.122 214.741 495.172 214.518 494.262C214.441 493.978 213.303 493.671 213.281 493.999C213.187 495.055 213.187 496.118 213.281 497.173C213.062 498.082 212.547 498.52 211.463 497.173C211.002 496.674 210.747 496.02 210.747 495.34C210.747 494.661 211.002 494.006 211.463 493.507C211.479 493.491 211.487 493.469 211.487 493.447C211.487 493.424 211.479 493.403 211.463 493.387C210.609 491.865 210.171 490.18 209.274 488.658C209.131 488.407 207.96 488.035 208.037 488.461C208.234 489.556 208.037 490.869 208.299 491.986C208.759 494.098 204.883 491.482 204.511 490.289C204.377 489.872 204.282 489.443 204.227 489.009L204.413 489.107C204.522 489.173 205.398 489.457 205.409 489.107C205.647 487.783 205.495 486.418 204.971 485.178C204.829 484.904 203.876 484.554 203.734 484.915C203.317 485.681 203.056 486.522 202.968 487.389C202.574 486.985 202.239 486.528 201.971 486.032C201.85 485.885 201.692 485.772 201.513 485.705C201.335 485.638 201.141 485.618 200.953 485.649C200.131 485.772 199.293 485.569 198.62 485.082C197.947 484.595 197.491 483.863 197.351 483.044C198.031 482.854 198.661 482.519 199.198 482.062C199.735 481.605 200.165 481.036 200.46 480.395C202.081 477.112 200.033 475.415 197.176 475.634C197.012 472.646 195.589 469.691 192.556 468.717C189.896 467.864 186.348 468.444 184.783 471.016C182.33 475.054 186.491 479.29 189.742 481.304C191.058 482.124 192.501 482.72 194.012 483.066C192.567 486.645 190.509 489.961 188.812 493.31ZM218.623 482.989C220.517 486.108 220.463 491.012 219.828 494.229C219.707 494.864 219.565 495.619 219.357 496.418C219.236 495.86 219.138 495.324 219.05 494.755C218.33 490.875 218.186 486.911 218.623 482.989ZM224.448 502.876C224.814 502.803 225.166 502.67 225.488 502.482C227.48 501.278 231.498 493.518 234.542 497.546C237.213 501.081 234.837 508.83 232.768 512.222C232.243 513.098 231.071 514.98 229.779 513.853C229.042 513.188 228.417 512.408 227.929 511.544C227.008 509.917 226.228 508.214 225.597 506.455C225.203 505.258 224.82 504.065 224.448 502.876ZM219.926 498.585C220.627 497.182 221.093 495.674 221.306 494.12C221.809 496.845 222.335 499.592 223.068 502.241C222.587 502.224 222.121 502.065 221.731 501.782C221.341 501.499 221.044 501.106 220.879 500.654C220.517 499.991 220.214 499.299 219.97 498.585H219.926ZM204.216 488.352C204.199 488.148 204.199 487.943 204.216 487.739C204.216 487.936 204.216 488.144 204.216 488.352ZM195.983 476.379C195.983 476.729 195.917 477.079 195.895 477.473C195.863 477.701 195.819 477.928 195.764 478.152C195.393 479.69 194.895 481.194 194.275 482.65C189.042 481.741 181.674 474.398 187.115 470.326C192.129 466.583 196.114 471.497 195.983 476.379ZM197.165 482.245C196.977 480.863 196.951 479.463 197.088 478.075V477.889C197.088 477.55 197.165 477.199 197.187 476.794C197.34 476.05 200.055 476.586 199.825 478.152C199.781 478.655 199.651 479.147 199.442 479.607C198.969 480.684 198.193 481.6 197.209 482.245H197.165ZM195.775 482.683C195.884 482.42 195.983 482.157 196.07 481.895L196.234 482.606C196.097 482.634 195.958 482.653 195.818 482.661L195.775 482.683Z" fill="#4570B3"/>
<path d="M201.213 472.953C201.334 472.362 202.571 472.69 202.461 473.292C201.64 477.768 209.173 482.672 211.537 477.67C211.8 477.123 213.026 477.473 212.774 478.009C209.906 484.094 200.151 478.732 201.213 472.953Z" fill="#4570B3"/>
<path d="M70.2109 436.693L78.0279 432.786L71.9079 427.97L81.8926 426.405L80.0095 420.539L90.1803 421.622L92.8954 415.854L101.238 419.39L108.015 414.869L112.887 420.145L122.39 417.77L122.806 423.746L133.152 423.986L129.035 429.47L138.166 432.282L130.349 436.19L136.469 441.005L126.484 442.57L128.367 448.448L118.196 447.364L115.481 453.121L107.139 449.586L100.362 454.106L95.4901 448.831L85.9872 451.206L85.5821 445.23L75.2252 444.989L79.3417 439.506L70.2109 436.693Z" fill="#EDBB42"/>
<path d="M88.0549 425.179C96.9667 420.035 111.418 420.035 120.33 425.179C129.242 430.323 129.242 438.663 120.33 443.785C111.418 448.907 96.9667 448.929 88.0549 443.785C79.1432 438.641 79.1432 430.323 88.0549 425.179Z" fill="#F3D587"/>
<path d="M490.047 112.96C485.777 111.986 479.777 113.912 476.263 115.302C474.511 115.992 473.384 116.539 473.384 116.539C449.977 128.786 439.028 158.03 430.971 179.57C429.558 183.335 428.234 186.881 426.986 189.934C411.045 228.875 386.324 296.951 364.483 357.049C350.185 396.45 336.664 433.661 327.84 456.525L326.197 460.75L325.956 461.253L325.825 461.647C321.599 471.355 315.479 480.023 309.096 485.375C307.345 486.579 305.44 487.849 303.458 489.14L300.436 491.044C297.437 492.927 295.335 494.153 295.269 494.207L207.235 544.181L25.0481 438.652C38.131 431.21 107.892 391.513 112.534 388.515L114.571 387.19C115.921 386.3 117.286 385.381 118.665 384.432L119.256 384.005C119.683 383.688 120.099 383.349 120.505 383.02C126.303 378.166 131.38 372.509 135.58 366.22L146.714 342.875C147.327 341.234 209.436 177.446 235.109 106.941L236.281 103.657L245.893 77.2805C246.78 74.8289 247.71 72.1583 248.696 69.3237C252.517 58.379 257.279 44.6434 263.87 33.7425L263.968 33.6002C268.983 25.0415 275.124 18.3652 281.255 14.8301C282.047 14.3681 282.866 13.955 283.708 13.5933C286.041 12.2841 288.476 11.1641 290.988 10.2442C293.012 9.47397 295.129 8.9735 297.283 8.75576C302.101 8.5787 306.923 8.9755 311.647 9.93779C311.483 9.83929 311.297 9.75173 311.122 9.66417L306.02 7.01556L305.746 6.87327C302.807 6.30756 299.815 6.06534 296.824 6.15092C290.572 6.76383 282.394 11.2949 281.901 11.5685C281.255 11.8641 280.599 12.2143 279.931 12.5973C273.362 16.3623 266.924 23.356 261.691 32.2978L261.615 32.451C254.87 43.5818 250.053 57.4049 246.2 68.5685C245.214 71.3813 244.295 74.0408 243.408 76.4596L233.795 102.847L232.624 106.131C206.962 176.614 144.864 340.347 144.284 341.923L133.39 364.907C129.343 370.953 124.455 376.393 118.873 381.061C118.479 381.39 118.085 381.707 117.691 382.013L117.209 382.353L113.169 385.078L111.144 386.391C106.184 389.587 22.6395 437.109 21.7965 437.58L19.793 438.674L206.589 546.895L207.246 547.278L296.616 496.539C296.714 496.484 298.805 495.236 301.893 493.31L304.892 491.417C306.929 490.103 308.856 488.812 310.728 487.52C317.526 481.829 323.92 472.778 328.31 462.676L328.639 461.855C329.099 460.706 330.314 457.532 330.314 457.532C339.16 434.614 352.692 397.402 367.012 357.935C388.81 297.904 413.541 229.882 429.416 190.963C430.686 187.877 432.011 184.309 433.456 180.423C441.47 159.015 452.451 129.673 475.77 118.29L478.584 116.955C483.079 115.27 487.885 114.575 492.674 114.919L490.047 112.96Z" fill="#EDEDED"/>
<g style="mix-blend-mode:multiply">
<path d="M462.744 451.26C462.744 451.074 462.744 450.888 462.668 450.691C463.856 450.306 464.939 449.653 465.835 448.783C466.731 447.914 467.416 446.85 467.836 445.674C468.257 444.499 468.402 443.242 468.261 442.002C468.12 440.761 467.696 439.57 467.021 438.519C466.347 437.468 465.441 436.585 464.372 435.939C463.304 435.293 462.101 434.9 460.857 434.792C459.613 434.683 458.36 434.861 457.195 435.312C456.031 435.763 454.985 436.475 454.139 437.394L453.778 437.153C451.074 435.599 448.687 435.599 447.023 436.693L353.636 490.519C352.548 491.16 351.743 492.188 351.38 493.397L270.288 540.098C268.799 540.919 267.868 542.736 267.868 545.341C267.898 546.963 268.197 548.568 268.755 550.091L267.781 551.711L252.136 559.142L233.754 578L239.48 577.256L252.136 575.614L267.671 565.162L269.029 565.862L278.597 560.39C279.587 560.591 280.616 560.456 281.52 560.007L362.536 513.24C362.863 513.326 363.196 513.381 363.533 513.404H363.763C363.967 513.421 364.172 513.421 364.376 513.404L364.803 513.35C364.928 513.339 365.053 513.317 365.175 513.284C365.327 513.25 365.477 513.206 365.624 513.153L365.908 513.043C366.018 512.988 366.138 512.956 366.237 512.901L459.449 459.097C461.496 458.364 462.81 456.186 462.81 452.902C462.81 452.53 462.81 452.158 462.755 451.808C462.777 451.556 462.755 451.403 462.744 451.26ZM260.905 559.897C262.066 559.23 263.007 559.777 263.007 561.112C262.967 561.84 262.756 562.549 262.391 563.18C262.025 563.812 261.517 564.348 260.905 564.746C259.756 565.414 258.814 564.866 258.814 563.531C258.854 562.804 259.064 562.097 259.427 561.465C259.79 560.834 260.296 560.297 260.905 559.897Z" fill="#CACACA"/>
</g>
<path d="M448.413 434.767C450.031 434.765 451.614 435.242 452.96 436.139C454.306 437.036 455.356 438.313 455.977 439.806C456.598 441.3 456.761 442.944 456.447 444.531C456.132 446.117 455.354 447.575 454.211 448.72C453.068 449.864 451.611 450.644 450.024 450.96C448.437 451.277 446.792 451.115 445.297 450.497C443.802 449.878 442.524 448.831 441.625 447.486C440.726 446.141 440.246 444.56 440.246 442.943C440.245 441.869 440.455 440.807 440.865 439.815C441.274 438.823 441.876 437.921 442.634 437.162C443.393 436.403 444.294 435.8 445.285 435.389C446.277 434.978 447.34 434.767 448.413 434.767Z" fill="#585857"/>
<path d="M341.922 490.519L435.309 436.693C436.973 435.522 439.382 435.599 442.053 437.109C447.067 440.009 451.129 447.047 451.129 452.826C451.129 456.109 449.826 458.298 447.779 459.02L354.567 512.868L341.922 490.519Z" fill="#585857"/>
<path d="M348.271 491.187C353.286 494.087 357.347 501.124 357.347 506.903C357.347 512.682 353.286 515.035 348.271 512.146C343.257 509.256 339.195 502.219 339.195 496.429C339.195 490.639 343.257 488.297 348.271 491.187Z" fill="#F0C657"/>
<path d="M258.562 540.109L341.593 492.314C343.071 491.274 345.206 491.318 347.592 492.686C349.941 494.216 351.896 496.277 353.298 498.704C354.7 501.13 355.509 503.853 355.661 506.652C355.661 509.574 354.49 511.5 352.672 512.124L269.839 559.93L258.562 540.109Z" fill="#585857"/>
<g style="mix-blend-mode:multiply">
<path d="M355.025 502.777L450.273 447.824C450.837 449.447 451.136 451.151 451.16 452.869C451.16 456.153 449.857 458.342 447.81 459.064L354.598 512.857C353.44 513.432 352.108 513.553 350.865 513.196L269.849 559.963L265.59 552.433L354.204 500.479C354.527 501.226 354.801 501.994 355.025 502.777Z" fill="#585857"/>
</g>
<path d="M264.209 540.668C266.558 542.197 268.513 544.259 269.915 546.686C271.317 549.112 272.126 551.835 272.278 554.633C272.278 559.777 268.665 561.857 264.209 559.285C261.876 557.754 259.935 555.697 258.543 553.278C257.151 550.86 256.347 548.149 256.195 545.363C256.195 540.219 259.753 538.14 264.209 540.668Z" fill="#3E3E3D"/>
<path d="M222.027 578L240.409 575.603L255.945 565.162L257.291 565.84L267.243 560.105C271.622 557.774 271.699 549.631 266.148 544.29L257.521 549.27L256.043 551.722L240.387 559.153L222.027 578ZM247.088 563.531C247.128 562.803 247.339 562.094 247.704 561.463C248.069 560.832 248.578 560.295 249.19 559.897C250.35 559.23 251.292 559.777 251.292 561.112C251.251 561.84 251.04 562.549 250.675 563.18C250.31 563.812 249.801 564.348 249.19 564.746C248.029 565.414 247.088 564.866 247.088 563.531Z" fill="#F0C657"/>
<path d="M270.428 552.707C270.778 555.99 269.673 558.923 267.297 560.171L257.29 565.84L255.933 565.14L240.397 575.592L227.73 577.256L270.428 552.707Z" fill="#D9AC45"/>
<path d="M364.584 492.511C365.034 492.511 365.475 492.394 365.865 492.172L452.301 442.559C452.607 442.397 452.878 442.175 453.097 441.906C453.316 441.637 453.479 441.327 453.575 440.994C453.672 440.66 453.7 440.311 453.658 439.967C453.617 439.622 453.506 439.29 453.334 438.989C453.161 438.688 452.929 438.425 452.652 438.216C452.376 438.007 452.06 437.855 451.723 437.771C451.386 437.686 451.036 437.67 450.694 437.724C450.351 437.778 450.022 437.9 449.728 438.083L363.293 487.695C362.802 487.981 362.419 488.419 362.203 488.944C361.987 489.468 361.949 490.049 362.096 490.597C362.243 491.145 362.566 491.629 363.016 491.975C363.466 492.321 364.017 492.509 364.584 492.511Z" fill="#F0C657"/>
<path style="mix-blend-mode:multiply" d="M158.046 489.687L75.5521 532.744L56.4258 496.965L129.373 471.497L139.642 475.196L75.8915 508.873L151.149 483.044L158.046 489.687Z" fill="url(#paint0_linear_1318_82440)"/>
<path d="M129.866 253.577C129.866 253.577 137.081 257.058 138.854 272.599C140.628 288.141 137.825 294.926 139.5 302.555C141.175 310.183 132.132 315.568 128.552 314.725C124.972 313.883 123.385 315.667 120.472 298.527C117.56 281.388 116.06 249.944 129.866 253.577Z" fill="url(#paint1_linear_1318_82440)"/>
<path d="M121.82 465.685V476.094C122.271 476.978 122.915 477.748 123.706 478.347C124.497 478.946 125.413 479.358 126.386 479.552C129.845 480.362 136.841 477.199 140.377 475.579C143.914 473.96 152.234 469.461 153.931 468.29C155.628 467.119 160.27 459.447 155.551 458.571C150.833 457.696 137.728 460.76 137.728 460.76L121.82 465.685Z" fill="#222221"/>
<path d="M142.512 480.702V491.088C142.962 491.972 143.607 492.742 144.397 493.341C145.188 493.94 146.104 494.352 147.077 494.547C150.537 495.357 157.533 492.194 161.069 490.574C164.605 488.954 172.86 484.357 174.622 483.285C177.349 481.61 180.961 473.27 176.243 472.34C171.524 471.41 158.419 475.733 158.419 475.733L142.512 480.702Z" fill="#222221"/>
<path d="M121.82 464.503V474.89C122.271 475.774 122.915 476.544 123.706 477.143C124.497 477.742 125.413 478.154 126.386 478.348C129.845 479.158 136.841 475.995 140.377 474.376C143.914 472.756 152.234 468.268 153.931 467.086C155.628 465.904 160.27 458.254 155.551 457.368C150.833 456.481 137.728 459.556 137.728 459.556L121.82 464.503Z" fill="url(#paint2_linear_1318_82440)"/>
<path d="M142.512 479.531V489.906C142.962 490.79 143.607 491.56 144.397 492.159C145.188 492.758 146.104 493.17 147.077 493.365C150.537 494.175 157.533 491.011 161.069 489.392C164.605 487.772 172.926 483.285 174.622 482.103C176.319 480.92 180.961 473.27 176.243 472.384C171.524 471.497 158.419 474.573 158.419 474.573L142.512 479.531Z" fill="url(#paint3_linear_1318_82440)"/>
<path d="M149.429 319.902C149.429 319.902 150.907 352.89 150.174 360.255C149.44 367.621 142.806 400.16 142.51 406.486C142.214 412.812 139.86 461.559 139.86 461.559C139.86 461.559 140.156 467.842 134.266 469.363C119.453 473.194 120.855 467.743 120.855 467.743L122.771 410.316C122.771 410.316 119.344 368.836 118.928 353.262C118.391 329.698 140.145 276.758 149.429 319.902Z" fill="url(#paint4_linear_1318_82440)"/>
<path d="M136.031 363.714L136.382 369.044L139.666 420.626L141.582 481.742C141.582 481.742 142.469 488.954 154.993 483.361C156.565 482.717 157.923 481.643 158.912 480.263C159.902 478.883 160.482 477.252 160.588 475.558C160.588 475.558 162.942 426.81 163.237 420.484C163.489 415.088 168.328 390.715 170.211 379.037C170.288 378.566 170.364 378.117 170.43 377.69C170.649 376.257 170.813 375.086 170.901 374.243C170.901 373.925 170.956 373.564 170.978 373.148C171.514 364.097 170.156 333.901 170.156 333.901C169.571 330.801 168.611 327.784 167.299 324.915C167.157 324.62 167.014 324.357 166.872 324.094C156.088 304.919 136.031 363.714 136.031 363.714Z" fill="url(#paint5_linear_1318_82440)"/>
<path d="M118.93 353.251C118.93 353.251 123.944 359.883 128.06 363.265C130.712 365.361 133.491 367.291 136.381 369.044C141.45 372.185 147.647 375.403 152.529 376.322C152.869 376.388 153.186 376.443 153.493 376.475C154.026 376.552 154.564 376.592 155.102 376.596C160.572 376.406 165.963 375.238 171.021 373.148L171.59 372.918L170.944 331.099L171.393 321.675L171.459 320.461L172.411 300.465C172.411 300.465 173.594 293.898 172.411 279.265C171.229 264.632 155.912 255.854 146.606 250.699C137.301 245.544 124.842 250.699 121.743 257.321C118.645 263.942 122.356 289.607 122.356 295.933C122.356 302.26 118.93 353.251 118.93 353.251Z" fill="url(#paint6_linear_1318_82440)"/>
<path d="M174.26 372.82L170.801 367.993L174.26 368.529V372.82Z" fill="#EBEAC5"/>
<path d="M180.807 371.452L177.566 369.383L179.526 368.749L180.807 371.452Z" fill="#E4E2B0"/>
<g style="mix-blend-mode:multiply">
<path d="M148.028 339.209L166.914 324.094L171.457 320.46L171.392 321.675L170.943 331.099L171.589 372.918L171.019 373.148C171.019 373.564 171.019 373.925 170.943 374.243C170.855 375.085 170.691 376.256 170.472 377.69C170.406 378.117 170.33 378.566 170.253 379.036L159.48 387.716C158.989 387.976 158.448 388.128 157.893 388.162C157.339 388.196 156.783 388.11 156.264 387.911C155.746 387.712 155.275 387.404 154.886 387.008C154.496 386.611 154.196 386.136 154.006 385.614L152.517 376.322L147.043 341.814C146.966 341.331 147.016 340.837 147.189 340.38C147.362 339.923 147.651 339.519 148.028 339.209Z" fill="#AFAFAF"/>
</g>
<g style="mix-blend-mode:multiply">
<path d="M164.944 271.242C164.944 271.242 172.158 274.723 173.932 290.264C175.706 305.805 172.903 312.602 174.589 320.231C176.275 327.859 167.221 333.244 163.641 332.39C160.061 331.536 158.473 333.331 155.561 316.203C152.649 299.075 151.094 267.619 164.944 271.242Z" fill="#C4C4C4"/>
</g>
<path d="M189.063 308.706L196.563 351.937C196.646 352.424 196.598 352.925 196.423 353.387C196.247 353.848 195.952 354.255 195.567 354.564L160.784 382.594C160.407 382.899 159.955 383.1 159.475 383.176C158.995 383.252 158.503 383.2 158.05 383.026C157.596 382.852 157.196 382.561 156.89 382.184C156.584 381.806 156.383 381.355 156.307 380.875L149.311 337.096C149.235 336.612 149.288 336.116 149.465 335.659C149.642 335.202 149.936 334.799 150.318 334.492L184.597 307.042C184.972 306.743 185.418 306.547 185.892 306.471C186.366 306.395 186.851 306.444 187.301 306.611C187.75 306.779 188.149 307.06 188.458 307.427C188.767 307.794 188.975 308.234 189.063 308.706Z" fill="#AFAFAF"/>
<path d="M150.307 337.447L157.303 381.225C157.361 381.62 157.506 381.996 157.727 382.328C157.949 382.659 158.242 382.937 158.584 383.141C159.069 383.448 159.639 383.595 160.212 383.561C160.786 383.528 161.334 383.316 161.781 382.955L178.63 369.372L189.239 360.825L196.563 354.925C196.945 354.613 197.238 354.206 197.413 353.745C197.587 353.284 197.638 352.785 197.559 352.299L190.06 309.067C189.961 308.502 189.688 307.981 189.281 307.577C188.873 307.173 188.349 306.906 187.783 306.812C187.398 306.742 187.003 306.757 186.625 306.855C186.247 306.953 185.894 307.133 185.593 307.382L166.445 322.704L160.303 327.618L151.304 334.908C150.93 335.207 150.641 335.599 150.466 336.044C150.292 336.49 150.237 336.973 150.307 337.447Z" fill="#F5F5F5"/>
<g style="mix-blend-mode:multiply">
<path d="M160.38 326.414L159.285 327.29L160.303 327.651L171.251 350.635L173.255 353.054C175.269 355.473 175.039 356.775 175.357 361.383C175.674 365.99 175.707 365.553 177.284 366.964C177.673 367.241 178.039 367.548 178.379 367.884C178.689 368.205 178.944 368.575 179.134 368.978L189.261 360.814C189.163 360.496 189.053 360.179 188.955 359.883C188.689 359.166 188.462 358.436 188.276 357.694C188.122 356.523 182.659 352.704 180.612 350.985L180.503 350.876C179.408 349.53 177.492 341.409 175.839 333.736C175.62 332.587 175.488 331.854 175.488 331.854H175.434C174.032 325.2 172.926 319.377 172.926 319.377L166.423 322.66L162.438 324.674L161.048 325.375L160.38 326.414Z" fill="#AFAFAF"/>
</g>
<path d="M172.082 349.508L160.422 325.057L161.9 324.335L173.768 318.337C173.768 318.337 174.862 324.16 176.275 330.814H176.34C176.34 330.814 176.461 331.536 176.68 332.686C178.333 340.347 180.282 348.49 181.344 349.825L181.453 349.935C183.468 351.653 188.931 355.483 189.117 356.655C189.303 357.826 192.018 363.593 190.212 365.213C189.314 366.034 187.858 367.698 186.281 369.131C184.705 370.565 183.128 371.703 181.76 371.682C178.979 371.682 180.347 367.84 178.103 365.826C176.527 364.414 176.494 364.852 176.176 360.244C175.859 355.637 176.089 354.345 174.085 351.926L172.082 349.508Z" fill="url(#paint7_linear_1318_82440)"/>
<path d="M165.766 266.919C165.766 266.919 172.981 270.399 174.755 285.941C176.528 301.482 173.725 308.279 175.411 315.907C177.097 323.536 168.043 328.921 164.463 328.078C160.883 327.235 159.296 329.008 156.384 311.88C153.471 294.751 151.939 263.296 165.766 266.919Z" fill="url(#paint8_linear_1318_82440)"/>
<path d="M136.172 253.162C137.168 255.059 138.668 256.644 140.506 257.745C142.345 258.846 144.451 259.418 146.594 259.4C149.692 259.411 152.671 258.209 154.893 256.051C154.838 255.92 154.806 255.777 154.751 255.635C154.094 253.567 155.791 243.705 155.791 243.705C153.262 241.105 150.34 238.918 147.131 237.226C143.847 235.705 140.562 235.606 139.018 239.918C138.862 240.363 138.73 240.816 138.624 241.276C137.343 246.978 135.57 247.831 136.172 253.162Z" fill="url(#paint9_linear_1318_82440)"/>
<path d="M159.459 218.576C160.563 220.157 161.389 221.915 161.9 223.775C162.305 226.052 161.166 227.825 161.166 228.317C161.166 228.81 162.71 233.538 162.798 235.158C162.885 236.777 160.816 250.042 159.404 250.611C154.061 252.8 152.463 250.524 151.488 249.309C150.514 248.094 145.795 243.618 144.58 243.837C143.365 244.056 133.632 246.846 132.701 245.872C131.771 244.898 124.567 236.766 125.782 227.573C126.997 218.379 133.03 213.837 139.205 211.802C145.379 209.766 156.853 209.963 159.459 218.576Z" fill="url(#paint10_linear_1318_82440)"/>
<path d="M155.791 237.5C155.791 237.5 153.601 231.163 155.057 225.165C156.272 220.163 160.137 220.656 160.674 219.343C165.053 208.639 157.159 207.161 154.411 206.483C151.346 205.716 146.967 207.708 144.219 209.23C141.471 210.751 140.529 210.751 137.507 211.484C120.812 215.512 125.935 233.264 126.384 235.125C128.026 241.91 133.369 248.652 133.369 248.652C134.902 249.897 136.803 250.601 138.777 250.655C147.788 251.203 147.711 237.325 149.879 236.022C152.046 234.72 152.999 237.27 153.229 238.791C153.459 240.313 155.791 237.5 155.791 237.5Z" fill="#3F2D1F"/>
</g>
<defs>
<linearGradient id="paint0_linear_1318_82440" x1="150.098" y1="477.429" x2="81.6682" y2="507.904" gradientUnits="userSpaceOnUse">
<stop stop-color="#9B9B9A"/>
<stop offset="0.39" stop-color="#C4C4C4"/>
<stop offset="0.79" stop-color="#E8E8E7"/>
<stop offset="1" stop-color="#F5F5F5"/>
</linearGradient>
<linearGradient id="paint1_linear_1318_82440" x1="139.708" y1="284.047" x2="118.513" y2="284.047" gradientUnits="userSpaceOnUse">
<stop stop-color="#F5F5F5"/>
<stop offset="0.07" stop-color="#EDE7D7"/>
<stop offset="0.16" stop-color="#E5D8BA"/>
<stop offset="0.26" stop-color="#DFCCA1"/>
<stop offset="0.37" stop-color="#DAC38E"/>
<stop offset="0.5" stop-color="#D7BD81"/>
<stop offset="0.67" stop-color="#D5B979"/>
<stop offset="1" stop-color="#D4B877"/>
</linearGradient>
<linearGradient id="paint2_linear_1318_82440" x1="156.416" y1="458.254" x2="121.364" y2="473.771" gradientUnits="userSpaceOnUse">
<stop stop-color="#6F6F6F"/>
<stop offset="1" stop-color="#3E3E3D"/>
</linearGradient>
<linearGradient id="paint3_linear_1318_82440" x1="177.042" y1="472.69" x2="143.358" y2="488.404" gradientUnits="userSpaceOnUse">
<stop stop-color="#6F6F6F"/>
<stop offset="1" stop-color="#3E3E3D"/>
</linearGradient>
<linearGradient id="paint4_linear_1318_82440" x1="147.513" y1="387.114" x2="119.815" y2="387.114" gradientUnits="userSpaceOnUse">
<stop stop-color="#68A6DD"/>
<stop offset="1" stop-color="#4570B3"/>
</linearGradient>
<linearGradient id="paint5_linear_1318_82440" x1="166.478" y1="402.863" x2="136.524" y2="402.863" gradientUnits="userSpaceOnUse">
<stop stop-color="#82BCE8"/>
<stop offset="0.12" stop-color="#74AADB"/>
<stop offset="0.32" stop-color="#5F91CA"/>
<stop offset="0.53" stop-color="#517EBD"/>
<stop offset="0.75" stop-color="#4874B5"/>
<stop offset="1" stop-color="#4570B3"/>
</linearGradient>
<linearGradient id="paint6_linear_1318_82440" x1="178.367" y1="275.029" x2="144.036" y2="318.238" gradientUnits="userSpaceOnUse">
<stop stop-color="#F5F5F5"/>
<stop offset="0.05" stop-color="#F4EFE3"/>
<stop offset="0.14" stop-color="#F1E4C6"/>
<stop offset="0.24" stop-color="#EFDBAD"/>
<stop offset="0.36" stop-color="#EED49A"/>
<stop offset="0.49" stop-color="#EDD08D"/>
<stop offset="0.66" stop-color="#ECCD85"/>
<stop offset="1" stop-color="#ECCC83"/>
</linearGradient>
<linearGradient id="paint7_linear_1318_82440" x1="179.167" y1="344.806" x2="163.853" y2="350.323" gradientUnits="userSpaceOnUse">
<stop stop-color="#E4E2B0"/>
<stop offset="0.34" stop-color="#EBEABF"/>
<stop offset="1" stop-color="#FFFFE5"/>
</linearGradient>
<linearGradient id="paint8_linear_1318_82440" x1="175.619" y1="297.4" x2="154.413" y2="297.4" gradientUnits="userSpaceOnUse">
<stop stop-color="#F5F5F5"/>
<stop offset="0.05" stop-color="#F4EFE3"/>
<stop offset="0.14" stop-color="#F1E4C6"/>
<stop offset="0.24" stop-color="#EFDBAD"/>
<stop offset="0.36" stop-color="#EED49A"/>
<stop offset="0.49" stop-color="#EDD08D"/>
<stop offset="0.66" stop-color="#ECCD85"/>
<stop offset="1" stop-color="#ECCC83"/>
</linearGradient>
<linearGradient id="paint9_linear_1318_82440" x1="155.791" y1="247.832" x2="136.051" y2="247.832" gradientUnits="userSpaceOnUse">
<stop stop-color="#FFFFE5"/>
<stop offset="0.19" stop-color="#E8E8C3"/>
<stop offset="0.4" stop-color="#D4D4A6"/>
<stop offset="0.61" stop-color="#C6C691"/>
<stop offset="0.81" stop-color="#BDBD84"/>
<stop offset="1" stop-color="#BABA80"/>
</linearGradient>
<linearGradient id="paint10_linear_1318_82440" x1="162.798" y1="231.108" x2="125.651" y2="231.108" gradientUnits="userSpaceOnUse">
<stop stop-color="#FFFFE5"/>
<stop offset="0.03" stop-color="#F5F5D6"/>
<stop offset="0.1" stop-color="#E3E3BB"/>
<stop offset="0.18" stop-color="#D4D4A5"/>
<stop offset="0.27" stop-color="#C8C894"/>
<stop offset="0.39" stop-color="#C0C089"/>
<stop offset="0.55" stop-color="#BBBB82"/>
<stop offset="1" stop-color="#BABA80"/>
</linearGradient>
<clipPath id="clip0_1318_82440">
<rect width="544" height="578" fill="white"/>
</clipPath>
</defs>
</svg>
