<svg width="686" height="613" viewBox="0 0 686 613" fill="none" xmlns="http://www.w3.org/2000/svg">
<g clip-path="url(#clip0_1318_82239)">
<path opacity="0.2" d="M292.143 560.573C325.185 560.573 351.971 553.433 351.971 544.626C351.971 535.818 325.185 528.679 292.143 528.679C259.102 528.679 232.316 535.818 232.316 544.626C232.316 553.433 259.102 560.573 292.143 560.573Z" fill="#2196F3"/>
<path d="M241.312 533.923V544.901C241.312 552.133 264.595 557.988 293.323 557.988C322.051 557.988 345.333 552.133 345.333 544.901V533.923H241.312Z" fill="#ECB64A"/>
<path d="M293.308 547.011C322.015 547.011 345.287 541.151 345.287 533.923C345.287 526.695 322.015 520.835 293.308 520.835C264.6 520.835 241.328 526.695 241.328 533.923C241.328 541.151 264.6 547.011 293.308 547.011Z" fill="#F0CA4D"/>
<path d="M293.309 542.179C314.649 542.179 331.949 538.483 331.949 533.923C331.949 529.363 314.649 525.667 293.309 525.667C271.968 525.667 254.668 529.363 254.668 533.923C254.668 538.483 271.968 542.179 293.309 542.179Z" fill="#FFD45F"/>
<path d="M251.805 516.631V527.608C251.805 534.84 275.087 540.696 303.815 540.696C332.543 540.696 355.825 534.84 355.825 527.608V516.631H251.805Z" fill="#ECB64A"/>
<path d="M303.8 529.718C332.508 529.718 355.78 523.859 355.78 516.63C355.78 509.402 332.508 503.543 303.8 503.543C275.092 503.543 251.82 509.402 251.82 516.63C251.82 523.859 275.092 529.718 303.8 529.718Z" fill="#F0CA4D"/>
<path d="M342.426 516.631C342.426 521.218 325.125 524.887 303.785 524.887C282.446 524.887 265.16 521.187 265.16 516.631C265.16 512.074 282.446 508.39 303.785 508.39C325.125 508.39 342.426 512.074 342.426 516.631Z" fill="#FFD45F"/>
<path d="M241.402 498.054V509.032C241.402 516.264 264.669 522.12 293.413 522.12C322.156 522.12 345.423 516.264 345.423 509.032V498.054H241.402Z" fill="#ECB64A"/>
<path d="M293.382 511.142C322.09 511.142 345.362 505.282 345.362 498.054C345.362 490.826 322.09 484.966 293.382 484.966C264.674 484.966 241.402 490.826 241.402 498.054C241.402 505.282 264.674 511.142 293.382 511.142Z" fill="#F0CA4D"/>
<path d="M293.383 506.31C314.723 506.31 332.023 502.614 332.023 498.054C332.023 493.494 314.723 489.798 293.383 489.798C272.042 489.798 254.742 493.494 254.742 498.054C254.742 502.614 272.042 506.31 293.383 506.31Z" fill="#FFD45F"/>
<path d="M251.805 483.361V494.323C251.805 501.555 275.087 507.426 303.815 507.426C332.543 507.426 355.825 501.555 355.825 494.323V483.361H251.805Z" fill="#ECB64A"/>
<path d="M303.8 496.449C332.508 496.449 355.78 490.589 355.78 483.361C355.78 476.133 332.508 470.273 303.8 470.273C275.092 470.273 251.82 476.133 251.82 483.361C251.82 490.589 275.092 496.449 303.8 496.449Z" fill="#F0CA4D"/>
<path d="M342.426 483.361C342.426 487.948 325.125 491.602 303.785 491.602C282.446 491.602 265.16 487.917 265.16 483.361C265.16 478.805 282.446 475.104 303.785 475.104C325.125 475.104 342.426 478.805 342.426 483.361Z" fill="#FFD45F"/>
<path d="M248.148 465.747V476.71C248.148 483.942 271.415 489.813 300.159 489.813C328.902 489.813 352.169 483.942 352.169 476.71V465.747H248.148Z" fill="#ECB64A"/>
<path d="M300.116 478.835C328.824 478.835 352.096 472.975 352.096 465.747C352.096 458.519 328.824 452.659 300.116 452.659C271.409 452.659 248.137 458.519 248.137 465.747C248.137 472.975 271.409 478.835 300.116 478.835Z" fill="#F0CA4D"/>
<path d="M338.754 465.747C338.754 470.334 321.453 473.988 300.113 473.988C278.774 473.988 261.473 470.304 261.473 465.747C261.473 461.191 278.743 457.491 300.159 457.491C321.575 457.491 338.754 461.176 338.754 465.747Z" fill="#FFD45F"/>
<path d="M259.852 452.002V462.98C259.852 470.212 283.119 476.068 311.862 476.068C340.605 476.068 363.872 470.212 363.872 462.98V452.002H259.852Z" fill="#ECB64A"/>
<path d="M311.831 465.09C340.539 465.09 363.811 459.23 363.811 452.002C363.811 444.774 340.539 438.914 311.831 438.914C283.124 438.914 259.852 444.774 259.852 452.002C259.852 459.23 283.124 465.09 311.831 465.09Z" fill="#F0CA4D"/>
<path d="M350.473 452.002C350.473 456.589 333.171 460.258 311.832 460.258C290.492 460.258 273.191 456.558 273.191 452.002C273.191 447.446 290.492 443.746 311.832 443.746C333.171 443.746 350.473 447.446 350.473 452.002Z" fill="#FFD45F"/>
<path opacity="0.2" d="M587.471 537.195L530.107 522.456L473.171 408.075H571.058V320.406L149.04 112.928H133.82V408.075H183.688L127.41 522.456L158.157 537.195H186.228L148.597 522.456L208.592 408.075H451.006L505.678 522.456L559.401 537.195H587.471Z" fill="#2196F3"/>
<path d="M229.075 118.738C229.075 104.671 224.901 90.9201 217.083 79.2237C209.264 67.5273 198.151 58.4109 185.148 53.027C172.146 47.6432 157.839 46.2337 144.035 48.9769C130.231 51.7201 117.551 58.4927 107.598 68.4384C97.6456 78.3841 90.8668 91.0562 88.1193 104.852C85.3717 118.649 86.7788 132.949 92.1625 145.946C97.5463 158.943 106.665 170.053 118.366 177.87C130.066 185.687 143.823 189.861 157.897 189.864C176.772 189.864 194.874 182.371 208.222 169.033C221.57 155.695 229.071 137.603 229.075 118.738ZM157.897 168.566C148.037 168.566 138.398 165.644 130.2 160.169C122.002 154.693 115.612 146.911 111.839 137.806C108.065 128.701 107.078 118.683 109.002 109.017C110.925 99.3511 115.673 90.4726 122.645 83.5039C129.617 76.5353 138.5 71.7896 148.171 69.867C157.842 67.9444 167.866 68.9311 176.975 72.7025C186.085 76.4739 193.871 82.8605 199.349 91.0548C204.827 99.249 207.75 108.883 207.75 118.738C207.75 125.281 206.461 131.761 203.956 137.806C201.45 143.852 197.778 149.345 193.149 153.972C188.519 158.599 183.024 162.269 176.975 164.773C170.927 167.277 164.444 168.566 157.897 168.566Z" fill="#4CAF50"/>
<path d="M272.318 129.792V107.668H253.35C252.711 102.087 251.585 96.5717 249.985 91.1863L267.377 83.7098L258.628 63.3748L241.219 70.8666C238.849 66.7537 236.175 62.8235 233.219 59.109L246.619 45.7002L230.97 30.0591L217.555 43.4526C213.148 39.9633 208.45 36.8584 203.512 34.1719L210.518 16.6043L190.02 8.40919L182.953 26.0226C178.368 24.7973 173.7 23.9082 168.986 23.3623V4.38806H146.836V23.3317C141.256 23.976 135.744 25.1066 130.361 26.7107L122.865 9.32656L102.52 18.0721L110.016 35.4715C105.898 37.8381 101.961 40.5058 98.237 43.4526L84.8215 30.0591L69.1725 45.7002L82.5881 59.109C79.0869 63.5008 75.9797 68.1924 73.3027 73.1294L55.711 66.1422L47.5118 86.6912L65.1188 93.6938C63.8818 98.2794 62.987 102.95 62.4418 107.668H43.5039V129.792H62.4571C63.0994 135.374 64.2306 140.89 65.8377 146.274L48.4449 153.751L57.1948 174.086L74.603 166.594C76.973 170.707 79.6472 174.637 82.6034 178.351L69.1725 191.76L84.8215 207.417L98.237 194.008C102.634 197.511 107.333 200.617 112.28 203.289L105.274 220.856L125.833 229.051L132.854 211.468C137.437 212.701 142.106 213.59 146.821 214.129V233.072H168.971V214.083C174.546 213.462 180.054 212.347 185.431 210.75L192.926 228.149L213.256 219.404L205.776 201.989C209.886 199.618 213.818 196.951 217.539 194.008L230.94 207.417L246.619 191.76L233.204 178.367C236.705 173.97 239.812 169.273 242.489 164.331L260.081 171.334L268.265 150.769L250.688 143.751C251.922 139.166 252.811 134.495 253.35 129.777L272.318 129.792ZM157.896 180.767C145.617 180.77 133.613 177.134 123.403 170.317C113.192 163.501 105.233 153.811 100.533 142.473C95.8327 131.135 94.6021 118.659 96.9968 106.622C99.3915 94.5852 105.304 83.5285 113.986 74.8504C122.669 66.1724 133.731 60.2629 145.774 57.8694C157.817 55.4759 170.3 56.7059 181.643 61.4038C192.986 66.1017 202.681 74.0565 209.501 84.262C216.321 94.4675 219.959 106.465 219.956 118.738C219.956 135.189 213.418 150.966 201.779 162.599C190.141 174.232 174.355 180.767 157.896 180.767Z" fill="#757575"/>
<path d="M385.992 79.5358C387.237 70.6345 385.813 61.5642 381.9 53.4719C377.988 45.3795 371.762 38.6287 364.01 34.0732C356.258 29.5177 347.329 27.3622 338.352 27.8792C329.374 28.3962 320.752 31.5626 313.575 36.9778C306.398 42.3931 300.989 49.814 298.032 58.3019C295.075 66.7899 294.703 75.9637 296.963 84.6631C299.222 93.3625 304.013 101.197 310.727 107.175C317.442 113.153 325.78 117.007 334.686 118.249C340.598 119.075 346.615 118.729 352.393 117.231C358.172 115.732 363.598 113.111 368.363 109.516C373.127 105.921 377.136 101.423 380.161 96.2786C383.186 91.1346 385.168 85.4453 385.992 79.5358ZM336.567 104.825C330.328 103.956 324.486 101.258 319.78 97.0714C315.075 92.8845 311.718 87.397 310.133 81.3028C308.549 75.2086 308.808 68.7816 310.878 62.8347C312.948 56.8878 316.737 51.6882 321.764 47.8935C326.791 44.0988 332.831 41.8794 339.121 41.5162C345.41 41.153 351.666 42.6622 357.097 45.853C362.528 49.0437 366.89 53.7726 369.632 59.4416C372.374 65.1106 373.372 71.465 372.5 77.701C371.332 86.0595 366.89 93.612 360.152 98.6982C353.414 103.784 344.93 105.988 336.567 104.825Z" fill="#4CAF50"/>
<path d="M412.351 90.4066L414.309 76.4015L402.316 74.7349C402.408 71.1545 402.183 67.573 401.643 64.0323L413.36 60.8215L409.613 47.1833L397.941 50.3788C396.809 47.5716 395.47 44.8527 393.933 42.2448L403.601 34.9365L395.004 23.6681L385.336 30.9612C382.862 28.3603 380.165 25.9813 377.275 23.8516L383.256 13.3478L371.018 6.34518L365.006 16.849C362.216 15.6712 359.342 14.7002 356.409 13.944L358.077 1.95711L344.08 0.0306396L342.397 12.0176C338.815 11.9258 335.232 12.1509 331.689 12.6903L328.492 1.03974L314.847 4.77037L318.059 16.4362C315.244 17.5693 312.518 18.9136 309.906 20.4573L302.594 10.7333L291.305 19.2495L298.632 28.943C296.035 31.4149 293.655 34.1055 291.519 36.9852L281.025 31.0071L274.019 43.2386L284.528 49.2321C283.338 52.0182 282.361 54.8907 281.606 57.8248L269.567 56.2041L267.609 70.1939L279.602 71.8758C279.516 75.4566 279.746 79.0381 280.291 82.5784L268.619 85.7739L272.351 99.4121L284.039 96.2166C285.17 99.0238 286.51 101.743 288.046 104.351L278.394 111.644L286.914 122.927L296.582 115.634C299.057 118.234 301.755 120.613 304.644 122.744L298.632 133.263L310.87 140.25L316.851 129.746C319.644 130.934 322.523 131.91 325.463 132.667L323.78 144.654L337.793 146.611L339.46 134.624C343.042 134.715 346.625 134.489 350.168 133.951L353.365 145.602L366.995 141.871L363.798 130.205C366.607 129.059 369.332 127.716 371.951 126.184L379.248 135.847L390.537 127.331L383.225 117.668C385.835 115.202 388.215 112.505 390.338 109.61L400.847 115.604L407.853 103.372L397.344 97.3939C398.521 94.5974 399.497 91.7208 400.266 88.7859L412.351 90.4066ZM335.483 112.546C327.72 111.461 320.453 108.099 314.601 102.887C308.75 97.6739 304.576 90.844 302.607 83.2605C300.639 75.6769 300.965 67.6804 303.543 60.2818C306.121 52.8832 310.837 46.4149 317.093 41.6947C323.349 36.9744 330.865 34.2143 338.69 33.7633C346.516 33.3122 354.299 35.1905 361.057 39.1606C367.815 43.1308 373.243 49.0144 376.655 56.0677C380.067 63.121 381.31 71.0272 380.227 78.7866C378.77 89.1928 373.238 98.5947 364.848 104.925C356.457 111.256 345.895 113.997 335.483 112.546Z" fill="#757575"/>
<path d="M186.226 537.195L300.297 318.281H272.227L158.156 537.195H186.226Z" fill="#2196F3"/>
<path d="M587.473 537.195L473.402 318.281H445.332L559.403 537.195H587.473Z" fill="#2196F3"/>
<path d="M602.461 96.5223H143.164V398.963H602.461V96.5223Z" fill="#212121"/>
<path opacity="0.4" d="M415.87 172.74L453.011 200.72L419.25 169.759L450.762 141.871L444.873 135.419L415.808 166.624L386.438 139.684L380.625 146.213L412.489 170.202L383.134 201.714L415.87 172.74Z" fill="#757575"/>
<path opacity="0.2" d="M470.969 230.412L465.294 221.774L456.697 226.62L389.68 264.37L329.853 158.261L326.717 152.711L321.378 155.708L241.267 200.858L185.264 96.5223H175.734L235.852 208.64L237.81 212.279L241.573 210.368L321.608 169.621L378.314 280.883L382.322 288.741L390.521 284.567L457.676 250.365L545.818 398.963H581.781L470.969 230.412Z" fill="#2196F3"/>
<path opacity="0.2" d="M477.38 96.5223H267.641V108.372H477.38V96.5223Z" fill="#2196F3"/>
<path opacity="0.2" d="M525.027 125.221C525.028 146.327 533.005 166.654 547.36 182.133C561.715 197.612 581.39 207.102 602.446 208.701V96.5223H530.091C526.733 105.718 525.019 115.432 525.027 125.221Z" fill="#2196F3"/>
<path opacity="0.4" d="M584.871 112.928H160.758V139.333V140.862V163.368V164.897V187.403V188.932V211.438V212.967V235.488V237.017V259.523V261.052V283.543V285.072V307.578V309.107V331.659V333.188V355.694V357.223V382.542H584.871V112.928ZM583.341 114.457V139.333H558.759V114.457H583.341ZM309.737 237.017H333.095V259.523H309.737V237.017ZM308.207 259.523H284.863V237.017H308.222L308.207 259.523ZM334.64 237.017H357.999V259.523H334.64V237.017ZM359.544 237.017H382.903V259.523H359.544V237.017ZM384.448 237.017H407.807V259.523H384.448V237.017ZM409.352 237.017H432.71V259.523H409.352V237.017ZM434.255 237.017H457.614V259.523H434.255V237.017ZM459.144 237.017H482.518V259.523H459.144V237.017ZM459.144 235.488V212.997H482.518V235.488H459.144ZM457.614 235.488H434.255V212.997H457.614V235.488ZM432.71 235.488H409.352V212.997H432.71V235.488ZM407.807 235.488H384.448V212.997H407.807V235.488ZM382.903 235.488H359.544V212.997H382.903V235.488ZM357.999 235.488H334.64V212.997H357.999V235.488ZM333.095 235.488H309.737V212.997H333.095V235.488ZM308.192 235.488H284.863V212.997H308.222L308.192 235.488ZM283.334 235.488H259.929V212.997H283.334V235.488ZM283.334 237.017V259.523H259.929V237.017H283.334ZM283.334 261.067V283.558H259.929V261.083L283.334 261.067ZM284.863 261.067H308.222V283.558H284.863V261.067ZM309.767 261.067H333.126V283.558H309.737L309.767 261.067ZM334.671 261.067H358.03V283.558H334.64L334.671 261.067ZM359.575 261.067H382.933V283.558H359.544L359.575 261.067ZM384.478 261.067H407.837V283.558H384.448L384.478 261.067ZM409.382 261.067H432.741V283.558H409.352L409.382 261.067ZM434.286 261.067H457.645V283.558H434.255L434.286 261.067ZM459.174 261.067H482.548V283.558H459.144L459.174 261.067ZM484.078 261.067H507.452V283.558H484.047L484.078 261.067ZM484.078 259.538V237.017H507.452V259.523L484.078 259.538ZM484.078 235.503V212.997H507.452V235.488L484.078 235.503ZM484.078 211.453V188.947H507.452V211.453H484.078ZM482.548 211.453H459.144V188.947H482.518L482.548 211.453ZM457.645 211.453H434.255V188.947H457.614L457.645 211.453ZM432.741 211.453H409.352V188.947H432.71L432.741 211.453ZM407.837 211.453H384.448V188.947H407.807L407.837 211.453ZM382.933 211.453H359.544V188.947H382.903L382.933 211.453ZM358.03 211.453H334.64V188.947H357.999L358.03 211.453ZM333.126 211.453H309.737V188.947H333.095L333.126 211.453ZM308.222 211.453H284.863V188.947H308.222V211.453ZM283.318 211.453H259.929V188.947H283.334L283.318 211.453ZM258.43 211.453H235.025V188.947H258.399L258.43 211.453ZM258.43 212.982V235.488H235.025V212.997L258.43 212.982ZM258.43 237.017V259.523H235.025V237.017H258.43ZM258.43 261.067V283.558H235.025V261.083L258.43 261.067ZM258.43 285.102V307.608H235.025V285.118L258.43 285.102ZM259.96 285.102H283.334V307.608H259.929L259.96 285.102ZM284.863 285.102H308.222V307.608H284.863V285.102ZM309.767 285.102H333.126V307.608H309.737L309.767 285.102ZM334.671 285.102H358.03V307.608H334.64L334.671 285.102ZM359.575 285.102H382.933V307.608H359.544L359.575 285.102ZM384.478 285.102H407.837V307.608H384.448L384.478 285.102ZM409.382 285.102H432.741V307.608H409.352L409.382 285.102ZM434.286 285.102H457.645V307.608H434.255L434.286 285.102ZM459.174 285.102H482.548V307.608H459.144L459.174 285.102ZM484.078 285.102H507.452V307.608H484.047L484.078 285.102ZM508.982 285.102H532.356V307.608H508.951L508.982 285.102ZM508.982 283.573V261.083H532.356V283.573H508.982ZM508.982 259.538V237.017H532.356V259.523L508.982 259.538ZM508.982 235.503V212.997H532.356V235.488L508.982 235.503ZM508.982 211.453V188.947H532.356V211.453H508.982ZM508.982 187.418V164.912H532.356V187.418H508.982ZM507.452 187.418H484.047V164.912H507.421L507.452 187.418ZM482.548 187.418H459.144V164.912H482.518L482.548 187.418ZM457.645 187.418H434.255V164.912H457.614L457.645 187.418ZM432.741 187.418H409.352V164.912H432.71L432.741 187.418ZM407.837 187.418H384.448V164.912H407.807L407.837 187.418ZM382.933 187.418H359.544V164.912H382.903L382.933 187.418ZM358.03 187.418H334.64V164.912H357.999L358.03 187.418ZM333.126 187.418H309.737V164.912H333.095L333.126 187.418ZM308.222 187.418H284.863V164.912H308.222V187.418ZM283.318 187.418H259.929V164.912H283.334L283.318 187.418ZM258.43 187.418H235.025V164.912H258.399L258.43 187.418ZM233.526 187.418H210.122V164.912H233.496L233.526 187.418ZM233.526 188.947V211.453H210.122V188.947H233.526ZM233.526 212.997V235.488H210.122V212.997H233.526ZM233.526 237.032V259.538H210.122V237.017L233.526 237.032ZM233.526 261.083V283.573H210.122V261.083H233.526ZM233.526 285.118V307.624H210.122V285.118H233.526ZM233.526 309.153V331.659H210.122V309.153H233.526ZM235.056 309.153H258.399V331.659H235.025L235.056 309.153ZM259.96 309.153H283.334V331.659H259.929L259.96 309.153ZM284.863 309.153H308.222V331.659H284.863V309.153ZM309.767 309.153H333.126V331.659H309.737L309.767 309.153ZM334.671 309.153H358.03V331.659H334.64L334.671 309.153ZM359.575 309.153H382.933V331.659H359.544L359.575 309.153ZM384.478 309.153H407.837V331.659H384.448L384.478 309.153ZM409.382 309.153H432.741V331.659H409.352L409.382 309.153ZM434.286 309.153H457.645V331.659H434.255L434.286 309.153ZM459.174 309.153H482.548V331.659H459.144L459.174 309.153ZM484.078 309.153H507.452V331.659H484.047L484.078 309.153ZM508.982 309.153H532.356V331.659H508.951L508.982 309.153ZM533.886 309.153H557.26V331.659H533.855L533.886 309.153ZM533.886 307.624V285.118H557.26V307.624H533.886ZM533.886 283.573V261.083H557.26V283.573H533.886ZM533.886 259.538V237.017H557.26V259.523L533.886 259.538ZM533.886 235.503V212.997H557.26V235.488L533.886 235.503ZM533.886 211.453V188.947H557.26V211.453H533.886ZM533.886 187.418V164.912H557.26V187.418H533.886ZM533.886 163.368V140.862H557.26V163.368H533.886ZM532.356 163.368H508.951V140.862H532.325L532.356 163.368ZM507.452 163.368H484.047V140.862H507.421L507.452 163.368ZM482.548 163.368H459.144V140.862H482.518L482.548 163.368ZM457.645 163.368H434.255V140.862H457.614L457.645 163.368ZM432.741 163.368H409.352V140.862H432.71L432.741 163.368ZM407.837 163.368H384.448V140.862H407.807L407.837 163.368ZM382.933 163.368H359.544V140.862H382.903L382.933 163.368ZM358.03 163.368H334.64V140.862H357.999L358.03 163.368ZM333.126 163.368H309.737V140.862H333.095L333.126 163.368ZM308.222 163.368H284.863V140.862H308.222V163.368ZM283.318 163.368H259.929V140.862H283.334L283.318 163.368ZM258.43 163.368H235.025V140.862H258.399L258.43 163.368ZM233.526 163.368H210.122V140.862H233.496L233.526 163.368ZM208.623 163.368H185.218V140.862H208.592L208.623 163.368ZM208.623 164.897V187.403H185.218V164.912L208.623 164.897ZM208.623 188.932V211.438H185.218V188.947L208.623 188.932ZM208.623 212.982V235.488H185.218V212.997L208.623 212.982ZM208.623 237.017V259.523H185.218V237.017H208.623ZM208.623 261.067V283.558H185.218V261.083L208.623 261.067ZM208.623 285.102V307.608H185.218V285.118L208.623 285.102ZM208.623 309.137V331.659H185.218V309.153L208.623 309.137ZM208.623 333.188V355.694H185.218V333.203L208.623 333.188ZM210.152 333.188H233.526V355.694H210.122L210.152 333.188ZM235.056 333.188H258.399V355.694H235.025L235.056 333.188ZM259.96 333.188H283.334V355.694H259.929L259.96 333.188ZM284.863 333.188H308.222V355.694H284.863V333.188ZM309.767 333.188H333.126V355.694H309.737L309.767 333.188ZM334.671 333.188H358.03V355.694H334.64L334.671 333.188ZM359.575 333.188H382.933V355.694H359.544L359.575 333.188ZM384.478 333.188H407.837V355.694H384.448L384.478 333.188ZM409.382 333.188H432.741V355.694H409.352L409.382 333.188ZM434.286 333.188H457.645V355.694H434.255L434.286 333.188ZM459.174 333.188H482.548V355.694H459.144L459.174 333.188ZM484.078 333.188H507.452V355.694H484.047L484.078 333.188ZM508.982 333.188H532.356V355.694H508.951L508.982 333.188ZM533.886 333.188H557.26V355.694H533.855L533.886 333.188ZM558.789 333.188H583.356V355.694H558.759L558.789 333.188ZM558.789 331.659V309.153H583.356V331.659H558.789ZM558.789 307.624V285.118H583.356V307.624H558.789ZM558.789 283.573V261.083H583.356V283.573H558.789ZM558.789 259.538V237.017H583.356V259.523L558.789 259.538ZM558.789 235.503V212.997H583.356V235.488L558.789 235.503ZM558.789 211.453V188.947H583.356V211.453H558.789ZM558.789 187.418V164.912H583.356V187.418H558.789ZM558.789 163.368V140.862H583.356V163.368H558.789ZM557.26 114.442V139.317H533.855V114.457L557.26 114.442ZM532.356 114.442V139.317H508.951V114.457L532.356 114.442ZM507.452 114.442V139.317H484.047V114.457L507.452 114.442ZM482.548 114.442V139.317H459.144V114.457L482.548 114.442ZM457.645 114.442V139.317H434.255V114.457L457.645 114.442ZM432.741 114.442V139.317H409.352V114.457L432.741 114.442ZM407.837 114.442V139.317H384.448V114.457L407.837 114.442ZM382.933 114.442V139.317H359.544V114.457L382.933 114.442ZM358.03 114.442V139.317H334.64V114.457L358.03 114.442ZM333.126 114.442V139.317H309.737V114.457L333.126 114.442ZM308.222 114.442V139.317H284.863V114.457L308.222 114.442ZM283.318 114.442V139.317H259.929V114.457L283.318 114.442ZM258.43 114.442V139.317H235.025V114.457L258.43 114.442ZM233.526 114.442V139.317H210.122V114.457L233.526 114.442ZM208.623 114.442V139.317H185.218V114.457L208.623 114.442ZM162.318 114.442H183.734V139.317H162.318V114.442ZM162.318 140.846H183.734V163.352H162.318V140.846ZM162.318 164.897H183.734V187.403H162.318V164.897ZM162.318 188.932H183.734V211.438H162.318V188.932ZM162.318 212.982H183.734V235.488H162.318V212.982ZM162.318 237.017H183.734V259.523H162.318V237.017ZM162.318 261.067H183.734V283.558H162.318V261.067ZM162.318 285.102H183.734V307.608H162.318V285.102ZM162.318 309.137H183.734V331.659H162.318V309.137ZM162.318 333.188H183.734V355.694H162.318V333.188ZM162.318 380.998V357.238H183.734V381.013L162.318 380.998ZM185.264 380.998V357.238H208.638V381.013L185.264 380.998ZM210.168 380.998V357.238H233.542V381.013L210.168 380.998ZM235.071 380.998V357.238H258.399V381.013L235.071 380.998ZM259.975 380.998V357.238H283.334V381.013L259.975 380.998ZM284.879 380.998V357.238H308.237V381.013L284.879 380.998ZM309.782 380.998V357.238H333.141V381.013L309.782 380.998ZM334.686 380.998V357.238H358.045V381.013L334.686 380.998ZM359.59 380.998V357.238H382.949V381.013L359.59 380.998ZM384.494 380.998V357.238H407.852V381.013L384.494 380.998ZM409.397 380.998V357.238H432.756V381.013L409.397 380.998ZM434.301 380.998V357.238H457.66V381.013L434.301 380.998ZM459.19 380.998V357.238H482.564V381.013L459.19 380.998ZM484.093 380.998V357.238H507.467V381.013L484.093 380.998ZM508.997 380.998V357.238H532.371V381.013L508.997 380.998ZM533.901 380.998V357.238H557.275V381.013L533.901 380.998ZM558.805 380.998V357.238H583.372V381.013L558.805 380.998Z" fill="#757575"/>
<path d="M676.713 565.97L651.534 430.78L636.68 470.089L473.093 221.284L467.417 212.646L458.82 217.492L391.804 255.242L331.977 149.133L328.841 143.583L323.517 146.58L243.391 191.714L150.537 18.7449L143.164 22.6896L237.976 199.512L239.934 203.151L243.697 201.24L323.731 160.493L380.438 271.755L384.446 279.614L392.645 275.439L459.799 241.237L607.662 490.486L568.363 487.596L676.713 565.97Z" fill="#FF2211"/>
<path d="M473.171 86.3854H272.457V104.626H473.171V86.3854Z" fill="#2196F3"/>
<path d="M473.171 389.835H272.457V408.076H473.171V389.835Z" fill="#2196F3"/>
<path d="M608.826 192.54C646.024 192.54 676.179 162.4 676.179 125.221C676.179 88.0411 646.024 57.9011 608.826 57.9011C571.628 57.9011 541.473 88.0411 541.473 125.221C541.473 162.4 571.628 192.54 608.826 192.54Z" fill="#2196F3"/>
<path d="M611.977 119.105H685.985C684.965 106.393 680.831 94.1269 673.947 83.3891C667.064 72.6513 657.642 63.7716 646.514 57.5332C635.385 51.2949 622.892 47.8897 610.135 47.6179C597.379 47.3461 584.752 50.2161 573.367 55.9747L611.977 119.105Z" fill="#FFD45F"/>
<path d="M602.202 127.117L562.674 62.5033C549.834 71.8494 540.164 84.9004 534.965 99.902C529.766 114.904 529.286 131.136 533.59 146.419C537.894 161.701 546.776 175.3 559.042 185.387C571.308 195.474 586.369 201.567 602.202 202.845V127.117Z" fill="#FF2211"/>
<path d="M614.73 131.612V202.845C633.133 201.355 650.406 193.372 663.46 180.321C676.514 167.271 684.498 150.005 685.984 131.612H614.73Z" fill="#4CAF50"/>
<path opacity="0.2" d="M66.9097 573.614C103.863 573.614 133.819 565.859 133.819 556.291C133.819 546.724 103.863 538.969 66.9097 538.969C29.9565 538.969 0 546.724 0 556.291C0 565.859 29.9565 573.614 66.9097 573.614Z" fill="#2196F3"/>
<path d="M13.6445 545.298V557.209C13.6445 565.068 38.9307 571.443 70.1216 571.443C101.312 571.443 126.599 565.068 126.599 557.209V545.298H13.6445Z" fill="#ECB64A"/>
<path d="M70.1372 559.517C101.329 559.517 126.614 553.151 126.614 545.298C126.614 537.445 101.329 531.079 70.1372 531.079C38.9458 531.079 13.6602 537.445 13.6602 545.298C13.6602 553.151 38.9458 559.517 70.1372 559.517Z" fill="#F0CA4D"/>
<path d="M70.1355 554.258C93.3178 554.258 112.111 550.246 112.111 545.298C112.111 540.35 93.3178 536.339 70.1355 536.339C46.9532 536.339 28.1602 540.35 28.1602 545.298C28.1602 550.246 46.9532 554.258 70.1355 554.258Z" fill="#FFD45F"/>
<path d="M55.9276 540.926C55.6647 540.775 55.4315 540.578 55.2392 540.345C55.0402 540.145 54.9252 539.877 54.918 539.595C54.918 539.091 55.2239 538.739 55.8358 538.525C56.5517 538.294 57.3017 538.185 58.0539 538.204H84.3344C84.5731 538.369 84.7936 538.558 84.9921 538.77C85.1981 538.966 85.319 539.235 85.3287 539.519C85.3209 539.775 85.2278 540.02 85.0643 540.217C84.9008 540.414 84.6761 540.55 84.4261 540.604C83.7099 540.835 82.9602 540.943 82.208 540.926H55.9276Z" fill="#FF2211"/>
<path d="M25.043 526.508V538.433C25.043 546.277 50.3291 552.653 81.52 552.653C112.711 552.653 137.997 546.277 137.997 538.433V526.508H25.043Z" fill="#ECB64A"/>
<path d="M81.5356 540.727C112.727 540.727 138.013 534.361 138.013 526.508C138.013 518.654 112.727 512.288 81.5356 512.288C50.3442 512.288 25.0586 518.654 25.0586 526.508C25.0586 534.361 50.3442 540.727 81.5356 540.727Z" fill="#F0CA4D"/>
<path d="M81.5339 535.467C104.716 535.467 123.509 531.456 123.509 526.507C123.509 521.559 104.716 517.548 81.5339 517.548C58.3516 517.548 39.5586 521.559 39.5586 526.507C39.5586 531.456 58.3516 535.467 81.5339 535.467Z" fill="#FFD45F"/>
<path d="M13.7383 506.325V518.236C13.7383 526.095 39.0244 532.47 70.2153 532.47C101.406 532.47 126.692 526.095 126.692 518.236V506.325H13.7383Z" fill="#ECB64A"/>
<path d="M70.2309 520.545C101.422 520.545 126.708 514.178 126.708 506.325C126.708 498.472 101.422 492.106 70.2309 492.106C39.0395 492.106 13.7539 498.472 13.7539 506.325C13.7539 514.178 39.0395 520.545 70.2309 520.545Z" fill="#F0CA4D"/>
<path d="M70.2292 515.285C93.4116 515.285 112.205 511.274 112.205 506.326C112.205 501.377 93.4116 497.366 70.2292 497.366C47.0469 497.366 28.2539 501.377 28.2539 506.326C28.2539 511.274 47.0469 515.285 70.2292 515.285Z" fill="#FFD45F"/>
<path d="M56.0174 501.953C55.7551 501.808 55.5217 501.616 55.3291 501.387C55.1316 501.18 55.0172 500.908 55.0078 500.622C55.0078 500.133 55.3138 499.766 55.9256 499.552C56.6416 499.321 57.3915 499.212 58.1437 499.231H84.4701C84.7088 499.396 84.9293 499.585 85.1279 499.797C85.3339 499.993 85.4547 500.262 85.4644 500.546C85.4566 500.802 85.3636 501.047 85.2 501.244C85.0365 501.441 84.8119 501.577 84.5619 501.632C83.8457 501.862 83.0959 501.97 82.3438 501.953H56.0174Z" fill="#FF2211"/>
<path d="M28.1484 487.902V499.812C28.1484 507.671 53.4346 514.047 84.6255 514.047C115.816 514.047 141.072 507.64 141.072 499.812V487.902H28.1484Z" fill="#ECB64A"/>
<path d="M84.6255 502.121C115.817 502.121 141.102 495.755 141.102 487.902C141.102 480.049 115.817 473.683 84.6255 473.683C53.4341 473.683 28.1484 480.049 28.1484 487.902C28.1484 495.755 53.4341 502.121 84.6255 502.121Z" fill="#F0CA4D"/>
<path d="M84.6238 496.861C107.806 496.861 126.599 492.85 126.599 487.902C126.599 482.953 107.806 478.942 84.6238 478.942C61.4414 478.942 42.6484 482.953 42.6484 487.902C42.6484 492.85 61.4414 496.861 84.6238 496.861Z" fill="#FFD45F"/>
<path opacity="0.2" d="M198.818 612.985C234.715 612.985 263.815 605.229 263.815 595.662C263.815 586.095 234.715 578.339 198.818 578.339C162.921 578.339 133.82 586.095 133.82 595.662C133.82 605.229 162.921 612.985 198.818 612.985Z" fill="#2196F3"/>
<path d="M143.594 584.088V596.013C143.594 603.872 168.88 610.233 200.071 610.233C231.262 610.233 256.548 603.872 256.548 596.013V584.088H143.594Z" fill="#ECB64A"/>
<path d="M200.071 598.261C231.262 598.261 256.548 591.895 256.548 584.042C256.548 576.189 231.262 569.823 200.071 569.823C168.879 569.823 143.594 576.189 143.594 584.042C143.594 591.895 168.879 598.261 200.071 598.261Z" fill="#F0CA4D"/>
<path d="M242.033 584.088C242.033 589.041 223.233 593.062 200.057 593.062C176.882 593.062 158.082 589.041 158.082 584.088C158.082 579.134 176.867 575.128 200.057 575.128C223.248 575.128 242.033 579.088 242.033 584.088Z" fill="#FFD45F"/>
<path d="M154.992 565.251V577.177C154.992 585.036 180.278 591.411 211.469 591.411C242.66 591.411 267.946 585.036 267.946 577.177V565.251H154.992Z" fill="#ECB64A"/>
<path d="M211.469 579.486C242.661 579.486 267.946 573.119 267.946 565.266C267.946 557.413 242.661 551.047 211.469 551.047C180.278 551.047 154.992 557.413 154.992 565.266C154.992 573.119 180.278 579.486 211.469 579.486Z" fill="#F0CA4D"/>
<path d="M211.468 574.226C234.65 574.226 253.443 570.214 253.443 565.266C253.443 560.318 234.65 556.307 211.468 556.307C188.285 556.307 169.492 560.318 169.492 565.266C169.492 570.214 188.285 574.226 211.468 574.226Z" fill="#FFD45F"/>
<path d="M143.688 545.069V556.995C143.688 564.853 168.974 571.229 200.165 571.229C231.355 571.229 256.642 564.853 256.642 556.995V545.069H143.688Z" fill="#ECB64A"/>
<path d="M200.165 559.303C231.356 559.303 256.642 552.937 256.642 545.084C256.642 537.231 231.356 530.865 200.165 530.865C168.973 530.865 143.688 537.231 143.688 545.084C143.688 552.937 168.973 559.303 200.165 559.303Z" fill="#F0CA4D"/>
<path d="M242.138 545.069C242.138 550.023 223.338 554.044 200.163 554.044C176.988 554.044 158.188 550.023 158.188 545.069C158.188 540.115 176.972 536.109 200.163 536.109C223.353 536.109 242.138 540.131 242.138 545.069Z" fill="#FFD45F"/>
<path d="M277.476 380.646L75.8139 444.22C73.5424 444.934 71.1259 445.057 68.7937 444.576C66.4615 444.095 64.2908 443.027 62.4874 441.472C60.684 439.918 59.3077 437.929 58.489 435.694C57.6703 433.459 57.4363 431.052 57.8092 428.701L106.102 230.366C106.513 227.807 107.628 225.413 109.323 223.451C111.017 221.489 113.224 220.036 115.697 219.256C118.169 218.475 120.811 218.397 123.325 219.031C125.84 219.665 128.128 220.985 129.935 222.844L283.335 357.62C284.991 359.332 286.182 361.438 286.794 363.739C287.407 366.04 287.42 368.459 286.833 370.767C286.246 373.075 285.078 375.194 283.44 376.923C281.802 378.652 279.749 379.934 277.476 380.646Z" fill="#212121"/>
<path d="M264.441 376.013L84.6997 432.722C82.6745 433.362 80.5193 433.473 78.4389 433.045C76.3586 432.617 74.4222 431.665 72.8141 430.278C71.2059 428.891 69.9794 427.117 69.2511 425.123C68.5228 423.128 68.3169 420.981 68.653 418.885L111.684 242.078C112.047 239.794 113.04 237.657 114.551 235.906C116.061 234.155 118.03 232.859 120.236 232.164C122.443 231.469 124.799 231.401 127.041 231.969C129.284 232.538 131.323 233.719 132.932 235.381L269.642 355.495C271.117 357.019 272.177 358.895 272.723 360.944C273.269 362.993 273.282 365.147 272.761 367.202C272.24 369.258 271.202 371.146 269.746 372.688C268.29 374.23 266.464 375.375 264.441 376.013Z" fill="#FF2211"/>
<path d="M236.937 367.803L101.726 410.415C100.203 410.896 98.583 410.981 97.0189 410.66C95.4547 410.339 93.9986 409.624 92.7891 408.582C91.5795 407.54 90.6567 406.206 90.1084 404.707C89.56 403.208 89.4044 401.594 89.6562 400.018L122.025 267C122.302 265.284 123.052 263.679 124.191 262.365C125.329 261.051 126.812 260.08 128.471 259.561C130.131 259.042 131.903 258.995 133.588 259.426C135.273 259.857 136.804 260.748 138.01 262L240.838 352.361C241.95 353.506 242.751 354.916 243.164 356.458C243.578 358 243.589 359.622 243.198 361.17C242.807 362.717 242.027 364.139 240.931 365.3C239.835 366.461 238.46 367.323 236.937 367.803Z" fill="#FFD45F"/>
<path d="M159.426 350.006C159.416 350.777 159.169 351.526 158.719 352.152C158.269 352.778 157.637 353.251 156.91 353.506C156.182 353.761 155.393 353.787 154.65 353.579C153.908 353.372 153.247 352.941 152.757 352.345C138.638 335.084 107.921 293.374 132.702 284.491C157.484 275.608 159.549 327.638 159.426 350.006Z" fill="#1C1B19"/>
<path d="M174.326 367.91C174.74 370.202 174.466 372.564 173.538 374.7C172.609 376.836 171.069 378.649 169.111 379.911C167.153 381.173 164.865 381.827 162.535 381.791C160.206 381.754 157.939 381.029 156.022 379.707C154.104 378.384 152.621 376.524 151.76 374.36C150.9 372.196 150.699 369.826 151.185 367.548C151.67 365.271 152.819 363.188 154.488 361.562C156.156 359.937 158.269 358.842 160.559 358.415C162.087 358.131 163.657 358.151 165.177 358.474C166.697 358.798 168.139 359.419 169.418 360.301C170.697 361.184 171.79 362.31 172.632 363.616C173.475 364.922 174.05 366.381 174.326 367.91Z" fill="#1C1B19"/>
</g>
<defs>
<clipPath id="clip0_1318_82239">
<rect width="686" height="613" fill="white"/>
</clipPath>
</defs>
</svg>
