<svg width="24" height="24" viewBox="0 0 24 24" fill="none" xmlns="http://www.w3.org/2000/svg">
<g clip-path="url(#clip0_6621_936)">
<path fill-rule="evenodd" clip-rule="evenodd" d="M17.8363 19.5578C16.2481 20.6189 14.3809 21.1852 12.4709 21.1851C9.91099 21.1814 7.45697 20.1629 5.64683 18.3528C3.8367 16.5426 2.81816 14.0886 2.81451 11.5287C2.81439 9.61867 3.38068 7.75151 4.44176 6.16333C5.50283 4.57515 7.01104 3.3373 8.77565 2.60631C10.5403 1.87532 12.482 1.68403 14.3553 2.05663C16.2287 2.42922 17.9494 3.34898 19.3 4.69957C20.6506 6.05016 21.5704 7.77093 21.943 9.64426C22.3156 11.5176 22.1243 13.4593 21.3933 15.2239C20.6623 16.9886 19.4245 18.4968 17.8363 19.5578ZM17.0506 4.67392C15.695 3.76815 14.1013 3.2847 12.4709 3.2847C10.2852 3.28708 8.1898 4.15643 6.64436 5.70198C5.09892 7.24753 4.22973 9.34304 4.22751 11.5287C4.22762 13.1591 4.71119 14.7528 5.61706 16.1083C6.52293 17.4639 7.81041 18.5203 9.31671 19.1442C10.823 19.768 12.4805 19.9312 14.0795 19.613C15.6785 19.2949 17.1473 18.5097 18.3001 17.3568C19.4529 16.204 20.2379 14.7351 20.556 13.1361C20.874 11.537 20.7107 9.8796 20.0868 8.37335C19.4628 6.8671 18.4062 5.57969 17.0506 4.67392Z" fill="white"/>
<path d="M2.84905 22.0745C2.76335 22.11 2.67142 22.1281 2.57864 22.1278C2.48581 22.128 2.39386 22.1098 2.30815 22.0742C2.22244 22.0385 2.14469 21.9862 2.07944 21.9202C1.94826 21.7871 1.87472 21.6078 1.87472 21.421C1.87472 21.2341 1.94826 21.0548 2.07944 20.9218L3.96344 19.0378C4.09694 18.9108 4.27475 18.8411 4.45895 18.8434C4.64315 18.8457 4.81915 18.9199 4.9494 19.0502C5.07966 19.1805 5.15387 19.3565 5.15619 19.5407C5.15851 19.7249 5.08877 19.9027 4.96184 20.0362L3.07784 21.9208C3.01253 21.9867 2.93476 22.0389 2.84905 22.0745Z" fill="white"/>
</g>
<defs>
<clipPath id="clip0_6621_936">
<rect width="24" height="24" fill="white" transform="matrix(-1 0 0 1 24 0)"/>
</clipPath>
</defs>
</svg>
