<svg width="24" height="24" viewBox="0 0 24 24" fill="none" xmlns="http://www.w3.org/2000/svg">
<g clip-path="url(#clip0_4424_22202)">
<path d="M16.0314 1.80518H7.98179C4.48533 1.80518 2.40063 3.88888 2.40063 7.38298V15.4193C2.40063 18.9241 4.48533 21.0071 7.98179 21.0071H16.022C19.5178 21.0071 21.6025 18.9241 21.6025 15.4293V7.38363C21.6125 3.88886 19.5278 1.80518 16.0314 1.80518Z" fill="#FFC107"/>
<path d="M15.9554 18.1593C16.0905 18.0242 16.1664 17.8411 16.1664 17.6501V13.9029C16.1664 13.7119 16.0905 13.5287 15.9554 13.3937C15.8203 13.2586 15.637 13.1827 15.4459 13.1827C15.2548 13.1827 15.0715 13.2586 14.9364 13.3937C14.8013 13.5287 14.7253 13.7119 14.7253 13.9029V17.6501C14.7253 17.8411 14.8013 18.0242 14.9364 18.1593C15.0715 18.2944 15.2548 18.3702 15.4459 18.3702C15.637 18.3702 15.8203 18.2944 15.9554 18.1593Z" fill="#181818"/>
<path d="M14.726 7.02126H16.1671V5.16599C16.1671 4.97498 16.0912 4.79177 15.9561 4.65671C15.8209 4.52164 15.6377 4.4458 15.4466 4.4458C15.2555 4.4458 15.0722 4.52164 14.9371 4.65671C14.8019 4.79177 14.726 4.97498 14.726 5.16599V7.02126Z" fill="#181818"/>
<path d="M8.05822 4.65671C7.92309 4.79177 7.84717 4.97498 7.84717 5.16599V8.90847C7.84717 9.09948 7.92309 9.28265 8.05822 9.41771C8.19335 9.55277 8.37661 9.62866 8.56771 9.62866C8.75881 9.62866 8.94209 9.55277 9.07722 9.41771C9.21234 9.28265 9.28826 9.09948 9.28826 8.90847V5.16599C9.28826 4.97498 9.21234 4.79177 9.07722 4.65671C8.94209 4.52164 8.75881 4.4458 8.56771 4.4458C8.37661 4.4458 8.19335 4.52164 8.05822 4.65671Z" fill="#181818"/>
<path d="M9.28826 17.6501V15.7855H7.84717V17.6501C7.84717 17.8411 7.92309 18.0242 8.05822 18.1593C8.19335 18.2944 8.37661 18.3702 8.56771 18.3702C8.75881 18.3702 8.94209 18.2944 9.07722 18.1593C9.21234 18.0242 9.28826 17.8411 9.28826 17.6501Z" fill="#181818"/>
<path d="M6.36935 14.7215C6.71417 15.2608 7.60922 15.9062 8.56766 15.9062C9.5261 15.9062 10.4212 15.2608 10.766 14.7215C11.1108 14.1823 11.2524 13.5344 11.1646 12.8973C11.0769 12.2602 10.7658 11.6769 10.2885 11.2547C9.81129 10.8325 9.20012 10.6 8.56766 10.6C7.93519 10.6 7.32403 10.8325 6.8468 11.2547C6.36957 11.6769 6.05841 12.2602 5.97067 12.8973C5.88293 13.5344 6.02452 14.1823 6.36935 14.7215Z" fill="#4CAF50"/>
<path d="M13.7228 11.4837C14.2013 11.9046 14.8137 12.1347 15.4463 12.1312L15.447 12.1299C16.077 12.1311 16.6862 11.9004 17.162 11.4805C17.6379 11.0606 17.9484 10.4798 18.0362 9.84522C18.1239 9.21066 17.9831 8.56524 17.6395 8.02808C17.296 7.49091 16.4023 6.90868 15.4466 6.90577C14.4894 6.90286 13.5906 7.47974 13.2445 8.0184C12.8984 8.55706 12.7561 9.20513 12.8441 9.84236C12.932 10.4796 13.2442 11.0628 13.7228 11.4837Z" fill="#4CAF50"/>
</g>
<defs>
<clipPath id="clip0_4424_22202">
<rect width="24" height="24" fill="white"/>
</clipPath>
</defs>
</svg>
