<svg width="24" height="24" viewBox="0 0 24 24" fill="none" xmlns="http://www.w3.org/2000/svg">
<g clip-path="url(#clip0_6621_919)">
<path fill-rule="evenodd" clip-rule="evenodd" d="M10.0076 14.9809C10.5972 15.3748 11.2903 15.5851 11.9994 15.5851C12.9501 15.5848 13.8618 15.2069 14.5341 14.5347C15.2063 13.8624 15.5841 12.9507 15.5845 12C15.5845 11.2909 15.3742 10.5978 14.9803 10.0082C14.5863 9.41866 14.0264 8.95915 13.3713 8.6878C12.7162 8.41645 11.9954 8.34546 11.2999 8.48379C10.6045 8.62212 9.96571 8.96357 9.46432 9.46495C8.96294 9.96633 8.62149 10.6051 8.48316 11.3006C8.34483 11.996 8.41583 12.7169 8.68717 13.3719C8.95852 14.027 9.41803 14.5869 10.0076 14.9809ZM10.8043 10.2115C11.158 9.97509 11.5739 9.84894 11.9994 9.84894C12.5696 9.84973 13.1163 10.0766 13.5195 10.4798C13.9227 10.8831 14.1496 11.4297 14.1504 12C14.1504 12.4254 14.0243 12.8413 13.7879 13.1951C13.5515 13.5488 13.2156 13.8245 12.8225 13.9873C12.4295 14.1501 11.997 14.1927 11.5797 14.1097C11.1625 14.0267 10.7792 13.8218 10.4783 13.521C10.1775 13.2202 9.97264 12.8369 9.88964 12.4196C9.80664 12.0024 9.84924 11.5699 10.012 11.1768C10.1749 10.7838 10.4506 10.4478 10.8043 10.2115Z" fill="white"/>
<path fill-rule="evenodd" clip-rule="evenodd" d="M14.4687 21.6657C14.6651 21.7143 14.8665 21.7399 15.0688 21.7419C15.4746 21.7386 15.8728 21.6316 16.2256 21.4311L17.8792 20.4848C18.1707 20.3219 18.4261 20.1015 18.6299 19.837C18.8337 19.5724 18.9817 19.2692 19.0649 18.9458C19.1531 18.6253 19.1766 18.2904 19.1339 17.9608C19.0913 17.6311 18.9834 17.3132 18.8165 17.0258C18.6846 16.8579 18.5978 16.6591 18.5643 16.4482C18.5308 16.2373 18.5517 16.0214 18.625 15.8209C18.763 15.658 18.9397 15.5323 19.1389 15.4555C19.3381 15.3786 19.5534 15.3531 19.7651 15.3811C20.4366 15.3798 21.0802 15.1125 21.555 14.6377C22.0298 14.1629 22.2971 13.5193 22.2983 12.8479V11.1678C22.2971 10.4963 22.0298 9.85273 21.555 9.37793C21.0802 8.90312 20.4366 8.63582 19.7651 8.63455C19.5534 8.6626 19.3381 8.63703 19.1389 8.56018C18.9397 8.48334 18.763 8.35768 18.625 8.19474C18.5541 7.99386 18.5345 7.77844 18.5679 7.56804C18.6013 7.35764 18.6867 7.15891 18.8165 6.98991C19.1509 6.4067 19.2401 5.71456 19.0645 5.06559C18.8889 4.41663 18.4628 3.86395 17.8798 3.52902L16.2352 2.5828C15.9729 2.42899 15.6828 2.32852 15.3815 2.28717C15.0803 2.24582 14.7738 2.2644 14.4797 2.34184C14.1857 2.41929 13.9098 2.55407 13.668 2.73845C13.4262 2.92282 13.2232 3.15316 13.0707 3.41622L12.9657 3.59622C12.4017 4.57125 11.6271 4.57125 11.0631 3.59622L10.9485 3.40482C10.6387 2.87801 10.1333 2.49498 9.5423 2.3392C8.95135 2.18343 8.32278 2.26754 7.79358 2.5732L6.13934 3.52002C5.84775 3.6832 5.59235 3.90392 5.38864 4.16879C5.18494 4.43366 5.03717 4.73716 4.95431 5.06086C4.78089 5.70861 4.87016 6.39862 5.20271 6.98091C5.33535 7.14888 5.42275 7.34802 5.45657 7.55936C5.49039 7.77069 5.46951 7.98717 5.39592 8.18814C5.25794 8.35108 5.08125 8.47674 4.88205 8.55358C4.68285 8.63043 4.46754 8.656 4.25589 8.62795C3.58442 8.62922 2.94081 8.89652 2.466 9.37133C1.9912 9.84613 1.72389 10.4897 1.72263 11.1612V12.8413C1.72358 13.5126 1.99049 14.1563 2.46494 14.6313C2.93939 15.1063 3.58272 15.374 4.25409 15.3757C4.46574 15.3477 4.68105 15.3732 4.88025 15.4501C5.07945 15.5269 5.25614 15.6526 5.39412 15.8155C5.46506 16.0164 5.48471 16.2318 5.45129 16.4422C5.41786 16.6526 5.33242 16.8514 5.20271 17.0204C4.86863 17.6035 4.77962 18.2953 4.95523 18.944C5.13084 19.5927 5.55672 20.1451 6.13934 20.48L7.78578 21.4239C8.04589 21.5805 8.33514 21.6825 8.63592 21.7237C8.93671 21.765 9.24275 21.7446 9.53542 21.6639C9.82886 21.5872 10.1042 21.4531 10.3454 21.2692C10.5866 21.0854 10.7889 20.8555 10.9407 20.5928L11.0457 20.4128C11.6097 19.4378 12.3843 19.4378 12.9483 20.4128L13.0629 20.6042C13.376 21.1271 13.8801 21.5077 14.4687 21.6657ZM13.2964 18.6444C12.9114 18.3837 12.4637 18.2309 11.9997 18.2018V18.2042C11.5364 18.2359 11.0899 18.39 10.7057 18.6506C10.3215 18.9113 10.0133 19.2693 9.81263 19.688L9.70762 19.868C9.58648 20.0708 9.39102 20.2182 9.16281 20.279C9.05208 20.3087 8.93646 20.3156 8.823 20.2992C8.70954 20.2828 8.60059 20.2435 8.5028 20.1836L6.84915 19.2368C6.59992 19.088 6.41833 18.8481 6.34274 18.5678C6.26623 18.2893 6.30312 17.9918 6.44534 17.7404C6.70826 17.3567 6.86454 16.9101 6.89817 16.4462C6.9318 15.9824 6.84158 15.5179 6.63675 15.1003C6.37968 14.7118 6.02335 14.399 5.60472 14.1946C5.18609 13.9901 4.72038 13.9013 4.25589 13.9375C3.9644 13.9373 3.6849 13.8215 3.47879 13.6154C3.27268 13.4092 3.15682 13.1297 3.15666 12.8383V11.1582C3.15603 11.0137 3.18403 10.8706 3.23906 10.737C3.29409 10.6034 3.37506 10.4821 3.47727 10.3799C3.57949 10.2778 3.70093 10.197 3.83457 10.1421C3.96822 10.0872 4.11142 10.0594 4.25589 10.0602C4.7202 10.0974 5.18602 10.0098 5.60507 9.80635C6.02412 9.60295 6.38114 9.29118 6.63915 8.90336C6.84398 8.4858 6.9342 8.02131 6.90057 7.55743C6.86694 7.09356 6.71066 6.64694 6.44774 6.26329C6.37636 6.13841 6.33034 6.00066 6.31232 5.85795C6.2943 5.71524 6.30464 5.57038 6.34274 5.43167C6.41884 5.14957 6.60349 4.90905 6.85635 4.76265L8.51 3.80503C8.70854 3.69155 8.94354 3.66003 9.16497 3.71718C9.38641 3.77433 9.5768 3.91564 9.69562 4.11104L9.80063 4.30244C10.0001 4.72239 10.3083 5.0813 10.6933 5.34191C11.0783 5.60252 11.5261 5.75533 11.9901 5.78448C12.4541 5.75533 12.9018 5.60252 13.2868 5.34191C13.6718 5.0813 13.9801 4.72239 14.1795 4.30244L14.2845 4.12244C14.3428 4.0225 14.4203 3.93504 14.5124 3.86507C14.6045 3.7951 14.7096 3.74399 14.8215 3.71468C14.9334 3.68536 15.05 3.67841 15.1646 3.69422C15.2792 3.71004 15.3896 3.7483 15.4894 3.80683L17.143 4.75305C17.3916 4.90118 17.5731 5.13991 17.6494 5.41907C17.6875 5.55778 17.6979 5.70264 17.6798 5.84535C17.6618 5.98806 17.6158 6.12581 17.5444 6.25069C17.2815 6.63434 17.1252 7.08096 17.0916 7.54483C17.058 8.00871 17.1482 8.4732 17.353 8.89076C17.6108 9.27811 17.9673 9.58958 18.3858 9.79296C18.8042 9.99634 19.2694 10.0842 19.7333 10.0476C20.0248 10.0477 20.3043 10.1636 20.5104 10.3697C20.7165 10.5758 20.8323 10.8553 20.8325 11.1468V12.8269C20.8333 12.9714 20.8054 13.1147 20.7505 13.2485C20.6955 13.3822 20.6146 13.5037 20.5123 13.6059C20.4101 13.7081 20.2886 13.7891 20.1549 13.844C20.0211 13.899 19.8778 13.9269 19.7333 13.9261C19.2694 13.8894 18.8042 13.9773 18.3858 14.1807C17.9673 14.3841 17.6108 14.6956 17.353 15.0829C17.1482 15.5005 17.058 15.965 17.0916 16.4288C17.1252 16.8927 17.2815 17.3393 17.5444 17.723C17.6158 17.8479 17.6618 17.9856 17.6798 18.1283C17.6979 18.271 17.6875 18.4159 17.6494 18.5546C17.5728 18.8371 17.3872 19.0777 17.1334 19.2236L15.4798 20.1794C15.2801 20.2924 15.0442 20.3226 14.8225 20.2636C14.6009 20.2046 14.4112 20.0611 14.2941 19.8638L14.1891 19.6838C13.9897 19.2639 13.6814 18.905 13.2964 18.6444Z" fill="white"/>
</g>
<defs>
<clipPath id="clip0_6621_919">
<rect width="24" height="24" fill="white"/>
</clipPath>
</defs>
</svg>
