<svg width="16" height="16" viewBox="0 0 16 16" fill="none" xmlns="http://www.w3.org/2000/svg">
<g clip-path="url(#clip0_6689_598)">
<path d="M7.22919 10.8723L7.21997 10.878L7.21913 10.8785L7.23364 10.8695L7.22919 10.8723Z" fill="#A6A6A6"/>
<path d="M6.98984 10.9179L6.97974 10.9155L6.99106 10.9179H6.98984Z" fill="#A6A6A6"/>
<path fill-rule="evenodd" clip-rule="evenodd" d="M0.460205 7.90523C0.460205 3.74101 3.83598 0.365234 8.00021 0.365234C12.1644 0.365234 15.5402 3.74101 15.5402 7.90523C15.5402 12.0695 12.1644 15.4452 8.00021 15.4452C3.83598 15.4452 0.460205 12.0695 0.460205 7.90523ZM10.079 11.233C10.1448 11.2818 10.2243 11.3082 10.3063 11.3083C10.3933 11.3081 10.4779 11.279 10.5465 11.2255C10.5812 11.1985 10.6108 11.1657 10.6344 11.1286C10.6593 11.0893 10.6768 11.0459 10.686 11.0003L11.9133 5.1347C11.9201 5.10235 11.9225 5.06926 11.9211 5.03626C11.9211 5.02484 11.9193 5.01405 11.9175 5.00334L11.9168 4.99944C11.9138 4.98045 11.9091 4.96178 11.9032 4.94349C11.9032 4.93988 11.9011 4.936 11.8995 4.93295L11.8985 4.93108C11.8983 4.93029 11.8983 4.92943 11.8985 4.92864C11.8961 4.92278 11.8936 4.91732 11.8909 4.91147L11.8907 4.91106L11.8885 4.90622C11.8871 4.9031 11.886 4.90068 11.884 4.8971V4.89427L11.8813 4.88909L11.8747 4.87786V4.87591L11.8665 4.86224C11.833 4.81 11.7871 4.76697 11.7329 4.73694C11.6786 4.70691 11.6175 4.69085 11.5555 4.69026C11.5091 4.69037 11.4631 4.69917 11.42 4.71624L4.23403 7.51624C4.18065 7.53633 4.13536 7.57368 4.10552 7.62229C4.07744 7.667 4.06365 7.71915 4.06567 7.7719C4.06769 7.82442 4.08537 7.87514 4.11646 7.91751C4.15054 7.96323 4.19868 7.99636 4.25356 8.01185L6.43091 8.75159C6.44435 8.73031 6.46205 8.71122 6.4838 8.69568L10.6836 5.69568C10.7636 5.63853 10.8733 5.64801 10.9423 5.71805C11.0113 5.78809 11.0192 5.8979 10.9609 5.97706L8.16106 9.77706C8.15759 9.78178 8.15394 9.78631 8.15014 9.79063L10.079 11.233ZM6.7163 9.02117C6.68915 9.04056 6.65881 9.0522 6.62791 9.05652L6.76099 10.7127C6.77512 10.7587 6.79998 10.8007 6.83325 10.8354C6.86652 10.8701 6.90746 10.8966 6.95278 10.9127H6.95669C6.96252 10.915 6.96851 10.9167 6.97466 10.9179C6.97638 10.9182 6.9784 10.9182 6.98013 10.9179H6.98984L6.99146 10.9183H7.00396C7.01082 10.9197 7.01767 10.9206 7.02466 10.9211C7.01809 10.9207 7.01162 10.9198 7.00513 10.9187C7.01253 10.9201 7.01987 10.9212 7.02739 10.9219H7.03325C7.04218 10.9224 7.05089 10.9224 7.05981 10.9219C7.08991 10.9221 7.12012 10.9176 7.14888 10.9087C7.1583 10.9064 7.16727 10.9032 7.17622 10.8994L7.18403 10.8963C7.19608 10.8911 7.2078 10.8851 7.21913 10.8785L7.21685 10.8799L7.21997 10.878C7.22186 10.8769 7.22374 10.8757 7.2256 10.8746C7.2268 10.8739 7.228 10.8731 7.22919 10.8723L7.23325 10.8699L7.25317 10.8547L7.25825 10.8507C7.26585 10.8443 7.27405 10.8371 7.28325 10.8279L7.80055 9.64392C7.80316 9.6075 7.81577 9.57136 7.83903 9.53979L9.89313 6.75191L6.7163 9.02117Z" fill="#A6A6A6"/>
</g>
<defs>
<clipPath id="clip0_6689_598">
<rect width="16" height="16" fill="white"/>
</clipPath>
</defs>
</svg>
