<svg width="41" height="23" viewBox="0 0 41 23" fill="none" xmlns="http://www.w3.org/2000/svg">
<path d="M1.26172 1.9082C1.26172 1.07977 1.93329 0.408203 2.76172 0.408203H12.7617C13.5901 0.408203 14.2617 1.07977 14.2617 1.9082V3.4082H21.7617C26.3356 3.4082 35.1184 7.36951 39.9219 9.71716C41.3594 10.4197 41.3594 12.3967 39.9219 13.0992C35.1184 15.4469 26.3356 19.4082 21.7617 19.4082H14.2617V20.9082C14.2617 21.7366 13.5901 22.4082 12.7617 22.4082H2.76172C1.93329 22.4082 1.26172 21.7366 1.26172 20.9082V19.4082H0.261719V3.4082H1.26172V1.9082Z" fill="url(#paint0_linear_4421_10811)"/>
<path d="M3.56836 4.9082H2.56836V6.9082C3.61903 6.9082 3.60995 7.6147 3.58033 9.91847C3.57472 10.3555 3.56836 10.8501 3.56836 11.4082C3.56836 12.0685 3.58011 12.6404 3.59024 13.1335C3.6338 15.2545 3.64748 15.9204 2.56836 15.9082V17.9082H3.56836C4.67293 17.9082 5.06836 15.4082 5.06836 11.4082C5.06836 7.4082 4.67293 4.9082 3.56836 4.9082Z" fill="#4B4B4B"/>
<path d="M18.4017 5.9082H18.0684C18.4096 10.1778 18.4751 12.5942 18.0684 16.9082H18.4017C18.723 16.9082 18.8815 15.3503 19.0124 14.0634C19.0315 13.8758 19.05 13.694 19.0684 13.5236C19.2451 11.8808 19.2451 10.9356 19.0684 9.29282C19.05 9.12242 19.0315 8.94059 19.0124 8.75301C18.8815 7.4661 18.723 5.9082 18.4017 5.9082Z" fill="#4B4B4B"/>
<defs>
<linearGradient id="paint0_linear_4421_10811" x1="20.6309" y1="1.4082" x2="20.6309" y2="21.5004" gradientUnits="userSpaceOnUse">
<stop stop-color="#FFBF00"/>
<stop offset="0.099536" stop-color="#AA8002"/>
<stop offset="0.099636" stop-color="#FFC107"/>
<stop offset="0.895793" stop-color="#FFC107"/>
<stop offset="0.895793" stop-color="#AA8002"/>
<stop offset="1" stop-color="#FFBF00"/>
</linearGradient>
</defs>
</svg>
