<svg width="24" height="24" viewBox="0 0 24 24" fill="none" xmlns="http://www.w3.org/2000/svg">
<g clip-path="url(#clip0_4424_22206)">
<path d="M6.6001 13.1953C6.6001 9.8816 6.83888 7.19531 7.13343 7.19531H13.2668C13.5613 7.19531 13.8001 9.8816 13.8001 13.1953C13.8001 16.509 13.5613 19.1953 13.2668 19.1953H7.13343C6.83888 19.1953 6.6001 16.509 6.6001 13.1953Z" fill="#4CAF50"/>
<path d="M10.9447 14.3159V16.2317L10.9459 16.2335C11.1867 16.1568 11.4042 16.0208 11.5786 15.838C11.7531 15.6552 11.8789 15.4318 11.9442 15.1877C11.9388 14.6892 11.7814 14.611 11.4544 14.4958L10.9447 14.3159Z" fill="#FFC107"/>
<path d="M8.93639 12.0199L9.44492 12.1998L9.44609 12.1992V10.2196C9.20285 10.2972 8.98374 10.4356 8.80867 10.6215C8.63361 10.8074 8.50838 11.0343 8.44544 11.2818C8.44544 11.8253 8.59683 11.9 8.93639 12.0199Z" fill="#FFC107"/>
<path fill-rule="evenodd" clip-rule="evenodd" d="M4.39829 19.601C6.41329 21.616 9.14496 22.7492 11.9946 22.7524C14.8439 22.7484 17.575 21.6147 19.5897 19.5999C21.6045 17.585 22.7379 14.8535 22.7417 12.0041C22.7393 11.8282 22.6758 11.6588 22.5624 11.5243C22.449 11.3898 22.2925 11.2987 22.1195 11.2665C21.7498 11.3162 21.3782 11.3416 21.0052 11.3427C18.3475 11.3427 16.4531 9.65013 15.1009 8.17492C13.9772 6.95527 12.6894 5.26763 12.6894 3.02751C12.6895 2.69545 12.7093 2.36354 12.7492 2.03389C12.7466 2.0302 12.7455 2.02606 12.7457 2.02158V2.00752C12.743 1.80908 12.6633 1.61946 12.5231 1.47907C12.3828 1.33869 12.193 1.25865 11.9946 1.25586C9.14496 1.25904 6.41329 2.39281 4.39829 4.40781C2.38329 6.42281 1.24951 9.15448 1.24634 12.0041C1.24951 14.8538 2.38329 17.586 4.39829 19.601ZM7.16591 14.422C7.30622 14.2816 7.49587 14.2014 7.69436 14.1988C7.89269 14.1994 8.08246 14.2783 8.22281 14.4185C8.36316 14.5586 8.44215 14.7486 8.44309 14.9469C8.44309 15.1281 8.55557 15.3264 8.83094 15.6324C9.00454 15.8174 9.2129 15.967 9.44375 16.0724V13.7881L8.44309 13.4407C7.9789 13.3148 7.57383 13.029 7.29949 12.6339C7.02515 12.2389 6.89912 11.7595 6.94328 11.2806C6.94328 10.1527 8.1124 8.9339 9.44844 8.67173C9.47176 8.48955 9.56023 8.32214 9.69802 8.20069C9.8358 8.07925 10.0135 8.01172 10.1972 8.01146C10.3959 8.01225 10.5855 8.092 10.7256 8.23292C10.8658 8.37384 10.9451 8.56497 10.9447 8.76371V8.77953C11.6076 8.99491 12.207 9.37094 12.6894 9.87392C13.1375 10.3027 13.4069 10.8848 13.444 11.5038C13.4415 11.7013 13.3622 11.8902 13.2226 12.0299C13.0829 12.1696 12.894 12.2493 12.6965 12.2519C12.4983 12.2499 12.3086 12.1708 12.168 12.0311C12.0275 11.8913 11.9473 11.702 11.9442 11.5038C11.9442 11.154 11.5237 10.6848 10.9447 10.3848V12.7247L11.9442 13.0757C12.344 13.1802 12.7007 13.4068 12.966 13.7236C13.2312 14.0405 13.3916 14.4319 13.4241 14.8438C13.4383 14.9536 13.445 15.0641 13.444 15.1748V15.2346C13.396 16.3366 12.2292 17.5259 10.9447 17.7766C10.9396 17.9722 10.8592 18.158 10.7198 18.2951C10.5803 18.4323 10.3928 18.5105 10.1972 18.5125C9.99868 18.5098 9.80903 18.4297 9.66872 18.2893C9.52841 18.1489 9.44858 17.9587 9.44609 17.7602V17.6712C8.78094 17.4589 8.17977 17.0826 7.69788 16.5774C7.25021 16.1496 6.98076 15.5685 6.94328 14.9504C6.94577 14.7519 7.0256 14.5624 7.16591 14.422Z" fill="#FFC107"/>
<path d="M16.9986 7.75666C16.9002 7.75699 16.8026 7.73768 16.7116 7.69988C16.6207 7.66208 16.5382 7.60653 16.4689 7.53649C16.3296 7.39526 16.2515 7.20485 16.2515 7.00646C16.2515 6.80807 16.3296 6.61765 16.4689 6.47642L20.1877 2.75989H17.9969C17.7984 2.75848 17.6085 2.67901 17.4682 2.53868C17.3278 2.39836 17.2484 2.20843 17.247 2.00998C17.2484 1.81153 17.3278 1.62161 17.4682 1.48128C17.6085 1.34095 17.7984 1.26149 17.9969 1.26008H21.9489C21.9661 1.2589 21.9833 1.2583 22.0005 1.2583C22.1993 1.2583 22.39 1.33727 22.5306 1.47785C22.6711 1.61842 22.7501 1.80908 22.7501 2.00788C22.7501 2.03256 22.7489 2.05712 22.7465 2.08147V6.00968C22.7451 6.20813 22.6656 6.39806 22.5253 6.53838C22.385 6.67871 22.195 6.75817 21.9966 6.75959C21.7981 6.75817 21.6082 6.67871 21.4679 6.53838C21.3275 6.39806 21.2481 6.20813 21.2467 6.00968V3.82103L17.5284 7.53709C17.4591 7.60702 17.3765 7.66246 17.2856 7.70016C17.1946 7.73786 17.0971 7.75706 16.9986 7.75666Z" fill="#4CAF50"/>
</g>
<defs>
<clipPath id="clip0_4424_22206">
<rect width="24" height="24" fill="white"/>
</clipPath>
</defs>
</svg>
