<svg width="632" height="613" viewBox="0 0 632 613" fill="none" xmlns="http://www.w3.org/2000/svg">
<g clip-path="url(#clip0_4426_132937)">
<g opacity="0.5">
<path d="M567.014 92.1582C528.296 3.87541 435.361 -29.3649 362.033 29.9105C333.399 53.0355 315.534 89.8395 280.473 104.608C247.575 118.458 205.9 114.381 170.325 121.882C94.5698 137.755 -7.42307 197.979 0.357898 290.76C3.76596 331.423 31.1861 376.568 44.7405 414.601C60.3024 458.362 69.6396 513.108 110.832 539.268C181.452 584.18 266.638 547.469 330.255 511.257C364.491 491.789 383.337 479.821 420.203 486.497C454.331 492.722 485.065 514.509 518.415 488.661C543.454 469.255 545.523 429.93 566.548 406.836C590.233 380.816 614.245 378.933 626.554 339.826C641.478 292.378 619.489 262.733 604.628 220.342C589.766 177.951 585.253 133.693 567.014 92.1582Z" fill="#FFD45F"/>
</g>
<path d="M272.396 613.001C405.252 613.001 512.952 606.291 512.952 598.014C512.952 589.738 405.252 583.028 272.396 583.028C139.54 583.028 31.8397 589.738 31.8397 598.014C31.8397 606.291 139.54 613.001 272.396 613.001Z" fill="#FFC107"/>
<path opacity="0.8" d="M272.396 613.001C405.252 613.001 512.952 606.291 512.952 598.014C512.952 589.738 405.252 583.028 272.396 583.028C139.54 583.028 31.8397 589.738 31.8397 598.014C31.8397 606.291 139.54 613.001 272.396 613.001Z" fill="white"/>
<path d="M453.163 28.1523H211.284C194.585 28.1523 181.047 41.6898 181.047 58.3892V569.038C181.047 585.738 194.585 599.275 211.284 599.275H453.163C469.863 599.275 483.4 585.738 483.4 569.038V58.3892C483.4 41.6898 469.863 28.1523 453.163 28.1523Z" fill="#4B4B4B"/>
<path d="M469.97 90.8516H194.493V536.545H469.97V90.8516Z" fill="#A6A6A6" stroke="#4B4B4B" stroke-width="1.34" stroke-miterlimit="10"/>
<path d="M374.461 271.326C397.78 248.007 397.78 210.2 374.461 186.881C351.142 163.563 313.335 163.563 290.017 186.881C266.698 210.2 266.698 248.007 290.017 271.326C313.335 294.644 351.142 294.644 374.461 271.326Z" fill="#FFD45F"/>
<path d="M410.617 508.518H253.846C253.493 508.52 253.144 508.453 252.817 508.319C252.49 508.185 252.194 507.989 251.943 507.74C251.693 507.491 251.495 507.195 251.359 506.87C251.224 506.544 251.154 506.194 251.154 505.842C251.152 505.488 251.22 505.137 251.355 504.809C251.489 504.481 251.687 504.184 251.938 503.933C252.188 503.683 252.486 503.485 252.813 503.35C253.141 503.216 253.492 503.147 253.846 503.149H410.617C410.97 503.149 411.319 503.219 411.645 503.355C411.971 503.49 412.266 503.689 412.515 503.939C412.764 504.189 412.961 504.486 413.094 504.813C413.228 505.139 413.296 505.489 413.294 505.842C413.294 506.552 413.012 507.232 412.51 507.734C412.008 508.236 411.327 508.518 410.617 508.518Z" fill="#FFC107"/>
<path d="M415.721 322.382H248.726C245.28 322.382 242.486 325.176 242.486 328.622V348.308C242.486 351.754 245.28 354.548 248.726 354.548H415.721C419.168 354.548 421.962 351.754 421.962 348.308V328.622C421.962 325.176 419.168 322.382 415.721 322.382Z" fill="#FFD45F"/>
<path d="M415.721 382.56H248.726C245.28 382.56 242.486 385.353 242.486 388.8V408.486C242.486 411.932 245.28 414.726 248.726 414.726H415.721C419.168 414.726 421.962 411.932 421.962 408.486V388.8C421.962 385.353 419.168 382.56 415.721 382.56Z" fill="#FFD45F"/>
<path d="M361.955 258.89L344.385 248.774V240.417C346.929 237.34 348.772 233.744 349.785 229.882C350.39 230.097 351.027 230.207 351.668 230.209C353.847 230.209 355.232 223.455 355.465 218.631C358.002 213.262 354.547 210.118 354.547 210.118C354.547 210.118 355.979 208.687 356.928 202.944C357.878 197.202 353.582 199.599 350.237 194.339C346.891 189.079 344.494 183.352 333.508 183.352C330.48 183.252 327.493 184.066 324.934 185.687C322.375 187.307 320.363 189.661 319.159 192.44C316.425 192.45 313.7 192.768 311.036 193.389C307.675 194.339 306.726 205.341 309.589 209.652C310.871 212.007 311.555 214.642 311.581 217.324C310.818 216.39 310.025 216.141 309.589 218.257C308.64 223.035 312.468 229.726 312.468 229.726L314.444 229.166C315.44 233.294 317.361 237.141 320.062 240.417V248.774L302.493 258.89C300.441 260.074 298.737 261.778 297.551 263.829C296.366 265.88 295.741 268.207 295.739 270.577V276.366C306.188 284.438 319.02 288.817 332.224 288.817C345.428 288.817 358.259 284.438 368.709 276.366V270.577C368.71 268.207 368.086 265.878 366.9 263.826C365.715 261.775 364.009 260.072 361.955 258.89Z" fill="#4B4B4B"/>
<path d="M265.222 406.712C264.819 406.706 264.434 406.544 264.148 406.26C263.995 406.123 263.873 405.955 263.79 405.768C263.706 405.58 263.664 405.376 263.666 405.171C263.67 404.89 263.751 404.616 263.899 404.377L266.7 399.896L261.238 400.067C261.032 400.08 260.826 400.049 260.633 399.976C260.44 399.904 260.264 399.792 260.117 399.647C259.864 399.362 259.724 398.993 259.724 398.612C259.724 398.23 259.864 397.862 260.117 397.577C260.261 397.426 260.436 397.309 260.629 397.234C260.823 397.159 261.031 397.127 261.238 397.141L266.622 397.343L263.852 392.877C263.702 392.634 263.621 392.354 263.619 392.068C263.617 391.862 263.66 391.659 263.743 391.471C263.826 391.283 263.948 391.115 264.101 390.979C264.387 390.695 264.772 390.533 265.175 390.527C265.44 390.529 265.699 390.606 265.923 390.749C266.146 390.892 266.324 391.096 266.436 391.336L269.097 396.145L271.727 391.368C271.851 391.113 272.044 390.897 272.282 390.743C272.521 390.59 272.797 390.504 273.081 390.496C273.277 390.497 273.472 390.539 273.651 390.62C273.831 390.7 273.991 390.817 274.123 390.963C274.409 391.259 274.565 391.656 274.559 392.068C274.558 392.335 274.488 392.598 274.357 392.83L271.54 397.343L277.002 397.141C277.209 397.127 277.417 397.159 277.611 397.234C277.805 397.309 277.979 397.426 278.123 397.577C278.388 397.852 278.533 398.222 278.527 398.604C278.526 398.99 278.382 399.361 278.123 399.647C277.976 399.792 277.8 399.904 277.607 399.976C277.414 400.049 277.208 400.08 277.002 400.067L271.509 399.896L274.248 404.331C274.401 404.578 274.482 404.864 274.481 405.155C274.481 405.568 274.317 405.964 274.025 406.256C273.733 406.548 273.338 406.712 272.925 406.712C272.658 406.708 272.398 406.627 272.177 406.477C271.956 406.328 271.783 406.117 271.68 405.871L269.081 401.203L266.498 405.871C266.383 406.115 266.203 406.323 265.978 406.471C265.753 406.62 265.491 406.703 265.222 406.712Z" fill="#4B4B4B"/>
<path d="M290.463 406.712C290.06 406.706 289.676 406.544 289.39 406.26C289.236 406.123 289.114 405.955 289.031 405.768C288.948 405.58 288.906 405.376 288.907 405.171C288.912 404.89 288.993 404.616 289.141 404.377L291.942 399.896L286.495 400.067C286.287 400.076 286.08 400.044 285.884 399.972C285.689 399.9 285.511 399.789 285.359 399.647C285.152 399.433 285.015 399.163 284.964 398.871C284.913 398.578 284.952 398.277 285.074 398.007C285.197 397.737 285.398 397.51 285.651 397.355C285.905 397.201 286.199 397.126 286.495 397.141L291.864 397.343L289.094 392.877C288.943 392.634 288.862 392.354 288.86 392.068C288.859 391.862 288.901 391.659 288.984 391.471C289.068 391.283 289.19 391.115 289.343 390.979C289.629 390.695 290.014 390.533 290.417 390.527C290.682 390.529 290.941 390.606 291.164 390.749C291.387 390.892 291.565 391.096 291.677 391.336L294.338 396.145L296.968 391.368C297.093 391.113 297.285 390.897 297.524 390.743C297.762 390.59 298.038 390.504 298.322 390.496C298.519 390.495 298.714 390.537 298.894 390.617C299.074 390.698 299.234 390.815 299.365 390.963C299.509 391.108 299.623 391.281 299.701 391.47C299.778 391.66 299.817 391.863 299.816 392.068C299.81 392.337 299.735 392.599 299.598 392.83L296.781 397.343L302.259 397.172C302.464 397.158 302.67 397.19 302.861 397.266C303.052 397.341 303.224 397.458 303.364 397.608C303.629 397.883 303.775 398.253 303.769 398.635C303.768 399.021 303.624 399.392 303.364 399.678C303.221 399.822 303.048 399.935 302.857 400.007C302.667 400.08 302.463 400.111 302.259 400.098L296.75 399.927L299.489 404.362C299.643 404.609 299.724 404.895 299.723 405.187C299.723 405.599 299.559 405.995 299.267 406.287C298.975 406.579 298.579 406.743 298.166 406.743C297.9 406.739 297.64 406.658 297.418 406.508C297.197 406.359 297.025 406.149 296.922 405.902L294.323 401.234L291.739 405.902C291.62 406.141 291.439 406.342 291.214 406.485C290.989 406.627 290.73 406.706 290.463 406.712Z" fill="#4B4B4B"/>
<path d="M315.72 406.712C315.312 406.71 314.921 406.548 314.631 406.26C314.478 406.123 314.356 405.955 314.272 405.768C314.189 405.58 314.147 405.376 314.149 405.171C314.153 404.89 314.234 404.616 314.382 404.377L317.183 399.896L311.736 400.067C311.443 400.078 311.153 400.003 310.903 399.849C310.653 399.695 310.454 399.47 310.332 399.203C310.211 398.936 310.171 398.639 310.219 398.349C310.266 398.06 310.399 397.791 310.6 397.577C310.747 397.427 310.925 397.31 311.121 397.235C311.317 397.16 311.527 397.128 311.736 397.141L317.105 397.343L314.335 392.877C314.185 392.634 314.104 392.354 314.102 392.068C314.107 391.864 314.152 391.662 314.235 391.475C314.317 391.288 314.436 391.12 314.584 390.979C314.874 390.691 315.265 390.529 315.674 390.527C315.936 390.532 316.192 390.61 316.412 390.753C316.632 390.896 316.808 391.098 316.919 391.336L319.58 396.145L322.21 391.368C322.334 391.113 322.526 390.897 322.765 390.743C323.004 390.59 323.28 390.504 323.564 390.496C323.761 390.495 323.955 390.537 324.135 390.617C324.315 390.698 324.476 390.815 324.606 390.963C324.75 391.108 324.865 391.281 324.942 391.47C325.019 391.66 325.059 391.863 325.057 392.068C325.052 392.337 324.977 392.599 324.84 392.83L322.023 397.343L327.501 397.141C327.702 397.121 327.905 397.144 328.097 397.209C328.289 397.274 328.464 397.38 328.612 397.518C328.759 397.657 328.875 397.826 328.952 398.013C329.029 398.2 329.065 398.402 329.057 398.604C329.06 398.988 328.922 399.359 328.668 399.647C328.521 399.792 328.346 399.904 328.153 399.976C327.959 400.049 327.753 400.08 327.547 400.067L322.054 399.896L324.777 404.331C324.931 404.578 325.012 404.864 325.011 405.155C325.006 405.36 324.961 405.561 324.878 405.748C324.795 405.935 324.676 406.104 324.528 406.245C324.393 406.39 324.229 406.507 324.047 406.587C323.865 406.668 323.669 406.71 323.47 406.712C323.206 406.707 322.948 406.625 322.73 406.476C322.511 406.326 322.341 406.116 322.241 405.871L319.626 401.203L317.043 405.871C316.927 406.124 316.74 406.337 316.505 406.486C316.271 406.635 315.998 406.713 315.72 406.712Z" fill="#4B4B4B"/>
<path d="M340.962 406.712C340.553 406.71 340.162 406.548 339.872 406.26C339.579 405.973 339.411 405.582 339.406 405.171C339.401 404.891 339.476 404.616 339.623 404.377L342.425 399.896L336.978 400.067C336.77 400.076 336.562 400.044 336.367 399.972C336.172 399.9 335.993 399.789 335.842 399.647C335.588 399.362 335.448 398.993 335.448 398.612C335.448 398.23 335.588 397.862 335.842 397.577C335.992 397.432 336.17 397.318 336.366 397.243C336.561 397.168 336.769 397.134 336.978 397.141L342.362 397.343L339.608 392.877C339.457 392.634 339.376 392.354 339.374 392.068C339.379 391.864 339.424 391.662 339.507 391.475C339.59 391.288 339.709 391.12 339.857 390.979C340.147 390.691 340.538 390.529 340.946 390.527C341.211 390.529 341.471 390.606 341.694 390.749C341.917 390.892 342.095 391.096 342.207 391.336L344.852 396.145L347.482 391.368C347.607 391.113 347.799 390.897 348.038 390.743C348.276 390.59 348.552 390.504 348.836 390.496C349.033 390.495 349.228 390.537 349.408 390.617C349.588 390.698 349.748 390.815 349.879 390.963C350.023 391.108 350.137 391.281 350.214 391.47C350.292 391.66 350.331 391.863 350.33 392.068C350.324 392.337 350.249 392.599 350.112 392.83L347.295 397.343L352.773 397.141C352.975 397.121 353.178 397.144 353.37 397.209C353.561 397.274 353.737 397.38 353.884 397.518C354.032 397.657 354.148 397.826 354.225 398.013C354.301 398.2 354.337 398.402 354.329 398.604C354.333 398.988 354.194 399.359 353.94 399.647C353.794 399.792 353.618 399.904 353.425 399.976C353.232 400.049 353.026 400.08 352.82 400.067L347.327 399.896L350.05 404.331C350.203 404.578 350.284 404.864 350.283 405.155C350.285 405.361 350.243 405.564 350.159 405.752C350.076 405.94 349.954 406.108 349.801 406.245C349.665 406.39 349.502 406.507 349.32 406.587C349.138 406.668 348.942 406.71 348.743 406.712C348.478 406.707 348.221 406.625 348.002 406.476C347.784 406.326 347.614 406.116 347.513 405.871L344.899 401.203L342.316 405.871C342.197 406.128 342.005 406.345 341.765 406.495C341.524 406.644 341.245 406.719 340.962 406.712Z" fill="#4B4B4B"/>
<path d="M366.203 406.712C365.795 406.71 365.404 406.548 365.114 406.26C364.873 406.016 364.719 405.699 364.677 405.359C364.635 405.018 364.706 404.673 364.88 404.377L367.666 399.896L362.219 400.067C362.011 400.076 361.804 400.044 361.609 399.972C361.414 399.9 361.235 399.789 361.083 399.647C360.83 399.362 360.689 398.993 360.689 398.612C360.689 398.23 360.83 397.862 361.083 397.577C361.234 397.432 361.412 397.318 361.607 397.243C361.802 397.168 362.01 397.134 362.219 397.141L367.604 397.343L364.834 392.877C364.683 392.634 364.602 392.354 364.6 392.068C364.606 391.657 364.774 391.266 365.067 390.979C365.357 390.691 365.748 390.529 366.156 390.527C366.422 390.529 366.681 390.606 366.904 390.749C367.127 390.892 367.305 391.096 367.417 391.336L370.063 396.145L372.693 391.368C372.817 391.113 373.009 390.897 373.248 390.743C373.487 390.59 373.763 390.504 374.046 390.496C374.246 390.495 374.443 390.536 374.625 390.617C374.808 390.697 374.971 390.815 375.105 390.963C375.39 391.259 375.547 391.656 375.54 392.068C375.535 392.337 375.46 392.599 375.322 392.83L372.506 397.343L377.984 397.141C378.185 397.121 378.388 397.144 378.58 397.209C378.772 397.274 378.947 397.38 379.095 397.518C379.242 397.657 379.358 397.826 379.435 398.013C379.512 398.2 379.547 398.402 379.54 398.604C379.543 398.988 379.404 399.359 379.151 399.647C379.004 399.792 378.828 399.904 378.635 399.976C378.442 400.049 378.236 400.08 378.03 400.067L372.537 399.896L375.26 404.331C375.414 404.578 375.495 404.864 375.494 405.155C375.495 405.361 375.453 405.564 375.37 405.752C375.287 405.94 375.164 406.108 375.011 406.245C374.876 406.39 374.712 406.507 374.53 406.587C374.348 406.668 374.152 406.71 373.953 406.712C373.688 406.707 373.431 406.625 373.212 406.476C372.994 406.326 372.824 406.116 372.724 405.871L370.109 401.203L367.526 405.871C367.409 406.124 367.223 406.337 366.988 406.486C366.754 406.635 366.481 406.713 366.203 406.712Z" fill="#4B4B4B"/>
<path d="M391.445 406.712C391.042 406.706 390.657 406.544 390.371 406.26C390.218 406.123 390.095 405.955 390.012 405.768C389.929 405.58 389.887 405.376 389.888 405.171C389.893 404.89 389.974 404.616 390.122 404.377L392.907 399.896L387.461 400.067C387.26 400.082 387.059 400.055 386.87 399.988C386.68 399.921 386.507 399.816 386.36 399.678C386.214 399.54 386.098 399.374 386.019 399.189C385.941 399.004 385.902 398.805 385.905 398.604C385.904 398.413 385.94 398.225 386.012 398.048C386.084 397.872 386.191 397.712 386.325 397.577C386.468 397.426 386.643 397.309 386.836 397.234C387.03 397.159 387.238 397.127 387.445 397.141L392.83 397.343L390.06 392.877C389.909 392.634 389.828 392.354 389.826 392.068C389.832 391.657 390 391.266 390.293 390.979C390.583 390.691 390.974 390.529 391.382 390.527C391.647 390.529 391.907 390.606 392.13 390.749C392.353 390.892 392.531 391.096 392.643 391.336L395.288 396.145L397.934 391.368C398.057 391.115 398.247 390.901 398.483 390.747C398.718 390.594 398.991 390.507 399.272 390.496C399.472 390.495 399.669 390.536 399.851 390.617C400.034 390.697 400.197 390.815 400.33 390.963C400.616 391.259 400.773 391.656 400.766 392.068C400.765 392.335 400.696 392.598 400.564 392.83L397.747 397.343L403.209 397.141C403.417 397.127 403.625 397.159 403.818 397.234C404.012 397.309 404.187 397.426 404.33 397.577C404.595 397.852 404.741 398.222 404.734 398.604C404.733 398.99 404.589 399.361 404.33 399.647C404.183 399.792 404.008 399.904 403.815 399.976C403.621 400.049 403.415 400.08 403.209 400.067L397.716 399.896L400.439 404.331C400.593 404.578 400.674 404.864 400.673 405.155C400.667 405.566 400.499 405.957 400.206 406.245C399.922 406.534 399.537 406.702 399.132 406.712C398.868 406.707 398.61 406.625 398.392 406.476C398.173 406.326 398.003 406.116 397.903 405.871L395.288 401.203L392.705 405.871C392.593 406.114 392.416 406.321 392.194 406.47C391.971 406.618 391.712 406.702 391.445 406.712Z" fill="#4B4B4B"/>
<g style="mix-blend-mode:multiply">
<path d="M469.97 91.4424H194.493V108.701H469.97V91.4424Z" fill="#FFC107"/>
</g>
<path d="M362.173 59.6496H302.259C301.178 59.6496 300.141 59.22 299.376 58.4554C298.612 57.6907 298.182 56.6537 298.182 55.5723C298.182 54.491 298.612 53.4539 299.376 52.6893C300.141 51.9247 301.178 51.4951 302.259 51.4951H362.173C363.254 51.4951 364.291 51.9247 365.056 52.6893C365.82 53.4539 366.25 54.491 366.25 55.5723C366.25 56.6537 365.82 57.6907 365.056 58.4554C364.291 59.22 363.254 59.6496 362.173 59.6496Z" fill="#FFC107" stroke="#4B4B4B" stroke-width="1.34" stroke-linecap="round" stroke-linejoin="round"/>
<path d="M348.556 561.725C348.559 558.492 347.603 555.33 345.809 552.641C344.014 549.951 341.463 547.855 338.476 546.616C335.49 545.377 332.203 545.052 329.032 545.682C325.861 546.312 322.948 547.869 320.662 550.155C318.376 552.441 316.819 555.354 316.189 558.525C315.559 561.696 315.884 564.983 317.123 567.969C318.361 570.956 320.458 573.508 323.148 575.302C325.837 577.096 328.998 578.052 332.232 578.049C336.56 578.045 340.71 576.324 343.77 573.263C346.831 570.203 348.552 566.053 348.556 561.725Z" fill="#FFC107"/>
<path d="M340.511 553.445H323.953V570.003H340.511V553.445Z" fill="#FFC107" stroke="#4B4B4B" stroke-width="1.34" stroke-linecap="round" stroke-linejoin="round"/>
<path d="M121.243 264.647L70.0131 247.918L65.4534 235.857L55.027 235.53L36.1348 231.951L38.4224 235.857L62.1854 253.131L68.0523 256.057L121.663 284.037L121.243 264.647Z" fill="white" stroke="#4B4B4B" stroke-miterlimit="10"/>
<path d="M65.4534 235.857L60.567 232.932L50.7941 236.511L52.4281 238.472L65.4534 235.857Z" fill="white" stroke="#4B4B4B" stroke-linejoin="round"/>
<path d="M121.243 264.647L70.0131 247.918L65.4534 235.857L55.027 235.53L36.1348 231.951L38.4224 235.857L62.1854 253.131L68.0523 256.057L121.663 284.037L121.243 264.647Z" fill="white"/>
<mask id="mask0_4426_132937" style="mask-type:luminance" maskUnits="userSpaceOnUse" x="36" y="231" width="86" height="54">
<path d="M121.243 264.631L69.9975 247.902L65.4379 235.857L55.0269 235.53L36.1348 231.951L38.4068 235.857L62.1854 253.115L68.0523 256.041L121.648 284.037L121.243 264.631Z" fill="white"/>
</mask>
<g mask="url(#mask0_4426_132937)">
<path opacity="0.5" d="M121.243 264.647L70.0131 247.918L65.4534 235.857L55.027 235.53L36.1348 231.951L38.4224 235.857L62.1854 253.131L68.0523 256.057L121.663 284.037L121.243 264.647Z" fill="#FFC107" stroke="#4B4B4B" stroke-miterlimit="10"/>
</g>
<path d="M121.243 264.647L70.0131 247.918L65.4534 235.857L55.027 235.53L36.1348 231.951L38.4224 235.857L62.1854 253.131L68.0523 256.057L121.663 284.037L121.243 264.647Z" stroke="#4B4B4B" stroke-miterlimit="10"/>
<path d="M65.4534 235.857L60.567 232.932L50.7941 236.511L52.4281 238.472L65.4534 235.857Z" fill="white"/>
<mask id="mask1_4426_132937" style="mask-type:luminance" maskUnits="userSpaceOnUse" x="50" y="232" width="16" height="7">
<path d="M65.4378 235.857L60.5514 232.932L50.7941 236.511L52.4125 238.456L65.4378 235.857Z" fill="white"/>
</mask>
<g mask="url(#mask1_4426_132937)">
<path opacity="0.5" d="M65.4534 235.857L60.567 232.932L50.7941 236.511L52.4281 238.472L65.4534 235.857Z" fill="#FFC107" stroke="#4B4B4B" stroke-linejoin="round"/>
</g>
<path d="M65.4534 235.857L60.567 232.932L50.7941 236.511L52.4281 238.472L65.4534 235.857Z" stroke="#4B4B4B" stroke-linejoin="round"/>
<path d="M132.121 156.056C132.121 156.056 131.327 163.059 133.303 167.556C135.28 172.053 146.251 187.289 146.251 187.289L125.771 203.706C125.771 203.706 117.275 186.588 115.656 183.818C114.038 181.048 112.093 169.128 117.368 160.584C122.644 152.041 130.238 149.738 132.121 156.056Z" fill="white"/>
<mask id="mask2_4426_132937" style="mask-type:luminance" maskUnits="userSpaceOnUse" x="113" y="152" width="34" height="52">
<path d="M132.121 156.056C132.121 156.056 131.327 163.059 133.303 167.556C135.28 172.053 146.251 187.289 146.251 187.289L125.771 203.706C125.771 203.706 117.275 186.588 115.656 183.818C114.038 181.048 112.093 169.128 117.368 160.584C122.644 152.041 130.238 149.738 132.121 156.056Z" fill="white"/>
</mask>
<g mask="url(#mask2_4426_132937)">
<g style="mix-blend-mode:multiply" opacity="0.5">
<path d="M121.601 178.574L130.487 196.984L125.772 203.722L116.839 187.787L121.601 178.574Z" fill="#FFC107"/>
</g>
</g>
<path d="M132.121 156.056C132.121 156.056 131.327 163.059 133.303 167.556C135.28 172.053 146.251 187.289 146.251 187.289L125.771 203.706C125.771 203.706 117.275 186.588 115.656 183.818C114.038 181.048 112.093 169.128 117.368 160.584C122.644 152.041 130.238 149.738 132.121 156.056Z" stroke="#4B4B4B" stroke-miterlimit="10"/>
<path d="M138.47 143.233C137.209 135.452 128.292 119.626 114.147 120.233C104.965 120.637 100.67 122.489 96.6861 124.746C93.4388 126.659 90.4119 128.924 87.6602 131.5C80.7507 139.794 78.3231 142.066 79.6614 148.415C79.5516 150.948 79.9484 153.477 80.8285 155.854C82.9449 161.503 84.3922 165.191 86.2285 167.883C85.6683 170.513 84.2055 177.454 84.1277 179.041C84.0498 180.629 88.7962 179.524 91.1928 178.917C95.6435 188.876 103.798 195.786 106.335 196.58C110.754 197.965 117.741 190.697 121.445 185.064C125.149 179.43 122.348 173.097 122.363 170.576C122.379 168.055 130.689 162.515 133.77 160.756C136.851 158.998 139.715 150.999 138.47 143.233Z" fill="white"/>
<mask id="mask3_4426_132937" style="mask-type:luminance" maskUnits="userSpaceOnUse" x="79" y="120" width="60" height="77">
<path d="M138.47 143.233C137.209 135.452 128.292 119.626 114.147 120.233C104.965 120.637 100.67 122.489 96.6861 124.746C93.4388 126.659 90.4119 128.924 87.6602 131.5C80.7507 139.794 78.3231 142.066 79.6614 148.415C79.5516 150.948 79.9484 153.477 80.8285 155.854C82.9449 161.503 84.3922 165.191 86.2285 167.883C85.6683 170.513 84.2055 177.454 84.1277 179.041C84.0498 180.629 88.7962 179.524 91.1928 178.917C95.6435 188.876 103.798 195.786 106.335 196.58C110.754 197.965 117.741 190.697 121.445 185.064C125.149 179.43 122.348 173.097 122.363 170.576C122.379 168.055 130.689 162.515 133.77 160.756C136.851 158.998 139.715 150.999 138.47 143.233Z" fill="white"/>
</mask>
<g mask="url(#mask3_4426_132937)">
<g style="mix-blend-mode:multiply" opacity="0.5">
<path d="M79.7236 148.415C79.6138 150.948 80.0106 153.477 80.8908 155.854C83.0072 161.503 84.4544 165.191 86.2908 167.883C85.7305 170.513 84.2677 177.454 84.1899 179.041C84.1121 180.629 88.8585 179.524 91.255 178.917C95.7057 188.876 103.86 195.786 106.397 196.58C110.816 197.965 117.804 190.697 121.507 185.064C122.433 183.657 123.033 182.063 123.266 180.395C123.064 179.664 122.924 179.212 122.924 179.212C122.924 179.212 120.838 187.227 116.699 186.184C112.559 185.142 106.226 176.847 102.693 173.984C99.1605 171.12 100.608 167.354 99.9074 163.09C99.2072 158.826 88.7495 155.076 88.0492 152.633C87.349 150.189 89.7922 140.074 89.7922 140.074C89.7922 140.074 93.7605 134.783 92.9046 136.962C92.2996 138.851 92.0802 140.842 92.2593 142.818C92.4384 144.793 93.0124 146.713 93.9472 148.462C94.6032 149.843 95.6438 151.004 96.9441 151.808C98.2443 152.611 99.7488 153.022 101.277 152.991L105.074 134.176L97.0596 127.547L87.7224 131.437C80.7507 139.794 78.3697 142.066 79.7236 148.415Z" fill="#FFC107"/>
</g>
</g>
<path d="M138.47 143.233C137.209 135.452 128.292 119.626 114.147 120.233C104.965 120.637 100.67 122.489 96.6861 124.746C93.4388 126.659 90.4119 128.924 87.6602 131.5C80.7507 139.794 78.3231 142.066 79.6614 148.415C79.5516 150.948 79.9484 153.477 80.8285 155.854C82.9449 161.503 84.3922 165.191 86.2285 167.883C85.6683 170.513 84.2055 177.454 84.1277 179.041C84.0498 180.629 88.7962 179.524 91.1928 178.917C95.6435 188.876 103.798 195.786 106.335 196.58C110.754 197.965 117.741 190.697 121.445 185.064C125.149 179.43 122.348 173.097 122.363 170.576C122.379 168.055 130.689 162.515 133.77 160.756C136.851 158.998 139.715 150.999 138.47 143.233Z" stroke="#4B4B4B" stroke-miterlimit="10"/>
<path d="M88.1582 163.184L89.7144 167.634C89.7144 167.634 93.0602 168.739 97.1374 164.289" stroke="#4B4B4B" stroke-miterlimit="10" stroke-linecap="round"/>
<path d="M99.6584 183.974C99.6584 183.974 103.362 183.6 104.856 178.402" stroke="#4B4B4B" stroke-miterlimit="10" stroke-linecap="round"/>
<path d="M85.5594 159.464C85.5594 159.464 86.6643 156.118 93.3404 156.118" stroke="#4B4B4B" stroke-miterlimit="10" stroke-linecap="round"/>
<path d="M119.78 114.039C114.929 113.341 110.037 112.967 105.136 112.918C105.136 112.918 90.477 104.468 76.3935 113.478C62.3099 122.489 69.0794 138.269 69.0794 142.206C69.0794 146.143 64.5664 146.159 67.3831 151.232C70.1998 156.305 79.7237 153.504 79.7237 153.504C79.8244 151.59 80.33 149.72 81.2073 148.017C82.0845 146.313 83.3133 144.815 84.8125 143.622C89.8857 139.685 93.9318 138.829 95.6125 139.965C95.6125 139.965 94.492 148.415 96.1727 151.792C96.1727 151.792 101.806 154.609 103.502 154.609C105.199 154.609 102.397 156.99 108.015 159.106C109.039 159.474 110.134 159.599 111.214 159.472C112.294 159.345 113.33 158.969 114.24 158.375C115.065 154.951 116.87 149.8 120.231 150.998C125.165 152.757 129.662 164.895 122.986 169.035C131.016 170.497 140.742 156.289 141.318 143.342C141.894 130.394 128.121 115.501 119.78 114.039Z" fill="#4B4B4B"/>
<path d="M95.8615 134.409C95.8615 134.409 100.001 132.184 105.074 136.946C110.147 141.708 120.014 148.072 133.086 144.571" stroke="white" stroke-width="0.5" stroke-linecap="round" stroke-linejoin="round"/>
<path d="M95.2856 130.596C95.2856 130.596 98.1335 126.146 102.895 126.146C107.657 126.146 118.784 132.822 127.67 132.822" stroke="white" stroke-width="0.5" stroke-linecap="round" stroke-linejoin="round"/>
<path d="M92.0488 139.171C92.0488 139.171 86.6488 132.511 81.5756 137.911C76.5024 143.311 79.7237 148.415 79.7237 148.415" stroke="white" stroke-width="0.5" stroke-linecap="round" stroke-linejoin="round"/>
<path d="M70.4644 143.622C73.5588 140.831 75.4825 136.972 75.8488 132.822C76.4868 125.834 86.0263 119.796 92.0487 125.523" stroke="white" stroke-width="0.5" stroke-linecap="round" stroke-linejoin="round"/>
<path d="M80.2996 118.209C80.2996 118.209 89.839 108.997 97.7756 120.746" stroke="white" stroke-width="0.5" stroke-linecap="round" stroke-linejoin="round"/>
<path d="M157.938 571.17C157.938 571.17 163.805 580.289 163.151 586.156L162.513 592.023C162.513 592.023 140.991 597.921 136.431 597.921C131.872 597.921 107.735 595.633 107.735 595.633L106.692 591.494C106.619 591.188 106.654 590.867 106.79 590.583C106.926 590.3 107.155 590.072 107.439 589.938L128.962 579.9L135.747 572.477L157.938 571.17Z" fill="white" stroke="#4B4B4B" stroke-miterlimit="10"/>
<path d="M139.699 593.331C145.535 593.782 156.615 590.218 163.042 587.946L162.591 592.024C162.591 592.024 140.991 597.921 136.431 597.921C131.872 597.921 107.735 595.634 107.735 595.634L106.988 592.677C110.848 592.693 131.981 592.739 139.699 593.331Z" fill="#FFC107" stroke="#4B4B4B" stroke-miterlimit="10"/>
<path d="M128.993 579.901L97.6667 593.533C97.6667 593.533 94.99 600.241 97.6667 601.579C100.343 602.917 158.701 601.579 158.701 601.579C158.701 601.579 162.731 590.981 156.366 583.869C150.001 576.758 128.993 579.901 128.993 579.901Z" fill="white" stroke="#4B4B4B" stroke-miterlimit="10"/>
<path d="M158.701 601.578C158.701 601.578 100.343 602.916 97.6667 601.578C96.375 600.925 96.3283 599.042 96.624 597.252H159.728C159.521 598.723 159.178 600.171 158.701 601.578Z" fill="#FFC107" stroke="#4B4B4B" stroke-miterlimit="10"/>
<path d="M114.178 343.033C114.178 343.033 105.992 379.308 102.895 401.997C99.7986 424.686 97.9778 470.143 98.6314 475.356C99.285 480.569 131.872 567.918 131.872 567.918L135.124 575.699L157.938 571.14C157.938 571.14 147.511 537.899 143.605 519.645C139.699 501.391 131.156 471.403 131.156 466.19C131.156 460.977 151.386 361.412 152.834 354.876C154.281 348.34 160.848 338.302 160.848 338.302L117.166 337.415L114.178 343.033Z" fill="#FFC107" stroke="#4B4B4B" stroke-miterlimit="10"/>
<path d="M114.178 343.032C114.178 343.032 109.385 376.164 111.361 399.195C113.338 422.227 117.586 471.263 117.586 478.561C117.586 485.86 129.366 529.449 130.035 543.143C131.078 562.923 129.615 572.711 129.615 572.711L128.915 579.885C128.915 579.885 142.656 581.846 145.66 582.702C149.129 583.595 152.709 583.983 156.288 583.853C156.288 583.853 161.284 561.864 161.284 543.128C161.284 524.391 157.129 485.829 155.059 470.205C152.989 454.58 159.51 394.309 163.213 383.058C166.917 371.806 175.009 347.981 169.563 335.812C164.116 323.642 114.178 343.032 114.178 343.032Z" fill="#FFC107" stroke="#4B4B4B" stroke-miterlimit="10"/>
<path d="M175.616 329.712L175.118 344.527C175.118 344.527 166.248 346.285 154.296 348.355C144.43 350.067 119.656 347.904 111.314 347.095C110.554 347.027 109.851 346.662 109.359 346.08C108.866 345.497 108.624 344.743 108.684 343.982L109.494 330.599L175.616 329.712Z" fill="#4B4B4B"/>
<path d="M140.944 182.028C140.944 182.028 126.939 197.17 121.663 206.585C116.388 216 114.302 230.426 112.326 241.786C110.35 253.146 115.703 279.819 114.193 292.067L109.416 330.645C109.416 330.645 108.389 333.259 111.828 336.123C115.267 338.986 132.058 340.029 147.231 340.791C152.771 341.071 169.314 337.508 172.021 337.336C175.289 337.134 175.398 332.979 175.538 329.711C176.192 314.351 178.962 273.408 180.783 255.574C184.533 219.206 164.007 184.098 140.944 182.028Z" fill="white" stroke="#4B4B4B" stroke-miterlimit="10"/>
<g style="mix-blend-mode:multiply">
<path d="M179.071 276.256C179.694 268.18 180.316 260.85 180.861 255.574C181.016 254.018 181.11 252.462 181.188 250.906L143.979 257.131L112.015 246.237C112.018 252.851 112.392 259.46 113.135 266.032L144.493 274.809L179.071 276.256Z" fill="#FFC107"/>
</g>
<g style="mix-blend-mode:multiply">
<path d="M139.559 183.554C137.443 185.904 133.241 190.681 129.242 195.754L152.865 219.766L160.646 216.654L139.559 183.554Z" fill="#FFC107"/>
</g>
<path d="M140.944 182.028C140.944 182.028 126.939 197.17 121.663 206.585C120.099 209.446 118.832 212.46 117.882 215.58L146.049 183.04C144.385 182.536 142.675 182.197 140.944 182.028Z" fill="#4B4B4B"/>
<g style="mix-blend-mode:multiply">
<path d="M113.415 235.655L143.979 245.708L181.094 241.444C180.512 232.198 178.458 223.105 175.009 214.506L145.084 226.505L118.333 214.382C116.145 221.335 114.501 228.447 113.415 235.655Z" fill="#FFC107"/>
</g>
<g style="mix-blend-mode:multiply">
<path d="M166.03 314.352C150.528 316.955 134.623 315.655 119.749 310.571L112.295 308.019L109.976 326.693L118.473 329.074C134.626 333.59 151.508 334.891 168.162 332.902L175.025 332.077C175.382 331.321 175.583 330.501 175.616 329.665C175.803 325.51 176.13 319.472 176.55 312.547L166.03 314.352Z" fill="#FFC107"/>
</g>
<g style="mix-blend-mode:multiply">
<path d="M170.185 288.924C154.683 291.537 138.773 290.231 123.904 285.126L114.411 281.874C114.647 285.265 114.6 288.669 114.271 292.052L113.166 301.031L122.628 303.676C138.774 308.197 155.652 309.503 172.302 307.52L176.97 306.96C177.359 300.735 177.811 294.106 178.293 287.554L170.185 288.924Z" fill="#FFC107"/>
</g>
<path d="M24.2007 223.115L54.2903 247.308L55.5872 245.695L25.4976 221.502L24.2007 223.115Z" fill="#4B4B4B"/>
<path d="M155.432 198.82C155.432 198.82 166.466 206.337 166.715 224.093C166.824 231.874 166.015 239.141 164.225 251.887C162.435 264.632 151.324 306.135 142.672 311.177C134.019 316.22 120.589 306.696 120.589 306.696L55.6338 263.574L39.9318 250.891L32.1509 236.2L34.5941 231.531L53.7508 246.222L43.4333 236.682L45.4563 234.115L49.1912 236.714L60.0845 240.791L62.4655 256.353L65.8269 258.656L127.966 281.361C127.966 281.361 127.188 247.918 127.763 241.522C128.339 235.126 129.133 219.051 135.98 207.395" fill="white"/>
<mask id="mask4_4426_132937" style="mask-type:luminance" maskUnits="userSpaceOnUse" x="32" y="198" width="135" height="115">
<path d="M155.432 198.82C155.432 198.82 166.466 206.337 166.715 224.093C166.824 231.874 166.015 239.141 164.225 251.887C162.435 264.632 151.324 306.135 142.672 311.177C134.019 316.22 120.589 306.696 120.589 306.696L55.6338 263.574L39.9318 250.891L32.1509 236.2L34.5941 231.531L53.7508 246.222L43.4333 236.682L45.4563 234.115L49.1912 236.714L60.0845 240.791L62.4655 256.353L65.8269 258.656L127.966 281.361C127.966 281.361 127.188 247.918 127.763 241.522C128.339 235.126 129.133 219.051 135.98 207.395" fill="white"/>
</mask>
<g mask="url(#mask4_4426_132937)">
<g style="mix-blend-mode:multiply" opacity="0.5">
<path d="M127.53 256.088C127.53 267.635 127.919 281.361 127.919 281.361L65.8425 258.749L62.4811 256.446L60.1001 240.884L49.2068 236.807L45.4875 234.161L43.4644 236.729L53.7508 246.222L34.5941 231.531L32.2754 236.122L40.0564 250.812L55.7583 263.573L59.7111 266.203L145.535 293.857L127.53 256.088Z" fill="#FFC107"/>
</g>
</g>
<path d="M155.432 198.82C155.432 198.82 166.466 206.337 166.715 224.093C166.824 231.874 166.015 239.141 164.225 251.887C162.435 264.632 151.324 306.135 142.672 311.177C134.019 316.22 120.589 306.696 120.589 306.696L55.6338 263.574L39.9318 250.891L32.1509 236.2L34.5941 231.531L53.7508 246.222L43.4333 236.682L45.4563 234.115L49.1912 236.714L60.0845 240.791L62.4655 256.353L65.8269 258.656L127.966 281.361C127.966 281.361 127.188 247.918 127.763 241.522C128.339 235.126 129.133 219.051 135.98 207.395" stroke="#4B4B4B" stroke-miterlimit="10"/>
<path d="M127.966 281.361L151.682 298.479L157.829 287.585C157.829 287.585 162.077 284.24 162.7 281.719C163.322 279.198 162.529 275.105 163.167 272.584C163.805 270.063 166.979 267.697 167.275 261.597C167.571 255.497 167.275 250.408 167.275 250.408C167.275 250.408 172.411 229.29 171.85 220.109C171.29 210.927 162.435 194.696 155.339 194.338C148.243 193.98 139.015 195.054 131.856 205.885C124.698 216.716 126.16 248.338 125.04 250.315C123.92 252.291 125.476 262.048 125.476 262.048C124.854 262.512 124.338 263.103 123.962 263.782C123.587 264.461 123.36 265.212 123.297 265.985C123.173 268.522 125.911 274.762 125.911 274.762L127.966 281.361Z" fill="white" stroke="#4B4B4B" stroke-miterlimit="10"/>
<g style="mix-blend-mode:multiply">
<path d="M125.663 242.191C125.711 244.907 125.508 247.621 125.056 250.299C124.06 252.073 125.196 260.088 125.445 261.722C138.784 265.865 152.889 266.929 166.699 264.834C166.996 263.752 167.173 262.64 167.228 261.519C167.54 255.435 167.228 250.33 167.228 250.33C167.228 250.33 167.68 248.447 168.302 245.584C154 246.493 139.641 245.351 125.663 242.191Z" fill="#FFC107"/>
</g>
<g style="mix-blend-mode:multiply">
<path d="M130.891 207.612C128.666 212.079 127.421 218.786 126.705 225.586C140.832 230.978 156.064 232.832 171.072 230.986C171.671 227.387 171.937 223.741 171.866 220.093C171.596 217.21 170.915 214.38 169.843 211.69C156.738 211.995 143.648 210.625 130.891 207.612Z" fill="#FFC107"/>
</g>
<path d="M125.911 274.934L127.919 281.361L151.635 298.479L157.782 287.585C157.782 287.585 162.031 284.24 162.653 281.719C162.764 281.28 162.832 280.832 162.856 280.38C150.358 280.164 137.94 278.334 125.911 274.934Z" fill="#4B4B4B"/>
<path d="M143.076 582.499C143.076 582.499 143.605 569.023 146.189 549.321C148.772 529.62 142.563 501.64 141.52 496.971C140.478 492.302 142.049 481.938 141.007 478.297C139.964 474.655 134.922 459.124 137.894 441.104C140.867 423.083 143.279 375.448 143.279 375.448C143.279 375.448 135.793 369.363 133.599 361.442C131.405 353.521 133.086 351.031 133.086 351.031" stroke="#4B4B4B" stroke-miterlimit="10"/>
<path d="M146.547 351.763L143.668 367.714" stroke="#4B4B4B" stroke-miterlimit="10"/>
</g>
<defs>
<clipPath id="clip0_4426_132937">
<rect width="631.674" height="613" fill="white"/>
</clipPath>
</defs>
</svg>
