<svg width="17" height="16" viewBox="0 0 17 16" fill="none" xmlns="http://www.w3.org/2000/svg">
<g clip-path="url(#clip0_6689_632)">
<path fill-rule="evenodd" clip-rule="evenodd" d="M7.32547 13.5998H9.84997C10.0516 13.5998 10.2475 13.5956 10.4349 13.5833C10.6224 13.571 10.8032 13.5558 10.9768 13.5337C11.1505 13.5117 11.317 13.4837 11.4772 13.4504C11.6374 13.4172 11.7907 13.3777 11.936 13.3329C12.0779 13.2894 12.2174 13.2385 12.3539 13.1802C12.4837 13.1248 12.6104 13.0619 12.7328 12.9917C12.8504 12.9242 12.9634 12.8495 13.0716 12.7677C13.1768 12.6873 13.2769 12.6 13.3706 12.5064C13.4644 12.4128 13.5514 12.3131 13.6317 12.2078C13.7136 12.0998 13.7887 11.9865 13.856 11.8688C13.9256 11.7465 13.988 11.6203 14.0427 11.4907C14.101 11.3541 14.152 11.2146 14.1955 11.0726C14.2385 10.9274 14.2797 10.7729 14.313 10.6139C14.3462 10.4549 14.3741 10.2861 14.3961 10.1136C14.4181 9.94118 14.4345 9.75794 14.4457 9.57167C14.4569 9.3854 14.4625 9.18862 14.4625 8.98668V5.41321C14.4625 5.21126 14.4576 5.01532 14.4457 4.82831C14.4337 4.64129 14.4185 4.45944 14.3961 4.28624C14.3737 4.11303 14.3458 3.94623 14.313 3.78609C14.2801 3.62595 14.2403 3.47253 14.1955 3.32732C14.152 3.18537 14.101 3.04578 14.0427 2.9092C13.988 2.7796 13.9256 2.65336 13.856 2.53108C13.7887 2.41341 13.7136 2.30021 13.6317 2.19216C13.5514 2.08682 13.4644 1.98703 13.3706 1.89351C13.2769 1.79988 13.1768 1.71261 13.0716 1.63223C12.9634 1.55054 12.8504 1.4757 12.7328 1.40822C12.6104 1.3379 12.4837 1.27489 12.3539 1.21939C12.2174 1.16123 12.0778 1.1102 11.936 1.06665C11.7911 1.02372 11.6355 0.982305 11.4772 0.949083C11.3188 0.91586 11.149 0.887901 10.9768 0.865877C10.8047 0.843853 10.6213 0.827034 10.4349 0.816209C10.2486 0.805384 10.0516 0.799805 9.84997 0.799805H6.27462C6.07296 0.799805 5.8775 0.80389 5.69003 0.816209C5.50257 0.828527 5.32102 0.843853 5.14775 0.865877C4.97447 0.887901 4.80761 0.91586 4.6474 0.949083C4.4872 0.982305 4.33316 1.02185 4.18827 1.06665C4.0464 1.1102 3.90723 1.16123 3.77071 1.21939C3.64095 1.27474 3.51437 1.33776 3.39217 1.40822C3.27438 1.47561 3.16094 1.55046 3.05265 1.63223C2.94738 1.71261 2.84765 1.79988 2.75397 1.89351C2.66029 1.98713 2.57289 2.08691 2.49249 2.19216C2.41075 2.30031 2.33606 2.4135 2.26858 2.53108C2.19897 2.65336 2.13662 2.7796 2.08186 2.9092C2.02365 3.04583 1.97249 3.18542 1.92869 3.32732C1.88426 3.47253 1.8456 3.62707 1.812 3.78609C1.77839 3.94511 1.75015 4.11415 1.72812 4.28624C1.70609 4.45832 1.68935 4.64204 1.67852 4.82831C1.66769 5.01458 1.66248 5.21126 1.66248 5.41321V8.98668C1.66248 9.18862 1.6662 9.38428 1.67852 9.57167C1.69084 9.75906 1.70571 9.94044 1.72812 10.1136C1.75052 10.2868 1.77951 10.4537 1.812 10.6139C1.84448 10.774 1.88426 10.9274 1.92869 11.0726C1.97246 11.2146 2.02362 11.3541 2.08186 11.4907C2.13662 11.6203 2.19897 11.7465 2.26858 11.8688C2.33604 11.9864 2.41073 12.0997 2.49249 12.2078C2.57291 12.313 2.66031 12.4127 2.75397 12.5064C2.84767 12.6 2.9474 12.6873 3.05265 12.7677C3.16092 12.8495 3.27436 12.9243 3.39217 12.9917C3.51438 13.062 3.64096 13.125 3.77071 13.1802C3.90719 13.2385 4.04636 13.2894 4.18827 13.3329C4.33353 13.3758 4.48869 13.4172 4.6474 13.4504C4.80611 13.4837 4.97522 13.5117 5.14775 13.5337C5.31183 13.5547 5.48576 13.5708 5.6627 13.5817L5.66248 15.1998L7.32547 13.5998ZM5.4023 3.90667C5.48604 3.87293 5.57532 3.85493 5.6656 3.85363C5.78851 3.85263 5.90791 3.89537 6.0022 3.9742C6.26047 4.25464 6.50138 4.55047 6.72391 4.86002C6.85984 5.0545 7.04896 5.35952 7.12141 5.49988C7.16685 5.58238 7.19462 5.67337 7.2031 5.76717C7.21158 5.86097 7.20054 5.95554 7.17064 6.04486C7.12135 6.18484 7.08041 6.23262 6.82274 6.43756C6.73087 6.51221 6.57433 6.63943 6.56126 6.65437C6.53937 6.68574 6.52057 6.71929 6.50546 6.75443C6.48532 6.79749 6.47362 6.84396 6.47082 6.89141C6.46759 6.94773 6.47204 7.00431 6.48395 7.05946C6.52325 7.21922 6.58222 7.37345 6.65972 7.51859C6.73166 7.66383 6.81482 7.80322 6.90844 7.93553C7.01325 8.08197 7.12727 8.22156 7.24978 8.35356C7.47039 8.59633 7.72142 8.8097 7.99665 8.98822C8.26553 9.15988 8.56967 9.26853 8.88648 9.30619C8.98741 9.30381 9.08626 9.27555 9.17312 9.22408C9.25397 9.14617 9.32872 9.06237 9.39703 8.97328C9.47819 8.86585 9.56765 8.76495 9.66471 8.67162C9.69369 8.64534 9.72561 8.62259 9.75989 8.60373C9.79166 8.58767 9.82531 8.57511 9.85981 8.56636C9.89394 8.55668 9.92937 8.55196 9.96484 8.55224C10.1252 8.56427 10.2806 8.61287 10.4192 8.69441C10.5515 8.76529 10.6794 8.84386 10.8025 8.92963C10.9429 9.02519 11.0948 9.13636 11.242 9.25133C11.3891 9.3663 11.5235 9.47905 11.6307 9.57723C11.7169 9.65116 11.7949 9.73416 11.8634 9.82475C11.8931 9.87288 11.9178 9.92375 11.9378 9.97667C11.9719 10.0786 11.9818 10.1871 11.9666 10.2935C11.8865 10.5138 11.7648 10.7166 11.6081 10.8908C11.5238 11.0013 11.4328 11.1064 11.3353 11.2055C11.2621 11.2855 11.1804 11.3576 11.0921 11.4205C11.038 11.453 10.9802 11.4788 10.9199 11.4974C10.8604 11.5149 10.7986 11.5236 10.7365 11.5232C10.649 11.5217 10.5623 11.5097 10.4776 11.4877C10.3613 11.4582 10.2468 11.4223 10.1344 11.3802C9.70571 11.2237 9.2897 11.0344 8.89012 10.8139C8.47285 10.5828 8.07231 10.3227 7.69141 10.0356C6.20285 8.92822 5.05036 7.43018 4.36186 5.70775C4.3248 5.62472 4.29518 5.53853 4.2736 5.45021C4.25966 5.37755 4.25567 5.30329 4.26193 5.22957C4.27581 5.00408 4.3643 4.7896 4.51357 4.61997C4.57079 4.54703 4.63319 4.47828 4.70028 4.41428C4.77273 4.34411 4.85584 4.27097 4.94061 4.20303C5.08039 4.08371 5.23555 3.98401 5.4023 3.90667ZM8.15966 3.69906C8.19874 3.6719 8.24564 3.6588 8.29314 3.66179C8.3613 3.66469 8.42922 3.6714 8.49663 3.68193C8.8061 3.71955 9.11132 3.78731 9.40761 3.88425C9.6811 3.97379 9.94336 4.09423 10.1895 4.24332C10.3443 4.33577 10.4908 4.4415 10.6275 4.55919C10.7679 4.68383 10.8983 4.81936 11.0173 4.96455C11.147 5.1159 11.2644 5.27741 11.3681 5.44756C11.4651 5.61282 11.5477 5.78616 11.6147 5.96566C11.7653 6.34868 11.8476 6.75511 11.8583 7.16654C11.8609 7.24978 11.8602 7.4077 11.8543 7.51969C11.8529 7.58957 11.8452 7.65913 11.8309 7.72756C11.8217 7.76436 11.801 7.79737 11.7718 7.82171C11.7294 7.85919 11.6742 7.87916 11.6176 7.87766C11.5793 7.87903 11.5412 7.87105 11.5067 7.85433C11.4722 7.83761 11.4422 7.81262 11.4196 7.7817C11.3822 7.72272 11.3774 7.678 11.3849 7.44022C11.3986 7.11294 11.3657 6.7853 11.2868 6.46736C11.2076 6.16356 11.0816 5.87399 10.9134 5.60887C10.4972 4.93846 9.83533 4.45706 9.06918 4.26728C8.85592 4.20942 8.63868 4.16698 8.41932 4.14033C8.33027 4.13938 8.24268 4.11915 8.16222 4.08101C8.13091 4.06002 8.1053 4.03155 8.08782 3.99816C8.07034 3.96478 8.06134 3.92748 8.06193 3.88981C8.06094 3.8524 8.06934 3.81541 8.08636 3.78208C8.10339 3.74876 8.12877 3.72019 8.15966 3.69906ZM8.50283 4.60767C8.51993 4.60445 8.53723 4.60319 8.55461 4.60393C8.69387 4.60849 8.8327 4.62374 8.96962 4.6495C9.16897 4.6893 9.36301 4.75193 9.54801 4.83614C9.72811 4.9188 9.89717 5.02336 10.0516 5.14746C10.3195 5.36165 10.5364 5.63272 10.6865 5.94106C10.841 6.26897 10.9292 6.6242 10.9458 6.98628C10.9581 7.0943 10.9548 7.20348 10.9364 7.31062C10.9308 7.34012 10.9184 7.36792 10.9003 7.39182C10.8821 7.41573 10.8586 7.43515 10.8317 7.44842C10.7963 7.46807 10.7566 7.4784 10.7161 7.47858C10.6845 7.47827 10.6534 7.47156 10.6246 7.45872C10.5957 7.44588 10.5697 7.42719 10.5483 7.40395C10.5224 7.37724 10.5041 7.3442 10.4951 7.30807C10.4834 7.2592 10.4782 7.20893 10.4798 7.1587C10.48 6.98161 10.4617 6.80502 10.4254 6.63167C10.3936 6.46975 10.3423 6.31219 10.273 6.16242C10.1986 6.00759 10.1035 5.86357 9.99037 5.73427C9.87666 5.60401 9.74603 5.48948 9.60198 5.3938C9.53652 5.35022 9.4682 5.31118 9.3974 5.27696C9.32362 5.24151 9.24802 5.21047 9.17056 5.184C9.09164 5.15718 9.01102 5.135 8.92951 5.11757C8.84856 5.10014 8.76654 5.08773 8.68408 5.08029C8.60591 5.0779 8.52898 5.06212 8.45615 5.03363C8.43292 5.02324 8.41209 5.00818 8.39488 4.98943C8.37767 4.97069 8.36423 4.94866 8.35586 4.92464C8.33192 4.85496 8.33591 4.77872 8.3668 4.71184C8.38363 4.6875 8.40434 4.66609 8.42807 4.64841C8.45033 4.63048 8.4757 4.61665 8.50283 4.60767ZM8.73623 5.60924C8.76627 5.59846 8.79803 5.59326 8.82995 5.59393H8.83068C8.90748 5.59694 8.98345 5.60883 9.05751 5.62938C9.35211 5.68322 9.61773 5.84048 9.80657 6.07284C9.94695 6.25459 10.0328 6.4724 10.0542 6.70103C10.0613 6.77309 10.0641 6.84554 10.0622 6.91793C10.0577 7.02357 10.053 7.04453 10.0247 7.09044C10.0038 7.12386 9.97442 7.15095 9.93931 7.16882C9.90465 7.18658 9.86631 7.1958 9.82736 7.1957C9.79734 7.19622 9.76731 7.1907 9.73947 7.17948C9.71163 7.16826 9.68633 7.15155 9.66507 7.13036C9.60943 7.07474 9.59628 7.02586 9.59068 6.86908C9.59038 6.72715 9.55899 6.58696 9.49878 6.45843C9.44147 6.34804 9.35249 6.25712 9.2435 6.19714C9.11994 6.12953 8.98564 6.08413 8.84636 6.06309C8.79783 6.05581 8.75057 6.0418 8.70596 6.02135C8.67475 6.00521 8.64876 5.9804 8.6312 5.94999C8.60395 5.90394 8.59252 5.85033 8.59838 5.79716C8.60423 5.74398 8.62704 5.69409 8.66365 5.65508C8.68457 5.63519 8.70931 5.61967 8.73623 5.60924Z" fill="#A6A6A6"/>
</g>
<defs>
<clipPath id="clip0_6689_632">
<rect width="16" height="16" fill="white" transform="translate(0.0625)"/>
</clipPath>
</defs>
</svg>
