<svg width="17" height="16" viewBox="0 0 17 16" fill="none" xmlns="http://www.w3.org/2000/svg">
<path d="M10.6575 14.8613H6.82778C6.61178 14.8613 6.40121 14.8554 6.20161 14.8438C6.00201 14.8322 5.80555 14.8141 5.62075 14.7909C5.43595 14.7677 5.25481 14.7374 5.08481 14.7018C4.91481 14.6662 4.74862 14.6217 4.59302 14.5757C4.44094 14.529 4.29135 14.4744 4.14497 14.4121C4.00608 14.3527 3.87091 14.2853 3.73989 14.2102C3.61397 14.138 3.4927 14.0578 3.377 13.9701C3.26422 13.884 3.15739 13.7905 3.05708 13.6901C2.95682 13.5897 2.86321 13.4828 2.777 13.3701C2.68938 13.2543 2.60937 13.133 2.53716 13.0069C2.46257 12.8759 2.39579 12.7406 2.33716 12.6018C2.27479 12.4554 2.21999 12.3058 2.1731 12.1537C2.1255 11.9981 2.08291 11.8337 2.04771 11.6621C2.01251 11.4905 1.98185 11.3118 1.95825 11.1262C1.93465 10.9406 1.91833 10.7461 1.90513 10.5453C1.89193 10.3445 1.88794 10.135 1.88794 9.91856V6.08936C1.88794 5.87296 1.89353 5.6621 1.90513 5.4625C1.91673 5.2629 1.93465 5.06654 1.95825 4.88174C1.98185 4.69694 2.01211 4.5157 2.04771 4.3457C2.08331 4.1757 2.1275 4.0097 2.1731 3.8541C2.21999 3.70204 2.27479 3.55255 2.33716 3.40615C2.39579 3.26727 2.46258 3.13189 2.53716 3.00088C2.60937 2.87484 2.68938 2.75355 2.777 2.6377C2.86321 2.52499 2.95682 2.41817 3.05708 2.31777C3.15739 2.21741 3.26422 2.12379 3.377 2.0377C3.49265 1.94998 3.61393 1.86988 3.73989 1.79775C3.87091 1.72258 4.00608 1.65508 4.14497 1.5957C4.29135 1.53341 4.44094 1.47883 4.59302 1.43213C4.74862 1.38413 4.91321 1.34175 5.08481 1.30615C5.25641 1.27055 5.43515 1.24049 5.62075 1.21689C5.80635 1.19329 6.00081 1.17697 6.20161 1.16377C6.40241 1.15057 6.61178 1.14648 6.82778 1.14648H10.6575C10.8739 1.14648 11.0844 1.15257 11.284 1.16377C11.4836 1.17497 11.6801 1.19329 11.8649 1.21689C12.0497 1.24049 12.2308 1.27055 12.4008 1.30615C12.5708 1.34175 12.7366 1.38613 12.8922 1.43213C13.0443 1.47876 13.1939 1.53335 13.3403 1.5957C13.4792 1.65508 13.6143 1.72258 13.7454 1.79775C13.8713 1.86985 13.9926 1.94996 14.1083 2.0377C14.2211 2.12375 14.3279 2.21737 14.4282 2.31777C14.5285 2.41813 14.6221 2.52495 14.7083 2.6377C14.7959 2.75356 14.8762 2.87486 14.9485 3.00088C15.0231 3.13189 15.0899 3.26727 15.1485 3.40615C15.211 3.55249 15.2654 3.70198 15.3122 3.8541C15.3598 4.0097 15.4027 4.1741 15.4379 4.3457C15.4731 4.5173 15.5034 4.69574 15.527 4.88174C15.5506 5.06774 15.5669 5.2617 15.5801 5.4625C15.5933 5.6633 15.5981 5.87296 15.5981 6.08936V9.91856C15.5981 10.135 15.5917 10.3457 15.5801 10.5453C15.5685 10.7449 15.5506 10.9418 15.527 11.1262C15.5034 11.3106 15.4739 11.4921 15.4379 11.6621C15.4019 11.8321 15.3578 11.9985 15.3122 12.1537C15.2654 12.3058 15.211 12.4554 15.1485 12.6018C15.0899 12.7406 15.0231 12.8759 14.9485 13.0069C14.8763 13.133 14.7959 13.2543 14.7083 13.3701C14.6221 13.4829 14.5285 13.5898 14.4282 13.6901C14.3279 13.7905 14.2211 13.8841 14.1083 13.9701C13.9926 14.0579 13.8713 14.1381 13.7454 14.2102C13.6143 14.2853 13.4792 14.3527 13.3403 14.4121C13.1939 14.4745 13.0443 14.5291 12.8922 14.5757C12.7366 14.6237 12.5724 14.6662 12.4008 14.7018C12.2292 14.7374 12.0505 14.7673 11.8649 14.7909C11.6793 14.8145 11.4848 14.8309 11.284 14.8438C11.0832 14.8566 10.8735 14.8613 10.6575 14.8613ZM11.5028 11.3762L12.511 11.8905L12.2415 11.0457L12.2672 11.0297C12.4307 10.9254 12.5822 10.8037 12.7192 10.6665C12.8515 10.5343 12.9676 10.3866 13.0645 10.2266C13.1599 10.0697 13.234 9.90084 13.2852 9.72451C13.3365 9.5461 13.3623 9.36133 13.3622 9.17568C13.3621 9.01718 13.3432 8.85934 13.3055 8.70537C13.2683 8.55365 13.2137 8.40661 13.143 8.26729C13.0713 8.12647 12.9852 7.99361 12.8856 7.8709C12.7835 7.74491 12.6691 7.62916 12.5446 7.52529C12.4159 7.41806 12.278 7.32277 12.1321 7.24053C11.9806 7.15523 11.8218 7.08319 11.6579 7.02529C11.4872 6.96516 11.312 6.91972 11.1336 6.88936C10.948 6.8578 10.7599 6.84195 10.5715 6.84209C10.3831 6.84198 10.1948 6.85783 10.009 6.88936C9.8307 6.91978 9.65546 6.96522 9.48481 7.02529C9.32089 7.08319 9.16208 7.15523 9.0106 7.24053C8.86453 7.32276 8.72654 7.41805 8.59771 7.52529C8.47301 7.62913 8.35853 7.74488 8.2563 7.8709C8.15674 7.99361 8.07057 8.12646 7.99888 8.26729C7.92842 8.4067 7.87384 8.55372 7.83638 8.70537C7.79875 8.85934 7.77945 9.01718 7.77935 9.17568C7.77944 9.33419 7.79874 9.49212 7.83638 9.64609C7.87368 9.79844 7.92826 9.94609 7.99888 10.0861C8.07063 10.2269 8.15679 10.3598 8.2563 10.4825C8.35859 10.6085 8.47306 10.7242 8.59771 10.8281C8.72656 10.9353 8.86455 11.0306 9.0106 11.1129C9.16205 11.1982 9.32087 11.2703 9.48481 11.3281C9.65545 11.3882 9.8307 11.4337 10.009 11.4642C10.1948 11.4957 10.3831 11.5114 10.5715 11.5113C10.8699 11.5117 11.1669 11.4713 11.4543 11.3913L11.5028 11.3762ZM7.42075 4.29893C7.1977 4.29881 6.97502 4.3175 6.75513 4.35488C6.54419 4.39064 6.33674 4.44422 6.13481 4.51494C5.94115 4.58357 5.75363 4.66881 5.57466 4.76973C5.40175 4.86729 5.23816 4.98028 5.0856 5.10732C4.93825 5.23019 4.80329 5.36709 4.68247 5.51611C4.56457 5.6613 4.46212 5.81861 4.37739 5.98535C4.29355 6.15074 4.2292 6.32524 4.18521 6.50537C4.14075 6.68763 4.11833 6.87451 4.11841 7.06211C4.11835 7.28187 4.14899 7.50055 4.20981 7.71172C4.27042 7.92039 4.35824 8.12026 4.47075 8.30615C4.58582 8.49515 4.72285 8.66974 4.87935 8.82617C5.04152 8.98861 5.22133 9.13278 5.41489 9.25615L5.44458 9.27529L5.12466 10.2753L6.3188 9.66689L6.37349 9.68291C6.7139 9.77696 7.06563 9.82435 7.4188 9.82373C7.4988 9.82373 7.57866 9.8201 7.64106 9.81689C7.57175 9.60415 7.53637 9.38186 7.53599 9.15811C7.53599 7.76731 8.88577 6.63574 10.545 6.63574C10.5886 6.63574 10.636 6.63577 10.684 6.63897C10.6222 6.30789 10.4927 5.99309 10.304 5.71416C10.2084 5.57113 10.0996 5.43723 9.97935 5.31416C9.85614 5.1881 9.72231 5.07284 9.57935 4.96973C9.43195 4.86319 9.27608 4.76885 9.11333 4.6877C8.94578 4.60371 8.772 4.53303 8.59341 4.47617C8.21396 4.35687 7.81851 4.2968 7.42075 4.29814V4.29893ZM11.5469 8.77012C11.4422 8.76991 11.342 8.72818 11.268 8.6541C11.194 8.58002 11.1525 8.47961 11.1524 8.3749C11.1525 8.27019 11.194 8.16978 11.268 8.0957C11.342 8.02162 11.4422 7.9799 11.5469 7.97969C11.6517 7.97979 11.7525 8.02151 11.8266 8.09561C11.9007 8.1697 11.9421 8.27012 11.9422 8.3749C11.9421 8.47961 11.9006 8.58002 11.8266 8.6541C11.7526 8.72818 11.6524 8.76991 11.5477 8.77012H11.5469ZM9.60044 8.77012C9.49566 8.77001 9.39523 8.72839 9.32114 8.6543C9.24705 8.58021 9.20523 8.47968 9.20513 8.3749C9.20523 8.27012 9.24705 8.1697 9.32114 8.09561C9.39523 8.02151 9.49566 7.97979 9.60044 7.97969C9.70522 7.97979 9.80564 8.02151 9.87974 8.09561C9.95383 8.1697 9.99526 8.27012 9.99536 8.3749C9.99526 8.47934 9.95418 8.57948 9.88052 8.65352C9.80686 8.72755 9.70683 8.76948 9.60239 8.77012H9.60044ZM8.55005 6.57256C8.42741 6.57245 8.30985 6.52369 8.2231 6.43701C8.13634 6.35033 8.08737 6.2328 8.08716 6.11016C8.08737 5.98748 8.13596 5.86985 8.22271 5.78311C8.30945 5.69636 8.42737 5.64757 8.55005 5.64736C8.67269 5.64757 8.78993 5.69635 8.87661 5.78311C8.96329 5.86986 9.01205 5.98752 9.01216 6.11016C9.01195 6.23273 8.96328 6.35015 8.87661 6.43682C8.78994 6.52349 8.67262 6.57235 8.55005 6.57256ZM6.25591 6.57256C6.13327 6.57245 6.01571 6.52369 5.92896 6.43701C5.8422 6.35033 5.79323 6.2328 5.79302 6.11016C5.79323 5.98748 5.84221 5.86985 5.92896 5.78311C6.0157 5.69636 6.13323 5.64757 6.25591 5.64736C6.37855 5.64757 6.49618 5.69635 6.58286 5.78311C6.66954 5.86986 6.7183 5.98752 6.71841 6.11016C6.7182 6.23273 6.66914 6.35015 6.58247 6.43682C6.4958 6.52349 6.37848 6.57235 6.25591 6.57256Z" fill="#A6A6A6"/>
</svg>
