<svg width="208" height="62" viewBox="0 0 208 62" fill="none" xmlns="http://www.w3.org/2000/svg">
<g clip-path="url(#clip0_4421_44485)">
<path d="M200.296 61.4894H7.7037C3.38963 61.4894 0 58.1356 0 53.8671V8.13307C0 3.86457 3.38963 0.510742 7.7037 0.510742H200.296C204.61 0.510742 208 3.86457 208 8.13307V53.8671C208 58.1356 204.61 61.4894 200.296 61.4894Z" fill="#1C1B19"/>
<path d="M200.296 1.73032C203.84 1.73032 206.767 4.6268 206.767 8.13307V53.8671C206.767 57.3733 203.84 60.2698 200.296 60.2698H7.7037C4.16 60.2698 1.23259 57.3733 1.23259 53.8671V8.13307C1.23259 4.6268 4.16 1.73032 7.7037 1.73032H200.296ZM200.296 0.510742H7.7037C3.38963 0.510742 0 4.01701 0 8.13307V53.8671C0 58.1356 3.38963 61.4894 7.7037 61.4894H200.296C204.61 61.4894 208 58.1356 208 53.8671V8.13307C208 4.01701 204.61 0.510742 200.296 0.510742Z" fill="#A6A6A6"/>
<path d="M73.0311 16.06C73.0311 17.2796 72.723 18.3467 71.9526 19.109C71.0282 20.0236 69.9496 20.481 68.563 20.481C67.1763 20.481 66.0978 20.0236 65.1733 19.109C64.2489 18.1943 63.7867 17.1272 63.7867 15.7551C63.7867 14.3831 64.2489 13.316 65.1733 12.4013C66.0978 11.4866 67.1763 11.0293 68.563 11.0293C69.1793 11.0293 69.7956 11.1817 70.4119 11.4866C71.0282 11.7915 71.4904 12.0964 71.7985 12.5538L71.0282 13.316C70.4119 12.5538 69.6415 12.2489 68.563 12.2489C67.6385 12.2489 66.7141 12.5538 66.0978 13.316C65.3274 13.9258 65.0193 14.8405 65.0193 15.9076C65.0193 16.9747 65.3274 17.8894 66.0978 18.4992C66.8682 19.109 67.6385 19.5663 68.563 19.5663C69.6415 19.5663 70.4119 19.2614 71.1822 18.4992C71.6445 18.0418 71.9526 17.4321 71.9526 16.6698H68.563V15.4503H73.0311V16.06ZM80.1185 12.2489H75.9585V15.1454H79.8104V16.2125H75.9585V19.109H80.1185V20.3285H74.7259V11.1817H80.1185V12.2489ZM85.203 20.3285H83.9704V12.2489H81.3511V11.1817H87.8222V12.2489H85.203V20.3285ZM92.2904 20.3285V11.1817H93.523V20.3285H92.2904ZM98.7615 20.3285H97.5289V12.2489H94.9096V11.1817H101.227V12.2489H98.6074V20.3285H98.7615ZM113.399 19.109C112.474 20.0236 111.396 20.481 110.009 20.481C108.622 20.481 107.544 20.0236 106.619 19.109C105.695 18.1943 105.233 17.1272 105.233 15.7551C105.233 14.3831 105.695 13.316 106.619 12.4013C107.544 11.4866 108.622 11.0293 110.009 11.0293C111.396 11.0293 112.474 11.4866 113.399 12.4013C114.323 13.316 114.785 14.3831 114.785 15.7551C114.785 17.1272 114.323 18.1943 113.399 19.109ZM107.544 18.3467C108.16 18.9565 109.084 19.4139 110.009 19.4139C110.933 19.4139 111.858 19.109 112.474 18.3467C113.09 17.7369 113.553 16.8223 113.553 15.7551C113.553 14.688 113.244 13.7733 112.474 13.1636C111.858 12.5538 110.933 12.0964 110.009 12.0964C109.084 12.0964 108.16 12.4013 107.544 13.1636C106.927 13.7733 106.465 14.688 106.465 15.7551C106.465 16.8223 106.773 17.7369 107.544 18.3467ZM116.48 20.3285V11.1817H117.867L122.335 18.3467V11.1817H123.567V20.3285H122.335L117.559 12.8587V20.3285H116.48Z" fill="white"/>
<path d="M69.8802 40.0107L70.3595 42.3755L73.6192 30.8069H76.5273L79.755 42.1838L80.1385 40.2024L82.1838 30.8069H86.1784L81.9601 47.6804H78.4447L75.5047 37.7736L75.0573 36.2397L74.6099 37.8056L71.7017 47.6804H68.1864L64 30.8069H67.9627L69.8802 40.0107Z" fill="white"/>
<path d="M93.0612 47.6804H88.9068V30.8069H93.0612V47.6804ZM88.5553 26.3648C88.5553 25.747 88.779 25.2357 89.2264 24.8309C89.6738 24.4261 90.249 24.2237 90.9521 24.2237C91.6551 24.2237 92.2304 24.4261 92.6778 24.8309C93.1252 25.2357 93.3489 25.747 93.3489 26.3648C93.3489 26.9827 93.1252 27.494 92.6778 27.8988C92.2517 28.2823 91.6764 28.474 90.9521 28.474C90.249 28.474 89.6738 28.2823 89.2264 27.8988C88.779 27.494 88.5553 26.9827 88.5553 26.3648Z" fill="white"/>
<path d="M96.7631 30.8069H100.662L100.79 33.3955C101.344 32.4794 102.068 31.7763 102.963 31.2863C103.858 30.775 104.859 30.5193 105.967 30.5193C109.482 30.5193 111.24 32.6072 111.24 36.783V47.6804H107.085V36.9427C107.085 35.8136 106.851 35.004 106.382 34.514C105.935 34.0027 105.179 33.747 104.113 33.747C102.601 33.747 101.535 34.4714 100.918 35.9201L100.949 47.6804H96.7631V30.8069Z" fill="white"/>
<path d="M120.494 47.968C118.534 47.968 116.978 47.233 115.828 45.763C114.699 44.2929 114.102 42.2157 114.038 39.5313V39.1158C114.038 36.4101 114.603 34.3009 115.732 32.7883C116.882 31.2756 118.48 30.5193 120.526 30.5193C122.358 30.5193 123.796 31.2543 124.84 32.7244V24H128.994V47.6804H125.255L125.064 45.4754C123.998 47.1371 122.475 47.968 120.494 47.968ZM118.193 39.4674C118.214 41.1931 118.502 42.5033 119.056 43.3981C119.631 44.2929 120.462 44.7403 121.548 44.7403C123.146 44.7403 124.243 44.0373 124.84 42.6312V35.8562C124.265 34.4501 123.178 33.747 121.58 33.747C120.536 33.747 119.727 34.1624 119.151 34.9933C118.576 35.8242 118.257 37.0386 118.193 38.6365V39.4674Z" fill="white"/>
<path d="M139.719 48C138.164 48 136.8 47.6698 135.628 47.0093C134.457 46.3489 133.53 45.4115 132.848 44.1971C132.188 42.9614 131.826 41.5233 131.762 39.8828V39.02C131.719 37.4647 131.996 36.0373 132.593 34.7377C133.189 33.4381 134.095 32.4048 135.309 31.6378C136.523 30.8708 137.993 30.4873 139.719 30.4873C141.317 30.4873 142.712 30.8495 143.905 31.5739C145.12 32.277 146.047 33.2783 146.686 34.5779C147.346 35.8775 147.676 37.3901 147.676 39.1158V39.4354C147.676 41.1611 147.346 42.6738 146.686 43.9734C146.047 45.2517 145.12 46.2423 143.905 46.9454C142.712 47.6485 141.317 48 139.719 48ZM135.916 39.4354C135.916 41.1611 136.246 42.482 136.907 43.3981C137.567 44.3142 138.505 44.7723 139.719 44.7723C140.933 44.7723 141.871 44.3249 142.531 43.4301C143.192 42.5353 143.522 41.2676 143.522 39.6272V39.02C143.522 37.3156 143.192 36.0053 142.531 35.0892C141.871 34.1731 140.933 33.715 139.719 33.715C138.547 33.715 137.631 34.1411 136.971 34.9933C136.31 35.8242 135.959 37.0067 135.916 38.5406V39.4354Z" fill="white"/>
<path d="M155.141 40.0107L155.621 42.3755L158.88 30.8069H161.789L165.016 42.1838L165.4 40.2024L167.445 30.8069H171.44L167.221 47.6804H163.706L160.766 37.7736L160.319 36.2397L159.871 37.8056L156.963 47.6804H153.448L149.261 30.8069H153.224L155.141 40.0107Z" fill="white"/>
<path d="M183.148 43.1105C183.148 42.4288 182.829 41.9068 182.189 41.5446C181.572 41.1824 180.613 40.8629 179.313 40.5859C177.353 40.1598 175.894 39.5419 174.935 38.7324C173.976 37.9015 173.497 36.8362 173.497 35.5366C173.497 34.5566 173.774 33.6831 174.328 32.9161C174.882 32.1491 175.659 31.5526 176.661 31.1265C177.662 30.7004 178.813 30.4873 180.112 30.4873C181.497 30.4873 182.722 30.7111 183.787 31.1585C184.853 31.5846 185.673 32.2024 186.248 33.012C186.845 33.8216 187.143 34.759 187.143 35.8242H182.988C182.988 35.0146 182.743 34.3862 182.253 33.9387C181.763 33.47 181.039 33.2357 180.08 33.2357C179.313 33.2357 178.674 33.4381 178.163 33.8429C177.673 34.2477 177.417 34.7483 177.396 35.3449C177.396 36.0266 177.726 36.5379 178.386 36.8788C179.068 37.1984 180.07 37.5286 181.39 37.8695L182.861 38.253C184.309 38.6791 185.385 39.2863 186.088 40.0746C186.791 40.8415 187.143 41.8109 187.143 42.9827C187.143 43.9627 186.845 44.8362 186.248 45.6032C185.651 46.3489 184.821 46.9348 183.755 47.3609C182.711 47.7656 181.508 47.968 180.144 47.968C178.887 47.968 177.705 47.7443 176.597 47.2969C175.489 46.8495 174.605 46.221 173.944 45.4115C173.284 44.5806 172.954 43.6325 172.954 42.5672H176.853C176.874 43.4194 177.183 44.0692 177.779 44.5166C178.397 44.964 179.217 45.1877 180.24 45.1877C181.177 45.1877 181.891 44.996 182.381 44.6125C182.892 44.229 183.148 43.7284 183.148 43.1105Z" fill="white"/>
<path d="M17.2974 19.8514L30.5383 18.0482L30.5441 30.8201L17.3094 30.8955L17.2974 19.8514ZM30.532 32.2916L30.5422 45.0746L17.3077 43.255L17.3069 32.2059L30.532 32.2916ZM32.1371 17.8123L49.6933 15.25V30.6577L32.1371 30.7969V17.8123ZM49.6973 32.4118L49.6931 47.75L32.137 45.2722L32.1124 32.3831L49.6973 32.4118Z" fill="#6563FF"/>
</g>
<defs>
<clipPath id="clip0_4421_44485">
<rect width="208" height="61" fill="white" transform="translate(0 0.5)"/>
</clipPath>
</defs>
</svg>
