<svg width="14" height="10" viewBox="0 0 14 10" fill="none" xmlns="http://www.w3.org/2000/svg">
<path fill-rule="evenodd" clip-rule="evenodd" d="M11.0548 0.671256C11.8224 0.714456 12.1996 0.828056 12.5468 1.44606V1.44566C12.9088 2.06246 13.0912 3.12566 13.0912 4.99766V5.00486C13.0912 6.86966 12.9076 7.93886 12.5476 8.54966C12.2 9.16765 11.8232 9.27966 11.0556 9.33166C10.2896 9.37566 8.36319 9.40206 6.68959 9.40206C5.01599 9.40206 3.08719 9.37566 2.32039 9.33086C1.55439 9.27886 1.17719 9.16686 0.82679 8.54886C0.46879 7.93846 0.28479 6.86726 0.28479 5.00406V4.99766C0.28479 3.12606 0.46879 2.06326 0.82679 1.44606C1.17759 0.827256 1.55519 0.714456 2.32119 0.670456C3.08719 0.619256 5.01919 0.597656 6.68959 0.597656C8.35999 0.597656 10.288 0.619256 11.0548 0.671256ZM5.08674 2.59844V7.40084L9.08674 4.99844L5.08674 2.59844Z" fill="#A6A6A6"/>
</svg>
