<svg width="25" height="24" viewBox="0 0 25 24" fill="none" xmlns="http://www.w3.org/2000/svg">
<path d="M12.4988 22.3008C10.4612 22.3008 8.46945 21.6966 6.7753 20.5646C5.08114 19.4326 3.76071 17.8236 2.98098 15.9412C2.20124 14.0587 1.99723 11.9874 2.39473 9.98896C2.79224 7.99057 3.77341 6.15493 5.21417 4.71417C6.65493 3.27341 8.49057 2.29224 10.489 1.89473C12.4874 1.49723 14.5587 1.70124 16.4412 2.48097C18.3236 3.26071 19.9326 4.58114 21.0646 6.2753C22.1966 7.96945 22.8008 9.96124 22.8008 11.9988C22.796 14.7296 21.7091 17.3472 19.7781 19.2781C17.8472 21.2091 15.2296 22.296 12.4988 22.3008V22.3008ZM11.726 16.1208C11.726 16.3257 11.8074 16.5223 11.9523 16.6672C12.0973 16.8122 12.2938 16.8936 12.4988 16.8936C12.7037 16.8936 12.9003 16.8122 13.0452 16.6672C13.1902 16.5223 13.2716 16.3257 13.2716 16.1208V10.9698C13.2716 10.7648 13.1902 10.5683 13.0452 10.4233C12.9003 10.2784 12.7037 10.197 12.4988 10.197C12.2938 10.197 12.0973 10.2784 11.9523 10.4233C11.8074 10.5683 11.726 10.7648 11.726 10.9698V16.1208ZM13.4468 7.48618C13.3969 7.36001 13.3234 7.24453 13.2302 7.14598C13.1299 7.05495 13.0149 6.9817 12.89 6.92938C12.767 6.87545 12.6342 6.8476 12.5 6.8476C12.3657 6.8476 12.2329 6.87545 12.11 6.92938C11.9851 6.9817 11.87 7.05495 11.7698 7.14598C11.6766 7.24453 11.603 7.36001 11.5532 7.48618C11.4992 7.60913 11.4714 7.74192 11.4714 7.87618C11.4714 8.01044 11.4992 8.14323 11.5532 8.26618C11.5996 8.39394 11.6734 8.50996 11.7695 8.60607C11.8656 8.70217 11.9816 8.77601 12.1094 8.82238C12.3593 8.92461 12.6394 8.92461 12.8894 8.82238C13.0171 8.77601 13.1332 8.70217 13.2293 8.60607C13.3254 8.50996 13.3992 8.39394 13.4456 8.26618C13.4995 8.14323 13.5274 8.01044 13.5274 7.87618C13.5274 7.74192 13.4995 7.60913 13.4456 7.48618H13.4468Z" fill="#A6A6A6"/>
</svg>
