<svg width="22" height="16" viewBox="0 0 22 16" fill="none" xmlns="http://www.w3.org/2000/svg">
<path d="M21.8027 10.9959C21.8027 11.6586 21.2655 12.1959 20.6027 12.1959H9.88277V12.2939C9.88277 12.6006 9.96606 12.9319 10.0489 13.2614C10.1999 13.862 10.3493 14.4564 9.98994 14.8847C9.68127 15.2526 9.13284 15.3005 8.76498 14.9919L0.749983 8.26651C0.464213 8.02672 0.464215 7.58704 0.749983 7.34725L8.7649 0.621894C9.13276 0.313226 9.68119 0.361207 9.98986 0.729064C10.3492 1.15736 10.1998 1.75184 10.0488 2.35241C9.96604 2.68185 9.88277 3.01315 9.88277 3.31984V3.7959H20.6027C21.2655 3.7959 21.8027 4.33316 21.8027 4.9959V10.9959Z" fill="#FFC107"/>
</svg>
