<svg width="24" height="24" viewBox="0 0 24 24" fill="none" xmlns="http://www.w3.org/2000/svg">
<path d="M2.06723 10.9364C1.58703 10.9364 1.19775 11.3256 1.19775 11.8058C1.19775 12.286 1.58703 12.6753 2.06723 12.6753H19.2971C19.7773 12.6753 20.1666 12.286 20.1666 11.8058C20.1666 11.3256 19.7773 10.9364 19.2971 10.9364L2.06723 10.9364Z" fill="white"/>
<path d="M14.235 18.9919C13.8671 19.3005 13.3187 19.2526 13.01 18.8847C12.7014 18.5168 12.7494 17.9684 13.1172 17.6597L20.0924 11.8068L13.1173 5.95401C12.7494 5.64535 12.7015 5.09692 13.0101 4.72906C13.3188 4.36121 13.8672 4.31322 14.2351 4.62189L22.25 11.3473C22.5358 11.587 22.5358 12.0267 22.25 12.2665L14.235 18.9919Z" fill="white"/>
</svg>
