<svg width="16" height="16" viewBox="0 0 16 16" fill="none" xmlns="http://www.w3.org/2000/svg">
<path d="M14.7502 2C14.7502 1.80109 14.6712 1.61032 14.5306 1.46967C14.3899 1.32902 14.1991 1.25 14.0002 1.25C11.2015 1.25 8.37523 4.28375 6.75648 6.375C6.16523 6.22234 5.54688 6.20707 4.94881 6.33037C4.35075 6.45367 3.78886 6.71226 3.3062 7.08632C2.82354 7.46038 2.43292 7.93999 2.1643 8.48837C1.89568 9.03675 1.75617 9.63936 1.75648 10.25C1.75648 11 1.56273 11.6694 1.17961 12.235C1.01873 12.4802 0.818796 12.6975 0.587733 12.8781C0.45302 12.9656 0.350293 13.0943 0.294963 13.2451C0.239634 13.3959 0.234684 13.5605 0.280858 13.7144C0.32801 13.87 0.424189 14.0062 0.555062 14.1028C0.685935 14.1993 0.844494 14.2509 1.00711 14.25H5.75711C6.36717 14.2493 6.96898 14.109 7.51649 13.8399C8.06401 13.5708 8.54272 13.1801 8.91602 12.6976C9.28931 12.215 9.54728 11.6535 9.67021 11.056C9.79313 10.4584 9.77775 9.84069 9.62523 9.25C11.7184 7.62813 14.7502 4.8 14.7502 2ZM13.1015 2.89937C12.8515 3.70687 12.2796 4.6175 11.419 5.58125C11.2315 5.79313 11.034 6 10.8346 6.19938C10.5305 5.81792 10.1846 5.47179 9.80336 5.1675C10.0027 4.96813 10.209 4.7725 10.4209 4.58313C11.3846 3.72188 12.2946 3.15188 13.1015 2.89937ZM5.75461 12.75H2.62523C3.05101 11.9862 3.26949 11.1244 3.25898 10.25C3.25898 9.75555 3.40561 9.2722 3.68031 8.86107C3.95501 8.44995 4.34546 8.12952 4.80227 7.9403C5.25909 7.75108 5.76176 7.70157 6.24671 7.79804C6.73166 7.8945 7.17712 8.1326 7.52675 8.48223C7.87638 8.83186 8.11448 9.27732 8.21095 9.76227C8.30741 10.2472 8.2579 10.7499 8.06868 11.2067C7.87946 11.6635 7.55903 12.054 7.14791 12.3287C6.73679 12.6034 6.25344 12.75 5.75898 12.75H5.75461ZM8.14086 7.0425C8.33586 6.79688 8.55023 6.53688 8.78023 6.27063C9.13876 6.54405 9.45892 6.86442 9.73211 7.22312C9.46586 7.45312 9.20586 7.6675 8.96023 7.8625C8.72809 7.55108 8.4521 7.27489 8.14086 7.0425Z" fill="#FFC107"/>
</svg>
