<svg width="16" height="17" viewBox="0 0 16 17" fill="none" xmlns="http://www.w3.org/2000/svg">
<path d="M8.00126 9.66663C7.86896 9.66569 7.74234 9.61271 7.64879 9.51916C7.55524 9.42561 7.50226 9.29899 7.50132 9.16669V5.83391C7.50226 5.70161 7.55524 5.575 7.64879 5.48144C7.74234 5.38789 7.86896 5.33492 8.00126 5.33397C8.13356 5.33492 8.26017 5.38789 8.35373 5.48144C8.44728 5.575 8.50025 5.70161 8.5012 5.83391V9.16669C8.50025 9.29899 8.44728 9.42561 8.35373 9.51916C8.26017 9.61271 8.13356 9.66569 8.00126 9.66663Z" fill="#A6A6A6"/>
<path fill-rule="evenodd" clip-rule="evenodd" d="M8.00087 15.6659C6.74844 15.6659 5.52413 15.2945 4.48277 14.5987C3.44141 13.9029 2.62977 12.9139 2.15049 11.7568C1.6712 10.5997 1.5458 9.32645 1.79014 8.09808C2.03447 6.86971 2.63758 5.74139 3.52318 4.85578C4.40878 3.97018 5.53711 3.36708 6.76548 3.12274C7.99384 2.8784 9.26708 3.0038 10.4242 3.48309C11.5813 3.96237 12.5703 4.77402 13.2661 5.81537C13.9619 6.85673 14.3333 8.08104 14.3333 9.33347C14.3318 11.0125 13.6642 12.6223 12.4769 13.8095C11.2897 14.9968 9.67987 15.6644 8.00087 15.6659ZM8.00087 4.00094C6.94619 4.00094 5.9152 4.31369 5.03827 4.89963C4.16134 5.48558 3.47786 6.31841 3.07425 7.2928C2.67064 8.26719 2.56504 9.33939 2.7708 10.3738C2.97655 11.4082 3.48443 12.3584 4.2302 13.1041C4.97597 13.8499 5.92613 14.3578 6.96054 14.5635C7.99495 14.7693 9.06715 14.6637 10.0415 14.2601C11.0159 13.8565 11.8488 13.173 12.4347 12.2961C13.0207 11.4191 13.3334 10.3881 13.3334 9.33347C13.3315 7.91978 12.7691 6.56454 11.7694 5.56491C10.7698 4.56527 9.41456 4.00284 8.00087 4.00094Z" fill="#A6A6A6"/>
<path d="M6.00151 2.33435H10.001C10.1333 2.33341 10.2599 2.28043 10.3535 2.18688C10.447 2.09332 10.5 1.96671 10.5009 1.83441C10.5 1.70211 10.447 1.5755 10.3535 1.48194C10.2599 1.38839 10.1333 1.33542 10.001 1.33447H6.00151C5.86921 1.33542 5.74259 1.38839 5.64904 1.48194C5.55549 1.5755 5.50251 1.70211 5.50157 1.83441C5.50251 1.96671 5.55549 2.09332 5.64904 2.18688C5.74259 2.28043 5.86921 2.33341 6.00151 2.33435Z" fill="#A6A6A6"/>
</svg>
