<svg width="16" height="17" viewBox="0 0 16 17" fill="none" xmlns="http://www.w3.org/2000/svg">
<g id="Confirmation">
<path id="Star 1" d="M7.44198 1.94905C7.73958 1.61594 8.26081 1.61594 8.55841 1.94905C8.79533 2.21425 9.18614 2.27615 9.49341 2.09714C9.87938 1.8723 10.3751 2.03337 10.5552 2.44214C10.6986 2.76757 11.0511 2.9472 11.3987 2.87191C11.8352 2.77734 12.2569 3.08372 12.3019 3.52813C12.3377 3.88194 12.6175 4.16173 12.9713 4.19752C13.4157 4.24249 13.7221 4.66417 13.6275 5.10073C13.5522 5.44829 13.7318 5.80083 14.0573 5.94421C14.466 6.12431 14.6271 6.62003 14.4023 7.006C14.2233 7.31328 14.2852 7.70408 14.5504 7.941C14.8835 8.2386 14.8835 8.75983 14.5504 9.05743C14.2852 9.29436 14.2233 9.68516 14.4023 9.99244C14.6271 10.3784 14.466 10.8741 14.0573 11.0542C13.7318 11.1976 13.5522 11.5501 13.6275 11.8977C13.7221 12.3343 13.4157 12.7559 12.9713 12.8009C12.6175 12.8367 12.3377 13.1165 12.3019 13.4703C12.2569 13.9147 11.8352 14.2211 11.3987 14.1265C11.0511 14.0512 10.6986 14.2309 10.5552 14.5563C10.3751 14.9651 9.87938 15.1261 9.49341 14.9013C9.18614 14.7223 8.79533 14.7842 8.55841 15.0494C8.26081 15.3825 7.73958 15.3825 7.44198 15.0494C7.20506 14.7842 6.81425 14.7223 6.50698 14.9013C6.12101 15.1261 5.62528 14.9651 5.44519 14.5563C5.30181 14.2309 4.94926 14.0512 4.60171 14.1265C4.16515 14.2211 3.74346 13.9147 3.6985 13.4703C3.6627 13.1165 3.38292 12.8367 3.02911 12.8009C2.58469 12.7559 2.27832 12.3343 2.37289 11.8977C2.44818 11.5501 2.26854 11.1976 1.94312 11.0542C1.53434 10.8741 1.37327 10.3784 1.59812 9.99244C1.77712 9.68516 1.71523 9.29436 1.45003 9.05743C1.11692 8.75983 1.11692 8.2386 1.45003 7.941C1.71523 7.70408 1.77712 7.31328 1.59812 7.006C1.37327 6.62003 1.53434 6.12431 1.94312 5.94421C2.26854 5.80083 2.44818 5.44829 2.37289 5.10073C2.27832 4.66417 2.58469 4.24249 3.02911 4.19752C3.38292 4.16173 3.6627 3.88194 3.6985 3.52813C3.74346 3.08372 4.16515 2.77734 4.60171 2.87191C4.94926 2.9472 5.30181 2.76757 5.44519 2.44214C5.62528 2.03337 6.12101 1.8723 6.50698 2.09714C6.81425 2.27615 7.20506 2.21425 7.44198 1.94905Z" fill="#4CAF50"/>
<path id="Path 5868" d="M6.2329 10.7647L4.13715 9.08045C4.09371 9.0457 4.05919 9.00408 4.03563 8.9581C4.01207 8.91212 3.99995 8.86275 4 8.81283C4.0013 8.71132 4.05139 8.61438 4.13929 8.54333C4.22718 8.47227 4.34569 8.43288 4.46876 8.43385C4.59358 8.43384 4.71331 8.4745 4.80198 8.54697L6.56826 9.96645L11.239 6.18603L11.2406 6.18719C11.33 6.1273 11.4433 6.09698 11.5583 6.10212C11.6732 6.10727 11.7818 6.14747 11.8628 6.21497C11.945 6.2821 11.9937 6.37221 11.9994 6.46752C12.0052 6.56282 11.9676 6.65644 11.8939 6.72995L11.8888 6.73404C11.8814 6.74105 11.8737 6.74781 11.8658 6.75414C11.8558 6.76262 11.8452 6.77062 11.8342 6.77812L6.89318 10.7692C6.80648 10.8447 6.68949 10.8917 6.56397 10.9016C6.43767 10.8891 6.32058 10.8407 6.2329 10.7647Z" fill="#F8F8F8"/>
</g>
</svg>
