<svg width="32" height="32" viewBox="0 0 32 32" fill="none" xmlns="http://www.w3.org/2000/svg">
<g id="Delete">
<g id="Union">
<path fill-rule="evenodd" clip-rule="evenodd" d="M5.0243 8.07741C4.98859 8.19722 4.9775 8.32353 4.99076 8.44784C5.01274 8.68475 5.12208 8.90497 5.29793 9.06524C5.47379 9.2255 5.70331 9.31376 5.94124 9.31372C5.97168 9.31372 6.0056 9.3121 8.62576 9.05609C15.2647 8.38329 19.2492 8.63711 25.9615 9.30991H26.0622C26.2987 9.31053 26.5266 9.22215 26.7009 9.06219C26.8752 8.90223 26.9831 8.68283 27.0027 8.44708C27.0269 8.19648 26.951 7.94608 26.7916 7.75118C26.6322 7.55628 26.4025 7.43269 26.1521 7.40666C24.4202 7.23651 22.8618 7.0929 21.3905 6.98363C21.3899 6.97536 21.3884 6.96693 21.3869 6.95847C21.3849 6.94697 21.3829 6.93542 21.3829 6.92418L21.104 5.27475L21.1035 5.27216C20.9131 4.10452 20.6278 2.35547 17.6641 2.35547H14.3385C11.3842 2.35547 11.1034 4.0425 10.9005 5.26152L10.9002 5.26331L10.6212 6.92494C10.6198 6.93598 10.6179 6.94693 10.6151 6.95772C9.91736 7.01079 9.19086 7.07555 8.42987 7.1536L5.84139 7.40742C5.71692 7.41912 5.59577 7.45535 5.48544 7.51413C5.3751 7.57292 5.27798 7.65287 5.19884 7.74966C5.1197 7.84644 5.06 7.95759 5.0243 8.07741ZM19.2426 5.59259L19.4561 6.85787C18.1987 6.78996 16.9797 6.75573 15.741 6.75573C14.7131 6.75573 13.6675 6.77884 12.5748 6.83347L12.7958 5.58039L12.7975 5.57012C12.9849 4.44992 13.0146 4.27244 14.3568 4.27244H17.6816C19.0264 4.27244 19.0639 4.48895 19.2426 5.59259Z" fill="#FF2211"/>
<path fill-rule="evenodd" clip-rule="evenodd" d="M7.18676 25.2131C7.32725 27.1925 7.50371 29.6423 11.9323 29.6423H20.0804C24.5105 29.6423 24.6869 27.1925 24.8274 25.2131L25.6522 12.4323C25.6605 12.3073 25.6443 12.1813 25.6041 12.0626C25.564 11.944 25.5007 11.8345 25.4182 11.7402C25.3356 11.646 25.2356 11.5693 25.1232 11.5138C25.0108 11.4584 24.8884 11.4252 24.7634 11.417C21.8362 10.9009 18.8724 10.6171 15.9004 10.5679C12.9981 10.6098 10.1043 10.8938 7.24926 11.417C6.9975 11.4355 6.76316 11.5526 6.59681 11.7425C6.43045 11.9324 6.3457 12.1803 6.36052 12.4323L7.18676 25.2131ZM9.08975 25.0927L9.08925 25.0858L8.32932 13.3195C10.8192 12.7902 13.3551 12.5061 15.9004 12.4712C18.5151 12.5148 21.1199 12.7987 23.6826 13.3195L22.9234 25.0858C22.7962 27.0152 22.7466 27.7391 20.0804 27.7391H11.9323C9.28252 27.7391 9.22986 27.0162 9.08975 25.0927Z" fill="#FF2211"/>
</g>
</g>
</svg>
