<svg width="32" height="33" viewBox="0 0 32 33" fill="none" xmlns="http://www.w3.org/2000/svg">
<g clip-path="url(#clip0_4428_138450)">
<path fill-rule="evenodd" clip-rule="evenodd" d="M5.02101 27.9088C5.70713 28.5618 6.62078 28.9212 7.56795 28.9104C7.65195 28.9104 7.75702 28.9064 7.85702 28.8936H7.91405C7.98686 28.8896 8.06687 28.8856 8.14687 28.8856L12.2767 28.3023C13.2831 28.1121 14.2157 27.642 14.9674 26.9463L25.7918 16.1229C26.3912 15.534 26.9063 14.8649 27.3224 14.1348C27.6738 13.5141 27.8916 12.8269 27.9622 12.1172C28.0421 11.254 27.8974 10.3848 27.5427 9.59387C27.1184 8.67144 26.525 7.83699 25.7926 7.13384C25.1996 6.52649 24.5208 6.00886 23.7785 5.59709C23.0154 5.17157 22.1583 4.94255 21.2847 4.93066C20.4288 4.98074 19.5915 5.20133 18.8221 5.5797C18.0528 5.95807 17.3671 6.48651 16.8049 7.13384L5.98119 17.9581C5.629 18.327 5.33732 18.7493 5.11711 19.2093C4.88705 19.6625 4.72775 20.1481 4.64444 20.6494L4.06161 24.78C3.96664 25.3547 4.00494 25.9434 4.17412 26.5007C4.33574 27.0327 4.627 27.5165 5.02101 27.9088ZM19.287 7.4233C19.8407 7.15099 20.4437 6.99229 21.0597 6.9563V6.96021C21.6849 6.96732 22.2981 7.12902 22.8457 7.43073C23.38 7.72695 23.8687 8.09927 24.2957 8.53622C24.8225 9.04241 25.2498 9.64306 25.5551 10.3068C25.8108 10.8759 25.9144 11.5017 25.8559 12.1228C25.8062 12.6336 25.6495 13.1283 25.3965 13.5748C25.0974 14.1004 24.7269 14.5821 24.2957 15.0061L22.4046 16.8572C20.9059 16.3096 19.5418 15.4327 18.4111 14.2855C17.3375 13.1963 16.5039 11.893 15.9606 10.4626L17.8354 8.54189C18.2399 8.07598 18.7333 7.69561 19.287 7.4233ZM14.6954 11.7587L7.19528 19.4422C6.94207 19.7076 6.73201 20.0114 6.57339 20.3422C6.46904 20.6681 6.41493 21.008 6.41323 21.3502C6.35883 21.9758 6.26735 23.0238 6.02494 24.7511C5.95637 25.1646 5.98343 25.5884 6.10463 25.9896C6.20766 26.3266 6.20821 26.3271 6.38812 26.4839L6.38901 26.4847L6.47339 26.5599C6.65894 26.7695 6.91186 26.9083 7.18825 26.9527C7.21305 26.9527 7.81141 26.9015 8.62423 26.8175C9.38585 26.7375 10.4963 26.6143 11.4587 26.4623C12.1543 26.4009 12.8167 26.138 13.365 25.7056L21.0476 18.1855C19.597 17.6356 18.2761 16.7756 17.1761 15.6601C16.0826 14.551 15.2381 13.2201 14.6954 11.7587Z" fill="white"/>
</g>
<defs>
<clipPath id="clip0_4428_138450">
<rect width="32" height="32" fill="white" transform="translate(0 0.921875)"/>
</clipPath>
</defs>
</svg>
