<svg width="16" height="17" viewBox="0 0 16 17" fill="none" xmlns="http://www.w3.org/2000/svg">
<path d="M13.9537 5.24801C13.6842 2.36878 12.2267 1.20801 9.23097 1.20801H6.76922C3.74858 1.20801 2.29186 2.31785 2.04 5.24801M14.0001 8.04801V10.4179C14.0001 14.0541 12.5724 15.608 9.23097 15.608H6.76922C3.42781 15.608 2.0001 14.0541 2.0001 10.4175V8.04801M5.40088 7.57988V6.77988M5.40088 6.77988V5.57988C5.40088 5.57988 5.92962 5.42488 6.20088 5.57988C6.44539 5.7196 6.60088 5.89827 6.60088 6.17988C6.60088 6.46149 6.44539 6.64016 6.20088 6.77988C5.92962 6.93489 5.40088 6.77988 5.40088 6.77988ZM10.6009 5.57988H9.40088V6.37988M9.40088 7.57988V6.37988M9.40088 6.37988H10.2009M9.31303 8.56619H6.68717C3.12299 8.56619 1.6001 8.13456 1.6001 7.12437V6.0079C1.6001 4.99782 3.12299 4.56619 6.68717 4.56619H9.31303C12.8772 4.56619 14.4001 4.99782 14.4001 6.00801V7.12448C14.4001 8.13456 12.8772 8.56619 9.31303 8.56619ZM7.40088 5.57988V7.57988C7.40088 7.57988 8.60088 7.57988 8.60088 6.57988C8.60088 5.51399 7.40088 5.57988 7.40088 5.57988Z" stroke="#A6A6A6" stroke-linecap="round"/>
</svg>
