<svg width="16" height="16" viewBox="0 0 16 16" fill="none" xmlns="http://www.w3.org/2000/svg">
<g clip-path="url(#clip0_4426_112248)">
<path d="M4.77607 12.8542C4.77608 12.8276 4.77879 12.801 4.78383 12.7748V4.13863H4.78171C4.78133 4.03652 4.74027 3.93877 4.66786 3.86677C4.59545 3.79477 4.49749 3.7544 4.39538 3.75459C4.33629 3.75671 4.27831 3.77034 4.22442 3.79469L2.7027 4.47429L2.68155 4.48408C2.63534 4.50086 2.58651 4.50846 2.53738 4.50646C2.43942 4.50636 2.34542 4.46737 2.27618 4.39807C2.20695 4.32876 2.16797 4.23484 2.16797 4.13687C2.16797 4.05445 2.19555 3.97433 2.24622 3.90933C2.2969 3.84434 2.36792 3.79813 2.44785 3.77803L5.04643 2.63851C5.09183 2.62056 5.14039 2.61139 5.18919 2.61145C5.28954 2.61152 5.38568 2.65085 5.45744 2.72099C5.5292 2.79113 5.5707 2.88654 5.57306 2.98686L5.58046 2.99188V12.777C5.58597 12.8031 5.58844 12.8297 5.58822 12.8564C5.5877 12.9094 5.57688 12.9617 5.55614 13.0104C5.5354 13.0591 5.50512 13.1033 5.46731 13.1404C5.4295 13.1774 5.38495 13.2067 5.33583 13.2265C5.28671 13.2462 5.23404 13.2561 5.18109 13.2556C5.12813 13.2559 5.07572 13.2458 5.0267 13.2257C4.97767 13.2057 4.93318 13.1761 4.89557 13.1389C4.85795 13.1016 4.82791 13.0573 4.80744 13.0084C4.78698 12.9596 4.77626 12.9072 4.77607 12.8542Z" fill="#FFC107"/>
<path d="M6.72325 9.5105C6.72303 9.42824 6.75379 9.3489 6.80926 9.28816L9.14805 6.13343C9.34441 5.86416 9.51321 5.6151 9.64965 5.3924C9.77048 5.19891 9.87801 4.99747 9.97183 4.78954C10.0101 4.70075 10.0441 4.61164 10.0734 4.52429C10.1019 4.43812 10.1261 4.35052 10.1456 4.26186C10.1649 4.17621 10.1795 4.08957 10.1893 4.00234C10.1991 3.91714 10.2041 3.83148 10.2041 3.74572C10.2046 3.6225 10.1967 3.49939 10.1809 3.37719C10.1665 3.26589 10.143 3.15588 10.1111 3.04831C10.0813 2.94868 10.0427 2.852 9.9951 2.75953C9.94957 2.67143 9.89507 2.58822 9.8326 2.5112C9.77261 2.43685 9.70401 2.36976 9.6285 2.31125C9.55487 2.25361 9.47448 2.20516 9.38916 2.1669C9.30085 2.12809 9.20858 2.09926 9.11386 2.08098C9.01118 2.06156 8.90676 2.05197 8.80226 2.05243C8.69095 2.052 8.57992 2.06314 8.47091 2.08565C8.36893 2.10719 8.27006 2.14067 8.17588 2.18532C8.08268 2.22989 7.99494 2.28551 7.91503 2.35099C7.83177 2.41986 7.7567 2.49772 7.69049 2.58311C7.62141 2.67221 7.56098 2.76762 7.51002 2.86819C7.45708 2.97229 7.41368 3.08108 7.38065 3.1931C7.34503 3.31209 7.31913 3.43379 7.3031 3.55696C7.28667 3.67998 7.27789 3.80385 7.27702 3.92796C7.27989 3.94489 7.28124 3.96207 7.28125 3.97925C7.28125 4.06359 7.24782 4.14441 7.18819 4.20405C7.12855 4.26369 7.04764 4.2972 6.9633 4.2972C6.92149 4.29725 6.87998 4.2891 6.84133 4.27314C6.80269 4.25718 6.76765 4.23376 6.73805 4.20423C6.70846 4.1747 6.68501 4.13964 6.66896 4.10103C6.65292 4.06243 6.64469 4.02106 6.64464 3.97925C6.64464 3.96718 6.64531 3.95509 6.64676 3.94312C6.64666 3.77594 6.65893 3.60897 6.68306 3.44355C6.70694 3.28423 6.74422 3.12732 6.7948 2.97438C6.84375 2.82765 6.90608 2.68576 6.98127 2.55059C7.05597 2.41664 7.14347 2.29006 7.24212 2.17263C7.3379 2.05806 7.44546 1.95405 7.56324 1.86226C7.67662 1.77442 7.79966 1.70005 7.93019 1.64063C8.06262 1.58088 8.20156 1.53635 8.34402 1.50782C8.49507 1.47774 8.64859 1.46285 8.80261 1.46341C8.95232 1.46268 9.10192 1.4747 9.24957 1.49945C9.38529 1.52271 9.51852 1.55966 9.64683 1.60961C9.76947 1.65783 9.88634 1.71936 9.99545 1.79326C10.1045 1.86762 10.205 1.95387 10.2951 2.05031C10.3869 2.14857 10.4677 2.2567 10.5358 2.37267C10.6061 2.49286 10.6637 2.61991 10.7078 2.75195C10.7551 2.89409 10.7898 3.04011 10.8115 3.18834C10.8348 3.35177 10.8461 3.51675 10.8457 3.68183C10.8456 3.76625 10.8409 3.85058 10.8316 3.93448C10.8222 4.02039 10.8084 4.10917 10.79 4.19832C10.749 4.38903 10.6925 4.57615 10.6215 4.75782C10.5408 4.96393 10.4474 5.16478 10.3416 5.35917C10.2297 5.566 10.0976 5.78221 9.94927 6.00203L9.58585 6.5232L7.92948 8.75677C7.89504 8.80812 7.87687 8.86864 7.87696 8.93047C7.87739 8.9727 7.88614 9.01445 7.90269 9.05331C7.91925 9.09217 7.94338 9.12738 7.97354 9.15694C8.00371 9.18651 8.0394 9.20982 8.07859 9.22559C8.11777 9.24136 8.15973 9.2492 8.20196 9.24877C8.21171 9.24877 8.22149 9.24877 8.23051 9.24877H11.1809C11.2574 9.25194 11.3296 9.28465 11.3825 9.33998C11.4354 9.3953 11.4645 9.46894 11.4643 9.54548C11.4643 9.62165 11.4348 9.6949 11.3818 9.74966C11.3289 9.80442 11.257 9.8364 11.1809 9.83893H7.05389C6.96657 9.83893 6.88283 9.80441 6.82089 9.74288C6.75895 9.68134 6.72382 9.59781 6.72325 9.5105Z" fill="#FFC107"/>
<path d="M11.2444 13.778C11.1653 13.7683 11.0871 13.7536 11.0099 13.7337C10.9336 13.7147 10.8585 13.6905 10.7854 13.6614C10.7117 13.6317 10.6402 13.5972 10.5711 13.5579C10.5024 13.519 10.4361 13.4754 10.3733 13.4276C10.3121 13.3804 10.2545 13.3289 10.2006 13.2734C10.1465 13.2178 10.0964 13.1583 10.0508 13.0955C10.0046 13.0311 9.96275 12.9636 9.92532 12.8937C9.88716 12.8218 9.85385 12.7474 9.82592 12.671C9.79688 12.5922 9.7727 12.5117 9.75365 12.4299C9.73433 12.3443 9.72016 12.2577 9.71136 12.1704C9.70152 12.0792 9.69657 11.9875 9.69655 11.8957V11.891C9.69617 11.8572 9.70263 11.8238 9.71523 11.7925C9.72784 11.7613 9.74657 11.7328 9.77022 11.7088C9.79388 11.6848 9.82199 11.6657 9.85306 11.6526C9.88413 11.6395 9.91734 11.6327 9.95105 11.6326C9.98488 11.6327 10.0186 11.6395 10.0497 11.6526C10.0809 11.6657 10.1091 11.6848 10.1329 11.7088C10.1567 11.7328 10.1755 11.7614 10.1883 11.7927C10.2011 11.824 10.2075 11.8576 10.2073 11.8914C10.2073 11.8968 10.2073 11.9022 10.2073 11.9076C10.2078 12.0022 10.2154 12.0967 10.2299 12.1902C10.244 12.282 10.2662 12.3724 10.2965 12.4602C10.3257 12.5443 10.3633 12.6253 10.4082 12.702C10.4531 12.7784 10.5052 12.8502 10.564 12.9164C10.6216 12.9815 10.6859 13.0403 10.7558 13.0919C10.823 13.1417 10.8955 13.1837 10.9722 13.2171C11.0509 13.2509 11.1332 13.276 11.2172 13.2922C11.3068 13.3092 11.3978 13.3175 11.489 13.3171C11.5813 13.3176 11.6733 13.31 11.7643 13.2944C11.8475 13.2802 11.929 13.2573 12.0075 13.2262C12.0819 13.1965 12.1527 13.1581 12.2183 13.1121C12.2838 13.0661 12.3437 13.0126 12.3967 12.9526C12.4514 12.8906 12.4988 12.8227 12.5384 12.7501C12.58 12.6727 12.614 12.5912 12.6395 12.5071C12.6675 12.4145 12.6878 12.3198 12.7002 12.2238C12.7142 12.1161 12.7212 12.0076 12.7206 11.899C12.721 11.795 12.7136 11.6911 12.6987 11.5882C12.6853 11.4956 12.6636 11.4046 12.6335 11.316C12.6062 11.2344 12.5699 11.156 12.5253 11.0824C12.4824 11.0118 12.4311 10.9464 12.373 10.8876C12.315 10.8289 12.2504 10.7773 12.1802 10.7338C12.1067 10.6887 12.0283 10.6517 11.9469 10.6233C11.8579 10.5925 11.7664 10.57 11.6733 10.5558C11.5697 10.5403 11.4651 10.5324 11.3603 10.532H10.864C10.8337 10.5338 10.8033 10.5292 10.7748 10.5185C10.7464 10.5078 10.7207 10.4912 10.699 10.4698C10.6774 10.4484 10.6604 10.4227 10.6493 10.3944C10.6383 10.366 10.6334 10.3357 10.6349 10.3053C10.6333 10.2738 10.638 10.2422 10.6486 10.2125C10.6593 10.1827 10.6756 10.1553 10.6969 10.132C10.7182 10.1087 10.7441 10.0898 10.7727 10.0765C10.8014 10.0632 10.8324 10.0557 10.864 10.0545H11.3649C11.4543 10.0541 11.5437 10.0462 11.6317 10.0307C11.7139 10.016 11.7944 9.99342 11.8721 9.96316C11.9471 9.93383 12.0186 9.89664 12.0858 9.8523C12.1532 9.80742 12.216 9.75577 12.2729 9.69818C12.3302 9.64032 12.381 9.57648 12.4245 9.50765C12.4682 9.43823 12.5044 9.3644 12.5327 9.28743C12.5625 9.20649 12.5841 9.12287 12.5976 9.03769C12.6125 8.94532 12.62 8.85182 12.6198 8.75825C12.6201 8.65605 12.6139 8.55396 12.6011 8.45255C12.5896 8.36146 12.5708 8.27139 12.5451 8.18325C12.5213 8.1029 12.4902 8.02495 12.452 7.95042C12.4155 7.88045 12.3715 7.81464 12.3209 7.75408C12.2723 7.69583 12.217 7.64353 12.1563 7.59819C12.0956 7.55348 12.0298 7.51612 11.9603 7.48698C11.8873 7.4566 11.8114 7.43419 11.7336 7.42018C11.6484 7.40501 11.5621 7.39751 11.4756 7.3978C11.3908 7.39763 11.3061 7.40566 11.2228 7.42168C11.1444 7.43736 11.068 7.46155 10.9948 7.49386C10.9229 7.52541 10.8546 7.56509 10.7917 7.61221C10.727 7.66095 10.668 7.71657 10.6152 7.77797C10.5603 7.84094 10.5118 7.90924 10.4706 7.98188C10.429 8.05617 10.3945 8.13424 10.3677 8.21506C10.3399 8.30052 10.3194 8.38812 10.3064 8.47705C10.2959 8.54797 10.2896 8.61945 10.2873 8.6911C10.2873 8.70085 10.2873 8.7106 10.2873 8.72071C10.2873 8.73388 10.2864 8.74707 10.2845 8.7601V8.76839C10.2725 8.82796 10.24 8.88154 10.1929 8.91987C10.1457 8.9582 10.0865 8.97891 10.0258 8.97847C9.99162 8.97881 9.95771 8.97239 9.92602 8.95961C9.89434 8.94684 9.8658 8.92794 9.84143 8.90401C9.81705 8.88007 9.79732 8.85156 9.78397 8.82011C9.77062 8.78867 9.76381 8.75487 9.76353 8.72071C9.7634 8.69078 9.76865 8.6611 9.77903 8.63303C9.78156 8.5926 9.78458 8.55217 9.78855 8.51283C9.79742 8.4313 9.81056 8.35028 9.82838 8.27022C9.84594 8.19237 9.86855 8.11571 9.89571 8.04066C9.92225 7.96662 9.95329 7.89434 9.98877 7.82414C10.0239 7.75523 10.0635 7.68867 10.1072 7.6249C10.15 7.56275 10.197 7.50376 10.2482 7.44838C10.2988 7.39303 10.3535 7.34152 10.4118 7.29426C10.4707 7.24604 10.5328 7.20202 10.5979 7.16251C10.6631 7.12274 10.7312 7.08752 10.8013 7.05712C10.8707 7.02692 10.9422 7.00172 11.0152 6.98168C11.0891 6.96149 11.1642 6.94642 11.2401 6.93656C11.3183 6.92644 11.3971 6.92138 11.4759 6.92141C11.5958 6.92103 11.7156 6.93128 11.8337 6.95207C11.9432 6.97137 12.0503 7.00206 12.1534 7.04372C12.2529 7.08397 12.3475 7.13534 12.4354 7.19679C12.5245 7.25906 12.6065 7.33084 12.6801 7.41084C12.7553 7.49298 12.8213 7.58312 12.8768 7.67971C12.9344 7.78053 12.9816 7.887 13.0177 7.99739C13.0564 8.11672 13.0847 8.23916 13.102 8.36337C13.1212 8.50077 13.1307 8.63943 13.1302 8.77817C13.1304 8.85919 13.1249 8.94009 13.1136 9.02033C13.1032 9.09845 13.0867 9.17564 13.0646 9.2513C13.0432 9.32642 13.0162 9.39984 12.9836 9.47082C12.9509 9.54279 12.9128 9.61225 12.8701 9.6787C12.8276 9.74485 12.7807 9.80791 12.7294 9.86746C12.6791 9.92557 12.6245 9.97984 12.5662 10.0299C12.5081 10.0797 12.4464 10.1253 12.3815 10.166C12.3151 10.2069 12.2457 10.243 12.1742 10.2742C12.256 10.301 12.3357 10.334 12.4125 10.3729C12.4858 10.4101 12.5559 10.4534 12.6219 10.5024C12.6866 10.5508 12.747 10.6046 12.8024 10.6634C12.8584 10.7232 12.9093 10.7875 12.9547 10.8558C13.0008 10.9258 13.0411 10.9994 13.0752 11.076C13.1102 11.155 13.1391 11.2368 13.1612 11.3204C13.1848 11.4087 13.2019 11.4985 13.2127 11.5892C13.2246 11.6866 13.2305 11.7846 13.2303 11.8827C13.2307 12.0213 13.2207 12.1598 13.2003 12.297C13.1815 12.4229 13.1514 12.5469 13.1105 12.6674C13.0719 12.7805 13.0223 12.8893 12.9617 12.9922C12.902 13.0932 12.8319 13.1877 12.7527 13.2741C12.6749 13.3587 12.5885 13.4349 12.4946 13.5012C12.402 13.566 12.3024 13.6203 12.1978 13.6633C12.0897 13.7073 11.9771 13.7399 11.8623 13.7608C11.739 13.7829 11.6142 13.7937 11.489 13.7932C11.4073 13.7931 11.3254 13.788 11.2444 13.778Z" fill="#FFC107"/>
</g>
<defs>
<clipPath id="clip0_4426_112248">
<rect width="16" height="16" fill="white"/>
</clipPath>
</defs>
</svg>
