<svg width="33" height="32" viewBox="0 0 33 32" fill="none" xmlns="http://www.w3.org/2000/svg">
<g id="QrCode">
<path id="Vector" d="M13 4.5H7.5C6.83696 4.5 6.20107 4.76339 5.73223 5.23223C5.26339 5.70107 5 6.33696 5 7V12.5C5 13.163 5.26339 13.7989 5.73223 14.2678C6.20107 14.7366 6.83696 15 7.5 15H13C13.663 15 14.2989 14.7366 14.7678 14.2678C15.2366 13.7989 15.5 13.163 15.5 12.5V7C15.5 6.33696 15.2366 5.70107 14.7678 5.23223C14.2989 4.76339 13.663 4.5 13 4.5ZM13.5 13H7V6.5H13.5V13ZM13 17H7.5C6.83696 17 6.20107 17.2634 5.73223 17.7322C5.26339 18.2011 5 18.837 5 19.5V25C5 25.663 5.26339 26.2989 5.73223 26.7678C6.20107 27.2366 6.83696 27.5 7.5 27.5H13C13.663 27.5 14.2989 27.2366 14.7678 26.7678C15.2366 26.2989 15.5 25.663 15.5 25V19.5C15.5 18.837 15.2366 18.2011 14.7678 17.7322C14.2989 17.2634 13.663 17 13 17ZM13.5 25.5H7V19H13.5V25.5ZM25.5 4.5H20C19.337 4.5 18.7011 4.76339 18.2322 5.23223C17.7634 5.70107 17.5 6.33696 17.5 7V12.5C17.5 13.163 17.7634 13.7989 18.2322 14.2678C18.7011 14.7366 19.337 15 20 15H25.5C26.163 15 26.7989 14.7366 27.2678 14.2678C27.7366 13.7989 28 13.163 28 12.5V7C28 6.33696 27.7366 5.70107 27.2678 5.23223C26.7989 4.76339 26.163 4.5 25.5 4.5ZM26 13H19.5V6.5H26V13ZM18 21.5V18.5C18 18.1022 18.296 17 19 17C19.704 17 20 18.1022 20 18.5V21.5C20 21.8978 19.704 23 19 23C18.296 23 18 21.8978 18 21.5ZM28 20.5C28 21.204 26.8978 21.5 26.5 21.5H25V26C25 26.3978 24.842 26.7794 24.5607 27.0607C24.2794 27.342 23.8978 27.5 23.5 27.5H19C18.6022 27.5 17.5 27.204 17.5 26.5C17.5 25.796 18.6022 25.5 19 25.5H23V18.5C23 18.1022 23.296 17 24 17C24.704 17 25 18.1022 25 18.5V19.5H26.5C26.8978 19.5 28 19.796 28 20.5Z" fill="white"/>
</g>
</svg>
