<svg width="24" height="25" viewBox="0 0 24 25" fill="none" xmlns="http://www.w3.org/2000/svg">
<g clip-path="url(#clip0_4426_109673)">
<path d="M11.2721 17.5456C11.1278 17.6899 11.0467 17.8857 11.0465 18.0898C11.0467 18.2939 11.1278 18.4895 11.2721 18.6339C11.4165 18.7782 11.6124 18.8595 11.8165 18.8596C12.0207 18.8596 12.2164 18.7785 12.3608 18.6342C12.5053 18.4898 12.5868 18.294 12.587 18.0898C12.5868 17.8856 12.5053 17.6897 12.3608 17.5453C12.2164 17.401 12.0207 17.3199 11.8165 17.3199C11.6124 17.32 11.4165 17.4013 11.2721 17.5456Z" fill="#A6A6A6"/>
<path d="M11.3811 16.2417C11.5024 16.3267 11.6452 16.3756 11.793 16.3828L11.8024 16.3875C11.9357 16.378 12.0656 16.3403 12.1833 16.277C12.301 16.2137 12.4042 16.1263 12.4856 16.0204C12.5595 15.9216 12.5958 15.7997 12.5882 15.6766C12.481 15.0843 12.5187 14.4748 12.6983 13.9004C12.8406 13.5039 13.0766 13.1475 13.3857 12.8612C13.9462 12.4998 14.415 12.0135 14.7562 11.4404C14.8934 11.2025 15.012 10.9541 15.1101 10.6976C15.2033 10.4523 15.2761 10.1998 15.3287 9.94274C15.3793 9.69688 15.4095 9.44725 15.4183 9.19638C15.427 8.95571 15.4139 8.71477 15.3796 8.47639C15.3473 8.24902 15.2932 8.02533 15.2173 7.80855C15.144 7.59897 15.0481 7.39782 14.932 7.20854C14.8178 7.02441 14.6823 6.85443 14.5283 6.70213C14.3727 6.5491 14.1987 6.41632 14.0097 6.3072C13.8076 6.19043 13.5905 6.10165 13.3646 6.04323C13.1397 5.98584 12.9082 5.95712 12.6761 5.95753C12.3473 5.95914 12.0206 6.01085 11.7075 6.11105C11.3747 6.21728 11.0577 6.36694 10.7641 6.55623C10.1161 6.97947 9.57844 7.55137 9.19609 8.22429C9.05846 8.46196 8.94035 8.7104 8.84277 8.96713C8.74905 9.21231 8.67547 9.46479 8.62303 9.72198C8.59305 9.94333 8.57771 10.1664 8.57733 10.3898C8.57733 10.594 8.65855 10.7898 8.80292 10.9342C8.94729 11.0785 9.1431 11.1596 9.34727 11.1596C9.55199 11.1611 9.74897 11.0813 9.89514 10.938C10.0413 10.7946 10.1246 10.5992 10.1272 10.3945C10.1272 10.3818 10.1306 10.3451 10.1339 10.3097C10.137 10.2764 10.1401 10.2443 10.1401 10.2338C10.163 9.75546 10.3023 9.28995 10.5461 8.87777C10.7345 8.50438 11.0148 8.185 11.3606 7.94977C11.7064 7.71454 12.1061 7.57122 12.5225 7.53316C12.7529 7.53074 12.9795 7.58971 13.1794 7.70411C13.3824 7.83213 13.5517 8.00712 13.6728 8.21433C13.7938 8.42153 13.8631 8.65479 13.8749 8.89447C13.9212 9.48085 13.7828 10.0671 13.4794 10.571C13.2556 10.9675 12.9438 11.3069 12.5677 11.5633C12.5521 11.5735 12.0793 11.9954 11.9923 12.0734C11.6284 12.4053 11.3645 12.8324 11.2311 13.3064C11.0121 13.9057 10.9462 14.5501 11.0383 15.1814C11.0295 15.3357 11.0295 15.4904 11.0383 15.6446C11.0489 15.7545 11.0689 15.7972 11.0849 15.8314C11.0953 15.8534 11.1039 15.872 11.1075 15.9028C11.1647 16.0393 11.2599 16.1568 11.3811 16.2417Z" fill="#A6A6A6"/>
<path fill-rule="evenodd" clip-rule="evenodd" d="M6.08504 21.2621C7.83617 22.4322 9.89494 23.0567 12.001 23.0567C14.8244 23.0543 17.5315 21.9317 19.528 19.9352C21.5244 17.9387 22.6471 15.2317 22.6495 12.4082C22.6495 10.3022 22.025 8.2434 20.8549 6.49227C19.6848 4.74113 18.0218 3.37629 16.076 2.57034C14.1302 1.76438 11.9892 1.5535 9.9236 1.96438C7.858 2.37525 5.96062 3.38942 4.47141 4.87863C2.98219 6.36785 1.96802 8.26522 1.55715 10.3308C1.14628 12.3964 1.35715 14.5375 2.16311 16.4832C2.96907 18.429 4.33391 20.092 6.08504 21.2621ZM6.91035 4.79026C8.41719 3.78341 10.1887 3.24601 12.001 3.24601C14.4303 3.24887 16.7592 4.21455 18.477 5.93229C20.1947 7.65004 21.161 9.97898 21.1638 12.4082C21.164 14.2205 20.6267 15.9921 19.6199 17.499C18.6132 19.0059 17.1822 20.1804 15.5079 20.874C13.8336 21.5676 11.9913 21.7492 10.2138 21.3957C8.43634 21.0422 6.80363 20.1696 5.52212 18.8881C4.24062 17.6067 3.36788 15.9741 3.01429 14.1966C2.66069 12.4192 2.84211 10.5768 3.5356 8.90251C4.2291 7.22819 5.40352 5.79712 6.91035 4.79026Z" fill="#A6A6A6"/>
</g>
<defs>
<clipPath id="clip0_4426_109673">
<rect width="24" height="24" fill="white" transform="translate(0 0.408203)"/>
</clipPath>
</defs>
</svg>
