<svg width="16" height="16" viewBox="0 0 16 16" fill="none" xmlns="http://www.w3.org/2000/svg">
<path fill-rule="evenodd" clip-rule="evenodd" d="M4.83703 13.0679H11.1613C11.5696 13.0753 11.9778 13.053 12.3829 13.0013C14.7198 12.7461 15.1739 11.3588 15.1739 9.05522V4.83437C15.1739 2.53198 14.7198 1.14348 12.3965 0.889129C11.9868 0.838262 11.5741 0.816009 11.1613 0.822533H4.83703C4.42903 0.815573 4.02105 0.837828 3.61623 0.889129C1.27934 1.14348 0.825195 2.53198 0.825195 4.83437V9.05522C0.825195 11.3588 1.28575 12.7477 3.60179 13.0013C4.01145 13.0525 4.42423 13.0748 4.83703 13.0679ZM3.73658 1.88567C4.09966 1.83994 4.46551 1.81983 4.83141 1.82549L11.1549 1.82308C11.5274 1.81795 11.8999 1.83806 12.2698 1.88326C13.6984 2.03692 14.1726 2.49065 14.1726 4.83437V9.05522C14.1726 11.4054 13.6984 11.8527 12.2561 12.0131C11.8931 12.0591 11.5272 12.0792 11.1613 12.0733H4.83783C4.46527 12.0787 4.09277 12.0586 3.72294 12.0131C2.29433 11.8595 1.82013 11.4058 1.82013 9.06204V4.84359C1.82013 2.49346 2.29433 2.04614 3.73658 1.88567Z" fill="#FFC107"/>
<path d="M4.65771 15.1793H11.3346C11.4674 15.1784 11.5946 15.1252 11.6884 15.0312C11.7822 14.9371 11.8352 14.8098 11.8357 14.677C11.8347 14.5444 11.7816 14.4176 11.6879 14.3239C11.5941 14.2302 11.4672 14.1772 11.3346 14.1763H4.65771C4.52521 14.1773 4.39841 14.2303 4.30472 14.324C4.21103 14.4177 4.15798 14.5445 4.15703 14.677C4.15756 14.8098 4.21042 14.937 4.30416 15.031C4.3979 15.1251 4.52494 15.1783 4.65771 15.1793Z" fill="#FFC107"/>
</svg>
