<svg width="32" height="32" viewBox="0 0 32 32" fill="none" xmlns="http://www.w3.org/2000/svg">
<g id="send 1">
<path id="Path 5648" d="M17.7746 29.4579C17.5122 29.3496 17.2607 29.2156 17.0246 29.0579C16.7483 28.8732 16.4896 28.6638 16.2511 28.4323C15.9676 28.156 15.7056 27.858 15.4683 27.5411C15.1831 27.1603 14.9233 26.7614 14.6902 26.3467C14.4104 25.8482 14.1571 25.3351 13.9315 24.8098C13.6779 24.2242 13.433 23.5786 13.205 22.8898C13.152 22.7617 13.1251 22.6243 13.1253 22.4857C13.1253 22.345 13.1534 22.2055 13.2073 22.0755C13.2612 21.9455 13.3398 21.8275 13.4393 21.7281C13.5389 21.6286 13.6569 21.5496 13.787 21.4958C13.9171 21.442 14.0564 21.4145 14.1972 21.4146C14.4401 21.4147 14.6761 21.4974 14.8659 21.649C15.0558 21.8006 15.1887 22.0121 15.2425 22.249C15.5181 23.0957 15.8545 23.9213 16.2496 24.7193C16.5392 25.3079 16.8893 25.8647 17.2949 26.3803C17.5012 26.6999 17.7733 26.9719 18.0926 27.1788C18.4118 27.3856 18.7713 27.5226 19.1473 27.5804C20.1729 27.5804 21.7397 26.169 23.0669 22.2089L27.0991 10.1125C27.2705 9.60272 27.3999 9.07972 27.485 8.54863C27.5586 8.09604 27.5821 7.63661 27.5553 7.17887C27.5334 6.79151 27.4526 6.40993 27.3155 6.047C27.1949 5.72918 27.0091 5.43985 26.7709 5.19737C26.4561 4.9206 26.0904 4.70861 25.6936 4.57353C25.2967 4.43845 24.8767 4.38284 24.4584 4.41005C23.5757 4.42916 22.7015 4.58908 21.8692 4.88369L9.77284 8.93028C5.81274 10.2551 4.40162 11.8231 4.40162 12.8503C4.45932 13.2253 4.59629 13.5838 4.80319 13.9019C5.01009 14.22 5.2822 14.4903 5.60165 14.6951C6.11744 15.0988 6.67423 15.4474 7.26262 15.7351C7.92481 16.0637 8.60675 16.3504 9.30486 16.5936C9.53464 16.6537 9.73818 16.7885 9.883 16.9768C10.0278 17.165 10.1057 17.3961 10.1049 17.6336C10.1049 17.9177 9.99249 18.1902 9.79159 18.3911C9.5907 18.592 9.31787 18.7049 9.03376 18.7049C8.90423 18.7052 8.77604 18.6817 8.65485 18.636C8.64797 18.6373 8.64062 18.6373 8.63375 18.636C8.13054 18.4584 7.64428 18.2671 7.19387 18.0711C6.66951 17.8455 6.15758 17.5921 5.66024 17.3119C5.24645 17.0789 4.84808 16.8192 4.46802 16.5344C4.15201 16.2969 3.85537 16.0353 3.57972 15.7519C3.34864 15.5136 3.13932 15.2549 2.9547 14.9791C2.79706 14.7429 2.66308 14.4918 2.55469 14.2294C2.3751 13.7937 2.28233 13.3273 2.28125 12.856C2.28271 12.3868 2.37548 11.9224 2.55469 11.4887C2.66325 11.2264 2.79723 10.9753 2.9547 10.7391C3.13926 10.4625 3.34858 10.203 3.57972 9.9639C3.85535 9.67955 4.15198 9.41676 4.46802 9.17814C4.84799 8.89201 5.24636 8.63107 5.66024 8.39667C6.15755 8.11499 6.66948 7.85989 7.19387 7.63259C7.77789 7.37738 8.42237 7.13093 9.10798 6.90132L21.2036 2.86919C22.2582 2.4978 23.3662 2.29886 24.4841 2.27972C25.2127 2.27119 25.9368 2.39158 26.6233 2.63559C27.253 2.86394 27.8258 3.22547 28.303 3.69558C28.6905 4.08018 29.0053 4.53175 29.2319 5.02842C29.4688 5.55437 29.622 6.11426 29.6851 6.68764C29.7556 7.33193 29.7463 7.98256 29.6577 8.62461C29.5558 9.36153 29.3839 10.087 29.1436 10.7911L25.1115 22.8873C24.8819 23.5761 24.6314 24.2226 24.3802 24.8074C24.1538 25.3343 23.8992 25.8487 23.6177 26.3483C23.3839 26.7648 23.1229 27.1656 22.8372 27.5483C22.5995 27.8658 22.3377 28.1643 22.0536 28.4411C21.8149 28.6731 21.5559 28.883 21.2794 29.0683C21.0433 29.2261 20.7918 29.36 20.5294 29.4683C20.0936 29.648 19.6272 29.741 19.1559 29.7419C18.6812 29.7387 18.2121 29.6423 17.7746 29.4579Z" fill="#FFC107"/>
</g>
</svg>
