<svg width="24" height="24" viewBox="0 0 24 24" fill="none" xmlns="http://www.w3.org/2000/svg">
<path fill-rule="evenodd" clip-rule="evenodd" d="M11.2493 13.145C10.9742 13.0671 10.7114 12.9464 10.4711 12.7859C10.0188 12.4837 9.66618 12.0542 9.45796 11.5517C9.24974 11.0492 9.19523 10.4962 9.30132 9.96265C9.40742 9.42914 9.66935 8.93907 10.054 8.55443C10.4386 8.16979 10.9287 7.90786 11.4622 7.80177C11.9957 7.69568 12.5487 7.75019 13.0512 7.95841C13.5538 8.16663 13.9833 8.5192 14.2854 8.97154C14.5875 9.42387 14.7487 9.95565 14.7486 10.4996C14.7488 10.8607 14.6778 11.2183 14.5397 11.552C14.4015 11.8856 14.199 12.1888 13.9437 12.4441C13.6883 12.6995 13.3852 12.902 13.0515 13.0401C12.9527 13.081 12.8518 13.116 12.7493 13.1451V15.4993C12.7479 15.6977 12.6684 15.8877 12.528 16.028C12.3877 16.1684 12.1977 16.2478 11.9993 16.2493C11.8008 16.2478 11.6108 16.1684 11.4705 16.028C11.3302 15.8877 11.2507 15.6977 11.2493 15.4993V13.145ZM11.9992 9.24937C11.752 9.24937 11.5105 9.32265 11.305 9.45993C11.0995 9.59722 10.9393 9.79235 10.8447 10.0207C10.7501 10.249 10.7253 10.5002 10.7735 10.7426C10.8217 10.985 10.9406 11.2076 11.1153 11.3824C11.29 11.5572 11.5126 11.6763 11.755 11.7246C11.9974 11.7729 12.2486 11.7482 12.477 11.6537C12.7053 11.5592 12.9005 11.3991 13.0379 11.1937C13.1753 10.9883 13.2487 10.7467 13.2488 10.4996C13.2488 10.1681 13.1172 9.85022 12.8828 9.61577C12.6485 9.38132 12.3306 9.24953 11.9992 9.24937Z" fill="#FFC107"/>
<path fill-rule="evenodd" clip-rule="evenodd" d="M12.0094 22.7519C10.9274 22.7644 9.86949 22.4317 8.98936 21.8022L4.6897 18.5926C4.08926 18.0971 3.59867 17.4819 3.24923 16.7862C2.89979 16.0905 2.69917 15.3296 2.66016 14.5521V7.11304C2.69108 6.3117 2.95031 5.53588 3.40734 4.87691C3.86436 4.21795 4.50014 3.70328 5.23983 3.39351L10.2294 1.52354C11.3803 1.15361 12.6181 1.15361 13.769 1.52354L18.7585 3.39351C19.4982 3.70328 20.134 4.21795 20.591 4.87691C21.0481 5.53588 21.3073 6.3117 21.3382 7.11304V14.5425C21.3004 15.3204 21.1003 16.0817 20.7508 16.7777C20.4012 17.4736 19.91 18.0888 19.3087 18.5836L15.009 21.7932C14.1408 22.4321 13.0872 22.7689 12.0094 22.7519ZM10.7591 2.93336L5.77017 4.80273C5.318 5.00842 4.93026 5.33316 4.64843 5.74222C4.3666 6.15128 4.20129 6.62927 4.17017 7.12504V14.5521C4.208 15.0957 4.35294 15.6265 4.59664 16.1139C4.84034 16.6013 5.178 17.0357 5.59019 17.3922L9.88985 20.6018C10.5187 21.0223 11.2583 21.2468 12.0148 21.2468C12.7713 21.2468 13.5108 21.0223 14.1397 20.6018L18.4394 17.3922C18.8524 17.0364 19.1906 16.6022 19.4344 16.1146C19.6782 15.6271 19.8226 15.096 19.8594 14.5521V7.11304C19.825 6.61831 19.6582 6.14193 19.3765 5.73378C19.0948 5.32563 18.7086 5.00074 18.2582 4.79313L13.2692 2.92556C12.4497 2.68319 11.5772 2.68591 10.7591 2.93336Z" fill="#FFC107"/>
</svg>
