<svg width="17" height="16" viewBox="0 0 17 16" fill="none" xmlns="http://www.w3.org/2000/svg">
<g id="Subtract">
<path fill-rule="evenodd" clip-rule="evenodd" d="M6.26263 4.65605C6.93601 4.23696 7.74993 4.35599 8.49884 4.82158L10.4731 6.05038C11.2216 6.51801 11.7008 7.20342 11.7008 8.00102C11.7008 8.79767 11.2259 9.48378 10.4725 9.952L8.50338 11.1779C8.10958 11.4366 7.65788 11.5828 7.19211 11.5995L7.18695 11.5997L7.1818 11.5998C6.85859 11.603 6.54222 11.5139 6.26508 11.3442L6.26262 11.3427C5.60106 10.9309 5.29996 10.1359 5.29996 9.22957V6.76937C5.29996 5.85898 5.60128 5.06766 6.26263 4.65605Z" fill="white"/>
<path fill-rule="evenodd" clip-rule="evenodd" d="M0.899414 7.99939C0.899414 3.8015 4.30248 0.398438 8.50036 0.398438C12.6983 0.398438 16.1013 3.8015 16.1013 7.99939C16.1013 12.1973 12.6983 15.6003 8.50036 15.6003C4.30248 15.6003 0.899414 12.1973 0.899414 7.99939ZM8.50036 1.19854C4.74436 1.19854 1.69951 4.24338 1.69951 7.99939C1.69951 11.7554 4.74436 14.8002 8.50036 14.8002C12.2564 14.8002 15.3012 11.7554 15.3012 7.99939C15.3012 4.24338 12.2564 1.19854 8.50036 1.19854Z" fill="white"/>
</g>
</svg>
