<svg width="32" height="32" viewBox="0 0 32 32" fill="none" xmlns="http://www.w3.org/2000/svg">
<g id="User 1">
<g id="Union">
<path fill-rule="evenodd" clip-rule="evenodd" d="M12.602 29.8256H12.9512C14.8965 29.83 16.7953 29.2313 18.3863 28.1119C19.9769 26.9983 21.1842 25.4197 21.8418 23.5928C22.1137 22.8014 22.271 21.975 22.309 21.1391V21.128C22.3826 20.783 22.382 20.4263 22.3074 20.0815C22.2328 19.7367 22.0859 19.4117 21.8762 19.128C21.4943 18.6585 20.9531 18.3453 20.3559 18.2479L19.0488 18.1776H6.51446L5.20587 18.2479C4.60882 18.346 4.06791 18.659 3.68555 19.128C3.47615 19.4118 3.32994 19.7368 3.25587 20.0817C3.1818 20.4265 3.18148 20.7832 3.25587 21.128V21.1408C3.29323 21.9769 3.45056 22.8031 3.72305 23.5944C4.38037 25.4213 5.58801 26.9995 7.1793 28.1119C8.7664 29.2295 10.6609 29.8282 12.602 29.8256ZM6.93165 20.0424L7.94102 19.9944H17.6082L18.6176 20.0424C19.0661 20.1031 19.4796 20.3174 19.7879 20.6489C19.9474 20.836 20.0612 21.0581 20.1191 21.2971C20.1771 21.5361 20.1776 21.7854 20.1215 22.0248V22.0328C20.0927 22.6113 19.9721 23.1814 19.7629 23.7215C19.1691 25.0306 18.2024 26.1356 16.984 26.8983C15.7656 27.6609 14.3491 28.0475 12.9121 28.0096H12.6402C11.2034 28.0468 9.78744 27.6599 8.56915 26.8973C7.35085 26.1347 6.38385 25.0301 5.78946 23.7215C5.57952 23.1816 5.45858 22.6115 5.43009 22.0328V22.0264C5.37387 21.7869 5.37413 21.5375 5.43165 21.2983C5.48916 21.059 5.60238 20.8367 5.76134 20.6489C6.07044 20.3186 6.48355 20.1044 6.93165 20.0424Z" fill="#FFC107"/>
<path fill-rule="evenodd" clip-rule="evenodd" d="M10.4566 13.4491C11.1677 13.7439 11.9306 13.8948 12.7004 13.8928C13.4706 13.8947 14.2333 13.7439 14.9449 13.4491C15.6565 13.1542 16.3025 12.7213 16.8457 12.1752C17.3913 11.6324 17.8238 10.9868 18.1184 10.2758C18.4129 9.56479 18.564 8.80245 18.5621 8.03284C18.564 7.26288 18.4129 6.50011 18.1184 5.7887C17.8238 5.0773 17.3913 4.43124 16.8457 3.88792C16.3026 3.34185 15.6565 2.90904 14.9449 2.61448C14.2333 2.31992 13.4706 2.16945 12.7004 2.1719C11.9307 2.16943 11.1677 2.31991 10.4566 2.61448C9.74555 2.90906 9.10068 3.34188 8.55821 3.88792C8.01228 4.43101 7.57868 5.07706 7.28399 5.78851C6.98931 6.49995 6.839 7.26279 6.84102 8.03284C6.83896 8.80255 6.9893 9.56495 7.28399 10.276C7.57869 10.9871 8.01228 11.6326 8.55821 12.1752C9.10071 12.7213 9.74558 13.1542 10.4566 13.4491ZM9.83477 5.16214C10.5947 4.40192 11.6255 3.97417 12.7004 3.97269V3.97679C13.7749 3.97805 14.805 4.40515 15.5652 5.16448C16.3255 5.92382 16.7533 6.95346 16.7559 8.02796C16.7544 9.10315 16.3272 10.1338 15.5668 10.894C14.8065 11.6542 13.7756 12.082 12.7004 12.0832C11.6256 12.0815 10.5954 11.6536 9.83555 10.8934C9.07568 10.1332 8.64776 9.1028 8.64649 8.02796C8.64755 6.95306 9.07485 5.92236 9.83477 5.16214Z" fill="#FFC107"/>
<path d="M23.811 18.4312C23.8612 18.5527 23.935 18.6629 24.0281 18.7554C24.1202 18.849 24.2299 18.9232 24.3509 18.9739C24.4719 19.0246 24.6018 19.0507 24.733 19.0507C24.9975 19.0489 25.2507 18.943 25.4378 18.756C25.6249 18.5689 25.7308 18.3157 25.7326 18.0512L25.7332 15.3027L28.4835 15.2584C28.7486 15.2557 29.0017 15.1477 29.1872 14.9583C29.3727 14.7689 29.4754 14.5136 29.4726 14.2485C29.4698 13.9834 29.3619 13.7303 29.1725 13.5448C28.9831 13.3593 28.7277 13.2567 28.4626 13.2594L25.7336 13.3035L25.7342 10.5761C25.729 10.3146 25.6215 10.0656 25.4347 9.88251C25.2479 9.69942 24.9968 9.59687 24.7353 9.59687C24.4737 9.59687 24.2226 9.69942 24.0358 9.88251C23.849 10.0656 23.7415 10.3146 23.7362 10.5761V13.3238L20.9893 13.368C20.7248 13.3726 20.4727 13.4811 20.2876 13.6701C20.1025 13.8591 19.9992 14.1134 20.0002 14.378C20.0008 14.5093 20.0276 14.6392 20.079 14.7601C20.1304 14.881 20.2053 14.9904 20.2995 15.082C20.3921 15.1753 20.5029 15.2486 20.6249 15.2976C20.7469 15.3467 20.8776 15.3703 21.009 15.3671L23.7362 15.323V18.0483C23.7355 18.1797 23.7609 18.3098 23.811 18.4312Z" fill="#FFC107"/>
</g>
</g>
</svg>
