<svg width="22" height="22" viewBox="0 0 22 22" fill="none" xmlns="http://www.w3.org/2000/svg">
<path d="M13.6286 21.3012H7.87351C2.66476 21.3012 0.442383 19.0789 0.442383 13.8695V8.1156C0.442383 2.90745 2.66476 0.685059 7.87351 0.685059H13.6286C18.8374 0.685059 21.0597 2.90745 21.0597 8.1156V13.8695C21.0567 19.0765 18.8344 21.3012 13.6286 21.3012ZM15.6614 10.2093C15.4712 10.2117 15.2892 10.2881 15.1547 10.4226C15.0202 10.5571 14.9438 10.7397 14.9414 10.9299V16.8947C14.9438 17.0849 15.0202 17.2664 15.1547 17.4009C15.2892 17.5354 15.4712 17.6118 15.6614 17.6141C15.7563 17.6153 15.8506 17.5971 15.9385 17.5614C16.0264 17.5256 16.1057 17.4726 16.1728 17.4055C16.2399 17.3385 16.2929 17.2591 16.3287 17.1712C16.3644 17.0833 16.3826 16.9896 16.3814 16.8947V10.9299C16.3815 10.835 16.3626 10.741 16.3263 10.6534C16.29 10.5658 16.2365 10.486 16.1693 10.419C16.1021 10.3521 16.0227 10.2993 15.935 10.2632C15.8473 10.2272 15.7533 10.2089 15.6585 10.2093H15.6614ZM10.7511 12.1941C10.5609 12.1964 10.3794 12.2728 10.2449 12.4073C10.1104 12.5418 10.034 12.7233 10.0317 12.9135V16.8947C10.034 17.0849 10.1104 17.2664 10.2449 17.4009C10.3794 17.5354 10.5609 17.6118 10.7511 17.6141C10.942 17.6141 11.1251 17.5394 11.2601 17.4044C11.3951 17.2694 11.471 17.0856 11.471 16.8947V12.9135C11.4688 12.7228 11.3922 12.5408 11.2572 12.4062C11.1222 12.2715 10.9394 12.1946 10.7487 12.1929L10.7511 12.1941ZM5.8413 14.187C5.65111 14.1894 5.46965 14.267 5.33515 14.4015C5.20066 14.536 5.12366 14.7174 5.12133 14.9076V16.8947C5.12366 17.0849 5.20066 17.2664 5.33515 17.4009C5.46965 17.5354 5.65111 17.6118 5.8413 17.6141C6.03222 17.6141 6.21538 17.5394 6.35038 17.4044C6.48538 17.2694 6.56128 17.0856 6.56128 16.8947V14.9076C6.55924 14.7168 6.4825 14.5351 6.34745 14.4003C6.21241 14.2655 6.02977 14.1888 5.83896 14.187H5.8413ZM12.8501 4.37807C12.6599 4.3804 12.4784 4.45681 12.3439 4.59131C12.2094 4.7258 12.133 4.90844 12.1307 5.09863C12.133 5.28882 12.2094 5.47028 12.3439 5.60478C12.4784 5.73927 12.6599 5.81568 12.8501 5.81802H14.0633C11.7874 8.2129 8.87558 9.90916 5.66966 10.7073C5.57694 10.7293 5.48993 10.7693 5.41307 10.8256C5.33621 10.882 5.271 10.9535 5.22209 11.0353C5.17325 11.1163 5.14147 11.2054 5.12777 11.299C5.11407 11.3925 5.11884 11.4886 5.14242 11.5801C5.18156 11.7361 5.27131 11.8746 5.39784 11.9738C5.52436 12.0731 5.68049 12.1276 5.8413 12.1285C5.90007 12.1317 5.95899 12.1245 6.01529 12.1074C9.40924 11.2668 12.5008 9.49455 14.9414 6.99083V7.89885C14.9438 8.08904 15.0202 8.2705 15.1547 8.405C15.2892 8.53949 15.4712 8.61707 15.6614 8.61941C15.7552 8.62012 15.848 8.60193 15.935 8.56668C16.0219 8.53144 16.1013 8.47904 16.1681 8.4132C16.235 8.34736 16.288 8.2688 16.3246 8.18239C16.3611 8.09597 16.3807 8.00322 16.3814 7.90939V5.1244C16.3857 5.01639 16.3652 4.90841 16.3222 4.80923C16.2792 4.71006 16.2147 4.62219 16.133 4.55147C16 4.43999 15.832 4.37896 15.6585 4.37924H12.8506L12.8501 4.37807Z" fill="#FFC107"/>
</svg>
