<svg width="24" height="24" viewBox="0 0 24 24" fill="none" xmlns="http://www.w3.org/2000/svg">
<path d="M6.14197 11.1516C6.14197 11.1516 6.53066 11.1516 6.77971 11.1516C7.0229 11.1516 7.40245 11.1516 7.40245 11.1516V6.84163C7.40071 6.67417 7.33292 6.51417 7.21383 6.39643C7.09474 6.27868 6.93398 6.21272 6.76651 6.21289C6.67779 6.21279 6.59005 6.2315 6.50908 6.26776C6.42811 6.30403 6.35574 6.35703 6.29673 6.42329C6.23773 6.48955 6.19343 6.56756 6.16676 6.65218C6.14008 6.73679 6.13164 6.8261 6.14197 6.91422V11.1516Z" fill="#4CAF50"/>
<path d="M2.06142 12.4985C2.56177 11.6322 3.56907 11.1534 4.89314 11.1534H6.14161V11.1516H7.40208H8.66196C9.98603 11.1516 10.9939 11.6316 11.4937 12.4967C11.9934 13.3618 11.9022 14.4765 11.2399 15.6242L9.35909 18.886C8.69916 20.0337 7.78125 20.6685 6.77935 20.6685C5.77745 20.6685 4.85834 20.0355 4.18641 18.8872L2.30799 15.626C1.95479 15.0555 1.75801 14.402 1.73745 13.7314C1.73268 13.2987 1.84459 12.8729 2.06142 12.4985Z" fill="#FFC107"/>
<path d="M16.7821 12.8398H17.4162H18.039V17.1498C18.0372 17.3173 17.9695 17.4773 17.8504 17.595C17.7313 17.7128 17.5705 17.7787 17.403 17.7786C17.3146 17.7781 17.2273 17.7591 17.1468 17.7226C17.0662 17.6861 16.9943 17.633 16.9357 17.5668C16.8771 17.5006 16.8331 17.4228 16.8066 17.3384C16.7802 17.254 16.7718 17.165 16.7821 17.0772V12.8398Z" fill="#4CAF50"/>
<path d="M12.7011 11.493C13.2014 12.3593 14.2087 12.838 15.5328 12.838C15.5328 12.838 16.2941 12.8379 16.7819 12.838C17.7647 12.8383 19.2986 12.8398 19.2986 12.8398C20.6227 12.8398 21.6306 12.3599 22.1303 11.4948C22.6301 10.6297 22.5389 9.51498 21.8766 8.36729L19.9957 5.10542C19.3358 3.95773 18.4179 3.323 17.416 3.323C16.4141 3.323 15.4968 3.95593 14.8285 5.10362L12.9476 8.36549C12.5944 8.93599 12.3977 9.58943 12.3771 10.2601C12.3723 10.6927 12.4842 11.1186 12.7011 11.493Z" fill="#FFC107"/>
</svg>
