<svg width="25" height="24" viewBox="0 0 25 24" fill="none" xmlns="http://www.w3.org/2000/svg">
<g clip-path="url(#clip0_419_16409)">
<path d="M4.7002 15.5975C4.7002 14.9347 5.23745 14.3975 5.9002 14.3975H9.5002C10.1629 14.3975 10.7002 14.9347 10.7002 15.5975V19.1975C10.7002 19.8602 10.1629 20.3975 9.5002 20.3975H5.9002C5.23745 20.3975 4.7002 19.8602 4.7002 19.1975V15.5975Z" fill="#4CAF50"/>
<path d="M3.11533 13.0529C2.93193 13.0516 2.7564 12.9782 2.62672 12.8485C2.49703 12.7188 2.42362 12.5433 2.42236 12.3599V8.1383C2.42584 7.46305 2.63316 6.80458 3.01717 6.24915C3.40118 5.69372 3.94397 5.26722 4.57446 5.0255L11.9085 2.2547C12.2781 2.11288 12.6769 2.06399 13.0698 2.11233C13.4627 2.16066 13.8378 2.30473 14.162 2.5319C14.4875 2.75705 14.7535 3.05798 14.9369 3.40876C15.1203 3.75954 15.2158 4.14965 15.2149 4.5455V8.0555C15.2177 8.14818 15.2018 8.24047 15.1682 8.32689C15.1346 8.41332 15.084 8.49213 15.0194 8.55865C14.9548 8.62517 14.8775 8.67806 14.7921 8.71417C14.7068 8.75028 14.615 8.76889 14.5223 8.76889C14.4295 8.76889 14.3378 8.75028 14.2524 8.71417C14.167 8.67806 14.0897 8.62517 14.0251 8.55865C13.9605 8.49213 13.9099 8.41332 13.8763 8.32689C13.8428 8.24047 13.8269 8.14818 13.8296 8.0555V4.5455C13.8305 4.37251 13.7889 4.20195 13.7083 4.04886C13.6277 3.89578 13.5107 3.76488 13.3676 3.6677C13.2274 3.56759 13.0643 3.50416 12.8933 3.4832C12.7223 3.46224 12.5487 3.48441 12.3885 3.5477L5.05503 6.3185C4.687 6.46043 4.37028 6.70998 4.14617 7.0346C3.92207 7.35922 3.80098 7.74384 3.79869 8.1383V12.3599C3.80062 12.4506 3.78434 12.5408 3.7508 12.6251C3.71726 12.7095 3.66715 12.7862 3.60344 12.8508C3.53972 12.9154 3.4637 12.9666 3.37986 13.0013C3.29602 13.036 3.20607 13.0536 3.11533 13.0529Z" fill="#4CAF50"/>
<path fill-rule="evenodd" clip-rule="evenodd" d="M2.42476 11.2241V11.2694C2.41952 11.3564 2.41697 11.4435 2.41712 11.5306V17.7443C2.41062 18.5733 2.65529 19.3848 3.11898 20.072C3.20253 20.1966 3.29256 20.3163 3.38858 20.4306C3.72927 20.8347 4.14475 21.1713 4.61365 21.4211C5.21597 21.742 5.88797 21.9098 6.57044 21.9098H17.1929L17.1923 21.9074C17.7391 21.9081 18.2807 21.8008 18.7859 21.5916C19.2911 21.3824 19.75 21.0755 20.1362 20.6884C20.5225 20.3013 20.8284 19.8418 21.0365 19.3361C21.2446 18.8304 21.3508 18.2886 21.3489 17.7418V17.3383H18.8694C18.2148 17.3385 17.5821 17.0974 17.0942 16.6611C16.6063 16.2247 16.2974 15.6243 16.2248 14.9738C16.1885 14.5958 16.2378 14.2141 16.3689 13.8577C16.4637 13.5998 16.5995 13.3597 16.7706 13.1464C16.8361 13.0646 16.9068 12.9867 16.9823 12.9133C17.2186 12.6736 17.5007 12.4839 17.8117 12.3553C18.1228 12.2268 18.4565 12.1621 18.793 12.1651H21.3459V11.5309C21.3459 11.4776 21.345 11.4239 21.343 11.3709C21.3419 11.3486 21.3403 11.3264 21.3382 11.3045C21.3269 11.0722 21.2958 10.8418 21.2452 10.6158C21.2252 10.5267 21.2023 10.4382 21.1764 10.3505C21.1169 10.1496 21.0418 9.95319 20.9515 9.76309C20.6208 9.05724 20.0998 8.45779 19.447 8.03186C19.0044 7.74561 18.5113 7.54599 17.9941 7.44424C17.7276 7.38936 17.4565 7.36218 17.1844 7.3628H6.58027C6.29801 7.36302 6.01629 7.39285 5.74014 7.45127C5.01733 7.59954 4.34859 7.93699 3.80098 8.42739V8.42379C3.74363 8.4751 3.68761 8.52809 3.63299 8.5827C3.05719 9.15851 2.66275 9.89043 2.49844 10.688C2.46236 10.865 2.43776 11.0441 2.42476 11.2241ZM5.42143 16.9909C5.56175 16.8512 5.75075 16.772 5.94871 16.77H7.74438H9.53888C9.73685 16.772 9.92584 16.8512 10.0662 16.9909C10.2065 17.1305 10.287 17.3191 10.29 17.517C10.2903 17.7166 10.2117 17.9086 10.0708 18.0501C9.93002 18.1916 9.73852 18.2715 9.53888 18.2722C9.53888 18.2722 8.44518 18.2722 7.74438 18.2722C7.04313 18.2722 5.94871 18.2722 5.94871 18.2722C5.74907 18.2715 5.55757 18.1916 5.41674 18.0501C5.27592 17.9086 5.19731 17.7166 5.19763 17.517C5.20059 17.3191 5.28111 17.1305 5.42143 16.9909Z" fill="#FFC107"/>
<path d="M22.2802 16.5605H18.624C18.4196 16.5601 18.218 16.5159 18.0322 16.4309C17.8439 16.3454 17.6734 16.2253 17.5294 16.0768C17.3797 15.9238 17.2575 15.7457 17.1691 15.5506C17.0759 15.3468 17.0202 15.128 17.0039 14.9045C16.9795 14.6456 17.0062 14.3843 17.083 14.1359C17.1598 13.8874 17.2847 13.6566 17.4509 13.4566C17.5723 13.297 17.729 13.1676 17.9085 13.0783C18.0881 12.989 18.2858 12.9424 18.4863 12.9419H22.2462C22.2902 12.945 22.3334 12.9567 22.3728 12.9763C22.4122 12.996 22.447 13.0232 22.4759 13.0564C22.5369 13.1296 22.5697 13.2223 22.5679 13.3175V16.1849C22.5693 16.281 22.5388 16.3747 22.4806 16.4512C22.4577 16.4834 22.4274 16.5099 22.3927 16.5289C22.358 16.5478 22.3197 16.5587 22.2802 16.5605V16.5605Z" fill="#4CAF50"/>
</g>
<defs>
<clipPath id="clip0_419_16409">
<rect width="24" height="24" fill="white" transform="translate(0.5)"/>
</clipPath>
</defs>
</svg>
