<svg width="25" height="24" viewBox="0 0 25 24" fill="none" xmlns="http://www.w3.org/2000/svg">
<g clip-path="url(#clip0_419_16209)">
<path d="M14.3913 20.3027H10.1036C10.0025 20.303 9.90212 20.2831 9.80884 20.2441C9.71556 20.205 9.63107 20.1475 9.56038 20.0752C9.48925 20.0044 9.43305 19.9203 9.39454 19.8276C9.35603 19.7349 9.33594 19.6355 9.33594 19.5352V5.45895C9.3355 5.22916 9.38039 5.00158 9.46838 4.7893C9.55639 4.57569 9.68532 4.38133 9.8481 4.21737C10.0111 4.0563 10.2043 3.92886 10.4165 3.84233C10.6284 3.75145 10.8569 3.70538 11.0875 3.70682H13.4233C13.6536 3.70533 13.882 3.75139 14.0936 3.84233C14.3061 3.92864 14.4996 4.0561 14.6626 4.21737C14.8253 4.38144 14.9542 4.57577 15.0424 4.7893C15.1303 5.00161 15.1757 5.22917 15.1754 5.45895V19.5375H15.1602C15.16 19.6379 15.1402 19.7374 15.1016 19.8301C15.0629 19.9227 15.0063 20.0069 14.9351 20.0776C14.8642 20.1498 14.7796 20.2069 14.6861 20.2455C14.5926 20.2842 14.4925 20.3036 14.3913 20.3027Z" fill="#FFC107"/>
<path d="M17.465 20.3027H21.7533C21.8546 20.3034 21.9546 20.2837 22.0481 20.2448C22.1416 20.206 22.2262 20.1488 22.2971 20.0765C22.3683 20.0057 22.4249 19.9216 22.4636 19.8289C22.5022 19.7362 22.522 19.6368 22.5222 19.5364V15.0611C22.522 14.8312 22.4771 14.6036 22.3897 14.3909C22.3012 14.1794 22.172 13.9874 22.0094 13.8257C21.8482 13.6607 21.6544 13.5309 21.4404 13.4446C21.2278 13.3568 21.0001 13.3109 20.77 13.3096H17.4662C17.3651 13.3095 17.265 13.33 17.172 13.3696C17.0793 13.4091 16.9948 13.4656 16.923 13.5364C16.8522 13.6085 16.7962 13.6934 16.7571 13.7866C16.7175 13.8804 16.6968 13.9813 16.6968 14.0831V19.5352C16.6968 19.6356 16.7168 19.7351 16.7554 19.8278C16.794 19.9204 16.8505 20.0045 16.9218 20.0752C16.9925 20.1475 17.077 20.205 17.1703 20.2441C17.2635 20.2832 17.3639 20.3031 17.465 20.3027Z" fill="#4CAF50"/>
<path d="M2.75848 20.303H7.04621C7.14728 20.3038 7.24699 20.2842 7.34038 20.2455C7.43377 20.2069 7.51849 20.1499 7.58943 20.0779C7.66064 20.0072 7.71724 19.923 7.75585 19.8304C7.79447 19.7377 7.81433 19.6382 7.81445 19.5378V11.4509C7.81437 11.3505 7.79447 11.251 7.75585 11.1583C7.71723 11.0657 7.66066 10.9815 7.58943 10.9108C7.5188 10.8384 7.43426 10.7809 7.34097 10.7418C7.24767 10.7028 7.14736 10.6829 7.04621 10.6834H3.74178C3.51144 10.6817 3.28313 10.7276 3.0714 10.8183C2.85907 10.9046 2.66636 11.032 2.50357 11.1934C2.3408 11.3573 2.21128 11.5517 2.12326 11.7653C2.03499 11.9777 1.9899 12.2055 1.99023 12.4355V19.5355C1.99035 19.6358 2.01022 19.7352 2.04884 19.8279C2.08745 19.9205 2.14405 20.0047 2.21526 20.0754C2.28595 20.1478 2.37044 20.2053 2.46372 20.2444C2.557 20.2834 2.65734 20.3033 2.75848 20.303Z" fill="#FFC107"/>
</g>
<defs>
<clipPath id="clip0_419_16209">
<rect width="24" height="24" fill="white" transform="translate(0.25)"/>
</clipPath>
</defs>
</svg>
