<svg width="25" height="24" viewBox="0 0 25 24" fill="none" xmlns="http://www.w3.org/2000/svg">
<rect x="10.6992" y="11.9917" width="4.19958" height="7.79922" fill="#4CAF50"/>
<path d="M17.9159 22.2037H7.08773C6.2161 22.1893 5.37648 21.8742 4.71023 21.312C4.04398 20.7498 3.59213 19.9752 3.43126 19.1185L2.14584 11.4153C2.06448 10.767 2.14333 10.1077 2.37609 9.49718C2.60885 8.88666 2.98816 8.34372 3.48047 7.91413L10.1806 2.54748C10.8377 2.03302 11.6504 1.75745 12.4848 1.76709C13.3314 1.75791 14.1564 2.03605 14.8248 2.55568L21.525 7.91179C22.0112 8.34614 22.386 8.89029 22.6182 9.49952C22.8504 10.1087 22.9328 10.7652 22.859 11.413L21.5718 19.1079C21.4027 19.9615 20.9488 20.7321 20.2846 21.2944C19.6205 21.8568 18.7857 22.1777 17.9159 22.2037ZM12.5007 12.7242C12.3089 12.7272 12.1256 12.805 11.9904 12.941C11.8551 13.0769 11.7785 13.2601 11.7765 13.4519V17.7956C11.7764 17.9879 11.8523 18.1726 11.988 18.3088C12.1238 18.445 12.3083 18.5216 12.5007 18.5221C12.6933 18.5219 12.8783 18.445 13.0145 18.3088C13.1507 18.1726 13.227 17.9882 13.2272 17.7956V13.4519C13.2251 13.2596 13.1479 13.076 13.0121 12.9398C12.8764 12.8036 12.6929 12.7257 12.5007 12.723V12.7242Z" fill="#FFC107"/>
</svg>
