<svg width="25" height="24" viewBox="0 0 25 24" fill="none" xmlns="http://www.w3.org/2000/svg">
<path d="M0.966627 8.52867C1.10696 8.66899 1.29688 8.74846 1.49533 8.74987C1.59336 8.74988 1.69042 8.73042 1.78087 8.69261C1.87132 8.65481 1.95336 8.59942 2.02223 8.52966C2.0911 8.45989 2.14543 8.37714 2.18206 8.28621C2.2187 8.19529 2.23691 8.09799 2.23564 7.99996C2.23875 6.58981 2.71705 5.22187 3.59331 4.11702C4.46957 3.01216 5.69265 2.2349 7.06503 1.91072L6.79507 2.36067C6.69656 2.53155 6.66922 2.73433 6.71896 2.92519C6.7687 3.11606 6.89152 3.27971 7.0609 3.38078C7.23027 3.48186 7.43261 3.51225 7.62421 3.4654C7.81581 3.41854 7.98129 3.29821 8.08491 3.13037L9.13477 1.38039C9.20257 1.26714 9.23913 1.13794 9.2407 1.00596C9.24228 0.873983 9.20883 0.743944 9.14376 0.629109C9.07869 0.514274 8.98432 0.41875 8.87029 0.35228C8.75626 0.285809 8.62664 0.250769 8.49465 0.250732C6.4405 0.254222 4.47148 1.07178 3.01897 2.52428C1.56647 3.97679 0.748912 5.94581 0.745422 7.99996C0.746836 8.19841 0.826298 8.38834 0.966627 8.52867Z" fill="#A6A6A6"/>
<path d="M16.1177 23.647C16.2317 23.7135 16.3614 23.7485 16.4934 23.7486C18.548 23.7437 20.5172 22.9259 21.9709 21.474C23.4246 20.0221 24.2447 18.0539 24.2522 15.9993C24.2522 15.8004 24.1732 15.6097 24.0325 15.4691C23.8919 15.3284 23.7012 15.2494 23.5023 15.2494C23.3034 15.2494 23.1127 15.3284 22.972 15.4691C22.8314 15.6097 22.7524 15.8004 22.7524 15.9993C22.7493 17.4095 22.271 18.7774 21.3947 19.8823C20.5184 20.9871 19.2954 21.7644 17.923 22.0886L18.1929 21.6386C18.2915 21.4677 18.3188 21.265 18.2691 21.0741C18.2193 20.8832 18.0965 20.7196 17.9271 20.6185C17.7577 20.5174 17.5554 20.487 17.3638 20.5339C17.1722 20.5807 17.0067 20.7011 16.9031 20.8689L15.8532 22.6189C15.7854 22.7321 15.7489 22.8613 15.7473 22.9933C15.7457 23.1253 15.7792 23.2553 15.8443 23.3702C15.9093 23.485 16.0037 23.5805 16.1177 23.647Z" fill="#A6A6A6"/>
<path fill-rule="evenodd" clip-rule="evenodd" d="M11.6205 15.0341C11.7378 14.7881 11.8016 14.5174 11.8044 14.2397C11.7913 13.7452 11.589 13.2746 11.2392 12.9249C10.8894 12.5752 10.4187 12.373 9.92421 12.3602H9.66464V11.9703C9.66322 11.7718 9.58375 11.5819 9.4434 11.4416C9.30306 11.3012 9.11311 11.2217 8.91464 11.2203C8.71616 11.2217 8.52622 11.3012 8.38587 11.4416C8.24552 11.5819 8.16605 11.7718 8.16464 11.9703V12.3602H7.11476C6.91631 12.3616 6.72639 12.441 6.58606 12.5814C6.44573 12.7217 6.36627 12.9116 6.36486 13.1101V15.2415C6.3584 15.2803 6.35496 15.3199 6.35468 15.3598V17.6095C6.35609 17.808 6.43555 17.9979 6.57588 18.1382C6.71621 18.2786 6.90613 18.358 7.10458 18.3594H8.16464V18.7292C8.16605 18.9277 8.24552 19.1176 8.38587 19.258C8.52622 19.3983 8.71616 19.4778 8.91464 19.4792C9.01317 19.4794 9.11077 19.4601 9.20184 19.4225C9.2929 19.3848 9.37564 19.3296 9.44532 19.2599C9.51499 19.1902 9.57023 19.1075 9.60787 19.0164C9.6455 18.9254 9.66479 18.8278 9.66464 18.7292V18.3594H10.3244C10.5812 18.371 10.8378 18.3318 11.0794 18.244C11.321 18.1563 11.543 18.0216 11.7325 17.8479C11.922 17.6742 12.0753 17.4648 12.1837 17.2316C12.2921 16.9985 12.3534 16.7463 12.3641 16.4895C12.3412 15.9703 12.1139 15.4813 11.7317 15.1292C11.6957 15.096 11.6586 15.0643 11.6205 15.0341ZM8.91464 16.8494C8.95457 16.8497 8.99415 16.8532 9.03305 16.8596H10.334C10.6537 16.8596 10.8739 16.6598 10.8739 16.4799C10.8739 16.2999 10.6537 16.1001 10.334 16.1001H10.1061C10.0459 16.1062 9.98521 16.1094 9.92421 16.1097H7.86469V16.8596H8.79622C8.83512 16.8532 8.87471 16.8497 8.91464 16.8494ZM7.86467 14.6099H9.92421C10.0249 14.6099 10.1215 14.5699 10.1927 14.4986C10.264 14.4274 10.304 14.3308 10.304 14.2301C10.2941 14.1328 10.2509 14.0418 10.1817 13.9726C10.1125 13.9034 10.0216 13.8602 9.92421 13.8504H7.86467V14.6099Z" fill="#A6A6A6"/>
<path fill-rule="evenodd" clip-rule="evenodd" d="M9.16469 22.2787C7.34075 22.2618 5.5973 21.5253 4.31354 20.2295C3.02979 18.9338 2.30958 17.1835 2.30958 15.3595C2.30958 13.5355 3.02979 11.7853 4.31354 10.4895C5.5372 9.25438 7.17854 8.52743 8.90912 8.44737C8.95676 7.16952 9.3575 5.92791 10.0693 4.86147C10.8298 3.72203 11.9111 2.83378 13.1766 2.3091C14.4421 1.78442 15.8347 1.64689 17.1783 1.91391C18.522 2.18093 19.7562 2.84051 20.7249 3.80918C21.6936 4.77786 22.3531 6.0121 22.6202 7.35573C22.8872 8.69937 22.7497 10.092 22.225 11.3575C21.7003 12.6229 20.812 13.7043 19.6726 14.4648C18.6039 15.1781 17.3592 15.579 16.0784 15.6253C16.0112 17.3635 15.2912 19.0166 14.0566 20.2513C12.7592 21.5489 10.9996 22.2781 9.16469 22.2787ZM11.8222 10.6284C12.2525 10.8718 12.6509 11.1743 13.0046 11.5302C13.9191 12.4502 14.4757 13.6662 14.5742 14.9597L14.5759 14.9828C14.585 15.1052 14.594 15.2271 14.594 15.3496C14.594 16.4211 14.2764 17.4686 13.6813 18.3596C13.0862 19.2507 12.2403 19.9454 11.2505 20.3559C10.2608 20.7663 9.17154 20.8742 8.12048 20.6659C7.06942 20.4575 6.1037 19.9423 5.34536 19.1853C4.58701 18.4283 4.07008 17.4635 3.85988 16.4128C3.64967 15.3621 3.75563 14.2727 4.16437 13.2822C4.5731 12.2917 5.26627 11.4446 6.15627 10.8479C7.04628 10.2513 8.09318 9.93178 9.16469 9.92988C9.24232 9.92988 9.31721 9.93262 9.38946 9.93525C9.43174 9.9368 9.47319 9.93831 9.51367 9.93922C9.54019 9.94433 9.56707 9.94803 9.59422 9.95027C10.383 10.0133 11.1422 10.247 11.8222 10.6284ZM14.0568 10.4671C13.0588 9.46914 11.7817 8.79736 10.3939 8.54045C10.4273 7.4834 10.7692 6.45922 11.3775 5.59405C11.9857 4.72889 12.8337 4.06053 13.817 3.6713C14.8004 3.28207 15.8761 3.18898 16.9117 3.40349C17.9473 3.618 18.8975 4.13075 19.6453 4.87856C20.3931 5.62638 20.9059 6.5766 21.1204 7.61219C21.3349 8.64778 21.2418 9.7235 20.8526 10.7068C20.4633 11.6902 19.795 12.5382 18.9298 13.1464C18.0647 13.7547 17.0405 14.0965 15.9834 14.1299C15.7265 12.7422 15.0547 11.465 14.0568 10.4671Z" fill="#A6A6A6"/>
</svg>
