<svg width="25" height="24" viewBox="0 0 25 24" fill="none" xmlns="http://www.w3.org/2000/svg">
<path d="M7.84005 18.617C7.6496 18.6157 7.4673 18.5395 7.33258 18.4049C7.19785 18.2703 7.12153 18.0881 7.12012 17.8976V15.913C7.12137 15.7225 7.19763 15.5401 7.33237 15.4054C7.46711 15.2706 7.6495 15.1944 7.84005 15.1931C8.03059 15.1944 8.21298 15.2706 8.34772 15.4054C8.48246 15.5401 8.55872 15.7225 8.55997 15.913V17.8976C8.55981 18.0885 8.48389 18.2714 8.3489 18.4063C8.2139 18.5412 8.03088 18.617 7.84005 18.617V18.617Z" fill="#A6A6A6"/>
<path d="M12.7502 18.6174C12.5598 18.6161 12.3775 18.54 12.2427 18.4054C12.108 18.2707 12.0317 18.0885 12.0303 17.8981V13.9187C12.0315 13.7281 12.1078 13.5457 12.2425 13.411C12.3773 13.2762 12.5597 13.2 12.7502 13.1987C12.9408 13.2 13.1231 13.2762 13.2579 13.411C13.3926 13.5457 13.4689 13.7281 13.4701 13.9187V17.8981C13.47 18.0889 13.3941 18.2719 13.2591 18.4067C13.1241 18.5416 12.941 18.6174 12.7502 18.6174V18.6174Z" fill="#A6A6A6"/>
<path d="M17.6613 18.6175C17.4708 18.6162 17.2884 18.54 17.1537 18.4052C17.0189 18.2705 16.9427 18.0881 16.9414 17.8976V11.9336C16.9427 11.743 17.0189 11.5606 17.1537 11.4259C17.2884 11.2911 17.4708 11.2149 17.6613 11.2136C17.8519 11.2149 18.0343 11.2911 18.169 11.4259C18.3038 11.5606 18.38 11.743 18.3813 11.9336V17.8988C18.3821 17.9935 18.3641 18.0874 18.3282 18.1751C18.2924 18.2628 18.2393 18.3424 18.1723 18.4094C18.1053 18.4763 18.0255 18.5292 17.9378 18.5649C17.85 18.6007 17.7561 18.6185 17.6613 18.6175V18.6175Z" fill="#A6A6A6"/>
<path d="M7.8375 13.1307C7.67676 13.13 7.5208 13.0759 7.39409 12.977C7.26738 12.8781 7.17709 12.7399 7.13737 12.5841C7.11454 12.4921 7.11013 12.3964 7.1244 12.3026C7.13866 12.2088 7.17132 12.1188 7.22049 12.0377C7.26966 11.9566 7.33438 11.886 7.41093 11.83C7.48747 11.7739 7.57433 11.7336 7.66652 11.7112C11.1737 10.8386 14.3216 8.89438 16.6722 6.14919L17.1132 5.63144C17.2378 5.48649 17.415 5.39699 17.6056 5.38265C17.7963 5.3683 17.9848 5.43028 18.1298 5.55495C18.2747 5.67961 18.3642 5.85675 18.3786 6.0474C18.3929 6.23805 18.3309 6.42659 18.2063 6.57155L17.7653 7.08929C15.2242 10.0674 11.813 12.1737 8.01208 13.1115C7.95536 13.1275 7.89636 13.134 7.8375 13.1307V13.1307Z" fill="#A6A6A6"/>
<path d="M17.6603 9.62223C17.4698 9.62097 17.2874 9.54472 17.1526 9.40998C17.0179 9.27524 16.9416 9.09285 16.9404 8.9023V6.82291H14.8508C14.6602 6.82165 14.4779 6.7454 14.3431 6.61066C14.2084 6.47592 14.1321 6.29353 14.1309 6.10298C14.1321 5.91244 14.2084 5.73005 14.3431 5.59531C14.4779 5.46057 14.6602 5.38431 14.8508 5.38306H17.6603C17.8509 5.38431 18.0332 5.46057 18.168 5.59531C18.3027 5.73005 18.379 5.91244 18.3802 6.10298V8.9125C18.3802 9.00655 18.3614 9.09964 18.3251 9.18639C18.2888 9.27313 18.2356 9.35179 18.1686 9.41782C18.1016 9.48384 18.0222 9.53591 17.9349 9.571C17.8477 9.60609 17.7543 9.6235 17.6603 9.62223V9.62223Z" fill="#A6A6A6"/>
<path d="M15.6271 22.309H9.87309C4.66561 22.309 2.44043 20.0845 2.44043 14.8764V9.12235C2.44043 3.91487 4.66561 1.6897 9.87309 1.6897H15.6271C20.8346 1.6897 23.0598 3.91487 23.0598 9.12235V14.8764C23.0598 20.0845 20.8352 22.309 15.6271 22.309ZM9.87309 3.12955C5.45213 3.12955 3.88029 4.7014 3.88029 9.12235V14.8764C3.88029 19.2973 5.45333 20.8704 9.87429 20.8704H15.6271C20.0481 20.8704 21.6211 19.2973 21.6211 14.8764V9.12235C21.6217 4.7014 20.0487 3.12955 15.6271 3.12955H9.87309Z" fill="#A6A6A6"/>
</svg>
