<svg width="25" height="24" viewBox="0 0 25 24" fill="none" xmlns="http://www.w3.org/2000/svg">
<path d="M11.9899 18.3148C12.1256 18.4505 12.3093 18.5274 12.5012 18.5288C12.693 18.5274 12.8766 18.4506 13.0123 18.315C13.148 18.1794 13.225 17.9959 13.2265 17.804V13.4575C13.2251 13.2656 13.1483 13.0819 13.0125 12.9462C12.8768 12.8104 12.6931 12.7336 12.5012 12.7322C12.3094 12.7336 12.1258 12.8104 11.9901 12.9459C11.8544 13.0815 11.7775 13.2651 11.7759 13.4569V17.8034C11.7773 17.9954 11.8542 18.1791 11.9899 18.3148Z" fill="#A6A6A6"/>
<path fill-rule="evenodd" clip-rule="evenodd" d="M7.08696 22.2123H17.9153C18.785 22.186 19.62 21.8654 20.2839 21.303C20.9477 20.7406 21.4012 19.9696 21.5701 19.1161L22.8564 11.4236C22.9314 10.776 22.8494 10.1197 22.6171 9.5105C22.3849 8.90126 22.0093 8.35693 21.5221 7.92358L14.822 2.56731C14.1561 2.05787 13.3414 1.78104 12.503 1.77931C11.6646 1.77757 10.8488 2.05103 10.1809 2.55771L3.48252 7.92238C2.98961 8.3513 2.60985 8.89494 2.37674 9.50534C2.14363 10.1157 2.06433 10.7741 2.14586 11.4224L3.43213 19.1281C3.59298 19.9844 4.04449 20.759 4.71039 21.3209C5.37629 21.8829 6.21576 22.1978 7.08696 22.2123ZM11.0892 3.6868C11.4932 3.38408 11.9864 3.22431 12.4912 3.23265C13.0036 3.22492 13.5038 3.38856 13.9125 3.6976L20.6126 9.05266C20.8977 9.32452 21.1186 9.65656 21.2591 10.0246C21.3996 10.3926 21.4563 10.7874 21.4249 11.1801L20.1393 18.8761C20.0322 19.3936 19.7551 19.8603 19.3521 20.2021C18.9491 20.5439 18.4433 20.7411 17.9153 20.7623H7.08636C6.55982 20.7415 6.05525 20.5457 5.65247 20.2059C5.24968 19.8661 4.97166 19.4018 4.86238 18.8863L3.57671 11.1903C3.54085 10.7972 3.5954 10.4011 3.7362 10.0324C3.877 9.66363 4.10031 9.332 4.38903 9.06286L11.0892 3.6868Z" fill="#A6A6A6"/>
<path d="M11.9899 18.3148C12.1256 18.4505 12.3093 18.5274 12.5012 18.5288C12.693 18.5274 12.8766 18.4506 13.0123 18.315C13.148 18.1794 13.225 17.9959 13.2265 17.804V13.4575C13.2251 13.2656 13.1483 13.0819 13.0125 12.9462C12.8768 12.8104 12.6931 12.7336 12.5012 12.7322C12.3094 12.7336 12.1258 12.8104 11.9901 12.9459C11.8544 13.0815 11.7775 13.2651 11.7759 13.4569V17.8034C11.7773 17.9954 11.8542 18.1791 11.9899 18.3148Z" fill="#A6A6A6"/>
<path fill-rule="evenodd" clip-rule="evenodd" d="M7.08696 22.2123H17.9153C18.785 22.186 19.62 21.8654 20.2839 21.303C20.9477 20.7406 21.4012 19.9696 21.5701 19.1161L22.8564 11.4236C22.9314 10.776 22.8494 10.1197 22.6171 9.5105C22.3849 8.90126 22.0093 8.35693 21.5221 7.92358L14.822 2.56731C14.1561 2.05787 13.3414 1.78104 12.503 1.77931C11.6646 1.77757 10.8488 2.05103 10.1809 2.55771L3.48252 7.92238C2.98961 8.3513 2.60985 8.89494 2.37674 9.50534C2.14363 10.1157 2.06433 10.7741 2.14586 11.4224L3.43213 19.1281C3.59298 19.9844 4.04449 20.759 4.71039 21.3209C5.37629 21.8829 6.21576 22.1978 7.08696 22.2123ZM11.0892 3.6868C11.4932 3.38408 11.9864 3.22431 12.4912 3.23265C13.0036 3.22492 13.5038 3.38856 13.9125 3.6976L20.6126 9.05266C20.8977 9.32452 21.1186 9.65656 21.2591 10.0246C21.3996 10.3926 21.4563 10.7874 21.4249 11.1801L20.1393 18.8761C20.0322 19.3936 19.7551 19.8603 19.3521 20.2021C18.9491 20.5439 18.4433 20.7411 17.9153 20.7623H7.08636C6.55982 20.7415 6.05525 20.5457 5.65247 20.2059C5.24968 19.8661 4.97166 19.4018 4.86238 18.8863L3.57671 11.1903C3.54085 10.7972 3.5954 10.4011 3.7362 10.0324C3.877 9.66363 4.10031 9.332 4.38903 9.06286L11.0892 3.6868Z" fill="#A6A6A6"/>
</svg>
