<svg width="25" height="24" viewBox="0 0 25 24" fill="none" xmlns="http://www.w3.org/2000/svg">
<g clip-path="url(#clip0_419_16415)">
<path d="M7.04588 21.8406H2.7607C2.60332 21.8408 2.44767 21.8095 2.30248 21.7488C2.15742 21.6879 2.02529 21.5994 1.91398 21.4883C1.803 21.3775 1.71481 21.2463 1.65381 21.1019C1.59284 20.9567 1.56088 20.8009 1.56006 20.6435V12.4483C1.56097 12.2496 1.58083 12.0514 1.61983 11.8566C1.65933 11.6637 1.71725 11.4751 1.79269 11.2932C1.86884 11.1117 1.96218 10.9379 2.07161 10.7742C2.18225 10.6097 2.3086 10.4564 2.44897 10.3164C2.58973 10.1752 2.74421 10.048 2.90954 9.93655C3.07331 9.82678 3.24746 9.7331 3.42929 9.6569C3.61076 9.58048 3.79897 9.52199 3.99182 9.48228C4.18661 9.44312 4.38496 9.42311 4.58365 9.42236H7.04354C7.20117 9.4255 7.35657 9.4586 7.50176 9.52007C7.6466 9.58124 7.77852 9.66992 7.88967 9.78112C8.00101 9.8917 8.08942 10.023 8.15043 10.1676C8.21118 10.313 8.24295 10.4689 8.2436 10.6265V20.6272C8.24458 20.7859 8.21434 20.9431 8.15394 21.0898C8.09392 21.2372 8.00552 21.3716 7.89436 21.4854C7.7835 21.5992 7.65121 21.6896 7.50469 21.7511C7.35935 21.8111 7.20311 21.8416 7.04588 21.8406ZM4.74772 11.1036C4.55318 11.1046 4.36103 11.1439 4.18167 11.2192C4.00232 11.2946 3.83976 11.4045 3.70294 11.5428C3.42589 11.82 3.26851 12.195 3.26522 12.5869V19.5688C3.2662 19.7243 3.32856 19.873 3.43867 19.9828C3.49299 20.0375 3.55737 20.081 3.62852 20.1107C3.69968 20.1403 3.77645 20.1556 3.85353 20.1557H5.95364C6.0319 20.1563 6.10939 20.1411 6.18158 20.1108C6.25377 20.0806 6.31869 20.036 6.37319 19.9799C6.48294 19.8676 6.54443 19.7169 6.54429 19.5599V11.6934C6.5441 11.6164 6.52893 11.5402 6.49917 11.4691C6.46941 11.3981 6.42561 11.3336 6.37085 11.2794C6.26071 11.1692 6.11236 11.1062 5.95657 11.1036H4.74772Z" fill="#A6A6A6"/>
<path d="M14.3096 21.8462H10.0244C9.86672 21.8433 9.7113 21.81 9.56615 21.7484C9.42117 21.6871 9.28909 21.5986 9.17765 21.4875C8.95258 21.2638 8.82539 20.9599 8.82373 20.6425V5.18047C8.82462 4.98179 8.84448 4.78361 8.8835 4.58879C8.92305 4.39591 8.98096 4.20727 9.05636 4.02539C9.13254 3.84385 9.22588 3.67005 9.33528 3.50637C9.44586 3.34164 9.57221 3.18801 9.71264 3.04785C9.85344 2.9067 10.0079 2.77961 10.1732 2.66814C10.337 2.55837 10.5111 2.46469 10.693 2.38849C10.8745 2.31221 11.0627 2.25372 11.2555 2.21387C11.4503 2.17478 11.6486 2.15463 11.8473 2.15381H12.4983C12.697 2.1546 12.8948 2.17475 13.0896 2.21387C13.2826 2.25372 13.4715 2.3122 13.6533 2.38849C13.835 2.46457 14.0089 2.55825 14.1724 2.66814C14.338 2.77945 14.4921 2.90655 14.633 3.04785C14.7736 3.18788 14.8999 3.34153 15.0104 3.50637C15.1198 3.66993 15.213 3.84375 15.2887 4.02539C15.3646 4.20715 15.4227 4.39582 15.4621 4.58879C15.5012 4.78361 15.5216 4.98179 15.5225 5.18047V20.6425C15.517 20.9611 15.3859 21.2648 15.158 21.4875C15.0455 21.5987 14.9131 21.6872 14.7672 21.7484C14.6223 21.8096 14.4668 21.8428 14.3096 21.8462ZM12.0167 3.86703C11.8227 3.86818 11.6307 3.90726 11.4518 3.98217C11.2722 4.05708 11.1092 4.16663 10.9719 4.30445C10.8346 4.44174 10.7258 4.60478 10.6519 4.78436C10.5772 4.96305 10.538 5.1548 10.5371 5.3485V19.5764C10.5374 19.6532 10.553 19.7292 10.5828 19.8001C10.6126 19.8709 10.6559 19.9351 10.7105 19.9892C10.7647 20.0434 10.8291 20.0866 10.8998 20.1163C10.9706 20.1465 11.0467 20.1629 11.1237 20.1644H13.2161C13.2935 20.1628 13.3699 20.1465 13.4411 20.1163C13.5123 20.0865 13.5767 20.0434 13.6316 19.9892C13.7435 19.8805 13.808 19.7323 13.8115 19.5764V5.3485C13.8106 5.1548 13.772 4.96305 13.6972 4.78436C13.6234 4.60478 13.5146 4.44174 13.3773 4.30445C13.2399 4.16669 13.0769 4.05715 12.8974 3.98217C12.7187 3.90726 12.5268 3.86818 12.3331 3.86703H12.0167Z" fill="#A6A6A6"/>
<path d="M21.6142 21.8453H17.3291C17.1714 21.8422 17.016 21.8089 16.8708 21.7475C16.7259 21.6862 16.5938 21.5977 16.4823 21.4866C16.3713 21.3756 16.2831 21.2441 16.2222 21.0995C16.1612 20.9543 16.1292 20.7985 16.1284 20.641V13.3549C16.1296 13.1981 16.1615 13.043 16.2222 12.8983C16.2824 12.7528 16.3707 12.6205 16.4823 12.5094C16.5936 12.3982 16.7257 12.3098 16.8708 12.2491C17.016 12.1884 17.1717 12.1571 17.3291 12.1572H19.789C19.9876 12.1581 20.186 12.1783 20.3808 12.2173C20.5735 12.257 20.7617 12.3149 20.9433 12.3906C21.1248 12.4665 21.2987 12.5596 21.4625 12.6685C21.6276 12.7785 21.7821 12.9043 21.923 13.0441C22.0635 13.1851 22.1898 13.3395 22.3004 13.505C22.4097 13.6685 22.5031 13.8421 22.5793 14.0234C22.6549 14.2049 22.713 14.3931 22.7528 14.5856C22.7918 14.78 22.8116 14.9777 22.8125 15.176V20.6363C22.8126 20.7944 22.7822 20.9508 22.7223 21.097C22.6614 21.2428 22.5726 21.3755 22.4615 21.4877C22.3499 21.598 22.2179 21.685 22.0725 21.7439C21.9286 21.8093 21.7723 21.8438 21.6142 21.8453ZM18.4213 13.8542C18.344 13.8541 18.2671 13.8692 18.1957 13.8989C18.1243 13.9285 18.0597 13.9721 18.0053 14.0269C17.8959 14.1374 17.8337 14.2862 17.8318 14.4416V19.5592C17.8328 19.7148 17.8952 19.8639 18.0053 19.9739C18.116 20.0839 18.2652 20.1469 18.4213 20.1497H20.5214C20.5991 20.1499 20.676 20.1337 20.747 20.1022C20.8182 20.0733 20.8827 20.0307 20.9374 19.9768C20.9921 19.9219 21.0355 19.857 21.0652 19.7855C21.0948 19.7138 21.11 19.6368 21.1097 19.5592V15.3368C21.1077 14.9441 20.9507 14.5681 20.6726 14.2909C20.3948 14.0132 20.0188 13.8564 19.6261 13.8542H18.4213Z" fill="#A6A6A6"/>
</g>
<defs>
<clipPath id="clip0_419_16415">
<rect width="24" height="24" fill="white" transform="translate(0.25)"/>
</clipPath>
</defs>
</svg>
