<svg width="24" height="24" viewBox="0 0 24 24" fill="none" xmlns="http://www.w3.org/2000/svg">
<path d="M2.06078 12.5032C2.56115 11.6368 3.56851 11.158 4.89264 11.158H6.14118V6.91865C6.13084 6.83053 6.13928 6.74121 6.16596 6.65659C6.19264 6.57197 6.23694 6.49396 6.29594 6.4277C6.35495 6.36144 6.42733 6.30843 6.5083 6.27216C6.58928 6.23589 6.67702 6.21719 6.76575 6.21729C6.93322 6.21712 7.09399 6.28308 7.21309 6.40083C7.33218 6.51858 7.39997 6.67859 7.40171 6.84605C7.40171 6.86285 7.40171 6.87905 7.40171 6.89645V11.1562H8.66165C9.98578 11.1562 10.9937 11.6362 11.4935 12.5014C11.9933 13.3665 11.9021 14.4813 11.2397 15.629L9.35882 18.8911C8.69885 20.0388 7.78089 20.6736 6.77894 20.6736C5.77699 20.6736 4.85784 20.0406 4.18587 18.8923L2.30737 15.6308C1.95414 15.0603 1.75736 14.4068 1.7368 13.7361C1.73202 13.3035 1.84394 12.8776 2.06078 12.5032V12.5032ZM10.4004 13.1631C10.1906 12.884 9.91105 12.665 9.58985 12.5281C9.26865 12.3912 8.91709 12.3412 8.57046 12.3832H4.97724C4.63051 12.3412 4.27885 12.3911 3.95754 12.5281C3.63624 12.665 3.35661 12.884 3.14673 13.1631C3.01057 13.4854 2.96109 13.8377 3.00319 14.185C3.04529 14.5324 3.17751 14.8626 3.38671 15.143L5.18302 18.2587C5.31926 18.5801 5.53778 18.86 5.81658 19.0701C6.09538 19.2802 6.42462 19.4132 6.77115 19.4556C7.11849 19.4133 7.44849 19.28 7.72778 19.0691C8.00706 18.8583 8.22573 18.5775 8.36167 18.2551L10.158 15.1394C10.4072 14.7479 10.5487 14.2976 10.5684 13.8339C10.572 13.5987 10.5141 13.3666 10.4004 13.1607V13.1631Z" fill="#A6A6A6"/>
<path d="M12.7011 11.4968C13.2015 12.3632 14.2088 12.842 15.5329 12.842H16.7821V17.0813C16.7718 17.1692 16.7801 17.2582 16.8066 17.3426C16.8331 17.4269 16.877 17.5048 16.9356 17.571C16.9943 17.6372 17.0662 17.6902 17.1467 17.7267C17.2273 17.7632 17.3146 17.7823 17.403 17.7827C17.5705 17.7829 17.7313 17.7169 17.8504 17.5992C17.9695 17.4814 18.0373 17.3214 18.039 17.1539C18.039 17.1371 18.039 17.1209 18.039 17.1035V12.8438H19.299C20.6231 12.8438 21.631 12.3638 22.1308 11.4986C22.6306 10.6335 22.5394 9.51873 21.877 8.37098L19.9961 5.10895C19.3362 3.96121 18.4182 3.32644 17.4162 3.32644C16.4143 3.32644 15.4969 3.95941 14.8286 5.10715L12.9477 8.36919C12.5944 8.93971 12.3977 9.59318 12.3771 10.2639C12.3723 10.6965 12.4842 11.1224 12.7011 11.4968ZM21.0407 10.8369C20.8309 11.116 20.5514 11.335 20.2302 11.4719C19.909 11.6088 19.5574 11.6588 19.2108 11.6168H15.6169C15.2702 11.6588 14.9185 11.6089 14.5972 11.4719C14.2759 11.335 13.9963 11.116 13.7864 10.8369C13.6503 10.5146 13.6008 10.1623 13.6429 9.81497C13.685 9.46765 13.8172 9.13738 14.0264 8.85696L15.8227 5.74132C15.96 5.41975 16.1796 5.14008 16.4595 4.93055C16.7394 4.72103 17.0696 4.58906 17.4168 4.54798C17.7634 4.59039 18.0926 4.72336 18.3714 4.93349C18.6502 5.14361 18.8687 5.42348 19.005 5.74492L20.8013 8.86056C21.0505 9.2521 21.192 9.70241 21.2117 10.1661C21.2144 10.4016 21.1554 10.6336 21.0407 10.8393V10.8369Z" fill="#A6A6A6"/>
</svg>
