<svg width="25" height="24" viewBox="0 0 25 24" fill="none" xmlns="http://www.w3.org/2000/svg">
<g clip-path="url(#clip0_419_16449)">
<path d="M6.61993 15.7873C6.4796 15.9277 6.40014 16.1176 6.39873 16.316C6.39857 16.4146 6.41786 16.5121 6.45549 16.6032C6.49312 16.6943 6.54835 16.777 6.61802 16.8467C6.68768 16.9163 6.77042 16.9716 6.86147 17.0092C6.95252 17.0468 7.05011 17.0661 7.14863 17.0659H10.738C10.9364 17.0645 11.1264 16.9851 11.2667 16.8447C11.407 16.7044 11.4865 16.5145 11.4879 16.316C11.4865 16.1176 11.407 15.9277 11.2667 15.7873C11.1264 15.647 10.9364 15.5675 10.738 15.5661H7.14863C6.95018 15.5675 6.76026 15.647 6.61993 15.7873Z" fill="#A6A6A6"/>
<path fill-rule="evenodd" clip-rule="evenodd" d="M2.55139 8.13608V11.2613C2.54582 11.3489 2.54299 11.4368 2.54297 11.525V13.1232C2.54317 13.1522 2.54516 13.1809 2.5489 13.2094V17.7378C2.5473 18.0197 2.57392 18.3012 2.62857 18.5778C2.6817 18.8453 2.76234 19.1066 2.86878 19.3577C2.97269 19.6047 3.09993 19.8412 3.249 20.0638C3.39849 20.2847 3.56862 20.491 3.75636 20.6805C3.94485 20.8699 4.15081 21.0407 4.37211 21.1904C4.59499 21.3417 4.83248 21.4709 5.08042 21.5762C5.33167 21.6831 5.5928 21.7647 5.8602 21.8198C6.13658 21.8765 6.41762 21.9049 6.69974 21.9049H12.187C12.2118 21.9069 12.2368 21.9075 12.2618 21.9067H17.3203C17.8675 21.9076 18.4095 21.8003 18.9151 21.5911C19.4207 21.3818 19.88 21.0746 20.2665 20.6873C20.653 20.2999 20.9592 19.84 21.1674 19.3339C21.3755 18.8279 21.4817 18.2857 21.4796 17.7385V17.1956L21.4975 17.1877C21.6867 17.1031 21.8586 16.9835 22.0031 16.835C22.1475 16.687 22.2622 16.5129 22.3417 16.3221C22.4226 16.1234 22.4635 15.9108 22.4618 15.6964V13.7939C22.4624 13.4738 22.3681 13.1607 22.1912 12.894C22.0165 12.6326 21.7709 12.4267 21.4829 12.3007V11.5209C21.4824 11.2387 21.4529 10.9572 21.3956 10.6809C21.3401 10.414 21.2601 10.1529 21.1559 9.90099C21.0512 9.65309 20.9218 9.41619 20.7704 9.1937C20.6208 8.97246 20.4507 8.76606 20.2619 8.57708C20.0733 8.38842 19.867 8.21799 19.6462 8.06826C19.4228 7.91813 19.1857 7.78981 18.9379 7.68496C18.6864 7.57952 18.4253 7.49905 18.1581 7.4449C17.952 7.40276 17.7429 7.37633 17.5329 7.36572C17.4593 7.36178 17.3854 7.35979 17.3113 7.35977H15.343V4.54373C15.3438 4.14793 15.2484 3.75787 15.065 3.40713C14.8816 3.0564 14.6157 2.75551 14.2901 2.53038C13.9659 2.30324 13.5909 2.15919 13.198 2.11086C12.8051 2.06253 12.4064 2.11142 12.0368 2.25321L4.70332 5.02367C4.07288 5.26536 3.53013 5.69181 3.14615 6.24717C2.76217 6.80253 2.55487 7.46091 2.55139 8.13608ZM14.6504 8.76659C14.5923 8.76659 14.5347 8.7593 14.4787 8.74499H6.70825C6.32025 8.74541 5.94068 8.82684 5.59216 8.9799C5.28071 9.11746 4.9942 9.31229 4.74882 9.55767C4.22763 10.0789 3.93467 10.7856 3.93388 11.5227L3.92392 17.7385C3.92455 18.4757 4.21763 19.1823 4.73886 19.7035C5.26008 20.2247 5.96672 20.5178 6.70385 20.5185H12.9661C12.9875 20.5185 13.0087 20.5195 13.0299 20.5215H17.3233C18.0604 20.5199 18.7667 20.226 19.2874 19.7043C19.808 19.1825 20.1004 18.4755 20.1004 17.7385V17.3323H19.0409C18.379 17.3436 17.7367 17.1075 17.2396 16.6702C17.1437 16.5858 17.0546 16.4952 16.9726 16.3991C16.8396 16.2462 16.7247 16.0781 16.6301 15.8979C16.5227 15.6931 16.4453 15.4744 16.3998 15.2487C16.3794 15.1564 16.3638 15.0627 16.3532 14.968C16.3225 14.6117 16.3659 14.2529 16.4809 13.9142C16.5958 13.5756 16.7797 13.2644 17.021 13.0004C17.1078 12.9056 17.2012 12.8175 17.3006 12.7369C17.364 12.6843 17.43 12.6348 17.4984 12.5886C17.6359 12.4958 17.7827 12.4171 17.936 12.3536C18.2159 12.2382 18.5134 12.1734 18.8153 12.1617C18.8504 12.1601 18.8857 12.1593 18.9209 12.1592H20.0938V11.525C20.093 10.788 19.7998 10.0813 19.2786 9.56013C18.7574 9.03894 18.0508 8.74579 17.3137 8.74499H14.822C14.7661 8.7593 14.7084 8.76659 14.6504 8.76659ZM13.9578 4.54373V7.35977H6.70825C6.17469 7.35992 5.6517 7.46241 5.16554 7.65637C5.14157 7.66588 5.11769 7.6756 5.09389 7.68554C5.07917 7.6918 5.06449 7.69814 5.04985 7.70456C4.6424 7.88149 4.26297 8.12368 3.92762 8.42447V8.13608C3.9299 7.74167 4.05098 7.35709 4.27507 7.03252C4.49916 6.70794 4.81586 6.45842 5.18386 6.31651L12.5167 3.54605C12.677 3.48277 12.8505 3.4606 13.0215 3.48156C13.1926 3.50252 13.3556 3.56594 13.4958 3.66604C13.6389 3.7632 13.7559 3.89409 13.8365 4.04716C13.917 4.20022 13.9587 4.37076 13.9578 4.54373ZM18.7193 13.5626C18.7858 13.5518 18.8532 13.5469 18.9209 13.548H20.7807C20.7992 13.5479 20.8177 13.5472 20.8361 13.5457H20.8771C20.9307 13.5457 20.9826 13.5669 21.0206 13.6048C21.0586 13.6427 21.0802 13.6941 21.0804 13.7478V14.4124C21.081 14.4218 21.081 14.4313 21.0804 14.4407V15.6969C21.0805 15.7627 21.055 15.8259 21.0095 15.8733C20.989 15.8957 20.9639 15.9137 20.9362 15.9263C20.9086 15.9389 20.8787 15.9458 20.8484 15.9465H19.0386C18.7251 15.9525 18.42 15.8442 18.1803 15.642C17.9407 15.4398 17.7831 15.1575 17.7363 14.8474C17.7192 14.6706 17.7424 14.4922 17.8048 14.3259C17.8672 14.1595 17.9668 14.0095 18.096 13.8875C18.2043 13.7773 18.3343 13.6902 18.4774 13.6316C18.5554 13.5997 18.6366 13.5766 18.7193 13.5626Z" fill="#A6A6A6"/>
</g>
<defs>
<clipPath id="clip0_419_16449">
<rect width="24" height="24" fill="white" transform="translate(0.5)"/>
</clipPath>
</defs>
</svg>
