<svg width="24" height="25" viewBox="0 0 24 25" fill="none" xmlns="http://www.w3.org/2000/svg">
<g clip-path="url(#clip0_4421_46098)">
<path d="M2.39969 8.77797C2.39969 8.11532 2.93688 7.57812 3.59954 7.57812H20.3974C21.0601 7.57812 21.5973 8.11532 21.5973 8.77797C21.5973 9.44063 21.0601 9.97782 20.3974 9.97782H3.59954C2.93688 9.97782 2.39969 9.44063 2.39969 8.77797Z" fill="#4CAF50"/>
<path d="M4.79941 16.8764C4.79941 16.3795 4.91692 15.9766 5.06188 15.9766H8.73642C8.88137 15.9766 8.99888 16.3795 8.99888 16.8764C8.99888 17.3734 8.88137 17.7763 8.73642 17.7763H5.06188C4.91692 17.7763 4.79941 17.3734 4.79941 16.8764Z" fill="#4CAF50"/>
<path d="M9.59879 16.8764C9.59879 16.3795 9.76666 15.9766 9.97374 15.9766H15.2231C15.4302 15.9766 15.598 16.3795 15.598 16.8764C15.598 17.3734 15.4302 17.7763 15.2231 17.7763H9.97374C9.76666 17.7763 9.59879 17.3734 9.59879 16.8764Z" fill="#4CAF50"/>
<path d="M17.561 21.6387H6.44264C2.46504 21.6387 1.25253 20.4394 1.25253 16.499V8.28094C1.25253 4.34173 2.46504 3.14062 6.44264 3.14062H17.5504C21.5244 3.14062 22.737 4.34053 22.737 8.28094V16.4885C22.743 18.5309 22.4079 19.7793 21.6521 20.5369C20.8825 21.3089 19.658 21.6387 17.561 21.6387ZM10.5033 16.1417C10.3045 16.1418 10.1144 16.2213 9.97379 16.3619C9.83321 16.5025 9.75369 16.6927 9.75353 16.8915C9.75602 17.0896 9.83607 17.2791 9.97613 17.4193C10.1162 17.5595 10.3052 17.6392 10.5033 17.6419H14.5008C14.6989 17.6392 14.8879 17.5595 15.028 17.4193C15.1681 17.2791 15.2481 17.0896 15.2506 16.8915C15.248 16.6934 15.168 16.5043 15.028 16.3643C14.8879 16.2242 14.6988 16.1443 14.5008 16.1417H10.5033ZM6.00447 16.1417C5.80566 16.1418 5.6155 16.2213 5.47491 16.3619C5.33433 16.5025 5.25482 16.6927 5.25466 16.8915C5.25714 17.0896 5.33719 17.2791 5.47726 17.4193C5.61732 17.5595 5.80632 17.6392 6.00447 17.6419H8.00084C8.19899 17.6392 8.38799 17.5595 8.52806 17.4193C8.66812 17.2791 8.74817 17.0896 8.75066 16.8915C8.7505 16.6927 8.67098 16.5025 8.5304 16.3619C8.38982 16.2213 8.19966 16.1418 8.00084 16.1417H6.00447ZM3.80424 8.14094C3.60609 8.14358 3.41709 8.22395 3.27703 8.36412C3.13696 8.5043 3.05691 8.69319 3.05443 8.89134C3.05458 9.09015 3.1341 9.28089 3.27468 9.42148C3.41527 9.56206 3.60542 9.64099 3.80424 9.64115H20.2017C20.4005 9.64099 20.5907 9.56206 20.7313 9.42148C20.8718 9.28089 20.9513 9.09015 20.9515 8.89134C20.949 8.69319 20.869 8.5043 20.7289 8.36412C20.5888 8.22395 20.3998 8.14358 20.2017 8.14094H3.80424Z" fill="#FFC107"/>
</g>
<defs>
<clipPath id="clip0_4421_46098">
<rect width="24" height="24" fill="white" transform="translate(0 0.394531)"/>
</clipPath>
</defs>
</svg>
