<svg width="25" height="25" viewBox="0 0 25 25" fill="none" xmlns="http://www.w3.org/2000/svg">
<g clip-path="url(#clip0_4421_46121)">
<path d="M4.53343 10.8984H20.1338V19.8987H4.53343V10.8984Z" fill="#FFC107"/>
<path d="M16.6567 1.79297H8.02245C4.27236 1.79297 2.0361 4.03037 2.0361 7.78286V16.4063C2.0361 20.1648 4.27176 22.4022 8.02245 22.4022H16.6459C20.3954 22.4022 22.6316 20.1648 22.6316 16.4123V7.78286C22.6418 4.03037 20.4056 1.79297 16.6567 1.79297ZM6.67362 12.6849H9.52789C9.72905 12.6905 9.92008 12.7745 10.0604 12.9187C10.2007 13.063 10.2792 13.2563 10.2792 13.4575C10.2792 13.6588 10.2007 13.852 10.0604 13.9963C9.92008 14.1406 9.72905 14.2245 9.52789 14.2301H6.67242C6.47126 14.2245 6.28022 14.1406 6.13992 13.9963C5.99962 13.852 5.92113 13.6588 5.92113 13.4575C5.92113 13.2563 5.99962 13.063 6.13992 12.9187C6.28022 12.7745 6.47126 12.6905 6.67242 12.6849H6.67362ZM13.3398 18.1062H6.67242C6.46774 18.1052 6.27172 18.0234 6.127 17.8787C5.98227 17.7339 5.90055 17.538 5.8996 17.3333C5.90045 17.1274 5.98161 16.93 6.12581 16.7831C6.27182 16.6402 6.46809 16.5602 6.67242 16.5604H13.3386C13.5427 16.5603 13.7387 16.6403 13.8846 16.7831C14.0292 16.9298 14.1106 17.1273 14.1114 17.3333C14.1095 17.5377 14.0275 17.7331 13.883 17.8776C13.7385 18.0222 13.543 18.1043 13.3386 18.1062H13.3398ZM18.0067 18.1062H16.1005C15.8958 18.1052 15.6998 18.0234 15.555 17.8787C15.4103 17.7339 15.3286 17.538 15.3276 17.3333C15.3285 17.1274 15.4096 16.93 15.5538 16.7831C15.6999 16.6402 15.8961 16.5602 16.1005 16.5604H18.0067C18.2108 16.5603 18.4068 16.6403 18.5527 16.7831C18.6973 16.9298 18.7788 17.1273 18.7795 17.3333C18.7776 17.5377 18.6956 17.7331 18.5511 17.8776C18.4066 18.0222 18.2111 18.1043 18.0067 18.1062ZM18.0067 14.2301H12.3066C12.1054 14.2245 11.9144 14.1406 11.7741 13.9963C11.6338 13.852 11.5553 13.6588 11.5553 13.4575C11.5553 13.2563 11.6338 13.063 11.7741 12.9187C11.9144 12.7745 12.1054 12.6905 12.3066 12.6849H18.0067C18.2079 12.6905 18.3989 12.7745 18.5392 12.9187C18.6795 13.063 18.758 13.2563 18.758 13.4575C18.758 13.6588 18.6795 13.852 18.5392 13.9963C18.3989 14.1406 18.2079 14.2245 18.0067 14.2301Z" fill="#4B4B4B"/>
</g>
<defs>
<clipPath id="clip0_4421_46121">
<rect width="24" height="24" fill="white" transform="translate(0.333321 0.394531)"/>
</clipPath>
</defs>
</svg>
