<svg width="25" height="25" viewBox="0 0 25 25" fill="none" xmlns="http://www.w3.org/2000/svg">
<g id="Cigarettes" clip-path="url(#clip0_4421_46105)">
<path id="Union" fill-rule="evenodd" clip-rule="evenodd" d="M7.31805 1.59375C7.08269 1.59375 6.88101 1.76207 6.83891 1.99363L4.87453 12.7977C4.8487 12.9398 4.88725 13.086 4.97978 13.1969C5.07231 13.3077 5.20927 13.3718 5.35367 13.3718H8.7443L7.81566 22.6583C7.79419 22.873 7.91655 23.0762 8.11635 23.1577C8.31614 23.2391 8.54573 23.1794 8.68053 23.0109L20.4668 8.27811C20.5837 8.13193 20.6065 7.93165 20.5254 7.76292C20.4443 7.59419 20.2737 7.48688 20.0865 7.48688H15.7993L17.1213 2.19887C17.1577 2.05338 17.125 1.89925 17.0327 1.78105C16.9404 1.66284 16.7988 1.59375 16.6488 1.59375H7.31805Z" fill="#4B4B4B"/>
<path id="Union_2" fill-rule="evenodd" clip-rule="evenodd" d="M7.42702 1.59375C7.12642 1.59375 6.86884 1.80872 6.81507 2.10447L4.8764 12.7671C4.84341 12.9486 4.89265 13.1353 5.01082 13.2769C5.129 13.4185 5.30392 13.5004 5.48836 13.5004H8.6784L7.77745 22.5098C7.75003 22.784 7.90631 23.0436 8.16149 23.1477C8.41667 23.2517 8.70989 23.1755 8.88205 22.9603L20.514 8.42029C20.6634 8.23359 20.6925 7.97779 20.5889 7.7623C20.4854 7.5468 20.2674 7.40975 20.0283 7.40975H15.9783L17.2391 2.36659C17.2856 2.18078 17.2438 1.98393 17.1259 1.83296C17.0081 1.68199 16.8272 1.59375 16.6357 1.59375H7.42702ZM6.23363 12.2564L7.94612 2.83773H15.8391L14.5783 7.88088C14.5318 8.06669 14.5736 8.26355 14.6914 8.41451C14.8093 8.56548 14.9901 8.65372 15.1817 8.65372H18.7342L9.22453 20.5408L9.98459 12.9403C10.0021 12.7654 9.94478 12.5913 9.82686 12.461C9.70895 12.3307 9.54142 12.2564 9.36569 12.2564H6.23363Z" fill="#FFC107"/>
</g>
<defs>
<clipPath id="clip0_4421_46105">
<rect width="24" height="24" fill="white" transform="translate(0.666656 0.394531)"/>
</clipPath>
</defs>
</svg>
