<svg width="24" height="25" viewBox="0 0 24 25" fill="none" xmlns="http://www.w3.org/2000/svg">
<g clip-path="url(#clip0_4421_46108)">
<path d="M6.86855 10.4834C7.40188 10.7045 7.97377 10.8176 8.55111 10.8161C9.1289 10.8176 9.70102 10.7047 10.2348 10.4836C10.7688 10.2625 11.2535 9.9376 11.661 9.52789C12.0704 9.12076 12.3952 8.63641 12.6162 8.10301C12.8371 7.56961 12.95 6.99778 12.9484 6.42044C12.9499 5.84285 12.8371 5.27069 12.6162 4.737C12.3952 4.20332 12.0704 3.71862 11.661 3.31109C11.2536 2.90143 10.7693 2.57672 10.2354 2.35569C9.70161 2.13467 9.12917 2.02172 8.5514 2.02346C7.97398 2.02167 7.40199 2.13465 6.86855 2.35569C6.33511 2.57673 5.85102 2.90142 5.4441 3.31109C5.03459 3.71851 4.71001 4.20316 4.489 4.73686C4.26798 5.27056 4.15461 5.84279 4.15618 6.42044C4.15459 6.99783 4.26738 7.56974 4.48841 8.10315C4.70944 8.63656 5.03459 9.12085 5.4441 9.52789C5.85107 9.93754 6.33513 10.2623 6.86855 10.4834Z" fill="#4B4B4B"/>
<path d="M8.477 22.7642H8.73892C10.1981 22.7675 11.6231 22.3186 12.8166 21.479C14.0098 20.6436 14.9148 19.4594 15.4082 18.0889C15.6121 17.4953 15.7301 16.8757 15.7586 16.2487V16.2402C15.8133 15.9814 15.8129 15.714 15.7569 15.4555C15.7008 15.1969 15.5904 14.9531 15.4334 14.7402C15.147 14.388 14.7417 14.1533 14.2937 14.0802L13.3123 14.0273H3.91009L2.92862 14.0802C2.48082 14.1538 2.07513 14.3884 1.78836 14.7402C1.63157 14.9532 1.52221 15.197 1.46667 15.4556C1.41112 15.7142 1.41119 15.9816 1.46667 16.2402V16.2499C1.49461 16.877 1.61281 17.4967 1.81765 18.09C2.31058 19.4605 3.21575 20.6445 4.40932 21.479C5.59987 22.3173 7.02097 22.7661 8.477 22.7642Z" fill="#4B4B4B"/>
<path d="M12.6205 9.45725C12.5395 9.55985 12.4734 9.64631 12.5274 9.78612C12.5696 9.89608 12.6387 9.92613 12.7421 9.97118C12.7708 9.98365 12.8021 9.99727 12.8362 10.0141C13.3331 10.2679 13.8837 10.4 14.4417 10.3993C15.068 10.401 15.6833 10.2353 16.2241 9.91927C16.4788 9.76756 16.7136 9.58476 16.9232 9.37507C17.2514 9.04869 17.5113 8.66053 17.6884 8.2329C17.8656 7.80527 17.9563 7.34676 17.955 6.88389C17.9563 6.42085 17.8656 5.96212 17.6884 5.5343C17.5113 5.10648 17.2514 4.71804 16.9232 4.3914C16.5966 4.06304 16.2084 3.80271 15.7806 3.62556C15.3527 3.44841 14.8936 3.35797 14.4305 3.35939C14.2986 3.3594 14.1667 3.36655 14.0356 3.38093H14.0274C13.7617 3.41051 13.5003 3.46926 13.2475 3.55612C13.0975 3.60893 13.0419 3.63355 12.9903 3.77395C12.9699 3.83114 12.9638 3.89246 12.9727 3.95252C12.9816 4.01258 13.0051 4.06952 13.0412 4.11835C13.3978 4.83506 13.5862 5.6237 13.592 6.42421C13.5912 7.03853 13.4864 7.64837 13.2826 8.22792C13.181 8.51795 13.0507 8.79694 12.893 9.06071C12.8107 9.19856 12.7197 9.33096 12.6205 9.45725Z" fill="#FFC107"/>
<path d="M15.4788 19.4508C15.3834 19.6314 15.3426 19.7221 15.378 19.8313L15.3803 19.8294C15.4133 19.9386 15.6206 19.8858 15.6206 19.8858L15.9077 19.8294L16.3841 19.6968L16.8405 19.5167C17.1928 19.3636 17.5287 19.1753 17.8431 18.9545C18.7997 18.285 19.5254 17.3358 19.9209 16.2372C20.0848 15.7614 20.1794 15.2645 20.2021 14.7617V14.755C20.246 14.5479 20.2454 14.3339 20.2004 14.127C20.1554 13.9202 20.0673 13.7252 19.9414 13.555C19.7122 13.2731 19.3875 13.0849 19.029 13.0259C19.029 13.0259 18.5294 12.9766 17.3714 12.9766C16.8175 12.9757 16.5237 12.9831 16.1728 12.9919C15.8505 13 15.4802 13.0093 14.816 13.0144C14.705 13.0003 14.5923 13.0199 14.4926 13.0708C14.4613 13.0925 14.4357 13.1217 14.4188 13.1558C14.4019 13.1899 14.3942 13.2278 14.3959 13.2658C14.4009 13.3071 14.4158 13.3465 14.4399 13.3804C14.464 13.4142 14.4962 13.4414 14.5336 13.4596C14.6217 13.5064 14.6515 13.5102 14.7357 13.5209C14.78 13.5265 14.8394 13.5341 14.9303 13.5509C15.2758 13.604 15.6063 13.7293 15.9001 13.9187C16.071 14.0282 16.1981 14.1939 16.2598 14.3873C16.3455 14.5718 16.3867 14.7738 16.38 14.9771C16.395 15.4817 16.3926 15.9509 16.38 16.2509V16.2593C16.3613 16.8919 16.251 17.5185 16.0524 18.1194C15.9978 18.2724 15.9418 18.4194 15.886 18.5568C15.8638 18.6156 15.8414 18.6726 15.8192 18.7266C15.7088 18.99 15.594 19.2336 15.4788 19.4508Z" fill="#FFC107"/>
</g>
<defs>
<clipPath id="clip0_4421_46108">
<rect width="24" height="24" fill="white" transform="translate(0 0.394531)"/>
</clipPath>
</defs>
</svg>
