<svg width="25" height="25" viewBox="0 0 25 25" fill="none" xmlns="http://www.w3.org/2000/svg">
<path d="M6.66696 6.10156H19.5676V18.7022H6.66696V6.10156Z" fill="#FFC107"/>
<path fill-rule="evenodd" clip-rule="evenodd" d="M9.74949 22.4089H15.3897C20.492 22.4089 22.6725 20.227 22.6725 15.1265V9.48603C22.6725 4.38312 20.4902 2.20312 15.3897 2.20312H9.74949C4.64718 2.20312 2.46674 4.38552 2.46674 9.48603V15.1265C2.46674 20.2288 4.64899 22.4089 9.74949 22.4089ZM13.8679 7.63094C13.8679 8.30881 13.3306 8.85834 12.6678 8.85834C12.0049 8.85834 11.4676 8.30881 11.4676 7.63094C11.4676 6.95307 12.0049 6.40354 12.6678 6.40354C13.3306 6.40354 13.8679 6.95307 13.8679 7.63094ZM13.8679 17.1773C13.8679 17.8552 13.3306 18.4047 12.6678 18.4047C12.0049 18.4047 11.4676 17.8552 11.4676 17.1773C11.4676 16.4995 12.0049 15.95 12.6678 15.95C13.3306 15.95 13.8679 16.4995 13.8679 17.1773ZM13.8679 12.1768C13.8679 12.8547 13.3306 13.4042 12.6678 13.4042C12.0049 13.4042 11.4676 12.8547 11.4676 12.1768C11.4676 11.499 12.0049 10.9495 12.6678 10.9495C13.3306 10.9495 13.8679 11.499 13.8679 12.1768Z" fill="#4B4B4B"/>
</svg>
