<svg width="24" height="25" viewBox="0 0 24 25" fill="none" xmlns="http://www.w3.org/2000/svg">
<path d="M5.25014 5.19922H17.8505V18.9996H5.25014V5.19922Z" fill="#FFC107"/>
<path d="M11.8497 23.047C9.02654 23.0438 6.32003 21.9208 4.32374 19.9245C2.32745 17.9282 1.20438 15.2217 1.2012 12.3985C1.20438 9.57533 2.32745 6.86853 4.32374 4.87225C6.32003 2.87596 9.02654 1.75318 11.8497 1.75C14.6729 1.75318 17.3794 2.87596 19.3757 4.87225C21.372 6.86853 22.495 9.57533 22.4982 12.3985C22.495 15.2217 21.372 17.9282 19.3757 19.9245C17.3794 21.9208 14.6729 23.0438 11.8497 23.047V23.047ZM11.6651 17.3114C11.461 17.3116 11.2657 17.3927 11.1214 17.537C10.977 17.6814 10.8959 17.877 10.8958 18.0811C10.8959 18.2852 10.977 18.4811 11.1214 18.6254C11.2657 18.7698 11.461 18.8509 11.6651 18.851C11.8696 18.8512 12.0659 18.7703 12.2107 18.626C12.3554 18.4817 12.4369 18.2855 12.4374 18.0811C12.4369 17.8767 12.3559 17.681 12.2112 17.5367C12.0666 17.3924 11.8701 17.3114 11.6657 17.3114H11.6651ZM12.3736 7.52397C12.605 7.52153 12.8326 7.58105 13.0333 7.69624C13.2361 7.82367 13.4049 7.99827 13.5255 8.20514C13.6462 8.41202 13.7154 8.64502 13.7265 8.88426C13.7736 9.47169 13.6356 10.059 13.3322 10.5642C13.1082 10.9602 12.7967 11.2994 12.421 11.5559C12.4042 11.5655 11.926 11.9916 11.845 12.0654C11.4829 12.3988 11.2195 12.8258 11.0845 13.2991C10.8835 13.8246 10.8119 14.3907 10.8753 14.9497C10.8837 15.0337 10.8899 15.1064 10.8899 15.1736C10.8899 15.2252 10.8899 15.2701 10.8899 15.3139V15.3391V15.3426C10.8841 15.4408 10.886 15.5394 10.8946 15.6374C10.8974 15.7021 10.9124 15.7658 10.9397 15.8246C10.9522 15.8466 10.9602 15.8709 10.9632 15.8961C11.0206 16.0327 11.1159 16.1501 11.2374 16.235C11.3589 16.32 11.5019 16.3689 11.6499 16.376H11.6599C11.7931 16.3662 11.9229 16.3287 12.0407 16.2658C12.1585 16.2029 12.2621 16.1159 12.3443 16.0106C12.4168 15.9109 12.4529 15.7892 12.4468 15.6661C12.3371 15.074 12.3748 14.464 12.557 13.89C12.6977 13.4934 12.9337 13.1373 13.2437 12.8526C13.806 12.4921 14.2754 12.0048 14.6154 11.4299C14.7514 11.1924 14.8687 10.9447 14.9664 10.689C15.06 10.4435 15.1338 10.191 15.1867 9.9337C15.2379 9.6881 15.2685 9.4385 15.2775 9.18778C15.2861 8.94705 15.2725 8.70592 15.2371 8.46765C15.2043 8.23979 15.1501 8.01574 15.0748 7.7982C15.0025 7.58827 14.9068 7.38703 14.79 7.19818C14.6751 7.01426 14.5395 6.84402 14.3857 6.69104C14.2299 6.53863 14.0556 6.40636 13.8671 6.29699C13.6649 6.18051 13.4481 6.09211 13.222 6.03419C12.9972 5.97621 12.7657 5.94714 12.5335 5.94776C12.2049 5.95001 11.8783 6.00151 11.5649 6.10069C11.2324 6.20854 10.9157 6.35885 10.6216 6.54778C9.97438 6.9714 9.43671 7.54234 9.05296 8.21393C8.91697 8.45241 8.79946 8.70109 8.70139 8.9575C8.60632 9.20243 8.53271 9.45507 8.48166 9.7128C8.45193 9.93376 8.43678 10.1564 8.43654 10.3793C8.4367 10.5833 8.51793 10.7791 8.66213 10.9234C8.80634 11.0677 9.00188 11.1489 9.20589 11.1493C9.41071 11.151 9.60811 11.0715 9.75435 10.9281C9.90058 10.7846 9.98358 10.5891 9.9858 10.3843C9.9858 10.3747 9.9857 10.3524 9.9899 10.3242V10.2985V10.2853C9.9899 10.2565 9.99517 10.2312 9.99517 10.2252C10.019 9.74636 10.1584 9.28033 10.4018 8.86727C10.5898 8.49468 10.8691 8.17615 11.214 7.94117C11.5588 7.70619 11.958 7.56259 12.3736 7.52397V7.52397Z" fill="#4B4B4B"/>
</svg>
