<svg width="25" height="25" viewBox="0 0 25 25" fill="none" xmlns="http://www.w3.org/2000/svg">
<g id="wallet 2">
<path id="Vector" d="M2.94901 13.4299C2.76563 13.4287 2.59012 13.3553 2.46046 13.2256C2.33079 13.0959 2.25738 12.9204 2.25613 12.737V8.51596C2.25961 7.84079 2.4669 7.18241 2.85086 6.62705C3.23482 6.07169 3.77754 5.64524 4.40795 5.40355L11.7411 2.6331C12.1106 2.4913 12.5094 2.44241 12.9022 2.49074C13.2951 2.53907 13.6701 2.68313 13.9943 2.91026C14.3198 3.13539 14.5857 3.43628 14.7691 3.78701C14.9525 4.13775 15.0479 4.52781 15.0471 4.92361V8.43317C15.0498 8.52584 15.0339 8.61812 15.0003 8.70453C14.9668 8.79095 14.9162 8.86975 14.8516 8.93626C14.787 9.00278 14.7098 9.05565 14.6244 9.09176C14.539 9.12787 14.4472 9.14647 14.3545 9.14647C14.2618 9.14647 14.17 9.12787 14.0847 9.09176C13.9993 9.05565 13.922 9.00278 13.8574 8.93626C13.7928 8.86975 13.7423 8.79095 13.7087 8.70453C13.6751 8.61812 13.6592 8.52584 13.6619 8.43317V4.92361C13.6629 4.75064 13.6212 4.5801 13.5406 4.42704C13.4601 4.27397 13.3431 4.14309 13.2 4.04592C13.0598 3.94582 12.8968 3.8824 12.7258 3.86144C12.5548 3.84049 12.3812 3.86266 12.221 3.92594L4.88847 6.69639C4.52048 6.83831 4.2038 7.08782 3.97972 7.4124C3.75564 7.73698 3.63457 8.12155 3.63229 8.51596V12.737C3.63421 12.8277 3.61793 12.9179 3.58439 13.0022C3.55086 13.0865 3.50076 13.1633 3.43705 13.2279C3.37335 13.2925 3.29733 13.3437 3.2135 13.3784C3.12967 13.4131 3.03973 13.4306 2.94901 13.4299Z" fill="#FFC107"/>
<path id="Path 6004" d="M17.024 22.2878H11.9651C11.8797 22.2879 11.7141 22.2878 11.7141 22.2878C11.7141 22.2878 11.5514 22.2879 11.466 22.2878H6.4029C5.72052 22.2878 5.04861 22.12 4.44636 21.7992C3.8441 21.4783 3.32999 21.0143 2.94931 20.448C2.48662 19.7603 2.24182 18.9492 2.24683 18.1204V11.9073C2.24674 11.6252 2.27508 11.3438 2.33141 11.0674C2.49571 10.2699 2.89009 9.53812 3.46583 8.96238C4.04156 8.38665 4.77339 7.99226 5.57085 7.82797C5.8476 7.77116 6.12938 7.74242 6.4119 7.74219H17.0144C17.2871 7.74211 17.5592 7.76863 17.8267 7.82137C18.343 7.92338 18.8351 8.12291 19.2766 8.40927C19.9308 8.83488 20.4527 9.43499 20.7836 10.1418C21.0109 10.6257 21.1423 11.149 21.1705 11.6829C21.1747 11.7573 21.1765 11.8341 21.1765 11.9103V12.5443H18.624C18.2875 12.5414 17.9538 12.606 17.6428 12.7346C17.3318 12.8631 17.0497 13.0528 16.8135 13.2924C16.5413 13.5572 16.3319 13.8797 16.2009 14.2361C16.0699 14.5925 16.0205 14.9738 16.0564 15.3519C16.1299 16.0097 16.446 16.6164 16.943 17.0536C17.44 17.4908 18.0821 17.727 18.7439 17.716H21.1795V18.1204C21.1814 18.6671 21.0753 19.2088 20.8672 19.7144C20.6591 20.22 20.3532 20.6795 19.967 21.0666C19.5808 21.4536 19.122 21.7605 18.6168 21.9697C18.1117 22.1788 17.5702 22.2862 17.0234 22.2854L17.024 22.2878Z" fill="#4B4B4B"/>
<path id="Path 6001" d="M22.111 16.9385H18.4552C18.2509 16.9381 18.0493 16.8939 17.8635 16.8088C17.6752 16.7234 17.5047 16.6033 17.3608 16.4548C17.2111 16.3018 17.0889 16.1238 17.0005 15.9287C16.9074 15.7249 16.8517 15.5062 16.8353 15.2827C16.8109 15.0238 16.8376 14.7626 16.9144 14.5142C16.9912 14.2657 17.1161 14.0349 17.2823 13.835C17.4036 13.6754 17.5604 13.5459 17.7399 13.4567C17.9194 13.3674 18.1171 13.3208 18.3175 13.3203H22.077C22.121 13.3234 22.1642 13.3351 22.2036 13.3547C22.243 13.3744 22.2778 13.4016 22.3067 13.4348C22.3677 13.508 22.4005 13.6007 22.3987 13.6959V16.5629C22.4001 16.659 22.3695 16.7527 22.3114 16.8292C22.2884 16.8614 22.2582 16.8879 22.2235 16.9068C22.1888 16.9257 22.1505 16.9366 22.111 16.9385V16.9385Z" fill="#FFC107"/>
</g>
</svg>
