<svg width="25" height="24" viewBox="0 0 25 24" fill="none" xmlns="http://www.w3.org/2000/svg">
<path d="M12.0708 7.77161C12.4302 7.77161 12.6257 7.40058 12.405 7.14938L7.00162 0.921467C6.83142 0.721653 6.49723 0.721653 6.32697 0.921467L0.923592 7.14938C0.702876 7.40058 0.904643 7.77161 1.25772 7.77161H5.16495V22.2283C5.16495 22.7806 5.61267 23.2283 6.16495 23.2283H7.16495C7.71724 23.2283 8.16495 22.7806 8.16495 22.2283V7.77161H12.0708Z" fill="#A6A6A6"/>
<path d="M23.7413 16.2284C24.1007 16.2284 24.2961 16.5994 24.0755 16.8506L18.672 23.0785C18.5018 23.2783 18.1676 23.2783 17.9974 23.0785L12.594 16.8506C12.3733 16.5994 12.5751 16.2284 12.9281 16.2284H16.8354V1.77173C16.8354 1.21944 17.2831 0.771729 17.8354 0.771729H18.8354C19.3877 0.771728 19.8354 1.21944 19.8354 1.77173V16.2284H23.7413Z" fill="#A6A6A6"/>
</svg>
