<svg width="32" height="32" viewBox="0 0 32 32" fill="none" xmlns="http://www.w3.org/2000/svg">
<path fill-rule="evenodd" clip-rule="evenodd" d="M11.6277 27.4537C11.9483 26.9739 12.1835 26.446 12.3262 25.8932H20.2448C20.4325 26.8128 20.8864 27.6571 21.5503 28.3211C22.2198 28.9906 23.0729 29.4465 24.0015 29.6313C24.9302 29.816 25.8928 29.7212 26.7676 29.3588C27.6424 28.9965 28.3901 28.3829 28.9161 27.5956C29.4422 26.8083 29.723 25.8827 29.723 24.9358C29.7225 23.6662 29.218 22.4488 28.3203 21.5511C27.4226 20.6533 26.2051 20.1488 24.9355 20.1484C23.9886 20.1484 23.063 20.4292 22.2758 20.9552C21.4885 21.4813 20.8748 22.229 20.5125 23.1038C20.3957 23.3858 20.3067 23.6769 20.2459 23.9731H15.3358C15.4719 23.8288 15.6014 23.6774 15.7237 23.5194C16.5554 22.445 17.0068 21.1247 17.0068 19.7659V19.7403L16.994 15.3617V15.3361C16.9932 13.9497 17.4241 12.5975 18.227 11.4673C18.8724 10.5588 19.7324 9.82995 20.7251 9.34235C20.9441 9.74698 21.2214 10.1201 21.5503 10.449C22.2198 11.1185 23.0729 11.5745 24.0015 11.7592C24.9302 11.9439 25.8928 11.8491 26.7676 11.4868C27.6424 11.1244 28.3901 10.5108 28.9161 9.72351C29.4422 8.93622 29.723 8.01062 29.723 7.06375C29.7225 5.79418 29.218 4.57672 28.3203 3.67899C27.4226 2.78126 26.2051 2.27674 24.9355 2.27631C23.9886 2.27631 23.063 2.55709 22.2758 3.08314C21.4885 3.60919 20.8748 4.35689 20.5125 5.23168C20.214 5.95234 20.0971 6.73258 20.1684 7.50436C18.7767 8.12685 17.5715 9.11116 16.6822 10.3605C15.6479 11.8135 15.0922 13.5526 15.0924 15.3361V15.3745L15.1052 19.7531V19.7659C15.1051 20.7012 14.7943 21.61 14.2215 22.3494C13.7489 22.9595 13.1201 23.4258 12.406 23.7016C12.3413 23.3461 12.2389 22.9976 12.1 22.6621C11.8435 22.0425 11.4673 21.4794 10.9931 21.0052C10.5189 20.531 9.95583 20.1548 9.33616 19.8982C8.7165 19.6417 8.05236 19.5097 7.38168 19.51C6.37168 19.51 5.38436 19.8095 4.54458 20.3706C3.70479 20.9317 3.05026 21.7293 2.66375 22.6624C2.27724 23.5955 2.17611 24.6223 2.37315 25.6129C2.57019 26.6035 3.05655 27.5134 3.77073 28.2276C4.48491 28.9417 5.39483 29.4281 6.38542 29.6251C7.37602 29.8222 8.4028 29.7211 9.33591 29.3345C10.269 28.948 11.0666 28.2935 11.6277 27.4537ZM22.0634 24.9429L22.0635 24.9331L22.0634 24.9255C22.0682 24.1681 22.3712 23.443 22.9069 22.9072C23.4451 22.3691 24.1744 22.0658 24.9355 22.0637C25.5036 22.0637 26.0589 22.2321 26.5312 22.5477C27.0035 22.8633 27.3716 23.3119 27.589 23.8367C27.8064 24.3615 27.8633 24.939 27.7525 25.4962C27.6416 26.0533 27.3681 26.5651 26.9664 26.9667C26.5648 27.3684 26.053 27.642 25.4958 27.7528C24.9387 27.8636 24.3612 27.8067 23.8364 27.5893C23.3116 27.372 22.863 27.0038 22.5474 26.5315C22.2331 26.0612 22.0648 25.5085 22.0634 24.9429ZM4.19032 24.6166C4.19032 25.2478 4.37749 25.8648 4.72816 26.3896C5.07883 26.9144 5.57726 27.3235 6.1604 27.565C6.74355 27.8066 7.38522 27.8698 8.00429 27.7466C8.62335 27.6235 9.19199 27.3196 9.63831 26.8732C10.0846 26.4269 10.3886 25.8583 10.5117 25.2392C10.6349 24.6201 10.5717 23.9785 10.3301 23.3953C10.0886 22.8122 9.67952 22.3138 9.15471 21.9631C8.62989 21.6124 8.01287 21.4253 7.38168 21.4253C6.53541 21.4257 5.72392 21.762 5.12552 22.3604C4.52711 22.9588 4.19075 23.7703 4.19032 24.6166ZM22.0634 7.06375C22.0634 7.63181 22.2318 8.18711 22.5474 8.65943C22.863 9.13175 23.3116 9.49988 23.8364 9.71727C24.3612 9.93465 24.9387 9.99153 25.4958 9.88071C26.053 9.76989 26.5648 9.49634 26.9664 9.09467C27.3681 8.69299 27.6416 8.18122 27.7525 7.62408C27.8633 7.06694 27.8064 6.48945 27.589 5.96463C27.3716 5.43982 27.0035 4.99125 26.5312 4.67565C26.0589 4.36006 25.5036 4.19161 24.9355 4.19161C24.1744 4.19372 23.4451 4.497 22.9069 5.03517C22.3688 5.57335 22.0655 6.30266 22.0634 7.06375Z" fill="white"/>
</svg>
