<svg width="24" height="24" viewBox="0 0 24 24" fill="none" xmlns="http://www.w3.org/2000/svg">
<g clip-path="url(#clip0_4425_41319)">
<path d="M9.32158 22.125C4.47196 22.125 2.40015 20.0526 2.40015 15.2033V9.84578C2.40015 4.99653 4.47196 2.92407 9.32158 2.92407H14.6797C19.5293 2.92407 21.6011 4.99653 21.6011 9.84578V15.2033C21.6011 20.0526 19.5293 22.125 14.6797 22.125H9.32158ZM3.73951 9.84642V15.204C3.73951 19.3201 5.20444 20.7856 9.32158 20.7856H14.6797C18.7962 20.7856 20.2624 19.3208 20.2624 15.204V9.84642C20.2624 5.73024 18.7975 4.26477 14.6797 4.26477H9.32158C5.20444 4.26477 3.73951 5.72959 3.73951 9.84642ZM14.7256 18.8014C14.6011 18.6756 14.5308 18.506 14.5297 18.329V14.8473C14.5306 14.6702 14.6009 14.5005 14.7256 14.3748C14.8515 14.25 15.0212 14.1797 15.1984 14.1789C15.3755 14.1801 15.5448 14.2503 15.6706 14.3748C15.7957 14.5003 15.8667 14.6701 15.8672 14.8473V18.329C15.8664 18.5061 15.7955 18.6758 15.6706 18.8014C15.5448 18.9259 15.3755 18.9963 15.1984 18.9975C15.0212 18.9967 14.8515 18.9263 14.7256 18.8014ZM8.33189 18.8014C8.2074 18.6756 8.13718 18.506 8.136 18.329V17.1811C7.78223 17.0993 7.4457 16.9545 7.14312 16.7538C6.65201 16.4243 6.2693 15.9573 6.0424 15.4112C5.81613 14.8639 5.75612 14.2619 5.87075 13.6809C5.98667 13.1007 6.27236 12.5679 6.69071 12.1495C7.10935 11.7313 7.64238 11.4467 8.22278 11.3315C8.80331 11.2169 9.40442 11.2762 9.95138 11.502C10.4979 11.7286 10.9656 12.1119 11.2946 12.6036C11.6231 13.0954 11.7981 13.6736 11.798 14.2651C11.7984 14.6581 11.7213 15.0473 11.5709 15.4104C11.4204 15.7734 11.1995 16.1031 10.9213 16.3807C10.5244 16.7778 10.0238 17.0553 9.47664 17.1811V18.329C9.47672 18.4171 9.45911 18.5045 9.42495 18.5858C9.39221 18.6672 9.34325 18.7411 9.28074 18.8027C9.21841 18.865 9.14449 18.9144 9.06315 18.9483C8.98166 18.9826 8.89374 19 8.80536 18.9994C8.62751 18.9985 8.45747 18.9274 8.33189 18.8014ZM7.88522 12.8931C7.61351 13.0742 7.40183 13.3317 7.27648 13.6332C7.15112 13.9355 7.11846 14.2682 7.18204 14.5892C7.24681 14.9092 7.40363 15.2031 7.63381 15.4346C7.86528 15.665 8.15961 15.8218 8.47993 15.8854C8.80059 15.9494 9.13298 15.917 9.43516 15.7921C9.73678 15.6666 9.99507 15.4546 10.1766 15.1831C10.3582 14.9111 10.455 14.5914 10.4548 14.2644C10.4551 13.8266 10.2812 13.4067 9.9718 13.097C9.66154 12.7874 9.24111 12.6135 8.80281 12.6135C8.47709 12.6139 8.15925 12.7112 7.88905 12.8931H7.88522ZM13.5356 13.2713C13.0434 12.9423 12.6602 12.4749 12.4336 11.9281C12.2072 11.3815 12.1476 10.7801 12.2632 10.1999C12.3785 9.61977 12.6631 9.08683 13.0812 8.66842C13.4784 8.27139 13.9792 7.99398 14.5265 7.86799V6.72014C14.5278 6.54373 14.5987 6.37487 14.7231 6.24974C14.849 6.12493 15.0186 6.05451 15.1959 6.0537C15.3729 6.05489 15.5422 6.12526 15.6681 6.24974C15.7928 6.37463 15.8638 6.54365 15.8646 6.72014V7.86799C16.0271 7.90543 16.1859 7.95624 16.34 8.01969C16.8865 8.24664 17.3536 8.6297 17.6832 9.12112C18.0116 9.61373 18.187 10.1927 18.1867 10.7847C18.1867 11.5772 17.8724 12.3373 17.3125 12.8982C17.0346 13.1762 16.7044 13.3968 16.3413 13.5473C15.9781 13.6977 15.589 13.7751 15.1959 13.775C14.605 13.7744 14.0275 13.5989 13.5362 13.2707L13.5356 13.2713ZM14.2789 9.41C14.0081 9.59193 13.7968 9.84934 13.6708 10.1503C13.5469 10.4529 13.5147 10.7852 13.5777 11.1061C13.6413 11.4261 13.7976 11.7201 14.0275 11.9515C14.2599 12.1827 14.5553 12.3401 14.8768 12.4037C15.1972 12.4672 15.5292 12.4342 15.8308 12.309C16.1336 12.1849 16.3927 11.9727 16.5735 11.7C16.7542 11.4291 16.8507 11.1109 16.8511 10.7853C16.8513 10.5684 16.8084 10.3535 16.7254 10.153C16.6424 9.95255 16.5209 9.77041 16.3674 9.61704C16.0578 9.30713 15.6378 9.1328 15.1997 9.13229C14.8725 9.13202 14.5523 9.22844 14.2796 9.40936L14.2789 9.41ZM8.33317 10.6756C8.20903 10.5495 8.13887 10.38 8.13727 10.2031V6.72014C8.13862 6.54375 8.20886 6.37491 8.33317 6.24974C8.45859 6.12501 8.62783 6.05457 8.80472 6.0537C8.98234 6.05479 9.15289 6.12514 9.27946 6.24974C9.40395 6.37479 9.47422 6.5437 9.47536 6.72014V10.2031C9.47552 10.2915 9.4579 10.379 9.42367 10.4605C9.39098 10.542 9.34202 10.6159 9.27946 10.6775C9.21699 10.7396 9.14311 10.7892 9.06187 10.8233C8.97999 10.8559 8.89224 10.8725 8.80408 10.8722C8.71622 10.8721 8.62928 10.8546 8.54821 10.8207C8.46713 10.7869 8.39374 10.7373 8.33189 10.6749L8.33317 10.6756Z" fill="#A6A6A6"/>
</g>
<defs>
<clipPath id="clip0_4425_41319">
<rect width="24" height="24" fill="white" transform="translate(0 -0.000488281)"/>
</clipPath>
</defs>
</svg>
