<svg width="24" height="24" viewBox="0 0 24 24" fill="none" xmlns="http://www.w3.org/2000/svg">
<path d="M7.09029 18.6164C6.89984 18.6151 6.71755 18.5389 6.58282 18.4043C6.4481 18.2697 6.37178 18.0875 6.37036 17.897V15.9124C6.37162 15.7219 6.44787 15.5395 6.58261 15.4048C6.71735 15.27 6.89974 15.1938 7.09029 15.1925C7.28084 15.1938 7.46322 15.27 7.59797 15.4048C7.73271 15.5395 7.80896 15.7219 7.81022 15.9124V17.897C7.81006 18.0879 7.73414 18.2708 7.59914 18.4057C7.46415 18.5406 7.28112 18.6164 7.09029 18.6164V18.6164Z" fill="#A6A6A6"/>
<path d="M12.0004 18.6169C11.81 18.6156 11.6277 18.5395 11.493 18.4049C11.3583 18.2703 11.2819 18.088 11.2805 17.8976V13.9182C11.2818 13.7276 11.358 13.5452 11.4928 13.4105C11.6275 13.2758 11.8099 13.1995 12.0004 13.1982C12.191 13.1995 12.3734 13.2758 12.5081 13.4105C12.6429 13.5452 12.7191 13.7276 12.7204 13.9182V17.8976C12.7202 18.0884 12.6443 18.2714 12.5093 18.4063C12.3743 18.5411 12.1913 18.6169 12.0004 18.6169V18.6169Z" fill="#A6A6A6"/>
<path d="M16.9113 18.6171C16.7208 18.6159 16.5384 18.5396 16.4037 18.4049C16.2689 18.2701 16.1927 18.0877 16.1914 17.8972V11.9332C16.1927 11.7426 16.2689 11.5602 16.4037 11.4255C16.5384 11.2908 16.7208 11.2145 16.9113 11.2133C17.1019 11.2145 17.2843 11.2908 17.419 11.4255C17.5538 11.5602 17.63 11.7426 17.6313 11.9332V17.8984C17.6321 17.9931 17.6141 18.0871 17.5782 18.1748C17.5424 18.2624 17.4893 18.3421 17.4223 18.409C17.3553 18.4759 17.2755 18.5288 17.1878 18.5646C17.1 18.6003 17.0061 18.6182 16.9113 18.6171V18.6171Z" fill="#A6A6A6"/>
<path d="M7.0875 13.1303C6.92676 13.1296 6.7708 13.0755 6.64409 12.9766C6.51738 12.8777 6.42709 12.7395 6.38737 12.5838C6.36454 12.4917 6.36013 12.396 6.3744 12.3023C6.38866 12.2085 6.42132 12.1184 6.47049 12.0373C6.51966 11.9562 6.58438 11.8856 6.66093 11.8296C6.73747 11.7736 6.82433 11.7332 6.91652 11.7109C10.4237 10.8382 13.5716 8.89401 15.9222 6.14882L16.3632 5.63107C16.4878 5.48612 16.665 5.39663 16.8556 5.38228C17.0463 5.36794 17.2348 5.42992 17.3798 5.55458C17.5247 5.67925 17.6142 5.85639 17.6286 6.04704C17.6429 6.23769 17.5809 6.42623 17.4563 6.57118L17.0153 7.08893C14.4742 10.0671 11.063 12.1733 7.26208 13.1111C7.20536 13.1272 7.14636 13.1337 7.0875 13.1303V13.1303Z" fill="#A6A6A6"/>
<path d="M16.9103 9.62174C16.7198 9.62049 16.5374 9.54423 16.4026 9.40949C16.2679 9.27475 16.1916 9.09236 16.1904 8.90182V6.82242H14.1008C13.9102 6.82117 13.7279 6.74491 13.5931 6.61017C13.4584 6.47543 13.3821 6.29304 13.3809 6.1025C13.3821 5.91195 13.4584 5.72956 13.5931 5.59482C13.7279 5.46008 13.9102 5.38383 14.1008 5.38257H16.9103C17.1009 5.38383 17.2832 5.46008 17.418 5.59482C17.5527 5.72956 17.629 5.91195 17.6302 6.1025V8.91202C17.6302 9.00606 17.6114 9.09915 17.5751 9.1859C17.5388 9.27264 17.4856 9.35131 17.4186 9.41733C17.3516 9.48335 17.2722 9.53542 17.1849 9.57051C17.0977 9.6056 17.0043 9.62302 16.9103 9.62174V9.62174Z" fill="#A6A6A6"/>
<path d="M14.8769 22.3085H9.12284C3.91536 22.3085 1.69019 20.084 1.69019 14.8759V9.12187C1.69019 3.91439 3.91536 1.68921 9.12284 1.68921H14.8769C20.0843 1.68921 22.3095 3.91439 22.3095 9.12187V14.8759C22.3095 20.084 20.0849 22.3085 14.8769 22.3085ZM9.12284 3.12907C4.70188 3.12907 3.13004 4.70091 3.13004 9.12187V14.8759C3.13004 19.2968 4.70308 20.8699 9.12404 20.8699H14.8769C19.2978 20.8699 20.8709 19.2968 20.8709 14.8759V9.12187C20.8715 4.70091 19.2984 3.12907 14.8769 3.12907H9.12284Z" fill="#A6A6A6"/>
</svg>
