<svg width="24" height="24" viewBox="0 0 24 24" fill="none" xmlns="http://www.w3.org/2000/svg">
<g clip-path="url(#clip0_4425_41303)">
<path d="M5.93961 15.1506C6.13878 15.3497 6.46169 15.3497 6.66086 15.1506L9.00024 12.8112L11.3396 15.1506C11.5388 15.3497 11.8617 15.3497 12.0609 15.1506L16.2902 10.9212V12.69C16.2902 12.9716 16.5186 13.2 16.8002 13.2C17.0819 13.2 17.3102 12.9716 17.3102 12.69V9.68996C17.3102 9.40829 17.0819 9.17996 16.8002 9.17996H14.1002C13.8186 9.17996 13.5902 9.40829 13.5902 9.68996C13.5902 9.97162 13.8186 10.2 14.1002 10.2H15.569L11.7002 14.0687L9.36086 11.7293C9.16169 11.5302 8.83878 11.5302 8.63961 11.7293L5.93961 14.4293C5.74044 14.6285 5.74044 14.9514 5.93961 15.1506Z" fill="#A6A6A6"/>
<path fill-rule="evenodd" clip-rule="evenodd" d="M9.06975 22.6659H14.9296C20.2334 22.6659 22.5 20.4008 22.5 15.0956V9.23621C22.5 3.93524 20.234 1.66589 14.9303 1.66589H9.06975C3.76599 1.66589 1.5 3.93767 1.5 9.23621V15.0956C1.5 20.4002 3.76599 22.6659 9.06975 22.6659ZM2.96437 9.23621C2.96437 4.73245 4.5664 3.13493 9.06914 3.13493H14.9296C19.4324 3.13493 21.0344 4.72941 21.0344 9.23621V15.0956C21.0344 19.5993 19.4324 21.1969 14.9296 21.1969H9.06914C4.5664 21.1969 2.96437 19.6024 2.96437 15.0956V9.23621Z" fill="#A6A6A6"/>
</g>
<defs>
<clipPath id="clip0_4425_41303">
<rect width="24" height="24" fill="white" transform="translate(0 -0.000488281)"/>
</clipPath>
</defs>
</svg>
