<svg width="12" height="12" viewBox="0 0 12 12" fill="none" xmlns="http://www.w3.org/2000/svg">
<g id="Frame" clip-path="url(#clip0_9227_952)">
<g id="Group">
<path id="Vector" d="M6.04321 0.234391C5.85571 0.0703287 5.63501 -0.00779533 5.3811 1.71661e-05C5.1272 0.00782967 4.91431 0.0976725 4.74243 0.269547L0.265869 4.65236C0.0861816 4.82424 0.000244141 5.02736 0.00805664 5.26173C0.0158691 5.49611 0.109619 5.69533 0.289307 5.85939C0.476807 6.02345 0.69751 6.10353 0.951416 6.09963C1.20532 6.09572 1.41821 6.00783 1.59009 5.83595L4.54321 2.94142L4.74243 11.168C4.75024 11.4024 4.84399 11.6016 5.02368 11.7656C5.20337 11.9297 5.42212 12.0078 5.67993 12C5.92993 11.9922 6.14282 11.9024 6.3186 11.7305C6.49438 11.5586 6.57837 11.3555 6.57056 11.1211L6.37134 2.90627L9.46509 5.66017C9.55103 5.74611 9.65063 5.80861 9.76392 5.84767C9.8772 5.88673 9.99243 5.90627 10.1096 5.90627C10.2268 5.89845 10.342 5.87306 10.4553 5.83009C10.5686 5.78713 10.6682 5.72267 10.7542 5.63673C10.9338 5.46486 11.0198 5.25978 11.012 5.0215C11.0042 4.78322 10.9104 4.58595 10.7307 4.4297L6.04321 0.234391Z" fill="#4CAF50"/>
</g>
</g>
<defs>
<clipPath id="clip0_9227_952">
<rect width="11.02" height="12" fill="white" transform="matrix(1 0 0 -1 0 12)"/>
</clipPath>
</defs>
</svg>
