<svg width="24" height="24" viewBox="0 0 24 24" fill="none" xmlns="http://www.w3.org/2000/svg">
<path d="M7.19714 10.7967H5.27709C2.95323 10.7967 1.677 9.51931 1.677 7.19665V5.2766C1.677 2.95395 2.95443 1.67651 5.27709 1.67651H7.19714C9.521 1.67651 10.7972 2.95395 10.7972 5.2766V7.19665C10.7972 9.52171 9.5222 10.7967 7.19714 10.7967ZM5.27709 3.11655C3.76085 3.11655 3.11704 3.76037 3.11704 5.2766V7.19665C3.11704 8.71409 3.76025 9.35671 5.27709 9.35671H7.19714C8.71458 9.35671 9.35719 8.71349 9.35719 7.19665V5.2766C9.35719 3.75917 8.71398 3.11655 7.19714 3.11655H5.27709Z" fill="#A6A6A6"/>
<path d="M18.7204 10.7967H16.8004C14.4765 10.7967 13.2003 9.51931 13.2003 7.19665V5.2766C13.2003 2.95395 14.4777 1.67651 16.8004 1.67651H18.7204C21.0443 1.67651 22.3205 2.95395 22.3205 5.2766V7.19665C22.3205 9.52171 21.0455 10.7967 18.7204 10.7967ZM16.8004 3.11655C15.2841 3.11655 14.6403 3.76037 14.6403 5.2766V7.19665C14.6403 8.71409 15.2835 9.35671 16.8004 9.35671H18.7204C20.2379 9.35671 20.8805 8.71349 20.8805 7.19665V5.2766C20.8805 3.75917 20.2373 3.11655 18.7204 3.11655H16.8004Z" fill="#A6A6A6"/>
<path d="M18.7204 22.32H16.8004C14.4765 22.32 13.2003 21.0426 13.2003 18.7199V16.7999C13.2003 14.4772 14.4777 13.1998 16.8004 13.1998H18.7204C21.0443 13.1998 22.3205 14.4772 22.3205 16.7999V18.7199C22.3205 21.045 21.0455 22.32 18.7204 22.32ZM16.8004 14.6398C15.2841 14.6398 14.6403 15.2837 14.6403 16.7999V18.7199C14.6403 20.2374 15.2835 20.88 16.8004 20.88H18.7204C20.2379 20.88 20.8805 20.2368 20.8805 18.7199V16.7999C20.8805 15.2825 20.2373 14.6398 18.7204 14.6398H16.8004Z" fill="#A6A6A6"/>
<path d="M7.19714 22.32H5.27709C2.95323 22.32 1.677 21.0426 1.677 18.7199V16.7999C1.677 14.4772 2.95443 13.1998 5.27709 13.1998H7.19714C9.521 13.1998 10.7972 14.4772 10.7972 16.7999V18.7199C10.7972 21.045 9.5222 22.32 7.19714 22.32ZM5.27709 14.6398C3.76085 14.6398 3.11704 15.2837 3.11704 16.7999V18.7199C3.11704 20.2374 3.76025 20.88 5.27709 20.88H7.19714C8.71458 20.88 9.35719 20.2368 9.35719 18.7199V16.7999C9.35719 15.2825 8.71398 14.6398 7.19714 14.6398H5.27709Z" fill="#A6A6A6"/>
</svg>
