<svg width="24" height="24" viewBox="0 0 24 24" fill="none" xmlns="http://www.w3.org/2000/svg">
<g clip-path="url(#clip0_4425_41287)">
<path fill-rule="evenodd" clip-rule="evenodd" d="M4.94531 7.65093C4.94531 6.81326 5.12832 6.01277 5.46093 5.27901C5.48224 5.2308 5.50419 5.18285 5.52678 5.13515C5.89954 4.34822 6.43791 3.65111 7.10505 3.09152C7.27975 2.94257 7.46038 2.80204 7.64631 2.67017C7.81878 2.54721 7.99776 2.43109 8.18271 2.32226C9.3891 1.60919 10.7752 1.23447 12.1932 1.25153L12.1948 1.25153C14.0559 1.23155 15.8622 1.88092 17.2846 3.08131C17.5427 3.29907 17.7816 3.53736 17.999 3.79342C18.3079 4.15717 18.5736 4.55678 18.7899 4.98434C18.8145 5.03291 18.8384 5.08185 18.8617 5.13112C19.2111 5.87029 19.4075 6.6718 19.44 7.48762C19.4422 7.542 19.4436 7.59645 19.4443 7.65095L19.4443 12.6501C19.4443 12.65 19.4443 12.6502 19.4443 12.6501C19.4443 12.6502 19.4443 12.6506 19.4443 12.6507V16.3505C19.4437 19.8798 16.1939 22.7499 12.1948 22.7499C8.19511 22.7499 4.94531 19.8798 4.94531 16.3505V12.6507C4.94531 12.6505 4.94531 12.6503 4.94531 12.6501V7.65093ZM6.52226 16.5368C6.49638 16.5115 6.47067 16.486 6.44512 16.4602C6.51532 19.1101 9.065 21.25 12.1948 21.25C15.3246 21.25 17.8743 19.1101 17.9445 16.4602C17.9159 16.4891 17.8871 16.5177 17.8581 16.546C17.2356 17.1946 16.4525 17.725 15.5505 18.1028C15.4703 18.1379 15.3896 18.1717 15.3082 18.2041C14.3189 18.5981 13.2591 18.784 12.1948 18.7502C11.1306 18.783 10.0711 18.5967 9.08198 18.2027C9.03103 18.1825 8.98033 18.1616 8.92987 18.1403C7.985 17.7587 7.16701 17.2113 6.52226 16.5368ZM12.1948 13.7504C9.89136 13.7504 7.78269 12.8864 6.44512 11.438V12.6501C6.44512 15.27 8.91502 17.2497 12.1948 17.2497C15.4746 17.2497 17.9445 15.27 17.9445 12.6501V11.4382C16.6064 12.8865 14.4982 13.7504 12.1948 13.7504ZM6.44573 7.65095C6.4546 7.02538 6.59324 6.40879 6.8525 5.8401C7.12364 5.26171 7.52061 4.73716 8.01441 4.29124C8.03783 4.27105 8.06147 4.2511 8.08533 4.23138C8.51342 3.8659 8.98587 3.5635 9.48835 3.32935C10.2951 2.96081 11.2162 2.75153 12.1935 2.75135L12.1948 2.75137C12.2533 2.75055 12.3118 2.75056 12.3701 2.75139C12.3971 2.75177 12.424 2.75233 12.4509 2.75306C13.8575 2.79133 15.2129 3.3039 16.2947 4.21156C16.8013 4.63211 17.211 5.15718 17.4957 5.75082C17.7805 6.34445 17.9336 6.99263 17.9445 7.65093V7.76592C17.9306 8.46025 17.7308 9.13894 17.365 9.73089C16.4153 11.2805 14.4355 12.2506 12.1954 12.2506C9.95529 12.2506 7.97554 11.2907 7.02586 9.73089C6.64436 9.10435 6.44358 8.3845 6.44573 7.65095Z" fill="#A6A6A6"/>
</g>
<defs>
<clipPath id="clip0_4425_41287">
<rect width="24" height="24" fill="white" transform="translate(0 -0.000488281)"/>
</clipPath>
</defs>
</svg>
