<svg width="32" height="32" viewBox="0 0 32 32" fill="none" xmlns="http://www.w3.org/2000/svg">
<path d="M12.4287 28.8015C5.96258 28.8015 3.20016 26.0382 3.20016 19.5725V12.4291C3.20016 5.96348 5.96258 3.2002 12.4287 3.2002H19.5729C26.039 3.2002 28.8014 5.96348 28.8014 12.4291V19.5725C28.8014 26.0382 26.039 28.8015 19.5729 28.8015H12.4287ZM4.98598 12.43V19.5734C4.98598 25.0616 6.93921 27.0156 12.4287 27.0156H19.5729C25.0615 27.0156 27.0165 25.0625 27.0165 19.5734V12.43C27.0165 6.94176 25.0633 4.9878 19.5729 4.9878H12.4287C6.93921 4.9878 4.98598 6.94088 4.98598 12.43ZM19.6341 24.37C19.4681 24.2023 19.3744 23.9761 19.3729 23.74V19.0978C19.3741 18.8617 19.4678 18.6354 19.6341 18.4679C19.802 18.3014 20.0282 18.2078 20.2646 18.2067C20.5006 18.2083 20.7263 18.3019 20.8941 18.4679C21.0609 18.6351 21.1555 18.8616 21.1562 19.0978V23.74C21.1552 23.9762 21.0606 24.2025 20.8941 24.37C20.7263 24.536 20.5006 24.6298 20.2646 24.6314C20.0282 24.6303 19.802 24.5364 19.6341 24.37ZM11.1091 24.37C10.9432 24.2022 10.8495 23.9761 10.848 23.74V22.2096C10.3763 22.1004 9.92756 21.9074 9.52412 21.6398C8.8693 21.2005 8.35903 20.5778 8.0565 19.8497C7.7548 19.12 7.67478 18.3173 7.82763 17.5427C7.98219 16.7691 8.3631 16.0586 8.9209 15.5007C9.47909 14.9432 10.1898 14.5637 10.9637 14.4101C11.7377 14.2573 12.5392 14.3364 13.2685 14.6374C13.9972 14.9395 14.6207 15.4506 15.0594 16.1062C15.4974 16.762 15.7307 17.5329 15.7307 18.3215C15.7311 18.8455 15.6284 19.3645 15.4278 19.8486C15.2271 20.3327 14.9327 20.7723 14.5617 21.1423C14.0326 21.6719 13.365 22.0418 12.6355 22.2096V23.74C12.6356 23.8576 12.6121 23.9741 12.5666 24.0825C12.5229 24.1911 12.4576 24.2895 12.3743 24.3717C12.2912 24.4548 12.1926 24.5207 12.0842 24.5659C11.9755 24.6115 11.8583 24.6347 11.7404 24.634C11.5033 24.6328 11.2766 24.5379 11.1091 24.37ZM10.5136 16.4922C10.1513 16.7338 9.86907 17.0771 9.70193 17.4791C9.5348 17.8821 9.49124 18.3257 9.57602 18.7537C9.66237 19.1803 9.87147 19.5722 10.1784 19.8809C10.487 20.1881 10.8794 20.3971 11.3065 20.482C11.7341 20.5673 12.1773 20.5241 12.5802 20.3575C12.9823 20.1902 13.3267 19.9076 13.5688 19.5455C13.8109 19.1829 13.9399 18.7567 13.9397 18.3207C13.94 17.7369 13.7082 17.1771 13.2957 16.764C12.882 16.3513 12.3214 16.1195 11.737 16.1194C11.3028 16.12 10.879 16.2497 10.5187 16.4922H10.5136ZM18.0474 16.9965C17.3912 16.5578 16.8802 15.9346 16.5781 15.2055C16.2762 14.4768 16.1967 13.6749 16.3509 12.9013C16.5046 12.1278 16.8842 11.4172 17.4416 10.8593C17.9712 10.33 18.6389 9.96007 19.3687 9.79209V8.26162C19.3704 8.02641 19.4649 7.80126 19.6307 7.63442C19.7986 7.468 20.0248 7.37411 20.2612 7.37303C20.4972 7.37462 20.7229 7.46845 20.8907 7.63442C21.057 7.80094 21.1516 8.0263 21.1528 8.26162V9.79209C21.3694 9.842 21.5811 9.90975 21.7866 9.99435C22.5153 10.297 23.1381 10.8077 23.5776 11.4629C24.0154 12.1197 24.2493 12.8916 24.2488 13.681C24.2489 14.7377 23.8298 15.7511 23.0832 16.499C22.7128 16.8697 22.2725 17.1639 21.7883 17.3645C21.3041 17.5651 20.7853 17.6682 20.2612 17.6682C19.4733 17.6672 18.7033 17.4333 18.0482 16.9957L18.0474 16.9965ZM19.0386 11.8481C18.6774 12.0907 18.3957 12.4339 18.2278 12.8352C18.0625 13.2387 18.0196 13.6817 18.1035 14.1096C18.1884 14.5362 18.3967 14.9282 18.7033 15.2368C19.0131 15.5451 19.407 15.7549 19.8358 15.8397C20.2629 15.9243 20.7055 15.8804 21.1077 15.7134C21.5115 15.548 21.8569 15.265 22.098 14.9014C22.3389 14.5402 22.4675 14.116 22.4681 13.6818C22.4684 13.3926 22.4111 13.106 22.3005 12.8388C22.1899 12.5715 22.0278 12.3286 21.8232 12.1242C21.4104 11.7109 20.8504 11.4785 20.2663 11.4778C19.8299 11.4775 19.403 11.606 19.0394 11.8472L19.0386 11.8481ZM11.1109 13.5355C10.9453 13.3674 10.8518 13.1414 10.8497 12.9056V8.26162C10.8515 8.02643 10.9451 7.80131 11.1109 7.63442C11.2781 7.46811 11.5037 7.37419 11.7396 7.37303C11.9764 7.37449 12.2038 7.46829 12.3726 7.63442C12.5386 7.80115 12.6323 8.02637 12.6338 8.26162V12.9056C12.634 13.0234 12.6105 13.1402 12.5649 13.2488C12.5213 13.3575 12.456 13.4559 12.3726 13.5381C12.2893 13.6209 12.1908 13.687 12.0825 13.7325C11.9733 13.776 11.8563 13.7982 11.7387 13.7978C11.6216 13.7976 11.5057 13.7742 11.3976 13.7291C11.2895 13.6839 11.1916 13.6179 11.1091 13.5347L11.1109 13.5355Z" fill="white"/>
</svg>
