<svg width="18" height="18" viewBox="0 0 18 18" fill="none" xmlns="http://www.w3.org/2000/svg">
<g id="Frame">
<g id="Group">
<path id="Vector" d="M0.703125 2.61914C0.503906 2.61914 0.336914 2.69238 0.202148 2.83887C0.0673828 2.98535 0 3.16406 0 3.375C0 3.58594 0.0673828 3.76465 0.202148 3.91113C0.336914 4.05762 0.503906 4.13086 0.703125 4.13086H13.5352C13.7344 4.13086 13.9014 4.05762 14.0361 3.91113C14.1709 3.76465 14.2383 3.58594 14.2383 3.375C14.2383 3.16406 14.1709 2.98535 14.0361 2.83887C13.9014 2.69238 13.7344 2.61914 13.5352 2.61914H0.703125ZM0.703125 13.8691C0.503906 13.8691 0.336914 13.9424 0.202148 14.0889C0.0673828 14.2354 0 14.4141 0 14.625C0 14.8359 0.0673828 15.0146 0.202148 15.1611C0.336914 15.3076 0.503906 15.3809 0.703125 15.3809H13.5352C13.7344 15.3809 13.9014 15.3076 14.0361 15.1611C14.1709 15.0146 14.2383 14.8359 14.2383 14.625C14.2383 14.4141 14.1709 14.2354 14.0361 14.0889C13.9014 13.9424 13.7344 13.8691 13.5352 13.8691H0.703125ZM14.1328 8.26172L12.4277 10.3008C12.416 10.3242 12.3984 10.3447 12.375 10.3623C12.3516 10.3799 12.334 10.3945 12.3223 10.4062C12.1934 10.4883 12.0557 10.5176 11.9092 10.4941C11.7627 10.4707 11.6426 10.4062 11.5488 10.3008L9.84375 8.26172C9.80859 8.21484 9.78223 8.16797 9.76465 8.12109C9.74707 8.07422 9.73828 8.02734 9.73828 7.98047C9.73828 7.85156 9.79102 7.74023 9.89648 7.64648C10.002 7.55273 10.1309 7.50586 10.2832 7.50586H13.7109C13.7578 7.50586 13.8105 7.51172 13.8691 7.52344C13.9277 7.53516 13.9805 7.55859 14.0273 7.59375C14.1445 7.67578 14.2148 7.78125 14.2383 7.91016C14.2617 8.03906 14.2266 8.15625 14.1328 8.26172ZM0.738281 8.24414C0.539062 8.24414 0.366211 8.31738 0.219727 8.46387C0.0732422 8.61035 0 8.78906 0 9C0 9.21094 0.0732422 9.38965 0.219727 9.53613C0.366211 9.68262 0.539062 9.75586 0.738281 9.75586H7.48828C7.69922 9.75586 7.87793 9.68262 8.02441 9.53613C8.1709 9.38965 8.24414 9.21094 8.24414 9C8.24414 8.78906 8.1709 8.61035 8.02441 8.46387C7.87793 8.31738 7.69922 8.24414 7.48828 8.24414H0.738281Z" fill="white"/>
</g>
</g>
</svg>
