<svg width="16" height="17" viewBox="0 0 16 17" fill="none" xmlns="http://www.w3.org/2000/svg">
<path d="M9.58155 6.21698C9.74007 6.06311 9.99331 6.06689 10.1472 6.22541L10.3963 6.48209C10.5502 6.64061 10.5464 6.89385 10.3879 7.04771L5.94726 11.3578C5.78874 11.5117 5.5355 11.5079 5.38164 11.3494L5.1325 11.0927C4.97864 10.9342 4.98242 10.681 5.14094 10.5271L9.58155 6.21698Z" fill="#4CAF50"/>
<path d="M6.10086 6.43621C6.31728 6.22616 6.663 6.23131 6.87306 6.44773C7.08312 6.66415 7.07796 7.00987 6.86155 7.21993L6.80534 7.27449C6.58892 7.48454 6.24319 7.47939 6.03314 7.26297C5.82308 7.04655 5.82824 6.70083 6.04465 6.49077L6.10086 6.43621Z" fill="#4CAF50"/>
<path d="M9.10905 9.50963C9.41057 9.21654 9.89226 9.22374 10.1849 9.52569C10.4776 9.82765 10.4704 10.31 10.1689 10.6031L10.0906 10.6792C9.78904 10.9723 9.30735 10.9651 9.01469 10.6632C8.72202 10.3612 8.72921 9.87884 9.03073 9.58575L9.10905 9.50963Z" fill="#4CAF50"/>
<path fill-rule="evenodd" clip-rule="evenodd" d="M6.75484 2.43801C7.3699 1.59358 8.62939 1.59358 9.24445 2.43801L9.74386 3.12366C9.93382 3.38447 10.2538 3.517 10.5725 3.46691L11.4105 3.33521C12.4425 3.17302 13.3331 4.06362 13.1709 5.09563L13.0392 5.9336C12.9891 6.25234 13.1217 6.5723 13.3825 6.76227L14.0681 7.26168C14.9125 7.87673 14.9125 9.13622 14.0681 9.75128L13.3825 10.2507C13.1217 10.4407 12.9891 10.7606 13.0392 11.0794L13.1709 11.9173C13.3331 12.9493 12.4425 13.8399 11.4105 13.6777L10.5725 13.5461C10.2538 13.496 9.93382 13.6285 9.74386 13.8893L9.24445 14.575C8.62939 15.4194 7.3699 15.4194 6.75484 14.575L6.25543 13.8893C6.06547 13.6285 5.7455 13.496 5.42676 13.5461L4.5888 13.6777C3.55678 13.8399 2.66619 12.9493 2.82838 11.9173L2.96007 11.0794C3.01016 10.7606 2.87763 10.4407 2.61683 10.2507L1.93117 9.75128C1.08674 9.13623 1.08674 7.87673 1.93117 7.26168L2.61683 6.76227C2.87763 6.5723 3.01016 6.25234 2.96007 5.9336L2.82838 5.09563C2.66619 4.06362 3.55678 3.17302 4.58879 3.33521L5.42676 3.46691C5.7455 3.517 6.06547 3.38447 6.25543 3.12366L6.75484 2.43801ZM10.0398 6.94667C10.1726 6.81389 10.1726 6.59861 10.0398 6.46583C9.90705 6.33306 9.69178 6.33306 9.559 6.46583L5.359 10.6658C5.22622 10.7986 5.22622 11.0139 5.359 11.1467C5.49178 11.2794 5.70705 11.2794 5.83983 11.1467L10.0398 6.94667ZM6.39941 7.30625C6.62033 7.30625 6.79941 7.12716 6.79941 6.90625C6.79941 6.68534 6.62033 6.50625 6.39941 6.50625C6.1785 6.50625 5.99941 6.68534 5.99941 6.90625C5.99941 7.12716 6.1785 7.30625 6.39941 7.30625ZM9.99941 10.1062C9.99941 10.3272 9.82033 10.5063 9.59941 10.5063C9.3785 10.5063 9.19941 10.3272 9.19941 10.1062C9.19941 9.88534 9.3785 9.70625 9.59941 9.70625C9.82033 9.70625 9.99941 9.88534 9.99941 10.1062Z" fill="#FFC107"/>
</svg>
