<svg width="24" height="24" viewBox="0 0 24 24" fill="none" xmlns="http://www.w3.org/2000/svg">
<g clip-path="url(#clip0_4425_41329)">
<path d="M11.9992 9.45911H5.99991C5.80146 9.4577 5.61153 9.37824 5.4712 9.23791C5.33087 9.09758 5.25141 8.90766 5.25 8.70921C5.25141 8.51076 5.33087 8.32084 5.4712 8.18051C5.61153 8.04018 5.80146 7.96072 5.99991 7.9593H11.9992C12.1976 7.96072 12.3875 8.04018 12.5279 8.18051C12.6682 8.32084 12.7476 8.51076 12.7491 8.70921C12.7476 8.90766 12.6682 9.09758 12.5279 9.23791C12.3875 9.37824 12.1976 9.4577 11.9992 9.45911Z" fill="#A6A6A6"/>
<path d="M6.74983 13.4588H11.2493C11.4477 13.4574 11.6376 13.3779 11.778 13.2376C11.9183 13.0973 11.9978 12.9073 11.9992 12.7089C11.9978 12.5104 11.9183 12.3205 11.778 12.1802C11.6376 12.0399 11.4477 11.9604 11.2493 11.959H6.74983C6.55138 11.9604 6.36146 12.0399 6.22113 12.1802C6.0808 12.3205 6.00134 12.5104 5.99993 12.7089C6.00134 12.9073 6.0808 13.0973 6.22113 13.2376C6.36146 13.3779 6.55138 13.4574 6.74983 13.4588Z" fill="#A6A6A6"/>
<path fill-rule="evenodd" clip-rule="evenodd" d="M8.32617 22.9049C8.53932 22.9943 8.7684 23.0395 8.99954 23.0378C9.46709 23.0387 9.91621 22.8555 10.2498 22.5279L11.9296 20.8481C11.9714 20.8066 12.0269 20.7817 12.0857 20.778C12.1446 20.7744 12.2027 20.7922 12.2493 20.8283L13.9591 22.1079C14.2188 22.3038 14.5281 22.4233 14.8521 22.453C15.176 22.4826 15.5018 22.4213 15.7928 22.2758C16.0838 22.1304 16.3284 21.9066 16.4991 21.6296C16.6698 21.3527 16.7598 21.0336 16.759 20.7083V11.4593H19.4178C19.8615 11.4854 20.3056 11.4171 20.7209 11.2589C21.1362 11.1007 21.5132 10.8561 21.827 10.5414C22.1408 10.2268 22.3842 9.84906 22.5412 9.43331C22.6982 9.01756 22.7652 8.57323 22.7378 8.12967V5.71018C22.739 4.45535 22.243 3.25115 21.3585 2.36104C20.4741 1.47094 19.273 0.967392 18.0182 0.960571H6.01011C2.99009 0.960571 1.2605 2.69015 1.2605 5.71018V20.7083C1.25969 21.0336 1.3497 21.3527 1.52039 21.6296C1.69109 21.9066 1.93569 22.1304 2.22667 22.2758C2.51765 22.4213 2.84346 22.4826 3.16742 22.453C3.49138 22.4233 3.80062 22.3038 4.06035 22.1079L5.77014 20.8283C5.81777 20.79 5.87794 20.7708 5.93894 20.7745C5.99993 20.7782 6.05738 20.8044 6.1001 20.8481L7.75949 22.5177C7.92024 22.6838 8.11302 22.8155 8.32617 22.9049ZM18.0075 2.46038L18.0182 2.46038C18.8771 2.46404 19.6995 2.80825 20.3049 3.4175C20.9103 4.02674 21.2494 4.85127 21.2476 5.71018V8.12967C21.2729 8.37619 21.2429 8.62523 21.1599 8.85871C21.0769 9.0922 20.9429 9.30425 20.7676 9.47948C20.5924 9.6547 20.3804 9.78869 20.1469 9.87171C19.9134 9.95474 19.6644 9.98471 19.4178 9.95944H16.759V3.71003C16.7591 3.37865 16.8908 3.06089 17.1252 2.82657C17.2909 2.66077 17.4985 2.54635 17.7231 2.49355C17.8156 2.47189 17.911 2.4606 18.0075 2.46038ZM6.58794 19.4109C6.37317 19.3216 6.14254 19.2766 5.90992 19.2787C5.53153 19.2798 5.16349 19.4024 4.86005 19.6284L3.14967 20.9081C3.11431 20.9384 3.07068 20.9575 3.02438 20.9629C2.97808 20.9682 2.93124 20.9596 2.8899 20.9381C2.84737 20.9168 2.8117 20.8839 2.78697 20.8433C2.76225 20.8026 2.74948 20.7559 2.75012 20.7083V5.71018C2.75012 3.49045 3.78019 2.46038 5.99991 2.46038H15.5483C15.3508 2.84732 15.248 3.27561 15.2484 3.71003V20.7077C15.2477 20.7537 15.2343 20.7987 15.2096 20.8376C15.1849 20.8764 15.15 20.9077 15.1086 20.9279C15.0684 20.9514 15.022 20.9621 14.9756 20.9586C14.9292 20.9551 14.8849 20.9374 14.8488 20.9081L13.1492 19.6386C12.8143 19.3815 12.3973 19.255 11.976 19.2825C11.5547 19.3101 11.1578 19.49 10.8593 19.7886L9.17951 21.4684C9.13039 21.5134 9.06617 21.5384 8.99954 21.5384C8.9329 21.5384 8.86868 21.5134 8.81956 21.4684L7.15957 19.7988C6.99715 19.6323 6.8027 19.5003 6.58794 19.4109Z" fill="#A6A6A6"/>
</g>
<defs>
<clipPath id="clip0_4425_41329">
<rect width="24" height="24" fill="white" transform="translate(0 -0.000488281)"/>
</clipPath>
</defs>
</svg>
