<svg width="24" height="24" viewBox="0 0 24 24" fill="none" xmlns="http://www.w3.org/2000/svg">
<g clip-path="url(#clip0_4425_41324)">
<path fill-rule="evenodd" clip-rule="evenodd" d="M8.8549 13.2318C9.3736 13.5783 9.98344 13.7633 10.6073 13.7633C11.4436 13.7627 12.2455 13.4302 12.8369 12.8388C13.4283 12.2474 13.7608 11.4455 13.7615 10.6091C13.7615 9.98529 13.5765 9.37546 13.2299 8.85675C12.8833 8.33805 12.3907 7.93377 11.8143 7.69503C11.238 7.4563 10.6038 7.39383 9.99192 7.51554C9.38007 7.63725 8.81804 7.93765 8.37692 8.37878C7.9358 8.8199 7.63539 9.38192 7.51368 9.99378C7.39198 10.6056 7.45444 11.2398 7.69318 11.8162C7.93191 12.3925 8.33619 12.8852 8.8549 13.2318ZM9.63025 9.14691C9.91945 8.95367 10.2595 8.85053 10.6073 8.85053C11.0733 8.85164 11.52 9.03728 11.8496 9.36684C12.1791 9.6964 12.3648 10.1431 12.3659 10.6091C12.3659 10.957 12.2627 11.297 12.0695 11.5862C11.8763 11.8754 11.6016 12.1008 11.2803 12.2339C10.9589 12.367 10.6053 12.4018 10.2642 12.3339C9.92306 12.2661 9.6097 12.0986 9.36376 11.8527C9.11781 11.6067 8.95032 11.2934 8.88247 10.9522C8.81461 10.6111 8.84944 10.2575 8.98254 9.93615C9.11565 9.6148 9.34105 9.34015 9.63025 9.14691Z" fill="#A6A6A6"/>
<path d="M5.28564 13.3545C5.10096 13.3532 4.9242 13.2793 4.79361 13.1487C4.66302 13.0181 4.5891 12.8414 4.58784 12.6567V8.56289C4.5891 8.37821 4.66302 8.20145 4.79361 8.07086C4.9242 7.94027 5.10096 7.86634 5.28564 7.86509C5.47032 7.86634 5.64708 7.94027 5.77767 8.07086C5.90826 8.20145 5.98218 8.37821 5.98344 8.56289V12.6567C5.9836 12.7484 5.96566 12.8392 5.93065 12.9239C5.89563 13.0086 5.84424 13.0856 5.77941 13.1505C5.71459 13.2153 5.6376 13.2667 5.55286 13.3017C5.46813 13.3367 5.37732 13.3546 5.28564 13.3545Z" fill="#A6A6A6"/>
<path d="M15.4272 13.1487C15.5578 13.2793 15.7346 13.3532 15.9192 13.3545C16.0109 13.3546 16.1017 13.3367 16.1865 13.3017C16.2712 13.2667 16.3482 13.2153 16.413 13.1505C16.4778 13.0856 16.5292 13.0086 16.5642 12.9239C16.5993 12.8392 16.6172 12.7484 16.617 12.6567V8.56289C16.6158 8.37821 16.5419 8.20145 16.4113 8.07086C16.2807 7.94027 16.1039 7.86634 15.9192 7.86509C15.7346 7.86634 15.5578 7.94027 15.4272 8.07086C15.2966 8.20145 15.2227 8.37821 15.2214 8.56289V12.6567C15.2227 12.8414 15.2966 13.0181 15.4272 13.1487Z" fill="#A6A6A6"/>
<path fill-rule="evenodd" clip-rule="evenodd" d="M14.6916 3.40845C17.0943 3.40845 18.6986 4.48355 19.2608 6.45096C21.2097 7.02838 22.2741 8.62747 22.2741 11.0009V15.7925C22.2747 18.8441 20.5347 20.5841 17.4831 20.5841H9.30452C8.58804 20.5992 7.87485 20.4829 7.20032 20.2409C6.53106 19.9955 5.93982 19.5752 5.48817 19.0237C5.13397 18.5912 4.87578 18.0904 4.72844 17.5547C4.62459 17.5241 4.52214 17.4886 4.42144 17.4484C3.18244 16.9828 1.72144 15.8386 1.72144 12.9916V8.20005C1.72144 5.15745 3.47044 3.40845 6.51304 3.40845H14.6916ZM14.7036 4.82265C16.568 4.82265 17.6417 5.5541 17.9827 7.06878C17.9848 7.09962 17.9888 7.13038 17.9949 7.16086C18.0613 7.50621 18.0924 7.85741 18.0879 8.20906V13.0025C18.0879 15.2915 16.9809 16.3985 14.6919 16.3985H6.51212C6.16209 16.4008 5.81278 16.3664 5.46992 16.2959C5.43506 16.2872 5.39968 16.2814 5.36414 16.2783C5.21048 16.2477 5.05924 16.2058 4.91164 16.153C3.71164 15.697 3.12544 14.674 3.12544 13.0084V8.21865C3.12544 5.92965 4.23244 4.82265 6.52144 4.82265H14.7036ZM6.34625 17.7929H6.42037C6.4509 17.7931 6.48143 17.7931 6.51198 17.7929H14.7009C17.7435 17.7929 19.4925 16.0439 19.4925 13.0013V8.04226C20.4321 8.55406 20.8881 9.53086 20.8881 11.0009V15.7925C20.8881 18.0815 19.7811 19.1885 17.4921 19.1885H9.31412C8.76685 19.201 8.22171 19.1159 7.70432 18.9371C7.1241 18.7395 6.63935 18.3311 6.34625 17.7929Z" fill="#A6A6A6"/>
</g>
<defs>
<clipPath id="clip0_4425_41324">
<rect width="24" height="24" fill="white" transform="translate(0 -0.000488281)"/>
</clipPath>
</defs>
</svg>
