<svg width="48" height="48" viewBox="0 0 48 48" fill="none" xmlns="http://www.w3.org/2000/svg">
<g clip-path="url(#clip0_4426_125481)">
<path d="M23.4015 13.4792C20.4864 13.4796 17.6616 14.4908 15.4084 16.3404C13.1552 18.19 11.613 20.7636 11.0446 23.6228C10.4762 26.482 10.9168 29.4497 12.2912 32.0205C13.6657 34.5912 15.889 36.6059 18.5823 37.7212C21.2757 38.8365 24.2724 38.9834 27.0619 38.1369C29.8514 37.2905 32.2612 35.5029 33.8805 33.0789C35.4998 30.6549 36.2286 27.7445 35.9426 24.8435C35.6566 21.9424 34.3735 19.2301 32.312 17.169C29.9482 14.8069 26.7433 13.4798 23.4015 13.4792ZM28.8829 30.5822C28.8015 30.726 28.6811 30.8438 28.5356 30.9221C28.3923 31.0057 28.2294 31.0501 28.0635 31.0506C27.8926 31.0518 27.7255 31.0006 27.5847 30.9038L23.6791 28.5755C23.1797 28.2521 22.7655 27.8131 22.4716 27.2958C22.1776 26.7786 22.0125 26.1982 21.9902 25.6037V20.4315C21.9902 20.1808 22.0898 19.9404 22.267 19.7632C22.4442 19.5859 22.6846 19.4864 22.9352 19.4864C23.1859 19.4864 23.4262 19.5859 23.6035 19.7632C23.7807 19.9404 23.8803 20.1808 23.8803 20.4315V25.603C23.9047 25.8692 23.9858 26.1271 24.1182 26.3593C24.2491 26.5925 24.4308 26.7933 24.6498 26.9468L28.5562 29.2832C28.6643 29.3441 28.759 29.4264 28.8345 29.5249C28.9095 29.624 28.9639 29.737 28.9945 29.8574C29.0244 29.9775 29.0304 30.1022 29.0122 30.2246C28.9942 30.3483 28.9504 30.467 28.8837 30.5727L28.8829 30.5822Z" fill="#4CAF50"/>
<path d="M30.2942 9.63284C28.3025 8.87566 26.1723 8.47503 24.0006 8.47122V8.47386C19.8866 8.46925 15.8983 9.89139 12.7156 12.4982C9.5329 15.105 7.35276 18.735 6.54679 22.7693C5.74082 26.8036 6.35889 30.9924 8.29571 34.622C10.2325 38.2515 13.3682 41.0971 17.1682 42.6735C20.9681 44.25 25.1972 44.4597 29.1346 43.2671C33.0719 42.0745 36.4738 39.5532 38.7603 36.1331C41.0468 32.7131 42.0765 28.6059 41.6738 24.5117C41.5643 23.3989 41.3509 22.3058 41.0397 21.2455C40.8295 20.5294 41.1307 19.7469 41.7982 19.4131C42.5656 19.0294 43.5014 19.3875 43.7502 20.2086C44.5305 22.7831 44.8065 25.5041 44.5403 28.2204C44.0738 32.981 41.9706 37.4324 38.5894 40.8158C36.6752 42.7349 34.4014 44.2578 31.8982 45.2974C29.3949 46.3371 26.7112 46.8732 24.0006 46.8748C19.2173 46.8823 14.5794 45.2306 10.8776 42.2013C7.17577 39.1719 4.63917 34.9524 3.70012 30.2622C2.76108 25.5719 3.47773 20.701 5.72796 16.48C7.97818 12.259 11.6227 8.94911 16.0402 7.11445C20.4577 5.27979 25.3747 5.034 29.9532 6.41892C30.7753 6.66762 31.5774 6.96615 32.3556 7.31161L31.913 2.86388C31.8441 2.17141 32.3497 1.55419 33.0421 1.48529C33.7346 1.41639 34.3518 1.9219 34.4207 2.61437L35.2024 10.471C35.2681 11.1305 34.7866 11.7184 34.1271 11.784L26.2705 12.5657C25.578 12.6346 24.9608 12.1291 24.8919 11.4366C24.823 10.7441 25.3285 10.1269 26.021 10.058L30.2942 9.63284Z" fill="#FFC107"/>
</g>
<defs>
<clipPath id="clip0_4426_125481">
<rect width="48" height="48" fill="white"/>
</clipPath>
</defs>
</svg>
