<svg width="49" height="48" viewBox="0 0 49 48" fill="none" xmlns="http://www.w3.org/2000/svg">
<path d="M24.3334 21.75H42.3334C43.3279 21.75 44.2818 22.1451 44.985 22.8483C45.6883 23.5516 46.0834 24.5054 46.0834 25.5V37.5C46.0834 38.4946 45.6883 39.4484 44.985 40.1516C44.2818 40.8549 43.3279 41.25 42.3334 41.25H6.33337C5.33881 41.25 4.38498 40.8549 3.68172 40.1516C2.97846 39.4484 2.58337 38.4946 2.58337 37.5V25.5C2.58337 24.5054 2.97846 23.5516 3.68172 22.8483C4.38498 22.1451 5.33881 21.75 6.33337 21.75H24.3334Z" fill="#FFC107"/>
<path d="M41.8278 29.8333C42.1574 30.3266 42.3334 30.9067 42.3334 31.5C42.3334 32.2957 42.0173 33.0587 41.4547 33.6213C40.8921 34.1839 40.129 34.5 39.3334 34.5C38.74 34.5 38.16 34.3241 37.6667 33.9944C37.1733 33.6648 36.7888 33.1962 36.5617 32.6481C36.3347 32.0999 36.2753 31.4967 36.391 30.9147C36.5068 30.3328 36.7925 29.7982 37.2121 29.3787C37.6316 28.9591 38.1662 28.6734 38.7481 28.5576C39.33 28.4419 39.9332 28.5013 40.4814 28.7284C41.0296 28.9554 41.4981 29.3399 41.8278 29.8333Z" fill="#4CAF50"/>
<path d="M13.7415 16.5919C13.3188 16.1692 13.0813 15.5959 13.0813 14.9981C13.0813 14.4004 13.3188 13.8271 13.7415 13.4044C14.1641 12.9817 14.7374 12.7442 15.3352 12.7442C15.933 12.7442 16.5063 12.9817 16.929 13.4044L22.0833 18.5625V4.5C22.0833 3.90326 22.3204 3.33097 22.7423 2.90901C23.1643 2.48705 23.7366 2.25 24.3333 2.25C24.9301 2.25 25.5024 2.48705 25.9243 2.90901C26.3463 3.33097 26.5833 3.90326 26.5833 4.5V18.5625L31.7415 13.4025C32.1641 12.9798 32.7374 12.7423 33.3352 12.7423C33.933 12.7423 34.5063 12.9798 34.929 13.4025C35.3516 13.8252 35.5891 14.3985 35.5891 14.9963C35.5891 15.594 35.3516 16.1673 34.929 16.59L25.929 25.59C25.7199 25.7998 25.4715 25.9662 25.198 26.0798C24.9246 26.1933 24.6313 26.2518 24.3352 26.2518C24.0391 26.2518 23.7459 26.1933 23.4724 26.0798C23.1989 25.9662 22.9505 25.7998 22.7415 25.59L13.7415 16.5919Z" fill="#4CAF50"/>
</svg>
