<svg width="49" height="48" viewBox="0 0 49 48" fill="none" xmlns="http://www.w3.org/2000/svg">
<g clip-path="url(#clip0_4426_125471)">
<rect x="9.06671" y="10.8" width="32.4" height="16.8" rx="3" fill="#4CAF50"/>
<path d="M34.303 41.8318H15.0257C7.98286 41.8318 3.94324 37.7917 3.94324 30.7453V17.2535C3.94324 10.2107 7.98286 6.17285 15.0257 6.17285H34.303C41.3494 6.17285 45.3889 10.2119 45.3889 17.2535V30.7453C45.3949 37.7917 41.3506 41.8318 34.303 41.8318ZM12.3561 14.5922C12.1392 14.5912 11.9249 14.6393 11.7292 14.7328C11.5334 14.8263 11.3608 14.9625 11.2253 15.1318C11.1049 15.2801 11.0146 15.4509 10.9604 15.634C10.9063 15.8171 10.8897 16.009 10.91 16.1988C10.9295 16.3888 10.9863 16.5731 11.0776 16.7408C11.1689 16.9085 11.292 17.0561 11.4409 17.1756C20.2009 24.27 20.2783 24.3 20.4163 24.3516C21.6582 25.2265 23.1441 25.6885 24.6632 25.6717C26.1706 25.6925 27.6455 25.2341 28.8761 24.3633C29.0309 24.3105 29.1157 24.2819 37.8901 17.1779C38.1866 16.934 38.3756 16.583 38.4151 16.2012C38.4546 15.8193 38.3424 15.4371 38.1022 15.1377C37.9665 14.9687 37.7938 14.8323 37.5983 14.7387C37.4029 14.645 37.1893 14.5968 36.9725 14.5969C36.6397 14.5974 36.3174 14.7118 36.0585 14.9209L27.362 21.9C26.5852 22.4904 25.6316 22.8003 24.6561 22.7795C23.6796 22.8 22.7239 22.4901 21.9456 21.9L13.2702 14.9209C13.0119 14.7108 12.6891 14.5967 12.3561 14.598V14.5922Z" fill="#FFC107"/>
</g>
<defs>
<clipPath id="clip0_4426_125471">
<rect width="48" height="48" fill="white" transform="translate(0.666687)"/>
</clipPath>
</defs>
</svg>
