<svg width="48" height="48" viewBox="0 0 48 48" fill="none" xmlns="http://www.w3.org/2000/svg">
<g clip-path="url(#clip0_4426_125495)">
<path d="M17.8584 3.00506C17.9831 2.41477 18.6529 2.19815 19.0858 2.61863C20.2127 3.71409 21.8478 5.3526 22.0176 7.95039C22.753 6.03439 24.7827 4.72699 26.1509 3.84517L26.2003 3.81325C26.2637 3.7724 26.3293 3.74175 26.3952 3.72047C26.4429 3.70473 26.491 3.69409 26.5386 3.68856C26.6838 3.67111 26.8255 3.69749 26.9485 3.75963C27.1736 3.87369 27.3362 4.10733 27.3387 4.41333C27.3541 6.00843 27.3404 8.36959 25.5355 10.3358C24.6741 11.2742 23.8962 11.71 23.2684 11.7666L24.5408 16.5154C24.8879 17.8109 26.5069 18.2455 27.4562 17.2979L30.9307 13.8295C30.3983 13.4345 29.9182 12.7063 29.6148 11.713C28.9756 9.61699 30.0365 7.23838 30.7383 5.66498L30.7626 5.61136C31.0086 5.06065 31.7087 4.98872 32.0436 5.49092C32.9288 6.8179 34.2086 8.80241 33.7732 11.4351L33.7519 11.5594L33.7809 11.5091L33.8421 11.4045C34.97 9.52464 37.4473 8.719 39.0867 8.18659L39.1407 8.16871C39.7148 7.98188 40.2366 8.45428 40.0885 9.03904C39.7021 10.5626 39.0986 12.7974 36.9323 14.2414C38.9598 13.9218 41.1061 15.0279 42.5531 15.7731L42.6054 15.7999C42.7216 15.8599 42.814 15.9395 42.8825 16.031C43.1297 16.3621 43.0612 16.8464 42.6539 17.086C41.2793 17.8955 39.2267 19.0625 36.6221 18.4803C35.3789 18.2024 34.6129 17.7461 34.2503 17.2303L30.9399 20.535C29.9898 21.4834 30.4233 23.1047 31.7199 23.4524L36.2569 24.6692C36.3327 24.0104 36.7225 23.2302 37.4307 22.4706C38.9249 20.8678 41.5151 20.5954 43.2285 20.4154L43.2872 20.4095C43.8873 20.3465 44.2997 20.9172 44.0328 21.4585C43.3268 22.8889 42.25 24.9901 39.7527 25.9315L39.6344 25.9753L39.6927 25.9749L39.8136 25.9753C42.0058 26.011 43.943 27.7521 45.2245 28.9046L45.2675 28.9429C45.7165 29.3459 45.5688 30.0345 44.9883 30.1988C43.4762 30.627 41.2393 31.2232 38.9049 30.0707C40.1962 31.6658 40.3132 34.0776 40.3924 35.7034L40.3953 35.7621C40.4017 35.8923 40.3792 36.0123 40.3341 36.1175C40.1711 36.4975 39.7178 36.6805 39.3063 36.4477C37.9176 35.6634 35.8799 34.4704 35.0798 31.9241C34.9274 31.439 34.8376 31.0053 34.8018 30.6227C34.7478 30.0473 34.8155 29.5885 34.9746 29.2451L30.325 27.9984C29.0287 27.6508 27.8424 28.837 28.1897 30.1333L29.4794 34.9467C30.0714 34.7283 30.8775 34.6871 31.8057 34.8824C33.9507 35.3335 35.5224 37.4121 36.5616 38.7863L36.5961 38.8314C36.96 39.3128 36.6846 39.9609 36.0833 40.012C34.5248 40.1444 32.23 40.304 30.1651 38.7535L30.1846 38.788C31.2495 40.7027 30.7115 43.249 30.3557 44.9352L30.343 44.9948C30.3136 45.1344 30.2536 45.2531 30.1736 45.3476C29.9148 45.6519 29.4463 45.7021 29.1156 45.3812C27.9716 44.2692 26.3037 42.5979 26.1769 39.932C26.1735 39.8618 26.1709 39.7937 26.1692 39.726C25.5985 41.8416 23.4374 43.2941 22.007 44.2547L21.958 44.2879C21.8065 44.3896 21.6435 44.4322 21.489 44.4254C21.1316 44.4096 20.8204 44.1308 20.8081 43.7099C20.7621 42.1153 20.7306 39.7545 22.4973 37.7538C23.4216 36.7069 24.2579 36.2656 24.9142 36.2702L23.6401 31.5152C23.293 30.2197 21.6739 29.7851 20.7247 30.7327L17.2668 34.1849C17.5298 34.404 17.7788 34.7032 17.9988 35.0752C18.1844 35.3893 18.3495 35.7553 18.484 36.1681C19.1641 38.2518 18.1478 40.6517 17.4758 42.2383L17.4541 42.2906C17.2183 42.846 16.5195 42.9311 16.1747 42.4353C15.2823 41.1513 13.9983 39.2425 14.3107 36.6792L14.2907 36.7137C13.1633 38.5923 10.6885 39.397 9.04955 39.9307L8.99167 39.9494C8.85591 39.9937 8.72313 40.0009 8.60141 39.9788C8.45969 39.9529 8.33287 39.8865 8.23413 39.7911C8.05921 39.623 7.97197 39.3643 8.04389 39.0787C8.43628 37.5325 9.05168 35.2531 11.2984 33.8121C11.3575 33.7742 11.4154 33.738 11.4733 33.7027C9.35513 34.2645 7.01737 33.1171 5.47122 32.3574L5.41802 32.3314C5.25417 32.251 5.13585 32.131 5.06478 31.9935C4.89965 31.676 4.98605 31.2675 5.34482 31.0466C6.70329 30.2103 8.73292 29.0046 11.3486 29.5366C12.7173 29.8145 13.5174 30.3188 13.8408 30.89L17.4759 27.2611C18.4259 26.3126 17.9924 24.6913 16.6958 24.3437L11.7959 23.0298C11.7665 23.2 11.7176 23.3775 11.649 23.5601C11.4677 24.044 11.1481 24.5636 10.6881 25.0764C9.22447 26.7082 6.6386 27.0295 4.92859 27.2423L4.87241 27.2495C4.27361 27.324 3.85015 26.7613 4.10678 26.2149C4.77155 24.799 5.78104 22.7323 8.15625 21.7194H8.11667C5.92617 21.6837 3.99017 19.9443 2.7083 18.7931L2.66277 18.7522C2.61212 18.7067 2.56914 18.6573 2.53339 18.6058C2.49423 18.5492 2.46402 18.4896 2.44231 18.4288C2.30825 18.0526 2.49891 17.6219 2.94238 17.4959C4.47747 17.0614 6.75862 16.4532 9.13084 17.6768C9.1934 17.7087 9.25341 17.7406 9.31299 17.7729C7.76641 16.2208 7.58936 13.6226 7.47318 11.9037L7.46892 11.8449C7.45658 11.6628 7.50127 11.5002 7.58426 11.37C7.77705 11.0682 8.1737 10.9384 8.54438 11.138C9.94839 11.896 12.0082 13.0493 12.8573 15.5799C13.3016 16.9039 13.2654 17.8487 12.933 18.4147L17.7703 19.7119C19.0665 20.0595 20.2529 18.8734 19.9056 17.577L18.6644 12.9451C18.0563 13.2089 17.1855 13.2617 16.1735 13.0285C14.0383 12.5361 12.507 10.4294 11.4941 9.03563L11.4597 8.98797C11.1051 8.49982 11.3928 7.85718 11.995 7.8176C13.5867 7.71334 15.9449 7.59502 18.009 9.28673L18.1061 9.36717L18.0767 9.31695L18.0167 9.21183C16.951 7.29583 17.4898 4.74742 17.8469 3.06124L17.8584 3.00506Z" fill="#FFC107"/>
<path d="M19.4075 7.07171C19.4619 7.02405 19.5292 6.99511 19.5994 6.98787C19.699 6.97766 19.805 7.01085 19.8918 7.09597C20.4514 7.64498 21.263 8.46679 21.3473 9.76909C21.7124 8.80854 22.7198 8.15271 23.399 7.71095L23.4237 7.69477C23.4782 7.65945 23.5352 7.63902 23.5914 7.63221C23.7953 7.60753 23.9864 7.75861 23.9885 7.99566C23.9961 8.79534 23.9893 9.97933 23.0935 10.965C22.6658 11.4357 22.2798 11.654 21.9682 11.6825L23.9901 19.182C24.2956 20.3151 25.7128 20.6932 26.5421 19.8628L32.021 14.3765C31.7559 14.1807 31.5171 13.8194 31.3677 13.3257C31.0524 12.2843 31.5882 11.0982 31.9427 10.3138L31.9546 10.287C31.9831 10.2245 32.0231 10.1742 32.07 10.1368C32.1104 10.1049 32.1555 10.0823 32.2032 10.0696C32.3428 10.0321 32.4998 10.0806 32.596 10.2245C33.0356 10.8828 33.6714 11.8677 33.448 13.1789L33.437 13.2406L33.4518 13.2155L33.4825 13.1631C34.0506 12.2252 35.2912 11.8191 36.1122 11.5506L36.1394 11.5417C36.245 11.5072 36.3467 11.5165 36.4297 11.557C36.5727 11.6268 36.6595 11.7881 36.6118 11.9728C36.4152 12.7316 36.1084 13.8449 35.0218 14.5684C35.5385 14.485 36.0701 14.5859 36.5625 14.7531C36.8182 14.84 37.0634 14.9451 37.2906 15.0519C37.4851 15.143 37.6664 15.2353 37.8299 15.3187L37.8558 15.3319C37.9137 15.3613 37.9601 15.4009 37.9937 15.446C38.1171 15.6107 38.0818 15.8516 37.8775 15.9716C37.1881 16.3776 36.159 16.9628 34.8576 16.6785C34.2366 16.5432 33.8545 16.3176 33.674 16.0618L28.3515 21.3915C27.5215 22.2227 27.903 23.6407 29.038 23.9432L36.3292 25.8865C36.3658 25.5592 36.5591 25.1715 36.9114 24.7949C37.1549 24.5353 37.4571 24.3467 37.7835 24.2071C38.4555 23.9203 39.2305 23.8428 39.8067 23.785L39.8361 23.782C39.9697 23.7688 40.0851 23.8177 40.16 23.9003C40.2536 24.0029 40.2847 24.1569 40.2115 24.3059C39.8616 25.0162 39.3275 26.0593 38.0805 26.5223L38.0214 26.544H38.0503L38.1112 26.5445C38.4393 26.5513 38.7564 26.6338 39.0568 26.7619C39.7603 27.062 40.3727 27.6101 40.8234 28.014L40.8452 28.0327C41.0703 28.2345 40.9979 28.5766 40.7081 28.6575C39.9527 28.8669 38.8351 29.1588 37.6652 28.5805C38.3146 29.3772 38.3784 30.5773 38.4214 31.3868L38.4231 31.4162C38.4265 31.4809 38.4155 31.5404 38.3929 31.5928C38.3125 31.7813 38.0861 31.8715 37.8797 31.7549C37.1834 31.3613 36.1616 30.7633 35.7564 29.4946C35.5628 28.889 35.5666 28.4451 35.6981 28.1613L28.2454 26.1754C27.1107 25.873 26.0743 26.9125 26.38 28.0463L28.4533 35.7363C28.747 35.6269 29.147 35.6061 29.6079 35.704C30.6728 35.9304 31.4529 36.9726 31.9687 37.6612L31.9857 37.6842C32.1666 37.9255 32.03 38.2502 31.7312 38.2758C30.9575 38.3422 29.8186 38.4222 28.7934 37.6451L28.8032 37.6621C29.3317 38.6222 29.0649 39.899 28.8883 40.7442L28.8819 40.7744L28.8742 40.8063C28.8687 40.8255 28.8619 40.8438 28.8538 40.8612C28.8389 40.8948 28.8198 40.9251 28.7976 40.951C28.7508 41.0068 28.69 41.0455 28.6236 41.0647C28.5082 41.0974 28.3767 41.0702 28.2724 40.968C27.7047 40.4105 26.8769 39.5725 26.814 38.2358L26.8101 38.1324C26.5267 39.1933 25.4538 39.9215 24.7439 40.4033L24.7196 40.4199C24.6443 40.471 24.5635 40.4922 24.4868 40.4888C24.4456 40.4867 24.4056 40.4778 24.3685 40.4629C24.3324 40.448 24.2992 40.4271 24.2698 40.4012C24.1992 40.3382 24.1523 40.2445 24.1489 40.1301C24.126 39.3304 24.1102 38.1468 24.9873 37.1437C25.4461 36.619 25.8611 36.3977 26.1871 36.3998L24.1482 28.837C23.8427 27.7038 22.4255 27.3257 21.5962 28.1561L16.07 33.6896C16.3117 33.8897 16.5296 34.2259 16.6748 34.674C17.0101 35.7095 16.4969 36.9058 16.1573 37.697L16.1462 37.7229C16.0798 37.8774 15.9419 37.9591 15.8032 37.9587C15.6929 37.9587 15.5823 37.9068 15.5065 37.7978C15.0626 37.1607 14.4247 36.2138 14.5864 34.9375L14.5762 34.9545C14.0085 35.8916 12.7687 36.2976 11.9482 36.5666L11.9193 36.576C11.8512 36.5985 11.7848 36.6024 11.7239 36.5917C11.6213 36.5734 11.5345 36.513 11.4835 36.4279C11.4366 36.35 11.4196 36.2513 11.4469 36.1449C11.6465 35.3745 11.9593 34.2391 13.0862 33.5169L13.1735 33.4624C12.1129 33.7463 10.9464 33.1802 10.1748 32.8057L10.148 32.7929C10.1037 32.7712 10.0658 32.7436 10.0352 32.7121C10.0092 32.6857 9.98837 32.6567 9.97219 32.6257C9.89048 32.4678 9.93432 32.2644 10.1143 32.1537C10.7957 31.7345 11.8133 31.1302 13.1203 31.3893C13.4046 31.4455 13.6399 31.5217 13.8293 31.6115C13.9778 31.6822 14.0978 31.7613 14.1915 31.8464C14.2651 31.9137 14.3225 31.9843 14.3638 32.0575L20.0531 26.3606C20.8831 25.5294 20.5016 24.1114 19.3665 23.8089L11.6252 21.746C11.5733 22.0554 11.3911 22.412 11.0757 22.7623C10.3471 23.5709 9.05463 23.7254 8.20005 23.8275L8.17196 23.8309C7.87235 23.8667 7.65955 23.5858 7.78638 23.3147C8.11621 22.6116 8.61627 21.5851 9.80238 21.0863L9.78238 21.0859C8.68692 21.0633 7.71488 20.1938 7.07096 19.618L7.04841 19.5976C6.99521 19.5499 6.95861 19.4942 6.93733 19.4363C6.86924 19.2486 6.96414 19.0345 7.18545 18.9728C7.95236 18.76 9.09208 18.4621 10.2807 19.0763L10.3722 19.1248C9.59512 18.3489 9.50107 17.0556 9.43936 16.1997L9.43723 16.1703C9.43042 16.0801 9.45255 15.9993 9.49383 15.9346C9.58959 15.7848 9.78791 15.7209 9.97347 15.8214C10.6774 16.2014 11.7099 16.7798 12.1401 18.0408C12.2738 18.4332 12.3223 18.7583 12.3053 19.0162C12.2933 19.1924 12.2508 19.3376 12.184 19.4516L19.7949 21.48C20.9296 21.7824 21.9661 20.7429 21.6605 19.6091L19.6828 12.2732C19.3807 12.4056 18.9487 12.432 18.4461 12.3149C17.3864 12.0681 16.6263 11.0118 16.1232 10.313L16.1062 10.2892C15.9304 10.0444 16.073 9.72227 16.3722 9.70227C17.1621 9.65035 18.3329 9.59076 19.3572 10.439L19.4058 10.4794L19.3909 10.4543L19.3611 10.4015C18.8321 9.44096 19.0998 8.16335 19.2768 7.3177L19.2828 7.28961C19.3019 7.19769 19.3475 7.12364 19.4075 7.07171Z" fill="#4CAF50"/>
</g>
<defs>
<clipPath id="clip0_4426_125495">
<rect width="48" height="48" fill="white"/>
</clipPath>
</defs>
</svg>
