<svg width="48" height="48" viewBox="0 0 48 48" fill="none" xmlns="http://www.w3.org/2000/svg">
<g clip-path="url(#clip0_4426_125468)">
<path fill-rule="evenodd" clip-rule="evenodd" d="M13.2756 46.659C13.9376 47.0036 14.6894 47.1985 15.4858 47.1985H33.2445C34.0418 47.1985 34.7944 47.0032 35.4569 46.6579C35.8885 46.4335 36.2875 46.1429 36.6378 45.7925C36.88 45.5503 37.0936 45.285 37.2765 45.0017C37.7619 44.2526 38.0439 43.3605 38.0439 42.4038L38.0439 42.3991V6.40365C38.0439 3.75671 35.8903 1.60425 33.2445 1.60425H15.4858C12.84 1.60425 10.6864 3.75671 10.6864 6.40365V42.3991L10.6864 42.4167C10.6889 43.3638 10.9679 44.2473 11.4467 44.9908C11.6312 45.2782 11.8472 45.5472 12.0925 45.7925C12.4434 46.1434 12.8431 46.4345 13.2756 46.659Z" fill="#4CAF50"/>
<path d="M12.1537 6.80325C12.3823 2.76211 16.1204 2.8778 16.1204 2.8778L20.3957 2.9044V4.08914C20.3957 4.91468 21.0673 5.58392 21.8957 5.58392H26.9513C27.7797 5.58392 28.4513 4.91468 28.4513 4.08914V2.854H33.2709C33.2709 2.854 36.6602 3.37555 36.6602 7.22498V41.9233C36.6602 41.8644 36.6602 45.5783 32.7156 45.8344H15.0395C15.0395 45.8344 11.9397 44.5822 12.1537 41.8502V6.80325Z" fill="#FFC107"/>
</g>
<defs>
<clipPath id="clip0_4426_125468">
<rect width="48" height="48" fill="white"/>
</clipPath>
</defs>
</svg>
