<svg width="49" height="48" viewBox="0 0 49 48" fill="none" xmlns="http://www.w3.org/2000/svg">
<g id="Password">
<path id="Vector" d="M25.0833 20.7188L21.3333 21.9375V18C21.3333 17.6022 21.1753 17.2206 20.894 16.9393C20.6127 16.658 20.2311 16.5 19.8333 16.5C19.4355 16.5 19.054 16.658 18.7727 16.9393C18.4914 17.2206 18.3333 17.6022 18.3333 18V21.9375L14.5833 20.7188C14.2049 20.5944 13.7926 20.6255 13.4371 20.8052C13.0816 20.9849 12.812 21.2984 12.6877 21.6769C12.5634 22.0553 12.5945 22.4676 12.7742 22.8231C12.9538 23.1786 13.2674 23.4482 13.6458 23.5725L17.3958 24.7894L15.0821 27.9769C14.9598 28.1357 14.8706 28.3175 14.8198 28.5115C14.769 28.7054 14.7575 28.9075 14.7862 29.106C14.8148 29.3044 14.8829 29.4951 14.9865 29.6667C15.0901 29.8384 15.227 29.9875 15.3892 30.1053C15.5514 30.2232 15.7356 30.3073 15.9308 30.3527C16.1261 30.3981 16.3285 30.404 16.526 30.3699C16.7236 30.3357 16.9123 30.2624 17.081 30.1541C17.2497 30.0458 17.395 29.9048 17.5083 29.7394L19.8221 26.5519L22.1358 29.7394C22.2491 29.9048 22.3944 30.0458 22.5631 30.1541C22.7318 30.2624 22.9205 30.3357 23.1181 30.3699C23.3157 30.404 23.5181 30.3981 23.7133 30.3527C23.9086 30.3073 24.0928 30.2232 24.255 30.1053C24.4172 29.9875 24.5541 29.8384 24.6577 29.6667C24.7612 29.4951 24.8294 29.3044 24.858 29.106C24.8866 28.9075 24.8752 28.7054 24.8244 28.5115C24.7735 28.3175 24.6843 28.1357 24.5621 27.9769L22.2483 24.7894L25.9983 23.5725C26.36 23.438 26.656 23.1692 26.8246 22.822C26.9932 22.4749 27.0216 22.0761 26.9038 21.7086C26.7859 21.3411 26.531 21.0332 26.1919 20.8488C25.8529 20.6645 25.4558 20.6179 25.0833 20.7188ZM44.9583 21.6825C44.8354 21.3075 44.5697 20.9961 44.2187 20.8157C43.8677 20.6353 43.4598 20.6005 43.0833 20.7188L39.3333 21.9375V18C39.3333 17.6022 39.1753 17.2206 38.894 16.9393C38.6127 16.658 38.2311 16.5 37.8333 16.5C37.4355 16.5 37.054 16.658 36.7727 16.9393C36.4914 17.2206 36.3333 17.6022 36.3333 18V21.9375L32.5833 20.7206C32.3959 20.6597 32.1984 20.6362 32.002 20.6517C31.8055 20.6671 31.614 20.721 31.4384 20.8104C31.2629 20.8998 31.1066 21.0229 30.9786 21.1727C30.8506 21.3225 30.7533 21.4961 30.6924 21.6834C30.6314 21.8708 30.608 22.0684 30.6234 22.2648C30.6388 22.4612 30.6928 22.6527 30.7822 22.8283C30.8716 23.0039 30.9947 23.1602 31.1445 23.2882C31.2943 23.4162 31.4678 23.5134 31.6552 23.5744L35.4052 24.7913L33.0914 27.9788C32.9692 28.1376 32.88 28.3194 32.8292 28.5133C32.7783 28.7073 32.7669 28.9094 32.7955 29.1078C32.8242 29.3063 32.8923 29.4969 32.9959 29.6686C33.0994 29.8402 33.2364 29.9894 33.3986 30.1072C33.5608 30.225 33.7449 30.3091 33.9402 30.3546C34.1355 30.4 34.3379 30.4059 34.5354 30.3717C34.733 30.3376 34.9217 30.2642 35.0904 30.156C35.2591 30.0477 35.4044 29.9067 35.5177 29.7412L37.8314 26.5537L40.1452 29.7412C40.2585 29.9067 40.4038 30.0477 40.5725 30.156C40.7412 30.2642 40.9299 30.3376 41.1275 30.3717C41.325 30.4059 41.5274 30.4 41.7227 30.3546C41.918 30.3091 42.1021 30.225 42.2643 30.1072C42.4265 29.9894 42.5635 29.8402 42.667 29.6686C42.7706 29.4969 42.8387 29.3063 42.8674 29.1078C42.896 28.9094 42.8846 28.7073 42.8337 28.5133C42.7829 28.3194 42.6937 28.1376 42.5714 27.9788L40.2577 24.7913L44.0077 23.5744C44.3842 23.4489 44.6956 23.1794 44.8738 22.8248C45.0519 22.4702 45.0823 22.0595 44.9583 21.6825Z" fill="#FFC107"/>
<path id="Vector_2" d="M9.33337 37.5V10.5C9.33337 10.1022 9.17534 9.72064 8.89403 9.43934C8.61273 9.15804 8.2312 9 7.83337 9C7.43555 9 7.05402 9.15804 6.77271 9.43934C6.49141 9.72064 6.33337 10.1022 6.33337 10.5V37.5C6.33337 37.8978 6.49141 38.2794 6.77271 38.5607C7.05402 38.842 7.43555 39 7.83337 39C8.2312 39 8.61273 38.842 8.89403 38.5607C9.17534 38.2794 9.33337 37.8978 9.33337 37.5Z" fill="#4CAF50"/>
</g>
</svg>
