<svg width="49" height="48" viewBox="0 0 49 48" fill="none" xmlns="http://www.w3.org/2000/svg">
<path d="M25.4167 20.7188L21.6667 21.9375V18C21.6667 17.6022 21.5087 17.2206 21.2274 16.9393C20.946 16.658 20.5645 16.5 20.1667 16.5C19.7689 16.5 19.3873 16.658 19.106 16.9393C18.8247 17.2206 18.6667 17.6022 18.6667 18V21.9375L14.9167 20.7188C14.5383 20.5944 14.1259 20.6255 13.7704 20.8052C13.415 20.9849 13.1454 21.2984 13.0211 21.6769C12.8967 22.0553 12.9279 22.4676 13.1075 22.8231C13.2872 23.1786 13.6008 23.4482 13.9792 23.5725L17.7292 24.7894L15.4154 27.9769C15.2932 28.1357 15.204 28.3175 15.1532 28.5115C15.1023 28.7054 15.0909 28.9075 15.1195 29.106C15.1482 29.3044 15.2163 29.4951 15.3199 29.6667C15.4234 29.8384 15.5604 29.9875 15.7226 30.1053C15.8848 30.2232 16.0689 30.3073 16.2642 30.3527C16.4595 30.3981 16.6619 30.404 16.8594 30.3699C17.057 30.3357 17.2457 30.2624 17.4144 30.1541C17.5831 30.0458 17.7284 29.9048 17.8417 29.7394L20.1554 26.5519L22.4692 29.7394C22.5825 29.9048 22.7278 30.0458 22.8965 30.1541C23.0652 30.2624 23.2539 30.3357 23.4515 30.3699C23.649 30.404 23.8514 30.3981 24.0467 30.3527C24.242 30.3073 24.4261 30.2232 24.5883 30.1053C24.7505 29.9875 24.8875 29.8384 24.991 29.6667C25.0946 29.4951 25.1627 29.3044 25.1914 29.106C25.22 28.9075 25.2086 28.7054 25.1577 28.5115C25.1069 28.3175 25.0177 28.1357 24.8954 27.9769L22.5817 24.7894L26.3317 23.5725C26.6934 23.438 26.9894 23.1692 27.158 22.822C27.3266 22.4749 27.355 22.0761 27.2371 21.7086C27.1193 21.3411 26.8644 21.0332 26.5253 20.8488C26.1863 20.6645 25.7892 20.6179 25.4167 20.7188ZM45.2917 21.6825C45.1688 21.3075 44.903 20.9961 44.5521 20.8157C44.2011 20.6353 43.7932 20.6005 43.4167 20.7188L39.6667 21.9375V18C39.6667 17.6022 39.5087 17.2206 39.2274 16.9393C38.9461 16.658 38.5645 16.5 38.1667 16.5C37.7689 16.5 37.3873 16.658 37.106 16.9393C36.8247 17.2206 36.6667 17.6022 36.6667 18V21.9375L32.9167 20.7206C32.7293 20.6597 32.5318 20.6362 32.3353 20.6517C32.1389 20.6671 31.9474 20.721 31.7718 20.8104C31.5962 20.8998 31.44 21.0229 31.312 21.1727C31.184 21.3225 31.0867 21.4961 31.0258 21.6834C30.9648 21.8708 30.9414 22.0684 30.9568 22.2648C30.9722 22.4612 31.0261 22.6527 31.1155 22.8283C31.2049 23.0039 31.3281 23.1602 31.4779 23.2882C31.6276 23.4162 31.8012 23.5134 31.9886 23.5744L35.7386 24.7913L33.4248 27.9788C33.3025 28.1376 33.2134 28.3194 33.1625 28.5133C33.1117 28.7073 33.1003 28.9094 33.1289 29.1078C33.1575 29.3063 33.2256 29.4969 33.3292 29.6686C33.4328 29.8402 33.5697 29.9894 33.7319 30.1072C33.8941 30.225 34.0783 30.3091 34.2736 30.3546C34.4688 30.4 34.6712 30.4059 34.8688 30.3717C35.0663 30.3376 35.2551 30.2642 35.4238 30.156C35.5925 30.0477 35.7378 29.9067 35.8511 29.7412L38.1648 26.5537L40.4786 29.7412C40.5919 29.9067 40.7372 30.0477 40.9059 30.156C41.0746 30.2642 41.2633 30.3376 41.4609 30.3717C41.6584 30.4059 41.8608 30.4 42.0561 30.3546C42.2513 30.3091 42.4355 30.225 42.5977 30.1072C42.7599 29.9894 42.8968 29.8402 43.0004 29.6686C43.104 29.4969 43.1721 29.3063 43.2007 29.1078C43.2294 28.9094 43.2179 28.7073 43.1671 28.5133C43.1163 28.3194 43.0271 28.1376 42.9048 27.9788L40.5911 24.7913L44.3411 23.5744C44.7176 23.4489 45.029 23.1794 45.2071 22.8248C45.3853 22.4702 45.4157 22.0595 45.2917 21.6825Z" fill="#4CAF50"/>
<path d="M9.66675 37.5V10.5C9.66675 10.1022 9.50871 9.72064 9.22741 9.43934C8.9461 9.15804 8.56457 9 8.16675 9C7.76892 9 7.38739 9.15804 7.10609 9.43934C6.82478 9.72064 6.66675 10.1022 6.66675 10.5V37.5C6.66675 37.8978 6.82478 38.2794 7.10609 38.5607C7.38739 38.842 7.76892 39 8.16675 39C8.56457 39 8.9461 38.842 9.22741 38.5607C9.50871 38.2794 9.66675 37.8978 9.66675 37.5Z" fill="#FFC107"/>
</svg>
