<svg width="20" height="20" viewBox="0 0 20 20" fill="none" xmlns="http://www.w3.org/2000/svg">
<path d="M9.00012 2C4.58184 2 1.00012 5.58172 1.00012 10C1.00012 14.4183 4.58184 18 9.00012 18C13.4184 18 17.0001 14.4183 17.0001 10C17.0001 5.58172 13.4184 2 9.00012 2Z" fill="#122922"/>
<path fill-rule="evenodd" clip-rule="evenodd" d="M11.6668 8.66667C11.6668 7.19391 10.4729 6 9.00017 6C7.52741 6 6.3335 7.19391 6.3335 8.66667H7.66684L7.67581 8.51117C7.75283 7.84805 8.31639 7.33333 9.00017 7.33333C9.73655 7.33333 10.3335 7.93029 10.3335 8.66667C10.3335 9.40305 9.73655 10 9.00017 10H8.3335V12H9.66684V11.248L9.77034 11.2204C10.8676 10.89 11.6668 9.87165 11.6668 8.66667ZM9.66684 14V12.6667H8.3335V14H9.66684Z" fill="#FFC107"/>
</svg>
