<svg width="49" height="48" viewBox="0 0 49 48" fill="none" xmlns="http://www.w3.org/2000/svg">
<path d="M13.5333 14.4011H36.3333V34.8011H13.5333V14.4011Z" fill="#4CAF50"/>
<path d="M24.3533 45.507C22.1898 45.5321 20.0743 44.8672 18.3142 43.6088L9.71138 37.1837C8.51003 36.1943 7.52865 34.9655 6.82893 33.5753C6.1292 32.1852 5.72684 30.6642 5.64783 29.1099V14.2318C5.70895 12.629 6.22647 11.0768 7.14061 9.75877C8.05475 8.44072 9.32831 7.41148 10.8081 6.79254L20.7819 3.05063C21.9217 2.66459 23.1196 2.47756 24.3228 2.49757C25.5253 2.47736 26.7225 2.6644 27.8615 3.05063L37.8399 6.79254C39.3197 7.41148 40.5909 8.44072 41.5051 9.75877C42.4192 11.0768 42.9367 12.629 42.9978 14.2318V29.0935C42.9201 30.6476 42.5204 32.1681 41.8214 33.5583C41.1225 34.9486 40.1399 36.1779 38.939 37.1673L30.3361 43.586C28.6063 44.8653 26.5046 45.5404 24.3533 45.507ZM24.3299 15.4979C22.8714 15.5001 21.4728 16.0807 20.4421 17.1125C19.4114 18.1444 18.8328 19.5431 18.8321 21.0015C18.8342 22.1986 19.2249 23.362 19.9476 24.3163C20.6703 25.2707 21.6854 25.9636 22.8371 26.2901V31.0022C22.8411 31.3975 22.9988 31.7754 23.2777 32.0556C23.5565 32.3358 23.9346 32.4961 24.3299 32.502C24.7282 32.5023 25.1094 32.3444 25.3915 32.0632C25.6736 31.782 25.8334 31.4005 25.8344 31.0022V26.2901C26.9849 25.9626 27.9978 25.2694 28.7192 24.3152C29.4405 23.3609 29.8311 22.1978 29.8323 21.0015C29.8307 19.5426 29.2492 18.1441 28.2177 17.1125C27.1861 16.081 25.7887 15.5007 24.3299 15.4991V15.4979ZM24.3299 23.4996C23.6681 23.498 23.0327 23.2341 22.5652 22.7655C22.0978 22.297 21.8364 21.6622 21.8364 21.0003C21.8367 20.3386 22.0979 19.7036 22.5652 19.2351C23.0326 18.7667 23.6682 18.5029 24.3299 18.501C24.9933 18.501 25.6295 18.7642 26.0992 19.2328C26.5688 19.7013 26.8334 20.3369 26.835 21.0003C26.8337 21.6639 26.5689 22.2997 26.0992 22.7685C25.6295 23.2373 24.9935 23.5008 24.3299 23.5008V23.4996Z" fill="#FFC107"/>
</svg>
