<svg width="49" height="48" viewBox="0 0 49 48" fill="none" xmlns="http://www.w3.org/2000/svg">
<g id="Support" clip-path="url(#clip0_4426_125484)">
<g id="Group 10275">
<path id="Union" d="M28.613 44.0428C28.4883 44.4525 28.1478 44.782 27.6984 44.8713L24.1675 45.5733C23.5175 45.7025 22.8858 45.2803 22.7565 44.6303L22.2886 42.2763C22.1594 41.6263 22.5816 40.9946 23.2316 40.8654L26.7625 40.1635C27.4125 40.0343 28.0442 40.4564 28.1734 41.1065L28.283 41.6574C34.1148 40.3642 37.7379 39.4504 42.1116 36.5891L43.4255 38.5975C38.616 41.7439 34.5648 42.7274 28.613 44.0428Z" fill="#4CAF50"/>
<g id="Union_2">
<path d="M11.2664 24.968H3.78687V41.1232C3.78687 41.6167 4.18698 42.0169 4.68055 42.0169H7.85658C13.5061 42.0169 18.0859 37.437 18.0859 31.7876C18.0859 28.0212 15.0327 24.968 11.2664 24.968Z" fill="#FFC107"/>
<path d="M39.6113 24.968C34.9034 24.968 31.0869 28.7845 31.0869 33.4924C31.0869 38.2003 34.9034 42.0169 39.6113 42.0169H44.1859C44.8486 42.0169 45.3859 41.4796 45.3859 40.8169V24.968H39.6113Z" fill="#FFC107"/>
</g>
<path id="Subtract" d="M8.98927 10.0699C12.5118 6.0426 17.7537 3.60034 24.5817 3.60034C31.4098 3.60034 36.6517 6.0426 40.1742 10.0699C43.6799 14.0779 45.3861 19.0096 45.3861 24.9683H43.327C43.2243 19.6094 41.6461 14.8514 38.6387 11.4129C35.5454 7.87639 30.8881 5.64034 24.5817 5.64034C18.2754 5.64034 13.618 7.87639 10.5248 11.4129C7.51733 14.8514 5.92971 19.6094 5.82699 24.9683H3.78711C3.78711 19.0096 5.48361 14.0779 8.98927 10.0699Z" fill="#4CAF50"/>
</g>
</g>
<defs>
<clipPath id="clip0_4426_125484">
<rect width="48" height="48" fill="white" transform="translate(0.666748)"/>
</clipPath>
</defs>
</svg>
