<svg width="49" height="48" viewBox="0 0 49 48" fill="none" xmlns="http://www.w3.org/2000/svg">
<g clip-path="url(#clip0_4426_125502)">
<path d="M19.7507 20.8528C18.5998 20.8563 17.4598 20.6309 16.3968 20.1898C15.3338 19.7487 14.3688 19.1007 13.5585 18.2835C12.7409 17.4725 12.0933 16.5073 11.6518 15.4437C11.2104 14.3801 10.9844 13.2396 10.9874 12.088C10.9844 10.936 11.2104 9.79478 11.6518 8.73062C12.0933 7.66647 12.7409 6.7005 13.5585 5.88882C14.3688 5.07177 15.3337 4.42402 16.3968 3.98336C17.4598 3.54269 18.5999 3.31772 19.7507 3.32183C20.9024 3.31836 22.044 3.54363 23.1081 3.98424C24.1722 4.42484 25.1377 5.0722 25.9499 5.88882C26.7658 6.70154 27.4125 7.6678 27.853 8.73179C28.2936 9.79578 28.5189 10.9365 28.5163 12.088C28.5188 13.2391 28.2936 14.3791 27.853 15.4425C27.4125 16.5059 26.7657 17.4714 25.9499 18.2835C25.1383 19.0997 24.1736 19.7472 23.1104 20.1883C22.0473 20.6295 20.9065 20.8558 19.7554 20.854L19.7507 20.8528Z" fill="#FFC107"/>
<path d="M20.1256 44.6833H19.6006C16.6975 44.6873 13.8647 43.7919 11.4912 42.1202C9.11061 40.4567 7.30492 38.096 6.32207 35.3631C5.91555 34.1794 5.67997 32.9437 5.62246 31.6934V31.6744C5.51176 31.159 5.51157 30.6258 5.62246 30.1105C5.73335 29.5952 5.95177 29.1091 6.26465 28.6849C6.8347 27.9834 7.64189 27.5142 8.5334 27.3651L10.4904 27.2605H29.2357L31.1928 27.3651C32.0849 27.5125 32.8915 27.9821 33.4604 28.6849C33.7739 29.1093 33.9943 29.5957 34.1061 30.1114C34.2178 30.6271 34.2182 31.1606 34.1084 31.6767V31.6934C34.0516 32.9436 33.8163 34.1794 33.41 35.3631C32.4252 38.0953 30.62 40.4558 28.2408 42.1213C25.8652 43.793 23.0305 44.688 20.1256 44.6833Z" fill="#FFC107"/>
<path d="M37.7685 22.9542C35.5859 22.9859 32.1799 23.0507 32.1799 23.0507C31.9828 23.0555 31.7867 23.0201 31.6037 22.9466C31.4207 22.8731 31.2546 22.763 31.1156 22.6231C30.9744 22.4857 30.862 22.3216 30.7849 22.1403C30.7078 21.959 30.6676 21.7641 30.6667 21.5671C30.6652 21.1703 30.8201 20.7888 31.0978 20.5053C31.3754 20.2218 31.7535 20.059 32.1503 20.0522C32.1503 20.0522 35.575 20.0177 37.7693 19.9858C39.9528 19.954 43.3604 19.8892 43.3604 19.8892C43.758 19.8851 44.141 20.0391 44.4251 20.3173C44.7092 20.5955 44.8711 20.9752 44.8753 21.3729C44.8794 21.7705 44.7255 22.1535 44.4472 22.4376C44.169 22.7217 43.7893 22.8836 43.3917 22.8878C43.3917 22.8878 39.9644 22.9222 37.7685 22.9542Z" fill="#FF2211"/>
</g>
<defs>
<clipPath id="clip0_4426_125502">
<rect width="48" height="48" fill="white" transform="translate(0.666687)"/>
</clipPath>
</defs>
</svg>
