<svg width="49" height="48" viewBox="0 0 49 48" fill="none" xmlns="http://www.w3.org/2000/svg">
<g clip-path="url(#clip0_4426_125492)">
<path d="M8.7334 31.1954C8.7334 29.8699 9.80792 28.7954 11.1334 28.7954H18.3334C19.6589 28.7954 20.7334 29.8699 20.7334 31.1954V38.3954C20.7334 39.7209 19.6589 40.7954 18.3334 40.7954H11.1334C9.80791 40.7954 8.7334 39.7209 8.7334 38.3954V31.1954Z" fill="#4CAF50"/>
<path d="M5.56428 26.1056C5.19748 26.103 4.84642 25.9562 4.58705 25.6968C4.32768 25.4374 4.18086 25.0864 4.17834 24.7196V16.2764C4.1853 14.9258 4.59994 13.6089 5.36796 12.4981C6.13597 11.3872 7.22156 10.5342 8.48253 10.0508L23.1506 4.50915C23.8898 4.22552 24.6874 4.12774 25.4732 4.22441C26.259 4.32107 27.0091 4.60922 27.6576 5.06355C28.3087 5.51387 28.8406 6.11572 29.2074 6.81728C29.5743 7.51883 29.7651 8.29906 29.7635 9.09075V16.1108C29.7689 16.2961 29.7371 16.4807 29.67 16.6535C29.6028 16.8264 29.5016 16.984 29.3724 17.1171C29.2433 17.2501 29.0887 17.3559 28.9179 17.4281C28.7471 17.5003 28.5636 17.5375 28.3781 17.5375C28.1927 17.5375 28.0092 17.5003 27.8384 17.4281C27.6676 17.3559 27.513 17.2501 27.3838 17.1171C27.2546 16.984 27.1535 16.8264 27.0863 16.6535C27.0191 16.4807 26.9874 16.2961 26.9928 16.1108V9.09075C26.9947 8.74477 26.9113 8.40365 26.7502 8.09749C26.5891 7.79132 26.3551 7.52951 26.0689 7.33515C25.7884 7.13493 25.4623 7.00807 25.1202 6.96615C24.7782 6.92424 24.4311 6.96858 24.1105 7.09515L9.44368 12.6368C8.70762 12.9206 8.07418 13.4197 7.62597 14.069C7.17775 14.7182 6.93557 15.4874 6.93101 16.2764V24.7196C6.93486 24.901 6.90229 25.0814 6.83521 25.25C6.76813 25.4187 6.66792 25.5721 6.54049 25.7014C6.41306 25.8306 6.26101 25.9329 6.09333 26.0024C5.92565 26.0718 5.74575 26.1069 5.56428 26.1056Z" fill="#4CAF50"/>
<path fill-rule="evenodd" clip-rule="evenodd" d="M4.18325 22.4485V22.5391C4.17277 22.713 4.16768 22.8872 4.16798 23.0615V35.4889C4.15499 37.1469 4.64432 38.7698 5.57171 40.1442C5.7388 40.3935 5.91886 40.6329 6.1109 40.8615C6.79228 41.6696 7.62324 42.3428 8.56103 42.8424C9.76569 43.4842 11.1097 43.8199 12.4746 43.8199H33.7196L33.7184 43.8151C34.812 43.8165 35.8951 43.6019 36.9055 43.1835C37.9159 42.7651 38.8338 42.1512 39.6062 41.377C40.3787 40.6029 40.9906 39.6838 41.4068 38.6724C41.823 37.6611 42.0353 36.5775 42.0315 35.4839V34.6769H37.0725C35.7634 34.6773 34.4979 34.195 33.5221 33.3224C32.5463 32.4497 31.9285 31.2487 31.7833 29.9478C31.7108 29.1918 31.8094 28.4284 32.0715 27.7156C32.2612 27.1998 32.5328 26.7196 32.875 26.2931C33.006 26.1295 33.1474 25.9737 33.2984 25.8268C33.7709 25.3475 34.335 24.968 34.9572 24.7109C35.5793 24.4539 36.2467 24.3245 36.9198 24.3305H42.0255V23.0621C42.0255 22.9554 42.0238 22.848 42.0198 22.7421C42.0175 22.6974 42.0143 22.653 42.0101 22.6092C41.9876 22.1446 41.9253 21.6838 41.8242 21.2319C41.7842 21.0536 41.7383 20.8766 41.6865 20.7013C41.5676 20.2995 41.4174 19.9066 41.2368 19.5264C40.5753 18.1147 39.5334 16.9158 38.2278 16.064C37.3425 15.4915 36.3564 15.0922 35.3219 14.8887C34.789 14.779 34.2467 14.7246 33.7026 14.7259H12.4943C11.9298 14.7263 11.3663 14.7859 10.814 14.9028C9.36841 15.1993 8.03091 15.8742 6.93571 16.855V16.8478C6.82101 16.9504 6.70896 17.0564 6.59973 17.1656C5.44812 18.3173 4.65925 19.7811 4.33062 21.3762C4.25845 21.7303 4.20925 22.0885 4.18325 22.4485ZM10.1766 33.982C10.4572 33.7027 10.8352 33.5443 11.2312 33.5403H14.8225H18.4115C18.8074 33.5443 19.1854 33.7027 19.4661 33.982C19.7467 34.2613 19.9077 34.6383 19.9137 35.0342C19.9143 35.4335 19.7571 35.8175 19.4754 36.1005C19.1938 36.3835 18.8108 36.5433 18.4115 36.5446C18.4115 36.5446 16.2241 36.5446 14.8225 36.5446C13.42 36.5446 11.2312 36.5446 11.2312 36.5446C10.8319 36.5433 10.4489 36.3835 10.1672 36.1005C9.88558 35.8175 9.72836 35.4335 9.729 35.0342C9.73493 34.6383 9.89596 34.2613 10.1766 33.982Z" fill="#FFC107"/>
<path d="M43.8942 33.1217H36.5817C36.1729 33.121 35.7698 33.0326 35.3981 32.8625C35.0215 32.6916 34.6805 32.4513 34.3926 32.1543C34.0931 31.8482 33.8487 31.4921 33.6719 31.102C33.4856 30.6943 33.3742 30.2568 33.3415 29.8097C33.2927 29.2919 33.346 28.7694 33.4997 28.2725C33.6533 27.7756 33.9031 27.314 34.2356 26.914C34.4782 26.5948 34.7918 26.3358 35.1508 26.1573C35.5098 25.9787 35.9053 25.8854 36.3063 25.8845H43.8262C43.9141 25.8907 44.0005 25.914 44.0794 25.9534C44.1582 25.9927 44.2278 26.0471 44.2856 26.1136C44.4076 26.2599 44.4731 26.4453 44.4696 26.6357V32.3706C44.4723 32.5627 44.4112 32.7501 44.295 32.9032C44.2491 32.9676 44.1886 33.0206 44.1192 33.0584C44.0498 33.0963 43.9732 33.1181 43.8942 33.1217Z" fill="#4CAF50"/>
</g>
<defs>
<clipPath id="clip0_4426_125492">
<rect width="48" height="48" fill="white" transform="translate(0.333374)"/>
</clipPath>
</defs>
</svg>
