<svg width="16" height="16" viewBox="0 0 16 16" fill="none" xmlns="http://www.w3.org/2000/svg">
<g clip-path="url(#clip0_6689_572)">
<path d="M1.49946 12.776C1.40794 12.5824 1.33033 12.3825 1.26735 12.1778C1.19998 11.9553 1.14578 11.729 1.10447 11.5002C1.05942 11.2492 1.02706 10.9963 1.0077 10.7421C0.986748 10.4782 0.97583 10.1949 0.97583 9.90086V6.01221C0.97583 5.72055 0.985952 5.43936 1.0073 5.1771C1.02865 4.91485 1.06063 4.65939 1.10172 4.42373C1.14264 4.19634 1.19621 3.9714 1.26262 3.75011C1.32486 3.54645 1.40133 3.34737 1.49119 3.1543L5.12471 5.81964C5.04336 5.92462 4.96797 6.03395 4.8985 6.14715C4.78795 6.32865 4.69351 6.51954 4.61643 6.71759C4.458 7.12651 4.37708 7.56127 4.37763 7.99981C4.37692 8.43922 4.4581 8.87489 4.61722 9.28448C4.69368 9.48306 4.78815 9.67425 4.89929 9.85571C4.95287 9.94474 5.01191 10.0326 5.07475 10.1168L1.49946 12.776ZM6.15741 9.31153C6.14734 9.29783 6.13756 9.28369 6.1283 9.27121C5.86921 8.89822 5.73058 8.45474 5.73135 8.0006C5.73062 7.54795 5.86871 7.10602 6.12673 6.73412C6.15452 6.69383 6.18346 6.65592 6.21327 6.61845L8.008 7.93539L6.15741 9.31232V9.31153Z" fill="#A6A6A6"/>
<path d="M7.94764 7.94787L6.19382 6.64107C6.29722 6.50592 6.41574 6.38308 6.5471 6.2749C6.67896 6.16601 6.82239 6.07219 6.97513 5.99529C7.13064 5.91727 7.29495 5.85744 7.46414 5.81688C7.63912 5.77507 7.81809 5.75398 7.99799 5.75403C8.55286 5.75337 9.08892 5.95548 9.50514 6.32241L10.4399 5.34872C9.7704 4.7442 8.89962 4.4106 7.9976 4.4129C7.48283 4.41287 6.97411 4.52203 6.50462 4.73313C6.03512 4.94424 5.61564 5.25249 5.27403 5.63758C5.21804 5.70123 5.1635 5.76769 5.11274 5.83537L1.49731 3.1415C1.58281 2.9602 1.68338 2.78635 1.79788 2.62181C1.9081 2.46322 2.03237 2.31497 2.16926 2.17873C2.3063 2.04194 2.45546 1.91759 2.61459 1.80726C2.77926 1.69319 2.95309 1.59299 3.13429 1.50758C3.32753 1.41671 3.52683 1.33982 3.73109 1.27753C3.95255 1.21023 4.17781 1.15636 4.40578 1.11634C4.64266 1.07363 4.89644 1.0414 5.16152 1.02005C5.42659 0.998698 5.70621 0.988281 5.99909 0.988281H9.8895C10.1856 0.988281 10.4703 0.99918 10.7353 1.02093C11.0004 1.04269 11.2592 1.07568 11.4989 1.11919C11.729 1.16066 11.9562 1.21613 12.1795 1.28521C12.3851 1.34914 12.5858 1.42788 12.7799 1.52086C12.9626 1.60866 13.1377 1.71145 13.3035 1.82821C13.4624 1.94144 13.611 2.06889 13.7469 2.20893C13.8841 2.34916 14.0081 2.50161 14.1175 2.6645C14.2332 2.84307 14.3347 3.03047 14.4212 3.22491L8.6782 7.41254L8.14828 7.41854V7.80211L7.94685 7.94994L7.94764 7.94787Z" fill="#A6A6A6"/>
<path d="M9.88833 14.9244H5.9991C3.62228 14.9244 2.18875 14.2363 1.49182 12.759L5.06279 10.1002C5.12926 10.1916 5.2007 10.2807 5.27523 10.3653C5.61643 10.7504 6.03546 11.0587 6.50463 11.2698C6.9738 11.4809 7.48275 11.59 7.99722 11.5899C8.74485 11.5917 9.4745 11.362 10.0862 10.9321C10.4027 10.7103 10.6816 10.4392 10.9124 10.1292L14.4212 12.7075C14.3373 12.8939 14.2384 13.0729 14.1249 13.2428C14.0157 13.4065 13.8918 13.5599 13.7548 13.701C13.6181 13.8416 13.4688 13.9695 13.309 14.0832C13.1442 14.2007 12.9699 14.304 12.7878 14.3922C12.5924 14.4857 12.3904 14.5649 12.1835 14.6291C11.9601 14.6988 11.7324 14.7546 11.5021 14.7963C11.2624 14.8398 11.0056 14.8732 10.7369 14.8949C10.4682 14.9167 10.1856 14.9244 9.88833 14.9244ZM7.99486 10.2481C7.80813 10.2482 7.62209 10.2253 7.44094 10.1799C7.26541 10.136 7.09584 10.071 6.93581 9.98659C6.77826 9.90354 6.63107 9.80225 6.49716 9.68484C6.36392 9.56781 6.24475 9.43581 6.14191 9.29134L7.94568 7.94824L8.14711 8.09607V8.65726H8.91229L9.8246 9.32842C9.69062 9.50934 9.53068 9.66938 9.34976 9.80336L9.46503 9.9798L9.34976 9.80375C9.15853 9.94476 8.94668 10.0551 8.72149 10.1309C8.48783 10.2088 8.24315 10.2484 7.99683 10.2481H7.99486Z" fill="#A6A6A6"/>
<path d="M14.4072 12.7356L10.9086 10.1327C11.372 9.5175 11.6218 8.7679 11.6203 7.99767C11.6205 7.79515 11.6034 7.59299 11.5691 7.39339H10.1831L8.6638 7.4107L14.4154 3.19238C14.502 3.38387 14.5753 3.58109 14.6349 3.78259C14.6997 4.0012 14.7515 4.22346 14.7903 4.44814C14.8306 4.68099 14.8619 4.93157 14.8824 5.1906C14.9029 5.44963 14.9131 5.72471 14.9131 6.01194V9.90068C14.9131 10.1899 14.9022 10.4679 14.882 10.7277C14.8619 10.9876 14.8299 11.2409 14.7888 11.475C14.7492 11.7008 14.6968 11.9241 14.6314 12.1438C14.5703 12.3462 14.4952 12.5441 14.4072 12.7364V12.7356ZM9.8275 9.32788L8.92581 8.65712H10.167C10.0926 8.89832 9.97787 9.12515 9.8275 9.32788ZM8.1504 8.07901L7.95251 7.93158L8.1504 7.78611V8.07901Z" fill="#A6A6A6"/>
</g>
<defs>
<clipPath id="clip0_6689_572">
<rect width="16" height="16" fill="white"/>
</clipPath>
</defs>
</svg>
