<svg width="17" height="16" viewBox="0 0 17 16" fill="none" xmlns="http://www.w3.org/2000/svg">
<g clip-path="url(#clip0_6689_607)">
<path d="M10.2587 14.9331H6.36593C2.84015 14.9331 1.33521 13.4278 1.33521 9.90013V6.00364C1.33521 2.47595 2.84015 0.970703 6.36593 0.970703H10.2587C13.7845 0.970703 15.2894 2.47595 15.2894 6.00364V9.90013C15.2894 13.4282 13.7845 14.9331 10.2587 14.9331ZM4.58146 10.4181C4.90653 10.6371 5.26198 10.8069 5.63659 10.9221C6.0105 11.037 6.3994 11.0953 6.79056 11.095C6.85096 11.095 6.91071 11.095 6.96791 11.091C7.26837 11.0878 7.56799 11.0562 7.86248 10.9965C8.25339 10.9048 8.63065 10.763 8.9852 10.5746C9.34064 10.3872 9.66978 10.1536 9.96376 9.87971C10.1849 9.66729 10.3813 9.43062 10.5493 9.17413C10.7169 8.91715 10.8554 8.64221 10.9619 8.35448C11.0778 8.04822 11.1623 7.73101 11.2142 7.40768C11.2665 7.08433 11.2855 6.75648 11.2712 6.42924C11.4264 6.30588 11.5697 6.16817 11.699 6.018C11.8281 5.86702 11.943 5.70466 12.0428 5.53283C11.7809 5.67296 11.4934 5.75792 11.1974 5.78244C11.3238 5.68125 11.4408 5.56889 11.547 5.44679C11.6168 5.36651 11.6774 5.27861 11.7275 5.18477C11.7591 5.12941 11.7827 5.06994 11.7978 5.00801C11.8044 4.98184 11.8077 4.95501 11.808 4.92803C11.5207 5.14929 11.1705 5.27353 10.8079 5.28282H10.7841C10.7121 5.21192 10.6338 5.14778 10.5501 5.09122C10.4655 5.03568 10.3755 4.98885 10.2814 4.95156C10.1927 4.91461 10.1003 4.88707 10.006 4.86924C9.91155 4.85007 9.81555 4.84041 9.71922 4.84043H9.70437H9.69226C9.5917 4.84298 9.49199 4.85532 9.39381 4.87725C9.29633 4.8997 9.20085 4.93137 9.10942 4.97197C9.01846 5.01261 8.93197 5.06224 8.85082 5.12003C8.76826 5.17826 8.69141 5.24426 8.62151 5.3172C8.55264 5.39093 8.49126 5.47137 8.43829 5.55724C8.38471 5.64126 8.33959 5.73037 8.30352 5.82327C8.26789 5.91655 8.24103 6.01296 8.22344 6.11126C8.2056 6.21075 8.19848 6.31181 8.20195 6.41283C8.20311 6.54206 8.22092 6.67062 8.25508 6.79526C8.21508 6.79966 8.17501 6.8009 8.1414 6.8021H8.13867C8.12668 6.80141 8.11472 6.80141 8.10273 6.8021C7.31616 6.77925 6.55675 6.50988 5.93153 6.03206C5.60419 5.80252 5.30331 5.53726 5.03461 5.24122C4.96351 5.36312 4.91084 5.49481 4.87796 5.63205C4.84399 5.7691 4.82867 5.91006 4.83265 6.0512C4.83967 6.16476 4.85855 6.27731 4.88929 6.38685C4.91968 6.49665 4.96198 6.60286 5.01508 6.70366C5.07338 6.81621 5.14156 6.92333 5.21899 7.02369C5.29637 7.12302 5.38228 7.21524 5.47604 7.29928C5.45326 7.30289 5.43033 7.3052 5.40728 7.30612H5.4026C5.20938 7.2928 5.02368 7.22627 4.86585 7.11402C4.86318 7.25136 4.87708 7.38851 4.90765 7.52243C4.9407 7.65537 4.98903 7.78417 5.05141 7.90613C5.10182 7.99746 5.16159 8.08333 5.22954 8.16248C5.29822 8.24021 5.37463 8.31044 5.45807 8.37206C5.54663 8.43705 5.64122 8.4935 5.7405 8.54052C5.83972 8.58717 5.94364 8.62349 6.05028 8.64892C5.95778 8.68868 5.85799 8.70918 5.7573 8.70928H5.73113H5.71628C5.61924 8.70891 5.52257 8.69973 5.42721 8.68174H5.42369C5.46879 8.83069 5.53784 8.97141 5.62761 9.09854C5.71581 9.22598 5.82377 9.33848 5.94755 9.43175C6.07082 9.52591 6.20863 9.59904 6.35577 9.64817C6.50262 9.69917 6.65698 9.72617 6.81243 9.72815C6.58635 9.96559 6.31159 10.1517 6.00731 10.2738C5.72868 10.3869 5.43104 10.445 5.13032 10.445C5.10392 10.445 5.07744 10.445 5.05023 10.445H4.98148C4.84772 10.4449 4.71411 10.4362 4.58146 10.419V10.4181Z" fill="#A6A6A6"/>
</g>
<defs>
<clipPath id="clip0_6689_607">
<rect width="16" height="16" fill="white" transform="translate(0.375)"/>
</clipPath>
</defs>
</svg>
