<svg width="17" height="16" viewBox="0 0 17 16" fill="none" xmlns="http://www.w3.org/2000/svg">
<g clip-path="url(#clip0_6689_602)">
<path fill-rule="evenodd" clip-rule="evenodd" d="M2.09897 14.8531C2.15628 14.8778 2.21778 14.8914 2.28018 14.8931C2.32398 14.8919 2.36744 14.885 2.40938 14.8723L5.39352 14.0435C6.84536 14.8349 8.53357 15.0772 10.1494 14.7263C11.7653 14.3753 13.2008 13.4544 14.1935 12.132C15.1862 10.8097 15.6698 9.17418 15.5558 7.52459C15.4419 5.875 14.7379 4.32155 13.5727 3.1483C12.4076 1.97505 10.859 1.26044 9.21021 1.13506C7.56144 1.00969 5.92266 1.48193 4.59348 2.4655C3.26429 3.44907 2.33353 4.87824 1.97142 6.49163C1.60931 8.10502 1.84 9.79485 2.62136 11.2521L1.81174 14.2786C1.78866 14.3619 1.78866 14.4499 1.81174 14.5331C1.83497 14.6148 1.87877 14.6891 1.93895 14.7491C1.98389 14.7952 2.03856 14.8307 2.09897 14.8531ZM9.49208 10.7866C9.80714 10.9012 10.142 10.9516 10.4768 10.9347L10.4845 10.9333C10.6778 10.9196 10.8667 10.8687 11.0407 10.7832C11.0424 10.7831 11.044 10.7824 11.0457 10.7816C11.0473 10.7808 11.049 10.7801 11.0507 10.7799C11.2318 10.6881 11.3899 10.5568 11.5135 10.3957C11.5887 10.299 11.6493 10.1918 11.6934 10.0775C11.7044 10.0542 11.7124 10.0297 11.7176 10.0044C11.7426 9.92144 11.7522 9.83457 11.7458 9.74813C11.7399 9.66864 11.7182 9.59114 11.6818 9.52022C11.641 9.4453 11.58 9.38335 11.5057 9.34138L10.4701 8.71276C10.4023 8.67124 10.3302 8.6372 10.255 8.61126C10.1956 8.59062 10.1327 8.58196 10.0699 8.58571C9.99479 8.59118 9.92272 8.61779 9.86211 8.66251C9.78651 8.71321 9.7186 8.77456 9.66047 8.84461L9.44984 9.08349C9.43555 9.10126 9.41716 9.11548 9.39642 9.12499C9.37626 9.13563 9.35403 9.14154 9.33125 9.14225C9.30603 9.14482 9.28062 9.1426 9.25623 9.13573C9.24617 9.13243 9.23695 9.12892 9.22816 9.12558C9.21813 9.12177 9.20865 9.11817 9.19908 9.11531C9.12446 9.08065 9.05229 9.04103 8.98296 8.99673L8.36836 8.52843C8.35958 8.52101 8.35062 8.51359 8.34164 8.50613C8.32544 8.49269 8.30915 8.47917 8.29356 8.46552C8.12815 8.3185 7.97416 8.17069 7.8289 8.02655C7.71695 7.91565 7.61548 7.79467 7.52573 7.66516C7.52253 7.65624 7.51793 7.64736 7.51279 7.63746C7.50806 7.62834 7.50288 7.61835 7.49794 7.60666C7.48962 7.58526 7.48492 7.56262 7.48401 7.53967C7.48185 7.51752 7.48395 7.49516 7.49026 7.47382C7.49788 7.4529 7.50935 7.43363 7.52417 7.417L7.73334 7.16639C7.79315 7.09923 7.84384 7.0246 7.88442 6.94435C7.91942 6.87837 7.93618 6.80416 7.93255 6.72956C7.92614 6.6668 7.90723 6.60595 7.87701 6.55057C7.84106 6.4788 7.79615 6.41181 7.74358 6.35113L6.98621 5.42868C6.93077 5.35962 6.8574 5.30704 6.77422 5.2766C6.69637 5.24589 6.61254 5.23346 6.52913 5.24026C6.4129 5.25148 6.30004 5.28566 6.19713 5.34082C6.09445 5.3963 6.004 5.47171 5.93084 5.56263C5.79112 5.71129 5.6858 5.8889 5.62253 6.08284C5.56391 6.27058 5.54141 6.46772 5.55621 6.66384C5.58658 6.99783 5.68134 7.32281 5.83514 7.62085C6.01779 7.96759 6.23776 8.29337 6.49105 8.59245C6.7671 8.91914 7.06742 9.22448 7.38957 9.50583C7.40618 9.52015 7.42292 9.53374 7.43965 9.54731C7.45812 9.56229 7.47656 9.57726 7.49479 9.59319C7.51112 9.60693 7.52893 9.6189 7.54778 9.6289L8.0818 10.0416C8.19132 10.119 8.30386 10.1918 8.41681 10.2648L8.42505 10.2702C8.76027 10.4817 9.11814 10.655 9.49208 10.7866Z" fill="#A6A6A6"/>
</g>
<defs>
<clipPath id="clip0_6689_602">
<rect width="16" height="16" fill="white" transform="translate(0.6875)"/>
</clipPath>
</defs>
</svg>
