<svg width="14" height="14" viewBox="0 0 14 14" fill="none" xmlns="http://www.w3.org/2000/svg">
<path d="M9.25004 2.50012C9.25004 2.3012 9.32905 2.11044 9.46971 1.96979C9.61036 1.82913 9.80112 1.75012 10 1.75012H10.75V1.00012C10.75 0.801203 10.8291 0.610438 10.9697 0.469786C11.1104 0.329133 11.3011 0.250116 11.5 0.250116C11.6989 0.250116 11.8897 0.329133 12.0304 0.469786C12.171 0.610438 12.25 0.801203 12.25 1.00012V1.75012H13C13.1989 1.75012 13.3897 1.82913 13.5304 1.96979C13.671 2.11044 13.75 2.3012 13.75 2.50012C13.75 2.69903 13.671 2.88979 13.5304 3.03045C13.3897 3.1711 13.1989 3.25012 13 3.25012H12.25V4.00012C12.25 4.19903 12.171 4.38979 12.0304 4.53045C11.8897 4.6711 11.6989 4.75012 11.5 4.75012C11.3011 4.75012 11.1104 4.6711 10.9697 4.53045C10.8291 4.38979 10.75 4.19903 10.75 4.00012V3.25012H10C9.80112 3.25012 9.61036 3.1711 9.46971 3.03045C9.32905 2.88979 9.25004 2.69903 9.25004 2.50012ZM13.6569 5.87512C13.8938 7.28465 13.6766 8.73299 13.0367 10.0111C12.3968 11.2891 11.3674 12.3308 10.0969 12.9856C8.82647 13.6405 7.38078 13.8747 5.96856 13.6545C4.55633 13.4342 3.25064 12.7708 2.23998 11.7602C1.22931 10.7495 0.565961 9.44382 0.345692 8.03159C0.125423 6.61937 0.359631 5.17368 1.0145 3.90324C1.66938 2.63279 2.71104 1.60332 3.9891 0.963437C5.26716 0.323556 6.7155 0.106372 8.12504 0.343241C8.32121 0.376393 8.49619 0.486118 8.61146 0.648279C8.72674 0.810439 8.77287 1.01175 8.73972 1.20793C8.70657 1.40411 8.59684 1.57908 8.43468 1.69435C8.27252 1.80963 8.07121 1.85577 7.87504 1.82262C7.58587 1.77435 7.2932 1.7501 7.00004 1.75012C6.01448 1.74945 5.04867 2.02641 4.21324 2.54927C3.37781 3.07213 2.70656 3.81973 2.27638 4.70645C1.8462 5.59316 1.67449 6.58312 1.78092 7.56291C1.88735 8.5427 2.26762 9.4727 2.87816 10.2464C3.36428 9.62807 3.98389 9.12768 4.69066 8.78262C4.24023 8.32648 3.93475 7.74733 3.81265 7.11802C3.69056 6.4887 3.7573 5.83734 4.00448 5.24586C4.25166 4.65438 4.66823 4.14921 5.20181 3.7939C5.73538 3.43859 6.36211 3.24901 7.00316 3.24901C7.64421 3.24901 8.27094 3.43859 8.80451 3.7939C9.33809 4.14921 9.75467 4.65438 10.0018 5.24586C10.249 5.83734 10.3158 6.4887 10.1937 7.11802C10.0716 7.74733 9.76609 8.32648 9.31566 8.78262C10.0226 9.12746 10.6422 9.62789 11.1282 10.2464C11.8576 9.32181 12.253 8.17777 12.25 7.00012C12.25 6.70695 12.2257 6.41429 12.1775 6.12512C12.1444 5.92894 12.1905 5.72763 12.3058 5.56547C12.4211 5.40331 12.596 5.29358 12.7922 5.26043C12.9884 5.22728 13.1897 5.27341 13.3519 5.38869C13.514 5.50397 13.6238 5.67894 13.6569 5.87512ZM7.00004 8.25012C7.34615 8.25012 7.6845 8.14748 7.97228 7.95519C8.26007 7.76289 8.48437 7.48958 8.61682 7.16981C8.74928 6.85004 8.78393 6.49817 8.71641 6.15871C8.64889 5.81924 8.48221 5.50742 8.23747 5.26268C7.99273 5.01794 7.68091 4.85127 7.34144 4.78374C7.00198 4.71622 6.65011 4.75087 6.33034 4.88333C6.01057 5.01578 5.73726 5.24008 5.54496 5.52787C5.35267 5.81565 5.25004 6.154 5.25004 6.50012C5.25004 6.96424 5.43441 7.40936 5.7626 7.73755C6.09079 8.06574 6.53591 8.25012 7.00004 8.25012ZM7.00004 12.2501C8.08468 12.2509 9.14263 11.9138 10.0269 11.2857C9.67874 10.8097 9.22318 10.4224 8.69725 10.1555C8.17132 9.88857 7.58983 9.74945 7.00004 9.74945C6.41024 9.74945 5.82875 9.88857 5.30282 10.1555C4.77689 10.4224 4.32133 10.8097 3.97316 11.2857C4.85744 11.9138 5.91539 12.2509 7.00004 12.2501Z" fill="#2196F3"/>
</svg>
