<svg width="16" height="14" viewBox="0 0 16 14" fill="none" xmlns="http://www.w3.org/2000/svg">
<path d="M4.47996 5.07641L2.17121 7.00016L4.47996 8.92391C4.55653 8.98666 4.61992 9.06395 4.66647 9.15131C4.71302 9.23868 4.74182 9.3344 4.7512 9.43295C4.76057 9.5315 4.75035 9.63093 4.72111 9.72551C4.69187 9.82009 4.6442 9.90795 4.58084 9.98401C4.51748 10.0601 4.43969 10.1228 4.35195 10.1687C4.26421 10.2146 4.16827 10.2426 4.06964 10.2512C3.97102 10.2598 3.87167 10.2487 3.77733 10.2187C3.68299 10.1888 3.59552 10.1404 3.51996 10.0764L0.519963 7.57641C0.43547 7.50603 0.367489 7.41792 0.320836 7.31834C0.274183 7.21876 0.25 7.11013 0.25 7.00016C0.25 6.89019 0.274183 6.78157 0.320836 6.68199C0.367489 6.5824 0.43547 6.4943 0.519963 6.42391L3.51996 3.92391C3.67301 3.79849 3.86942 3.73863 4.0664 3.75737C4.26339 3.77612 4.44498 3.87195 4.57162 4.02398C4.69827 4.17602 4.7597 4.37195 4.74253 4.56907C4.72536 4.7662 4.63098 4.94856 4.47996 5.07641ZM15.48 6.42391L12.48 3.92391C12.4044 3.85995 12.3169 3.81157 12.2226 3.78158C12.1283 3.75158 12.0289 3.74056 11.9303 3.74915C11.8317 3.75774 11.7357 3.78577 11.648 3.83162C11.5602 3.87748 11.4824 3.94025 11.4191 4.01631C11.3557 4.09237 11.3081 4.18023 11.2788 4.27481C11.2496 4.36939 11.2394 4.46882 11.2487 4.56737C11.2581 4.66592 11.2869 4.76164 11.3335 4.84901C11.38 4.93638 11.4434 5.01366 11.52 5.07641L13.8287 7.00016L11.52 8.92391C11.4434 8.98666 11.38 9.06395 11.3335 9.15131C11.2869 9.23868 11.2581 9.3344 11.2487 9.43295C11.2394 9.5315 11.2496 9.63093 11.2788 9.72551C11.3081 9.82009 11.3557 9.90795 11.4191 9.98401C11.4824 10.0601 11.5602 10.1228 11.648 10.1687C11.7357 10.2146 11.8317 10.2426 11.9303 10.2512C12.0289 10.2598 12.1283 10.2487 12.2226 10.2187C12.3169 10.1888 12.4044 10.1404 12.48 10.0764L15.48 7.57641C15.5645 7.50603 15.6324 7.41792 15.6791 7.31834C15.7257 7.21876 15.7499 7.11013 15.7499 7.00016C15.7499 6.89019 15.7257 6.78157 15.6791 6.68199C15.6324 6.5824 15.5645 6.4943 15.48 6.42391ZM10.2562 0.795162C10.1636 0.761493 10.0653 0.746394 9.96691 0.750725C9.86849 0.755057 9.77189 0.778736 9.68263 0.820408C9.59336 0.86208 9.51318 0.92093 9.44667 0.993596C9.38015 1.06626 9.3286 1.15132 9.29496 1.24391L5.29496 12.2439C5.22716 12.4308 5.23634 12.637 5.32049 12.8171C5.40464 12.9972 5.55686 13.1366 5.74371 13.2045C5.82575 13.2348 5.91252 13.2503 5.99996 13.2502C6.15395 13.2502 6.30421 13.2028 6.43034 13.1145C6.55647 13.0261 6.65235 12.9011 6.70496 12.7564L10.705 1.75641C10.7386 1.66383 10.7537 1.56552 10.7494 1.46711C10.7451 1.36869 10.7214 1.27209 10.6797 1.18283C10.638 1.09356 10.5792 1.01338 10.5065 0.946864C10.4339 0.880348 10.3488 0.828799 10.2562 0.795162Z" fill="#2196F3"/>
</svg>
