<svg width="14" height="14" viewBox="0 0 14 14" fill="none" xmlns="http://www.w3.org/2000/svg">
<path d="M7 0.25C5.66498 0.25 4.35994 0.645881 3.2499 1.38758C2.13987 2.12928 1.27471 3.18349 0.763816 4.41689C0.252925 5.65029 0.119252 7.00749 0.379702 8.31686C0.640153 9.62623 1.28303 10.829 2.22703 11.773C3.17104 12.717 4.37377 13.3598 5.68314 13.6203C6.99252 13.8808 8.34971 13.7471 9.58312 13.2362C10.8165 12.7253 11.8707 11.8601 12.6124 10.7501C13.3541 9.64007 13.75 8.33502 13.75 7C13.748 5.2104 13.0362 3.49466 11.7708 2.22922C10.5053 0.963781 8.78961 0.251985 7 0.25ZM7 12.25C5.96165 12.25 4.94662 11.9421 4.08326 11.3652C3.2199 10.7883 2.547 9.9684 2.14964 9.00909C1.75228 8.04978 1.64831 6.99418 1.85088 5.97578C2.05345 4.95738 2.55347 4.02191 3.28769 3.28769C4.02192 2.55346 4.95738 2.05345 5.97578 1.85088C6.99418 1.6483 8.04978 1.75227 9.00909 2.14963C9.9684 2.54699 10.7883 3.2199 11.3652 4.08326C11.9421 4.94661 12.25 5.96165 12.25 7C12.2485 8.39193 11.6949 9.72642 10.7107 10.7107C9.72643 11.6949 8.39193 12.2485 7 12.25ZM9.53063 5.96938C9.67152 6.11027 9.75068 6.30137 9.75068 6.50063C9.75068 6.69988 9.67152 6.89098 9.53063 7.03187C9.38973 7.17277 9.19864 7.25193 8.99938 7.25193C8.80012 7.25193 8.60902 7.17277 8.46813 7.03187L7.75 6.3125V9.5C7.75 9.69891 7.67098 9.88968 7.53033 10.0303C7.38968 10.171 7.19892 10.25 7 10.25C6.80109 10.25 6.61032 10.171 6.46967 10.0303C6.32902 9.88968 6.25 9.69891 6.25 9.5V6.3125L5.53063 7.0325C5.38973 7.1734 5.19864 7.25255 4.99938 7.25255C4.80012 7.25255 4.60902 7.1734 4.46813 7.0325C4.32723 6.8916 4.24808 6.70051 4.24808 6.50125C4.24808 6.30199 4.32723 6.1109 4.46813 5.97L6.46813 3.97C6.53781 3.90008 6.6206 3.8446 6.71176 3.80675C6.80293 3.76889 6.90067 3.74941 6.99938 3.74941C7.09809 3.74941 7.19583 3.76889 7.28699 3.80675C7.37816 3.8446 7.46095 3.90008 7.53063 3.97L9.53063 5.96938Z" fill="#2196F3"/>
</svg>
