<svg width="16" height="16" viewBox="0 0 16 16" fill="none" xmlns="http://www.w3.org/2000/svg">
<path d="M7.72751 13.6819C7.68695 13.8441 7.59333 13.9882 7.46151 14.0911C7.3297 14.194 7.16726 14.25 7.00001 14.25C6.9385 14.2498 6.87722 14.2423 6.81751 14.2275L4.81751 13.7275C4.73422 13.7072 4.65512 13.6725 4.58376 13.625L3.08376 12.625C2.918 12.5146 2.80288 12.3429 2.76374 12.1476C2.72459 11.9523 2.76461 11.7495 2.87501 11.5837C2.98541 11.418 3.15713 11.3029 3.3524 11.2637C3.54767 11.2246 3.7505 11.2646 3.91626 11.375L5.30814 12.3031L7.18314 12.7719C7.37597 12.8204 7.54164 12.9435 7.64372 13.1142C7.74581 13.2848 7.77594 13.489 7.72751 13.6819ZM15.9375 7.67188C15.8862 7.82759 15.8045 7.97159 15.6972 8.09559C15.59 8.2196 15.4592 8.32114 15.3125 8.39438L13.8831 9.10938L10.5344 12.53C10.4428 12.6217 10.329 12.688 10.2042 12.7226C10.0793 12.7573 9.94759 12.7589 9.82189 12.7275L5.82189 11.7275C5.72804 11.7038 5.63958 11.6625 5.56126 11.6056L2.18751 9.1425L0.69126 8.3925C0.54416 8.3194 0.412911 8.21802 0.305017 8.09416C0.197122 7.9703 0.114698 7.82638 0.0624576 7.67065C0.0102168 7.51491 -0.0108164 7.35041 0.000560254 7.18654C0.011937 7.02267 0.0555005 6.86265 0.12876 6.71563L1.68751 3.61188C1.83582 3.31545 2.09579 3.09006 2.41025 2.98528C2.72471 2.8805 3.06792 2.9049 3.36439 3.05313L4.65126 3.6975L7.78939 2.78C7.92695 2.74 8.07307 2.74 8.21064 2.78L11.3488 3.6975L12.6381 3.0525C12.9344 2.90511 13.2771 2.88123 13.5909 2.98609C13.9048 3.09094 14.1643 3.31599 14.3125 3.61188L15.8656 6.7175C15.9402 6.86391 15.9849 7.02365 15.9973 7.18748C16.0096 7.35131 15.9893 7.51596 15.9375 7.67188ZM12.5188 8.375L10.9563 5.25H9.30376L6.91626 7.56563C7.90126 8.01938 8.86376 7.5775 9.46751 6.96875C9.59789 6.8377 9.77207 6.75941 9.95662 6.74892C10.1412 6.73842 10.3231 6.79645 10.4675 6.91188L12.4213 8.47438L12.5188 8.375ZM1.58564 7.16438L2.24376 7.49375L3.57314 4.83563L2.91439 4.50625L1.58564 7.16438ZM11.375 9.5625L10.0188 8.47313C8.73814 9.42875 7.15314 9.5225 5.83126 8.67625C5.67353 8.57571 5.54037 8.44106 5.44159 8.28221C5.34282 8.12336 5.28096 7.94438 5.26057 7.75844C5.24018 7.5725 5.26177 7.38436 5.32376 7.20788C5.38576 7.0314 5.48657 6.87109 5.61876 6.73875L5.62626 6.73125L8.11376 4.3125L8.00001 4.28125L5.10376 5.12813L3.53376 8.26813L6.32439 10.3081L9.77001 11.1694L11.375 9.5625ZM14.4119 7.165L13.0856 4.50625L12.4269 4.83563L13.7563 7.49375L14.4119 7.165Z" fill="#2196F3"/>
</svg>
