<svg width="16" height="16" viewBox="0 0 16 16" fill="none" xmlns="http://www.w3.org/2000/svg">
<path d="M13.5 4.25101H11.8787C12.1107 3.91356 12.2397 3.516 12.25 3.10663C12.2593 2.79478 12.2046 2.48432 12.0895 2.19434C11.9744 1.90436 11.8013 1.64097 11.5806 1.42036C11.36 1.19975 11.0966 1.02657 10.8067 0.911463C10.5167 0.796357 10.2062 0.741754 9.89437 0.751007C9.60633 0.757154 9.32267 0.822788 9.06121 0.943788C8.79974 1.06479 8.56612 1.23854 8.375 1.45413C8.23404 1.61493 8.10849 1.78861 8 1.97288C7.89151 1.78861 7.76596 1.61493 7.625 1.45413C7.43388 1.23854 7.20026 1.06479 6.93879 0.943788C6.67733 0.822788 6.39367 0.757154 6.10563 0.751007C5.79377 0.741754 5.48332 0.796357 5.19333 0.911463C4.90335 1.02657 4.63996 1.19975 4.41935 1.42036C4.19874 1.64097 4.02556 1.90436 3.91046 2.19434C3.79535 2.48432 3.74075 2.79478 3.75 3.10663C3.76029 3.516 3.88926 3.91356 4.12125 4.25101H2.5C2.16848 4.25101 1.85054 4.3827 1.61612 4.61712C1.3817 4.85154 1.25 5.16949 1.25 5.50101V7.50101C1.24994 7.78917 1.34945 8.0685 1.53167 8.29173C1.7139 8.51496 1.96766 8.66838 2.25 8.72601V12.501C2.25 12.8325 2.3817 13.1505 2.61612 13.3849C2.85054 13.6193 3.16848 13.751 3.5 13.751H12.5C12.8315 13.751 13.1495 13.6193 13.3839 13.3849C13.6183 13.1505 13.75 12.8325 13.75 12.501V8.72601C14.0323 8.66838 14.2861 8.51496 14.4683 8.29173C14.6506 8.0685 14.7501 7.78917 14.75 7.50101V5.50101C14.75 5.16949 14.6183 4.85154 14.3839 4.61712C14.1495 4.3827 13.8315 4.25101 13.5 4.25101ZM13.25 7.25101H8.75V5.75101H13.25V7.25101ZM9.5 2.44913C9.55532 2.38773 9.62275 2.33843 9.69804 2.30433C9.77333 2.27024 9.85486 2.25208 9.9375 2.25101H9.95938C10.0651 2.25071 10.1699 2.27168 10.2674 2.31269C10.3649 2.35369 10.4531 2.41388 10.5269 2.48968C10.6007 2.56549 10.6584 2.65535 10.6967 2.75393C10.7351 2.85251 10.7532 2.95779 10.75 3.06351C10.7489 3.14615 10.7308 3.22768 10.6967 3.30297C10.6626 3.37826 10.6133 3.44568 10.5519 3.50101C10.1206 3.88351 9.41125 4.07976 8.825 4.17351C8.91875 3.58976 9.115 2.88038 9.5 2.44913ZM5.48125 2.48226C5.62961 2.33549 5.82944 2.25251 6.03813 2.25101H6.0625C6.14514 2.25208 6.22667 2.27024 6.30196 2.30433C6.37725 2.33843 6.44468 2.38773 6.5 2.44913C6.8825 2.88038 7.07875 3.58913 7.17188 4.17476C6.59062 4.08038 5.875 3.88413 5.44812 3.50101C5.38672 3.44568 5.33742 3.37826 5.30333 3.30297C5.26923 3.22768 5.25108 3.14615 5.25 3.06351C5.24724 2.95602 5.2663 2.84909 5.30605 2.74918C5.3458 2.64927 5.4054 2.55847 5.48125 2.48226ZM2.75 5.75101H7.25V7.25101H2.75V5.75101ZM3.75 8.75101H7.25V12.251H3.75V8.75101ZM8.75 12.251V8.75101H12.25V12.251H8.75Z" fill="#2196F3"/>
</svg>
