<svg width="24" height="24" viewBox="0 0 24 24" fill="none" xmlns="http://www.w3.org/2000/svg">
<path fill-rule="evenodd" clip-rule="evenodd" d="M7.7678 16.3404C7.17452 16.3414 6.59571 16.1585 6.11077 15.8167C5.62464 15.4767 5.25573 14.9947 5.05432 14.4367C4.97063 14.1949 4.92236 13.9423 4.91135 13.6867V13.6824C4.8887 13.5771 4.88859 13.4681 4.91135 13.3628C4.93411 13.2575 4.97906 13.1582 5.04319 13.0716C5.15925 12.9283 5.32416 12.8327 5.50608 12.8028L5.90569 12.7813H9.73772L10.1367 12.8028C10.3187 12.8327 10.483 12.9284 10.599 13.0716C10.6634 13.1582 10.7086 13.2577 10.7315 13.3631C10.7543 13.4685 10.7547 13.5775 10.7321 13.683V13.6867C10.7206 13.9422 10.6724 14.1948 10.5891 14.4367C10.3882 14.9948 10.0194 15.4769 9.53323 15.8167C9.04811 16.1581 8.46883 16.341 7.87561 16.3404H7.7678ZM6.54671 13.6795C6.44893 13.6929 6.35893 13.7397 6.29182 13.8121C6.25693 13.8528 6.23237 13.9013 6.21975 13.9534C6.20713 14.0056 6.20676 14.0599 6.21917 14.1121C6.22524 14.2387 6.2517 14.3635 6.29768 14.4816C6.42781 14.7681 6.63968 15.0099 6.90647 15.1767C7.17327 15.3435 7.48315 15.4279 7.79768 15.4194H7.85803C8.17261 15.4281 8.48241 15.3438 8.74924 15.177C9.01608 15.0102 9.22809 14.7683 9.35803 14.4816C9.40342 14.3633 9.43004 14.2386 9.43714 14.1121C9.44937 14.0598 9.44927 14.0054 9.43655 13.9533C9.42383 13.9012 9.39881 13.8528 9.36389 13.8121C9.29667 13.7395 9.20643 13.6927 9.10842 13.6795L8.88811 13.6687H6.77171L6.54671 13.6795Z" fill="#A6A6A6"/>
<path d="M12.6323 15.0318C12.4708 15.0305 12.3165 14.9658 12.2022 14.8518C12.0876 14.7374 12.0225 14.5823 12.0217 14.4204V14.2801C12.0224 14.1183 12.0876 13.9634 12.2022 13.8493C12.3162 13.7349 12.4707 13.6701 12.6323 13.6692H16.5774C16.7389 13.67 16.8935 13.7347 17.0074 13.8493C17.0644 13.9056 17.1096 13.9726 17.1405 14.0466C17.1714 14.1205 17.1873 14.1999 17.1873 14.2801V14.4204C17.1873 14.5006 17.1713 14.5802 17.1405 14.6542C17.1096 14.7282 17.0644 14.7953 17.0074 14.8518C16.8932 14.9659 16.7388 15.0306 16.5774 15.0318H12.6323Z" fill="#A6A6A6"/>
<path d="M12.6323 12.9318C12.4705 12.9313 12.3151 12.8665 12.201 12.7518C12.0864 12.6376 12.0218 12.4827 12.0211 12.321V12.1801C12.0218 12.0182 12.0864 11.8631 12.201 11.7487C12.3152 11.6342 12.4705 11.5694 12.6323 11.5687H16.4719C16.6333 11.57 16.7883 11.6346 16.9026 11.7487C16.9595 11.8052 17.0041 11.8724 17.035 11.9464C17.0659 12.0205 17.0823 12.0999 17.0824 12.1801V12.321C17.0823 12.4011 17.0659 12.4804 17.035 12.5544C17.0041 12.6283 16.9594 12.6954 16.9026 12.7518C16.7884 12.866 16.6334 12.9307 16.4719 12.9318H12.6323Z" fill="#A6A6A6"/>
<path fill-rule="evenodd" clip-rule="evenodd" d="M6.53147 11.3388C6.36474 11.173 6.23232 10.9756 6.14241 10.7583C6.05249 10.541 6.00684 10.3081 6.00764 10.0729C6.00689 9.83764 6.0525 9.60448 6.14241 9.38707C6.23232 9.16966 6.36477 8.97227 6.53147 8.80626C6.69735 8.6395 6.89424 8.50735 7.11155 8.41734C7.32886 8.32733 7.56189 8.28122 7.7971 8.28184C8.0324 8.28121 8.26582 8.32718 8.48323 8.41719C8.70064 8.5072 8.89791 8.63948 9.06389 8.80626C9.23065 8.97226 9.36295 9.16967 9.45296 9.38707C9.54296 9.60447 9.58891 9.83761 9.58831 10.0729C9.5889 10.3081 9.54297 10.541 9.45296 10.7583C9.36295 10.9756 9.23063 11.1729 9.06389 11.3388C8.89795 11.5057 8.70064 11.6381 8.48323 11.7282C8.26582 11.8183 8.03244 11.8644 7.7971 11.8638C7.56198 11.8645 7.32942 11.8187 7.11213 11.7289C6.89485 11.6391 6.69751 11.5072 6.53147 11.3407V11.3388ZM6.99085 10.0789C6.991 10.296 7.07707 10.504 7.23049 10.6575C7.38392 10.8111 7.59234 10.8976 7.8094 10.8979C8.02652 10.8976 8.23478 10.8112 8.38831 10.6577C8.54183 10.5041 8.62822 10.296 8.62854 10.0789C8.62838 9.86175 8.54186 9.65342 8.38831 9.49986C8.23475 9.3463 8.02656 9.26008 7.8094 9.25992C7.59255 9.26024 7.38447 9.34643 7.23108 9.49971C7.07769 9.653 6.99132 9.86074 6.99085 10.0776V10.0789Z" fill="#A6A6A6"/>
<path d="M12.8508 10.7551C12.6891 10.7535 12.5345 10.6889 12.4196 10.5751C12.3056 10.4602 12.2411 10.3054 12.2397 10.1437V10.0026C12.2411 9.841 12.3056 9.68651 12.4196 9.57193C12.5342 9.45776 12.689 9.39311 12.8508 9.3919H18.491C18.6526 9.3929 18.807 9.45762 18.9211 9.57193C18.978 9.62837 19.0232 9.69547 19.0541 9.76939C19.085 9.84332 19.1008 9.92248 19.101 10.0026V10.1437C19.1006 10.3056 19.0359 10.4608 18.9211 10.5751C18.8068 10.689 18.6525 10.7537 18.491 10.7551H12.8508Z" fill="#A6A6A6"/>
<path fill-rule="evenodd" clip-rule="evenodd" d="M16.8 4.80078H19.1045C19.3276 4.80078 19.5504 4.82318 19.7689 4.86787C19.9809 4.91136 20.1877 4.97571 20.3871 5.05991C20.5831 5.14292 20.771 5.24485 20.9473 5.36416C21.1224 5.48235 21.2855 5.61711 21.4348 5.7667C21.5841 5.91614 21.7189 6.07947 21.8373 6.25449C21.9564 6.43091 22.0582 6.61843 22.1414 6.81436C22.2254 7.01377 22.2897 7.22097 22.333 7.43296C22.3777 7.65153 22.4004 7.87402 22.4004 8.09712V16.0489C22.4004 16.272 22.3777 16.4945 22.333 16.713C22.2899 16.9251 22.2255 17.1323 22.1414 17.3316C22.0582 17.5276 21.9564 17.7151 21.8373 17.8915C21.7191 18.0667 21.5843 18.23 21.4348 18.3793C21.2853 18.5287 21.1223 18.6634 20.9473 18.7818C20.7709 18.9009 20.5831 19.0026 20.3871 19.0855C20.1877 19.1697 19.9809 19.234 19.7689 19.2775C19.5503 19.3222 19.3276 19.3447 19.1045 19.3448L4.87616 19.3514C4.65307 19.3513 4.4303 19.3287 4.21171 19.2841C3.9997 19.2406 3.79293 19.1763 3.59354 19.0921C3.39756 19.0092 3.20973 18.9076 3.03339 18.7886C2.85835 18.6702 2.69531 18.5353 2.54589 18.3859C2.39647 18.2365 2.26172 18.0731 2.14335 17.8981C2.02411 17.7218 1.92174 17.5344 1.83866 17.3384C1.75459 17.1389 1.69068 16.9318 1.64706 16.7198C1.60284 16.5011 1.58033 16.2785 1.58026 16.0555V8.10371C1.58033 7.88065 1.60284 7.65819 1.64706 7.43955C1.69044 7.22751 1.75436 7.02029 1.83866 6.82095C1.92171 6.62494 2.02407 6.4374 2.14335 6.26108C2.26154 6.08591 2.39631 5.92256 2.54589 5.77329C2.69524 5.6238 2.85829 5.48904 3.03339 5.37075C3.20967 5.25142 3.39751 5.14949 3.59354 5.0665C3.7929 4.98226 3.99968 4.9179 4.21171 4.87446C4.43029 4.8298 4.65306 4.80081 4.87616 4.80078H7.19999H8.50553H16.8ZM10.446 6.09093H8.74576C8.74576 6.09093 5.61203 6.09148 5.51628 6.09093C5.42052 6.09037 5.23417 6.09093 5.23417 6.09093H5.16503C4.55946 6.09172 3.97897 6.37678 3.55077 6.80498C3.12257 7.23318 2.88184 7.81367 2.88104 8.41924V15.7351C2.88184 16.3407 3.12257 16.9212 3.55077 17.3494C3.97897 17.7776 4.55946 18.0184 5.16503 18.0192H18.8133C19.4189 18.0186 19.9998 17.7779 20.4281 17.3497C20.8564 16.9214 21.0976 16.3408 21.0984 15.7351V8.41924C21.0976 7.81357 20.8564 7.23305 20.4281 6.80483C19.9998 6.37662 19.4189 6.09156 18.8133 6.09093H12.0275H12.0324H10.446Z" fill="#A6A6A6"/>
</svg>
