<svg width="16" height="12" viewBox="0 0 16 12" fill="none" xmlns="http://www.w3.org/2000/svg">
<path d="M15.24 3.76161C15.1272 3.66327 14.9877 3.60066 14.8393 3.58174C14.6908 3.56282 14.5401 3.58845 14.4062 3.65536L11.2681 5.21786L8.64812 0.865987C8.58077 0.754315 8.48571 0.66194 8.37216 0.597818C8.2586 0.533695 8.13041 0.5 8 0.5C7.86959 0.5 7.74139 0.533695 7.62784 0.597818C7.51428 0.66194 7.41922 0.754315 7.35187 0.865987L4.73187 5.21974L1.595 3.65724C1.46146 3.59092 1.31131 3.56552 1.16339 3.58422C1.01547 3.60293 0.876369 3.6649 0.763543 3.76237C0.650717 3.85984 0.569193 3.98847 0.5292 4.1321C0.489208 4.27574 0.492529 4.42798 0.538747 4.56974L2.85125 11.6547C2.8745 11.7259 2.91344 11.791 2.96519 11.8451C3.01695 11.8992 3.0802 11.941 3.15027 11.9674C3.22034 11.9938 3.29545 12.0041 3.37004 11.9976C3.44463 11.9911 3.51681 11.9679 3.58125 11.9297C3.59687 11.9204 5.195 10.9997 8 10.9997C10.805 10.9997 12.4031 11.9204 12.4175 11.9291C12.482 11.9676 12.5543 11.9911 12.629 11.9979C12.7038 12.0046 12.7792 11.9944 12.8495 11.9681C12.9198 11.9417 12.9832 11.8999 13.0352 11.8456C13.0871 11.7914 13.1261 11.7261 13.1494 11.6547L15.4619 4.57161C15.5094 4.42982 15.5137 4.27709 15.4742 4.13285C15.4347 3.98861 15.3532 3.85938 15.24 3.76161ZM12.375 10.8016C11.625 10.4835 10.13 9.99974 8 9.99974C5.87 9.99974 4.375 10.4835 3.625 10.8016L1.66937 4.81224L4.48625 6.21661C4.65675 6.3007 4.85256 6.31788 5.03511 6.26478C5.21765 6.21169 5.37369 6.09215 5.4725 5.92974L8 1.72849L10.5275 5.92849C10.6263 6.09075 10.7822 6.21017 10.9646 6.26326C11.147 6.31635 11.3427 6.29926 11.5131 6.21536L14.3306 4.81224L12.375 10.8016Z" fill="#2196F3"/>
</svg>
