<svg width="18" height="18" viewBox="0 0 18 18" fill="none" xmlns="http://www.w3.org/2000/svg">
<path d="M10.4978 16.8233C9.50113 16.3885 8.55541 15.8452 7.67772 15.2032C6.74506 14.5163 5.86275 13.7636 5.03757 12.9507C4.22245 12.1268 3.46859 11.2444 2.78204 10.3106C2.15017 9.43897 1.6135 8.50217 1.18117 7.51624C0.795261 6.63138 0.587104 5.67927 0.568547 4.71409C0.567771 4.12064 0.678071 3.53228 0.893758 2.97941C1.12465 2.39937 1.4836 1.879 1.94381 1.45714C2.20604 1.17971 2.5212 0.957611 2.87066 0.803955C3.22012 0.650299 3.5968 0.568203 3.97851 0.5625C4.28426 0.562922 4.58625 0.629872 4.86354 0.758707C5.16906 0.896431 5.43005 1.11671 5.61716 1.39474L7.43952 3.96107C7.59115 4.16753 7.71761 4.39131 7.8163 4.6277C7.91467 4.84786 7.96755 5.08564 7.97172 5.32674C7.96785 5.63179 7.8816 5.93012 7.7221 6.19018C7.57598 6.43453 7.39867 6.65882 7.19466 6.85741L6.66245 7.41423C6.66807 7.43348 6.67589 7.45201 6.68582 7.46944C6.8731 7.77833 7.08756 8.0699 7.32665 8.34068C7.71247 8.7799 8.07548 9.18072 8.4331 9.54914C8.89932 10.0046 9.281 10.3658 9.64341 10.664C9.92183 10.9135 10.2267 11.1318 10.5525 11.315L10.5704 11.3228L10.5939 11.2994L11.1129 10.7888C11.3191 10.5735 11.5573 10.3913 11.8191 10.2488C12.0476 10.1112 12.3064 10.0319 12.5727 10.0178C12.8396 10.0026 13.1061 10.052 13.3498 10.1618C13.582 10.2616 13.8032 10.3853 14.0098 10.5308L16.6139 12.3831C16.8914 12.5646 17.1093 12.8238 17.2404 13.1283C17.352 13.3972 17.411 13.685 17.4144 13.9762C17.4123 14.3587 17.3271 14.7362 17.1647 15.0826C17.0049 15.4277 16.7919 15.7456 16.5335 16.0247C16.1234 16.4944 15.6099 16.8627 15.0334 17.1005C14.4743 17.3008 13.8836 17.3979 13.2898 17.3873C13.2208 17.3873 13.141 17.3873 13.066 17.3873C12.8833 17.3856 12.701 17.3726 12.5199 17.3483C11.8269 17.2569 11.1478 17.0806 10.4978 16.8233ZM3.9755 1.74515C3.74465 1.75267 3.51766 1.8066 3.30809 1.9037C3.09851 2.00081 2.91066 2.13913 2.75567 2.31038C2.42023 2.61708 2.15793 2.9952 1.9882 3.41684C1.82261 3.8312 1.73947 4.27389 1.74341 4.7201C1.76116 5.52658 1.93732 6.3217 2.26184 7.06021C2.65659 7.96628 3.15256 8.82479 3.74031 9.61935C4.38548 10.5029 5.0955 11.3372 5.86444 12.1155C6.64589 12.8877 7.48315 13.6013 8.36952 14.2504C9.16899 14.8434 10.0349 15.3412 10.9497 15.7337C11.5066 16.02 12.1152 16.1919 12.7397 16.2391C13.3641 16.2863 13.9916 16.2078 14.5852 16.0085C14.999 15.8357 15.3666 15.5686 15.6587 15.2284C15.8405 15.0333 15.9899 14.8105 16.1015 14.5684C16.1906 14.3792 16.2386 14.1733 16.2425 13.9642C16.2412 13.8285 16.2108 13.6946 16.1531 13.5717C16.1053 13.474 16.03 13.3922 15.9365 13.3365L13.3276 11.4836C13.1942 11.388 13.0505 11.3075 12.8992 11.2436C12.8231 11.1901 12.7313 11.1633 12.6384 11.1675C12.5454 11.1718 12.4564 11.2068 12.3855 11.267C12.2168 11.3596 12.0642 11.4789 11.9337 11.6204L11.3337 12.2091C11.1833 12.3487 10.9975 12.4445 10.7965 12.486C10.5955 12.5275 10.387 12.513 10.1936 12.4443L9.98181 12.3501C9.58556 12.1239 9.21321 11.8581 8.87052 11.5568C8.49371 11.2352 8.08395 10.8584 7.58953 10.3718C7.20311 9.97877 6.82206 9.56293 6.42184 9.10031C6.11666 8.76083 5.84835 8.38994 5.62141 7.99386L5.52722 7.75865C5.48654 7.63147 5.46432 7.49912 5.46122 7.36563C5.46029 7.23034 5.48596 7.09619 5.53681 6.97082C5.58817 6.84472 5.66518 6.73069 5.763 6.63599L6.3516 6.02397C6.48615 5.89186 6.60483 5.74445 6.70508 5.58475C6.75654 5.50486 6.78574 5.41268 6.78968 5.31773C6.784 5.23134 6.76365 5.14653 6.72962 5.06692C6.65945 4.91987 6.57422 4.78052 6.47524 4.6511L4.65896 2.07757C4.58456 1.97219 4.48376 1.88818 4.36671 1.83396C4.2438 1.77777 4.11063 1.74754 3.9755 1.74515Z" fill="#A6A6A6"/>
</svg>
