<svg width="16" height="16" viewBox="0 0 16 16" fill="none" xmlns="http://www.w3.org/2000/svg">
<path d="M13.0307 4.02938L4.03069 13.0294C3.96093 13.0991 3.8781 13.1545 3.78695 13.1922C3.6958 13.23 3.5981 13.2494 3.49944 13.2494C3.40078 13.2494 3.30308 13.23 3.21193 13.1922C3.12078 13.1545 3.03796 13.0991 2.96819 13.0294C2.89843 12.9596 2.84309 12.8768 2.80533 12.7856C2.76757 12.6945 2.74814 12.5968 2.74814 12.4981C2.74814 12.3995 2.76757 12.3018 2.80533 12.2106C2.84309 12.1195 2.89843 12.0366 2.96819 11.9669L11.9682 2.96688C12.1091 2.82598 12.3002 2.74682 12.4994 2.74682C12.6987 2.74682 12.8898 2.82598 13.0307 2.96688C13.1716 3.10777 13.2507 3.29887 13.2507 3.49813C13.2507 3.69738 13.1716 3.88848 13.0307 4.02938ZM2.98257 6.51688C2.57379 6.10769 2.31954 5.56943 2.26314 4.9938C2.20674 4.41817 2.35167 3.8408 2.67324 3.36005C2.99481 2.8793 3.47312 2.52492 4.02668 2.3573C4.58024 2.18967 5.1748 2.21917 5.70905 2.44077C6.2433 2.66236 6.68419 3.06235 6.95659 3.57256C7.229 4.08278 7.31606 4.67167 7.20296 5.23889C7.08985 5.8061 6.78357 6.31656 6.3363 6.68327C5.88903 7.04998 5.32845 7.25027 4.75007 7.25C4.4216 7.25081 4.09624 7.18642 3.79284 7.06058C3.48944 6.93473 3.21403 6.74993 2.98257 6.51688ZM3.75007 4.75C3.74996 4.98136 3.83008 5.2056 3.97677 5.38451C4.12347 5.56342 4.32766 5.68593 4.55455 5.73117C4.78145 5.7764 5.01701 5.74156 5.2211 5.63258C5.42519 5.5236 5.58517 5.34723 5.67379 5.13351C5.76242 4.9198 5.77419 4.68197 5.70712 4.46054C5.64004 4.23912 5.49826 4.0478 5.30594 3.9192C5.11361 3.79059 4.88265 3.73265 4.65239 3.75525C4.42214 3.77784 4.20684 3.87958 4.04319 4.04313C3.94996 4.13567 3.87603 4.24581 3.82571 4.36716C3.77539 4.4885 3.74968 4.61864 3.75007 4.75ZM13.7501 11.25C13.75 11.8284 13.5495 12.3888 13.1826 12.8359C12.8157 13.283 12.3051 13.589 11.7378 13.7019C11.1706 13.8147 10.5817 13.7274 10.0716 13.4548C9.56156 13.1821 9.16178 12.7411 8.94042 12.2067C8.71906 11.6724 8.68981 11.0779 8.85766 10.5244C9.0255 9.97091 9.38006 9.49275 9.86092 9.17138C10.3418 8.85001 10.9192 8.7053 11.4948 8.76192C12.0704 8.81853 12.6085 9.07297 13.0176 9.48188C13.2506 9.71344 13.4354 9.98897 13.5611 10.2925C13.6868 10.596 13.7511 10.9215 13.7501 11.25ZM12.2501 11.25C12.2505 11.1185 12.2249 10.9883 12.1745 10.8668C12.1242 10.7454 12.0503 10.6351 11.9569 10.5425C11.7933 10.379 11.578 10.2772 11.3478 10.2546C11.1176 10.232 10.8866 10.2899 10.6943 10.4185C10.502 10.547 10.3602 10.7383 10.2931 10.9597C10.226 11.1811 10.2377 11.4189 10.3262 11.6326C10.4148 11.8463 10.5747 12.0227 10.7787 12.1318C10.9827 12.2408 11.2182 12.2758 11.4451 12.2306C11.672 12.1855 11.8762 12.0631 12.023 11.8843C12.1698 11.7055 12.25 11.4813 12.2501 11.25Z" fill="#2196F3"/>
</svg>
