<svg width="16" height="16" viewBox="0 0 16 16" fill="none" xmlns="http://www.w3.org/2000/svg">
<path d="M14.1163 6.90322L3.61254 0.909469C3.39093 0.785318 3.13675 0.731632 2.88386 0.755559C2.63097 0.779486 2.39138 0.879892 2.19698 1.0434C2.00259 1.20691 1.86262 1.42577 1.79573 1.67082C1.72883 1.91587 1.73819 2.17549 1.82254 2.41509L3.73566 7.99072L1.82254 13.5813C1.75587 13.7698 1.73537 13.9715 1.76277 14.1696C1.79018 14.3676 1.86468 14.5562 1.98002 14.7194C2.09537 14.8827 2.24819 15.016 2.42568 15.108C2.60316 15.2 2.80012 15.2481 3.00004 15.2482C3.21484 15.2478 3.42594 15.1923 3.61316 15.087L3.61879 15.0832L14.1188 9.07884C14.3113 8.96986 14.4715 8.81175 14.5829 8.62063C14.6943 8.42952 14.753 8.21226 14.753 7.99103C14.753 7.76981 14.6943 7.55254 14.5829 7.36143C14.4715 7.17032 14.3113 7.0122 14.1188 6.90322H14.1163ZM3.45254 13.4501L5.06254 8.74822H8.50004C8.69895 8.74822 8.88972 8.6692 9.03037 8.52855C9.17102 8.3879 9.25004 8.19713 9.25004 7.99822C9.25004 7.79931 9.17102 7.60854 9.03037 7.46789C8.88972 7.32724 8.69895 7.24822 8.50004 7.24822H5.06691L3.45316 2.54572L12.9963 7.99134L3.45254 13.4501Z" fill="#2196F3"/>
</svg>
