<svg width="16" height="16" viewBox="0 0 16 16" fill="none" xmlns="http://www.w3.org/2000/svg">
<path d="M15.1876 6.00235C15.1116 5.76943 14.9688 5.56398 14.777 5.41152C14.5852 5.25907 14.3529 5.16634 14.1088 5.14485L10.5463 4.83673L9.15257 1.51548C9.05669 1.28962 8.89646 1.09697 8.69185 0.961545C8.48725 0.826119 8.24731 0.753906 8.00194 0.753906C7.75657 0.753906 7.51663 0.826119 7.31203 0.961545C7.10742 1.09697 6.94719 1.28962 6.85132 1.51548L5.45569 4.83673L1.89319 5.14485C1.64781 5.16517 1.41389 5.25751 1.22079 5.41027C1.02769 5.56304 0.884005 5.76943 0.807767 6.00355C0.731529 6.23767 0.726132 6.4891 0.792254 6.72627C0.858376 6.96345 0.993072 7.17582 1.17944 7.33673L3.88694 9.69923L3.07444 13.2142C3.01872 13.4536 3.03479 13.704 3.12063 13.9343C3.20648 14.1646 3.3583 14.3644 3.55711 14.5089C3.75592 14.6534 3.99291 14.736 4.23843 14.7465C4.48396 14.757 4.72714 14.6949 4.93756 14.568L8.00006 12.708L11.0626 14.568C11.273 14.6947 11.5161 14.7567 11.7615 14.746C12.0069 14.7354 12.2438 14.6528 12.4425 14.5083C12.6411 14.3639 12.7929 14.1642 12.8787 13.934C12.9646 13.7038 12.9807 13.4535 12.9251 13.2142L12.1126 9.69923L14.8201 7.33673C15.0059 7.17523 15.14 6.96244 15.2054 6.72505C15.2707 6.48765 15.2645 6.23624 15.1876 6.00235ZM11.0157 8.6661C10.8443 8.81523 10.7168 9.00825 10.6468 9.22442C10.5769 9.44058 10.5672 9.67172 10.6188 9.89298L11.3307 12.9755L8.64694 11.3455C8.45204 11.2268 8.22825 11.164 8.00006 11.164C7.77188 11.164 7.54809 11.2268 7.35319 11.3455L4.66944 12.9755L5.38131 9.89298C5.4329 9.67172 5.42321 9.44058 5.35329 9.22442C5.28336 9.00825 5.15584 8.81523 4.98444 8.6661L2.60381 6.58923L5.73757 6.31798C5.96449 6.29855 6.18174 6.21724 6.36566 6.08291C6.54959 5.94857 6.69314 5.76636 6.78069 5.5561L8.00006 2.65048L9.21944 5.5561C9.30699 5.76636 9.45054 5.94857 9.63447 6.08291C9.81839 6.21724 10.0356 6.29855 10.2626 6.31798L13.3963 6.58923L11.0157 8.6661Z" fill="#2196F3"/>
</svg>
