<svg width="16" height="16" viewBox="0 0 16 16" fill="none" xmlns="http://www.w3.org/2000/svg">
<path d="M12.7956 3.23964C11.8528 2.29081 10.6495 1.64327 9.33826 1.37912C8.02701 1.11496 6.66685 1.24608 5.4302 1.75586C4.19355 2.26563 3.13611 3.13111 2.39191 4.24256C1.64772 5.35402 1.25029 6.66142 1.25 7.99902V11.499C1.25 11.9631 1.43437 12.4083 1.76256 12.7365C2.09075 13.0646 2.53587 13.249 3 13.249H4C4.46413 13.249 4.90925 13.0646 5.23744 12.7365C5.56563 12.4083 5.75 11.9631 5.75 11.499V8.99902C5.75 8.53489 5.56563 8.08977 5.23744 7.76158C4.90925 7.43339 4.46413 7.24902 4 7.24902H2.8025C2.9835 5.99956 3.60843 4.85709 4.56289 4.03071C5.51735 3.20434 6.7375 2.74934 8 2.74902H8.04C9.29687 2.7544 10.5098 3.21212 11.4569 4.03845C12.4039 4.86478 13.0218 6.00447 13.1975 7.24902H12C11.5359 7.24902 11.0908 7.43339 10.7626 7.76158C10.4344 8.08977 10.25 8.53489 10.25 8.99902V11.499C10.25 11.9631 10.4344 12.4083 10.7626 12.7365C11.0908 13.0646 11.5359 13.249 12 13.249H13.225C13.1674 13.5314 13.014 13.7851 12.7907 13.9673C12.5675 14.1496 12.2882 14.2491 12 14.249H8.5C8.30109 14.249 8.11032 14.328 7.96967 14.4687C7.82902 14.6093 7.75 14.8001 7.75 14.999C7.75 15.1979 7.82902 15.3887 7.96967 15.5293C8.11032 15.67 8.30109 15.749 8.5 15.749H12C12.7291 15.7482 13.4281 15.4582 13.9436 14.9426C14.4592 14.4271 14.7492 13.7281 14.75 12.999V7.99902C14.7534 7.11613 14.5826 6.24125 14.2472 5.42453C13.9118 4.60781 13.4185 3.86533 12.7956 3.23964ZM4 8.74902C4.0663 8.74902 4.12989 8.77536 4.17678 8.82224C4.22366 8.86912 4.25 8.93271 4.25 8.99902V11.499C4.25 11.5653 4.22366 11.6289 4.17678 11.6758C4.12989 11.7227 4.0663 11.749 4 11.749H3C2.9337 11.749 2.87011 11.7227 2.82322 11.6758C2.77634 11.6289 2.75 11.5653 2.75 11.499V8.74902H4ZM11.75 11.499V8.99902C11.75 8.93271 11.7763 8.86912 11.8232 8.82224C11.8701 8.77536 11.9337 8.74902 12 8.74902H13.25V11.749H12C11.9337 11.749 11.8701 11.7227 11.8232 11.6758C11.7763 11.6289 11.75 11.5653 11.75 11.499Z" fill="#2196F3"/>
</svg>
