<svg width="16" height="16" viewBox="0 0 16 16" fill="none" xmlns="http://www.w3.org/2000/svg">
<path d="M13.75 5.99937C13.7505 5.0354 13.5087 4.08677 13.0468 3.24069C12.5849 2.39461 11.9176 1.67824 11.1065 1.15746C10.2953 0.63667 9.36619 0.328179 8.40461 0.260348C7.44303 0.192517 6.47983 0.367524 5.60357 0.769276C4.72732 1.17103 3.96612 1.78663 3.38999 2.55948C2.81385 3.33234 2.44127 4.23763 2.30648 5.19213C2.1717 6.14663 2.27905 7.11969 2.61866 8.02185C2.95827 8.92402 3.51925 9.72632 4.25 10.355V14.9994C4.25002 15.1272 4.28272 15.253 4.345 15.3646C4.40728 15.4763 4.49707 15.5702 4.60584 15.6374C4.71462 15.7045 4.83876 15.7428 4.96649 15.7485C5.09422 15.7542 5.22129 15.7272 5.33563 15.67L8 14.3381L10.665 15.67C10.7793 15.7271 10.9063 15.754 11.034 15.7482C11.1616 15.7424 11.2856 15.7041 11.3943 15.6369C11.503 15.5698 11.5927 15.4759 11.655 15.3644C11.7172 15.2528 11.7499 15.1271 11.75 14.9994V10.355C12.3775 9.81593 12.8811 9.14764 13.2263 8.39586C13.5714 7.64409 13.7501 6.8266 13.75 5.99937ZM3.75 5.99937C3.75 5.1588 3.99926 4.3371 4.46625 3.63819C4.93325 2.93929 5.59701 2.39455 6.3736 2.07288C7.15018 1.75121 8.00471 1.66704 8.82913 1.83103C9.65355 1.99502 10.4108 2.39979 11.0052 2.99416C11.5996 3.58854 12.0044 4.34581 12.1683 5.17023C12.3323 5.99465 12.2482 6.84919 11.9265 7.62577C11.6048 8.40236 11.0601 9.06612 10.3612 9.53311C9.66226 10.0001 8.84057 10.2494 8 10.2494C6.87319 10.2482 5.79285 9.80007 4.99608 9.00329C4.1993 8.20651 3.75116 7.12618 3.75 5.99937ZM10.25 13.7862L8.335 12.8287C8.2308 12.7766 8.11589 12.7495 7.99938 12.7495C7.88286 12.7495 7.76795 12.7766 7.66375 12.8287L5.75 13.7856V11.2906C6.46154 11.5932 7.2268 11.7491 8 11.7491C8.7732 11.7491 9.53846 11.5932 10.25 11.2906V13.7862ZM8 9.24937C8.64279 9.24937 9.27114 9.05876 9.8056 8.70164C10.3401 8.34453 10.7566 7.83695 11.0026 7.24309C11.2486 6.64923 11.313 5.99576 11.1876 5.36532C11.0622 4.73489 10.7526 4.15579 10.2981 3.70127C9.84358 3.24675 9.26448 2.93722 8.63404 2.81182C8.00361 2.68641 7.35014 2.75077 6.75628 2.99676C6.16242 3.24274 5.65484 3.65931 5.29772 4.19377C4.94061 4.72822 4.75 5.35658 4.75 5.99937C4.75099 6.86102 5.09372 7.68709 5.703 8.29637C6.31228 8.90565 7.13835 9.24838 8 9.24937ZM8 4.24937C8.34612 4.24937 8.68446 4.352 8.97225 4.5443C9.26003 4.73659 9.48434 5.0099 9.61679 5.32967C9.74924 5.64944 9.7839 6.00131 9.71637 6.34078C9.64885 6.68024 9.48218 6.99206 9.23744 7.2368C8.9927 7.48155 8.68087 7.64822 8.34141 7.71574C8.00194 7.78327 7.65008 7.74861 7.3303 7.61616C7.01053 7.4837 6.73722 7.2594 6.54493 6.97162C6.35264 6.68383 6.25 6.34549 6.25 5.99937C6.25 5.53524 6.43437 5.09012 6.76256 4.76193C7.09075 4.43374 7.53587 4.24937 8 4.24937Z" fill="#2196F3"/>
</svg>
