<svg width="16" height="16" viewBox="0 0 16 16" fill="none" xmlns="http://www.w3.org/2000/svg">
<path d="M14 2.25H10.7188C10.5463 2.25028 10.3758 2.28611 10.2178 2.35526C10.0598 2.4244 9.91782 2.52538 9.80062 2.65188L4.17188 8.75H2C1.66848 8.75 1.35054 8.8817 1.11612 9.11612C0.881696 9.35054 0.75 9.66848 0.75 10V12.5C0.75 12.8315 0.881696 13.1495 1.11612 13.3839C1.35054 13.6183 1.66848 13.75 2 13.75H5.28125C5.45369 13.7497 5.62422 13.7139 5.78219 13.6447C5.94016 13.5756 6.08218 13.4746 6.19938 13.3481L11.8281 7.25H14C14.3315 7.25 14.6495 7.1183 14.8839 6.88388C15.1183 6.64946 15.25 6.33152 15.25 6V3.5C15.25 3.16848 15.1183 2.85054 14.8839 2.61612C14.6495 2.3817 14.3315 2.25 14 2.25ZM13.75 5.75H11.7188C11.5463 5.75028 11.3758 5.78611 11.2178 5.85526C11.0598 5.9244 10.9178 6.02538 10.8006 6.15188L5.17188 12.25H2.25V10.25H4.28125C4.45369 10.2497 4.62422 10.2139 4.78219 10.1447C4.94016 10.0756 5.08218 9.97462 5.19938 9.84813L10.8281 3.75H13.75V5.75ZM14.5306 10.4694C14.6715 10.6103 14.7507 10.8014 14.7507 11.0006C14.7507 11.1999 14.6715 11.391 14.5306 11.5319C14.3897 11.6728 14.1986 11.7519 13.9994 11.7519C13.8001 11.7519 13.609 11.6728 13.4681 11.5319L13.25 11.3125V13C13.25 13.1989 13.171 13.3897 13.0303 13.5303C12.8897 13.671 12.6989 13.75 12.5 13.75C12.3011 13.75 12.1103 13.671 11.9697 13.5303C11.829 13.3897 11.75 13.1989 11.75 13V11.3125L11.5306 11.5325C11.3897 11.6734 11.1986 11.7526 10.9994 11.7526C10.8001 11.7526 10.609 11.6734 10.4681 11.5325C10.3272 11.3916 10.2481 11.2005 10.2481 11.0013C10.2481 10.802 10.3272 10.6109 10.4681 10.47L11.9681 8.97C12.0378 8.90008 12.1206 8.8446 12.2118 8.80675C12.3029 8.76889 12.4007 8.74941 12.4994 8.74941C12.5981 8.74941 12.6958 8.76889 12.787 8.80675C12.8782 8.8446 12.9609 8.90008 13.0306 8.97L14.5306 10.4694Z" fill="#2196F3"/>
</svg>
