<svg width="41" height="41" viewBox="0 0 41 41" fill="none" xmlns="http://www.w3.org/2000/svg">
<g clip-path="url(#clip0_35181_7743)">
<path d="M25.0002 16.3322L14.5002 26.8322M13.936 9.07298L11.8411 8.74374C9.83068 8.42779 8.09576 10.1627 8.41171 12.1731L8.74095 14.268C8.91569 15.3799 8.45336 16.4961 7.54358 17.1587L5.82945 18.4073C4.18446 19.6054 4.18446 22.059 5.82945 23.2572L7.54358 24.5057C8.45337 25.1683 8.91569 26.2845 8.74095 27.3964L8.41171 29.4913C8.09576 31.5017 9.83068 33.2366 11.8411 32.9207L13.936 32.5914C15.0479 32.4167 16.1641 32.879 16.8267 33.7888L18.0752 35.503C19.2734 37.1479 21.727 37.1479 22.9251 35.5029L24.1737 33.7888C24.8363 32.879 25.9525 32.4167 27.0644 32.5914L29.1593 32.9207C31.1697 33.2366 32.9046 31.5017 32.5887 29.4913L32.2594 27.3964C32.0847 26.2845 32.547 25.1683 33.4568 24.5057L35.1709 23.2572C36.8159 22.059 36.8159 19.6054 35.1709 18.4073L33.4568 17.1587C32.547 16.4961 32.0847 15.3799 32.2594 14.268L32.5887 12.1731C32.9046 10.1627 31.1697 8.42779 29.1593 8.74374L27.0643 9.07298C25.9525 9.24772 24.8363 8.7854 24.1736 7.87561L22.9251 6.16148C21.727 4.51649 19.2734 4.51649 18.0752 6.16148L16.8267 7.87561C16.1641 8.7854 15.0479 9.24772 13.936 9.07298ZM17.5002 16.8322C17.5002 17.3845 17.0525 17.8322 16.5002 17.8322C15.948 17.8322 15.5002 17.3845 15.5002 16.8322C15.5002 16.2799 15.948 15.8322 16.5002 15.8322C17.0525 15.8322 17.5002 16.2799 17.5002 16.8322ZM25.5002 24.8322C25.5002 25.3845 25.0525 25.8322 24.5002 25.8322C23.948 25.8322 23.5002 25.3845 23.5002 24.8322C23.5002 24.2799 23.948 23.8322 24.5002 23.8322C25.0525 23.8322 25.5002 24.2799 25.5002 24.8322Z" stroke="#6E7191" stroke-linecap="round"/>
</g>
<defs>
<clipPath id="clip0_35181_7743">
<rect width="40" height="40" fill="white" transform="translate(0.5 0.832031)"/>
</clipPath>
</defs>
</svg>
