<svg width="41" height="41" viewBox="0 0 41 41" fill="none" xmlns="http://www.w3.org/2000/svg">
<g clip-path="url(#clip0_35181_5655)">
<path d="M32.452 11.8526L31.9615 11.9498L31.9631 11.9574L31.9648 11.965L32.452 11.8526ZM8.55085 29.6868L8.6606 29.199L8.64531 29.1956L8.62984 29.1931L8.55085 29.6868ZM7.36746 29.3701L7.19257 29.8386L7.19657 29.84L7.36746 29.3701ZM30.3184 34.4248L30.3511 33.9259C30.3402 33.9252 30.3293 33.9248 30.3184 33.9248V34.4248ZM15.6856 34.4248V33.9247L15.6765 33.9249L15.6856 34.4248ZM10.8154 32.9082L11.128 32.518C10.9157 32.3479 10.6064 32.3788 10.4319 32.5875C10.2574 32.7961 10.2817 33.106 10.4867 33.2849L10.8154 32.9082ZM11.3945 33.3721L11.0819 33.7623C11.1021 33.7785 11.1235 33.793 11.1459 33.8058L11.3945 33.3721ZM14.4102 34.4248L14.4521 33.9266C14.4429 33.9258 14.4337 33.9253 14.4244 33.925L14.4102 34.4248ZM30.5215 34.4351V34.9352L30.5345 34.9349L30.5215 34.4351ZM35.3086 32.8071L35.6278 33.192C35.6321 33.1884 35.6364 33.1847 35.6406 33.181L35.3086 32.8071ZM37.1689 18.4038L36.669 18.4076C36.669 18.4148 36.6692 18.4219 36.6696 18.4291L37.1689 18.4038ZM36.751 16.186L36.2684 16.3168C36.2728 16.333 36.278 16.3489 36.2839 16.3645L36.751 16.186ZM36.0117 14.4961L36.4354 14.2306C36.4165 14.2004 36.3944 14.1723 36.3695 14.1469L36.0117 14.4961ZM35.6533 14.1289L36.0111 13.7797C35.8256 13.5896 35.5239 13.5777 35.324 13.7527C35.1241 13.9276 35.0959 14.2283 35.2598 14.4373L35.6533 14.1289ZM37.1699 18.9912L36.6708 18.9613C36.6702 18.9713 36.6699 18.9812 36.6699 18.9912H37.1699ZM37.1699 27.5742H36.6699C36.6699 27.587 36.6704 27.5999 36.6714 27.6126L37.1699 27.5742ZM18.0013 23.1865C15.2997 23.1865 13.1011 20.9878 13.1011 18.2863H12.1011C12.1011 21.5401 14.7475 24.1865 18.0013 24.1865V23.1865ZM13.1011 18.2863C13.1011 15.5847 15.2998 13.386 18.0013 13.386V12.386C14.7475 12.386 12.1011 15.0324 12.1011 18.2863H13.1011ZM18.0013 13.386C20.7028 13.386 22.9015 15.5847 22.9015 18.2863H23.9015C23.9015 15.0324 21.2551 12.386 18.0013 12.386V13.386ZM22.9015 18.2863C22.9015 20.9878 20.7028 23.1865 18.0013 23.1865V24.1865C21.2551 24.1865 23.9015 21.5401 23.9015 18.2863H22.9015ZM8.46751 22.5364C7.50296 22.5364 6.71745 21.7509 6.71745 20.7864H5.71745C5.71745 22.3032 6.95067 23.5364 8.46751 23.5364V22.5364ZM6.71745 20.7864V15.7861H5.71745V20.7864H6.71745ZM6.71745 15.7861C6.71745 14.8216 7.50296 14.0361 8.46751 14.0361V13.0361C6.95067 13.0361 5.71745 14.2693 5.71745 15.7861H6.71745ZM8.46751 14.0361C9.43205 14.0361 10.2176 14.8216 10.2176 15.7861H11.2176C11.2176 14.2693 9.98434 13.0361 8.46751 13.0361V14.0361ZM10.2176 15.7861V20.7864H11.2176V15.7861H10.2176ZM10.2176 20.7864C10.2176 21.7509 9.43205 22.5364 8.46751 22.5364V23.5364C9.98434 23.5364 11.2176 22.3032 11.2176 20.7864H10.2176ZM27.5184 22.5364C26.5539 22.5364 25.7684 21.7509 25.7684 20.7864H24.7684C24.7684 22.3032 26.0016 23.5364 27.5184 23.5364V22.5364ZM25.7684 20.7864V15.7861H24.7684V20.7864H25.7684ZM25.7684 15.7861C25.7684 14.8216 26.5539 14.0361 27.5184 14.0361V13.0361C26.0016 13.0361 24.7684 14.2693 24.7684 15.7861H25.7684ZM27.5184 14.0361C28.483 14.0361 29.2685 14.8216 29.2685 15.7861H30.2685C30.2685 14.2693 29.0353 13.0361 27.5184 13.0361V14.0361ZM29.2685 15.7861V20.7864H30.2685V15.7861H29.2685ZM29.2685 20.7864C29.2685 21.7509 28.483 22.5364 27.5184 22.5364V23.5364C29.0353 23.5364 30.2685 22.3032 30.2685 20.7864H29.2685ZM10.6843 7.15234H25.3183V6.15234H10.6843V7.15234ZM25.3183 7.15234C27.1195 7.15234 28.614 7.53479 29.7322 8.30751C30.8396 9.0727 31.6253 10.2528 31.9615 11.9498L32.9425 11.7554C32.562 9.83557 31.6476 8.41554 30.3007 7.48481C28.9647 6.5616 27.2507 6.15234 25.3183 6.15234V7.15234ZM31.9648 11.965C32.1044 12.5698 32.1687 13.2307 32.1687 13.986H33.1687C33.1687 13.1746 33.0997 12.4355 32.9392 11.7402L31.9648 11.965ZM32.1687 13.986V22.5698H33.1687V13.986H32.1687ZM32.1687 22.5698C32.1687 25.0413 31.4651 26.7243 30.3117 27.7953C29.1516 28.8725 27.4585 29.4035 25.335 29.4035V30.4035C27.6117 30.4035 29.5854 29.8344 30.9921 28.5281C32.4056 27.2157 33.1687 25.2319 33.1687 22.5698H32.1687ZM25.335 29.4035H10.6843V30.4035H25.335V29.4035ZM10.6843 29.4035C9.96301 29.4035 9.2841 29.3393 8.6606 29.199L8.4411 30.1746C9.15099 30.3343 9.90548 30.4035 10.6843 30.4035V29.4035ZM8.62984 29.1931C8.25272 29.1327 7.88426 29.026 7.53834 28.9002L7.19657 29.84C7.58402 29.9809 8.0156 30.1075 8.47185 30.1805L8.62984 29.1931ZM7.54233 28.9017C6.38531 28.4697 5.47442 27.7617 4.84698 26.7449C4.21613 25.7226 3.85059 24.3534 3.85059 22.5698H2.85059C2.85059 24.4864 3.24342 26.0506 3.99597 27.2701C4.75193 28.4951 5.84947 29.3371 7.19258 29.8385L7.54233 28.9017ZM3.85059 22.5698V13.986H2.85059V22.5698H3.85059ZM3.85059 13.986C3.85059 11.5145 4.55421 9.83148 5.70758 8.76049C6.86765 7.68328 8.56082 7.15234 10.6843 7.15234V6.15234C8.40752 6.15234 6.43385 6.72146 5.02713 8.0277C3.6137 9.34017 2.85059 11.3239 2.85059 13.986H3.85059ZM30.3184 33.9248H15.6856V34.9248H30.3184V33.9248ZM15.6765 33.9249C14.6625 33.9433 13.6543 33.7784 12.6994 33.4373L12.3631 34.3791C13.4319 34.7608 14.5601 34.9453 15.6946 34.9247L15.6765 33.9249ZM12.6972 33.4365C12.1269 33.2359 11.5994 32.9287 11.1442 32.5315L10.4867 33.2849C11.0377 33.7658 11.6758 34.1373 12.3653 34.3799L12.6972 33.4365ZM10.5028 33.2985L11.0819 33.7623L11.7071 32.9818L11.128 32.518L10.5028 33.2985ZM11.1459 33.8058C11.5329 34.0277 11.9375 34.2184 12.3546 34.376L12.7079 33.4405C12.3403 33.3016 11.9838 33.1336 11.6432 32.9383L11.1459 33.8058ZM12.2878 34.345C12.9339 34.705 13.657 34.9035 14.3959 34.9246L14.4244 33.925C13.8458 33.9085 13.28 33.7531 12.7747 33.4715L12.2878 34.345ZM14.3682 34.923C14.7748 34.9573 15.6074 34.9248 16.127 34.9248V33.9248C15.5145 33.9248 14.8055 33.9563 14.4521 33.9266L14.3682 34.923ZM16.127 34.9248H30.1494V33.9248H16.127V34.9248ZM30.1494 34.9248C30.1449 34.9248 30.1473 34.9247 30.1724 34.9259C30.192 34.9268 30.2207 34.9282 30.254 34.9295C30.3218 34.9323 30.4124 34.9351 30.5215 34.9351V33.9351C30.4296 33.9351 30.3531 33.9327 30.2946 33.9303C30.2648 33.9291 30.2406 33.928 30.2182 33.9269C30.2014 33.9262 30.1729 33.9248 30.1494 33.9248V34.9248ZM30.5345 34.9349C32.3596 34.8873 34.1273 34.2863 35.603 33.2113L35.0142 32.403C33.7024 33.3586 32.1309 33.8929 30.5085 33.9352L30.5345 34.9349ZM35.6406 33.181C36.6416 32.292 37.1389 30.9975 37.3909 29.977C37.6452 28.9473 37.6689 28.1163 37.6689 28.0689H36.6689C36.6689 28.0514 36.6515 28.8001 36.4201 29.7373C36.1864 30.6836 35.7536 31.7432 34.9766 32.4333L35.6406 33.181ZM37.6689 28.0689V22.687H36.6689V28.0689H37.6689ZM37.6689 22.687C37.6689 22.2442 37.7391 19.7769 37.6683 18.3785L36.6696 18.4291C36.7388 19.7967 36.6689 22.1798 36.6689 22.687H37.6689ZM37.6689 18.4C37.6628 17.5819 37.5101 16.7718 37.218 16.0076L36.2839 16.3645C36.5333 17.0171 36.6637 17.709 36.669 18.4076L37.6689 18.4ZM37.2336 16.0552C37.0589 15.4109 36.7897 14.7961 36.4354 14.2306L35.588 14.7616C35.8902 15.2438 36.1196 15.7679 36.2684 16.3168L37.2336 16.0552ZM36.3695 14.1469L36.0111 13.7797L35.2955 14.4782L35.6539 14.8453L36.3695 14.1469ZM35.2598 14.4373C36.2668 15.7222 36.7685 17.3316 36.6708 18.9613L37.669 19.0211C37.7813 17.1478 37.2046 15.2977 36.0469 13.8205L35.2598 14.4373ZM36.6699 18.9912V27.5742H37.6699V18.9912H36.6699ZM36.6714 27.6126C36.7396 28.4969 36.6217 29.3854 36.3248 30.2207L37.267 30.5556C37.6109 29.5881 37.7473 28.5593 37.6684 27.5358L36.6714 27.6126ZM36.3248 30.2207C36.028 31.0557 35.5574 31.8196 34.9462 32.4627L35.671 33.1516C36.3779 32.4078 36.923 31.5236 37.267 30.5556L36.3248 30.2207ZM34.9894 32.4223C33.6919 33.4985 32.0331 34.0363 30.3511 33.9259L30.2856 34.9237C32.2229 35.0509 34.1335 34.4314 35.6278 33.192L34.9894 32.4223Z" fill="#6E7191"/>
</g>
<defs>
<clipPath id="clip0_35181_5655">
<rect width="40" height="40" fill="white" transform="translate(0.500977 0.785156)"/>
</clipPath>
</defs>
</svg>
