<svg width="40" height="41" viewBox="0 0 40 41" fill="none" xmlns="http://www.w3.org/2000/svg">
<path d="M6.12127 22.2839C5.99037 22.5271 6.08136 22.8303 6.3245 22.9612C6.56765 23.0921 6.87087 23.0011 7.00177 22.758L6.12127 22.2839ZM12.2229 12.6325L12.6509 12.8911L12.6509 12.891L12.2229 12.6325ZM27.8206 12.3972L28.2472 12.1365L28.2472 12.1364L27.8206 12.3972ZM33.1802 22.7577C33.311 23.0009 33.6142 23.0921 33.8574 22.9613C34.1006 22.8306 34.1918 22.5274 34.061 22.2842L33.1802 22.7577ZM16.1638 35.3837C16.1638 35.6598 16.3876 35.8837 16.6638 35.8837C16.9399 35.8837 17.1638 35.6598 17.1638 35.3837H16.1638ZM16.6638 24.7102L17.0845 24.4401C16.9646 24.2533 16.736 24.1679 16.523 24.2304C16.3101 24.2929 16.1638 24.4883 16.1638 24.7102H16.6638ZM23.5164 35.3837L23.0957 35.6538C23.2156 35.8405 23.4442 35.9259 23.6572 35.8634C23.8701 35.801 24.0164 35.6056 24.0164 35.3837H23.5164ZM24.0164 24.7102C24.0164 24.434 23.7926 24.2102 23.5164 24.2102C23.2403 24.2102 23.0164 24.434 23.0164 24.7102H24.0164ZM6.56152 22.5209C7.00177 22.758 7.00178 22.758 7.00179 22.7579C7.00181 22.7579 7.00183 22.7579 7.00187 22.7578C7.00194 22.7577 7.00204 22.7575 7.00219 22.7572C7.00249 22.7566 7.00294 22.7558 7.00354 22.7547C7.00475 22.7524 7.00658 22.749 7.00902 22.7445C7.01389 22.7355 7.02121 22.7219 7.0309 22.704C7.05029 22.6681 7.0792 22.6148 7.11712 22.5449C7.19297 22.4053 7.30489 22.1998 7.44892 21.9372C7.73699 21.4119 8.15345 20.6579 8.66661 19.7439C9.69309 17.9155 11.1057 15.4483 12.6509 12.8911L11.795 12.3739C10.2426 14.9431 8.82444 17.4201 7.79463 19.2543C7.27964 20.1716 6.86155 20.9286 6.57211 21.4563C6.42739 21.7203 6.31481 21.9269 6.23835 22.0677C6.20012 22.1381 6.17092 22.192 6.15124 22.2284C6.1414 22.2466 6.13394 22.2604 6.12893 22.2697C6.12642 22.2744 6.12452 22.2779 6.12325 22.2803C6.12261 22.2814 6.12212 22.2823 6.12179 22.283C6.12163 22.2833 6.1215 22.2835 6.12142 22.2836C6.12137 22.2837 6.12134 22.2838 6.12131 22.2838C6.12129 22.2839 6.12127 22.2839 6.56152 22.5209ZM12.6509 12.891C14.1407 10.424 15.4775 7.9403 16.7675 6.03322C17.4089 5.08499 18.0156 4.31579 18.5937 3.78788C19.1784 3.25404 19.6721 3.02344 20.093 3.02344V2.02344C19.3052 2.02344 18.5779 2.44817 17.9195 3.04941C17.2545 3.65658 16.5958 4.5022 15.9392 5.47295C14.6331 7.40382 13.2438 9.9747 11.7949 12.3741L12.6509 12.891ZM20.093 3.02344C20.5051 3.02344 20.9709 3.23157 21.5173 3.71806C22.0612 4.20222 22.6325 4.91573 23.2479 5.81783C24.4867 7.63377 25.8044 10.0575 27.394 12.658L28.2472 12.1364C26.7001 9.60551 25.3279 7.0924 24.074 5.25429C23.4431 4.32937 22.8174 3.53657 22.1823 2.97117C21.5498 2.4081 20.8549 2.02344 20.093 2.02344V3.02344ZM27.394 12.658C28.8748 15.0808 30.3214 17.6058 31.3985 19.5263C31.9369 20.4863 32.3825 21.2945 32.6935 21.8627C32.849 22.1467 32.9708 22.3707 33.0537 22.5236C33.0951 22.6 33.1268 22.6587 33.1481 22.6981C33.1588 22.7179 33.1669 22.7328 33.1722 22.7428C33.1749 22.7478 33.1769 22.7515 33.1783 22.754C33.1789 22.7553 33.1794 22.7562 33.1798 22.7568C33.1799 22.7571 33.1801 22.7573 33.1801 22.7575C33.1802 22.7576 33.1802 22.7576 33.1802 22.7576C33.1802 22.7577 33.1802 22.7577 33.6206 22.5209C34.061 22.2842 34.061 22.2842 34.061 22.2841C34.061 22.2841 34.0609 22.284 34.0609 22.2839C34.0608 22.2837 34.0607 22.2835 34.0605 22.2831C34.0601 22.2825 34.0596 22.2815 34.0589 22.2802C34.0575 22.2776 34.0554 22.2737 34.0526 22.2686C34.0471 22.2583 34.0389 22.2431 34.0281 22.2231C34.0065 22.1831 33.9746 22.124 33.9328 22.047C33.8494 21.893 33.7269 21.6678 33.5707 21.3825C33.2584 20.8119 32.811 20.0006 32.2707 19.0371C31.1904 17.1109 29.737 14.574 28.2472 12.1365L27.394 12.658ZM17.1638 35.3837V24.7102H16.1638V35.3837H17.1638ZM16.243 24.9803L23.0957 35.6538L23.9372 35.1135L17.0845 24.4401L16.243 24.9803ZM24.0164 35.3837V24.7102H23.0164V35.3837H24.0164Z" fill="#6E7191"/>
</svg>
