<svg width="41" height="41" viewBox="0 0 41 41" fill="none" xmlns="http://www.w3.org/2000/svg">
<path d="M38.8205 27.4977C38.8215 29.0299 38.5205 30.5473 37.9346 31.9631C37.3487 33.3789 36.4895 34.6653 35.406 35.7488C34.3226 36.8323 33.0362 37.6915 31.6204 38.2774C30.2046 38.8632 28.6872 39.1643 27.1549 39.1632L28.9047 36.2466M2.15625 14.1655C2.1552 12.6333 2.45622 11.1159 3.0421 9.70009C3.62797 8.28429 4.48721 6.99787 5.57067 5.91442C6.65412 4.83096 7.94054 3.97172 9.35634 3.38585C10.7721 2.79997 12.2896 2.49895 13.8218 2.5L12.072 5.41664M11.5219 26.4313H16.2059C16.4533 26.4315 16.6984 26.383 16.927 26.2884C17.1556 26.1938 17.3634 26.055 17.5383 25.88C17.7132 25.705 17.8519 25.4972 17.9464 25.2685C18.0408 25.0398 18.0893 24.7947 18.0889 24.5473C18.0724 24.0531 17.8687 23.5837 17.5191 23.234C17.1695 22.8844 16.7 22.6807 16.2059 22.6643H11.5219V26.4313ZM11.5219 26.4313L16.8889 26.4308C17.4234 26.3968 17.9496 26.5757 18.3525 26.9286C18.7554 27.2815 19.0022 27.7795 19.0389 28.3138C18.9994 28.847 18.7518 29.3434 18.3495 29.6956C17.9473 30.0479 17.4227 30.2279 16.8889 30.1968H11.5219V26.4313ZM14.5215 30.1813V32.0483M14.5215 20.7985V22.6655M25.2392 26.4318C25.2392 28.4655 24.6361 30.4536 23.5062 32.1446C22.3763 33.8356 20.7704 35.1535 18.8915 35.9318C17.0125 36.7101 14.945 36.9137 12.9504 36.5169C10.9557 36.1202 9.12353 35.1408 7.68547 33.7028C6.2474 32.2647 5.26807 30.4325 4.87131 28.4379C4.47455 26.4432 4.67818 24.3757 5.45646 22.4968C6.23473 20.6179 7.55269 19.0119 9.24367 17.882C10.9347 16.7522 12.9227 16.1491 14.9564 16.1491C15.2234 16.1491 15.4734 16.1661 15.7563 16.1821C18.2039 16.3713 20.5031 17.4294 22.239 19.1652C23.9748 20.9011 25.0329 23.2003 25.2222 25.6479C25.2222 25.8979 25.2392 26.1478 25.2392 26.4318ZM36.3218 15.3322C36.3224 16.6827 36.0569 18.0201 35.5404 19.268C35.0239 20.5158 34.2665 21.6497 33.3115 22.6046C32.3565 23.5596 31.2227 24.317 29.9749 24.8335C28.727 25.35 27.3896 25.6156 26.0391 25.6149H25.2222C25.0331 23.1672 23.9752 20.8677 22.2393 19.1316C20.5034 17.3956 18.2041 16.3374 15.7563 16.1481V15.3312C15.7563 12.604 16.8397 9.9886 18.7681 8.06021C20.6965 6.13183 23.3119 5.04848 26.0391 5.04848C28.7662 5.04848 31.3817 6.13183 33.31 8.06021C35.2384 9.9886 36.3218 12.604 36.3218 15.3312V15.3322Z" stroke="#6E7191" stroke-linecap="round" stroke-linejoin="round"/>
</svg>
