<svg width="41" height="41" viewBox="0 0 41 41" fill="none" xmlns="http://www.w3.org/2000/svg">
<g clip-path="url(#clip0_35181_5706)">
<path d="M32.4501 11.8526L31.9596 11.9498L31.9611 11.9574L31.9629 11.965L32.4501 11.8526ZM8.54889 29.6868L8.65864 29.199L8.64336 29.1956L8.62789 29.1931L8.54889 29.6868ZM7.3655 29.3701L7.19062 29.8386L7.19462 29.84L7.3655 29.3701ZM19.8424 20.7333L20.294 20.9479L19.8424 20.7333ZM30.3164 34.4248L30.3492 33.9259C30.3383 33.9252 30.3273 33.9248 30.3164 33.9248V34.4248ZM15.6836 34.4248V33.9247L15.6745 33.9249L15.6836 34.4248ZM10.8135 32.9082L11.1261 32.518C10.9138 32.3479 10.6044 32.3788 10.4299 32.5875C10.2554 32.7961 10.2798 33.106 10.4847 33.2849L10.8135 32.9082ZM11.3926 33.3721L11.08 33.7623C11.1001 33.7785 11.1215 33.793 11.1439 33.8058L11.3926 33.3721ZM14.4082 34.4248L14.4502 33.9266C14.441 33.9258 14.4317 33.9253 14.4225 33.925L14.4082 34.4248ZM30.5195 34.4351V34.9352L30.5326 34.9349L30.5195 34.4351ZM35.3066 32.8071L35.6258 33.192C35.6302 33.1884 35.6344 33.1847 35.6387 33.181L35.3066 32.8071ZM37.167 18.4038L36.667 18.4076C36.6671 18.4148 36.6673 18.4219 36.6676 18.4291L37.167 18.4038ZM36.749 16.186L36.2664 16.3168C36.2708 16.333 36.276 16.3489 36.282 16.3645L36.749 16.186ZM36.0098 14.4961L36.4335 14.2306C36.4145 14.2004 36.3925 14.1723 36.3676 14.1469L36.0098 14.4961ZM35.6514 14.1289L36.0092 13.7797C35.8237 13.5896 35.5219 13.5777 35.322 13.7527C35.1222 13.9276 35.094 14.2283 35.2578 14.4373L35.6514 14.1289ZM37.168 18.9912L36.6689 18.9613C36.6683 18.9713 36.668 18.9812 36.668 18.9912H37.168ZM37.168 27.5742H36.668C36.668 27.587 36.6685 27.5999 36.6695 27.6126L37.168 27.5742ZM8.46555 22.5364C7.50101 22.5364 6.71549 21.7509 6.71549 20.7864H5.71549C5.71549 22.3032 6.94872 23.5364 8.46555 23.5364V22.5364ZM6.71549 20.7864V15.7861H5.71549V20.7864H6.71549ZM6.71549 15.7861C6.71549 14.8216 7.50101 14.0361 8.46555 14.0361V13.0361C6.94872 13.0361 5.71549 14.2693 5.71549 15.7861H6.71549ZM8.46555 14.0361C9.4301 14.0361 10.2156 14.8216 10.2156 15.7861H11.2156C11.2156 14.2693 9.98239 13.0361 8.46555 13.0361V14.0361ZM10.2156 15.7861V20.7864H11.2156V15.7861H10.2156ZM10.2156 20.7864C10.2156 21.7509 9.4301 22.5364 8.46555 22.5364V23.5364C9.98239 23.5364 11.2156 22.3032 11.2156 20.7864H10.2156ZM27.5165 22.5364C26.5519 22.5364 25.7664 21.7509 25.7664 20.7864H24.7664C24.7664 22.3032 25.9996 23.5364 27.5165 23.5364V22.5364ZM25.7664 20.7864V15.7861H24.7664V20.7864H25.7664ZM25.7664 15.7861C25.7664 14.8216 26.5519 14.0361 27.5165 14.0361V13.0361C25.9996 13.0361 24.7664 14.2693 24.7664 15.7861H25.7664ZM27.5165 14.0361C28.481 14.0361 29.2665 14.8216 29.2665 15.7861H30.2665C30.2665 14.2693 29.0333 13.0361 27.5165 13.0361V14.0361ZM29.2665 15.7861V20.7864H30.2665V15.7861H29.2665ZM29.2665 20.7864C29.2665 21.7509 28.481 22.5364 27.5165 22.5364V23.5364C29.0333 23.5364 30.2665 22.3032 30.2665 20.7864H29.2665ZM10.6823 7.15234H25.3164V6.15234H10.6823V7.15234ZM25.3164 7.15234C27.1175 7.15234 28.612 7.53479 29.7303 8.30751C30.8376 9.0727 31.6233 10.2528 31.9596 11.9498L32.9405 11.7554C32.5601 9.83557 31.6457 8.41554 30.2988 7.48481C28.9627 6.5616 27.2488 6.15234 25.3164 6.15234V7.15234ZM31.9629 11.965C32.1024 12.5698 32.1667 13.2307 32.1667 13.986H33.1667C33.1667 13.1746 33.0977 12.4355 32.9373 11.7402L31.9629 11.965ZM32.1667 13.986V22.5698H33.1667V13.986H32.1667ZM32.1667 22.5698C32.1667 25.0413 31.4631 26.7243 30.3097 27.7953C29.1497 28.8725 27.4565 29.4035 25.333 29.4035V30.4035C27.6098 30.4035 29.5835 29.8344 30.9902 28.5281C32.4036 27.2157 33.1667 25.2319 33.1667 22.5698H32.1667ZM25.333 29.4035H10.6823V30.4035H25.333V29.4035ZM10.6823 29.4035C9.96105 29.4035 9.28215 29.3393 8.65864 29.199L8.43914 30.1746C9.14904 30.3343 9.90353 30.4035 10.6823 30.4035V29.4035ZM8.62789 29.1931C8.25076 29.1327 7.8823 29.026 7.53639 28.9002L7.19462 29.84C7.58206 29.9809 8.01364 30.1075 8.4699 30.1805L8.62789 29.1931ZM7.54038 28.9017C6.38336 28.4697 5.47247 27.7617 4.84502 26.7449C4.21417 25.7226 3.84863 24.3534 3.84863 22.5698H2.84863C2.84863 24.4864 3.24146 26.0506 3.99402 27.2701C4.74997 28.4951 5.84752 29.3371 7.19063 29.8385L7.54038 28.9017ZM3.84863 22.5698V13.986H2.84863V22.5698H3.84863ZM3.84863 13.986C3.84863 11.5145 4.55226 9.83148 5.70563 8.76049C6.8657 7.68328 8.55887 7.15234 10.6823 7.15234V6.15234C8.40557 6.15234 6.43189 6.72146 5.02517 8.0277C3.61175 9.34017 2.84863 11.3239 2.84863 13.986H3.84863ZM8.46555 22.5364C9.42507 22.5364 10.2156 21.7459 10.2156 20.7864H9.21561C9.21561 21.1936 8.87278 21.5364 8.46555 21.5364V22.5364ZM10.2156 20.7864V15.7861H9.21561V20.7864H10.2156ZM10.2156 15.7861C10.2156 14.8266 9.42507 14.0361 8.46555 14.0361V15.0361C8.87278 15.0361 9.21561 15.3789 9.21561 15.7861H10.2156ZM8.46555 14.0361C7.50604 14.0361 6.71549 14.8266 6.71549 15.7861H7.71549C7.71549 15.3789 8.05833 15.0361 8.46555 15.0361V14.0361ZM6.71549 15.7861V20.7864H7.71549V15.7861H6.71549ZM6.71549 20.7864C6.71549 21.7459 7.50604 22.5364 8.46555 22.5364V21.5364C8.05833 21.5364 7.71549 21.1936 7.71549 20.7864H6.71549ZM19.8424 15.2341C20.0663 14.7871 20.0661 14.787 20.0659 14.7869C20.0659 14.7869 20.0657 14.7868 20.0656 14.7867C20.0653 14.7866 20.0649 14.7864 20.0646 14.7862C20.0638 14.7859 20.0629 14.7854 20.0619 14.7849C20.0597 14.7838 20.0569 14.7824 20.0534 14.7807C20.0465 14.7774 20.037 14.7728 20.0251 14.7671C20.0012 14.7558 19.9674 14.7402 19.925 14.7216C19.8405 14.6843 19.7207 14.6343 19.5757 14.5816C19.2889 14.4774 18.8881 14.3567 18.4577 14.3077C18.0328 14.2593 17.5311 14.2752 17.0775 14.4936C16.6003 14.7234 16.2364 15.1487 16.0649 15.7929L17.0312 16.0501C17.1343 15.6632 17.3194 15.487 17.5114 15.3946C17.727 15.2907 18.0145 15.2637 18.3446 15.3012C18.669 15.3382 18.9889 15.4323 19.234 15.5214C19.3549 15.5654 19.4539 15.6067 19.5216 15.6366C19.5554 15.6515 19.5812 15.6634 19.5977 15.6712C19.606 15.6752 19.612 15.678 19.6155 15.6797C19.6173 15.6806 19.6184 15.6812 19.6189 15.6814C19.6191 15.6815 19.6192 15.6816 19.6192 15.6815C19.6191 15.6815 19.619 15.6815 19.6189 15.6814C19.6189 15.6814 19.6188 15.6813 19.6187 15.6813C19.6186 15.6813 19.6185 15.6812 19.8424 15.2341ZM16.0649 15.7929C15.8645 16.5455 16.1922 17.136 16.6295 17.5751C17.046 17.9932 17.6373 18.3514 18.1262 18.6651C18.653 19.0032 19.0714 19.2954 19.3098 19.61C19.4211 19.7569 19.4776 19.89 19.4939 20.0183C19.5098 20.1442 19.4922 20.3052 19.3908 20.5187L20.294 20.9479C20.4638 20.5904 20.5296 20.2373 20.4859 19.8925C20.4425 19.5502 20.2963 19.2561 20.1068 19.006C19.7434 18.5265 19.1675 18.1452 18.6664 17.8236C18.1274 17.4776 17.6574 17.19 17.338 16.8694C17.0396 16.5697 16.9571 16.3286 17.0312 16.0501L16.0649 15.7929ZM19.3908 20.5187C19.0878 21.1563 18.4201 21.3324 17.6248 21.2757C17.2434 21.2485 16.8804 21.1683 16.609 21.093C16.4745 21.0556 16.3651 21.0202 16.2906 20.9945C16.2534 20.9817 16.225 20.9714 16.2066 20.9646C16.1975 20.9612 16.1908 20.9587 16.1869 20.9571C16.1849 20.9564 16.1836 20.9559 16.183 20.9556C16.1827 20.9555 16.1825 20.9555 16.1826 20.9555C16.1826 20.9555 16.1827 20.9555 16.1828 20.9555C16.1828 20.9556 16.1829 20.9556 16.183 20.9556C16.1831 20.9557 16.1832 20.9557 15.999 21.4206C15.8148 21.8854 15.815 21.8855 15.8152 21.8855C15.8152 21.8856 15.8154 21.8856 15.8156 21.8857C15.8158 21.8858 15.8162 21.8859 15.8166 21.8861C15.8173 21.8864 15.8183 21.8867 15.8194 21.8872C15.8216 21.8881 15.8246 21.8892 15.8282 21.8906C15.8355 21.8934 15.8456 21.8972 15.8583 21.902C15.8838 21.9114 15.9198 21.9245 15.9653 21.9401C16.056 21.9713 16.1848 22.013 16.3415 22.0565C16.6527 22.1429 17.0847 22.2397 17.5537 22.2731C18.4591 22.3377 19.7131 22.1703 20.294 20.9479L19.3908 20.5187ZM17.499 13.7852V22.7852H18.499V13.7852H17.499ZM30.3164 33.9248H15.6836V34.9248H30.3164V33.9248ZM15.6745 33.9249C14.6605 33.9433 13.6524 33.7784 12.6975 33.4373L12.3611 34.3791C13.4299 34.7608 14.5582 34.9453 15.6927 34.9247L15.6745 33.9249ZM12.6952 33.4365C12.1249 33.2359 11.5974 32.9287 11.1423 32.5315L10.4847 33.2849C11.0357 33.7658 11.6739 34.1373 12.3634 34.3799L12.6952 33.4365ZM10.5009 33.2985L11.08 33.7623L11.7052 32.9818L11.1261 32.518L10.5009 33.2985ZM11.1439 33.8058C11.5309 34.0277 11.9356 34.2184 12.3526 34.376L12.706 33.4405C12.3384 33.3016 11.9819 33.1336 11.6413 32.9383L11.1439 33.8058ZM12.2859 34.345C12.9319 34.705 13.655 34.9035 14.3939 34.9246L14.4225 33.925C13.8438 33.9085 13.278 33.7531 12.7727 33.4715L12.2859 34.345ZM14.3663 34.923C14.7729 34.9573 15.6055 34.9248 16.125 34.9248V33.9248C15.5125 33.9248 14.8036 33.9563 14.4502 33.9266L14.3663 34.923ZM16.125 34.9248H30.1475V33.9248H16.125V34.9248ZM30.1475 34.9248C30.1429 34.9248 30.1453 34.9247 30.1705 34.9259C30.1901 34.9268 30.2188 34.9282 30.2521 34.9295C30.3199 34.9323 30.4104 34.9351 30.5195 34.9351V33.9351C30.4276 33.9351 30.3512 33.9327 30.2927 33.9303C30.2628 33.9291 30.2386 33.928 30.2163 33.9269C30.1995 33.9262 30.171 33.9248 30.1475 33.9248V34.9248ZM30.5326 34.9349C32.3577 34.8873 34.1253 34.2863 35.601 33.2113L35.0123 32.403C33.7004 33.3586 32.129 33.8929 30.5065 33.9352L30.5326 34.9349ZM35.6387 33.181C36.6397 32.292 37.137 30.9975 37.389 29.977C37.6432 28.9473 37.667 28.1163 37.667 28.0689H36.667C36.667 28.0514 36.6496 28.8001 36.4181 29.7373C36.1845 30.6836 35.7516 31.7432 34.9746 32.4333L35.6387 33.181ZM37.667 28.0689V22.687H36.667V28.0689H37.667ZM37.667 22.687C37.667 22.2442 37.7371 19.7769 37.6664 18.3785L36.6676 18.4291C36.7369 19.7967 36.667 22.1798 36.667 22.687H37.667ZM37.667 18.4C37.6608 17.5819 37.5081 16.7718 37.2161 16.0076L36.282 16.3645C36.5313 17.0171 36.6617 17.709 36.667 18.4076L37.667 18.4ZM37.2316 16.0552C37.057 15.4109 36.7878 14.7961 36.4335 14.2306L35.5861 14.7616C35.8882 15.2438 36.1176 15.7679 36.2664 16.3168L37.2316 16.0552ZM36.3676 14.1469L36.0092 13.7797L35.2936 14.4782L35.652 14.8453L36.3676 14.1469ZM35.2578 14.4373C36.2648 15.7222 36.7665 17.3316 36.6689 18.9613L37.6671 19.0211C37.7794 17.1478 37.2027 15.2977 36.0449 13.8205L35.2578 14.4373ZM36.668 18.9912V27.5742H37.668V18.9912H36.668ZM36.6695 27.6126C36.7376 28.4969 36.6197 29.3854 36.3228 30.2207L37.2651 30.5556C37.609 29.5881 37.7454 28.5593 37.6665 27.5358L36.6695 27.6126ZM36.3228 30.2207C36.026 31.0557 35.5554 31.8196 34.9442 32.4627L35.6691 33.1516C36.376 32.4078 36.921 31.5236 37.2651 30.5556L36.3228 30.2207ZM34.9874 32.4223C33.6899 33.4985 32.0312 34.0363 30.3492 33.9259L30.2837 34.9237C32.221 35.0509 34.1315 34.4314 35.6258 33.192L34.9874 32.4223Z" fill="#6E7191"/>
</g>
<defs>
<clipPath id="clip0_35181_5706">
<rect width="40" height="40" fill="white" transform="translate(0.499023 0.785156)"/>
</clipPath>
</defs>
</svg>
