<svg width="40" height="41" viewBox="0 0 40 41" fill="none" xmlns="http://www.w3.org/2000/svg">
<g clip-path="url(#clip0_35181_4857)">
<path d="M24.499 18.252V25.252L27.999 28.752M30.0892 9.57867C28.5078 6.13967 25.0323 3.75195 20.999 3.75195H12.999C7.47618 3.75195 2.99902 8.2291 2.99902 13.752V28.752C2.99902 34.2748 7.47618 38.752 12.999 38.752H17.247M38.999 24.752C38.999 32.4839 32.731 38.752 24.999 38.752C17.267 38.752 10.999 32.4839 10.999 24.752C10.999 17.02 17.267 10.752 24.999 10.752C32.731 10.752 38.999 17.02 38.999 24.752Z" stroke="#6E7191" stroke-linecap="round" stroke-linejoin="round"/>
</g>
<defs>
<clipPath id="clip0_35181_4857">
<rect width="40.002" height="40.002" fill="white" transform="translate(-0.000976562 0.755859)"/>
</clipPath>
</defs>
</svg>
