
<svg version="1.2" xmlns="http://www.w3.org/2000/svg" viewBox="0 0 1440 619" width="1440" height="619">
	<title>cover-svg</title>
	<defs>
		<clipPath clipPathUnits="userSpaceOnUse" id="cp1">
			<path d="m955.88 186.32v471.15h-956.12v-471.15z"/>
		</clipPath>
		<linearGradient id="g1" x2="1" gradientUnits="userSpaceOnUse" gradientTransform="matrix(-99.395,420.193,-1321.766,-312.66,341.477,547.985)">
			<stop offset="0" stop-color="#ffbf00"/>
			<stop offset=".61" stop-color="#c29200"/>
			<stop offset="1" stop-color="#bc8d00"/>
		</linearGradient>
		<linearGradient id="g2" x2="1" gradientUnits="userSpaceOnUse" gradientTransform="matrix(532.76,-65.068,115.158,942.883,45.618,680.765)">
			<stop offset="0" stop-color="#feffbb"/>
			<stop offset=".61" stop-color="#b9bb70"/>
			<stop offset="1" stop-color="#b8bb3e"/>
		</linearGradient>
		<linearGradient id="g3" x2="1" gradientUnits="userSpaceOnUse" gradientTransform="matrix(365.203,-26.908,70.078,951.106,194.886,679.082)">
			<stop offset="0" stop-color="#feffbb"/>
			<stop offset=".61" stop-color="#b9bb70"/>
			<stop offset="1" stop-color="#b8bb3e"/>
		</linearGradient>
		<linearGradient id="g4" x2="1" gradientUnits="userSpaceOnUse" gradientTransform="matrix(813.025,-236.02,95.038,327.381,-79.158,740.696)">
			<stop offset="0" stop-color="#feffbb"/>
			<stop offset=".61" stop-color="#b9bb70"/>
			<stop offset="1" stop-color="#b8bb3e"/>
		</linearGradient>
		<linearGradient id="g5" x2="1" gradientUnits="userSpaceOnUse" gradientTransform="matrix(616.152,-68.448,127.399,1146.805,8.086,741.18)">
			<stop offset="0" stop-color="#feffbb"/>
			<stop offset=".61" stop-color="#b9bb70"/>
			<stop offset="1" stop-color="#b8bb3e"/>
		</linearGradient>
		<linearGradient id="g6" x2="1" gradientUnits="userSpaceOnUse" gradientTransform="matrix(23.141,23.134,-23.131,23.138,644.999,250.957)">
			<stop offset="0" stop-color="#d5ceb9"/>
			<stop offset="1" stop-color="#9e7700"/>
		</linearGradient>
		<linearGradient id="g7" x2="1" gradientUnits="userSpaceOnUse" gradientTransform="matrix(49.653,49.65,-49.65,49.653,502.723,444.14)">
			<stop offset="0" stop-color="#d5ceb9"/>
			<stop offset="1" stop-color="#9e7700"/>
		</linearGradient>
		<linearGradient id="g8" x2="1" gradientUnits="userSpaceOnUse" gradientTransform="matrix(32.013,32.01,-32.01,32.013,406.173,472.797)">
			<stop offset="0" stop-color="#d5ceb9"/>
			<stop offset="1" stop-color="#9e7700"/>
		</linearGradient>
		<linearGradient id="g9" x2="1" gradientUnits="userSpaceOnUse" gradientTransform="matrix(640.568,-114.034,152.259,855.289,-117.158,708.929)">
			<stop offset="0" stop-color="#feffbb"/>
			<stop offset=".61" stop-color="#b9bb70"/>
			<stop offset="1" stop-color="#b8bb3e"/>
		</linearGradient>
		<linearGradient id="g10" x2="1" gradientUnits="userSpaceOnUse" gradientTransform="matrix(22.634,22.633,-22.633,22.634,341.197,597.643)">
			<stop offset="0" stop-color="#d5ceb9"/>
			<stop offset="1" stop-color="#9e7700"/>
		</linearGradient>
		<linearGradient id="g11" x2="1" gradientUnits="userSpaceOnUse" gradientTransform="matrix(13.108,-3.592,1.729,6.311,395.26,490.923)">
			<stop offset="0" stop-color="#feffbb"/>
			<stop offset=".61" stop-color="#b9bb70"/>
			<stop offset="1" stop-color="#b8bb3e"/>
		</linearGradient>
		<linearGradient id="g12" x2="1" gradientUnits="userSpaceOnUse" gradientTransform="matrix(13.046,-3.889,1.893,6.35,487.008,464.639)">
			<stop offset="0" stop-color="#feffbb"/>
			<stop offset=".61" stop-color="#b9bb70"/>
			<stop offset="1" stop-color="#b8bb3e"/>
		</linearGradient>
	</defs>
	<style>
		.s0 { fill: #4b4b4b } 
		.s1 { fill: #ffc107 } 
		.s2 { fill: url(#g1) } 
		.s3 { opacity: .5;fill: url(#g2) } 
		.s4 { opacity: .7;fill: url(#g3) } 
		.s5 { fill: url(#g4) } 
		.s6 { fill: url(#g5) } 
		.s7 { opacity: .7;fill: url(#g6) } 
		.s8 { fill: url(#g7) } 
		.s9 { fill: url(#g8) } 
		.s10 { opacity: .5;fill: url(#g9) } 
		.s11 { fill: url(#g10) } 
		.s12 { fill: url(#g11) } 
		.s13 { fill: url(#g12) } 
	</style>
	<g id="Clip-Path" clip-path="url(#cp1)">
		<g>
			<path class="s0" d="m306.3 1084.1c-230.1 0-416.1-186-416.1-416.2 0-230.1 186-416.1 416.1-416.1 230.1 0 416.1 186 416.1 416.1 0 230.2-186 416.2-416.1 416.2z"/>
			<g style="opacity: .5">
				<path fill-rule="evenodd" class="s1" d="m-106.9 615.7q0.7-1.5 1.1-3.2c0-1.4 0.4-2.7 1.1-3.9 0.5 0.9 1.3 1.7 2.3 2.2 0.6 0 0.8 0.4 0.6 1.2 0.4 0 0.8 0.2 1.1 0.6 0.2 0.3 0.4 0.7 0.3 1.1l0.6 0.4c5 0.7 9.4-2.2 12.5-3.2 0.5-6.8 4.5-4.4 7.5-8.4 6.4-8.6 9.3-9.1 7.3-12.3-0.5-0.8-1.2-1.5-2-2.1-0.8-0.5-1.7-0.8-2.7-0.9l-0.2 0.2h-0.3l-0.5 1.1q-0.1 0.7-0.5 1.2-0.4 0.6-1.1 0.9l-1.5 2.5q0 0.5-0.3 0.9-0.2 0.3-0.6 0.6-0.3 0.6-0.6 1.1c0.1 0.5 0 1-0.2 1.4-0.2 0.4-0.6 0.7-1 0.9q-0.1 0.5-0.5 0.9-0.4 0.3-0.9 0.3c-1.4 0.4-2.6 1-3.7 1.8q-0.1 0.5-0.4 0.9-0.4 0.3-0.9 0.4-0.2 0.1-0.3 0.3-0.4 0.6-1 1-0.6 0.4-1.3 0.5-0.1 0.2-0.2 0.4-0.2 0.2-0.5 0.2-1.6 0.4-3.1 0.9c-6.1 3.5-6.8-1.4-8.7-1.1 11-64.5 36.2-125.7 73.6-179.3 1.4-1 3.1-2.1 6.7-4.5 3.6-2.3 4.2-2.8 4-2 1.7-0.9 3.1-1.4 4.9-2.5q0.9-0.6 1.9-0.7 2.2-0.3 4.2-1c0.5-0.2 0.5-0.1 0.5 0.3q1-0.6 2.2-1c-0.3 1.7 1.5 0.9 3.5-0.2q3-2 5.5-4.4c-1.1-0.2-2.2 0-3.1 0.6-0.8 0.3-0.5-0.3 0.4-1.3 2.5-2.9 4.1-3.5 10.4-6.9-2.2 2.1-3.1 3.5-3.1 4.6 0 1.8-3.5 3.2-3.5 5.2 0.1 0.9 0.4 0.9 2.3-0.6 1.8-1.4 3.8-2.9 4.8-2.8 1.6 0.3 4-0.7 5.5-0.2 0.7 0.4 0.8 0.3-0.7 2.2-1.4 1.8-1.5 2.3-0.2 1.8 2.9-1.1 5.6-2.6 8-4.5 1.6-1.3 3.6-2.1 3.4-1.1-0.2 0.7-0.8 1.2-1.3 1.6-1.7 1.7-3.3 1.5-4.1 3.3-0.7 1.4 0.9 1.2 2.1 0.3q2.4-1.5 4.5-3.2 1-1.1 2.3-1.8 1-0.3 1.7-0.9 0.7-0.7 1.1-1.5c0.5-1.2 1.8-2.3 2.2-3.6 0.1-0.8 0.5-1.6 1-2.2 0.5-0.7 1.2-1.2 1.9-1.6 1.2-0.9 2.6-1.5 2.9-2.5 0.4-1.5-4.8 2-6.7 3.2q-6.6 4-13.6 7.1c-3.2 1.3-8.8 2-2.7-4.1q0.9-1 2-1.7c7.6-4.9 17.6-13.5 24.7-16.5 5.1-2.2 7.1-6.4 10-6.5q1.9-0.5 3.6-1.4c0.9-0.4 1.7-1 2.2-1.9h-1.6l0.4-1c4.2-3.2 7.3-4.3 10.2-6.5 1.6-1.3 3.4-2.2 4-1 0.2 0.4 0.7 0.2 1.4-0.5q0.2-0.4 0.6-0.6 0.5-0.1 0.9-0.1c4.2-5.1 6.6-1.8 13.2-5.1q0.4-0.2 0.9-0.3c1.8-0.4-1 2.3 2.4 1.1 2.7-1 5.4-2 8.2-2.9 0.7-0.2 1.7-0.9 2-0.4 1 1.3 3.1 0.8 4.4 1.5 0.5 0.2 1.4 0.1 1.6 0.6 0.4 1.2 1.3 0.8 2.6-0.3 0.4-0.4 0.9-0.7 1.4-0.8 0.6-0.1 1.1 0 1.6 0.3 1.6 0.3 3.2 0.9 4.6 1.7 0.2 0.2 0.6 0 0.9 0 0.7 0.1 1.9 0.1 1.5 1.1-0.8 1.6-4.5-0.1-5.8 2.6-0.5 1.1 0 1.6 0.6 1.6 2.1 0.3 3.6 1.8 5.5 2.7q0.6 0.1 1.2 0.5 0.5 0.4 0.8 0.9 0.3 0.6 0.4 1.2 0.1 0.6-0.1 1.2c-0.5 3.2 3 1.3 3.2 2.5 0.2 2 1.8 1.9 2.7 3.2 0.8 1.3 2 1.5 3.8 1 4.9-1.5 2.9 2.3 7.5 2.6 3 0.1 2.5 1.8 5.3 1.8 1.6-0.1 2.8 2.6 2.6 4.6-0.2 3-1.8 5.7-2.8 8.6-0.6 2.3-1.8 4.3-3.4 6-0.2 1.5-0.9 2.2-2 2.3-4.1 3.7-9.6 4.8-12.5 2.4-1.8-1.4-3.5-3-6.5-2-2.1 0.6-2.3 0.7-3.4 3.3-0.8 2.2-2 4.3-3.6 6.1-1.3 1.6-2.4 3.4-3.9 5-1.2 1.1-1 2.3 0 2.4 0.9 0.1 1.8 0.6 2.5 0.8 0.8 0.1 1.8-0.4 2.5 0.2 0.8 0.7-0.5 2.3 0.1 3 1.9-1.9 1.5-3.5 1.6-5.3 0.2-1 0.8-1.8 1.6-2.4 2.2-2-0.5-3 1.6-5 1-0.9 1.9-0.8 2.4 0 0.8 1.3 2.1 1.3 3.6 1.3 4.6-0.1 2.4 6.4 1.4 7.9-1.9 2.8-1.2 5.3-2.1 8-0.4 1.2 0.6 1.5 1.5 1.4 3.7-0.4 6.9 0.8 10.6 0.6 2-0.2 3.9 0.7 3.7 4q-0.1 0.6 0.1 1.1 0.2 0.5 0.6 0.9c2.7 2.2 5.2 4.9 9 5.2 4.4 0.4 0.5 5.4 5.4 5.9 5.2 0.5 1.5 3.4 6.1 2.4 1.1-0.2 2.1-0.6 2.9-1.4 0.7-0.7 1.7-1.5 2.5-0.7 1.4 1.2-2.2 4.7 0.9 5.2 1 0.1 2.1 0.7 2.9 0 2.8-2.2 5.2-0.8 7.7-1.2 0.9-0.1 2-0.1 1.9 1.4q0 1.1-0.5 2.1c-0.4 0.6-0.8 1.1-1.4 1.5-1.3 0.7-8 1-11.2 7.5q-0.6 1-1.5 1.6c-2 1.4-4.8 7.2-3.5 14.3 0.7 3.6 1.3 4.4 4.2 4.3 3.6-0.1 7.3-2.5 10.9-1.1 0.1 0.1 0.2 0 0.3 0 4-2 8-1.3 12-2.4 3.4-0.9 6 0.3 8.7 1.7 1.4 0.7 1.4 1.6 0.7 3.3-5.1 12.3 0 19.9 0.4 21.6 0.3 1.3 0.2 3-0.9 3.6-4.2 2.4-1.3 8.4-3.6 9.1-1.9 0.6-3.7 1.9-5.5 0.4l-1.9-0.4h-0.5c-4.2 1.9-3.3 4.9-5.5 6.4q-0.2 1.7-0.5 3.3c0.9 2.3 1.7 11 10.4 13.5q0.3 0.1 0.6 0.2c2.4 2.1 5.2 3.8 5 8.5 4.3 4.6 1.8 7.2 1.2 12.2 1.4 2.3 2.3 5.1 4.5 6.4 2.1 1.4 4 3.1 5.6 5.1 2.5 0.6 7.7 0.5 9 8q0.2 0.9 0.8 1.6c0.4 0.4 0.9 0.8 1.4 1 1.8 0.8 2.5 2.5 3.4 4.5 1 2.3 0.7 5.1 1.8 7.3 0.7 0 1.1 0.5 1.2 1.4q0 0.1 0.1 0.2 0.1 0.1 0.2 0.1 0.5 0.1 0.7 0.4 0.3 0.3 0.3 0.7c0.8 2.4 2.8 1.3 2.3 4q0 0.1 0.1 0.2 0 0.2 0.1 0.2c0.5 0.3 0.8 0.8 1 1.3 0.2 0.5 0.3 1 0.1 1.5q0.3 0.7 0.5 1.4c0.3 0.1 0.3 0.4 0.3 0.8 0 0.7 0.2 1.3 0.6 1.9q0.5 0.2 0.9 0.6 0.3 0.4 0.4 1l0.7 0.8h0.1c0 0.2-0.1 0.2-0.1 0.2h0.1q0.2 0.6 0.4 1.3 1 0.4 0.3 1.4c0.1 1.2 0.1 2.4 0.1 3.6 0.6 0.1 0.9 0.8 0.6 1.1-3.2 3.7 0.4 6.4-2 9.8q-1.3 2.4-3.1 4.4-0.1 0.8-0.3 1.6c1.1 5.1-0.8 7.5 0.9 10.7l-0.1 0.8c0 0 0.1-0.5 0.1-0.8 1.4 1.3 1.4 4 2 9.6q0.4 0.3 0.7 0.7 0.2 0.5 0.2 1 0 0.2 0.2 0.4c2.8 2 2.9 2.5 0.6 5.2q-0.2 0.3-0.5 0.4-0.2 0.7-0.4 1.5-0.3 6.6 0.4 13.1 0.2 0.7 0 1.5-0.1 0.7-0.5 1.3c-1.8 2-2.6 5.5-5.6 5.4q-0.3 0-0.5 0.1-0.2 0.1-0.4 0.4c-1.6 3-4.5 3.9-6.7 5.7-3.4 2.8-4.1 7.4-5.7 11.3-0.7 1.7 2.1 3.1-0.7 4.2-1.3 0.5-2.4 1.7-3.6 2.2-7.2 2.8-9.7 8.6-20.4 16.8-0.9 0.8-2.1 1.2-3.4 1.3-1.2 0-2.4-0.4-3.4-1.1-7.9-4.3-15.9-6.2-24-2.5-0.5 0.3-1 0.4-1.6 0.3-0.5 0-1-0.2-1.5-0.6-3.4-2.5-7.3-2.3-8.9-5.4l-1.4-0.4q-0.5 0.3-0.8-0.2-0.8-0.1-1.5-0.5c-3.1-2.8-6.5-2.9-9.9-3.4-1.4 0.3-2.8 0.2-4.1-0.2-6.3-1.8-7.2 6.5-9.2 9.8-2.5 4.4-2.8 3.5-7.3 1.8-2.9 0.8-7.4-3.1-9.8 1.6-1.2 2.2-2.9-0.5-3.5 4.8-0.6 3.3-0.3 6.6 0.9 9.6 2.5 5.7 1 10.2 3.2 13.4 2.2 3.2 2.1 3.2 0.7 6.5q-2 3.8-4 7.6c-2.3 2.5-3.6 6-5.9 8.5-1.6 2-2.5 4.4-2.7 6.9-0.2 1.5-0.3 2.5-3.6 14.4-1.4 5.5 2.7 4.6 1.4 8.2-0.8 2-0.9 4.5-1.7 6.5-0.7 2.1-0.7 4.3 0 6.4q1 2.7 2.2 5.3c4.7 2.7 6.4 11.9 7.9 15.6 0.7 0.6 0.7 1.6 0.9 2.6l0.7 1.1c0.7 0.5 0.2 0.7 2 10.5q0.3 1.1 0.2 2.3-0.2 1.1-0.8 2.2c-1.4 2.6-2.5 5.4-3.2 8.3q-0.6 2.8-1.2 5.7c-0.3 1.1-0.6 2.1-1.6 2.4 0 0.7-0.1 1.4-0.4 2-0.5 1-0.8 2-0.9 3.1 0 1 0.1 2.1 0.5 3.1 0.9 2.7 1.1 5.5 0.5 8.3q-0.2 1.1 0 2.2c0.7 4 0.7 8-0.1 11.9q0.1 1-0.2 1.9c-0.2 0.7-0.6 1.2-1.1 1.7-1.2 1.4-2.2 3-2.7 4.7 0.1 0.7 0 1.1-0.4 1.1q0.2 1.7 0 3.3c-0.1 2.2-0.6 4.3-1.6 6.2-0.4 0.9-0.5 1.9-0.3 2.8 1.2 2.8 1.9 5.8 1.9 8.8 0 0.2 0 0.2 0 0.6 0 0.4-0.1 0.7-0.5 0.7-1.2 0.3-2.3 0.8-3.3 1.6-0.3 0.2-0.7 0.3-1.1 0.2-0.4 0-0.7-0.2-0.9-0.5-1.7-1.7-3.8-2.8-6.1-3.3-0.7-0.2-1.3-0.5-1.8-1-3.2-3.1-5.8-3.1-8.5-3.9-1.7-0.2-3.4-0.7-4.9-1.6-2.5-1.6-5-2.7-7.4-4.2q-1.3-0.9-2.4-1.9c-3.7-3.1-7.3-7.1-10.9-10.7-7.4-7.6-9.2-12.6-13.3-16.1-3.8-3.1-6.1-8.7-7.9-12.5-0.6-1-1-2.3-1-3.6 0.3-0.9-0.6-2-1.5-2.8-1.8-1.5-4.1-2.6-8.5-5.9-1.6-1.1-2.8-2.7-3.6-4.5q-1.8-4.8-2.9-9.8c-0.1-0.8-0.2-1.6 0.4-1.8-0.3-0.7-0.3-1.5-0.1-2.3-0.5-1.7 0.6-2.5 0-4.2-2.2-2.9-4.7-5.5-7.5-7.7q-0.9-0.8-1.6-1.8c-2.6-3.7-6.1-6.8-10.2-8.9-1-0.5-1.9-1.2-2.5-2.2q-0.3 0-0.5-0.2c-1-0.6-1.9-1.4-2.5-2.4q-1-0.9-1.6-2.2c-1.9-1.5-3.4-3.6-4.3-5.9l-0.3-0.7q-0.1-0.3-0.2-0.5c-0.1-0.5-0.4-1.2-0.4-1.4 0-0.2-0.1-0.4 0-0.5 0.1-2.4-0.2-4.7-0.9-6.9l-0.5-2q-0.3-1.6-0.6-3.1 0 0 0-0.1c-0.4-1.6-0.9-3.2-1.3-4.8-1.2-5.7 2.5-2.5 2.2-6.4-0.3-2.8 1-5.3-1.4-8.7 0.4-2.4-0.9-5.6 0.9-7.3 2.3-2.3-2.5-7.8-5.6-16.3-0.7-0.4-1.1-0.9-1.3-1.6q-0.5-1-0.9-2.1c-6.6-4.3-5.6-7.6-19.4-22.4q-2.4-2-4.3-4.4c-2.9-1.4-5.4-3.5-7.1-6.2-12.2-14-10.6-17.7-16.5-27.6q-1.8-2.9-3.1-6c-0.7-1.6-0.3-3.7-1.3-5-1.5-2 0.1-3.4-0.7-6.2-0.2-0.7-0.3-1.4 0.3-1.7 0.7-0.3 1.5-0.7 2 0.2 1 1.8 2.6 1.7 4 2.4 1.9 0.8 4 0.3 5.4 1.1 1.4 0.9 2.7 0.2 3.9 0.6 1.2 0.4 2.2 1.6 3.7 2 1.5 0.3 1.8-1.5 5.7 1.1 3.3 2.2 4.3 0.4 7.2-3.2 0-1.6 1.2-1.9 2-2.7-2.3-2.3-2.4-3.6-0.7-5.9q0-0.1 0.1-0.2 4.2-4.4 7.9-9.3 0.6-0.4 1.1-1c1.1-1.6 3.3-1.3 4.2-3.5-0.3-1.1-1.6-0.5-1.8-2 0.2-0.3 0.4-0.7 0.8-1.2 0.4-0.5 0.5-1.4 1.2-1.3 0.7 0.2 0.7 1 0.7 1.7 0 1.2 0.4 2 1.4 2 0.7-1.8 0.5-1.3 0.9-2.5 1-2.2 0.9-9.8 4.6-12.6 1.9-1.5 3.5-3.5 4.4-5.7 0.9-2.3 1.3-4.8 0.9-7.2-0.2-3.2 2-5.7 2.3-8.8 0.1-0.5 0.8-1.4 1.6-1.1 0.8-0.9 1.4-2.2 2.6-2.8 0.8-0.5 1.4-1.2 1.8-2 0.4-0.7 0.7-1.6 0.6-2.5 0.2-1.2-0.8-2.3 0.3-3.6 2.5-2.9 3.8-6.8 5.5-10.2q0-0.5 0.3-0.9 0.3-0.5 0.8-0.7 0.2-0.3 0.3-0.6-0.1-0.7 0.2-1.3 0.2-0.6 0.7-1 0.2-0.7 0.4-1.5c-0.6-1.1 0.9-3.3-0.7-4-1.2-0.7-2.6-1-4-0.7q-1.2 1-2 2.4-0.1 0.9-0.6 1.7-0.4 0.8-1.2 1.3-0.2 0.4-0.4 0.8 0 0.1 0 0.1-0.1 0.1-0.1 0.1 0 0.1-0.1 0.1 0 0.1-0.1 0.1-0.1 0.2-0.2 0.3c-0.1 0.3-0.2 0.3-0.4 0.3l-0.3 0.4q0 0.5-0.2 1-0.2 0.5-0.7 0.8l-0.8 1.4c-0.4 1.5-0.3 3.3-2.1 4l-0.2 0.2c-0.8 1.3-0.3 3.3-1.8 4.3-0.5 1.9-2 2.3-3.1 3.1-3.1 2.2-4.1 5.8-5.3 9.4 0.8 2.1-0.4 4-0.9 6.3-0.5 2.3-1.7 4.8-3.4 5.5-5.8 2.2-5.2 10.3-10.7 15.4-0.1 2.9 2.8 1.3 2.8 3.8 0 0.9-0.8 1.2-1.3 1.6-1.8 1.4-3.9 2.5-3.2 5.9 0 0.5-0.4 0.8-0.7 1-0.9 3-0.6 4.7-1.8 6.2-1.5 2.6 0.1 4.9-1.6 6.7q0 0.7-0.5 0.7l-1 0.3c-0.3 0.3-0.7 0.5-1.1 0.5-0.4 0-0.8-0.1-1.1-0.4-1.7-0.7-3.7-0.9-5-2.9-1.2-0.8-2.5-1.2-3.9-1.2-3.1 0.3-6-3.6-9.6-3.7-0.4 0-0.8-0.8-1.2-1.2-2.1-2.5 1.3 0.3-11.6-5.2-3.4-1.4-0.6-4.3-3.9-5.7-2.3-1.3-5-1.9-7.6-2-1.8 0.2-2.2-0.4-2.3-2.8-0.2-0.5-0.3-1.1-0.8-1.4-2.6-0.2-4-0.1-4.3-1.3 0.5-13.1 1.1-19.6 2.8-32.4zm81 190.6q-1.2-0.1-2.3-0.5 0 0.1 0 0.1 1.1 0.3 2.3 0.4zm52.5-387.6c2.1-1.2 2.5-4 2.9-5.7 0.2-1.2-1.2-0.3-1.6 0.8-0.2 0.4-0.2 0.7-0.4 1.1-0.5 1-0.9 1.3-1.3 1-1.7-1.1-0.9 0.3-4.8 4.5-2.7 3-0.2 3.1 1.6 1.3q1.7-1.8 3.7-3zm16.2-3.2c2.6-3 0.2-3.2-2.1-2.4q-3.6 2.4-6.9 5.4-0.5 0.4-0.8 1-0.3 0.6-0.3 1.2c0 3.1 2.5-0.7 4.1 0.5 0.4 0.3 1.1-0.3 1.8-1 1.4-1.5 2.8-3 4.2-4.7zm65.6 9.8c0.1-1-0.3-1.5-1.4-0.7-1.1 0.7-2.3 1.1-3.5 1.1-4.5 1.1-0.3-4.1-6.3-2.3-1.9 0.6-3.2-0.4-4.8-0.4-1.2-0.1-1.1-1.7 0.2-3.3 1.9-2.5-0.4-1.5 0.6-5.9 0.5-1.8-0.2-2.5-1.5-2.3-1.4 0.1-2.9-0.3-4.1-1-0.7-0.3-1.2-0.9-1.5-1.6q-0.3-0.4-0.2-0.9 0.1-0.5 0.4-0.9c1.4-1.5 2.5-3.6 4.2-4.1 5.8-1.4 9.4-13-3.1-13.7-1.4-0.1-3 0-3.7-1.4-0.2-0.4-0.4-0.8-0.4-1.2q0-0.7 0.3-1.2c0.7-1.4 0.3-2-0.2-2.3-0.7-0.6-1.4-0.9-2.3-1-0.8-0.2-1.6-0.1-2.4 0.2-2.9 0.7-5.6 1.9-8.1 3.6-1 0.8-1.4 1.8-0.7 2.1 2.1 1.3 3.9 3.2 6.9 3.6 1.5 0.2 2.5 1.4 3.7 2 1.2 0.5 1 1.5-0.2 3.6-4.4 7.8 0 6.7-3.6 9.7-7.9 6.5-12.6 5.1-23.6 6.9-4 0.7-7.1 4.2-5.4 4.5 2.4 0.3 4.8 0 7-0.9 2.1-0.9 4.2-1.3 6.4-2q1.4-0.6 2.9-0.6 1.6 0 3 0.6c0.4 0.1 0.8 0.5 1.2 0.2 2.5-1.2 2.7 1.2 4.2 1.6 0.6 0.2-0.2 1.9-1.2 2.2-4.5 1.7-3.4-1.9-7.3 1.5-3.3 2.9-2.8 8 1 4.6 1.6-1.8 3.6-3.1 5.9-3.9 2.8-0.7 3 1.4 3 3.8q0 0.2 0 0.5c0.8 0.7 0.5 1.6-0.7 2.7-0.2 0.9-0.5 1.8-0.7 2.7q0.2 0.5 0.7 1 0.5 0.4 1.1 0.5c1.1 0.2 1.5 1.5 1.6 2q0-0.2-0.1-0.4c0.8-0.3 1.2 0.2 1.7 0.6 2.4 2.3 3-2.1 6.5-2.4l1.5-0.3c0.5 0.9 2.1 1 2.1 1 0 0-1.6-0.1-2.1-1 1.5-0.3 3.5-1.8 3.7 0.8l1.4-0.1c0.3-0.2 0.7-0.5 0.8-0.5 2 1 4.7 0.2 6.8 1 1.1 0.5 2 0.1 3.1-1.3q1-1.1 1.8-2.4c0.5-1.2 1.2-1.4 1.9-1.2q0.5 0.2 1 0.5 0.4 0.3 0.7 0.8l1-0.1c1.2-0.2 2.2-0.1 2.6 1.2h1c0.5-0.7 1.4-0.8 1.6-1.9-0.3-1.3-4.5 0.2-4.4-3.9zm-20.9 8.1q0 0 0 0zm0 0q0 0 0 0zm0 0q0 0 0 0zm21.9-2.2c0 0-1.4-0.3-1.8-1.3 0.3 1 1.8 1.3 1.8 1.3zm-33.5 3.8q0 0-0.1-0.1 0 0.1 0.1 0.1zm-89.5 118.2q-0.3 1.2-0.2 2.5c1.4 0.7 1.4 2.5 1.4 4.3 1.1 3.5 1.8 7.1 1.9 10.7q0.2-0.1 0.3-0.1c0.4-0.3 0.6-0.1 0.6 0.3l0.6 0.4c3.5 0.1 7-0.7 10.1-2.1 4-2.1 7.5-1.4 10.1 1.7q0.5 0.4 1.2 0.5 0.6 0 1.2-0.2c2.7-1.3 5.4-1.8 8.1-3.1 2.7-1.4 5.5-2.7 8.3-2 2.2 0.6 1.3-3.4 4.4-3.1 1.7 0.1 3.5-1.4 5.3-1.6 0.5 0 0.9-0.5 1.2-1.1 2.5-4.6 9.9-3.5 13-1.3 4.9 3.4-1.8 5.8 1.7 9.8 1.6 2 3.2 2.5 5.8 0.2 7.4-6.7 14.2-2.9 15.9-10.2 0.2-0.9 0.4-1.9 1.3-2.1 2.3-0.4 7.7-4.2 9.5-3.6 3.1 1.2 5.9-1.7 8.8-2.9 1.3-0.6 0.8-3.9 4.3-3.4 1.3 0.3 2.1-1.4 2.1-3.1-1.7-0.7-3-2.1-3.8-3.8-1.3-2.9 0.4-4 1.7-5.3q0.1-0.3 0.2-0.5 0.2-0.2 0.5-0.3 0.2-0.4 0.4-0.7c-0.1-1.5-1.1-2.1-1.7-3.1-0.3-0.5-0.8-0.9-0.3-1.9 0.5-0.9 1-0.6 1.5-0.3 0.9 0.7 1.6 0.2 2.4-0.9 1.5-2.2 3.2-2.3 4.6-1.2 4 3.2 11.2-1.6 16.9 1.2q0.7 0.4 1.5 0.3 0.8 0 1.4-0.5c6-3.6 11.3 0.3 15.6-0.2 1.5-0.1 2.9 0 4.4 0.4 1.4 0.5 2.7 1.2 3.8 2.2 1.3 1.1 5.2 0.9 7 3.6 2.1 3 4.9-0.6 15.9 0.4 0.5-0.6 1.2-1.2 1.7-1.8 5.8-6.4-4.2-8.6-8.9-7-1.2 0.3-2.4 0.2-3.6-0.2q-1.4 0.3-1.9-1.4c-0.3-0.9-0.9-1.7-1.6-2.3q-0.4 0-0.8-0.2-0.3-0.2-0.5-0.6l-1.8-0.4c-0.6-0.2-1.1-0.3-0.6-1.4-0.8-1.9-2-3.5-3.6-4.7-0.2-1.2 0.6-1.4 1-2 0.5-0.6 0.8-1.3 0.9-2 0-0.8-0.1-1.5-0.5-2.2-2.3-3.6-3.8-8.1-8.3-8.5-0.5 0-1-0.2-1.4-0.5-0.4-0.3-0.7-0.7-0.8-1.2-0.9 0.1-1.8 0-2.7-0.4-1.5-0.8-1.8-1.7-1.4-4 1-4.5-0.7-6.5-4.4-5.5q-3.4 0.7-6.6 2.1c-4.4 2.2-4.5-2-8.7-2.4-3-0.2-2.9-4.9-7.5-2.2-0.7 0.4-1.4 0.9-2.1 1.3q-1.1 0.5-1.8 1.4-0.8 1-1.1 2.1c-1.7 5.3-4.5 5.9-10.3 11.8-1.1 1.4-2.5 2.4-4.2 3-3.4 0.8-6.2 3.9-9.1 6.5q-0.9 1.1-2.1 1.8c-3.4 1.2-6.4 9.3-1.8 10.3q3.4 0.3 6.7 1l1.2-0.2q1-0.8 2.3-1 1.2-0.2 2.4 0.1c0.9 0.2 0.9 1.5 0.2 2.3q-0.9 0.6-1.8 1.1c-2.4 1.7-5.2 2.5-7.4 4.5-2.2 2-2.6 1.9-3.7-0.4-0.6-0.7 0-1.8 0.1-2.7 0.3-2.1-0.1-2.9-1.9-2.5-3.2 0.6-3.3-3.6-5.3-4.7-1-0.6-0.7-2.1 0.5-3.3 1.1-1.1 1.9-2.4 2.3-3.8-0.6-1.7-1.6-2.2-3.4-0.8q-1.8 0.9-3.2 2.4c-1 1.3-2.5 0.1-1.3-1.8 0.8-1.1 1.8-2 2.9-2.7 2.3-1.2 4.5-3.3 6.9-4.2 3-1.1 0.7-3.4 4.3-3.9 1-0.2 2-0.6 3-0.9 0.4-1 1.1-1.2 1.8-1.8 1.6-1.2 2.9-3 3.7-5 0.9-2.9 2.3-3.4 5.8-6.1 2-1.5 3.4-5.8 2.6-7.7-0.5-1-1.6-0.8-3.3-1l-0.5 0.4c-1.2 1.1-1.2 3.3-2.5 4-1.3 0.7-2-0.9-3.4-0.3-2.3 5.5-6.7 9.9-12.2 12.4q-2.9 1.6-5.6 3.7c-1.9 1.2-7.9 3.5-7.2 11.4 0 0.9-0.3 1.7-0.9 2.4-1.7 1.9-2.9 4.2-4.7 6.1-2.1 2.1-4.6 4.6-5 8.3 0 0.6-0.4 1.2-0.8 1.6-1.1 0.9-1.7 2.2-1.8 3.5-0.1 0.8-0.5 1.8-1.2 1.7-1.9-0.3-3.8 2-5.7 1.6 0.1-1.6 0.7-3.5-0.9-4.1-0.5-0.2 0.5-1.3 0.5-2.2-2.1 0.9-3.8 0.8-4.8-1.2 0.3-0.9 0.8-1.8 1.5-2.5 0.6-0.7 1.5-1.2 2.4-1.6 1.1-0.3 1.6-1.4 4.7-6.4 0.4-0.7 0.9-1.4 0.7-2-0.4-1-1.2 0.1-2.4 0.6-1.2 0.5-2.1 0.3-2.2-1.1-0.1-0.9-0.2-2.2-1-1.8-2.4 1.2-4.2-0.4-6.5 0.7-0.8 0.3-1.7 0.7-2.6 1.2-1.3 2.6-0.5 4.7-0.2 6.7 0.2 1.6 0 1.7-1.2 2.3-1.1 0.7-1.6 0.4-1.3-1.1 0.1-0.4 0.3-1-0.3-0.9-1.8 4.4-1.8 4.5 1.5 4.4 0.5 0 0.9-0.2 0.9 0.6q0 0.4-0.1 0.7-0.2 0.3-0.4 0.6c-0.7 0.5-1.2 0.4-1.8 0.6-1.9 0.5-1.6 0.8-3.2 3.1q-0.8 1-1.2 2.3-0.3 1.2-0.1 2.5c-1.8-0.1-3.6 0.2-5.3 0.9-1.6 0.7-3.1 1.7-4.4 3q-0.5 0.7-1.2 1-0.8 0.4-1.6 0.4-0.9 0-1.6-0.4-0.8-0.3-1.3-1c-0.4-0.7-0.7-1.2-1.5-1.1-2 0.3-3.9 1.1-5.4 2.4-3.3 3-7.1 3.6-9.4 1.4-1.6-1.7-2.6-0.6-5 0.1-2 0.5-2.7 1.3-2.5 3.4 0.2 1.9-0.2 3.8-1.1 5.5zm91.3-116.1c0 0-1.3-0.7-1.6-1.4 0.2 0.7 1.6 1.4 1.6 1.4zm-108.4 88.9q0.2-0.1 0.4-0.3-0.2 0.1-0.4 0.3zm0.4-0.3q0.3-0.4 0.7-0.7h0.9c2.3 0.7 5.2-0.7 7.8-0.9 2.8-0.2 5.4-1.1 7.7-2.7 1-0.7 2.1-1 3.3-1 1.7-1.5 3.7-2.7 5.9-3.5 0.2-0.1 0.3-0.3 0.5-0.5 0.4-0.9 1.1-1.4 1.7-1.3 2.8 0.4 9-2.4 12.4 0.6 1.7 1.6 4.2 1 13.8-1.8 2.5-2.4 4-5.8 4.2-9.3q0-0.9 0.1-1.8c-1.8-0.1-2.7 0.2-2.1-1 0.4-1.9 0.3-3.9-0.4-5.7-1.7 0.4-2.7-0.2-2.8-2-0.2-2.9-1.6-1.9-3.2-4.7-0.6-1.2-2.3-1.3-3.7 0.2-3.2 3.4-5.5 2.9-7.7 4 0.1 1.6 1.9 0.8 2.2 2.1-1.2 1.9-3.9 1.6-4.5 4.8q0 0.4-0.2 0.8-0.3 0.3-0.6 0.6-0.4 0.2-0.8 0.2-0.4 0.1-0.8-0.1c-2.5-1.2-5.2-1.5-7.9-1q-0.2 0.1-0.4 0.1-0.3-0.1-0.5-0.2c-0.4-0.3 0-1.3 0.5-1.5 1.7-0.8 5.3-0.5 6.5-4.1 0.5-1.7-0.5-1.8-8.1-2.6-0.8 0-1.5 0.6-2.4 1.8-2.9 4.3-2.8 5.4 0.5 5.8 0.3 0 0.6-0.2 0.7 0.4 0.1 0.5-0.4 1-0.8 1.4-1.8 2-3.5 2.5-4.5 2.6q0.3 0 0.5 0c-1.6 1.9-5.4 3.8-6.3 4.9-2.1 2.4-4.6 4.4-7.3 6-4.1 2.7-5.7 6.1-4.2 9.3q-0.3 0.4-0.7 0.8zm17.1-21c0 0 0.4 0.1 0.9 0-0.4 0-0.9 0-0.9 0zm-19 22.3q0.1 0.4 0.4 0.8 0.3 0.4 0.7 0.6-0.4-0.2-0.7-0.6-0.3-0.4-0.4-0.9zm-25.6 1.2q2.4-2.3 4.4-5l0.9-0.3c-0.8 3.2 0.2-0.6 1-3.7-1.3-0.6-0.1-2.3 0.5-3.8 2-4.3 1.9-4.2-2.5-5.1q-0.4 0-0.7 0.2-0.3 0.1-0.5 0.5c-1.3 2-3.6 3.1-4.6 5.5-0.2 0.2-0.7 0.5-1 0.8-0.4 0.9-0.7 1.7-1.7 2-0.6 0.3-1.2 1-1.7 1-2.3 2.6-3.1 5.4-7.5 7.6-2 1-2 1.1-1.8 3 0.3 0 0.4 0.1 0 0.6l-0.7 1.8c-0.1 0.5-0.3 1-0.7 1.3-1 1-1.7 2.3-1.8 3.8-0.2 0.9-0.3 1.4-0.6 2.3-0.3 1.3-2 2.3-1.9 3.7q0 1.1-0.5 2.2-0.4 1-1.3 1.8c-0.6 0.8-1.1 1.9-1.3 2.9-1.7 4.6-1.6 4.4 1.8 5.1 2.6 0.5 5.3-1.3 7.9-3.5 1.3-1.3 2.7-2.2 4.3-2.9q0.8-0.2 1.3-0.6 0.6-0.5 0.9-1.2c3.5-6.7-1.7-3.7 1.3-9.5-0.1-0.3-0.2-0.7-0.2-1l-2.4 0.2c-1 0-0.6-1.4 0.4-1.8 1-0.4 1.9-0.7 2.8-1l1-0.8q0.7-0.8 1.2-1.8l0.9-1.3 0.3-0.3c0.6-1.2 1.6-1.9 2.5-2.8zm-6.7 9.6c-0.1-0.5-0.1-0.4 0 0z"/>
				<path fill-rule="evenodd" class="s1" d="m285.3 321.3q0-1.4-0.5-2.6c-0.5-2-0.9-2.3-2.5-1.8-3.3 1.1-2.2 4-7.5 4.6-2 0.2-3.2-0.1-5.9 0.1-0.7 0.4-0.9-0.2-0.7-0.8 0.6-3 1.1-6.2 4.4-7.1-1.1-0.8-1.8-2-2.1-3.3-0.2-1.3 0-2.7 0.8-3.8-1.7-0.4-3-1.5-4.6-0.8-1.6 0.6-2.4 0-2.8-1.6-1-4-4.4-0.1-7.4-4.5-1.2-1.8-1.9-0.8-3.7-0.5-0.7 0.1-1-1.1-0.2-1.6 0.7-0.7 1.6-1.1 2.6-1.4 1-0.2 2-0.2 2.9 0 0.7 0.1 0.7 0.9 0.5 1.5-0.2 0.5-1 0.7-0.7 1.7 1.1 0.2 2.1 0.1 3.1-0.1q0.4-0.1 0.7-0.4 0.3-0.3 0.3-0.7c0.1-0.5-0.3-0.6-0.5-0.9-1.3-1.3-1.3-1.4 0-3.2 0.2-1.4 0.9-2.6 2-3.5 1-0.5 0.4-1.9-0.2-1.6-1.1 0.4-2.2-0.5-3.3 0.4 0 0.9-0.3 1.7-0.9 2.3-0.6 0.6-1.3 0.9-2.1 1 2.5-3-1.2-3.2 0-6.3v-0.1c0.2 0 2.4-0.5 2.6-0.5-0.2-6.4-2.2-5.5-4.6-7.5q-0.2-0.3-0.3-0.6 0-0.3 0.1-0.6 0.1-0.3 0.3-0.5 0.3-0.2 0.5-0.3c1.7-0.4 1.8 1 2.8 1.9 1 1 2.5 0.4 2.1-1.9-0.2-0.8-0.2-1.7-1.2-1.3-2.9 1.1-2.8-3.5-5.2-3l-1.1-0.3c-2.2 0.5-0.9-2.1-4.2-1.6-2.5 0.4-4.4-1.1-6.7-1.1-0.2 0-0.3-0.3-0.5-0.4-3-0.4-3.7 0.2-4.9-0.8 3.5-2.2 4.3-1.7 6.9-2.2 0.8-0.7 1.7-1.1 2.7-1.2 3.1-0.5 10.7-1.9 12-0.1q0.1-0.1 0.3 0 0.1 0 0.1 0.1c1.4-0.1 2.8 1.1 4.2-0.9q0.3-0.1 0.6-0.1 0.4 0 0.6 0.1c1.1 0.7 2.5 0.2 3.6 0.7 0.7 0.3 1.4-0.1 2-1-0.5-0.7-1.6 0.2-2-0.7 1.8-1.4 2.6-1.7 3.6-1.7 1.4 0.1-0.5 1.7 0.4 2 0 0 0.1 0.1 2.2 1.4 0.6-0.6 1.1-0.9 1.1 0.5l0.7 0.4 0.8-0.2q-0.1-0.3 0-0.5 0.2-0.3 0.4-0.5c-0.2-0.8-0.2-1.7 0.2-2.5l0.6-0.5c-0.3-1.6-1.5-1.3-2.3-1.8-0.4-0.3-0.9-0.6 0-1 10.7-3.1 13.5-0.8 15.8-3.6 1.5-0.4 2.8-1.8 4.4-1.3q1.3 0.1 2.6-0.3c1.2-0.6 2.5-0.9 3.8-0.9 1.3 0 2.6 0.2 3.8 0.7 2-0.1 4-0.4 6-0.4 12.6-0.1 25.7 0.4 37.7 3.5q2.4 0.7 4.9 1.1c10.4 1 5.8-0.1 20.8 3.7 1-0.1 1.8 0.1 1.8 1.8l1.3 0.4c1.3-1.6 2.4-2.1 3.6-0.7 1.2 1.4 2.4 1.7 3.6 2.6l2.5 0.3c-0.2-0.5-0.5-1.1 0-1.1 0.6 0 0.8 0.7 0.8 1.3l2.9 0.7c0.4-0.8 1.3 1.3 0.1 1-0.1 0-0.1 0.1-0.1 0.2 0.3 1 0.9 1.3 1.5 1.6h1.6c0.2-0.3 0.5-0.4 0.9-0.2h0.1c1.1 0.7 4-1.2 7 1.7 0.2 0.1 0.3-0.1 0.5-0.1 1.2-2.1 4.9 0.6 16.9 4.3 1.1-0.1 1.3 0.3 3.6 1.5 3.9 1.1 4.3 1.6 4.6 0.7-0.7-0.5-0.7-1-0.4-1.2 1.3-0.9 6.2 2.4 8.3 0.8 0.2-0.2 0.6 0.1 0.9 0.1 3.9 1 8.1 2.6 12 3.6 17.8 4.4 40.1 12.7 52 23.5 4.7 4.2 8.5 3.1 15.2 9.6q1 1.1 2.5 1.8c3.5 1.3 4.8 2.8 8.9 5.3 0.9 0.6 2 1.4 3.1 2.2q1.7 1.1 3.2 2.4c-0.5 0.2-1.2-0.2-2.1-1-2.6-2.2-1.2 0.8-2.2 0.3-1.3-0.7-2-0.2-3.5-1.1 0.3 1.4 0.6 1.8 2.4 2.9-0.7-1.4 0-1.1 1-0.5q0.4 0 1.2 0.8c1.2 0.7 2.5 1 3.8 1 0.9-0.3 2.5 0.6 3.9 1.2 2.2 0.9 5.6 4.4 7.9 5.8q0.1 0.1 0.2 0.2c2 2.3 3.9 3.8 6.4 6.4-1.9-1.1-2.6-0.6-3.4-0.2-1.7-1-2.9-1.3-3.7-0.7-1.8 1.5-11-4.2-12.5-5-2.8-1.2-5.3-2.9-7.4-5 0.4 2 0.4 2 2.1 3.3q0.6 0.3 1 0.9c0.7 1.3-1.1-0.1-0.2 1.5 1.1 1.1 1.7 0.7 2.8 2.1 2.1 1.2 4.4 3.2 6.1 3.7 0.8 0.2 2 1.8 2.9 2.1 4.3 1.6 6.3 4 7.9 3.7 0.5 0 1.2 0 2.5 1.1q0.8 0.1 1.5 0.6 0-0.1 0.3 0.2c2.6 1 5 2.5 7.1 4.4-0.2 0.8-1.7-0.3-2.1 0.1 0 0.3-0.3 0.2-0.7-0.2l-0.5-0.2c0.1 0.9-1.7-0.3-0.6 1.8q1.9 1.3 3.9 2.3c0.4-0.4 1.4 0.2 2.5 1.2 0.5 0.4 1.1 1.3 1 1.2-1.2-0.6-0.3 1.4-0.9 1.2-0.7-0.2-1-0.2-1.3 0.4-0.3 0.5-1.1-0.2-2.1-1.6q-1.7-0.6-3.3-1.5c-0.3 0.1-0.8-0.3-1.4-0.6-0.8-0.5-1.5-1.2-2-2-1.3-2.4 0.1-2.3 1.4-1.3q0-0.2 0-0.4c-0.5-1.3-1.3-2.3-2.5-3-1-0.8-2.2-1.4-3.5-1.8q-0.3 0.1-0.7 0c-0.9-0.2-0.9 0.2 0.6 1.8 0.4 0.5 0.8 1.2 0.7 1.3-0.3 0.6-0.2 1.7-1.4 1.2-3.4-1.1-6.6-2.7-9.4-4.7-0.5-0.3-1.1-0.9-1.3-0.6-0.7 0.9-2.6-0.4-9-3.4-2.4-1.2-4.7-2-7.3-3.3-0.9-0.5-2.2-1.7-2.8-1.7-2.4-0.1-5.5-1.8-8.3-2.9q-1.2-0.3-2.1-1.1-0.9-0.7-1.4-1.8c-0.3-0.5-0.7-0.7-0.9-0.7-0.8 0.2-1-0.5-1.4-1.4-0.5-0.9-0.1-0.9 0.3-0.9 10.3 1.1 9.9 3.2 11.9 3.8 3 0.9 6.3 3.3 9.6 5.1 3.4 1.8 6 2.3 9.1 3.9 0.1 0 0.3 0.1 0.3 0 0.1-0.2 0.1-0.3 0.4 0.2q0.6 0.5 1.1 1.1l0.5 0.2c-0.1-0.6-0.2-1.2 0.5-1l0.4-0.2c-5-5.3-5.3-3.4-7.6-4.9-4.8-3.2-7.6-2.2-11.7-5.8-0.6-0.5-1.1-0.5-1.6-0.7-2.2-1.1-4.1-1.5-6.5-2.9-1.5-0.9-3.7-2.3-3.7-0.3l-1.3-0.8c-1.4-0.3-3.2-1.8-4.6-2.1 0.3 1 1.5 1.4 1.5 2.3-1.3-0.8-1.3-0.8-1.8-2.4-0.1-0.5-0.7-0.9-1-1.4-1.3-0.7-2.3-0.4-3.8-2-0.4-0.4-0.9-0.6-1-1.2-0.2-1.6 2.4 0.3 3.3 0.8-0.2-1.5-1.2-1.8-1.9-2.5-1-0.2-1.8-0.8-2.4-1.6-2-3.3-3.1-2.1-5.6-3.7-1.1-0.2-2.1-0.7-3-1.4q-3-3.1-6.6-5.4 0-0.7 0-1.4 0-0.7-0.4-1.3-0.4-0.6-1.1-0.9c-2.1-0.7-4.5-2.7-6.6-3.3-3.7-1-4.1-1.7-8.4-5.8l-1.1-0.5q-0.2 0.3-0.7-0.3-1.5-1.3-3.1-2.4c-4.5-2.2-9.2-5.3-13.7-7.1-1.2 0-2.2-0.9-3.1-2.7l-1.1-0.6q-0.5 0-1-0.2-0.5-0.2-0.8-0.6l-1.7-0.7c-1.4 0.1-3.1-1.6-4.6-2-0.6-0.6-1.3-0.8-1.3-0.4 0 0.5 0.6 0.7 1 1q0.2 0.2 0.3 0.6c0.3 4.5 0.3 1.5 8.2 4.7 3 1.3 6.2 3.9 9.3 5.2 1.3 0.4 2.6 1.1 3.5 2.2 0.4 0.4 0.9 0.6 0.9 1.2 0.2 1.6-1.8 0.4-7-1.1-0.7-0.2-1.9-1-1.9 0.1-0.1 1.4 1.4 1.4 1.8 2.5 2.9 1.6 12.7 4.1 15.2 6.5q0.7 0.5 1.7 0.8 5 2.4 9.7 5.2c0.8 0.4 1.3 1 1.6 1.7 0.4 0.9-0.3 0.7-0.8 0.7-0.4 0-0.8 0.3-1.4-0.2l-2.1-0.5c-0.6 0.7-2.1-0.3-2.9 0.2 1.2 0.7 2.2 1.8 2.8 3.1 0.1 0.3-0.2 0.4-0.5 0.1-5.5 1.5-6.1 2.1-7.5 1.4-3.4 0-6.7-1-9.5-2.8-0.5-0.3-1-0.6-1.2-0.4-1.4 1-3.4-0.5-5.2-1.5-0.5-0.2-1-0.6-1.4-0.4-1.9 1-2.7-2.1-5-1.8-1.4 0.2-6.7-1.2-8.6-0.6-2.1 1.2-5.3 0.2-6.7 2.7-0.1 0.2-0.4 0.2-0.7 0.2-2.2 0.8-4.4 1.5-5.3 4.3-0.4 1.2-3.1 3.9-3 9 0 0.9 0.3 2-0.8 2-1.2 0.5-2.5 0.6-3.8 0.3-1.3-0.2-2.4-0.8-3.3-1.8-2.7-2.3-1.6 3.5-4.4 1.5q-0.6 0.3-1.1 0.6c-0.9 0.9-0.5 1.6 0.7 2.1 3.3-0.3 2.2-0.7 5.1 0 1 0.3 2.8-0.6 2.8 2.6 0 0.4 0.6 0.5 0.9 0.6 1.3 0.5 1.3 1.6 1.6 2.8 0.2 1.2-0.4 1.5-1.2 1.8-2.6 1.3-5.5 0.4-8.6-0.8-0.7-0.2-1.3-0.6-1.8-1.2-0.7-1 0.2-1.3 0.2-2 0-0.2-0.5-0.5-0.7-0.7l-2.6-0.3q0.1 1.4-0.2 2.8c-0.3 1-0.1 2.1 0.4 3 0.6 0.9 1.4 1.5 2.5 1.7 2.7 0.6 5.4-0.3 8 4.4 3.4 6.1 1 5.9 1.4 7.7 1.5 6.9-5.2 5.2-4.9 9.7 0.1 3-2.7 3.7-2.7 6.7 0 0.1-0.3 0.3-0.4 0.3-1.7 1-3.1 2.3-4.2 3.9-0.1 1.5-1 1.3-1.9 1.1-1 5-4 4.7-5.9 7.2-2 2.5-2.7-0.2-10.8 1.1-0.8 0.1-1.7 0.1-2.2 1-1.7 2.9-4.6 2.5-7.3 2.5-0.6 0-1.2-0.1-1.7-0.4-0.5-0.3-0.9-0.8-1.2-1.3-0.5-1-0.2-1.9-0.3-2.8q-0.1 0-0.2-0.1-0.1-0.1-0.1-0.2c-0.4 0.1-0.9 0.2-1.1-0.3-1.6-5-4.1-5.6-3.7-9.4 0.3-3.9-3.8-3.5-5.6-7.2q-0.3 0-0.6-0.1-0.3-0.2-0.5-0.4c-0.7-0.1-1.5-0.7-1.3-1.2 0.5-2.3-2-3.7-1.5-5.9 0.1-0.6-0.6-0.9-1-1.2-3.7-2.5-5.6-4.5-10.5-4.2-4.1 0.2-8.6-3.1-12.6-4.1-1-0.2-2-0.6-2.8-1.3-0.8-0.6-1.4-1.4-1.9-2.3q-0.1 0-0.3-0.1-0.1-0.1-0.1-0.2c-0.3 0.1-0.6 0-0.6-0.4-0.6-0.4-1.3-0.6-1.7-1.4-0.8-0.6-1.2-1.8-2.1-2.2q-2-0.6-3.7-1.8-0.5-0.5-1.1-0.7-0.6-0.1-1.2 0c-4.4 1.1-13.8-2.1-18.5-2.5-3.3-0.1-6.6-0.9-9.5-2.4-3.9-2.1-8-3.8-12.3-4.8 4.6-0.5 8.9-2.3 13.5-2.2zm-21-44.3q-0.5-0.4-0.8-0.9 0.3 0.5 0.8 0.9zm0 19.7c-0.1-0.1-0.1-0.2-0.3-0.3-0.3-0.1-0.5 0.3-0.5 0.4-0.1 0.2 0.2 0.3 0.3 0.3 0.2 0 0.3-0.2 0.5-0.3zm5.2 1.9q-0.2 0.4-0.2 0.9 0-0.5 0.3-0.9zm8.3 2.4q-0.2 0-0.3-0.1 0.1 0.1 0.2 0.2zm245.3 31.9c0.9 0.7 2.6 1.8 2.6 1.8 0 0-1.7-1.1-2.6-1.8zm-1.4-2.7l1.5 0.4c0.3-0.5-0.1-1.1-1-1.5-0.8-0.4-1.4-0.2-2.4-0.9q-0.2 0.2-0.3 0.5 0.1 0.6 0.2 1.3c1.2 0.9 1-0.5 2 0.2zm-5.6-10.1q0.8 0.3 1.7 0.6-0.8-0.3-1.6-0.6zm1.7-0.2q0.7 0.8 0.5 1.1c0.8 1.4 2 2.1 2 1.8 0.3-1.3 2.1 0.2 3.1 0.5-0.3-0.5-0.5-1-0.3-1.1-0.6-0.8-1.1-1-1.8-1.7l-0.7-0.5c-0.4-0.3-0.8-0.5-1.3-0.5-0.5 0-1 0.2-1.4 0.5zm-6.4 4.1q0.5 0.2 1.1 0.4-0.6-0.2-1-0.5zm-4.1-4.7c0 0 0.3 0 0.5-0.2-0.1 0.1-0.5 0.1-0.5 0.1zm0.6-0.1q0 0-0.1 0 0.1 0 0.1 0zm-57.2-16.3q-0.2-0.1-0.4-0.2zm-48.1-30.6c0.1-0.2 0.2-0.4 0.2-0.5-0.3-0.4-0.4-0.8-0.4-1.3-1.1-0.7-1.6-0.4-1.3 1zm1.8 57.6c-0.6-0.1-1.6-0.7-1.3 0.8 0.6-0.1 1.1-0.2 1.3-0.8zm-11.2 2.3c-0.3 0-0.7 0.3-0.7 0.3 0 0 0.4-0.2 0.7-0.3zm-94-20.2c-0.1 0.4 0.5 0.8 0.5 0.8 0 0-0.4-0.3-0.4-0.7zm-6-8.8q-0.1 0.3-0.2 0.6 0.2-0.3 0.3-0.6zm-1 14.5c0.3 0.5 0.8 0.9 1.3 1.1q-0.7-0.4-1.1-1.1zm-3.6-1.7l2.2-0.4q-1.2 0.1-2.4 0.3zm2.2-0.4q1.7 0 3.3 0.2l-2.1-0.3zm3.6 0.2q-0.2-0.1-0.4-0.1zm-7.7-7.3c0.3 0.1 1 0.5 1 0.5 0 0-0.5-0.3-0.8-0.5zm1.1-46.3q2.4 0.7 4.9 0.9-2.6-0.3-5-1zm-2.2 52.1c0 0-1.8 1.1-2.6 0.2-0.4-0.6-1.1-1.1-1.8-1.3 0.7 0.2 1.4 0.7 1.8 1.4 1 0.8 2.8-0.2 2.8-0.2zm-4.6-1.2q0 0 0.1 0.1-0.1-0.1-0.1-0.1zm129.9 2.1q0-0.3 0 0z"/>
				<path fill-rule="evenodd" class="s1" d="m331.4 797.2c1.9-7.8 5.6-2.9 9.1-5.5 8.8-6.2 4-5.1 15-13.1q0.8-0.6 1.8-0.9 1-0.2 2.1-0.1 3.4 0.5 6.9 0.1c1.2-0.7 2.6-1 4.1-1 0.3-0.7 0.9-1.2 1.6-1.6 0.6-0.3 1.4-0.5 2.2-0.4q0.3-0.1 0.6-0.2c7 0 4-5.8 8.1-6.8q1.8-0.7 3.4-1.7c7.7-4.3 10.5-2.8 13.8-6.3 1.1-3.4 2.8-6.6 4.2-9.8 0.5-1.3 1.2-2.5 2.2-3.4 0.9-0.9 2.1-1.6 3.4-2 0.2-0.5 0.5-0.9 1-1.1 1.2-0.3 1.6-1.8 2.3-2.7 0.8-1.2 1.3-2.7 1.4-4.1-0.4-4.3 1.9-6.4 4.3-8.5 11.1-9.2 15.2-11.5 20.4-9.2 7.4 3.1 13.5-8.8 16.6-13 1.1-1.4 2-2.3 3.5-2.3 2.9-3.4 5.4-7.3 9.2-9.1q0-0.7 0-1.3l-0.6-0.2c-2.5-0.4-2.2-4-0.7-4 1.5 0.1 1.4 1.6 1.5 2.9 1.2 0.8 2.1 2 3.6 1.6l0.8-0.7c0.1-1.8 0.5-3.2 1.9-3.4 1.5-1.3 3.1-0.1 4.9-1.2 1.8-1.1 1.8-1 2.1 2 0.7 0.5 1.4 1.1 2.2 1.6 5.5 3.9 5.1-4.2 13.2-1.8 0.9 0.4 2 0.5 3 0.2 0.9-0.3 1.8-0.9 2.4-1.8 0.5-3.4 1.2-4.1 4.5-4.4 0.6-0.2 1.2-0.2 1.8 0q0.7-1.5 1.2-3.2c0.2-1.4 1.8-1.5 2.1 0.3 0.2 1.1-0.2 2.4 0.4 3.4l0.2 0.1 2.1 0.5c0.7-2.1 0-4.7 1.8-6.2 1.3-2.1 2.9-1.4 4 0 8.7 10.9 16.5 3.6 17.5 13.7 0.1 1-0.1 2.5 0.6 2.8 2.3 1 3 3.8 4.8 5.5 1.8 1.8 2.3 0.1 5.5-3.1 8.6-8.4 13.7 6.2 19.1-0.3 2.3-2.9 9.9-7.9 7.9-16.5-1-4-0.3-6.7-0.4-11.2-0.7-0.9-1.3-1.8-2.1-2.6-2.9-3-0.7-7.5 4.3-7.3 0.4-1.7 0.3-2 1.8-2.4q0.1-0.5 0.5-0.9 0.4-0.3 0.9-0.4c2.1 0 4.2-0.5 6.2 0.4 3.4 1.5 6.8 0.2 10.2 0.9 1.5 0.4 2.1-1.3 1.1-2.9-0.7-1-1.2-2.1-1.4-3.3-0.4-3.6-1.8-6.9-2.5-10.4q-0.8-2.3-1.2-4.7c0.1-8.1-5.1-6.6-3.5-11.7 0.5-1.5 1.8-1 2.8-1.1 3.6-0.4 7 1.1 10.5 2.1 9.4 2.9 3.3 11.5 10.7 13.9 4.8 1.6 9.6 5.2 11.9 3.8 3.5-2 7.5-3.3 8.6-8.8 0.2-1.4 3.1-3 3-7.7q0-0.4 0.2-0.7 0.2-0.4 0.6-0.5c2.3-3.9-0.4-8.8 0.2-11.3-0.1-2.5-0.7-5-1.8-7.2-1-1.5-1.7-3.2-1.9-5-0.3-1.8-0.1-3.6 0.4-5.4 0.1-1.3-0.2-2.6-0.7-3.8-7.8-8.3-7.4-4.6-13.5-11.7l-1.4-0.8c-4.7-0.9-4.5-0.7-6-0.7-0.4 0.6-0.9 0.5-2.2 0.5-0.6 0.7-1.2 0.5-2-0.2l-0.7 0.2q0 0.2-0.1 0.4 0 0.2-0.2 0.4-0.1 0.1-0.3 0.2-0.2 0.1-0.4 0.1c-1.6 3.4-6.1-1.7-8.7 0.2-0.9 0.6-1.8-0.4-1.8-1.8 0-0.4 0.1-0.8 0.1-1.3 0-2.2-0.3-2.9-2.1-3.4q-3-1-6.1-1.3c-1.1 0.7-2-0.3-3-0.9-2 0-4.2 0.1-5.6 2.1-2.7 3.8-4.7-1.8-7.2-1-2.7 0.9-4.8 6.2-3.9 9.9 0.9 3.7 0 4.4-4.2 12.8 0.7 3 0.8 7.2 4.8 7.8 0.3 0.1 0.5 0.5 0.4 1.2-2.5 0.4-5 0.2-7.5-0.4-0.6-0.1-1.2-0.5-1.6-0.9-0.5-0.5-0.8-1.1-0.9-1.7l-0.8-0.4q-0.1-0.1-0.2-0.1-0.1-0.1-0.1-0.3-0.2-0.1-0.3-0.4c-0.7-0.1-1-0.7-1-1.5-1.5-4.1-1.7-8.6-0.6-12.8 1.2-3.6 1.4-7.6 3-10.9q0.6-1.9 0.9-4c0.4-2.3 0.1-4.7-1-6.8-1.2-2.8-3.1-5.3-5.6-7-3.3-1.9-5.5-5.5-8.1-8.6-1.8 0.1-3.6 0.2-5.1-2.6q-0.3-0.7-0.9-1.2-0.6-0.6-1.4-0.8c-2.8-0.3-4.6-3.1-7-4.7-0.6-0.4-1-0.9-1.3-1.6-0.3-0.7-0.4-1.5-0.2-2.2 0-1.9 2.9-3.9 0.2-7.8-3.3-5-5.1-11.1-8.9-15.9q-0.7-1.1-0.9-2.5-0.2-0.7-0.7-1.4-0.6-0.6-1.3-0.9c-2.5-1.7-5.9-0.5-7.9-5-0.1-0.2-0.7-0.3-1.1-0.4-5.8-2.2-8.2 0.5-8.7-2.4-0.3-1.2 0.4-1.3 1.1-1.4 4.1-0.7 1.1-8.8-2.4-10.7-11.4-6.4-11.7-5.5-14.8-8.4-2.4-1.9-5.3-2.9-8.3-2.9q1.3 1.8 3.1 3c0.6 0.6 1.1 1.3 1.4 2.2 0.3 0.8 0.4 1.7 0.2 2.5-0.3 1.7-1.4 1.3-2.5 1.3-4.3-0.2-5.8-6.2-9.5-6.3q-1.1-0.2-2.1-0.7c-4.8-1.6-9.3-5-13.9-7.7-3.1-1.8-2-1.8-0.8-5.4 1-3.2 1.1-2.5 6.9 4.4 0.9 1.1 2.8 0.5 2-1-1.2-2.4 0.2-2.3 1.3-1.9 1 0.3 2.2 0.4 3.2 0.2 1.1-0.3 2.1-0.8 2.8-1.6 2.3-1.9 2.1 2 3.3 2.6q2.3-3.5-1.1-7.8c2.4-0.3 4.9 1.4 6.7-0.2-1.2 0.1-2.3-0.1-3.4-0.5-1.1-0.4-2.1-1.1-2.9-1.9-0.9-0.8-2.1-1.2-2.1-2.7q0-0.5 0.1-0.9 0.1-0.5 0.4-0.8 0.3-0.4 0.7-0.6 0.4-0.2 0.9-0.2 0.7-0.1 1.4 0c6 0.2 11.7 3.2 17.5 7.1 0.7 0.6 1.6 1.6 2.5 0.8-4.6-7.6-8.8-4.9-10.8-8.5-0.5-1-1.2-1.9-2.1-2.6-0.8-0.7-1.8-1.2-2.9-1.5-17-4.7-24.7 0.5-32.9-7.1-3-3-7-4.9-11.2-5.2q-0.3-0.6-0.8-1.1c-0.4-0.3-1-0.4-1.1 0.1-0.1 0.5 0.5 0.7 0.9 0.9 0.3 0.1 0.6 0.1 1 0.1 0.1 0.7 0.4 1.4 0.9 2q3.5 4.2 6.3 8.9c6 8.9 7.9 10 7.1 12.3-0.4 1.1-1.4 0.9-2.3 0.5q-2.1-0.6-4.3-0.8c-2.7-0.5-5.2 0.6-8-0.3-3.4-1 0.6 5.1-3.6 3.5-1.5-0.5-4.1-3.7-5.1-1.9-0.8 1.5-2.4 1.2-3.4 2.3-1.7 1.7-3.1-0.2-5-3.8-0.5-0.7-0.8-2-0.3-2.5 1.2-1.3 0.8-3.8 1.6-4.7 1.2-1.5 1.9-3.3 2.3-5.1 1.4-4.6 7.4 2.7 10.3-3.2 0.1-0.1 0.4-0.1 0.6-0.2 1.3-1.1 1.4-2 0-3.4q-1.5-1.7-2.4-3.8c-0.4-0.6-0.5-1.4 0-1.6 1.7-0.5 0.8-1.6 0.3-3-1.8-5.5-0.7-8.5 3.4-9.2 0.7-0.1 1.2-0.4 1.7-0.9 0.5-0.4 0.8-1 0.9-1.6 1.1-4.6 4.8-1.6 6-2.7 2.4-1.9 5.6-1.8 7.8-4.1q0.7-0.5 1.2-1.3 0.5-0.9 0.5-1.8c0.1-1.2 0-2.6 1.1-3l0.5-0.7c0.1-1.3 0.2-2.6 1.6-2.5 0.2-1.9 2.1-1.6 2.5-3.1 0.8-3.7 5.2-6.3 5.6-9.5 0.2-1 1.1-1.1 2 0q2.2 2.3 3.7 5.1c0.7 1.9 2.1 3.4 3.7 4.5 7.6 6.1 9.1 2.4 10.9 1.6 3.1-1.2 3.6-3.8 1.6-8.6-0.6-1.4-0.3-1.6 0.7-1.4 4 0.8 6.4 1.1 7.1-0.4 1.2-2.3 3.7-2.6 5.7-3.4q0.8-0.2 1.7-0.1 0.9 0.1 1.6 0.6c3.2 1.6 6.7 2.4 10.3 2.2 3.4 0 8.2 1.9 6.8 5.2-0.2 0.6-1 1.3-0.1 2.3 3.2 3.8-1.3 4.5 1 7.5 5.3 7 6.5 6.7 3.5 8q-0.6 0.4-1.3 0.4c-2.7-0.1-3.4 4.3-2.7 7.7 0.9 2.5 6 8.4 13.4 11.4 3.8 1.6 0.8 4 0.8 5.9q0.2 3-0.2 5.9c-0.1 0.6 0 1.3 0.4 1.8 0.3 0.6 0.8 1 1.4 1.2 1.2 0.6 2.2 1.5 2.8 2.6 1.5 1.8 3.1 2.3 3.9 1 0.7-1 1.1-2.1 2.4-1.9 0.4 0 0.7-0.5 0.4-1.2-0.1-0.4-0.3-0.7-0.7-1-0.4-0.2-0.8-0.3-1.2-0.2q-0.6 0-1-0.3-0.5-0.4-0.7-0.9-0.3-0.5-0.2-1 0.1-0.5 0.4-1c1.6-1.6 6.2 0.8 4.4-5.7-1-3.7-0.7-4.5 2-4.1 2.1 0.2 4.2 0.8 6.1 1.8 4 2 4.4-1.7 9-0.4q0.2 0.1 0.5 0 0.3-0.1 0.5-0.2c2.7-1.8 5.2-3.8 9.5-2.3 1 0.3 1.7-1.5 6.5 0.9 4 1.9 3.5-2.6 3.7-3.6 0.3-2.3 1.9-1.2 4.3-0.5 3.2 0.9 0-6-2.4-8.6-1.5-1.4-2.9-3-3.9-4.9-1.8-1.6-3.6-3.4-5.4-4.7-2.2-1.8-4.3-4.3-6.8-5.1-2.4-0.7-3.9-6.1-8.4-7.5-3.4-1.3-6.4-3.4-8.8-6.1-1.1-0.8-2-2-2.4-3.4-0.2-0.6-0.7-1.2-1.3-1.6q-1.3-1.2-2.9-2.1c-0.1 0.9 0.7 2.1 1.2 3.1 1.2 2.5 2.2 5.2 5 6.7q0.1 0.1 0.2 0.3c1.5 1.6 1.3 2.5 0.3 2.1q-1.6-0.5-3.1-1.3c-1-0.6-1.5-0.4-1.8 0.3 0.3 1.4-0.5 0.8-2.1 0.2q-1 0.1-1.9-1.4c-4.4-2-5.2-5.8-8.3-4.8-1.6 0.3-3.1 0.3-4.7 0-0.8 0.1-1.7-0.2-2.4-0.7-0.5-0.1-0.9-0.4-1.2-0.7-0.3-0.4-0.5-0.9-0.6-1.3 0.1-1.8 1.9-0.5 3.8-0.3-0.3-1.5 0-2.5 1.1-2.3 2.4 0.4 3.9-0.9 6.2-0.5 1.1 0.2 1.9-0.2 1.5-1.8-1.1-0.6-1.1 0.2-1.6 0.3q-0.6 0.2-1.2 0-0.7-0.2-1.1-0.7c-1.1-1.1-0.4-1.6-0.7-2.5 0-0.1 0.1 0 0-0.2-0.1-0.3-0.3-0.3-0.3-0.1-1.7-1.2-3.4-3.1-5.1-4.2-10.7-7 0.4-4.8-4.6-8.6-2.8-2-3.3-3.2-2.2-5q0-0.5 0.4 0c0.6 0.4 1.4 0.6 2.1 0.5-3.8-6.3-6.3-0.3-12.5-5.5-0.3-0.3-0.7-0.3-0.7 0.1-0.1 0.8 1.6 2.6 2.8 3.3 2.3 1.4 3.2 1.6 3.6 2.6 0.2 0.6 0 0.8-0.2 0.8-3.1 0.7-2 1.9-4.7 0.7-3.5-1.7 0-4-4.6-7.6q-0.5-0.3-1-0.5c0.9 3-2.7 2.3 0.9 5.3 0.5 0.4 0.9 0.9 1.2 1.5 0.3 0.6 0.4 1.2 0.3 1.9 0 0.9-0.3 1.4-1.1 1.4-1 0.2-2.1 0-3-0.4-2.1-0.3-4-1.1-5.7-2.3-1.9-1.1-7.9-4.3-7.6-2.2 0.1 0.6 0.4 1.2 0.8 1.6q1.8 1.7 3.9 3.1c2.5 1.6 5 4.7 7.6 5.4 0.5 0.9 1.2 1.7 2.1 2.2 0.9 0.6 1.8 1 2.9 1.1 2.1 0.9 4 2.4 5.4 4.2 1.2 1.2 1.4 2.4 0.6 2.6-2.1 0.5-4.4 0.2-6.3-0.8-7.4-4.1-12.8-3.4-17.5 0-1.2 0.8-2.7 1.1-3.6 2.3-0.4 0.5-1.1 0.3-1.7-0.1-0.6-0.5-1.3-0.8-2.1-0.9-0.8 0-1.5 0.1-2.2 0.5-0.6 0.3-1.4 0.1-2.3-0.1q-0.2 0-0.4 0c-0.1 0.4-0.4 0.8-0.8 0.8q-5.7-0.3-11.3 0.4c0.2-2 0-3.6 2-2.6 1.3-1.9 3.6-2.2 5.6-2.8-0.5-1.7-1.6-1.8-2.6-2.2-6.3 2.1-5.3-0.3-7.7 2.1-0.7 0.7-1.5 1.4-3.6 0 2.1 0.4 1.8-0.6 1.5-2q-0.1-0.8-0.6-1.5-0.5-0.7-1.2-1.1-0.4-0.1-0.7-0.4-0.3-0.4-0.4-0.8c-0.3-1.1 0.8-1 1.6-0.9l0.4-0.7c-0.3-1.8 0.1-2.6 1.6-2.2l0.6-0.6c-0.1-0.3 0-0.5 0.3-0.3l0.1-0.3 0.1-0.2 0.3 0.1 2.6 1c0-2.8 4.2-2.5 2.5-7.3-7-3-6.4 4.1-13.4 3.2-1.2 0.2-1.8-0.6-2.1-2.1-0.7-0.7-1.6-1.2-2.7-1.5-2.8-0.8-4.2-4.1-6.3-6.2-0.2-0.1-0.2-0.5-0.2-0.7 0.2-0.9 0.9-0.8 1.5-1 0.2-0.7 0.7-0.3 1.4-0.1 2.2-0.8 4.6-1.3 6.9-1.2 0.6-0.7 1.4-1.2 2.3-1.4 0.9-0.3 1.8-0.3 2.7 0 2.9 0.8 4.7-0.8 7.1-1.1 0.5-0.1 0.6-0.6 0.5-1.3-0.5-2-2.2-1.2-3-2.8 0.2-0.7 1.3-0.5 1.1-1.8-0.3-2.1 0.9-2.4 2.1-2.4 0.5-0.1 1.4 0.5 1.4-0.4 0-1.7 1.2-0.9 2.3-0.3l0.5-0.5v-0.1h0.1c0.9-0.1 2.2 0.8 3.1 0.7 0.5-0.1 1.4 0.8 1.8 0.3 0.8-1.2 2.5-0.9 3.6-1.7 1.2-0.2 2.6-0.1 3.8 0.3 0.9 0.5 1.9 0.8 3 0.9 1.1 0 2.1-0.2 3.1-0.7 1.9 0.7 2.7-1.2 4.4-0.7q0.5-0.4 1.4 0.4h0.5c-1.2-1.7-1.2-2-0.2-2.1q1.2 0.1 2.3-0.2c2.1-1.1 4.7 0.7 9.2 1.9 0.6-0.2 1.2-0.2 1.8 0 0.6 0.1 1.1 0.5 1.5 1l0.8 0.7c2.2 1.6 4 0.2 7.8 2.9l6 3.3c1.1-1.9 3.5-0.8 6.4 1.2 2.9 1.5 3.7 1 5.7 3.3 3.3 2.3 6.2 5 8.5 8.3 0.9 0.8 1.6 1.9 2 3.1 1.5 2.8 0.1 2.7-0.5 3.9-0.6 1.3-2.7 0.4-4.5-0.1-1.1 0.8-2.5 1.1-5.2-1.4-0.8 0-1.6-0.2-2.4-0.6q1.1 2.9 2 5.8c1.3 1.5 2 3.5 3.6 4.7h0.8c0.1-0.4 0.1-0.9 0.7-0.5q0.5 0.3 0.8 0.8 0.3 0.4 0.3 1c0.2 0.6-0.6 0.7 0.3 1.9 0.5 0.6 1.2 1.1 1.9 1.2 1.1 0.4 1.4-0.2 2.3-0.4 0.9-0.3 0.8-0.6-0.5-2.3-3-3.7-1-3.5 1.8-3.7 0.7 0.1 1.4 0.5 1.9 1.1 3.1 1.2-0.4-1.4 3.9-0.4 1.1 0.3 2.5 0.8 1.5-1.5l0.6 0.2h0.2c-0.7-1.5 0.3-1.1 2.4-0.6-1.9-3.9 1.9-1.8 1.9-3.2-1.1-1.3-2.1-1.8-2.9-3-0.6-1-1.4-1.8-2.4-2.3-1.9-0.6-3.7-1.7-5-3.2q-0.7-0.3-1.1-1l-1.8-1.8c-0.4-0.2-0.8-0.5-1.1-0.9q-1.3-1.1-2.3-2.4 3.6 1.2 7.1 2.7c3.1 1.1 5.9 2.6 8.6 4.5 1.6 1.1 3 2.5 3.9 4.2 0.7 1.2 2.5 2.9 1.1 2.3-0.4-0.1-0.3 0.4-0.4 0.7 0.7 2.2 0.7 2.2 3.1 4.4q1.3 1.1 2.3 2.6 0.8 0.3 1.4 0.9l0.1 0.2q0.6 0.8 0.9 1.8c0.8 1.5 2.1 3.5 1.3 4.2 1.4 0.9 2.3 1.4 2.8 0.9 0.7-0.7 2.5 0.7 4.2 2.2q2 2.3 4.5 4 0.6 0.4 0.9 1.1c0.4 0.7-0.3 0.4-3.3 0 1.4 0.9 2.5 2.1 3.2 3.5 0.7 1.6 4.2 1.8 8.9 4.8 5.6 3.5 4.4 1.4 8.8 3.6 0.5 0.3 1 0.5 1.6 0.5 0.9-0.2 2.3 0.3 3.2 0.2-0.4-1.8 5.4 3.4 8.7 5.1q0.3 0.2 0.5 0.5c1.3 1 1.4 1.7 1.3 1.9-0.2 0.2-0.7 0 0 1.1 0.7 1 1.2 1.1 2.2 1.8l0.8 0.4c-0.5-1.4-0.4-1.4 1.1 0.2 0.4 0.3 0.9 0.4 1 0.3-0.1-1 0.8-0.4 2.1 0.8l1 0.7q0.5 0.3 1 0.8 6.4 4.5 13.6 7.9c-2-2.1-3.2-2.2-5.1-4.4 2.1-0.5 5.1 2.2 8.4 4.4 32.4 46.5 55.8 98.7 68.8 153.8q0 0.8-0.3 1.5c-3.4 9.9-1.9 10.6-3.8 11.7-1.3 0.6-2.4 1.5-3.1 2.7-0.5 0.9-1.4 1.3-0.7 3 0.7 1.8 1.8 1.9 2.9 2.2 0.2 0.1 0.3 0.3 0.4 0.5-0.3 0.9-0.8 1.8-1.6 2.5-0.7 0.7-1.6 1.2-2.6 1.5-1.6 0.4-3 1.2-4.1 2.3-3.9 2.8 1 5.5-1.5 7.7-1.8 1.5-5.6 3.3-6.8 6.9-0.3 0.8-0.6 1.6-1.5 0.9-0.9-0.7-2.2-1.4-1.6-2.8 0.5-1.4 0.8-3.5 2.1-3.7 2-0.3 2.7-1.4 2.2-3.7 0-0.2 0.2-0.4 0.3-0.5 1.1-1.8 1.8-3.8 1.9-5.9 0.4-3 4.5-5.2 4.5-9.7 0-0.4 0.4-0.6 0.7-0.9-0.7-3.4-0.2-4.2 2.4-3.8 3-2.3 2.6-3.1 1.8-9.4-1.3-0.1-2.5 0.6-4-0.1-2.2 1.9-1.2 0.9-2.2 3.2 0.3 2.9-2.2 4.3-0.9 7.8q0 0.1 0 0.2 0 0.1-0.1 0.2 0 0.1-0.1 0.1-0.1 0-0.2 0c-1.7-0.5-1.8 2.2-3.8 3-0.1 1.5-1.8 0.9-2 2.1-0.3 2.7-2.2 3.6-3.9 4.7-2.4 1.7 1.6 4-1.5 5.5-0.7 0.4-1.7 0.7-2.5 1.1q-0.1 0.2-0.3 0.3c0 0-0.5 0.6-0.5 0.6q-0.2 1-0.8 1.8-0.6 0.8-1.5 1.4c-1.7 2.4-3.5 4.8-5.1 7.5-6.2 11 1.3 12.4-3 17.4-3 3.6-4 2-6.2 5.2-0.4 0.7-1 1.2-1.8 1.4-3.9 1.2-7.3 3.8-11 5.8-4.6 2.5-9.5 4.5-14.3 6.6-11.2 4.9-7.7-11.4-22.7 7.3-4.5 5.7-5.7 2.3-12.9 6.6-3 1.7-4.4 1.3-7.4 1.1-0.9 0.9-1 2.9-2.4 3.2-1.3 2.4-3 4.7-4.9 6.6-5 5-0.3 8.2-4.4 10.8-2 1.3-6.6 1.3-7.5 4.8-1.6 6.8-9.1 3.8-10.6 7.2-0.7 1.8-2.4 2.1-3.5 3.5-0.9 1.1-2.3 0.2-3-0.6-0.8-0.7-0.5-1.7 0-2.7 1-2 0.3-2.5-3.3-6.1q-0.2-0.1-0.4-0.2-0.2-0.1-0.4-0.1-0.3 0-0.5 0.1-0.2 0.1-0.4 0.2c-1.1 1-2.5 1.7-2.9 3.5-1.4 6.1-4.9 8.2-5.8 12.9-0.4 2.4 0.7 4.7 0 7.1-0.7 2.8 1.1 5.6-0.7 8.3-0.1 0.1 0 0.6 0.1 0.7 1 1.9 1.3 4.4 3.6 4.8 3.4 0.8 1.3 9.3 6.4 9.7q0.4 0 0.8 0.1 0.4 0.2 0.7 0.5 0.2 0.3 0.4 0.7 0.1 0.4 0 0.8c-0.1 3.6 1.5 6.1 2.3 9.1 0.6 2.3 0 5.4 0 8.1q0 0.2-0.2 0.3c-1.7 0.9-2.7 3.5-4.7 3.9l0.8 1.5c1.1 0.5 2.1 1.2 2.9 2.1 0.7 1 1.1 2.1 1.3 3.3 1.5 0.6 0.7 1.6-0.3 3.1-0.4 2-1.8 3.9-1.8 5.9 2.5 1.8-5.1 4.2-7.2 10.4q-0.4 1.3-1.2 2.3c-2.7 3.7-4.8 7.7-6.5 12-8.6 18.4-12.2 19.1-12 24.4 0 0.3-0.5 0.8-0.7 1.3q-0.1 0.2-0.2 0.4-0.1 0.3-0.2 0.5-0.2 0.3-0.5 0.4c-1.5 2.6-3.8 4-5.4 6.5-2.4 2.4-5.2 4.4-8.3 5.9-0.6 1-1.5 1.7-2.6 1.9-7.7 5.2-7.4 7.2-11.4 10.8-0.5 0.9-1.2 1.3-1.8 1.9q0 0.2 0 0.4-0.1 0.2-0.2 0.3c-0.5 3.1-0.4 4.2-1.4 6-1.9 12.7-2.7 15.8-1.1 19.4 0.3 0.6-0.2 1.4-0.4 2.1-1.9 7.5-2.5 15.4-1.7 23.2 0.2 1.8-0.4 4.1 0.4 5.5q0.2 0.5 0.1 1-0.1 0.5-0.5 0.9-0.9 1.3-1.3 2.7 0 0.7 0.2 1.5c1.4 2.1 0.5 5-0.8 8-2 6.4-1.2 11.3-1.1 16.7 0 0.5 0 1 0.3 1.3 0.8 0.5 0.6 1.9 0.8 2.9 0.6 2.1-0.2 5.4 1.8 6.2 0.7 0.3 0.3 1.6-0.2 2.8-2 4.6-4.2 9.3-3.3 13q0 0.8-0.2 1.5c-0.3 4.1-1.5 8.6-0.9 11.9 0.2 1.6-3.4 3.3-3.6 1.8-0.5-1.5-0.5-3.2 0.2-4.8 0.3-0.6 0.4-1.1 0-1-0.5 0-0.9 0.5-1.2 1.1-0.4 0.9-0.6 2-0.6 3-0.2 1.2 0.2 2.3-1.3 3.6 0 0-0.3 0.5-0.3 0.5 0.4 0 0.8 0.3 0.8 0.9 0.1 3.4 6.1-4.1 3.9 3.3-1.1 3.5-0.3 5.3 0.9 6.8 0.4 0.5 0 1.2-0.7 2-1.8 2.1-1.8-1.4-3.8 2.6q-0.3 0.5-0.7 0.9c-0.1 0.4-0.2 0.8-0.2 1.2 0.2 0.1 0.2 0.5 0 1.1v0.1c3.5-1.6 3.7-1.4 2.5 2.2 0.3 0.4 0 1.2-0.4 2.1-1.2 2.1-2.1 4.3-2.7 6.6-0.3 2.1-3.2 2.7-2.4 4.8 0.1 0.4 0.1 0.9-0.5 1.8-2.3 4.2-5.2 8-8.7 11.3q-0.7 0.5-1.2 1.2c-1.3 2.2-3.3 3.9-5.7 4.7-1.2 1.8-2.9 3.2-4.8 4.2q-3.1 1.7-6 3.8c-1.3 2.2-1.6 1-2.1 0.8l-1 0.4c-1.7 2.9-3.3-0.2-9.8 1.6-0.5 0.1-0.9 0.4-0.8-0.6 0.1-1 0.8-1.3 1.3-1.8 5.4-4.4 8.5-6.6 9.3-10.2 0.7-3.2 2.4-3.5 5.4-8.5 3.5-5.8-2.8-2.1-2.2-7.6 0.4-4.5-3-2.7-4.8-4.5-1.1-1.1-0.3-6.3 3.3-7.3l4.1-1.1c1.2-1.2 2.8-1.6 3-4.6-1.1 0-1.1-1.2-1.1-2.6-2.6 0.1-3.6 0.7-4.2-0.5-0.7-0.1-1.3-0.1-1-1.1-1.1-1.1-0.3-3.3 0-5.2-0.2 0-0.2-0.1-0.2-0.3q-0.1-0.4-0.3-0.7-0.3-0.3-0.6-0.5c-1.7 0.4-2.5-0.6-4.4-0.5-1.8 0.2 0.6-6.6 2.6-5.3 1.1 0.7 2.4 0.2 3.9-0.3l0.9-4c-0.4-2.2-0.4-2.2-2.3-1.1-0.9 0.4-1.7 1.5-2.5 1.1-3.7 0.8-8.7 3-8.2-4.1 0.2-2.8-0.6-3.8-2.6-3.6-1 0.1-1.9-0.1-2.8-0.1-0.7 0-1.2-0.2-1.2-1-4 0.2-5.8 1.1-6.7-1.4h-1c-2.4-1.1-3.3-3.8-4.2-6.6-0.1-0.8-0.1-1.7 0.3-2.4 0.9-2.3 1-4.8 0.2-7.1-1.5-0.5-2.7-1.7-4.6-0.8-4.1 2-8.8-5.1-11-8.8q-1.5-2.7-2.2-5.8c-1.1-0.7-2.3-1.2-2.9-2.6-1.5 0-2.2-0.8-2.2-2.6-1.8-1-1.7-3.3-1.8-5.5q-1.9-3.1-4.3-5.9c-5.3-5.7 1.7-14.1-2.9-19.6q-2.5-2.9-5.6-5.2c-6.7-5.3-5.4-0.6-8.4-4.2-1.1-1.7-2.9-3-4.9-3.5q-4 0.5-8 0.5-0.4 0.1-0.8 0-0.4-0.1-0.7-0.3-0.3-0.3-0.5-0.6-0.2-0.4-0.2-0.8c-1-3.6-5.2-1.2-4.6-5.7 0.1-1.6-0.2-3.2-0.9-4.6-1.6-0.6-1.7-2.3-1.8-3.9-1.5-0.6-2-2.1-2.3-3.7-2.5-0.9 0.6-6.8-3.3-8.9-1.1-0.6-1.3-1.9-0.7-3.3 2.1-5.5-1.6-8.8 0-13.4 1.3-3.9 0.3-7.8 0.4-11.7 0.2-3.5-3.7-1.8-3.7-5.5-1.7-1.7-3.3-3.3-3.2-6.3q-0.5-0.2-0.8-0.6c-0.2-0.3-0.3-0.7-0.3-1q-0.6-0.4-0.9-1.1-0.4-0.6-0.5-1.4-0.5-0.1-0.8-0.5-0.4-0.4-0.4-0.9c-2.4-0.8-1.4 0.5-5.1-6.4v-0.1c-1.1-0.2-1.6-1.2-2.2-2.2-4-7.4-3.5-15-0.5-22.9zm102.1-361.3q0 0 0 0 0 0 0 0 0 0-0.1 0 0.1 0 0.1 0zm110.3 59q-0.2-0.3-0.6-0.5c-1.7-1.4-3.6-2.4-5.7-3q-3.7-0.5-7.1-1.8c-1.3-0.6-2 0.1-1.8 1.8q0.8 1.1 1.6 2.3c1.5 1 3.4 1.5 5.3 1.3 4.8-0.4 8.8 2.8 8.6 0.6q-0.1-0.4-0.3-0.7zm8.4 6.3c-5.3-0.2-9.4-4.7-9.9-1.6-0.1 0.2-0.2 0.7-0.2 0.7 0 0 0.2-0.5 0.2-0.7 2.4 2.5 5.4 3 7.9 5.4 0.8 0.1 1.6 0.5 2.2 1.1h0.1c2.3 0.5 3.8 2.8 7 2.3 1-0.2 1.3-1.4-0.1-2.5q-1-0.9-2.2-1.6c-3.4-1.5-2.8-3-5-3.1zm11-14.3q-0.1 0-0.1 0 0 0 0.1 0zm-0.1 0.1c-1-1.2-2.2-2.2-3.6-2.9-1.4-0.8-2.9-1.2-4.5-1.3-0.8-0.1-1.5-0.1-1 1.5 0.5 1.6-1.5 1.8-2.8 0.4-0.7-0.8-1-2.1-2.1-2.2-1.2-0.1-1.9 0.8-2.6 1.5-1.4 1.3-2.3 2.9-0.8 5.9 1.3 0.4 2.1-0.4 3.1-0.7l2.4 1.7c1 1.2 1.8 2.5 2.2 4 0.8 3 2.2 4.2 3.3 4.2 1.8 0-1-5 2.6-4.3 0.9 0.3 1.1-0.3 0.8-1.5-1.4-6-0.6-4.6 3-6.3zm4.4 3.3c0.8 0.1 1.6 0.4 2.3 0.9 0.6 0.4 1.2 1.1 1.5 1.8 2 3 3.2 5.8 2.5 8.9-0.5 2.3 1.8 6.5 4.1 8 1.9 1.3 3.5 0.3 3.4-2.5-0.3-5.3-1.4-6.5-3.4-12-0.3-0.7 0-1 0.5-1-0.2-1.1-0.7-2.2-1.4-3.2-0.6-0.9-1.5-1.7-2.5-2.3-2.1-1.4-4.3-2.4-6.7-3.1-1.9-0.3-1.9-0.3-1.8 2.3zm24.4-4.3c-2.3-4.2-5.4-4.3-10.1-8-4.2-3.3-8.3-5.5-12.3-5.6-2 0-0.4 4.1-4 3.6-0.7-0.1-1.8-0.7-2 0.4-0.1 1.6-1 2.8-0.3 4.8 0.3 0.8 0.9 1.6 1.3 1.2 1.6-1.6 4-0.2 5.7 1 3.6 2.4 5.3 0.4 7.4-0.5 0.8-0.3-0.4-1.4-0.2-2.3 1.5 0.6 2.8 1.4 4 2.5 1.5 1.1 3 1.8 4.5 2.7 0.8 0.6 1.7 0.9 2.3 0.4 0.9-0.7 2.3-0.2 3.6 0 0.3 0.3 1 0.6 1 0.6 0 0 0-0.2 0-0.2zm-122-103.5c1.1 0.2 3.3 0.2 3.3 0.2 0 0-2.2-0.1-3.3-0.2zm13.9-18.2c-1.8-3.3-2.1-3.6-3.4-2-0.9 1.1-2.6 0.1-4 0.6q0.6 0.9 1.6 1.5 1 0.5 2.1 0.6c1.2 0.2 2.4 0.8 3.6 1q0-0.9 0-1.7zm-1.1 7.6c-0.1 0.5 0.4 0.8 0.7 1l1.5 0.4c1.3 0.2 2.1 0.7 1.9-0.5-0.6-2.5-3.6-2.8-4.1-0.9zm23.7-18.3c-0.7 0.1-2-0.6-1.8 1.3q1.3 0.1 2.5 0.6c1.3 0.6 0.7-2.1-0.7-1.9zm34.4 28.1c-1.1-0.4-2.2 0.2-1.9 0.9 0.5 1.5 3.3 2.3 3.6 1.1q0-0.4 0-0.8c-0.5-0.6-1.1-1-1.7-1.2z"/>
				<path class="s1" d="m593.4 390.2c1.8-0.3 3.9 2 4.4 0.6-0.5-0.7-1.3-1.8-1-1.8 0.6-0.2 0.3-1.4 0.8-1.7q-1.6-2.3-3.6-4.3-0.8-0.5-1.4-1.3-0.1-0.1-0.1-0.2-0.3-0.3 0-0.1c2.7 1 5.1 2.5 7.2 4.6 2 2.1 3.3 3.3 3.5 2.6 0.1-0.6 0.3 0 0.9 0.6 0.7 0.5 1.2 1.2 1.6 1.9 0.4 0.8 0.6 1.7 0.6 2.5 0.5 0.8 1.2 1.9 1.5 1.5 0.3-0.4 1.2 0.2 0-1.5-0.2-0.3-0.2-0.5 0-0.4 0.8 0.4 5 1.6 5.9 3.3 0.6 1 1.3 1.8 2.2 2.3-0.6-1 0.8 0 2 0.5 2.3 1.3 4.4 2.9 6.3 4.8-1.6-2.3-1.3-2.5 0.8-0.7 0.6 0.5 1.6 1.4 1.4 0.9 0.3-0.3 1.7 0.7 2.4 1q0.5 0.2 0.9 0.5c3.4 4.1 5.1 6.2 8.3 10.5l-0.3-0.2 0.4 0.3c0.9 1.1 1.3 1.8 2.2 2.9l-4.6-3.2q-1-0.6-1.7-1.4l-0.7-0.5c-1.7-0.8-4.3-2.8-6.1-3.8l-1.8-1q1 1 2.2 1.7c2.7 1.8 10.7 7 13.7 9.6l1.2 1.6h-0.2c-1.5-0.3-1.6-0.6-9.3-5.3 1 1.6 1 2.3-0.7 1.2-3.7-2.3-7.4-4.4-11.6-7.4l-0.7-0.4c-1-0.4-2.7-2.1-3.7-2.7q-2.3-1.3-4.3-3.1c-4.8-4.2-6.3-2.8-7.3-3.3-9.8-5-9.9-5-10.7-6.2-0.8-1.3 0.3-0.7 0.7-0.9q-0.1-0.4-0.3-0.7c-1-0.7-2.1-1.1-3.3-1.3-0.5 0-1.1-0.5-1.8-1.4-2.2-3.1 2.7-0.3 4.1-0.6z"/>
				<path class="s1" d="m539.5 631.8c1.6 0.4 3.4 0.4 5 0.1l1.8 0.3c0.8 0.9 1.6 0.9 2-0.2 2.4-5.4 9-4.5 8.5-10.1l0.6-0.2c1.6 0.3 2.6-0.9 3.6-2.1 0.7 0 1.5 0.1 2.1 0.5 0.7 0.4 1.2 0.9 1.6 1.5 1.7 2.5 6.8 2.7 8.9 0.8 1.3-1.1 2.3-2.5 4.2-1.5 0.9 0.4 1.5-1 1-2.2-1.2-3.5-8.8-5.2-11.7-5.5-1.7-0.2-3.4-0.1-5.1-0.2q-0.6-0.2-1.3-0.1-0.7 0.1-1.2 0.5c-3 2.6-6.7 1.6-10 2.8-0.1 0-0.3-0.1-0.7-0.3 0.2-1.2 1.1-1.1 1.7-1.5 1.4-1.1 2.4-2.5 3-4.2 0.5-1.6 0.5-3.4 0-5.1 0-0.7-0.1-1.4-0.1-2.2 0.8-0.9 0.5-2 0-3l0.7-0.9q0.2-0.5 0.1-1.1-0.1-0.5-0.5-0.9l-4.3 2.4 4.2-2.4c-0.5-3.6-2.6-0.1-5-0.4-0.9-0.1-2.1-0.5-2.1 1.1-0.1 1.5 1.2 1.4 2 1.8q0 0.6 0 1.3c-1.8 1.1-1.3 3.1-1.5 5.1q-0.7 0.5-1.1 1.2-0.4 0.8-0.4 1.6c-0.4 3.4-0.3 3.2-4.1 1.2l-0.4-2.3q0.9-0.2 1.8-0.3c1 0 1.8-0.5 1.9-1.8q0.1-0.5 0.2-1c0-1.3 1.3-2 0.8-3.4-0.5-1.5-1.6-1.1-2.4-1.8-3.1-3.2-5.6 3.3-2.8 3.1 0.5 0 1-0.3 1.5 0.7-0.2 1.6-1.7 2.5-1.7 4.4-1.3 0.7-2.1 2.7-4.1 2-1.1-0.4-1.4 1.4-1.1 2.4 0.3 1 1.1 0.4 1.6 0 2.5 2.7 2.5 2.7 1.2 6.3l9.1-0.3c-3 9.2-9.2 4-9.4 8.8-2.1-0.2-4.1-0.3-5.5 2-0.3 0.4-0.9 0.7-0.8 1.4 0.3 1.3 1.8 1 2.8 1 1.6 0.9 3.6 1.2 5.4 0.7z"/>
				<path class="s1" d="m208.4 431.6c-1.3 0.8-2.7 1.2-4.2 1.2-5.5 0.7-6.5-3.1-9.7-2.2-2.6 0.7-3.6-1-4.4-3.4-0.3-1.4-0.1-2.9 0.5-4.3 1.8-5.9-5.2-2.7-0.6-8 2.7-3.1 5.7-2.7 8.5-3.1 2.2-0.3 4.3 0 4.4 3.6 0 2.7 5.3-0.6 5.9 2q0.4 1.2 0.2 2.4-0.2 1.2-0.9 2.2c-0.6 0.9-1.8 1.3-1.8 2.7 0 1.4 1.1 1.8 1.7 2.6 0.3 0.3 0.6 0.5 0.9 0.8 1.2 1.3 1 2.5-0.5 3.5z"/>
				<path fill-rule="evenodd" class="s1" d="m568.1 359.1c0.7-0.3 2.5 1.3 3.6 1.7q2.9 1.9 5.5 4.2 0.3 0.3 0.6 0.7c0.9 1.3 1.4 1.6 1.7 1.4 0.7-0.3 2.2 0.6 3.4 1 0.8 0.4 1.5 0.9 2.1 1.6 0.8 1.4 0.2 1.5-0.6 1.1q-2.7-0.9-5.2-2.3c-0.9-0.7-2.1-1.3-2.9-1.8-0.7-0.5-1.3-0.7-0.9 0.2 0.6 1.5-0.6 0.4-7.6-3.7-0.6-0.5-1.2-1.1-1.5-1.8-0.6-0.2-1.1-0.6-1.5-1.1q-0.7-1.5-1.3-3.1c-0.4-0.7 0-0.9 0.5-0.7 1.2 0.4 2.3 1 3.2 1.8 0.4 0.3 0.8 0.7 0.9 0.8zm5 3.4q0.2 0 0.2 0.1-0.1-0.1-0.2-0.2zm0.2 0.1c0.5 0.3 0.9 0.7 1.2 0.7-0.7-0.7-0.9-0.6-1.2-0.7zm-0.5-0.4l0.2 0.2q-0.1-0.1-0.2-0.2zm0.2 0.1q0.1 0.2 0.2 0.3c0.2 0.2 0.1 0.1-0.1-0.2z"/>
				<path class="s1" d="m529.5 643.1c-2.1-1.3-4.1-0.1-6.1-0.9-5-1.8-4.3 6.5-6.5 1.8-0.5-1.1-1-2.8-2.1-2.6-3.1 0.6-6.2-1.9-9.2-0.1-2.3 1.3-4.3-3.3-0.9-4.1 3.5-1 7.5-7.5 13.2-5.6 5.6 1.9 4.4-1 7.5-0.5 0.6 0.1 1.3 0.3 1.5 1.2 0.2 0.9-0.5 1-0.8 1.5-1.6 1.8-1.6 1.8 0 4.4-1 0.3-2.1-0.5-2.1 0.8-0.1 1.2 1 1.4 1.8 1.3q2.7-0.6 5.4-0.9c0.8 0 1.8 0.7 1.1 1.7-0.6 1-1.9 2.6-2.8 2z"/>
				<path class="s1" d="m608.2 384.7c-1.8-1.2-5-3.8-7.9-6q-0.6-0.6-1.2-1.2-0.7-0.9-1.6-1.7-1.6-1.5-3-3.2c-0.9-1.1 0.6 0.2 0.9 0.3q0.4 0.2 0.7 0.5 1.2 0.9 2.3 1.8c7.7 6.5 6.4 5.2 9 8.2 1.6 1.7 1.6 1.7 0.8 1.3z"/>
				<path class="s1" d="m549.3 345.7c-0.9-0.4-1.7-0.9-2.4-1.7q-0.5-0.4-0.9-1c-0.2-0.6 0-0.5 0.4-0.3 4.1 2.2 4.9 3.1 4.3 1.9-0.8-1.6-1.3-0.9-2.3-2 1.9-0.1 4.7 1.7 7.3 3q1.8 0.7 3.3 1.8c0.9 0.6 1.6 1.4 2 2.4l0.2 0.2 0.2 0.2c-6.1-0.3-8.7-3.6-12.1-4.5z"/>
				<path class="s1" d="m30.3 360.4q-2.8 2.7-5.9 5c-0.7 0.5-1.2 0.8-1 0.3q-1.6 1.3-3 2.8c-0.3 0.3-0.7 0.7-0.5 0.3 1.4-1.9 0.3-0.5-2.2 1.2q-0.2 0.2-0.3 0.3c-0.2 0-0.2 0 0.2-0.3 1-1 1.8-1.7 3.1-3q0.3-0.3 0.6-0.6c0.2 0.2 1.8-1.3 2.3-1.5q2.2-1.2 3.9-3.1c2.7-2.2 5-3.8 7.5-5.3q-0.1 0.2-0.2 0.3c-0.3 0.3-0.6 0.4-0.9 0.7-1.3 1.1-2.3 1.6-3.6 2.9z"/>
				<path class="s1" d="m0.2 385.7c0.8-0.7 1.7-1.4 3.2-2.9 0.2-0.3 0-0.1 0-0.1 0 0 0.2-0.2 0 0.1 0.9-0.9 2.1-2.1 2.8-2.8 0.7-0.6 0.8-0.7 0 0.2-0.2 0.2-1 1-0.7 0.7 2.4-2.2 3.4-2.7 5.5-4.6q1.3-1 2.5-2.2c0.4-0.5-0.1 0-0.3 0.1q-0.2 0.1-0.3 0.2c-0.2 0.1-0.5 0.4-0.5 0.3 0-0.1-0.7 0.5-1.6 1.5-0.4 0.4-0.5 0.4-0.4 0.2 0.4-0.7-0.2-0.3-1.5 0.9l-0.6 0.6q-1.3 0.9-2.4 2l-0.8 0.7c-1.2 1.2-1.8 1.8-2.9 3z"/>
				<path class="s1" d="m545.8 594.4c-1.1 2.3-4.1-1.7-2.6-3.3 2.8-3 9.8-5.7 9.3-0.7-0.6 5-4.5-0.6-6.7 4z"/>
				<path class="s1" d="m569.7 370q-0.4-0.1-0.7-0.3c-1.8-1.6-1.8-1.6-1.4-0.4q0.2 1.2 0.8 2.1c1.3 2.7 1.3 2.7 3.6 4q1 1 2.3 1.7 1.2 0.9 2.4 1.9c2 1.2 3.6 2 4.4 1.3 2.4-1.7 5.5 2.1 7.3 1.2 0.5-0.7-3.2-3.9-3.6-3-0.7-0.3-2.7-0.7-3.5-2-1.2-1.8 2.3 0.8 1.9-0.3-0.2-0.5-0.7-0.7-1.1-1.2-1.7-1.7-3.6-3.1-5.7-4.2-0.6-0.2-1.2-0.5-1.8-0.7-2.9-2.4-5.4-4.1-7-3.9-0.3 0-0.8 0-0.2 0.9 0.4 0.8 1 1.4 1.8 1.8v-0.6q0.1 0 0.2 0-0.1 0-0.2 0v0.5c0.4 0.6 1.1 1.2 0.5 1.2z"/>
				<path class="s1" d="m539.2 398.5c0.6 0.7 0.5 1.2 0 1.3-2 0.4-5.4-1.8-7.8-5.4 1.8-0.3 4 1 6 2.1q1.1 0.8 1.8 2z"/>
				<path class="s1" d="m548.9 640.2c0.8 0 1.8 0 2.1 1.3 0.2 1.2-0.7 2-1.5 2.5-2.3 1.6-4.8 1.2-7.3 0.5q-0.4-0.2-0.6-0.5-0.2-0.3-0.2-0.6-0.1-0.4 0.1-0.7 0.1-0.3 0.4-0.6c2.9-1.1 2.7-2.3 7-1.9z"/>
				<path class="s1" d="m468.8 448.4c0.3 0 0.7 0.3 1.1 1.3-1.4 0.3-2.6 1.6-3.9 1.9-1.3 0.4-6.2 2.4-7 0.2q-0.2-0.3 0-0.7 0.1-0.4 0.5-0.7c2.7-2.1 6.2-1.6 9.3-2z"/>
				<path fill-rule="evenodd" class="s1" d="m142.9 305.8c-1.1 0.6-2.4 0.9-3.6 0.9l-1 0.4q0 0.1-0.1 0.2-0.1 0-0.2 0-0.2 0.6-0.6 0.9-0.4 0.4-0.9 0.6c-4.4 2.2-5.4 7.1-8.2 7.7q-3.7 1.9-6.9 4.6c-1.9 1.4-2.1 1.3-2.5 0-0.2-0.5-0.2-1.3-0.6-1.5-1.1-0.3-2.6 0.1-2.4-1.8-1.3 0.2-1.8-1-3.3-0.4-3.4 1.5-2.4 1.4-5.2 4.2-1 1-0.2 1.4-1 2.4-1.3 0.9-2.9 1.4-4.5 1.7-1.4 1.3-3.1 3.6-3.7 2.3-1 0-2.7 1.2-2.9-0.1 0.9-1 0.1-0.4 2.6-1.8q1.5-1.5 3.2-2.7c0.6-0.7 1.4-1.2 2.3-1.5 0.9-1.1 1.9-2.4 2.5-2.4-0.1 0.2-0.2 0.4-0.2 0.6 0-0.2 0.2-0.4 0.2-0.6l1.5-1.4c0.2-0.8 0.9-1.3 1.4-2q-2.5 1.1-4.9 2.2c-4.4 3.1-9.9 4.9-13.3 4.5q1.1-1.1 2.5-2c3.1-1.5 6.9-4.3 9.9-5.2 0.7-0.1 1.3-0.5 1.8-1 2.7-3.1 2.4-0.4 4.2-1.5 2.4-1.5 4.9-2.9 7.3-4.3 0.3-0.5 0.8-0.8 1.3-0.9 1.4-0.4 1.6 0.8 2.5 1 0.3 0 0.4 0.1 0.2 0.7 1.8-1.4 5.6-4.7 7.9-4.3l0.4 0.4c0.9 2.1 2.3-1.3 3.4-1.2 2.2-2 1.2 1.6 4-0.4 6.2-4.4 7.1-4.3 9.6-4.5 0.6-0.1 0.3 0.8-0.3 1.6-0.3 0.6-1.1 1.1-1.1 1.7-0.1 1.1 1.4-0.5 1.4 0.3-0.7 1.1-1.6 2-2.7 2.6zm0.6-2c-0.1-0.1-0.1-0.1-0.3 0.2h0.1l0.2-0.2z"/>
				<path class="s1" d="m535.9 339.1c-0.9-0.6-1.8-2.3-1-2q2.1 0.6 3.8 1.9c0.7 0.5 1.3 1.2 1.6 2 0.6 1.5-0.4 0.8-4.4-1.9z"/>
				<path class="s1" d="m586.9 368.9c-0.6 0.6-3-1.2-5.1-2.6 1.2 0 2.4 0.2 3.5 0.8q0.8 0.4 1.3 1c0.6 0.7 0.4 0.7 0.3 0.8z"/>
				<path class="s1" d="m497.7 641.7c-0.1 1.6-1.3 1.4-3.4 1.5-1.3 0.1-2.6 0-3.8-0.5q-0.4-0.2-0.6-0.5-0.2-0.3-0.3-0.7-0.1-0.4 0-0.7 0.1-0.4 0.4-0.7c1.2-1.2 8-1.7 7.7 1.6z"/>
				<path class="s1" d="m197.4 400.9c0.2-4.3-3.7-2.1-3.5-5.6 0.8-4 6 1.8 5.5 4.8-0.2 2.5-2 2.4-2 0.8z"/>
				<path class="s1" d="m194.5 401.6c-0.5 0.3-0.9 0.7-1.1 1.3-0.2 0.5-0.2 1.1 0.1 1.7 0.4 1.3-0.5 1.9-1.6 2.1h-1c0.4 2 3.1 1.2 2.8 2.9-0.2 0.6-0.5 1.1-0.8 1.1-1.9 0-3.8 2.4-5.5 1.4-1 1.2 0.5 2.4-0.9 3.3l-1.1 0.2c-1.8 3.5-2.6-0.9-7 4.4q-0.8 2.2-1.1 4.5c5.3-0.7 6.9-1.3 6.7 0.9-0.1 1.4-0.8 2-1.8 1.9l-0.7 0.9c0 1.8 1.3 2.2 1.8 3.6q0.7 0 1.4 0c1.7 0.1 0.9 2.5-0.6 2.6-1.2 0-2.4-0.8-3.3 1.1-0.8 1.8 0.3 1.8 4.5 6 0.3 0.3 0.6 0.6 0.4 1.2-0.3 0.6-0.7 0.8-1 0.6-1.9-1.1-4.2-1.3-6.3-0.8q-0.3 0-0.7-0.1-0.3-0.2-0.5-0.5c-0.9-1.5-2.2-1.2-3.7-1-1.4 0.2-2.7 0.2-4.1 0.5-3.3 0.8-6.4-0.1-9.7 0.8-1.9 0.6-3.4-0.8-4.8-1.8q-0.2-0.1-0.3-0.4 0-0.2 0-0.4c1.2-2.2 0.1-3.3-0.4-4.7-1.2-2.9 1.2-4.9 4.2-5.6 3.5-0.8 4-7.9 9.4-10.3 3.6-1.5 1.5-5 7.4-8.5 3.4-2 0.3-3-1-6.9-1-3 1.8-2.3 5.8-3.1 1-0.2 2.4 0.3 2.9-1.3 0.7-2.1-1.2-1.3-2.2-2.3-1.3-0.4-1-2-1.2-3.3-0.2-1.2 1.4-2.5 1.8-1.3 1.6 4.7 7.1-0.5 7.9 2.9l1 2.1c0.7 0 1 0.3 1 1.1q1.5 0.4 3 0.4c1.6-0.2 1.6 1.8 0.3 2.8z"/>
				<path class="s1" d="m593.6 376.4c5.8 4.9 0.8-2.1 5.9 2.7q2.1 2 4.1 3.6c0.4 0.8-1.2-0.6-0.7 0.3 3 3.1 4.5 4.2 5.4 4.1q3.7 2.1 7.1 4.5c-1.8-1.9-2.2-1.8-3.5-3.4q2.3 1.7 4.2 3.8 0.6 0.6 1.2 1.1l1.5 1.3 1.1 0.7q1.4 1.5 2.9 2.7 1.2 1.4 2.5 2.6c0.7 0.8 1.1 1.2 1.8 2.1-0.6-0.4-1.4-1.1-2.4-2q-0.2-0.1-0.3-0.2c0 0.4-1.8-1.2-3.8-2.8-0.1 0-1-0.7-1.2-0.7q-0.3-0.4-0.7-0.9c0.3 0.1 1 0.7 1 0.7q-0.4-0.4-0.9-0.8l-1-0.7q0.3 0.6 0.9 1.1 0.7 0.7 0.8 0.6c1.2 1.7 0 0.8-1 0.1q-4.8-3.2-9.2-6.9c-9.5-8-11.9-7.5-17.8-13.7-3.8-3.7-0.9-2.3 2.1 0.1z"/>
				<path class="s1" d="m563.1 347.6l-3.6-1.8c-0.6-0.3-1.7-1.8-1-1.5q1.9 0.9 3.6 2 0.5 0.4 0.9 0.9c0.3 0.2 0.3 0.4 0.1 0.4z"/>
				<path class="s1" d="m525.9 396.9c0.3 0.9-0.5 1.9-1.3 1.6-1.3-0.4-4.6-4.9-1.6-4.2q1 0.3 1.7 1 0.8 0.7 1.2 1.6z"/>
				<path class="s1" d="m219.6 569.1c1.8 2 3 4.6 3.4 7.3-3.8 0-3.2-4.5-4.9-6.4q0-0.5 0.3-1 0.1-0.1 0.3-0.2 0.2 0 0.3 0 0.2 0 0.4 0.1 0.1 0.1 0.2 0.2z"/>
				<path class="s1" d="m589.5 375.9q-2.1-1-3.9-2.5c0.6-0.8 1.5-0.1 3.9 2.5z"/>
				<path class="s1" d="m518.1 621.1c0-1.7 1.1-1.6 1.9-1.8q0.3 0 0.5 0 0.3 0 0.5 0.2 0.2 0.2 0.3 0.4 0.1 0.3 0.1 0.5c0 0.6-0.2 1.1-0.5 1.5-0.3 0.4-0.8 0.7-1.3 0.9-0.8 0.1-1.2-0.8-1.5-1.7z"/>
				<path class="s1" d="m609.8 385.6q-0.3-0.3-0.6-0.7c-0.3-0.4 0.2 0 0.7 0.4q1.5 1 2.7 2.3-1.6-0.8-2.8-2z"/>
				<path class="s1" d="m462.5 385.7c-1.9-0.4-1.7-3.5 0-3.3 2.3 0.4 2.3 3.9 0 3.3z"/>
				<path class="s1" d="m530.4 617.3c-0.4-0.1-0.9-0.3-1.2-0.7-0.3-0.4-0.4-0.8-0.4-1.3 0-2.3 2.7-2.5 2.7 0.3 0.1 1-0.1 1.9-1.1 1.7z"/>
				<path class="s1" d="m286 256q-3.9 0.5-7.8 1c0.7-1.5 1.6-1.3 7.8-1z"/>
				<path class="s1" d="m256.4 284.2q0 0.2-0.1 0.3-0.1 0.2-0.3 0.3-0.1 0.1-0.3 0.1-0.2 0.1-0.4 0c-0.6 0-1.3-0.2-1.2-1.3q0-0.4 0.3-0.7 0.3-0.2 0.7-0.3c0.5 0.4 1.5 0.2 1.3 1.6z"/>
				<path class="s1" d="m478.6 393.9c0.1 0.6-0.3 0.8-0.8 0.7q-0.6-0.1-1.1-0.6-0.5-0.4-0.7-1.1c-0.2-0.9 0.4-0.9 0.9-0.8 0.6 0.1 1.5 0.6 1.7 1.8z"/>
				<path fill-rule="evenodd" class="s1" d="m245.1 359.1c-1.5 0.2-1.9-0.5-3.2-1.2-0.8 0.2-1.5 0.4-1.8-0.6h-0.1q-0.2 0-0.3 0-0.1 0-0.3 0-0.1-0.1-0.2-0.2-0.1-0.1-0.2-0.2l0.2-0.1q-0.3 0.2-0.6 0.2-0.4 0.1-0.7 0c-0.4 0.5-0.9 0.9-1.3 0.7-1.8-0.8-3.3-2.1-4.9-3-1-0.6-1.2-2.2 0.4-3.4q2.8-2.2 5.7-4.4 0.3-0.2 0.8-0.2c0.9-0.2 1.7-0.5 2.4-1.1 3.2-2.4 3.9 2 8.8 0.7 1.3-0.4 2.8-0.4 4.1 0l1.1-0.3c1.5-0.6 2.6 1 4.1 0.1 1.2-0.7 2-0.4 2.8 0.9 1.1 1.7 2.3 1.4 3.6-0.5q0.4-0.6 1-1 0.6-0.3 1.3-0.3c3.2-1.4 1.4-3.1 9.3 0.5q0.8 0.5 1.2 1.3c1.1 1.6-0.8 1.9-2.6 1.8-2.3-0.2-4.5-1-4.7 0.8-0.1 1.9 2.5 0.2 5.9 2.4-2.8 1.2-5.1-0.2-7.2 2-1 1.2-1.1 2 0.2 2.6 0.3 0.1 0.5 0.2 0.5 0.7-0.4 0.7-1.1 0.6-1.6 0.6-9.4 0.2-8.1 3.6-12.5 2.6q-0.3 0-0.5 0.2c-3.3 0.9-6.3 1-8.3-2.4-2.1 0.5-1.6 0.4-2.4 0.8zm10.7-6.1q0 0 0 0 0 0 0 0zm0.2 0.3c0 0-0.1-0.2-0.2-0.3 0.1 0.1 0.2 0.3 0.2 0.3zm-5.3 1.1c0.7 0.5 1.2 1.3 1.3 2.2-0.1-0.9-0.6-1.7-1.3-2.2zm-0.3 1.8q0 0.3 0 0.7 0-0.4 0-0.8z"/>
				<path class="s1" d="m566.8 363.8c-0.5-0.7 0.3-0.2 0.7 0.4 0.5 0.7-0.2 0.3-0.7-0.4z"/>
				<path fill-rule="evenodd" class="s1" d="m581.1 362c-0.5 0 1.2 2.1 0.3 1.5q-3.3-1.9-6.4-4.2-0.7-0.6-1.5-1c-0.1 0-0.1 0 0.3 0.6 0.4 0.6 1.1 0.7 1.9 1.9q-2.1-1.1-4-2.7c-0.4-0.6 0.8 0.5 0.2-0.5-1-0.9-1.5-1.2-1.8-1.1-0.8 0.4-3.1-1.4-5.1-2.7-0.4-0.3-1.4-1.3-1.1-1.3 0.6-0.1 0.3-1.4 1.2-1.1 0.9 0.4 2.4 1.5 3 1.5 1.1-0.1 3.4 2.3 5.1 2.9 0.8 0.5 1.5 0.8 2.4 1.4q3.1 2.2 6 4.7c1.2 1.3 0.4 0.6-0.5 0.1zm-9.2-6.4q-0.1 0.1 0 0.2 0-0.1 0-0.2z"/>
				<path class="s1" d="m122.3 359.3l0.1-0.2h0.2c-0.2 0.4-0.1 0.3-0.3 0.2z"/>
				<path class="s1" d="m58.2 371.4l-0.4 0.9c-0.3-0.1-0.1-0.4 0.4-0.9z"/>
				<path class="s1" d="m28.7 503.1q0 0.4 0 0.7-0.4-0.2 0-0.7z"/>
				<path class="s1" d="m550.1 488.1c1.1 0.6 0.9 1.8 1.1 2.7l-2.4-1.7c0.2-0.7 0.5-1.4 1.3-1z"/>
				<path class="s1" d="m110.5 502.4c0.3-1.7 0.3-3.5 0-5.3-0.1-0.8 0-1.6 0.3-2.3 0.3-0.7 0.8-1.3 1.5-1.8 1.2-0.4 4.2 1.2 2.1 5.2q-1.1 1.9-1.9 4.1 0.4 0.6 1.1 1 0.6 0.3 1.3 0.4c0.6 0.1 1.2 0.6 0.8 1.4-2.8 5.4 0.3 10.5-3.6 10.3-5.1-0.2-3.4-5.4-3.7-6.9-0.2-1.1-0.1-2.2 0.3-3.3 0.3-1.1 1-2 1.8-2.8z"/>
				<path class="s1" d="m39.8 542.3c0.7 0 1.4 0 1.4 0.9 0 2.3-3 1.1-4.4 2.5-2.6 2.7-4.8 1.1-7.1 1.5-0.4 0-0.7-0.2-0.6-0.8 0.2-1.5 7.9-3.4 10.7-4.1z"/>
				<path class="s1" d="m1.4 550.2c0.8 0.2 0.5 1.4-0.4 2.2q-0.5 0.4-1.1 0.6-0.7 0.2-1.3 0.1c-2.3-0.4-4.4-1-4.4-4.4 1.2 0.6 2.5 0.8 3.8 0.5 1.4-0.4 2.2 0.7 3.4 1z"/>
				<path class="s1" d="m142.1 508.5c0.3 1.4-3.9 3.2-3.9 0.4 0.2-2.1 3.6-2.4 3.9-0.4z"/>
			</g>
			<g style="opacity: .7">
				<path class="s2" d="m588.4 1011.7l-14.3-0.1c-0.9 0-1.8-0.4-2.5-1.1-0.7-0.7-1-1.6-1-2.5 0-1 0.4-1.9 1.1-2.5 0.7-0.7 1.6-1 2.5-1l14.3 0.1c1 0 1.9 0.4 2.5 1 0.7 0.7 1.1 1.6 1.1 2.5 0 1-0.4 1.9-1.1 2.6-0.6 0.6-1.5 1-2.5 1zm17.9-0.1c-1 0-1.9-0.4-2.6-1-0.6-0.7-1-1.6-1-2.6 0-0.9 0.4-1.8 1-2.5 0.7-0.7 1.6-1 2.6-1 4.8 0 9.5-0.2 14.2-0.3 1-0.1 1.9 0.3 2.6 0.9 0.7 0.7 1.1 1.6 1.1 2.5 0 1-0.3 1.9-1 2.6-0.6 0.7-1.5 1.1-2.5 1.1q-7.1 0.2-14.2 0.3zm-50-0.4h-0.1q-7.2-0.2-14.3-0.5c-1 0-1.9-0.4-2.5-1.1-0.7-0.6-1-1.6-1-2.5 0-1 0.4-1.9 1.1-2.5 0.7-0.7 1.6-1 2.5-1h0.2q7.1 0.3 14.2 0.5c1 0 1.9 0.4 2.6 1 0.6 0.7 1 1.6 1 2.5 0 1-0.4 1.9-1 2.6-0.7 0.6-1.6 1-2.6 1zm82.4-0.5c-1 0-1.9-0.4-2.6-1-0.7-0.7-1.1-1.6-1.1-2.5 0-1 0.4-1.9 1-2.6 0.7-0.7 1.6-1.1 2.5-1.1q7.2-0.3 14.3-0.7 0.7-0.1 1.4 0.2 0.7 0.2 1.2 0.7 0.5 0.5 0.8 1.1 0.4 0.6 0.4 1.3 0 0.8-0.2 1.4-0.2 0.7-0.7 1.2-0.5 0.6-1.1 0.9-0.6 0.3-1.4 0.3-7.1 0.5-14.2 0.8zm-114.5-0.8h-0.2q-7.2-0.4-14.3-0.8c-0.9-0.1-1.8-0.5-2.4-1.2-0.7-0.8-1-1.7-0.9-2.6 0-1 0.5-1.9 1.2-2.5 0.7-0.6 1.6-0.9 2.6-0.9q7.1 0.5 14.3 0.9 0.7 0 1.3 0.3 0.7 0.3 1.2 0.8 0.4 0.5 0.7 1.2 0.2 0.6 0.2 1.3 0 0.7-0.3 1.4-0.3 0.6-0.8 1.1-0.5 0.5-1.2 0.8-0.6 0.2-1.3 0.2zm146.7-1.2c-1 0.1-1.9-0.3-2.6-0.9-0.7-0.7-1.1-1.6-1.1-2.5-0.1-1 0.3-1.9 0.9-2.6 0.7-0.7 1.6-1.1 2.5-1.1q7.2-0.6 14.3-1.3c0.9 0 1.9 0.3 2.6 0.9 0.7 0.6 1.2 1.4 1.3 2.4 0.1 0.9-0.2 1.9-0.8 2.6-0.6 0.7-1.5 1.2-2.4 1.3-4.8 0.4-9.5 0.8-14.3 1.2zm-178.9-0.9h-0.3c-4.7-0.3-9.5-0.7-14.3-1.1-0.9-0.1-1.8-0.6-2.4-1.3-0.6-0.7-0.9-1.7-0.8-2.6 0.1-1 0.5-1.8 1.3-2.5 0.7-0.6 1.6-0.9 2.6-0.8l14.3 1.2c0.9 0 1.8 0.4 2.4 1.1 0.7 0.7 1 1.7 1 2.6 0 1-0.5 1.8-1.2 2.5-0.6 0.6-1.6 1-2.5 0.9zm210.9-2.2c-0.9 0.1-1.8-0.3-2.5-0.9-0.7-0.6-1.2-1.5-1.2-2.5-0.1-0.9 0.2-1.8 0.9-2.5 0.6-0.7 1.5-1.2 2.4-1.2 4.8-0.6 9.6-1.2 14.2-1.8q0.7-0.1 1.4 0.1 0.7 0.2 1.2 0.6 0.6 0.4 1 1 0.3 0.7 0.4 1.4 0.1 0.7-0.1 1.4-0.1 0.7-0.6 1.2-0.4 0.6-1 1-0.7 0.3-1.4 0.4c-4.6 0.7-9.4 1.3-14.2 1.8zm-243.1-0.6h-0.4l-14.3-1.5q-0.7-0.1-1.3-0.4-0.6-0.3-1.1-0.9-0.4-0.6-0.6-1.2-0.2-0.7-0.1-1.4 0-0.8 0.4-1.4 0.3-0.6 0.9-1.1 0.5-0.4 1.2-0.6 0.7-0.2 1.4-0.1c4.8 0.5 9.5 1 14.3 1.5 0.9 0 1.8 0.4 2.5 1.1 0.6 0.7 0.9 1.7 0.9 2.6-0.1 1-0.5 1.9-1.2 2.5-0.7 0.6-1.6 1-2.6 0.9zm-32-3.6h-0.4q-7.2-0.8-14.3-1.8-0.7 0-1.3-0.4-0.7-0.4-1.1-0.9-0.4-0.6-0.6-1.3-0.2-0.7-0.1-1.4 0.1-0.7 0.4-1.3 0.4-0.6 1-1.1 0.5-0.4 1.2-0.6 0.7-0.2 1.4-0.1c4.8 0.6 9.5 1.2 14.3 1.8 0.9 0 1.8 0.5 2.5 1.2 0.6 0.7 0.9 1.6 0.8 2.6 0 0.9-0.4 1.8-1.1 2.4-0.8 0.7-1.7 1-2.6 0.9zm307-0.2c-1 0.1-1.9-0.2-2.6-0.9-0.8-0.6-1.2-1.5-1.3-2.4-0.1-0.9 0.2-1.9 0.9-2.6 0.6-0.7 1.5-1.2 2.4-1.3 4.7-0.7 9.4-1.5 14-2.4 1-0.1 1.9 0.1 2.7 0.6 0.8 0.5 1.3 1.4 1.5 2.3 0.2 0.9 0 1.9-0.6 2.7-0.5 0.8-1.3 1.3-2.3 1.5q-7 1.2-14.2 2.4zm-339-3.9h-0.5q-7.1-1-14.3-2.1c-1-0.1-1.8-0.6-2.4-1.4-0.6-0.8-0.8-1.8-0.7-2.7 0.2-0.9 0.7-1.8 1.5-2.4 0.7-0.5 1.7-0.8 2.7-0.6q7.1 1 14.1 2c0.9 0.1 1.8 0.5 2.4 1.3 0.7 0.7 1 1.6 0.9 2.6 0 0.9-0.5 1.8-1.2 2.4-0.7 0.6-1.7 0.9-2.6 0.9zm370.7-2c-1 0.1-1.9-0.2-2.7-0.8-0.7-0.6-1.2-1.5-1.3-2.4-0.1-1 0.2-1.9 0.8-2.7 0.6-0.7 1.5-1.2 2.4-1.3 4.7-0.9 9.3-2 13.9-3.1q0.7-0.2 1.4-0.1 0.7 0.1 1.3 0.5 0.6 0.4 1.1 1 0.4 0.5 0.5 1.2 0.2 0.7 0.1 1.4-0.1 0.7-0.5 1.3-0.4 0.7-1 1.1-0.5 0.4-1.2 0.5c-4.6 1.2-9.4 2.2-14.1 3.2q-0.4 0.2-0.8 0.2zm-402.6-2.9h-0.6l-14.1-2.3c-1-0.2-1.8-0.8-2.3-1.5-0.5-0.8-0.7-1.7-0.6-2.7 0.2-0.9 0.7-1.7 1.5-2.2 0.7-0.6 1.6-0.8 2.6-0.7q7 1.2 14.1 2.3c0.9 0.1 1.8 0.6 2.4 1.3 0.6 0.7 0.9 1.7 0.8 2.6 0 1-0.5 1.8-1.2 2.4-0.7 0.7-1.7 1-2.6 0.9zm433.9-4.8c-0.9 0-1.7-0.3-2.4-0.9-0.6-0.6-1-1.4-1.2-2.2-0.1-0.9 0.1-1.7 0.6-2.5 0.5-0.7 1.2-1.2 2-1.4 4.7-1.3 9.2-2.7 13.7-4.1q0.6-0.2 1.3-0.1 0.8 0.1 1.4 0.4 0.6 0.3 1.1 0.9 0.4 0.5 0.6 1.2 0.2 0.7 0.2 1.4-0.1 0.7-0.4 1.3-0.3 0.6-0.9 1.1-0.5 0.4-1.2 0.7c-4.5 1.4-9.2 2.7-13.9 4q-0.5 0.2-1 0.2zm-465.6-0.6q-0.3 0-0.6 0-7.1-1.3-14.1-2.7-0.7-0.1-1.3-0.5-0.6-0.4-1-1-0.4-0.6-0.6-1.3-0.1-0.7 0-1.3 0.2-0.7 0.6-1.3 0.3-0.6 0.9-1 0.6-0.4 1.3-0.6 0.7-0.1 1.4 0 7 1.4 14.1 2.6c0.9 0.1 1.8 0.6 2.4 1.3 0.6 0.7 0.9 1.7 0.8 2.6-0.1 1-0.5 1.8-1.2 2.5-0.8 0.6-1.7 0.9-2.7 0.8zm-31.6-6.1q-0.4 0-0.7 0-7-1.4-14.1-2.9-0.6-0.1-1.2-0.5-0.6-0.4-1-1-0.4-0.6-0.5-1.3-0.2-0.7 0-1.4 0.1-0.7 0.5-1.3 0.4-0.6 1-1 0.6-0.4 1.3-0.5 0.7-0.1 1.4 0 7 1.5 14 2.9c0.9 0.1 1.8 0.6 2.4 1.3 0.6 0.7 0.9 1.7 0.8 2.6-0.1 1-0.5 1.8-1.3 2.5-0.7 0.6-1.7 0.8-2.6 0.8zm527.9-3.1c-0.8 0-1.6-0.3-2.3-0.9-0.6-0.5-1-1.2-1.2-2.1-0.1-0.8 0-1.6 0.4-2.4 0.5-0.7 1.1-1.3 1.9-1.5 4.5-1.7 8.9-3.4 13.2-5.1q0.7-0.3 1.4-0.4 0.8 0 1.4 0.3 0.7 0.3 1.2 0.8 0.6 0.5 0.8 1.2 0.3 0.6 0.3 1.4 0 0.7-0.3 1.4-0.3 0.6-0.8 1.1-0.6 0.5-1.3 0.8c-4.3 1.8-8.9 3.5-13.5 5.2q-0.6 0.2-1.2 0.2zm-559.5-3.6q-0.4 0.1-0.7 0-7-1.5-14-3.1c-0.9-0.2-1.7-0.8-2.2-1.6-0.6-0.8-0.7-1.8-0.5-2.7 0.2-0.9 0.8-1.7 1.6-2.2 0.8-0.5 1.7-0.7 2.7-0.5q7 1.6 13.9 3.1c0.9 0.2 1.6 0.7 2.1 1.4 0.5 0.8 0.7 1.6 0.7 2.5-0.1 0.9-0.6 1.7-1.2 2.3-0.7 0.6-1.5 0.9-2.4 0.9zm-31.3-7.2q-0.5 0-0.9-0.1-7-1.6-13.9-3.4-0.7-0.2-1.3-0.6-0.6-0.4-0.9-1c-0.5-0.8-0.6-1.8-0.4-2.7 0.2-0.9 0.8-1.7 1.6-2.2 0.9-0.5 1.8-0.6 2.8-0.4q6.9 1.8 13.9 3.4c0.8 0.2 1.6 0.7 2.1 1.4 0.5 0.7 0.7 1.6 0.6 2.5-0.1 0.9-0.5 1.7-1.2 2.2-0.6 0.6-1.5 1-2.4 0.9zm620.5-1.6c-0.8 0-1.6-0.3-2.2-0.8-0.7-0.5-1.1-1.2-1.3-2-0.2-0.8-0.1-1.6 0.3-2.4 0.3-0.7 0.9-1.3 1.7-1.6 4.3-2.1 8.5-4.2 12.5-6.4q0.6-0.4 1.3-0.5 0.7-0.1 1.4 0.1 0.7 0.2 1.3 0.6 0.6 0.5 0.9 1.1 0.4 0.7 0.5 1.4 0 0.7-0.2 1.4-0.2 0.7-0.7 1.3-0.5 0.5-1.1 0.8c-4.2 2.3-8.5 4.5-13 6.6q-0.6 0.4-1.4 0.4zm-651.9-6.2q-0.5 0-0.9-0.2-7-1.7-13.9-3.6-0.7-0.1-1.3-0.6-0.7-0.4-1.1-1-0.4-0.6-0.5-1.4-0.1-0.7 0.1-1.4 0.2-0.8 0.6-1.3 0.5-0.6 1.2-1 0.6-0.3 1.4-0.4 0.7 0 1.4 0.2 6.9 1.8 13.8 3.6c0.9 0.2 1.6 0.7 2.1 1.4 0.5 0.7 0.7 1.6 0.6 2.5-0.1 0.8-0.5 1.6-1.2 2.2-0.6 0.6-1.5 0.9-2.4 0.9zm-31.1-8.4q-0.5 0-1-0.1-6.9-1.9-13.8-3.9-0.7-0.2-1.2-0.7-0.6-0.4-0.9-1-0.4-0.6-0.4-1.4-0.1-0.7 0.1-1.3 0.2-0.7 0.6-1.3 0.5-0.5 1.1-0.9 0.6-0.3 1.3-0.4 0.7-0.1 1.4 0.1 6.9 2 13.8 3.9c0.8 0.2 1.5 0.8 2 1.5 0.5 0.7 0.7 1.6 0.6 2.4-0.2 0.9-0.6 1.7-1.2 2.3-0.7 0.5-1.5 0.8-2.4 0.8zm711.1-1c-0.8 0-1.5-0.3-2.1-0.7-0.6-0.5-1.1-1.1-1.3-1.9-0.2-0.7-0.2-1.5 0.1-2.2 0.2-0.7 0.7-1.4 1.4-1.8 3.9-2.6 7.8-5.3 11.4-8.1q0.6-0.4 1.3-0.6 0.7-0.3 1.4-0.2 0.7 0.1 1.4 0.5 0.6 0.3 1.1 0.9 0.4 0.6 0.6 1.3 0.2 0.7 0 1.4-0.1 0.8-0.5 1.4-0.3 0.6-0.9 1c-3.8 2.9-7.8 5.7-12 8.4-0.5 0.4-1.2 0.6-1.8 0.6zm-742.1-7.9q-0.5 0-1-0.2-6.9-2.1-13.7-4.2c-0.9-0.3-1.6-0.9-2.1-1.7-0.4-0.9-0.5-1.8-0.2-2.7 0.3-0.9 0.9-1.6 1.7-2.1 0.8-0.4 1.8-0.5 2.7-0.3q6.8 2.1 13.6 4.2c0.9 0.2 1.6 0.7 2 1.5 0.5 0.7 0.7 1.6 0.6 2.4-0.2 0.9-0.6 1.6-1.2 2.2-0.7 0.6-1.5 0.9-2.4 0.9zm-30.7-9.6q-0.6 0-1.1-0.2-6.9-2.2-13.7-4.4c-0.9-0.3-1.6-0.9-2-1.8-0.5-0.8-0.5-1.8-0.3-2.7 0.3-0.9 1-1.7 1.8-2.1 0.9-0.4 1.9-0.5 2.8-0.2q6.7 2.2 13.6 4.4c0.8 0.3 1.5 0.8 1.9 1.6 0.5 0.7 0.7 1.6 0.5 2.4-0.1 0.8-0.5 1.6-1.2 2.2-0.7 0.5-1.5 0.8-2.3 0.8zm798.1-2.3c-0.7 0-1.4-0.2-2-0.6-0.6-0.4-1.1-1-1.3-1.7-0.3-0.6-0.4-1.4-0.2-2.1 0.1-0.7 0.5-1.3 1-1.8q5.1-4.8 9.6-10.1c0.7-0.6 1.5-0.9 2.4-0.9 0.9 0 1.7 0.3 2.4 0.9 0.6 0.5 1 1.3 1.2 2.2 0.1 0.9-0.1 1.7-0.6 2.5q-4.8 5.6-10.1 10.7c-0.7 0.5-1.5 0.9-2.3 0.9zm-828.8-7.9q-0.6 0-1.2-0.1-6.8-2.4-13.5-4.8-0.7-0.2-1.3-0.7-0.5-0.4-0.8-1.1-0.4-0.6-0.4-1.4 0-0.7 0.2-1.4 0.2-0.7 0.7-1.2 0.5-0.5 1.2-0.8 0.6-0.3 1.4-0.4 0.7 0 1.4 0.3 6.7 2.4 13.5 4.7c0.8 0.3 1.4 0.8 1.9 1.5 0.4 0.8 0.6 1.6 0.4 2.5-0.1 0.8-0.5 1.5-1.2 2.1-0.6 0.5-1.4 0.8-2.3 0.8zm-30.3-10.7q-0.7 0-1.3-0.2c-4.5-1.7-8.9-3.3-13.4-5q-0.7-0.3-1.2-0.7-0.5-0.5-0.8-1.2-0.3-0.6-0.3-1.3-0.1-0.8 0.2-1.4 0.2-0.7 0.7-1.2 0.5-0.5 1.2-0.8 0.6-0.3 1.3-0.3 0.7 0 1.4 0.2c4.4 1.7 8.9 3.3 13.4 5 0.8 0.3 1.4 0.8 1.9 1.6 0.4 0.7 0.5 1.5 0.4 2.4-0.2 0.8-0.6 1.6-1.2 2.1-0.7 0.5-1.5 0.8-2.3 0.8zm879.5-6.1c-0.6 0-1.2-0.2-1.8-0.5-0.5-0.3-1-0.8-1.3-1.4q-0.5-0.8-0.5-1.8c0.1-0.6 0.2-1.2 0.6-1.8q3.6-5.9 6.5-12.2 0.3-0.6 0.8-1.1 0.5-0.5 1.2-0.7 0.6-0.3 1.4-0.3 0.7 0.1 1.3 0.3 0.7 0.3 1.1 0.8 0.5 0.6 0.8 1.2 0.2 0.7 0.2 1.4 0 0.7-0.3 1.4-3 6.7-6.9 13-0.5 0.8-1.3 1.2-0.8 0.4-1.7 0.4zm-909.7-5.3q-0.7 0-1.3-0.3-6.7-2.6-13.4-5.3c-0.9-0.4-1.6-1.1-1.9-1.9-0.4-0.9-0.4-1.9-0.1-2.8 0.4-0.9 1.1-1.6 2-1.9 0.8-0.4 1.8-0.4 2.7-0.1q6.6 2.7 13.3 5.4c0.8 0.3 1.4 0.9 1.8 1.6 0.4 0.7 0.5 1.6 0.4 2.4-0.2 0.8-0.6 1.5-1.2 2.1-0.7 0.5-1.5 0.8-2.3 0.8zm-29.9-12.1q-0.7 0-1.4-0.3-6.7-2.7-13.2-5.6c-0.9-0.3-1.6-1-1.9-1.9-0.4-0.9-0.4-1.9 0-2.8 0.4-0.8 1.1-1.5 2-1.9 0.8-0.3 1.8-0.3 2.7 0.1q6.5 2.8 13.2 5.5c0.7 0.4 1.3 0.9 1.7 1.7 0.4 0.7 0.5 1.5 0.4 2.3-0.2 0.8-0.6 1.6-1.3 2.1-0.6 0.5-1.4 0.8-2.2 0.8zm952.1-12.1q-0.4 0-0.8-0.1-0.7-0.2-1.3-0.6-0.6-0.4-0.9-1-0.4-0.6-0.5-1.3-0.1-0.7 0-1.4l0.2-0.8q1.5-6.3 2.2-12.8c0-1 0.5-1.8 1.2-2.4 0.8-0.7 1.7-0.9 2.7-0.9 0.9 0.1 1.8 0.6 2.4 1.3 0.6 0.8 0.9 1.7 0.8 2.7q-0.7 6.9-2.3 13.7l-0.2 0.9c-0.2 0.8-0.6 1.4-1.2 1.9-0.7 0.5-1.4 0.8-2.2 0.8zm-981.7-0.6q-0.8 0-1.5-0.4-6.6-2.9-13.1-5.9c-0.8-0.4-1.5-1.1-1.8-2-0.4-0.9-0.3-1.9 0.1-2.7 0.4-0.9 1.1-1.5 2-1.9 0.9-0.3 1.8-0.3 2.7 0.1q6.5 3 13 5.9c0.8 0.3 1.4 0.9 1.8 1.7 0.3 0.7 0.4 1.5 0.3 2.3-0.2 0.8-0.6 1.5-1.3 2.1-0.6 0.5-1.4 0.8-2.2 0.8zm-29.3-13.5q-0.8-0.1-1.5-0.4-6.6-3.1-13-6.3c-0.8-0.4-1.4-1.1-1.7-2-0.3-0.9-0.2-1.9 0.2-2.7 0.4-0.8 1.1-1.5 2-1.8 0.9-0.3 1.8-0.3 2.7 0.1q6.3 3.2 12.8 6.3c0.8 0.3 1.4 0.9 1.7 1.6 0.4 0.7 0.5 1.6 0.3 2.4-0.2 0.8-0.6 1.5-1.3 2-0.6 0.5-1.4 0.8-2.2 0.8zm-28.9-14.3q-0.9 0-1.6-0.4-6.5-3.3-12.8-6.6c-0.8-0.5-1.3-1.3-1.6-2.2-0.2-0.8-0.1-1.8 0.3-2.6 0.4-0.8 1.1-1.4 2-1.7 0.9-0.3 1.8-0.2 2.7 0.2q6.2 3.2 12.6 6.5c0.7 0.4 1.3 1 1.6 1.7 0.4 0.7 0.5 1.6 0.3 2.3-0.2 0.8-0.7 1.5-1.3 2-0.6 0.5-1.4 0.8-2.2 0.8zm1042.4-3.6c-0.9 0-1.7-0.3-2.4-0.9-0.7-0.7-1.1-1.5-1.1-2.4q-0.6-6.9-2-13.7c-0.2-1 0-1.9 0.5-2.7 0.6-0.8 1.4-1.4 2.3-1.5 0.9-0.2 1.9-0.1 2.7 0.5 0.8 0.5 1.3 1.3 1.5 2.2q1.5 7.3 2.1 14.6 0 0.8-0.2 1.4-0.2 0.7-0.7 1.2-0.4 0.6-1.1 0.9-0.6 0.3-1.3 0.4zm-1070.9-11.5q-0.9 0-1.8-0.4-6.3-3.6-12.4-7.1c-0.9-0.4-1.5-1.2-1.7-2.1-0.3-1-0.1-1.9 0.3-2.8 0.5-0.8 1.3-1.4 2.2-1.6 0.9-0.3 1.9-0.2 2.7 0.3 4.1 2.4 8.3 4.7 12.5 7 0.7 0.4 1.3 1 1.6 1.7 0.3 0.7 0.3 1.6 0.1 2.3-0.2 0.8-0.6 1.5-1.3 2-0.6 0.4-1.4 0.7-2.2 0.7zm-28-16c-0.6 0-1.2-0.2-1.7-0.5q-6.2-3.7-12.4-7.4-0.6-0.4-1-1-0.5-0.6-0.6-1.3-0.2-0.7-0.1-1.4 0.1-0.7 0.5-1.3 0.4-0.6 0.9-1 0.6-0.4 1.3-0.6 0.7-0.2 1.4 0 0.7 0.1 1.3 0.5 6.1 3.7 12.3 7.4c0.6 0.4 1.2 1 1.4 1.7 0.3 0.7 0.4 1.5 0.2 2.3-0.2 0.7-0.7 1.4-1.3 1.9-0.6 0.4-1.3 0.7-2.1 0.7zm1092.1-3.9c-0.7 0-1.4-0.2-2-0.7-0.6-0.4-1.1-1-1.3-1.7-1.5-4.3-3.3-8.6-5.3-13-0.4-0.8-0.4-1.8-0.1-2.7 0.4-0.9 1.1-1.6 1.9-2 0.9-0.4 1.9-0.5 2.8-0.1 0.9 0.3 1.6 1 2 1.9 2.1 4.5 3.9 9.1 5.5 13.5q0.2 0.7 0.1 1.4 0 0.7-0.3 1.4-0.3 0.6-0.8 1.1-0.6 0.5-1.2 0.7-0.6 0.2-1.3 0.2zm-1119.5-13c-0.7 0-1.4-0.2-1.9-0.6-4.1-2.6-8.1-5.3-12.1-7.9-0.7-0.6-1.3-1.4-1.4-2.3-0.2-0.9 0-1.9 0.5-2.6 0.5-0.8 1.3-1.4 2.3-1.6 0.9-0.1 1.8 0 2.6 0.5 3.9 2.7 7.9 5.3 11.9 7.9 0.8 0.5 1.4 1.3 1.6 2.2 0.2 0.9 0 1.9-0.5 2.7q-0.5 0.8-1.3 1.3-0.8 0.4-1.8 0.4zm1106.1-16.1q-1 0-1.8-0.4c-0.5-0.4-1-0.8-1.3-1.3-2.3-4-4.8-8-7.4-12q-0.4-0.6-0.6-1.3-0.1-0.7 0-1.4 0.1-0.7 0.5-1.3 0.4-0.6 1-1 0.6-0.4 1.3-0.6 0.7-0.1 1.4 0 0.7 0.1 1.3 0.5 0.6 0.4 1 1c2.7 4.2 5.3 8.3 7.6 12.4 0.4 0.5 0.5 1.1 0.5 1.8 0 0.6-0.1 1.2-0.5 1.8-0.3 0.5-0.7 1-1.3 1.3-0.5 0.3-1.1 0.4-1.7 0.4zm-1132.8-1.7c-0.8 0-1.5-0.3-2.1-0.7-3.9-2.8-7.8-5.6-11.7-8.4q-0.6-0.4-1-1-0.3-0.6-0.5-1.4-0.1-0.7 0.1-1.4 0.2-0.7 0.6-1.3 0.4-0.5 1-0.9 0.7-0.4 1.4-0.5 0.7-0.1 1.4 0.1 0.7 0.2 1.3 0.6c3.8 2.8 7.6 5.6 11.5 8.4 0.6 0.4 1.1 1 1.3 1.8 0.3 0.7 0.3 1.4 0.1 2.2-0.3 0.7-0.7 1.3-1.3 1.8-0.6 0.4-1.4 0.7-2.1 0.7zm-25.9-19.2c-0.8 0-1.6-0.3-2.2-0.8-3.9-3-7.6-6-11.3-9-0.7-0.6-1.2-1.5-1.2-2.4-0.1-1 0.1-1.9 0.7-2.6 0.6-0.7 1.5-1.2 2.5-1.3 0.9-0.1 1.8 0.2 2.6 0.8 3.5 2.9 7.3 5.9 11.1 8.9q0.5 0.4 0.9 1.1 0.3 0.6 0.4 1.3 0.1 0.7-0.1 1.4-0.2 0.7-0.6 1.2-0.6 0.6-1.3 0.9-0.8 0.4-1.6 0.3zm1140.7-5.7q-0.9 0-1.6-0.4-0.8-0.4-1.3-1.1c-2.8-3.5-5.8-7.3-8.9-11-0.5-0.7-0.7-1.5-0.5-2.4 0.1-0.9 0.5-1.6 1.2-2.2 0.6-0.6 1.5-0.9 2.3-0.9 0.9 0 1.7 0.3 2.4 0.9 3.1 3.8 6.2 7.6 9.1 11.3 0.4 0.5 0.6 1.2 0.7 1.8 0.1 0.7-0.1 1.4-0.4 2-0.3 0.6-0.7 1.1-1.3 1.4-0.5 0.4-1.2 0.6-1.9 0.6zm-1165.5-15c-0.8 0-1.7-0.3-2.3-0.8-3.6-3.3-7.3-6.5-10.7-9.7q-0.6-0.5-0.9-1.2-0.2-0.6-0.3-1.3 0-0.7 0.3-1.4 0.2-0.7 0.7-1.2 0.5-0.5 1.1-0.8 0.7-0.3 1.4-0.3 0.7 0 1.4 0.2 0.6 0.3 1.1 0.7c3.4 3.2 7 6.4 10.6 9.6 0.7 0.6 1.1 1.5 1.2 2.4 0 1-0.3 1.9-0.9 2.6q-0.5 0.6-1.2 0.9-0.7 0.3-1.5 0.3zm1144.5-9.6q-0.7 0-1.4-0.3-0.7-0.3-1.2-0.8c-3.1-3.4-6.5-6.8-9.9-10.2q-0.5-0.5-0.8-1.1-0.3-0.7-0.4-1.4 0-0.8 0.3-1.4 0.3-0.7 0.8-1.3 0.5-0.5 1.2-0.7 0.6-0.3 1.4-0.3 0.7 0 1.4 0.3 0.7 0.3 1.1 0.8c3.5 3.5 6.9 7 10.1 10.4 0.5 0.5 0.8 1.1 0.9 1.8 0.2 0.7 0.1 1.4-0.2 2-0.3 0.7-0.7 1.2-1.3 1.6-0.6 0.4-1.3 0.6-2 0.6zm-1168-12.5q-0.7 0-1.4-0.3-0.6-0.3-1.1-0.8c-3.5-3.5-6.8-7-10-10.5-0.6-0.7-0.9-1.6-0.9-2.6 0.1-0.9 0.5-1.8 1.2-2.4 0.7-0.7 1.7-1 2.6-1 1 0.1 1.9 0.5 2.5 1.2 3.1 3.4 6.4 6.9 9.8 10.3 0.4 0.5 0.8 1.2 0.9 1.9 0.1 0.7 0.1 1.4-0.2 2-0.3 0.7-0.7 1.2-1.3 1.6-0.6 0.4-1.3 0.6-2 0.6zm1145-10c-0.9 0-1.7-0.4-2.4-1q-5.1-4.7-10.7-9.4c-0.6-0.6-0.9-1.5-1-2.4 0-0.8 0.3-1.7 0.9-2.4 0.6-0.6 1.4-1 2.3-1.2 0.9-0.1 1.7 0.2 2.5 0.7 3.7 3.2 7.3 6.4 10.7 9.5 0.5 0.5 0.9 1.1 1 1.8 0.2 0.8 0.2 1.5-0.1 2.2-0.3 0.6-0.7 1.2-1.3 1.6-0.6 0.4-1.3 0.6-2 0.6zm-1166.6-13.9q-0.8 0-1.5-0.3-0.8-0.4-1.3-1c-3.1-3.8-6.1-7.7-8.9-11.4q-0.4-0.6-0.6-1.3-0.2-0.7-0.1-1.4 0.1-0.7 0.4-1.4 0.4-0.6 1-1 0.6-0.4 1.3-0.6 0.7-0.2 1.4-0.1 0.7 0.2 1.3 0.5 0.6 0.4 1.1 1c2.7 3.7 5.6 7.5 8.6 11.2 0.5 0.5 0.7 1.1 0.8 1.8 0.1 0.7 0 1.4-0.3 2-0.3 0.6-0.7 1.1-1.3 1.5-0.6 0.3-1.3 0.5-1.9 0.5zm1142-7c-0.8 0-1.6-0.3-2.2-0.8-3.6-2.9-7.4-5.9-11.2-8.8-0.7-0.6-1.1-1.4-1.2-2.3-0.1-0.9 0.1-1.9 0.7-2.6 0.5-0.7 1.4-1.2 2.3-1.3 0.9-0.2 1.8 0 2.5 0.5 3.9 3 7.7 6 11.4 9 0.6 0.4 1 1.1 1.2 1.8 0.2 0.7 0.2 1.5-0.1 2.1-0.2 0.7-0.7 1.4-1.3 1.8-0.6 0.4-1.3 0.6-2.1 0.6zm-1160.8-19.1q-0.9 0-1.7-0.5-0.9-0.4-1.4-1.2c-2.6-4.2-5-8.4-7.3-12.5q-0.3-0.6-0.4-1.3-0.1-0.7 0.1-1.4 0.3-0.7 0.7-1.2 0.4-0.6 1.1-0.9 0.6-0.3 1.3-0.4 0.7-0.1 1.4 0.1 0.7 0.2 1.2 0.7 0.6 0.4 0.9 1c2.2 4.1 4.5 8.1 7.2 12.2 0.5 0.8 0.6 1.8 0.4 2.7-0.2 0.9-0.8 1.7-1.6 2.2-0.6 0.3-1.2 0.5-1.9 0.5zm-14.9-28.6c-0.7 0-1.4-0.2-2-0.6-0.6-0.4-1-0.9-1.3-1.6-1.9-4.6-3.6-9.2-4.9-13.8-0.3-0.9-0.2-1.9 0.2-2.7 0.5-0.8 1.2-1.4 2.1-1.7 1-0.3 1.9-0.2 2.8 0.2 0.8 0.5 1.4 1.3 1.7 2.2 1.3 4.3 2.9 8.7 4.7 13.1q0.3 0.6 0.3 1.4 0 0.7-0.3 1.3-0.3 0.7-0.8 1.2-0.5 0.5-1.2 0.7-0.6 0.4-1.3 0.4zm-8.8-30.7c-0.9 0-1.7-0.3-2.4-0.9-0.6-0.5-1.1-1.3-1.2-2.2q-1.1-7.3-1.3-14.7 0-0.7 0.2-1.4 0.3-0.7 0.8-1.2 0.5-0.5 1.2-0.8 0.7-0.3 1.4-0.3c0.9 0 1.8 0.4 2.5 1.1 0.7 0.6 1.1 1.6 1.1 2.5q0.1 6.9 1.2 13.8 0.1 0.7-0.1 1.4-0.1 0.7-0.6 1.3-0.4 0.5-1 0.9-0.6 0.4-1.3 0.5zm-0.2-32.2q-0.2 0-0.5 0c-1-0.1-1.8-0.6-2.4-1.4-0.5-0.8-0.8-1.7-0.6-2.7 0.4-2.6 0.9-5.3 1.5-7.9q0.8-3.3 1.8-6.5c0.3-0.9 0.9-1.7 1.8-2.1 0.8-0.5 1.8-0.5 2.7-0.3 0.9 0.3 1.7 0.9 2.1 1.8 0.5 0.8 0.6 1.8 0.3 2.7-0.6 2-1.2 4-1.7 6-0.5 2.5-1 5-1.4 7.4-0.2 0.9-0.6 1.6-1.2 2.2-0.7 0.5-1.5 0.8-2.4 0.8zm10-30.3q-0.9 0-1.7-0.4-0.6-0.4-1-0.9-0.5-0.5-0.7-1.2-0.2-0.7-0.2-1.4 0.1-0.7 0.4-1.4 3.4-6.5 7.6-12.6c0.6-0.8 1.4-1.3 2.3-1.5 1-0.1 1.9 0.1 2.7 0.6 0.8 0.5 1.3 1.4 1.5 2.3 0.1 0.9-0.1 1.9-0.6 2.7q-4 5.7-7.1 11.8c-0.3 0.6-0.8 1.1-1.4 1.4-0.5 0.4-1.2 0.6-1.8 0.6zm18.6-26.2c-0.7 0-1.4-0.2-2-0.6-0.5-0.3-1-0.9-1.3-1.5-0.3-0.7-0.3-1.4-0.2-2.1 0.1-0.7 0.4-1.3 0.9-1.8 3.2-3.5 6.8-6.9 10.5-10.2q0.6-0.5 1.2-0.8 0.7-0.2 1.4-0.2 0.8 0 1.4 0.3 0.7 0.4 1.2 0.9 0.5 0.6 0.7 1.2 0.2 0.7 0.2 1.5-0.1 0.7-0.4 1.3-0.4 0.7-1 1.1c-3.5 3.2-6.9 6.5-10 9.8q-0.5 0.5-1.2 0.8-0.7 0.3-1.4 0.2zm24.3-21c-0.7 0-1.5-0.3-2.1-0.7-0.6-0.5-1-1.1-1.3-1.8-0.2-0.7-0.2-1.5 0-2.2 0.3-0.7 0.7-1.4 1.3-1.8 3.9-2.8 8-5.4 12.2-8 0.8-0.4 1.7-0.5 2.5-0.2 0.8 0.2 1.6 0.8 2 1.5 0.5 0.7 0.7 1.6 0.5 2.5-0.1 0.9-0.6 1.6-1.3 2.2-4 2.5-8 5.1-11.7 7.7-0.6 0.5-1.3 0.7-2.1 0.7zm27.5-16.7c-0.8 0-1.5-0.2-2.2-0.7-0.6-0.5-1-1.2-1.2-2-0.2-0.8-0.1-1.6 0.2-2.3 0.3-0.8 0.9-1.4 1.6-1.7 4.2-2.2 8.6-4.3 13.1-6.3 0.8-0.4 1.8-0.4 2.6 0 0.9 0.3 1.6 1 2 1.8 0.3 0.8 0.4 1.8 0.1 2.7-0.3 0.8-1 1.6-1.8 2-4.4 2-8.6 4-12.7 6.1q-0.8 0.4-1.7 0.4zm29.5-13.2c-0.9 0-1.7-0.3-2.3-0.8-0.7-0.6-1.1-1.3-1.2-2.1-0.2-0.8-0.1-1.7 0.3-2.4 0.4-0.7 1.1-1.3 1.9-1.6 4.3-1.7 8.9-3.4 13.5-5q0.7-0.2 1.4-0.2 0.7 0.1 1.4 0.4 0.6 0.3 1.1 0.8 0.4 0.5 0.7 1.2 0.2 0.7 0.2 1.4-0.1 0.7-0.4 1.3-0.3 0.7-0.8 1.1-0.6 0.5-1.2 0.8c-4.6 1.5-9.1 3.2-13.4 4.8q-0.6 0.2-1.2 0.2zm30.4-10.4c-0.8 0-1.7-0.3-2.3-0.9-0.7-0.5-1.1-1.3-1.2-2.2-0.1-0.8 0-1.7 0.5-2.4 0.5-0.7 1.2-1.3 2-1.5 4.5-1.4 9.2-2.7 13.9-3.9q0.7-0.3 1.5-0.2 0.7 0 1.4 0.4 0.6 0.3 1.1 0.9 0.4 0.6 0.6 1.3 0.2 0.8 0.1 1.5-0.1 0.7-0.5 1.4-0.4 0.6-1 1-0.7 0.4-1.4 0.6c-4.7 1.2-9.3 2.5-13.7 3.8q-0.5 0.2-1 0.2zm31.2-8.2c-0.9 0-1.7-0.3-2.4-0.9-0.6-0.6-1-1.4-1.1-2.3-0.1-0.9 0.1-1.7 0.6-2.5 0.5-0.7 1.3-1.2 2.1-1.4 4.6-1 9.3-2 14.1-3 0.9-0.2 1.9 0 2.7 0.5 0.8 0.5 1.3 1.4 1.5 2.3 0.2 0.9 0 1.9-0.5 2.7-0.5 0.8-1.3 1.3-2.3 1.5-4.7 0.9-9.4 2-13.9 3q-0.4 0.1-0.8 0z"/>
			</g>
			<path class="s3" d="m529.3 1092c-19 0-41.4-6.7-66.6-19.9l1.6-3.2c40.6 21.4 73.7 25.3 95.8 11.4 34.9-22 41.1-85.4 17.2-178.6-23.9-93.9-75.4-206.4-144.9-316.9-143.1-227.6-318.7-375.5-391.4-329.8-23.3 14.7-34 48.9-30.8 98.9l-3.5 0.2c-3.3-51.3 7.9-86.7 32.4-102.1 36.4-22.9 97.7-0.8 172.7 62.1 74.6 62.5 154 157.9 223.6 268.7 69.7 110.8 121.3 223.7 145.4 317.9 24.2 94.8 17.5 159.7-18.8 182.5-9.8 6-21.2 9.1-32.7 8.8z"/>
			<path class="s4" d="m349.4 1142c-1 0-1.9-0.4-2.5-1.1-0.7-0.6-1.1-1.5-1.1-2.5 0-0.9 0.4-1.8 1.1-2.5 0.6-0.7 1.5-1.1 2.5-1.1 2.3 0 4.7-0.1 7.1-0.3 2.5-0.2 4.5-0.4 6.8-0.7q0.7-0.1 1.4 0.1 0.7 0.2 1.3 0.6 0.5 0.5 0.9 1.1 0.3 0.6 0.4 1.3 0.1 0.7-0.1 1.4-0.1 0.7-0.6 1.3-0.4 0.5-1 0.9-0.6 0.3-1.4 0.4c-2.4 0.3-4.8 0.6-7.1 0.8-2.3 0.2-5 0.3-7.5 0.3zm-17.8-0.9h-0.5q-7.3-0.9-14.4-2.6-0.7-0.1-1.3-0.5-0.7-0.4-1.1-1-0.4-0.6-0.5-1.4-0.1-0.7 0.1-1.4 0.1-0.7 0.6-1.3 0.4-0.6 1-1 0.7-0.4 1.4-0.4 0.7-0.1 1.4 0.1 6.8 1.5 13.7 2.4c0.9 0.1 1.8 0.5 2.5 1.2 0.6 0.7 0.9 1.7 0.8 2.6 0 1-0.4 1.8-1.1 2.5-0.8 0.6-1.7 0.9-2.6 0.9zm49.4-3.8c-0.8 0.1-1.7-0.3-2.3-0.8-0.7-0.6-1.1-1.4-1.2-2.2-0.1-0.9 0.1-1.8 0.5-2.5 0.5-0.7 1.2-1.2 2.1-1.5q6.7-1.8 13.1-4.4c0.9-0.3 1.8-0.3 2.7 0.1 0.8 0.3 1.5 1 1.8 1.9 0.4 0.9 0.4 1.8 0 2.7-0.3 0.8-1 1.5-1.8 1.9q-6.8 2.7-13.9 4.7-0.4 0.1-0.9 0.1zm-80.6-4q-0.6 0-1.2-0.2c-4.5-1.7-8.9-3.6-13.5-5.7-0.8-0.4-1.5-1.2-1.8-2-0.3-0.9-0.2-1.9 0.2-2.8q0.3-0.6 0.8-1.1 0.5-0.5 1.2-0.7 0.7-0.2 1.4-0.2 0.7 0 1.3 0.3c4.3 2.1 8.6 3.9 12.9 5.5 0.7 0.3 1.4 0.9 1.8 1.6 0.4 0.7 0.6 1.6 0.4 2.4-0.1 0.8-0.6 1.5-1.2 2.1-0.6 0.5-1.5 0.8-2.3 0.8zm110.2-8.3c-0.8 0.1-1.5-0.2-2.2-0.7-0.6-0.5-1.1-1.1-1.3-1.9-0.2-0.8-0.1-1.6 0.2-2.3 0.3-0.8 0.9-1.4 1.5-1.7 4-2.3 8-4.7 11.9-7.4 0.8-0.5 1.8-0.7 2.7-0.5 0.9 0.2 1.7 0.7 2.3 1.5 0.5 0.8 0.7 1.7 0.5 2.7-0.2 0.9-0.7 1.7-1.5 2.3-4 2.7-8.2 5.3-12.5 7.6q-0.7 0.4-1.6 0.5zm-139-5.8c-0.6 0-1.3-0.2-1.8-0.5-4-2.5-8.1-5.2-12.1-8-0.8-0.6-1.3-1.4-1.5-2.3-0.1-1 0.1-1.9 0.6-2.7 0.6-0.8 1.4-1.3 2.3-1.5 1-0.1 1.9 0.1 2.7 0.7 3.9 2.7 7.8 5.3 11.7 7.7 0.7 0.4 1.2 1 1.5 1.7 0.3 0.7 0.3 1.5 0.1 2.3-0.2 0.7-0.6 1.4-1.2 1.8-0.6 0.5-1.4 0.8-2.2 0.8zm165.4-12.4c-0.7 0-1.4-0.2-2-0.7-0.6-0.4-1.1-1-1.3-1.7-0.3-0.7-0.3-1.4-0.1-2.1 0.2-0.7 0.6-1.3 1.1-1.8 3.6-2.9 7-6.1 10.4-9.4q0.5-0.5 1.2-0.8 0.7-0.2 1.4-0.2 0.7 0 1.3 0.3 0.7 0.3 1.2 0.8 0.5 0.5 0.8 1.1 0.2 0.7 0.2 1.4 0 0.7-0.3 1.4-0.3 0.6-0.8 1.1c-3.6 3.4-7.1 6.7-10.7 9.7-0.6 0.6-1.5 1-2.4 1zm-191.4-6.3c-0.8 0-1.7-0.3-2.3-0.9-3.6-3-7.2-6.3-10.8-9.6q-0.6-0.5-0.9-1.1-0.3-0.7-0.3-1.4-0.1-0.8 0.2-1.4 0.2-0.7 0.7-1.3 0.5-0.5 1.2-0.8 0.7-0.3 1.4-0.3 0.7 0 1.4 0.3 0.7 0.3 1.2 0.8c3.4 3.2 7 6.4 10.5 9.3 0.6 0.5 1 1.1 1.2 1.8 0.2 0.8 0.1 1.5-0.1 2.2-0.3 0.7-0.7 1.3-1.3 1.7-0.6 0.4-1.4 0.7-2.1 0.7zm214.3-16.1c-0.7 0-1.4-0.2-2-0.6-0.6-0.4-1-0.9-1.3-1.5-0.3-0.6-0.4-1.3-0.3-2 0.1-0.7 0.4-1.4 0.9-1.9 3-3.4 6-7.1 8.9-10.8q0.4-0.6 1.1-1 0.6-0.3 1.3-0.5 0.7-0.1 1.5 0.1 0.7 0.2 1.2 0.7 0.6 0.4 1 1.1 0.3 0.6 0.4 1.4 0.1 0.7-0.2 1.4-0.2 0.7-0.7 1.2c-3 3.9-6.1 7.6-9.2 11.2q-0.5 0.5-1.2 0.8-0.7 0.4-1.4 0.4zm19.6-25.4c-0.6 0-1.3-0.2-1.8-0.5-0.6-0.4-1-0.8-1.3-1.4-0.4-0.6-0.5-1.2-0.5-1.9 0.1-0.6 0.3-1.3 0.7-1.8 2.6-3.8 5.2-7.8 7.7-11.8 0.5-0.8 1.3-1.4 2.2-1.6 0.9-0.2 1.9-0.1 2.7 0.4 0.8 0.5 1.4 1.3 1.6 2.3 0.2 0.9 0.1 1.9-0.4 2.7-2.6 4.1-5.3 8.1-7.9 12q-0.5 0.7-1.3 1.1-0.7 0.4-1.6 0.5zm16.9-27.4c-0.6 0-1.3-0.1-1.8-0.4q-0.6-0.4-1.1-0.9-0.4-0.6-0.6-1.3-0.2-0.6-0.1-1.3 0.1-0.7 0.4-1.4c2.3-4 4.5-8.2 6.6-12.5 0.5-0.8 1.2-1.4 2.1-1.7 0.9-0.2 1.9-0.2 2.7 0.3 0.8 0.4 1.4 1.1 1.7 2 0.4 0.8 0.3 1.8-0.1 2.6-2.2 4.4-4.5 8.6-6.8 12.8q-0.4 0.8-1.2 1.3-0.8 0.5-1.7 0.5zm14.5-28.7q-0.7 0-1.4-0.4c-0.9-0.4-1.5-1.1-1.9-2-0.3-0.8-0.3-1.8 0.1-2.7 1.9-4.2 3.8-8.6 5.7-13q0.2-0.7 0.7-1.2 0.5-0.5 1.2-0.8 0.7-0.3 1.4-0.3 0.7 0 1.4 0.3 0.6 0.3 1.1 0.8 0.5 0.5 0.8 1.2 0.3 0.7 0.3 1.4-0.1 0.7-0.4 1.4c-1.7 4.4-3.7 8.9-5.7 13.2-0.3 0.6-0.7 1.1-1.3 1.5-0.6 0.4-1.3 0.6-2 0.6zm12.3-29.7q-0.6 0-1.2-0.3-0.7-0.2-1.2-0.7-0.5-0.5-0.8-1.1-0.3-0.7-0.4-1.4 0-0.7 0.3-1.4c1.6-4.3 3.2-8.8 4.8-13.3q0.2-0.7 0.6-1.3 0.5-0.5 1.2-0.9 0.6-0.3 1.3-0.3 0.8-0.1 1.4 0.1 0.7 0.3 1.3 0.8 0.5 0.5 0.8 1.1 0.3 0.7 0.3 1.4 0.1 0.7-0.2 1.4c-1.6 4.6-3.2 9.1-4.8 13.5-0.3 0.7-0.8 1.3-1.3 1.7-0.6 0.5-1.4 0.7-2.1 0.7zm10.4-30.4q-0.6 0-1.1-0.1-0.7-0.2-1.2-0.7-0.6-0.4-0.9-1.1-0.3-0.6-0.4-1.3-0.1-0.7 0.1-1.4c1.4-4.4 2.8-9 4.1-13.6q0.1-0.7 0.6-1.3 0.4-0.6 1-0.9 0.7-0.4 1.4-0.5 0.7-0.1 1.4 0.1 0.7 0.2 1.2 0.7 0.6 0.4 1 1.1 0.3 0.6 0.4 1.3 0 0.7-0.2 1.4c-1.3 4.7-2.6 9.3-4 13.8-0.3 0.7-0.7 1.3-1.3 1.8-0.6 0.4-1.4 0.7-2.1 0.7zm8.6-31.1q-0.4 0-0.9-0.1c-0.9-0.2-1.7-0.8-2.2-1.6-0.5-0.8-0.6-1.8-0.4-2.7 1.2-4.5 2.3-9.2 3.3-13.8q0.2-0.7 0.6-1.3 0.4-0.6 1-0.9 0.6-0.4 1.3-0.5 0.7-0.2 1.4 0 0.7 0.2 1.3 0.6 0.6 0.4 0.9 1 0.4 0.6 0.5 1.3 0.2 0.7 0 1.4c-1.1 4.7-2.2 9.3-3.3 13.9-0.2 0.8-0.7 1.5-1.3 2-0.6 0.5-1.4 0.7-2.2 0.7zm7.1-31.3q-0.3 0-0.7 0c-0.9-0.2-1.7-0.8-2.2-1.5-0.6-0.8-0.8-1.8-0.6-2.7 0.9-4.6 1.8-9.3 2.7-14q0.1-0.7 0.5-1.3 0.4-0.6 1-1 0.5-0.4 1.2-0.5 0.7-0.2 1.4-0.1 0.7 0.2 1.3 0.5 0.6 0.4 1 1 0.4 0.6 0.6 1.3 0.1 0.7 0 1.4c-0.8 4.7-1.8 9.4-2.7 14.1-0.2 0.8-0.6 1.5-1.3 2-0.6 0.5-1.5 0.8-2.3 0.8zm5.6-31.7h-0.6c-0.9-0.1-1.7-0.6-2.3-1.4-0.5-0.8-0.8-1.7-0.6-2.7 0.7-4.6 1.4-9.3 2-14q0.1-0.7 0.5-1.4 0.3-0.6 0.9-1 0.6-0.4 1.3-0.6 0.7-0.2 1.4-0.1 0.7 0.1 1.3 0.4 0.6 0.4 1.1 1 0.4 0.5 0.6 1.2 0.2 0.7 0.1 1.4c-0.7 4.8-1.4 9.6-2.1 14.3-0.2 0.9-0.6 1.6-1.3 2.1-0.7 0.6-1.5 0.8-2.4 0.8zm4.3-31.9h-0.4c-1-0.1-1.8-0.5-2.4-1.3-0.6-0.7-0.9-1.7-0.8-2.6 0.6-4.7 1.1-9.4 1.5-14.1 0.1-1 0.6-1.9 1.3-2.5 0.7-0.6 1.7-0.9 2.6-0.8 1 0.1 1.8 0.6 2.4 1.3 0.6 0.7 0.9 1.7 0.9 2.6-0.5 4.8-1 9.6-1.5 14.3-0.1 0.9-0.6 1.7-1.3 2.3-0.6 0.5-1.5 0.9-2.4 0.8zm3-32h-0.3c-0.9-0.1-1.8-0.5-2.4-1.2-0.6-0.7-0.9-1.7-0.9-2.6 0.4-4.7 0.7-9.5 0.9-14.2 0.1-0.9 0.5-1.8 1.2-2.5 0.7-0.6 1.7-0.9 2.6-0.9q0.7 0.1 1.4 0.4 0.6 0.3 1.1 0.8 0.5 0.6 0.7 1.2 0.2 0.7 0.2 1.4c-0.3 4.8-0.6 9.6-0.9 14.3-0.1 0.9-0.5 1.8-1.2 2.4-0.7 0.6-1.6 0.9-2.5 0.9zm1.8-32.1h-0.1q-0.7-0.1-1.4-0.4-0.6-0.3-1.1-0.8-0.5-0.5-0.7-1.2-0.3-0.6-0.3-1.3c0.2-4.8 0.3-9.5 0.4-14.3 0-1 0.4-1.9 1.1-2.6 0.7-0.6 1.6-1 2.5-1 1 0 1.9 0.4 2.5 1 0.7 0.7 1.1 1.6 1.1 2.6q-0.2 7.2-0.4 14.3 0 0.7-0.2 1.4-0.3 0.7-0.8 1.3-0.6 0.5-1.3 0.8-0.6 0.3-1.4 0.2zm0.6-32.2c-0.9 0-1.8-0.4-2.5-1-0.7-0.7-1.1-1.5-1.1-2.5v-0.1c0-4.7 0-9.4-0.1-14.1 0-0.9 0.4-1.9 1.1-2.5 0.6-0.7 1.5-1.1 2.5-1.1 0.9 0 1.8 0.4 2.5 1.1 0.7 0.6 1 1.6 1 2.5 0 4.7 0.2 9.5 0.2 14.2q0 0.7-0.3 1.4-0.3 0.6-0.8 1.1-0.5 0.5-1.2 0.8-0.7 0.3-1.4 0.2zm-0.7-31.9c-0.9 0-1.8-0.4-2.5-1-0.6-0.7-1-1.5-1.1-2.5q-0.2-7-0.6-14.2 0-0.8 0.2-1.4 0.3-0.7 0.8-1.2 0.4-0.6 1.1-0.9 0.6-0.3 1.3-0.3 0.7 0 1.4 0.2 0.7 0.2 1.2 0.7 0.5 0.5 0.8 1.1 0.3 0.7 0.4 1.4c0.2 4.8 0.4 9.6 0.6 14.3q0 0.7-0.2 1.4-0.2 0.7-0.7 1.2-0.5 0.5-1.2 0.9-0.6 0.3-1.4 0.3zm-1.6-32.2c-0.9 0-1.8-0.3-2.5-0.9-0.6-0.6-1-1.5-1.1-2.4-0.2-2.3-0.3-4.7-0.5-7.1-0.2-2.5-0.4-4.8-0.6-7.2-0.1-0.9 0.2-1.9 0.8-2.6 0.6-0.7 1.5-1.2 2.5-1.3 0.9 0 1.9 0.3 2.6 0.9 0.7 0.6 1.2 1.5 1.2 2.4q0.3 3.6 0.6 7.2 0.3 3.5 0.5 7.1c0.1 0.9-0.2 1.9-0.8 2.6-0.7 0.7-1.5 1.1-2.5 1.2zm-2.7-32c-0.9 0-1.8-0.4-2.4-0.9-0.7-0.6-1.1-1.5-1.2-2.3q-0.7-7.1-1.6-14.2 0-0.7 0.2-1.4 0.1-0.7 0.6-1.2 0.4-0.6 1.1-0.9 0.6-0.4 1.3-0.5 0.7 0 1.4 0.1 0.7 0.2 1.2 0.7 0.6 0.4 1 1.1 0.3 0.6 0.4 1.3 0.8 7.1 1.6 14.3c0 0.9-0.2 1.9-0.8 2.6-0.6 0.7-1.5 1.2-2.4 1.3zm-3.9-31.9c-0.8 0-1.7-0.3-2.3-0.9-0.7-0.6-1.1-1.4-1.2-2.2q-1-7.2-2.1-14.1-0.1-0.7 0-1.4 0.2-0.7 0.6-1.3 0.4-0.6 1-1 0.7-0.4 1.4-0.5 0.7-0.1 1.4 0.1 0.7 0.1 1.3 0.6 0.6 0.4 0.9 1.1 0.4 0.6 0.5 1.3 1.1 7.1 2 14.2c0.2 1-0.1 1.9-0.7 2.7-0.5 0.7-1.4 1.2-2.3 1.3zm-5-31.7c-0.8 0-1.7-0.3-2.3-0.8-0.7-0.6-1.1-1.3-1.2-2.2q-1.3-7-2.6-14-0.1-0.7 0-1.4 0.2-0.7 0.6-1.3c0.5-0.7 1.3-1.3 2.2-1.5 1-0.1 1.9 0.1 2.7 0.6 0.8 0.5 1.3 1.4 1.5 2.3q1.4 7 2.6 14.1 0.1 0.7 0 1.4-0.2 0.7-0.6 1.3-0.4 0.5-1 0.9-0.6 0.4-1.3 0.5zm-6.1-31.5c-0.8 0-1.6-0.3-2.3-0.8-0.6-0.5-1-1.3-1.2-2.1q-1.5-6.9-3.1-13.8c-0.2-1 0-1.9 0.5-2.7 0.5-0.8 1.3-1.4 2.2-1.6 0.9-0.2 1.9-0.1 2.7 0.4 0.8 0.5 1.4 1.3 1.6 2.3q1.6 6.9 3.1 14 0.1 0.7 0 1.4-0.1 0.7-0.5 1.3-0.4 0.6-1 1-0.6 0.4-1.3 0.5-0.3 0.1-0.7 0.1zm-7.3-31.3c-0.8 0-1.5-0.3-2.2-0.8-0.6-0.5-1.1-1.2-1.2-1.9-1.2-4.6-2.4-9.2-3.6-13.8-0.3-0.9-0.1-1.9 0.3-2.7 0.5-0.8 1.3-1.4 2.2-1.7 0.9-0.2 1.9-0.1 2.7 0.4 0.8 0.4 1.4 1.2 1.7 2.1 1.2 4.6 2.5 9.3 3.5 13.9q0.2 0.7 0.1 1.4-0.1 0.7-0.4 1.3-0.4 0.6-1 1.1-0.6 0.4-1.2 0.6-0.5 0.1-0.9 0.1zm-8.5-31c-0.7 0-1.5-0.3-2.1-0.7-0.6-0.5-1.1-1.2-1.3-1.9-1.3-4.5-2.7-9.1-4.2-13.6q-0.2-0.7-0.2-1.4 0.1-0.8 0.4-1.4 0.3-0.7 0.9-1.2 0.5-0.4 1.2-0.7 0.7-0.2 1.5-0.1 0.7 0.1 1.3 0.4 0.7 0.4 1.1 1 0.5 0.6 0.7 1.3c1.4 4.5 2.8 9.1 4.1 13.7q0.3 0.7 0.2 1.4-0.1 0.7-0.4 1.3-0.4 0.6-0.9 1.1-0.6 0.4-1.3 0.6-0.5 0.2-1 0.2zm-9.7-30.7c-0.8 0-1.5-0.2-2.1-0.6-0.6-0.5-1.1-1.1-1.3-1.8q-2.3-6.7-4.8-13.4c-0.3-0.9-0.3-1.8 0.1-2.7 0.4-0.9 1.2-1.5 2.1-1.9 0.8-0.3 1.8-0.2 2.7 0.2 0.8 0.4 1.5 1.1 1.8 2 1.7 4.4 3.3 9 4.8 13.5 0.3 0.9 0.3 1.9-0.1 2.7-0.5 0.9-1.2 1.5-2.1 1.8q-0.5 0.2-1.1 0.2zm-11.2-30.1c-0.7 0-1.4-0.2-2-0.6-0.6-0.4-1-1-1.3-1.7-1.8-4.4-3.6-8.8-5.3-13.1q-0.4-0.7-0.4-1.4 0-0.8 0.2-1.5 0.3-0.6 0.8-1.2 0.5-0.5 1.2-0.8 0.6-0.3 1.4-0.3 0.7 0 1.4 0.3 0.7 0.3 1.2 0.9 0.5 0.5 0.7 1.2c1.8 4.4 3.7 8.8 5.4 13.3 0.3 0.9 0.3 1.9-0.1 2.7-0.3 0.9-1 1.6-1.9 1.9q-0.6 0.3-1.3 0.3zm-12.5-29.6c-0.7 0-1.3-0.2-1.9-0.6-0.6-0.3-1-0.9-1.3-1.5-2-4.3-4-8.7-6.1-12.9q-0.3-0.6-0.4-1.3 0-0.7 0.2-1.4 0.2-0.7 0.7-1.3 0.5-0.5 1.1-0.8 0.7-0.3 1.4-0.4 0.7 0 1.4 0.2 0.7 0.3 1.2 0.8 0.6 0.5 0.9 1.1c2 4.3 4.1 8.7 6.1 13q0.3 0.7 0.3 1.4 0 0.7-0.2 1.4-0.3 0.6-0.8 1.2-0.5 0.5-1.1 0.8-0.7 0.3-1.5 0.3zm-14.1-28.9c-0.7 0-1.3-0.2-1.9-0.5-0.5-0.3-1-0.8-1.3-1.4-2.2-4.2-4.5-8.4-6.8-12.5-0.4-0.8-0.6-1.8-0.3-2.7 0.2-0.9 0.8-1.7 1.7-2.2 0.8-0.5 1.8-0.6 2.7-0.3 0.9 0.2 1.7 0.8 2.2 1.6 2.3 4.2 4.6 8.4 6.8 12.7 0.5 0.8 0.5 1.8 0.3 2.7-0.3 0.9-0.9 1.7-1.8 2.1q-0.8 0.5-1.7 0.5zm-15.8-27.9c-0.6-0.1-1.2-0.2-1.8-0.5q-0.8-0.5-1.3-1.3c-2.4-4.1-5-8.1-7.5-12q-0.4-0.6-0.6-1.3-0.1-0.7 0-1.4 0.2-0.7 0.6-1.3 0.4-0.6 1-1 0.6-0.3 1.3-0.5 0.7-0.1 1.4 0 0.7 0.2 1.3 0.6 0.5 0.4 0.9 1c2.6 3.9 5.2 8 7.7 12.2 0.5 0.8 0.7 1.7 0.4 2.6-0.2 1-0.8 1.8-1.6 2.2-0.5 0.4-1.2 0.6-1.9 0.7zm-17.7-26.8q-0.9 0-1.6-0.4-0.8-0.4-1.3-1.1c-2.8-3.9-5.6-7.7-8.4-11.4q-0.5-0.5-0.7-1.2-0.2-0.7-0.1-1.4 0.1-0.8 0.4-1.4 0.4-0.6 0.9-1.1 0.6-0.4 1.3-0.6 0.7-0.2 1.4-0.1 0.7 0.1 1.4 0.5 0.6 0.4 1 1c2.9 3.7 5.8 7.6 8.6 11.5 0.6 0.8 0.8 1.7 0.6 2.7-0.1 0.9-0.6 1.7-1.4 2.3-0.6 0.4-1.4 0.7-2.1 0.6zm-19.9-25.3q-0.7 0-1.4-0.3-0.7-0.3-1.3-0.9c-3.1-3.6-6.2-7.1-9.4-10.5q-0.5-0.5-0.8-1.2-0.3-0.7-0.3-1.4 0-0.7 0.3-1.4 0.3-0.6 0.9-1.1 0.5-0.5 1.2-0.8 0.7-0.2 1.4-0.2 0.7 0 1.4 0.3 0.6 0.4 1.1 0.9c3.2 3.4 6.5 7 9.7 10.7 0.6 0.7 0.9 1.7 0.8 2.6-0.1 1-0.5 1.8-1.2 2.5-0.7 0.5-1.5 0.8-2.4 0.8zm-256.3-4.9c-0.6 0-1.3-0.2-1.8-0.6-0.6-0.3-1.1-0.8-1.4-1.4-0.2-0.6-0.4-1.3-0.3-2 0.1-0.6 0.3-1.3 0.7-1.8 3-3.9 6.2-7.6 9.3-11.2 0.6-0.6 1.5-1 2.4-1.1 0.9 0 1.8 0.3 2.5 0.9 0.7 0.6 1.1 1.5 1.2 2.4 0.1 0.9-0.2 1.8-0.8 2.6-3 3.4-6 7.1-8.9 10.8q-0.5 0.7-1.3 1-0.8 0.4-1.6 0.3zm234-18.3c-0.9 0-1.8-0.3-2.4-1-3.5-3.2-7-6.3-10.6-9.3-0.7-0.6-1.2-1.5-1.3-2.4 0-0.9 0.3-1.9 0.9-2.6 0.6-0.7 1.4-1.2 2.4-1.3 0.9-0.1 1.9 0.2 2.6 0.8 3.6 3.1 7.3 6.3 10.9 9.6 0.6 0.7 1 1.6 1.1 2.5 0 1-0.3 1.9-1 2.6q-0.5 0.5-1.2 0.8-0.7 0.3-1.4 0.3zm-212.7-5.7c-0.7 0-1.4-0.2-2-0.6-0.6-0.4-1-1-1.3-1.6-0.2-0.7-0.3-1.4-0.2-2.1 0.2-0.7 0.5-1.4 1-1.8 3.6-3.5 7.2-6.7 10.8-9.8 0.7-0.6 1.6-0.9 2.6-0.8 0.9 0.1 1.8 0.5 2.4 1.2 0.6 0.8 0.9 1.7 0.8 2.6-0.1 1-0.5 1.9-1.2 2.5-3.6 2.9-7 6.1-10.4 9.4-0.7 0.6-1.6 1-2.5 1zm187.9-14.7c-0.8 0-1.5-0.2-2.1-0.7-3.8-2.7-7.8-5.3-11.7-7.6q-0.6-0.4-1-1-0.4-0.6-0.6-1.2-0.2-0.7-0.1-1.4 0.1-0.7 0.5-1.3 0.4-0.7 0.9-1.1 0.6-0.4 1.3-0.6 0.7-0.1 1.4 0 0.7 0.1 1.3 0.5c4.1 2.4 8.1 5.1 12.2 7.9 0.6 0.5 1 1.1 1.3 1.8 0.2 0.7 0.2 1.5 0 2.2-0.2 0.7-0.7 1.4-1.3 1.8-0.6 0.5-1.4 0.7-2.1 0.7zm-163.1-5.7c-0.7 0-1.5-0.2-2.1-0.7-0.6-0.4-1.1-1.1-1.3-1.8-0.2-0.7-0.2-1.5 0.1-2.2 0.2-0.8 0.7-1.4 1.3-1.8q6.1-4.2 12.5-7.7 0.6-0.4 1.4-0.5 0.7-0.1 1.4 0.1 0.7 0.2 1.2 0.6 0.6 0.5 1 1.1 0.3 0.7 0.4 1.4 0.1 0.7-0.1 1.4-0.2 0.7-0.7 1.2-0.5 0.6-1.1 0.9c-4 2.3-8 4.7-11.9 7.4-0.6 0.4-1.3 0.7-2.1 0.7zm135.5-10.6q-0.8 0-1.6-0.4c-4.2-2-8.5-3.8-12.8-5.3-0.9-0.4-1.6-1-2-1.9-0.4-0.9-0.4-1.8-0.1-2.7 0.3-0.9 1-1.6 1.8-2 0.9-0.4 1.9-0.5 2.8-0.2 4.4 1.7 8.9 3.6 13.4 5.7 0.7 0.3 1.3 0.9 1.7 1.7 0.3 0.7 0.4 1.5 0.3 2.3-0.2 0.8-0.7 1.5-1.3 2-0.6 0.5-1.4 0.8-2.2 0.8zm-107.2-4.6c-0.8 0-1.6-0.3-2.3-0.8-0.6-0.6-1-1.3-1.2-2.1-0.2-0.8 0-1.7 0.4-2.4 0.4-0.7 1-1.3 1.8-1.6q6.8-2.8 13.8-4.8c1-0.2 1.9-0.1 2.8 0.4 0.8 0.4 1.4 1.2 1.7 2.1 0.2 0.9 0.1 1.9-0.4 2.7-0.4 0.8-1.2 1.5-2.1 1.7q-6.7 1.9-13.1 4.5-0.7 0.3-1.4 0.3zm77-6q-0.4 0-0.8-0.1-6.8-1.5-13.7-2.4c-0.9-0.1-1.8-0.6-2.4-1.3-0.6-0.8-0.8-1.7-0.7-2.7 0.1-0.9 0.6-1.8 1.3-2.4 0.8-0.6 1.7-0.8 2.7-0.7q7.3 0.9 14.4 2.5 0.7 0.1 1.3 0.4 0.7 0.4 1.1 0.9 0.4 0.6 0.6 1.3 0.2 0.7 0.2 1.4-0.1 0.7-0.5 1.3-0.3 0.6-0.9 1.1-0.5 0.4-1.2 0.6-0.7 0.2-1.4 0.2zm-46.1-2.3c-0.9 0.1-1.9-0.3-2.6-0.9-0.7-0.6-1.1-1.5-1.2-2.4-0.1-1 0.3-1.9 0.9-2.6 0.6-0.7 1.5-1.2 2.4-1.2q3.8-0.6 7.5-0.8c2.5-0.2 4.8-0.3 7.2-0.4q0.7 0 1.4 0.3 0.6 0.2 1.1 0.7 0.5 0.5 0.8 1.2 0.3 0.6 0.3 1.3 0 0.7-0.2 1.4-0.3 0.6-0.8 1.2-0.5 0.5-1.1 0.8-0.7 0.2-1.4 0.3c-2.2 0-4.5 0.1-6.7 0.3-2.3 0.1-4.8 0.4-7.2 0.7q-0.2 0.1-0.5 0.2z"/>
			<path class="s5" d="m24 1022.8c-83 0-139.1-22.7-159.3-65-23.7-49.3 3.7-119.2 77.1-196.7 72.5-76.6 181.7-151.9 307.2-212.1 125.6-60.2 252.7-98 357.9-106.6 106.3-8.7 177.9 13.8 201.6 63.1 22.7 47.5-2 114.4-69.4 188.5l-5.4-4.8c65.4-71.8 89.6-135.9 68.3-180.5-22.3-46.5-91.4-67.5-194.7-59.1-104.3 8.4-230.5 46.1-355.3 105.9-124.8 59.8-233.1 134.6-305.1 210.7-71.1 75-98 142.1-75.8 188.5 21 43.8 84.4 65.2 178.5 60.2l0.4 7.2q-13.4 0.7-26 0.7z"/>
			<path class="s6" d="m527.7 1262.8c-46.4 0-103.4-27.1-165.4-79.5l4.6-5.5c81.8 69.2 154 93.4 203.1 68.1 52.3-26.9 74-106 61.3-223-13-118.1-59.6-260.2-131.4-399.9-71.8-139.7-160-260.3-248.6-339.7-87.6-78.5-164.6-107-216.9-80.1-50.1 25.7-72.3 100.5-62.5 210.4l-7.1 0.7c-10.1-113.1 13.4-190.3 66.3-217.5 55-28.3 134.9 0.6 225 81.2 89.1 79.9 178 201.3 250.2 341.8 72.1 140.4 119 283.3 132.1 402.3 13.1 120.1-10 201.8-65 230.2-14.2 7.1-29.9 10.7-45.7 10.5z"/>
			<path class="s7" d="m665.4 243.3c-2.7-1.7-5.9-2.6-9.1-2.6-3.2 0.1-6.4 1.1-9 2.9-2.7 1.9-4.7 4.5-5.9 7.5-1.2 3-1.4 6.2-0.7 9.4 0.6 3.1 2.2 6 4.6 8.3 2.3 2.2 5.2 3.7 8.4 4.3 3.2 0.5 6.4 0.2 9.4-1.1 2.9-1.3 5.5-3.5 7.2-6.2 2.3-3.6 3.1-8 2.2-12.3-0.9-4.2-3.5-7.9-7.1-10.2z"/>
			<path class="s8" d="m527.6 492.1c-19.4 0-35-15.6-35-35 0-19.3 15.6-34.9 35-34.9 19.3 0 35 15.6 35 34.9 0 19.4-15.7 35-35 35z"/>
			<path class="s9" d="m422.2 503.7c-12.5 0-22.5-10-22.5-22.5 0-12.5 10-22.6 22.5-22.6 12.5 0 22.6 10.1 22.6 22.6 0 12.5-10.1 22.5-22.6 22.5z"/>
			<path class="s10" d="m525.9 1053.8l-5.1-5c36.3-36.8 35.4-106.2-2.4-195.5-38.3-90.2-109.6-189.6-200.9-279.7-91.4-90.1-191.7-160.1-282.4-197.1-89.8-36.6-159.2-36.5-195.5 0.2l-5.1-5c38.5-38.9 110.6-39.6 203.3-1.8 91.6 37.4 192.7 107.9 284.7 198.7 92 90.7 163.9 190.9 202.5 282 39 92.1 39.3 164.3 0.9 203.2z"/>
			<path class="s11" d="m352.5 619.5c-8.8 0-15.9-7.1-15.9-15.9 0-8.8 7.1-16 15.9-16 8.8 0 16 7.2 16 16 0 8.8-7.2 15.9-16 15.9z"/>
			<path class="s12" d="m397.8 495.7c-0.9 0-1.7-0.3-2.3-0.9-0.7-0.5-1.1-1.3-1.2-2.1-0.2-0.8 0-1.7 0.5-2.4 0.4-0.8 1.1-1.3 1.9-1.6l8.2-2.7q0.7-0.2 1.4-0.2 0.7 0.1 1.3 0.4 0.6 0.3 1.1 0.9 0.5 0.5 0.7 1.2 0.2 0.7 0.2 1.4-0.1 0.7-0.4 1.3-0.3 0.7-0.9 1.1-0.5 0.5-1.2 0.7l-8.2 2.7q-0.5 0.2-1.1 0.2z"/>
			<path class="s13" d="m489.6 469c-0.9 0-1.8-0.3-2.4-0.9-0.7-0.5-1.1-1.3-1.2-2.2-0.1-0.9 0.1-1.8 0.6-2.5 0.5-0.7 1.3-1.2 2.1-1.4l8.2-1.9q0.7-0.2 1.4-0.1 0.8 0.1 1.4 0.4 0.6 0.4 1.1 1 0.4 0.6 0.5 1.3 0.2 0.7 0.1 1.4-0.1 0.7-0.5 1.3-0.4 0.6-1 1.1-0.6 0.4-1.3 0.5l-8.2 2q-0.4 0.1-0.8 0z"/>
		</g>
	</g>
</svg>