<svg width="160" height="161" viewBox="0 0 160 161" fill="none" xmlns="http://www.w3.org/2000/svg">
<path fill-rule="evenodd" clip-rule="evenodd" d="M85.5821 14.9979C82.6061 11.6667 77.3938 11.6667 74.4178 14.9979C72.0486 17.6498 68.1406 18.2688 65.0678 16.4788C61.2081 14.2303 56.2509 15.841 54.4499 19.9287C53.0161 23.183 49.4907 24.9793 46.0151 24.2264C41.6495 23.2808 37.4327 26.3445 36.983 30.7887C36.6251 34.3267 33.8272 37.1246 30.2892 37.4825C25.845 37.9322 22.7812 42.149 23.7269 46.5147C24.4798 49.9902 22.6835 53.5157 19.4292 54.9494C15.3415 56.7504 13.7308 61.7076 15.9792 65.5673C17.7693 68.6401 17.1503 72.5481 14.4983 74.9173C11.1672 77.8933 11.1672 83.1057 14.4983 86.0816C17.1503 88.4509 17.7693 92.3589 15.9792 95.4317C13.7308 99.2914 15.3415 104.249 19.4292 106.05C22.6835 107.483 24.4798 111.009 23.7269 114.484C22.7812 118.85 25.845 123.067 30.2892 123.516C33.8272 123.874 36.6251 126.672 36.983 130.21C37.4327 134.655 41.6495 137.718 46.0151 136.773C49.4907 136.02 53.0161 137.816 54.4499 141.07C56.2509 145.158 61.2081 146.769 65.0678 144.52C68.1406 142.73 72.0486 143.349 74.4178 146.001C77.3938 149.332 82.6061 149.332 85.5821 146.001C87.9514 143.349 91.8594 142.73 94.9322 144.52C98.7919 146.769 103.749 145.158 105.55 141.07C106.984 137.816 110.509 136.02 113.985 136.773C118.35 137.718 122.567 134.655 123.017 130.21C123.375 126.672 126.173 123.874 129.711 123.516C134.155 123.067 137.219 118.85 136.273 114.484C135.52 111.009 137.316 107.483 140.571 106.05C144.658 104.249 146.269 99.2914 144.021 95.4317C142.231 92.3589 142.85 88.4509 145.502 86.0816C148.833 83.1057 148.833 77.8933 145.502 74.9173C142.85 72.5481 142.231 68.6401 144.021 65.5673C146.269 61.7076 144.658 56.7504 140.571 54.9494C137.316 53.5157 135.52 49.9902 136.273 46.5147C137.219 42.149 134.155 37.9322 129.711 37.4825C126.173 37.1246 123.375 34.3267 123.017 30.7887C122.567 26.3445 118.35 23.2808 113.985 24.2264C110.509 24.9793 106.984 23.183 105.55 19.9287C103.749 15.841 98.7919 14.2303 94.9322 16.4788C91.8594 18.2688 87.9514 17.6498 85.5821 14.9979ZM41.3714 86.2884L62.329 103.131C63.2058 103.891 64.3767 104.375 65.6397 104.499C66.8949 104.401 68.0648 103.931 68.9318 103.176L118.342 63.265C118.452 63.19 118.558 63.1101 118.658 63.0253C118.737 62.962 118.814 62.8944 118.888 62.8242L118.939 62.7834C119.676 62.0483 120.052 61.1121 119.994 60.159C119.937 59.206 119.45 58.3048 118.628 57.6336C117.818 56.9585 116.732 56.5566 115.583 56.5051C114.433 56.4537 113.3 56.7569 112.406 57.3558L112.39 57.3442L65.6826 95.1484L48.0198 80.9536C47.1331 80.2289 45.9358 79.8223 44.6876 79.8223C43.4569 79.8127 42.2718 80.2065 41.3929 80.9171C40.5139 81.6277 40.013 82.597 40 83.6122C39.9995 84.1113 40.1207 84.6051 40.3563 85.0649C40.5919 85.5247 40.937 85.9408 41.3714 86.2884Z" fill="#4CAF50"/>
</svg>
