<svg width="217" height="220" viewBox="0 0 217 220" fill="none" xmlns="http://www.w3.org/2000/svg">
<path d="M129.402 210.805C128.753 212.941 126.978 214.658 124.635 215.124L106.231 218.782C102.843 219.456 99.5499 217.255 98.8764 213.867L96.4372 201.597C95.7637 198.209 97.9643 194.917 101.353 194.243L119.757 190.584C123.145 189.911 126.438 192.111 127.111 195.5L127.682 198.371C158.08 191.63 176.965 186.867 199.763 171.953L206.611 182.422C181.542 198.822 160.426 203.949 129.402 210.805Z" fill="#4CAF50"/>
<path d="M38.9861 111.379H0V195.586C0 198.159 2.08557 200.244 4.65827 200.244H21.213C50.6604 200.244 74.5323 176.373 74.5323 146.925C74.5323 127.293 58.6178 111.379 38.9861 111.379Z" fill="#FFC107"/>
<path d="M186.731 111.379C162.192 111.379 142.299 131.272 142.299 155.812C142.299 180.351 162.192 200.244 186.731 200.244H210.576C214.031 200.244 216.831 197.444 216.831 193.989V111.379H186.731Z" fill="#FFC107"/>
<path d="M27.1158 33.7218C45.4764 12.73 72.7996 0 108.39 0C143.98 0 171.304 12.73 189.664 33.7218C207.937 54.6133 216.831 80.3193 216.831 111.379H206.098C205.562 83.4459 197.337 58.6448 181.661 40.7223C165.537 22.2885 141.261 10.6333 108.39 10.6333C75.5189 10.6333 51.2428 22.2885 35.1195 40.7223C19.4434 58.6448 11.1681 83.4459 10.6327 111.379H0C0 80.3193 8.84283 54.6133 27.1158 33.7218Z" fill="#4CAF50"/>
</svg>
