<svg width="160" height="161" viewBox="0 0 160 161" fill="none" xmlns="http://www.w3.org/2000/svg">
<g clip-path="url(#clip0_4426_133304)">
<path d="M128.218 142.988H31.7885C29.8632 142.993 27.9468 142.737 26.0893 142.23C24.3246 141.746 22.6384 141.012 21.0815 140.05C19.5599 139.137 18.1616 138.031 16.9214 136.761C15.6952 135.505 14.6344 134.099 13.7651 132.574C12.8795 131.049 12.1913 129.419 11.7143 127.722C11.2348 126.014 10.9777 124.254 10.9526 122.48C10.9192 120.654 11.1326 118.835 11.5854 117.066C12.0665 115.204 12.7997 113.416 13.7651 111.753L61.9839 28.394C62.9458 26.728 64.1295 25.2016 65.5034 23.855C66.8047 22.575 68.2764 21.4799 69.8784 20.605C71.4209 19.7324 73.0727 19.0721 74.7924 18.644C76.4914 18.2082 78.2416 17.9876 79.9956 17.9878C81.7496 17.9876 83.4958 18.2082 85.1948 18.644C86.9156 19.0729 88.5685 19.7331 90.1128 20.605C91.7131 21.4821 93.1874 22.5745 94.4878 23.855C95.8637 25.2008 97.0487 26.7273 98.0112 28.394L146.222 111.753C147.188 113.416 147.921 115.204 148.402 117.066C148.855 118.835 149.068 120.662 149.035 122.488C149.01 124.261 148.752 126.022 148.273 127.73C147.789 129.425 147.101 131.054 146.222 132.582C145.353 134.106 144.292 135.513 143.066 136.769C141.826 138.039 140.427 139.145 138.906 140.058C137.349 141.02 135.663 141.753 133.898 142.238C132.047 142.742 130.137 142.992 128.218 142.988ZM81.3471 108.464C80.0712 108.463 78.8457 108.971 77.9409 109.871C77.036 110.77 76.5254 111.985 76.519 113.261C76.5201 114.541 77.0279 115.77 77.9331 116.675C78.8383 117.58 80.067 118.088 81.3471 118.089C82.6273 118.088 83.8521 117.58 84.7573 116.675C85.6625 115.77 86.1742 114.541 86.1753 113.261C86.1689 111.985 85.6543 110.77 84.7495 109.871C83.8446 108.971 82.6231 108.463 81.3471 108.464ZM81.3471 53.3159C80.067 53.317 78.8383 53.8248 77.9331 54.73C77.0279 55.6352 76.5201 56.8639 76.519 58.144V98.4253C76.5201 99.7054 77.0279 100.934 77.9331 101.839C78.8383 102.745 80.067 103.252 81.3471 103.253C82.6273 103.252 83.8521 102.745 84.7573 101.839C85.6625 100.934 86.1742 99.7054 86.1753 98.4253V58.144C86.1742 56.8639 85.6625 55.6352 84.7573 54.73C83.8521 53.8248 82.6273 53.317 81.3471 53.3159Z" fill="#FF2211"/>
</g>
<defs>
<clipPath id="clip0_4426_133304">
<rect width="160" height="160" fill="white" transform="translate(0 0.499512)"/>
</clipPath>
</defs>
</svg>
