<svg width="29" height="30" viewBox="0 0 29 30" fill="none" xmlns="http://www.w3.org/2000/svg">
<g id="Group 10191">
<path id="Rectangle 3312" d="M0.599976 6.14209L15.9392 0.599609L28.6 6.99961L13.4 13.3996L0.599976 6.14209Z" fill="#DA8B18"/>
<path id="Rectangle 3313" d="M1.67853 11.6562L13.4 18.9998V29.453L1.67853 22.2146V11.6562Z" fill="#E7A919"/>
<path id="Rectangle 3321" d="M27.8776 12.2754L13.3999 19.0004V29.4004L27.8776 22.8854V12.2754Z" fill="#D19916"/>
<path id="Rectangle 3314" d="M28.5999 6.99805L13.3999 13.398V18.998L28.6736 11.9023L28.5999 6.99805Z" fill="#DFA41D"/>
<path id="Rectangle 3315" d="M0.599976 6.14258L13.4 13.4004V19.0004L0.599976 10.9737V6.14258Z" fill="#F4B320"/>
<path id="Union" d="M9.33579 5.8784L4.19995 8.20084C4.34542 14.4961 4.19995 23.8452 4.19995 23.8452L8.19995 26.2452V10.5594L13.91 8.34743L18.544 10.8488V27.0879L23 25.0839V9.18074L18.9773 6.33437L23.6103 4.49335L18.8349 1.96094L14.0371 3.97508L9.33579 5.8784Z" fill="#C23432"/>
<g id="Union_2">
<path d="M11.4364 2.30549C10.5564 1.46305 9.52749 0.478131 7.4014 0.816316C5.95556 3.52693 5.86789 5.10799 6.31608 7.97942L12.249 6.79277L12.9002 3.31974C12.4195 3.15154 11.8741 2.72445 11.4364 2.30549Z" fill="#FB4E4D"/>
<path d="M17.198 2.41745C18.306 1.38572 19.5814 0.198097 21.2212 1.3216C22.1617 2.11872 21.6753 6.12286 20.6524 8.84308C18.8462 7.609 17.4423 7.03882 15.2156 6.677L15.2879 3.54839C15.8238 3.47737 16.5946 2.97928 17.198 2.41745Z" fill="#FB4E4D"/>
</g>
<path id="Rectangle 3320" d="M12.6668 3.45667C12.719 3.3486 12.8344 3.2859 12.9537 3.29847L15.2724 3.54254C15.4081 3.55682 15.5157 3.66393 15.5283 3.79976C15.6281 4.87647 15.5701 5.53983 15.3395 6.53462C15.3099 6.66225 15.1969 6.75275 15.0659 6.75566L12.3253 6.81655C12.164 6.82014 12.0306 6.69073 12.0306 6.52933C12.0305 5.35797 12.1108 4.60727 12.6668 3.45667Z" fill="#EC4143"/>
<g id="Union_3">
<path d="M17.3662 8.73193C16.2524 8.30953 15.2493 6.68164 15.2493 6.68164C15.2493 6.68164 16.3286 6.72651 17.8713 7.14466C19.4141 7.5628 20.7154 8.57747 20.6422 8.84745C20.5691 9.11744 18.5268 9.17214 17.3662 8.73193Z" fill="#370404"/>
<path d="M8.9683 8.58375C9.95134 8.4737 12.0697 6.8275 12.0697 6.8275C12.0697 6.8275 10.2338 7.00977 8.9083 7.00977C7.58279 7.00977 6.38824 7.70328 6.38824 7.96784C6.38824 8.23241 7.94382 8.69843 8.9683 8.58375Z" fill="#370404"/>
</g>
</g>
</svg>
