<svg width="169" height="86" viewBox="0 0 169 86" fill="none" xmlns="http://www.w3.org/2000/svg">
<path d="M24.8208 85.7679C24.9762 85.9226 25.4423 86 26.2192 86C34.2986 86 40.0474 85.0715 43.4656 83.2146C44.6309 82.054 47.1169 76.2897 50.9235 65.9217C54.7301 55.4764 58.4203 43.6383 61.9938 30.4076C65.6451 17.0994 67.4707 7.11831 67.4707 0.464238C67.4707 0.30949 66.8881 0.154744 65.7228 0C58.5756 0 51.4285 0.967161 44.2813 2.90148C43.9706 3.1336 43.621 4.02339 43.2325 5.57085C42.8441 7.04093 42.6499 8.12415 42.6499 8.82051C42.6499 9.51687 42.6887 9.94242 42.7664 10.0972C44.1648 10.2519 45.7185 10.8709 47.4276 11.9541C49.2144 13.0373 50.1078 14.0432 50.1078 14.9717C50.1078 22.7863 48.1268 32.7674 44.1648 44.915C40.2805 56.9852 37.2895 64.9933 35.192 68.9393C35.1143 69.2488 34.9589 69.5196 34.7259 69.7517C34.0267 70.448 33.3275 70.0999 32.6283 68.7072C29.5209 62.4399 25.7919 51.1822 21.4415 34.9339C17.1687 18.6856 14.877 8.66576 14.5662 4.87449C14.5662 4.64237 13.2067 4.52631 10.4877 4.52631C7.84634 4.52631 4.89425 5.26136 1.63142 6.73144C0.543806 7.19568 0 7.50517 0 7.65992C0 15.4746 3.49589 29.8659 10.4877 50.834C17.4795 71.8021 22.2572 83.4467 24.8208 85.7679Z" fill="white" fill-opacity="0.2"/>
<path d="M99.124 75.9028C99.124 72.0342 98.9687 70.0999 98.6579 70.0999C96.4827 70.0999 94.8901 70.1385 93.8802 70.2159C93.2587 66.1152 92.948 59.6158 92.948 50.718C92.948 41.7427 93.1033 31.1426 93.4141 18.9177C93.4918 15.8228 93.6083 14.2366 93.7637 14.1592C93.919 14.0045 95.3174 13.9271 97.9587 13.9271C98.1918 13.9271 98.3083 13.7724 98.3083 13.4629L98.6579 4.87449C98.6579 3.63652 98.5414 3.01754 98.3083 3.01754C94.424 3.01754 89.6074 3.21097 83.8586 3.59784C78.1098 3.9847 75.0024 4.41026 74.5363 4.87449C74.0701 5.33873 73.8371 7.35042 73.8371 10.9096C73.8371 14.3914 73.9148 16.1323 74.0701 16.1323C75.4685 15.668 77.2164 15.4359 79.314 15.4359H79.547C79.1586 17.7571 78.9644 27.0031 78.9644 43.1741C78.9644 59.2677 79.0421 68.6298 79.1974 71.2605C77.0999 71.2605 75.585 71.4926 74.6528 71.9568C74.109 72.6532 73.8371 74.7036 73.8371 78.108C73.8371 81.5124 73.9536 83.2146 74.1867 83.2146C79.0809 82.1313 87.1603 81.5897 98.4249 81.5897C98.891 81.5897 99.124 79.6941 99.124 75.9028Z" fill="white" fill-opacity="0.2"/>
<path fill-rule="evenodd" clip-rule="evenodd" d="M123.553 83.0985C126.117 82.6343 127.826 81.9766 128.681 81.1255C128.215 78.8043 127.826 69.7517 127.515 53.9676L131.827 53.5034C138.508 52.6523 146.044 50.099 154.434 45.8435C158.473 43.8318 161.892 40.8916 164.688 37.0229C167.563 33.1543 169 28.8988 169 24.2564C169 19.614 167.796 15.8228 165.388 12.8826C163.057 9.86504 159.872 7.65991 155.832 6.2672C151.87 4.79712 147.986 3.79127 144.179 3.24966C140.373 2.70805 136.022 2.43724 131.128 2.43724C126.311 2.43724 121.495 2.59199 116.678 2.90148C111.939 3.1336 109.453 3.36572 109.22 3.59784C109.065 3.75258 108.987 4.17814 108.987 4.87449C108.987 5.49348 109.453 7.23437 110.386 10.0972C111.395 12.96 112.444 15.0103 113.532 16.2483L112.833 83.2146C113.92 83.6788 115.357 83.9109 117.144 83.9109C118.931 83.9109 121.067 83.6401 123.553 83.0985ZM153.618 24.4885C153.618 34.0054 144.917 39.5376 127.515 41.085C127.515 26.6937 127.71 18.1053 128.098 15.3198L136.488 14.6235C141.46 14.6235 145.539 15.5133 148.724 17.2928C151.987 18.9951 153.618 21.3936 153.618 24.4885Z" fill="white" fill-opacity="0.2"/>
</svg>
