<svg width="24" height="24" viewBox="0 0 24 24" fill="none" xmlns="http://www.w3.org/2000/svg">
<g clip-path="url(#clip0_1016_21265)">
<path fill-rule="evenodd" clip-rule="evenodd" d="M14.2201 1.41205L12.9646 0.760281C12.843 0.688361 12.6924 0.666982 12.5475 0.713942L9.06476 1.84256C9.02666 1.81992 8.98395 1.7948 8.93715 1.76768C8.73237 1.64899 8.44698 1.49052 8.12563 1.33232C7.80558 1.17476 7.44184 1.01348 7.08156 0.892465C6.72939 0.774174 6.34208 0.680923 5.98709 0.68994C5.79089 0.694923 5.6234 0.81007 5.54228 0.974694C5.05914 1.88417 4.81796 2.68099 4.73272 3.47462L1.01954 4.87972C0.860007 4.94009 0.74391 5.0748 0.704607 5.23557C0.693981 5.27877 0.689225 5.32267 0.690037 5.36619V8.96879C0.689799 8.9811 0.690006 8.9934 0.690653 9.00565C0.699571 9.18832 0.804591 9.34574 0.956225 9.42843L1.49894 9.77143V17.4018C1.49842 17.4325 1.50069 17.4631 1.50564 17.4932C1.50952 17.517 1.51505 17.5402 1.5221 17.5628C1.5574 17.676 1.63213 17.7775 1.74097 17.8447L10.5321 23.2735C10.7398 23.4018 11.0037 23.363 11.1667 23.1942L21.8462 18.3885C22.0192 18.3198 22.1458 18.1593 22.1656 17.967C22.1678 17.9456 22.1687 17.9239 22.1683 17.9021V10.281L22.4499 10.1495C22.6215 10.0786 22.7455 9.91692 22.7631 9.72514C22.7652 9.7029 22.7659 9.68044 22.765 9.65792L22.7101 6.00322C22.7112 5.81588 22.6087 5.63496 22.4301 5.54471L17.5615 3.08366C17.5553 2.92109 17.5426 2.76424 17.5227 2.61484C17.4633 2.16946 17.3312 1.71985 17.0466 1.4012C17.0107 1.361 16.9699 1.32783 16.9259 1.30179C16.5656 1.06085 16.2014 0.928131 15.8349 0.897676C15.4597 0.866502 15.1147 0.945165 14.806 1.07823C14.6005 1.16676 14.4048 1.28277 14.2201 1.41205ZM10.1923 2.54937L12.6579 1.75036L13.3743 2.12225C13.3597 2.1359 13.3451 2.14943 13.3308 2.16283L13.3269 2.16646C12.8901 2.48644 12.6187 2.66071 12.1263 2.89096L10.5469 2.73972C10.4935 2.71562 10.4108 2.67343 10.3006 2.61144C10.2655 2.59172 10.2293 2.57094 10.1923 2.54937ZM8.72096 2.82727L8.70829 2.81934C8.69517 2.81116 8.67527 2.79884 8.64926 2.78297C8.59722 2.75121 8.52089 2.70535 8.42567 2.65017C8.23477 2.53952 7.97032 2.39276 7.67512 2.24744C7.37861 2.10147 7.05908 1.96092 6.75678 1.85938C6.58631 1.80212 6.43269 1.76121 6.29921 1.73672C5.91833 2.52534 5.76096 3.19349 5.72442 3.86201C5.72433 3.86385 5.72423 3.8657 5.72412 3.86754C5.72277 3.89264 5.7216 3.91775 5.72058 3.94286C5.69239 4.64213 5.78989 5.35748 5.92875 6.25599C6.68014 6.29947 7.26424 6.26373 7.81825 6.13911C8.38409 6.01183 8.9425 5.78653 9.63528 5.42451C9.57973 5.06036 9.55608 4.73825 9.58381 4.41047C9.60953 4.10643 9.67791 3.81431 9.78657 3.49259C9.63044 3.40434 9.46177 3.30203 9.30754 3.20579C9.14806 3.10626 9.00059 3.01107 8.89319 2.94091C8.8394 2.90576 8.79545 2.87676 8.76482 2.85645L8.72923 2.8328L8.72096 2.82727ZM10.7645 3.78523C10.6667 4.06829 10.618 4.2859 10.6002 4.49645C10.5822 4.7087 10.594 4.93201 10.6375 5.22912C11.041 5.26261 11.3617 5.27225 11.772 5.26195C11.8349 5.01333 11.8674 4.80809 11.8741 4.60469C11.8811 4.39381 11.8608 4.16879 11.8031 3.88468L10.7645 3.78523ZM10.3059 6.22334C9.48426 6.66587 8.78462 6.96722 8.0421 7.13424C7.29157 7.30307 6.52603 7.32829 5.58048 7.25455L10.8333 10.2329L20.9865 5.95788L17.5184 4.20478C17.4076 5.28781 17.1117 6.50801 16.7224 7.54721C16.6426 7.78265 16.4003 7.93044 16.1484 7.88472C14.5277 7.59056 13.5755 7.26401 12.0218 6.27451C11.3735 6.29891 10.9449 6.28491 10.3059 6.22334ZM12.756 5.5314C13.9423 6.26824 14.724 6.55996 15.9053 6.79974C16.2028 5.91302 16.4235 4.92535 16.5083 4.05518C16.5573 3.55252 16.5591 3.10607 16.5116 2.74952C16.4689 2.42858 16.3927 2.23109 16.3195 2.12399C16.0994 1.98416 15.9114 1.92755 15.7504 1.91417C15.5744 1.89955 15.3976 1.93394 15.2097 2.01495C14.8094 2.18742 14.428 2.53482 13.9962 2.93694C13.9747 2.95696 13.9519 2.97477 13.9282 2.99038C13.5234 3.28684 13.2274 3.48253 12.8054 3.69518C12.873 4.03179 12.9036 4.3345 12.8936 4.6384C12.8836 4.93956 12.8342 5.22636 12.756 5.5314ZM4.70549 4.57551L2.3965 5.44926L5.0183 6.9358C5.00189 6.89742 4.99 6.85655 4.98333 6.81382L4.96249 6.68048C4.84499 5.92926 4.73757 5.24248 4.70549 4.57551ZM2.31068 9.07926L10.29 14.0783L10.29 11.0974L1.71004 6.23259V8.69821L2.28138 9.05931C2.29145 9.06567 2.30122 9.07233 2.31068 9.07926ZM21.7404 9.35506L21.7014 6.76359L11.31 11.1389L11.31 14.2005L21.4254 9.50251C21.431 9.49963 21.4367 9.49683 21.4425 9.49413L21.7404 9.35506ZM21.1483 17.584V10.7559L11.31 15.3252V22.0112L21.1483 17.584ZM10.29 15.282L2.51894 10.4134V17.1263L10.29 21.9252V15.282Z" fill="#A6A6A6"/>
</g>
<defs>
<clipPath id="clip0_1016_21265">
<rect width="24" height="24" fill="white"/>
</clipPath>
</defs>
</svg>
