<svg width="24" height="24" viewBox="0 0 24 24" fill="none" xmlns="http://www.w3.org/2000/svg">
<g clip-path="url(#clip0_1014_21105)">
<path d="M6.96089 18.5587H5.24091C5.04246 18.5573 4.85253 18.4779 4.71221 18.3375C4.57188 18.1972 4.49241 18.0073 4.491 17.8088C4.49241 17.6104 4.57188 17.4205 4.71221 17.2801C4.85253 17.1398 5.04246 17.0603 5.24091 17.0589H6.96089C7.15978 17.0589 7.35052 17.1379 7.49116 17.2786C7.63179 17.4192 7.7108 17.6099 7.7108 17.8088C7.7108 18.0077 7.63179 18.1985 7.49116 18.3391C7.35052 18.4797 7.15978 18.5587 6.96089 18.5587Z" fill="#A6A6A6"/>
<path d="M9.11047 18.5587H12.5498C12.7487 18.5587 12.9395 18.4797 13.0801 18.3391C13.2207 18.1985 13.2997 18.0077 13.2997 17.8088C13.2997 17.6099 13.2207 17.4192 13.0801 17.2786C12.9395 17.1379 12.7487 17.0589 12.5498 17.0589H9.11047C8.91202 17.0603 8.7221 17.1398 8.58177 17.2801C8.44144 17.4205 8.36197 17.6104 8.36056 17.8088C8.36197 18.0073 8.44144 18.1972 8.58177 18.3375C8.7221 18.4779 8.91202 18.5573 9.11047 18.5587Z" fill="#A6A6A6"/>
<path fill-rule="evenodd" clip-rule="evenodd" d="M19.7233 18.1109C22.2308 17.7431 22.7491 16.1985 22.7491 13.7197V6.73062C22.7491 3.34104 21.6494 2.25098 18.2197 2.25098H8.78046C5.63547 2.25098 4.46185 3.1548 4.27674 5.88873C1.76965 6.25661 1.25146 7.80125 1.25146 10.2804V17.2695C1.25146 20.6591 2.35113 21.7491 5.7809 21.7491H15.2201C18.3622 21.7491 19.5366 20.847 19.7233 18.1109ZM19.7495 16.5994C20.9092 16.3894 21.2493 15.7894 21.2493 13.7197V6.73062C21.2493 4.17074 20.8293 3.75079 18.2197 3.75079H8.78046C6.50074 3.75079 5.91102 4.06095 5.78083 5.80073H15.2201C15.8631 5.80074 16.4243 5.83906 16.9117 5.92367C19.0236 6.29033 19.7495 7.52632 19.7495 10.2804V16.5994ZM15.6841 7.30589C15.5377 7.30219 15.3832 7.30055 15.2201 7.30055H5.7809C5.51093 7.30055 5.26076 7.31075 5.03099 7.32035C3.24142 7.43013 2.75128 7.81049 2.75128 10.2798V11.8594H18.2497V10.2804C18.2497 8.3914 18.021 7.66766 16.8526 7.41805C16.5365 7.35053 16.1517 7.3177 15.6841 7.30589ZM18.2497 13.3592H2.75128V17.2689C2.75128 19.8288 3.17122 20.2487 5.7809 20.2487H15.2201C17.798 20.2487 18.2191 19.8491 18.2497 17.424V13.3592Z" fill="#A6A6A6"/>
</g>
<defs>
<clipPath id="clip0_1014_21105">
<rect width="24" height="24" fill="white"/>
</clipPath>
</defs>
</svg>
