<svg width="22" height="22" viewBox="0 0 22 22" fill="none" xmlns="http://www.w3.org/2000/svg">
<path d="M16.2655 16.5839H14.4943C14.3049 16.5792 14.1243 16.5034 13.9884 16.3715C13.8545 16.237 13.7785 16.0554 13.7766 15.8657C13.7779 15.6759 13.854 15.4943 13.9884 15.3604C14.0542 15.2929 14.1329 15.2394 14.2198 15.203C14.3067 15.1665 14.4 15.1477 14.4943 15.148H16.2655C16.3597 15.1478 16.4531 15.1665 16.5399 15.203C16.6268 15.2394 16.7055 15.293 16.7713 15.3604C16.9057 15.4943 16.9818 15.6759 16.9831 15.8657C16.9809 16.0554 16.905 16.2368 16.7713 16.3715C16.6354 16.5033 16.4548 16.5792 16.2655 16.5839Z" fill="#A6A6A6"/>
<path d="M5.73544 16.5839H11.9276L11.9252 16.5857C12.1162 16.5857 12.2993 16.5099 12.4343 16.3749C12.5694 16.2398 12.6452 16.0566 12.6452 15.8657C12.6445 15.6743 12.5689 15.4908 12.4346 15.3544C12.2991 15.222 12.1171 15.1479 11.9276 15.148H5.73544C5.6412 15.1477 5.54787 15.1665 5.46098 15.203C5.37408 15.2394 5.29541 15.2929 5.22964 15.3604C5.09523 15.4943 5.01911 15.6759 5.01783 15.8657C5.01972 16.0554 5.09573 16.237 5.22964 16.3715C5.36553 16.5034 5.54613 16.5792 5.73544 16.5839Z" fill="#A6A6A6"/>
<path d="M16.2661 12.982H10.9739C10.7839 12.98 10.6022 12.9037 10.4675 12.7696C10.4006 12.7036 10.3475 12.6248 10.3112 12.538C10.2749 12.4513 10.2562 12.3582 10.2562 12.2641C10.2562 12.1701 10.2749 12.077 10.3112 11.9902C10.3475 11.9034 10.4006 11.8247 10.4675 11.7586C10.5334 11.6911 10.6122 11.6376 10.6992 11.6011C10.7862 11.5646 10.8796 11.5459 10.9739 11.5462H16.2685C16.3627 11.5459 16.456 11.5646 16.5429 11.6011C16.6298 11.6376 16.7084 11.6911 16.7743 11.7586C16.8414 11.8245 16.8948 11.9032 16.9312 11.99C16.9676 12.0768 16.9863 12.17 16.9863 12.2641C16.9863 12.3582 16.9676 12.4514 16.9312 12.5382C16.8948 12.625 16.8414 12.7037 16.7743 12.7696C16.6392 12.9042 16.4567 12.9805 16.2661 12.982Z" fill="#A6A6A6"/>
<path d="M5.73451 12.982H8.38658C8.57645 12.98 8.75798 12.9038 8.89239 12.7696C8.95953 12.7037 9.01285 12.625 9.04926 12.5382C9.08566 12.4514 9.10443 12.3582 9.10443 12.2641C9.10443 12.17 9.08566 12.0768 9.04926 11.99C9.01285 11.9032 8.95953 11.8245 8.89239 11.7586C8.82661 11.6911 8.74794 11.6376 8.66104 11.6011C8.57415 11.5646 8.48082 11.5459 8.38658 11.5462H5.73451C5.64026 11.5459 5.54694 11.5646 5.46004 11.6011C5.37315 11.6376 5.29448 11.6911 5.2287 11.7586C5.16156 11.8245 5.10822 11.9032 5.07181 11.99C5.03541 12.0768 5.01666 12.17 5.01666 12.2641C5.01666 12.3582 5.03541 12.4514 5.07181 12.5382C5.10822 12.625 5.16156 12.7037 5.2287 12.7696C5.36315 12.9037 5.54465 12.9799 5.73451 12.982Z" fill="#A6A6A6"/>
<path fill-rule="evenodd" clip-rule="evenodd" d="M13.8725 21.2939H8.12852C2.92999 21.2939 0.70874 19.0739 0.70874 13.873V8.12904C0.70874 2.93051 2.92879 0.70752 8.12852 0.70752H13.8725C19.071 0.70752 21.2922 2.92751 21.2922 8.12904V13.873C21.2917 19.0715 19.0704 21.2939 13.8725 21.2939ZM8.12852 2.14325C3.71541 2.14325 2.14517 3.71715 2.14517 8.12846V13.8724C2.14517 18.2837 3.71541 19.8576 8.12852 19.8576H13.8725C18.2856 19.8576 19.8558 18.2837 19.8558 13.8724V8.12846C19.8558 3.71715 18.2856 2.14325 13.8725 2.14325H8.12852Z" fill="#A6A6A6"/>
</svg>
