<svg width="24" height="24" viewBox="0 0 24 24" fill="none" xmlns="http://www.w3.org/2000/svg">
<path fill-rule="evenodd" clip-rule="evenodd" d="M11.2493 13.146C10.9742 13.0681 10.7114 12.9474 10.4711 12.7868C10.0188 12.4847 9.66618 12.0552 9.45796 11.5527C9.24974 11.0501 9.19523 10.4971 9.30132 9.96363C9.40742 9.43011 9.66935 8.94005 10.054 8.55541C10.4386 8.17077 10.9287 7.90884 11.4622 7.80275C11.9957 7.69665 12.5487 7.75116 13.0512 7.95938C13.5538 8.1676 13.9833 8.52018 14.2854 8.97252C14.5875 9.42485 14.7487 9.95663 14.7486 10.5006C14.7488 10.8617 14.6778 11.2193 14.5397 11.5529C14.4015 11.8866 14.199 12.1898 13.9437 12.4451C13.6883 12.7004 13.3852 12.903 13.0515 13.0411C12.9527 13.082 12.8518 13.117 12.7493 13.146V15.5002C12.7479 15.6987 12.6684 15.8887 12.528 16.029C12.3877 16.1694 12.1977 16.2488 11.9993 16.2502C11.8008 16.2488 11.6108 16.1694 11.4705 16.029C11.3302 15.8887 11.2507 15.6987 11.2493 15.5002V13.146ZM11.9992 9.25035C11.752 9.25035 11.5105 9.32362 11.305 9.46091C11.0995 9.59819 10.9393 9.79333 10.8447 10.0216C10.7501 10.2499 10.7253 10.5012 10.7735 10.7436C10.8217 10.986 10.9406 11.2086 11.1153 11.3834C11.29 11.5582 11.5126 11.6773 11.755 11.7255C11.9974 11.7738 12.2486 11.7492 12.477 11.6547C12.7053 11.5602 12.9005 11.4001 13.0379 11.1947C13.1753 10.9893 13.2487 10.7477 13.2488 10.5006C13.2488 10.1691 13.1172 9.8512 12.8828 9.61675C12.6485 9.3823 12.3306 9.25051 11.9992 9.25035Z" fill="#A6A6A6"/>
<path fill-rule="evenodd" clip-rule="evenodd" d="M12.0094 22.7529C10.9274 22.7654 9.86949 22.4327 8.98936 21.8032L4.6897 18.5936C4.08926 18.0981 3.59867 17.4828 3.24923 16.7872C2.89979 16.0915 2.69917 15.3306 2.66016 14.5531V7.11402C2.69108 6.31268 2.95031 5.53685 3.40734 4.87789C3.86436 4.21893 4.50014 3.70426 5.23983 3.39448L10.2294 1.52452C11.3803 1.15459 12.6181 1.15459 13.769 1.52452L18.7585 3.39448C19.4982 3.70426 20.134 4.21893 20.591 4.87789C21.0481 5.53685 21.3073 6.31268 21.3382 7.11402V14.5435C21.3004 15.3214 21.1003 16.0827 20.7508 16.7786C20.4012 17.4746 19.91 18.0897 19.3087 18.5846L15.009 21.7942C14.1408 22.4331 13.0872 22.7699 12.0094 22.7529ZM10.7591 2.93434L5.77017 4.80371C5.318 5.00939 4.93026 5.33414 4.64843 5.7432C4.3666 6.15226 4.20129 6.63024 4.17017 7.12602V14.5531C4.208 15.0967 4.35294 15.6275 4.59664 16.1149C4.84034 16.6023 5.178 17.0367 5.59019 17.3931L9.88985 20.6027C10.5187 21.0233 11.2583 21.2477 12.0148 21.2477C12.7713 21.2477 13.5108 21.0233 14.1397 20.6027L18.4394 17.3931C18.8524 17.0374 19.1906 16.6032 19.4344 16.1156C19.6782 15.6281 19.8226 15.0969 19.8594 14.5531V7.11402C19.825 6.61929 19.6582 6.1429 19.3765 5.73476C19.0948 5.32661 18.7086 5.00172 18.2582 4.79411L13.2692 2.92654C12.4497 2.68417 11.5772 2.68688 10.7591 2.93434Z" fill="#A6A6A6"/>
</svg>
