<svg width="24" height="24" viewBox="0 0 24 24" fill="none" xmlns="http://www.w3.org/2000/svg">
<g clip-path="url(#clip0_1473_137497)">
<path d="M7.70006 11.2357V15.3155L6.68995 14.3051C6.54869 14.1656 6.35767 14.0873 6.15912 14.0873C5.96057 14.0873 5.77014 14.1656 5.62887 14.3051C5.48921 14.4463 5.41092 14.6369 5.41092 14.8355C5.41092 15.0341 5.48921 15.2247 5.62887 15.3659L7.89634 17.6338C8.01891 17.7558 8.17999 17.8313 8.35218 17.8474C8.38439 17.8517 8.41693 17.8539 8.44944 17.854C8.55821 17.8535 8.66555 17.8293 8.76407 17.7832C8.86259 17.7371 8.95003 17.6701 9.02011 17.5869L11.2401 15.3671C11.3795 15.2257 11.4575 15.0352 11.4575 14.8367C11.4575 14.6382 11.3795 14.4476 11.2401 14.3063C11.0989 14.1668 10.9078 14.0885 10.7093 14.0885C10.5107 14.0885 10.3203 14.1668 10.179 14.3063L9.19764 15.2873V11.2375C9.19623 11.039 9.11651 10.849 8.97617 10.7087C8.83583 10.5683 8.64614 10.4889 8.44768 10.4875C8.24994 10.4895 8.06072 10.5691 7.92095 10.709C7.78117 10.8489 7.70193 11.038 7.70006 11.2357Z" fill="#A6A6A6"/>
<path fill-rule="evenodd" clip-rule="evenodd" d="M2.05249 10.7948V7.67511C2.05597 6.99989 2.26329 6.34146 2.6473 5.78605C3.0313 5.23065 3.5741 4.80417 4.20458 4.56246L11.5386 1.7918C11.9082 1.64999 12.307 1.6011 12.6999 1.64943C13.0928 1.69776 13.4679 1.84183 13.7921 2.06899C14.1177 2.29413 14.3836 2.59504 14.567 2.9458C14.7505 3.29657 14.8459 3.68666 14.8451 4.08249V6.89866H16.8132C17.2038 6.89878 17.5887 6.95373 17.9577 7.05927C18.1196 7.10496 18.2787 7.16049 18.4339 7.2256C18.6817 7.33062 18.9186 7.45928 19.1417 7.60966C19.3628 7.75936 19.5693 7.92966 19.7581 8.11838C19.9468 8.3072 20.117 8.51357 20.2667 8.73461C20.4175 8.95757 20.5461 9.19463 20.651 9.44253C20.757 9.69407 20.8385 9.95531 20.8942 10.2225C20.9344 10.4209 20.9603 10.6217 20.9717 10.8235C20.9764 10.9035 20.9787 10.9837 20.9788 11.0643V11.8425C21.2668 11.9684 21.513 12.1743 21.6875 12.4358C21.8644 12.7025 21.9585 13.0157 21.9576 13.3357V15.2382C21.958 15.4529 21.916 15.6655 21.834 15.8639C21.7548 16.0549 21.6399 16.2292 21.4959 16.3775C21.3516 16.5262 21.1802 16.6461 20.9909 16.7303L20.9818 16.7344V17.2781C20.9838 17.8254 20.8777 18.3676 20.6695 18.8737C20.4613 19.3798 20.1551 19.8398 19.7686 20.2272C19.382 20.6146 18.9227 20.9217 18.4171 21.131C17.9114 21.3403 17.3694 21.4476 16.8222 21.4467H11.7632C11.744 21.4473 11.7247 21.4471 11.7055 21.446H6.20077C5.91862 21.446 5.63756 21.4176 5.36116 21.3609C5.09376 21.3057 4.83261 21.2241 4.58132 21.1173C4.33339 21.0122 4.09588 20.8832 3.87295 20.7321C3.65168 20.582 3.44572 20.4112 3.25716 20.2216C3.069 20.0328 2.89882 19.8264 2.74977 19.6054C2.60017 19.3827 2.47272 19.146 2.36893 18.8986C2.26313 18.6473 2.1825 18.386 2.12871 18.1187C2.0727 17.8422 2.04533 17.5608 2.04668 17.2788V12.7224C2.04484 12.7026 2.04384 12.6826 2.0437 12.6626V11.0643C2.04373 10.9741 2.04667 10.8843 2.05249 10.7948ZM13.9877 8.2858C14.0414 8.29896 14.0967 8.30566 14.1524 8.30566C14.208 8.30566 14.2633 8.29896 14.3171 8.2858H16.811C17.5481 8.28659 18.2549 8.57972 18.7761 9.10095C19.2973 9.62217 19.5903 10.329 19.5911 11.0661V11.6996H18.4229C18.2812 11.7001 18.1402 11.7123 18.0013 11.7357C17.8056 11.7671 17.6137 11.8212 17.4297 11.897C17.2763 11.9605 17.1299 12.039 16.992 12.1316C16.8534 12.2247 16.7248 12.3317 16.6077 12.4507C16.472 12.5853 16.3509 12.7341 16.2473 12.8947C16.1453 13.0525 16.061 13.2212 15.996 13.3976C15.9313 13.5734 15.8867 13.7559 15.8624 13.9417C15.8378 14.1303 15.8342 14.3211 15.8524 14.5105C15.8793 14.8356 15.9712 15.1521 16.1225 15.4411C16.2718 15.7257 16.4727 15.9802 16.7149 16.1916C16.8059 16.2715 16.902 16.3451 17.0024 16.412C17.4405 16.71 17.9596 16.8715 18.4936 16.8723C18.5091 16.8726 18.5245 16.8726 18.54 16.8726H19.6024V17.2781C19.6024 18.0153 19.31 18.7223 18.7893 19.2441C18.2687 19.7659 17.5623 20.0598 16.8252 20.0614H11.7632C11.7414 20.0608 11.7197 20.0611 11.698 20.0626H6.19725C5.46007 20.0618 4.75344 19.7686 4.23212 19.2474C3.71079 18.7262 3.41748 18.0195 3.41653 17.2823L3.42337 12.7466C3.42693 12.7189 3.42884 12.6908 3.42903 12.6626V11.0643C3.42983 10.3271 3.723 9.62042 4.24423 9.09919C4.38331 8.96011 4.5356 8.83727 4.69814 8.73188C5.1442 8.44346 5.66729 8.28638 6.20663 8.2858H13.9877ZM13.4597 6.89866V4.08249C13.4606 3.9095 13.419 3.73895 13.3384 3.58588C13.2579 3.4328 13.1409 3.3019 12.9977 3.20473C12.8575 3.10462 12.6944 3.0412 12.5234 3.02024C12.3524 2.99928 12.1789 3.02145 12.0186 3.08474L4.68516 5.8554C4.31713 5.99732 4.00041 6.24686 3.7763 6.57146C3.55219 6.89606 3.4311 7.28066 3.42882 7.67511V7.96312C3.56393 7.84196 3.70619 7.73032 3.85456 7.62862L3.88233 7.60966C4.10526 7.45929 4.34197 7.33062 4.58952 7.2256C4.72009 7.17088 4.85325 7.12292 4.98852 7.08186C5.38058 6.96159 5.7917 6.89878 6.20929 6.89866H13.4597ZM18.4229 13.0874L18.4063 13.0872C18.26 13.088 18.1148 13.1169 17.9793 13.1726C17.8363 13.2313 17.7067 13.3185 17.5984 13.4288C17.4691 13.5506 17.3696 13.7005 17.3072 13.8669C17.2448 14.0333 17.2213 14.2117 17.2387 14.3886C17.2854 14.6987 17.4431 14.9813 17.6828 15.1836C17.9225 15.3858 18.2276 15.4939 18.5412 15.4878H20.3516C20.382 15.4871 20.4119 15.4802 20.4395 15.4676C20.4671 15.455 20.4923 15.437 20.5127 15.4145C20.5581 15.3671 20.5834 15.3039 20.5831 15.2382V13.9819C20.5839 13.9725 20.5839 13.9631 20.5831 13.9537V13.2889C20.5829 13.2352 20.5613 13.1838 20.5233 13.1459C20.4853 13.108 20.434 13.0867 20.3803 13.0867H20.3108C20.3025 13.0871 20.2941 13.0873 20.2858 13.0874H18.4229Z" fill="#A6A6A6"/>
</g>
<defs>
<clipPath id="clip0_1473_137497">
<rect width="24" height="24" fill="white"/>
</clipPath>
</defs>
</svg>
