<svg width="24" height="24" viewBox="0 0 24 24" fill="none" xmlns="http://www.w3.org/2000/svg">
<path d="M7.67106 13.5716C7.84725 13.7396 8.08037 13.835 8.32381 13.8386C8.56676 13.8349 8.79938 13.7397 8.97536 13.5722L9.08575 13.4342C9.1206 13.383 9.14845 13.3273 9.16855 13.2686C9.19513 13.2165 9.21374 13.1607 9.22374 13.1031C9.23403 13.0423 9.24025 12.981 9.24234 12.9195C9.2389 12.6761 9.14377 12.443 8.97596 12.2667C8.79849 12.1023 8.56546 12.0109 8.32351 12.0109C8.08156 12.0109 7.84853 12.1023 7.67106 12.2667C7.59007 12.3562 7.52494 12.4589 7.47847 12.5703C7.43119 12.6807 7.40612 12.7994 7.40468 12.9195C7.40653 13.163 7.50189 13.3965 7.67106 13.5716Z" fill="#A6A6A6"/>
<path d="M11.5403 13.838C11.4202 13.8367 11.3015 13.8119 11.1911 13.7648C11.0785 13.7203 10.9754 13.6548 10.8875 13.5716C10.7182 13.3963 10.6228 13.1626 10.6211 12.9188C10.6226 12.7987 10.6476 12.6801 10.6949 12.5697C10.7414 12.4585 10.8066 12.356 10.8875 12.2667C10.9754 12.1835 11.0785 12.1179 11.1911 12.0735C11.3589 12.0052 11.5428 11.9871 11.7207 12.0214C11.8986 12.0557 12.0626 12.1409 12.193 12.2667C12.3608 12.443 12.4559 12.6761 12.4594 12.9194C12.4573 12.981 12.4511 13.0423 12.4408 13.103C12.4308 13.1607 12.4122 13.2165 12.3856 13.2686C12.3655 13.3273 12.3376 13.3829 12.3028 13.4342C12.2688 13.4824 12.232 13.5285 12.1924 13.5722C12.0162 13.7396 11.7833 13.8345 11.5403 13.838Z" fill="#A6A6A6"/>
<path d="M7.97464 16.9812C8.08506 17.0284 8.2037 17.0535 8.32381 17.055C8.44412 17.0536 8.56298 17.0285 8.67358 16.9812C8.78755 16.9398 8.89105 16.8739 8.97678 16.7882C9.06251 16.7025 9.12838 16.599 9.16975 16.485C9.21703 16.3746 9.2421 16.2559 9.24354 16.1358C9.2421 16.0157 9.21703 15.8971 9.16975 15.7866C9.12746 15.6732 9.06162 15.5699 8.97656 15.4837C8.89016 15.3985 8.7867 15.3327 8.67299 15.2905C8.56276 15.2428 8.44392 15.2181 8.32381 15.2181C8.2037 15.2181 8.08486 15.2428 7.97464 15.2905C7.86098 15.3325 7.75752 15.3982 7.67106 15.4831C7.58615 15.5695 7.52051 15.673 7.47847 15.7866C7.43119 15.8971 7.40612 16.0157 7.40468 16.1358C7.40593 16.2559 7.4308 16.3745 7.47787 16.485C7.52016 16.5985 7.586 16.7017 7.67106 16.788C7.75746 16.8731 7.86093 16.9389 7.97464 16.9812Z" fill="#A6A6A6"/>
<path d="M17.8636 18.7555C17.8021 18.8219 17.7279 18.8755 17.6455 18.913C17.5631 18.9505 17.474 18.9712 17.3835 18.9739L16.0971 19.0188C15.9145 19.0252 15.7368 18.9587 15.6032 18.8341C15.4696 18.7095 15.3909 18.5369 15.3845 18.3543C15.3782 18.1717 15.4446 17.994 15.5692 17.8604C15.6938 17.7268 15.8664 17.6481 16.049 17.6417L16.6723 17.62L16.6804 16.3084C16.6812 16.1256 16.7546 15.9505 16.8845 15.8218C17.0144 15.6931 17.1901 15.6212 17.3729 15.622C17.5558 15.6228 17.7309 15.6963 17.8596 15.8262C17.9883 15.956 18.0602 16.1317 18.0593 16.3146L18.0484 18.2872C18.0452 18.4604 17.9795 18.6267 17.8636 18.7555Z" fill="#A6A6A6"/>
<path fill-rule="evenodd" clip-rule="evenodd" d="M7.1749 3.06808V2.34759C7.17678 2.16557 7.25009 1.99157 7.37903 1.86308C7.50797 1.73459 7.68222 1.66189 7.86425 1.66064C8.04689 1.66159 8.22181 1.73448 8.35107 1.86352C8.48034 1.99256 8.55354 2.16735 8.5548 2.34999V3.03933H14.5279V2.34767C14.5297 2.16565 14.6031 1.99165 14.732 1.86316C14.8609 1.73467 15.0352 1.66197 15.2172 1.66072C15.3999 1.66166 15.5748 1.73455 15.704 1.86359C15.8333 1.99263 15.9065 2.16742 15.9078 2.35007V3.06815C18.835 3.31964 20.5016 5.20677 20.5016 8.32373V15.2948C21.094 16.0569 21.4205 16.9987 21.4205 17.9741C21.4223 18.7687 21.2036 19.5481 20.7887 20.2258C20.4022 20.8709 19.8549 21.4048 19.2005 21.7753C18.546 22.1459 17.8067 22.3404 17.0546 22.34C16.0833 22.3455 15.1421 22.0194 14.3845 21.4201H7.86473C4.51038 21.4201 2.58032 19.4907 2.58032 16.1357V8.32373C2.58032 5.2065 4.24715 3.31931 7.1749 3.06808ZM7.86425 5.79613C7.68191 5.79488 7.50739 5.72193 7.3784 5.59305C7.24941 5.46418 7.17631 5.28972 7.1749 5.10739V4.45155C5.05757 4.66052 4.00433 5.88438 3.96158 8.17673H19.1227C19.0799 5.88418 18.0256 4.65935 15.9078 4.45033V5.10986C15.9057 5.29198 15.8322 5.46601 15.703 5.5944C15.5738 5.7228 15.3993 5.79527 15.2172 5.79621C15.0349 5.79495 14.8604 5.722 14.7314 5.59313C14.6024 5.46425 14.5293 5.28979 14.5279 5.10746V4.41813L8.5548 4.41911V5.10979C8.55275 5.29191 8.47921 5.46593 8.35003 5.59433C8.22085 5.72272 8.04638 5.7952 7.86425 5.79613ZM19.1241 14.1301C18.4938 13.7908 17.7837 13.6086 17.0549 13.6086C15.8971 13.6086 14.7867 14.0685 13.968 14.8872C13.1493 15.7059 12.6893 16.8163 12.6893 17.9741C12.6884 18.6973 12.8692 19.408 13.2137 20.0415H7.86593C5.23752 20.0415 3.96022 18.7641 3.96022 16.1357V9.55663H19.1241V14.1301ZM17.6556 15.0499C17.4584 15.0094 17.257 14.9888 17.0546 14.9887V14.9875C16.2632 14.9895 15.5048 15.3048 14.9453 15.8645C14.3858 16.4242 14.0708 17.1827 14.0692 17.9741C14.0677 18.5159 14.2173 19.0474 14.5012 19.5088C14.6529 19.7729 14.8483 20.0094 15.079 20.2084C15.6202 20.698 16.3254 20.9669 17.0552 20.9619C17.8471 20.9608 18.6063 20.6457 19.1662 20.0858C19.7262 19.5258 20.0413 18.7666 20.0424 17.9747C20.0374 17.2742 19.7917 16.5976 19.3478 16.0577C19.3269 16.039 19.3071 16.019 19.2885 15.9978C18.8868 15.543 18.3563 15.2213 17.7674 15.0753C17.7302 15.0661 17.693 15.0576 17.6556 15.0499Z" fill="#A6A6A6"/>
</svg>
