<svg width="20" height="21" viewBox="0 0 20 21" fill="none" xmlns="http://www.w3.org/2000/svg">
<path d="M5.70006 10.2357V14.3155L4.68995 13.3051C4.54869 13.1656 4.35767 13.0873 4.15912 13.0873C3.96057 13.0873 3.77014 13.1656 3.62887 13.3051C3.48921 13.4463 3.41092 13.6369 3.41092 13.8355C3.41092 14.0341 3.48921 14.2247 3.62887 14.3659L5.89634 16.6338C6.01891 16.7558 6.17999 16.8313 6.35218 16.8474C6.38439 16.8517 6.41693 16.8539 6.44944 16.854C6.55821 16.8535 6.66555 16.8293 6.76407 16.7832C6.86259 16.7371 6.95003 16.6701 7.02011 16.5869L9.24012 14.3671C9.3795 14.2257 9.45749 14.0352 9.45749 13.8367C9.45749 13.6382 9.3795 13.4476 9.24012 13.3063C9.09885 13.1668 8.90784 13.0885 8.70928 13.0885C8.51073 13.0885 8.3203 13.1668 8.17904 13.3063L7.19764 14.2873V10.2375C7.19623 10.039 7.11651 9.84902 6.97617 9.70868C6.83583 9.56834 6.64614 9.48891 6.44768 9.4875C6.24994 9.48953 6.06072 9.56908 5.92095 9.70897C5.78117 9.84886 5.70193 10.038 5.70006 10.2357Z" fill="#A6A6A6"/>
<path fill-rule="evenodd" clip-rule="evenodd" d="M0.0524898 9.79485V6.67511C0.0559689 5.99989 0.263289 5.34146 0.647296 4.78605C1.0313 4.23065 1.5741 3.80417 2.20458 3.56246L9.53862 0.791801C9.90823 0.649991 10.307 0.601104 10.6999 0.649434C11.0928 0.697764 11.4679 0.841833 11.7921 1.06899C12.1177 1.29413 12.3836 1.59504 12.567 1.9458C12.7505 2.29657 12.8459 2.68666 12.8451 3.08249V5.89866H14.8132C15.2038 5.89878 15.5887 5.95373 15.9577 6.05927C16.1196 6.10496 16.2787 6.16049 16.4339 6.2256C16.6817 6.33062 16.9186 6.45928 17.1417 6.60966C17.3628 6.75936 17.5693 6.92966 17.7581 7.11838C17.9468 7.3072 18.117 7.51357 18.2667 7.73461C18.4175 7.95757 18.5461 8.19463 18.651 8.44253C18.757 8.69407 18.8385 8.95531 18.8942 9.22252C18.9344 9.42086 18.9603 9.62171 18.9717 9.82355C18.9764 9.90348 18.9787 9.98375 18.9788 10.0643V10.8425C19.2668 10.9684 19.513 11.1743 19.6875 11.4358C19.8644 11.7025 19.9585 12.0157 19.9576 12.3357V14.2382C19.958 14.4529 19.916 14.6655 19.834 14.8639C19.7548 15.0549 19.6399 15.2292 19.4959 15.3775C19.3516 15.5262 19.1802 15.6461 18.9909 15.7303L18.9818 15.7344V16.2781C18.9838 16.8254 18.8777 17.3676 18.6695 17.8737C18.4613 18.3798 18.1551 18.8398 17.7686 19.2272C17.382 19.6146 16.9227 19.9217 16.4171 20.131C15.9114 20.3403 15.3694 20.4476 14.8222 20.4467H9.76322C9.74395 20.4473 9.7247 20.4471 9.70552 20.446H4.20077C3.91862 20.446 3.63756 20.4176 3.36116 20.3609C3.09376 20.3057 2.83261 20.2241 2.58132 20.1173C2.33339 20.0122 2.09588 19.8832 1.87295 19.7321C1.65168 19.582 1.44572 19.4112 1.25716 19.2216C1.069 19.0328 0.898821 18.8264 0.749768 18.6054C0.600175 18.3827 0.472722 18.146 0.368928 17.8986C0.26313 17.6473 0.1825 17.386 0.128705 17.1187C0.0727015 16.8422 0.0453279 16.5608 0.0466783 16.2788V11.7224C0.0448378 11.7026 0.0438385 11.6826 0.0437012 11.6626V10.0643C0.0437271 9.97411 0.0466741 9.88426 0.0524898 9.79485ZM11.9877 7.2858C12.0414 7.29896 12.0967 7.30566 12.1524 7.30566C12.208 7.30566 12.2633 7.29896 12.3171 7.2858H14.811C15.5481 7.28659 16.2549 7.57972 16.7761 8.10095C17.2973 8.62217 17.5903 9.32895 17.5911 10.0661V10.6996H16.4229C16.2812 10.7001 16.1402 10.7123 16.0013 10.7357C15.8056 10.7671 15.6137 10.8212 15.4297 10.897C15.2763 10.9605 15.1299 11.039 14.992 11.1316C14.8534 11.2247 14.7248 11.3317 14.6077 11.4507C14.472 11.5853 14.3509 11.7341 14.2473 11.8947C14.1453 12.0525 14.061 12.2212 13.996 12.3976C13.9313 12.5734 13.8867 12.7559 13.8624 12.9417C13.8378 13.1303 13.8342 13.3211 13.8524 13.5105C13.8793 13.8356 13.9712 14.1521 14.1225 14.4411C14.2718 14.7257 14.4727 14.9802 14.7149 15.1916C14.8059 15.2715 14.902 15.3451 15.0024 15.412C15.4405 15.71 15.9596 15.8715 16.4936 15.8723C16.5091 15.8726 16.5245 15.8726 16.54 15.8726H17.6024V16.2781C17.6024 17.0153 17.31 17.7223 16.7893 18.2441C16.2687 18.7659 15.5623 19.0598 14.8252 19.0614H9.76322C9.74143 19.0608 9.71966 19.0611 9.69799 19.0626H4.19725C3.46007 19.0618 2.75344 18.7686 2.23212 18.2474C1.71079 17.7262 1.41748 17.0195 1.41653 16.2823L1.42337 11.7466C1.42693 11.7189 1.42884 11.6908 1.42903 11.6626V10.0643C1.42983 9.32713 1.723 8.62042 2.24423 8.09919C2.38331 7.96011 2.5356 7.83727 2.69814 7.73188C3.1442 7.44346 3.66729 7.28638 4.20663 7.2858H11.9877ZM11.4597 5.89866V3.08249C11.4606 2.9095 11.419 2.73895 11.3384 2.58588C11.2579 2.4328 11.1409 2.3019 10.9977 2.20473C10.8575 2.10462 10.6944 2.0412 10.5234 2.02024C10.3524 1.99928 10.1789 2.02145 10.0186 2.08474L2.68516 4.8554C2.31713 4.99732 2.00041 5.24686 1.7763 5.57146C1.55219 5.89606 1.4311 6.28066 1.42882 6.67511V6.96312C1.56393 6.84196 1.70619 6.73032 1.85456 6.62862L1.88233 6.60966C2.10526 6.45929 2.34197 6.33062 2.58952 6.2256C2.72009 6.17088 2.85325 6.12292 2.98852 6.08186C3.38058 5.96159 3.7917 5.89878 4.20929 5.89866H11.4597ZM16.4229 12.0874L16.4063 12.0872C16.26 12.088 16.1148 12.1169 15.9793 12.1726C15.8363 12.2313 15.7067 12.3185 15.5984 12.4288C15.4691 12.5506 15.3696 12.7005 15.3072 12.8669C15.2448 13.0333 15.2213 13.2117 15.2387 13.3886C15.2854 13.6987 15.4431 13.9813 15.6828 14.1836C15.9225 14.3858 16.2276 14.4939 16.5412 14.4878H18.3516C18.382 14.4871 18.4119 14.4802 18.4395 14.4676C18.4671 14.455 18.4923 14.437 18.5127 14.4145C18.5581 14.3671 18.5834 14.3039 18.5831 14.2382V12.9819C18.5839 12.9725 18.5839 12.9631 18.5831 12.9537V12.2889C18.5829 12.2352 18.5613 12.1838 18.5233 12.1459C18.4853 12.108 18.434 12.0867 18.3803 12.0867H18.3108C18.3025 12.0871 18.2941 12.0873 18.2858 12.0874H16.4229Z" fill="#A6A6A6"/>
</svg>
