<svg width="24" height="24" viewBox="0 0 24 24" fill="none" xmlns="http://www.w3.org/2000/svg">
<path fill-rule="evenodd" clip-rule="evenodd" d="M12.7237 3.84651C12.2678 3.6384 11.7316 3.6384 11.2757 3.84651L2.19321 7.99259C1.61361 8.25717 1.28749 8.78374 1.28968 9.34121C1.29188 9.89856 1.62196 10.4226 2.20314 10.6834L11.2856 14.7588C11.736 14.961 12.2633 14.961 12.7137 14.7588L21.7962 10.6834C22.3774 10.4226 22.7075 9.89855 22.7097 9.3412C22.7119 8.78374 22.3857 8.25717 21.8061 7.99258L12.7237 3.84651ZM11.6993 4.7744C11.8861 4.68911 12.1132 4.68911 12.3001 4.7744L21.3826 8.92048C21.6132 9.02577 21.6902 9.19756 21.6897 9.33719C21.6891 9.47694 21.6106 9.64871 21.3786 9.75281L12.2962 13.8282C12.1114 13.9112 11.888 13.9112 11.7032 13.8282L2.62072 9.75281C2.38874 9.64872 2.31022 9.47694 2.30967 9.33719C2.30912 9.19756 2.38612 9.02578 2.61678 8.92048L11.6993 4.7744Z" fill="#A6A6A6"/>
<path d="M2.01683 12.139C1.76197 12.019 1.45815 12.1284 1.33821 12.3833C1.21828 12.6381 1.32766 12.942 1.58251 13.0619L10.7606 17.381C11.5454 17.7503 12.454 17.7503 13.2387 17.381L22.4168 13.0619C22.6717 12.942 22.7811 12.6381 22.6611 12.3833C22.5412 12.1284 22.2374 12.019 21.9825 12.139L12.8044 16.4581C12.2947 16.6979 11.7046 16.6979 11.1949 16.4581L2.01683 12.139Z" fill="#A6A6A6"/>
<path d="M2.01683 15.139C1.76197 15.019 1.45815 15.1284 1.33821 15.3833C1.21828 15.6381 1.32766 15.942 1.58251 16.0619L10.7606 20.381C11.5454 20.7503 12.454 20.7503 13.2387 20.381L22.4168 16.0619C22.6717 15.942 22.7811 15.6381 22.6611 15.3833C22.5412 15.1284 22.2374 15.019 21.9825 15.139L12.8044 19.4581C12.2947 19.6979 11.7046 19.6979 11.1949 19.4581L2.01683 15.139Z" fill="#A6A6A6"/>
</svg>
