<svg width="24" height="24" viewBox="0 0 24 24" fill="none" xmlns="http://www.w3.org/2000/svg">
<g clip-path="url(#clip0_1014_21080)">
<path d="M0.466566 8.52891C0.606896 8.66924 0.796817 8.7487 0.995268 8.75011C1.0933 8.75012 1.19036 8.73066 1.28081 8.69286C1.37126 8.65506 1.4533 8.59966 1.52217 8.5299C1.59104 8.46014 1.64537 8.37739 1.682 8.28646C1.71864 8.19553 1.73685 8.09823 1.73558 8.00021C1.73868 6.59006 2.21699 5.22211 3.09325 4.11726C3.96951 3.01241 5.19258 2.23514 6.56497 1.91097L6.295 2.36091C6.1965 2.5318 6.16916 2.73457 6.2189 2.92544C6.26864 3.11631 6.39146 3.27995 6.56084 3.38103C6.73021 3.4821 6.93255 3.5125 7.12415 3.46564C7.31575 3.41879 7.48123 3.29845 7.58484 3.13062L8.63471 1.38064C8.70251 1.26739 8.73906 1.13819 8.74064 1.00621C8.74222 0.874227 8.70877 0.744188 8.6437 0.629353C8.57863 0.514518 8.48426 0.418995 8.37023 0.352524C8.2562 0.286053 8.12658 0.251013 7.99459 0.250977C5.94044 0.254466 3.97142 1.07202 2.51891 2.52453C1.06641 3.97704 0.248851 5.94606 0.245361 8.00021C0.246775 8.19866 0.326237 8.38858 0.466566 8.52891Z" fill="#A6A6A6"/>
<path d="M15.6177 23.6472C15.7317 23.7137 15.8613 23.7488 15.9933 23.7488C18.0479 23.7439 20.0171 22.9262 21.4708 21.4743C22.9245 20.0223 23.7447 18.0542 23.7521 15.9996C23.7521 15.8007 23.6731 15.6099 23.5325 15.4693C23.3918 15.3287 23.2011 15.2497 23.0022 15.2497C22.8033 15.2497 22.6126 15.3287 22.472 15.4693C22.3313 15.6099 22.2523 15.8007 22.2523 15.9996C22.2492 17.4097 21.7709 18.7777 20.8946 19.8825C20.0184 20.9874 18.7953 21.7646 17.4229 22.0888L17.6929 21.6389C17.7914 21.468 17.8187 21.2652 17.769 21.0743C17.7193 20.8835 17.5964 20.7198 17.4271 20.6187C17.2577 20.5177 17.0553 20.4873 16.8637 20.5341C16.6721 20.581 16.5067 20.7013 16.403 20.8692L15.3532 22.6191C15.2854 22.7324 15.2488 22.8616 15.2472 22.9936C15.2457 23.1255 15.2791 23.2556 15.3442 23.3704C15.4093 23.4853 15.5036 23.5808 15.6177 23.6472Z" fill="#A6A6A6"/>
<path fill-rule="evenodd" clip-rule="evenodd" d="M11.1205 15.0344C11.2378 14.7884 11.3016 14.5176 11.3043 14.24C11.2913 13.7455 11.089 13.2749 10.7391 12.9251C10.3893 12.5754 9.91863 12.3733 9.42415 12.3604H9.16458V11.9706C9.16316 11.7721 9.08369 11.5821 8.94334 11.4418C8.803 11.3015 8.61305 11.222 8.41458 11.2206C8.2161 11.222 8.02615 11.3015 7.88581 11.4418C7.74546 11.5821 7.66599 11.7721 7.66458 11.9706V12.3604H6.6147C6.41625 12.3618 6.22633 12.4413 6.086 12.5816C5.94567 12.7219 5.86621 12.9119 5.8648 13.1103V15.2417C5.85834 15.2806 5.8549 15.3201 5.85461 15.36V17.6098C5.85603 17.8082 5.93549 17.9981 6.07582 18.1385C6.21615 18.2788 6.40607 18.3583 6.60452 18.3597H7.66458V18.7295C7.66599 18.9279 7.74546 19.1179 7.88581 19.2582C8.02615 19.3986 8.2161 19.4781 8.41458 19.4795C8.51311 19.4796 8.61071 19.4603 8.70177 19.4227C8.79284 19.3851 8.87558 19.3298 8.94526 19.2602C9.01493 19.1905 9.07017 19.1077 9.10781 19.0167C9.14544 18.9256 9.16473 18.828 9.16458 18.7295V18.3597H9.82432C10.0811 18.3713 10.3377 18.332 10.5794 18.2443C10.821 18.1565 11.0429 18.0219 11.2324 17.8482C11.4219 17.6744 11.5753 17.465 11.6836 17.2319C11.792 16.9988 11.8533 16.7466 11.8641 16.4897C11.8411 15.9706 11.6138 15.4816 11.2317 15.1294C11.1957 15.0963 11.1586 15.0646 11.1205 15.0344ZM8.41458 16.8497C8.4545 16.85 8.49409 16.8534 8.53299 16.8599H9.83392C10.1537 16.8599 10.3738 16.6601 10.3738 16.4801C10.3738 16.3001 10.1537 16.1004 9.83392 16.1004H9.60601C9.54583 16.1064 9.48515 16.1097 9.42415 16.1099H7.36463V16.8599H8.29616C8.33506 16.8534 8.37465 16.85 8.41458 16.8497ZM7.36461 14.6101H9.42415C9.52487 14.6101 9.62146 14.5701 9.69268 14.4989C9.76389 14.4277 9.8039 14.3311 9.8039 14.2304C9.79404 14.133 9.75086 14.042 9.68166 13.9729C9.61247 13.9037 9.52151 13.8605 9.42415 13.8506H7.36461V14.6101Z" fill="#A6A6A6"/>
<path fill-rule="evenodd" clip-rule="evenodd" d="M8.66463 22.279C6.84069 22.262 5.09723 21.5255 3.81348 20.2298C2.52973 18.934 1.80952 17.1838 1.80952 15.3597C1.80952 13.5357 2.52973 11.7855 3.81348 10.4897C5.03714 9.25462 6.67848 8.52767 8.40906 8.44761C8.4567 7.16977 8.85744 5.92815 9.56921 4.86171C10.3297 3.72228 11.4111 2.83402 12.6765 2.30934C13.942 1.78466 15.3346 1.64713 16.6783 1.91415C18.0219 2.18118 19.2562 2.84075 20.2248 3.80943C21.1935 4.7781 21.8531 6.01234 22.1201 7.35598C22.3871 8.69961 22.2496 10.0923 21.7249 11.3577C21.2002 12.6232 20.312 13.7046 19.1725 14.465C18.1038 15.1783 16.8591 15.5793 15.5784 15.6255C15.5111 17.3637 14.7912 19.0169 13.5566 20.2516C12.2591 21.5491 10.4996 22.2783 8.66463 22.279ZM11.3221 10.6286C11.7525 10.872 12.1508 11.1746 12.5046 11.5304C13.4191 12.4505 13.9756 13.6664 14.0742 14.9599L14.0759 14.983C14.0849 15.1054 14.0939 15.2274 14.0939 15.3499C14.0939 16.4214 13.7763 17.4688 13.1812 18.3599C12.5861 19.2509 11.7402 19.9456 10.7505 20.3561C9.76071 20.7666 8.67148 20.8745 7.62042 20.6661C6.56936 20.4578 5.60364 19.9426 4.8453 19.1856C4.08695 18.4286 3.57002 17.4637 3.35981 16.4131C3.14961 15.3624 3.25557 14.2729 3.66431 13.2825C4.07304 12.292 4.76621 11.4449 5.65621 10.8482C6.54622 10.2515 7.59312 9.93203 8.66463 9.93013C8.74226 9.93013 8.81715 9.93286 8.88939 9.9355C8.93167 9.93704 8.97312 9.93855 9.01361 9.93946C9.04012 9.94457 9.06701 9.94828 9.09416 9.95052C9.88291 10.0135 10.6421 10.2472 11.3221 10.6286ZM13.5567 10.4673C12.5588 9.46939 11.2816 8.7976 9.89386 8.54069C9.92728 7.48365 10.2692 6.45946 10.8774 5.5943C11.4856 4.72913 12.3336 4.06077 13.317 3.67155C14.3003 3.28232 15.376 3.18923 16.4116 3.40374C17.4472 3.61825 18.3974 4.13099 19.1453 4.87881C19.8931 5.62662 20.4058 6.57685 20.6203 7.61243C20.8348 8.64802 20.7417 9.72374 20.3525 10.7071C19.9633 11.6904 19.2949 12.5384 18.4298 13.1467C17.5646 13.7549 16.5404 14.0968 15.4834 14.1302C15.2265 12.7425 14.5547 11.4653 13.5567 10.4673Z" fill="#A6A6A6"/>
</g>
<defs>
<clipPath id="clip0_1014_21080">
<rect width="24" height="24" fill="white"/>
</clipPath>
</defs>
</svg>
