<svg width="24" height="24" viewBox="0 0 24 24" fill="none" xmlns="http://www.w3.org/2000/svg">
<g clip-path="url(#clip0_1016_21276)">
<path fill-rule="evenodd" clip-rule="evenodd" d="M6.95589 10.3955C6.8924 10.4938 6.80951 10.5715 6.71481 10.6318C6.52419 10.7533 6.26391 10.8133 5.98806 10.8653C5.71127 10.9175 5.4446 10.7354 5.39243 10.4586C5.34027 10.1818 5.52237 9.91512 5.79916 9.86296C5.8481 9.85373 5.89151 9.84504 5.93007 9.83679C5.82297 9.74286 5.69075 9.65418 5.58138 9.59685L5.46706 9.53689C5.34849 9.47465 5.22502 9.41147 5.09589 9.34539L5.06989 9.33209C4.43133 9.00538 3.65564 8.6085 3.04136 8.06366L2.98034 8.00957C2.65038 7.71722 2.211 7.32792 1.87077 6.88793C1.53071 6.44816 1.22024 5.87017 1.30345 5.21438C1.57174 3.1001 3.46845 2.24828 4.69958 2.39527C4.92057 2.42166 5.14118 2.48153 5.34714 2.57609C5.31657 2.49585 5.29977 2.4087 5.29977 2.31753V1.85948C5.29977 1.48685 5.58096 1.18129 5.94115 1.13788L5.94203 1.13778C10.8219 0.558308 13.649 0.523533 18.4716 1.13703C18.83 1.18266 19.1077 1.48768 19.1077 1.85779V2.31753C19.1077 2.37188 19.1018 2.42483 19.0905 2.47576C19.2814 2.3944 19.4836 2.3421 19.6861 2.31792C20.9347 2.16884 22.8417 3.11606 23.108 5.21438C23.1912 5.87017 22.8807 6.44817 22.5407 6.88794C22.2005 7.32793 21.7611 7.71724 21.4311 8.00959L21.3701 8.06366C20.7558 8.60851 19.9801 9.00537 19.3416 9.33208L19.3156 9.34539C19.1864 9.41147 19.063 9.47465 18.9444 9.53689L18.8301 9.59685C18.7207 9.65418 18.5885 9.74286 18.4814 9.83679C18.5199 9.84504 18.5634 9.85373 18.6123 9.86296C18.8891 9.91512 19.0712 10.1818 19.019 10.4586C18.9669 10.7354 18.7002 10.9175 18.4234 10.8653C18.1476 10.8133 17.8873 10.7533 17.6966 10.6318C17.5819 10.5587 17.4845 10.4601 17.4179 10.3302C17.411 10.3167 17.4047 10.3034 17.3988 10.2901C17.3778 10.3306 17.3566 10.3709 17.335 10.411C16.6511 11.6855 15.6774 12.8062 14.3644 13.4098L14.3938 13.4686C14.4844 13.6498 14.4592 13.8675 14.3294 14.0232L14.0597 14.3469C14.1642 15.0638 14.3134 15.5203 14.5216 15.8554C14.7567 16.2338 15.1002 16.5104 15.6919 16.8211C15.8371 16.8973 15.9353 17.0377 15.9592 17.197H17.9475C18.0399 17.197 18.1306 17.2221 18.2099 17.2697L19.2936 17.9199C19.4472 18.0121 19.5412 18.1781 19.5412 18.3572V22.8005C19.5412 23.0821 19.3129 23.3105 19.0312 23.3105H5.70137C5.4197 23.3105 5.19137 23.0821 5.19137 22.8005V18.3572C5.19137 18.1781 5.28536 18.0121 5.43898 17.9199L6.5227 17.2697C6.60196 17.2221 6.69266 17.197 6.78509 17.197H8.44807C8.47218 17.036 8.57235 16.8943 8.71995 16.8187C9.42488 16.4576 9.80609 16.1501 10.0338 15.777C10.2341 15.449 10.3489 15.0157 10.3833 14.3315L10.1091 14.0573C9.95388 13.9021 9.9154 13.6649 10.0136 13.4686L10.0231 13.4495C8.66537 12.8562 7.66339 11.714 6.96418 10.411L6.95589 10.3955ZM5.57006 5.55487C5.56011 5.56221 5.5508 5.56895 5.54221 5.57508C5.52415 5.58797 5.5091 5.59827 5.49771 5.60589L5.4834 5.61533L5.47842 5.61855L5.4765 5.61977L5.47568 5.62029C5.47551 5.6204 5.47497 5.62074 5.20899 5.19961L5.47496 5.62075C5.23682 5.77115 4.92184 5.70003 4.77143 5.46188C4.62152 5.22453 4.69167 4.91086 4.92791 4.75986L4.93045 4.75818C4.93392 4.75585 4.94056 4.75135 4.94978 4.74476C4.96834 4.73152 4.99669 4.71039 5.03051 4.68228C5.09991 4.62459 5.18319 4.54507 5.25275 4.45178C5.39021 4.26744 5.43191 4.10289 5.33286 3.91156C5.32867 3.90349 5.32471 3.8953 5.32097 3.88701C5.20787 3.6366 4.94145 3.45139 4.57865 3.40808C3.79865 3.31495 2.50044 3.88409 2.31534 5.34278C2.28312 5.59668 2.39626 5.90006 2.67767 6.26398C2.95408 6.62143 3.32633 6.95333 3.67082 7.25858L3.71819 7.30057C4.2267 7.75161 4.89322 8.0959 5.56053 8.43736L5.56204 8.43814C5.6896 8.50341 5.81766 8.56894 5.94115 8.63377L6.05493 8.69344C6.12392 8.72961 6.19745 8.77259 6.27205 8.82099C5.89108 7.72767 5.66535 6.58952 5.57006 5.55487ZM11.3932 14.5318C11.3451 15.234 11.207 15.8128 10.9044 16.3085C10.6908 16.6585 10.4094 16.9437 10.0648 17.197H14.3817C14.0969 16.9724 13.8542 16.7141 13.6552 16.3937C13.3491 15.901 13.1705 15.3001 13.0558 14.5318H11.3932ZM17.9908 8.92382C18.1147 8.83248 18.2419 8.75355 18.3565 8.69344L18.4703 8.63377C18.5939 8.56888 18.7218 8.50346 18.8495 8.43812L18.8509 8.43737C19.5182 8.0959 20.1848 7.75161 20.6933 7.30057L20.7406 7.25859C21.0851 6.95333 21.4574 6.62143 21.7338 6.26399C22.0152 5.90006 22.1283 5.59668 22.0961 5.34278C21.909 3.86813 20.5695 3.23969 19.807 3.33073C19.4442 3.37404 19.1778 3.55925 19.0647 3.80966C19.061 3.81795 19.057 3.82614 19.0528 3.83421C18.9537 4.02554 18.9955 4.19009 19.1329 4.37443C19.2025 4.46772 19.2858 4.54724 19.3552 4.60493C19.3774 4.62345 19.3973 4.63895 19.4136 4.65115L19.6132 4.71672C19.8808 4.80465 20.0264 5.09285 19.9385 5.36044C19.8505 5.62803 19.5623 5.77367 19.2948 5.68574L19.0238 5.59671C18.9841 5.58365 18.9461 5.56574 18.9107 5.5434L19.183 5.1122C18.9107 5.5434 18.9109 5.54351 18.9107 5.5434L18.91 5.54294L18.9092 5.54242L18.9072 5.5412L18.9023 5.53798L18.888 5.52854C18.8766 5.52092 18.8615 5.51062 18.8435 5.49773C18.8158 5.47804 18.7808 5.45204 18.7409 5.4201C18.6506 6.52235 18.4109 7.75168 17.9908 8.92382ZM6.53656 4.43132V2.65443C11.0779 2.03992 13.6806 1.98634 17.7627 2.64258V4.43132C17.7627 6.05568 17.3615 8.20449 16.4363 9.92867C15.5149 11.6457 14.1264 12.8621 12.1496 12.8621C10.1728 12.8621 8.7843 11.6457 7.86295 9.92867C6.93775 8.20449 6.53656 6.05568 6.53656 4.43132ZM6.21137 22.2905V19.1099H18.5212V22.2905H6.21137Z" fill="#A6A6A6"/>
</g>
<defs>
<clipPath id="clip0_1016_21276">
<rect width="24" height="24" fill="white"/>
</clipPath>
</defs>
</svg>
