<svg width="24" height="24" viewBox="0 0 24 24" fill="none" xmlns="http://www.w3.org/2000/svg">
<g clip-path="url(#clip0_1014_21042)">
<path d="M15.1471 4.81422C14.1512 4.43563 13.0862 4.23532 12.0003 4.23341V4.23473C9.94331 4.23243 7.94917 4.9435 6.35781 6.24689C4.76645 7.55029 3.67638 9.36533 3.27339 11.3825C2.87041 13.3996 3.17945 15.494 4.14785 17.3088C5.11626 19.1236 6.68409 20.5464 8.58408 21.3346C10.4841 22.1228 12.5986 22.2277 14.5673 21.6314C16.536 21.035 18.2369 19.7744 19.3802 18.0644C20.5234 16.3543 21.0383 14.3008 20.8369 12.2536C20.7822 11.6973 20.6754 11.1507 20.5198 10.6206C20.4148 10.2625 20.5653 9.87125 20.8991 9.70436C21.2828 9.51251 21.7507 9.69154 21.8751 10.1021C22.2653 11.3894 22.4033 12.7499 22.2702 14.108C22.0369 16.4883 20.9853 18.714 19.2947 20.4057C18.3376 21.3653 17.2007 22.1267 15.9491 22.6465C14.6974 23.1663 13.3556 23.4344 12.0003 23.4352C9.60865 23.4389 7.28971 22.6131 5.4388 21.0984C3.58789 19.5838 2.31958 17.474 1.85006 15.1289C1.38054 12.7838 1.73887 10.3483 2.86398 8.23781C3.98909 6.12732 5.81133 4.47236 8.02008 3.55503C10.2288 2.6377 12.6874 2.5148 14.9766 3.20726C15.3877 3.33161 15.7887 3.48088 16.1778 3.65361L15.9565 1.42974C15.9221 1.08351 16.1748 0.774897 16.5211 0.740447C16.8673 0.705997 17.1759 0.958752 17.2104 1.30499L17.6012 5.23332C17.634 5.56307 17.3933 5.85699 17.0636 5.8898L13.1352 6.28066C12.789 6.31511 12.4804 6.06235 12.4459 5.71611C12.4115 5.36987 12.6642 5.06127 13.0105 5.02682L15.1471 4.81422Z" fill="#A6A6A6"/>
<path d="M15.197 16.782C15.3062 16.8507 15.4328 16.8868 15.5618 16.8859C15.6872 16.8849 15.8101 16.8509 15.9182 16.7874C16.0275 16.7251 16.119 16.6359 16.184 16.5283C16.2332 16.4475 16.2652 16.3573 16.2782 16.2636C16.292 16.1696 16.2874 16.0738 16.2644 15.9816C16.2395 15.8909 16.1989 15.8053 16.1444 15.7285C16.0879 15.6535 16.0166 15.5907 15.935 15.5442L12.9595 13.7647C12.7925 13.6472 12.6541 13.4936 12.5545 13.3152C12.4539 13.1384 12.3925 12.9419 12.3745 12.7392V8.80545C12.3736 8.61501 12.2972 8.43272 12.1621 8.29846C12.0959 8.23104 12.0169 8.17754 11.9297 8.14098C11.8426 8.10443 11.749 8.08561 11.6545 8.08561C11.56 8.08561 11.4665 8.10443 11.3793 8.14098C11.2921 8.17754 11.2131 8.23104 11.1469 8.29846C11.012 8.43282 10.9359 8.6151 10.9351 8.80545V12.7392C10.9518 13.192 11.0774 13.6341 11.3013 14.028C11.5251 14.422 11.8405 14.7563 12.2209 15.0025L15.197 16.782Z" fill="#A6A6A6"/>
</g>
<defs>
<clipPath id="clip0_1014_21042">
<rect width="24" height="24" fill="white"/>
</clipPath>
</defs>
</svg>
