<svg width="24" height="24" viewBox="0 0 24 24" fill="none" xmlns="http://www.w3.org/2000/svg">
<path d="M12.0147 16.8101C11.2082 16.8204 10.415 16.6031 9.72634 16.1831L3.93754 12.4032C3.40937 12.0592 2.97541 11.5888 2.67501 11.0347C2.37462 10.4806 2.21729 9.8603 2.21729 9.23001C2.21729 8.59972 2.37462 7.97942 2.67501 7.42532C2.97541 6.87123 3.40937 6.40089 3.93754 6.05694L9.73594 2.28775C10.4287 1.87599 11.2199 1.65928 12.0257 1.66065C12.8316 1.66202 13.622 1.8814 14.3133 2.29551L20.0733 6.07554C20.5989 6.41924 21.0305 6.88846 21.3292 7.44078C21.6279 7.9931 21.7844 8.61109 21.7844 9.23902C21.7844 9.86695 21.6279 10.485 21.3292 11.0373C21.0305 11.5897 20.5989 12.0588 20.0733 12.4025L14.3133 16.1825C13.6234 16.6084 12.8254 16.8264 12.0147 16.8101ZM12.0147 3.1055C11.4901 3.09043 10.9723 3.22801 10.5243 3.50152L4.73554 7.27071C4.4088 7.48319 4.1403 7.77393 3.95443 8.11651C3.76857 8.45909 3.67121 8.84267 3.67121 9.23243C3.67121 9.62218 3.76857 10.0058 3.95443 10.3483C4.1403 10.6909 4.4088 10.9817 4.73554 11.1941L10.5243 14.9741C10.9824 15.2313 11.499 15.3664 12.0243 15.3664C12.5497 15.3664 13.0662 15.2313 13.5243 14.9741L19.2861 11.1917C19.6113 10.9781 19.8783 10.687 20.063 10.3445C20.2478 10.0021 20.3445 9.6191 20.3445 9.23001C20.3445 8.84093 20.2478 8.45799 20.063 8.11556C19.8783 7.77313 19.6113 7.48201 19.2861 7.26837L13.5261 3.48834C13.0663 3.22775 12.545 3.09496 12.0165 3.10374L12.0147 3.1055Z" fill="#A6A6A6"/>
<path d="M12.0042 22.3375C11.5976 22.3433 11.1926 22.2847 10.8042 22.1641L7.73699 21.1441C6.99746 20.8693 6.35652 20.3804 5.89586 19.7399C5.4352 19.0994 5.17568 18.3363 5.15039 17.5478L5.15999 13.0399C5.1608 12.8493 5.23718 12.6667 5.37239 12.5323C5.43844 12.4637 5.51765 12.4092 5.60528 12.3719C5.69291 12.3346 5.78716 12.3154 5.88239 12.3154C5.97762 12.3154 6.07187 12.3346 6.1595 12.3719C6.24713 12.4092 6.32634 12.4637 6.39239 12.5323C6.5276 12.6667 6.60399 12.8493 6.60479 13.0399L6.59519 17.5478C6.62628 18.0329 6.79338 18.4993 7.07735 18.8938C7.36131 19.2884 7.75066 19.5949 8.20079 19.7784L11.268 20.7986C11.7534 20.9254 12.2633 20.9254 12.7488 20.7986L15.816 19.7784C16.2654 19.597 16.6545 19.2924 16.9385 18.8997C17.2226 18.507 17.39 18.0421 17.4216 17.5585V13.0969C17.4216 12.906 17.4974 12.7228 17.6325 12.5878C17.7675 12.4528 17.9506 12.3769 18.1416 12.3769C18.3325 12.3769 18.5157 12.4528 18.6507 12.5878C18.7857 12.7228 18.8616 12.906 18.8616 13.0969V17.5585C18.8326 18.3461 18.5717 19.1076 18.1115 19.7474C17.6513 20.3872 17.0124 20.8769 16.275 21.155L13.2078 22.1749C12.8165 22.2867 12.4111 22.3414 12.0042 22.3375Z" fill="#A6A6A6"/>
<path d="M21.044 15.6097C20.8529 15.6061 20.6707 15.529 20.5352 15.3943C20.3999 15.2599 20.3236 15.0774 20.3228 14.8867V9.11709C20.3236 8.92644 20.3999 8.74393 20.5352 8.60952C20.6012 8.54093 20.6804 8.48639 20.768 8.44912C20.8557 8.41185 20.9499 8.39258 21.0452 8.39258C21.1404 8.39258 21.2346 8.41185 21.3223 8.44912C21.4099 8.48639 21.4891 8.54093 21.5552 8.60952C21.6904 8.74393 21.7667 8.92644 21.7676 9.11709V14.8867C21.7667 15.0774 21.6904 15.2599 21.5552 15.3943C21.419 15.5295 21.2358 15.6068 21.044 15.6097Z" fill="#A6A6A6"/>
</svg>
