<svg width="24" height="24" viewBox="0 0 24 24" fill="none" xmlns="http://www.w3.org/2000/svg">
<g clip-path="url(#clip0_1016_21269)">
<path d="M6.79612 21.8406H2.51095C2.35356 21.8408 2.19791 21.8095 2.05272 21.7488C1.90767 21.6879 1.77554 21.5994 1.66423 21.4883C1.55325 21.3775 1.46505 21.2463 1.40406 21.1019C1.34308 20.9567 1.31113 20.8009 1.3103 20.6435V12.4483C1.31122 12.2496 1.33108 12.0514 1.37007 11.8566C1.40958 11.6637 1.46749 11.4751 1.54293 11.2932C1.61908 11.1117 1.71242 10.9379 1.82185 10.7742C1.9325 10.6097 2.05884 10.4564 2.19921 10.3164C2.33998 10.1752 2.49445 10.048 2.65978 9.93655C2.82355 9.82678 2.9977 9.7331 3.17954 9.6569C3.361 9.58048 3.54921 9.52199 3.74206 9.48228C3.93686 9.44312 4.1352 9.42311 4.33389 9.42236H6.79378C6.95142 9.4255 7.10681 9.4586 7.25201 9.52007C7.39685 9.58124 7.52877 9.66992 7.63992 9.78112C7.75125 9.8917 7.83966 10.023 7.90067 10.1676C7.96143 10.313 7.99319 10.4689 7.99384 10.6265V20.6272C7.99482 20.7859 7.96458 20.9431 7.90419 21.0898C7.84417 21.2372 7.75577 21.3716 7.6446 21.4854C7.53375 21.5992 7.40146 21.6896 7.25494 21.7511C7.10959 21.8111 6.95336 21.8416 6.79612 21.8406ZM4.49796 11.1036C4.30342 11.1046 4.11127 11.1439 3.93192 11.2192C3.75257 11.2946 3.59 11.4045 3.45318 11.5428C3.17613 11.82 3.01875 12.195 3.01547 12.5869V19.5688C3.01645 19.7243 3.0788 19.873 3.18891 19.9828C3.24323 20.0375 3.30761 20.081 3.37877 20.1107C3.44992 20.1403 3.52669 20.1556 3.60378 20.1557H5.70388C5.78214 20.1563 5.85963 20.1411 5.93182 20.1108C6.00401 20.0806 6.06894 20.036 6.12343 19.9799C6.23319 19.8676 6.29467 19.7169 6.29454 19.5599V11.6934C6.29434 11.6164 6.27918 11.5402 6.24942 11.4691C6.21966 11.3981 6.17585 11.3336 6.12109 11.2794C6.01095 11.1692 5.8626 11.1062 5.70681 11.1036H4.49796Z" fill="#A6A6A6"/>
<path d="M14.0598 21.8462H9.77462C9.61696 21.8433 9.46154 21.81 9.31639 21.7484C9.17142 21.6871 9.03933 21.5986 8.9279 21.4875C8.70283 21.2638 8.57563 20.9599 8.57397 20.6425V5.18047C8.57487 4.98179 8.59473 4.78361 8.63374 4.58879C8.67329 4.39591 8.73121 4.20727 8.8066 4.02539C8.88278 3.84385 8.97612 3.67005 9.08552 3.50637C9.19611 3.34164 9.32246 3.18801 9.46289 3.04785C9.60369 2.9067 9.75816 2.77961 9.92346 2.66814C10.0872 2.55837 10.2614 2.46469 10.4432 2.38849C10.6247 2.31221 10.8129 2.25372 11.0057 2.21387C11.2005 2.17478 11.3989 2.15463 11.5976 2.15381H12.2486C12.4473 2.1546 12.645 2.17475 12.8398 2.21387C13.0328 2.25372 13.2218 2.3122 13.4035 2.38849C13.5852 2.46457 13.7592 2.55825 13.9227 2.66814C14.0883 2.77945 14.2424 2.90655 14.3832 3.04785C14.5238 3.18788 14.6502 3.34153 14.7606 3.50637C14.87 3.66993 14.9632 3.84375 15.0389 4.02539C15.1148 4.20715 15.1729 4.39582 15.2124 4.58879C15.2514 4.78361 15.2718 4.98179 15.2727 5.18047V20.6425C15.2672 20.9611 15.1361 21.2648 14.9083 21.4875C14.7958 21.5987 14.6633 21.6872 14.5174 21.7484C14.3726 21.8096 14.217 21.8428 14.0598 21.8462ZM11.7669 3.86703C11.573 3.86818 11.3809 3.90726 11.202 3.98217C11.0225 4.05708 10.8595 4.16663 10.7221 4.30445C10.5848 4.44174 10.476 4.60478 10.4022 4.78436C10.3274 4.96305 10.2882 5.1548 10.2873 5.3485V19.5764C10.2877 19.6532 10.3033 19.7292 10.333 19.8001C10.3628 19.8709 10.4062 19.9351 10.4608 19.9892C10.5149 20.0434 10.5794 20.0866 10.6501 20.1163C10.7209 20.1465 10.7969 20.1629 10.8739 20.1644H12.9664C13.0438 20.1628 13.1201 20.1465 13.1914 20.1163C13.2625 20.0865 13.3269 20.0434 13.3818 19.9892C13.4937 19.8805 13.5582 19.7323 13.5617 19.5764V5.3485C13.5608 5.1548 13.5222 4.96305 13.4475 4.78436C13.3736 4.60478 13.2648 4.44174 13.1275 4.30445C12.9901 4.16669 12.8272 4.05715 12.6476 3.98217C12.4689 3.90726 12.2771 3.86818 12.0833 3.86703H11.7669Z" fill="#A6A6A6"/>
<path d="M21.3645 21.8453H17.0793C16.9217 21.8422 16.7663 21.8089 16.6211 21.7475C16.4761 21.6862 16.344 21.5977 16.2326 21.4866C16.1216 21.3756 16.0334 21.2441 15.9724 21.0995C15.9114 20.9543 15.8795 20.7985 15.8787 20.641V13.3549C15.8798 13.1981 15.9118 13.043 15.9724 12.8983C16.0327 12.7528 16.1209 12.6205 16.2326 12.5094C16.3438 12.3982 16.476 12.3098 16.6211 12.2491C16.7663 12.1884 16.9219 12.1571 17.0793 12.1572H19.5392C19.7379 12.1581 19.9362 12.1783 20.131 12.2173C20.3237 12.257 20.5119 12.3149 20.6936 12.3906C20.875 12.4665 21.0489 12.5596 21.2127 12.6685C21.3779 12.7785 21.5324 12.9043 21.6733 13.0441C21.8137 13.1851 21.9401 13.3395 22.0507 13.505C22.16 13.6685 22.2533 13.8421 22.3296 14.0234C22.4051 14.2049 22.4632 14.3931 22.503 14.5856C22.542 14.78 22.5619 14.9777 22.5628 15.176V20.6363C22.5629 20.7944 22.5325 20.9508 22.4725 21.097C22.4117 21.2428 22.3229 21.3755 22.2118 21.4877C22.1001 21.598 21.9681 21.685 21.8227 21.7439C21.6789 21.8093 21.5225 21.8438 21.3645 21.8453ZM18.1716 13.8542C18.0943 13.8541 18.0173 13.8692 17.946 13.8989C17.8746 13.9285 17.81 13.9721 17.7555 14.0269C17.6462 14.1374 17.584 14.2862 17.5821 14.4416V19.5592C17.5831 19.7148 17.6454 19.8639 17.7555 19.9739C17.8663 20.0839 18.0155 20.1469 18.1716 20.1497H20.2717C20.3494 20.1499 20.4262 20.1337 20.4973 20.1022C20.5685 20.0733 20.6329 20.0307 20.6877 19.9768C20.7424 19.9219 20.7857 19.857 20.8154 19.7855C20.845 19.7138 20.8602 19.6368 20.86 19.5592V15.3368C20.8579 14.9441 20.701 14.5681 20.4228 14.2909C20.1451 14.0132 19.769 13.8564 19.3763 13.8542H18.1716Z" fill="#A6A6A6"/>
</g>
<defs>
<clipPath id="clip0_1016_21269">
<rect width="24" height="24" fill="white"/>
</clipPath>
</defs>
</svg>
