<svg width="24" height="24" viewBox="0 0 24 24" fill="none" xmlns="http://www.w3.org/2000/svg">
<path d="M11.9998 22.7492C9.14906 22.7492 6.41504 21.6167 4.39924 19.6009C2.38344 17.5851 1.25098 14.8511 1.25098 12.0003C1.25098 9.14955 2.38344 6.41553 4.39924 4.39973C6.41504 2.38393 9.14906 1.25146 11.9998 1.25146C12.1983 1.25288 12.3882 1.33234 12.5285 1.47267C12.6689 1.613 12.7483 1.80292 12.7497 2.00137C12.7483 2.19982 12.6689 2.38974 12.5285 2.53007C12.3882 2.6704 12.1983 2.74986 11.9998 2.75128C10.1705 2.75128 8.38234 3.29372 6.86134 4.31002C5.34034 5.32632 4.15487 6.77082 3.45483 8.46087C2.75479 10.1509 2.57163 12.0106 2.92851 13.8047C3.28538 15.5989 4.16627 17.2469 5.45977 18.5404C6.75327 19.8339 8.40129 20.7148 10.1954 21.0716C11.9896 21.4285 13.8492 21.2454 15.5393 20.5453C17.2293 19.8453 18.6738 18.6598 19.6901 17.1388C20.7064 15.6178 21.2489 13.8296 21.2489 12.0003C21.2489 11.8014 21.3279 11.6107 21.4685 11.4701C21.6092 11.3294 21.7999 11.2504 21.9988 11.2504C22.1977 11.2504 22.3884 11.3294 22.529 11.4701C22.6697 11.6107 22.7487 11.8014 22.7487 12.0003C22.7463 14.8504 21.6131 17.583 19.5978 19.5983C17.5825 21.6136 14.8499 22.7468 11.9998 22.7492Z" fill="#A6A6A6"/>
<path fill-rule="evenodd" clip-rule="evenodd" d="M11.9992 17.2491C11.8008 17.2477 11.6109 17.1682 11.4705 17.0279C11.3302 16.8875 11.2508 16.6976 11.2493 16.4992V16.4096C9.92771 15.9938 8.74803 14.8177 8.74803 13.6857C8.7496 13.4873 8.82918 13.298 8.96949 13.1578C9.1098 13.0176 9.29959 12.9378 9.49794 12.9363C9.69665 12.9373 9.88676 13.0164 10.0276 13.1566C10.1684 13.2969 10.2485 13.487 10.2502 13.6857C10.2502 13.8572 10.3459 14.0489 10.6369 14.3729C10.8184 14.5515 11.0253 14.6994 11.2493 14.8128V12.5302L10.249 12.1812C9.78501 12.0549 9.38087 11.7694 9.10658 11.3744C8.83229 10.9795 8.7054 10.5005 8.7492 10.0217C8.7492 8.93427 9.88816 7.6812 11.2549 7.41386C11.2753 7.24732 11.3507 7.09138 11.4705 6.97158C11.6109 6.83125 11.8008 6.75179 11.9992 6.75038C12.1977 6.75179 12.3876 6.83125 12.5279 6.97158C12.6683 7.11191 12.7477 7.30183 12.7492 7.50028V7.51996C14.0692 7.93679 15.25 9.112 15.25 10.2437C15.2482 10.442 15.1688 10.6314 15.0285 10.7716C14.8882 10.9117 14.6983 10.9915 14.5 10.993C14.3017 10.9915 14.113 10.9117 13.9728 10.7716C13.8325 10.6314 13.7519 10.442 13.7501 10.2437C13.7501 9.87645 13.3051 9.41074 12.7492 9.12423V11.4647L13.7513 11.8156C14.1506 11.9206 14.5071 12.1468 14.7719 12.4636C15.0366 12.7803 15.1964 13.1716 15.2289 13.5831C15.2438 13.6919 15.2512 13.8015 15.2511 13.9112V13.9739C15.2075 15.0463 14.0893 16.2549 12.7488 16.5161C12.7432 16.7084 12.6643 16.8915 12.5279 17.0279C12.3876 17.1682 12.1977 17.2477 11.9992 17.2491ZM12.7492 14.9722C12.8849 14.9233 13.0144 14.8561 13.1338 14.7719C13.427 14.565 13.6425 14.2665 13.7478 13.9235C13.7394 13.4244 13.5868 13.3462 13.258 13.231L12.7492 13.0535V14.9722ZM11.2493 8.95715C11.112 9.00686 10.9811 9.07543 10.8607 9.16162C10.5666 9.372 10.3524 9.67539 10.2525 10.0228C10.2525 10.5628 10.4016 10.6428 10.7411 10.7616L11.2493 10.9396V8.95715Z" fill="#A6A6A6"/>
<path d="M16.712 7.69367C16.803 7.73147 16.9005 7.75077 16.999 7.75045C17.0975 7.75085 17.195 7.73164 17.286 7.69394C17.3769 7.65624 17.4595 7.60081 17.5288 7.53088L21.2471 3.81482V6.00347C21.2485 6.20192 21.3279 6.39184 21.4683 6.53217C21.6086 6.6725 21.7985 6.75196 21.997 6.75338C22.1954 6.75196 22.3853 6.6725 22.5257 6.53217C22.666 6.39184 22.7455 6.20192 22.7469 6.00347V2.07526C22.7493 2.05091 22.7505 2.02635 22.7505 2.00167C22.7505 1.80287 22.6715 1.61221 22.5309 1.47163C22.3904 1.33106 22.1997 1.25209 22.0009 1.25209C21.9836 1.25209 21.9664 1.25268 21.9493 1.25386H17.9973C17.7988 1.25528 17.6089 1.33474 17.4686 1.47507C17.3282 1.6154 17.2488 1.80532 17.2474 2.00377C17.2488 2.20222 17.3282 2.39214 17.4686 2.53247C17.6089 2.6728 17.7988 2.75226 17.9973 2.75368H20.1881L16.4693 6.47021C16.33 6.61144 16.2519 6.80185 16.2519 7.00024C16.2519 7.19863 16.33 7.38905 16.4693 7.53028C16.5386 7.60032 16.6211 7.65586 16.712 7.69367Z" fill="#A6A6A6"/>
</svg>
