<svg width="24" height="24" viewBox="0 0 24 24" fill="none" xmlns="http://www.w3.org/2000/svg">
<g clip-path="url(#clip0_1014_21034)">
<path d="M7.70006 13.0264V17.1062C7.70193 17.3039 7.78117 17.4931 7.92095 17.6329C8.06072 17.7728 8.24994 17.8524 8.44768 17.8544C8.64614 17.853 8.83583 17.7736 8.97617 17.6332C9.11651 17.4929 9.19623 17.3029 9.19764 17.1045V13.0547L10.179 14.0356C10.3203 14.1751 10.5107 14.2534 10.7093 14.2534C10.9078 14.2534 11.0989 14.1751 11.2401 14.0356C11.3795 13.8943 11.4575 13.7037 11.4575 13.5052C11.4575 13.3067 11.3795 13.1162 11.2401 12.9748L9.02011 10.755C8.95003 10.6718 8.86259 10.6048 8.76407 10.5587C8.66555 10.5126 8.55821 10.4884 8.44944 10.4879C8.41693 10.488 8.38439 10.4902 8.35218 10.4945C8.17999 10.5106 8.01891 10.5861 7.89634 10.7081L5.62887 12.976C5.48921 13.1172 5.41092 13.3078 5.41092 13.5064C5.41092 13.705 5.48921 13.8956 5.62887 14.0368C5.77014 14.1763 5.96057 14.2546 6.15912 14.2546C6.35767 14.2546 6.54869 14.1763 6.68995 14.0368L7.70006 13.0264Z" fill="#A6A6A6"/>
<path fill-rule="evenodd" clip-rule="evenodd" d="M2.05249 7.67511V10.7948C2.04667 10.8843 2.04373 10.9741 2.0437 11.0643V12.6626C2.04384 12.6826 2.04484 12.7026 2.04668 12.7224V17.2788C2.04533 17.5608 2.0727 17.8422 2.12871 18.1187C2.1825 18.386 2.26313 18.6473 2.36893 18.8986C2.47272 19.146 2.60017 19.3827 2.74977 19.6054C2.89882 19.8264 3.069 20.0328 3.25716 20.2216C3.44572 20.4112 3.65168 20.582 3.87295 20.7321C4.09588 20.8832 4.33339 21.0122 4.58132 21.1173C4.83261 21.2241 5.09376 21.3057 5.36116 21.3609C5.63756 21.4176 5.91862 21.446 6.20077 21.446H11.7055C11.7247 21.4471 11.744 21.4473 11.7632 21.4467H16.8222C17.3694 21.4476 17.9114 21.3403 18.4171 21.131C18.9227 20.9217 19.382 20.6146 19.7686 20.2272C20.1551 19.8398 20.4613 19.3798 20.6695 18.8737C20.8777 18.3676 20.9838 17.8254 20.9818 17.2781V16.7344L20.9909 16.7303C21.1802 16.6461 21.3516 16.5262 21.4959 16.3775C21.6399 16.2292 21.7548 16.0549 21.834 15.8639C21.916 15.6655 21.958 15.4529 21.9576 15.2382V13.3357C21.9585 13.0157 21.8644 12.7025 21.6875 12.4358C21.513 12.1743 21.2668 11.9684 20.9788 11.8425V11.0643C20.9787 10.9837 20.9764 10.9035 20.9717 10.8235C20.9603 10.6217 20.9344 10.4209 20.8942 10.2225C20.8385 9.95531 20.757 9.69407 20.651 9.44253C20.5461 9.19463 20.4175 8.95757 20.2667 8.73461C20.117 8.51357 19.9468 8.3072 19.7581 8.11838C19.5693 7.92966 19.3628 7.75936 19.1417 7.60966C18.9186 7.45928 18.6817 7.33062 18.4339 7.2256C18.2787 7.16049 18.1196 7.10496 17.9577 7.05927C17.5887 6.95373 17.2038 6.89878 16.8132 6.89866H14.8451V4.08249C14.8459 3.68666 14.7505 3.29657 14.567 2.9458C14.3836 2.59504 14.1177 2.29413 13.7921 2.06899C13.4679 1.84183 13.0928 1.69776 12.6999 1.64943C12.307 1.6011 11.9082 1.64999 11.5386 1.7918L4.20458 4.56246C3.5741 4.80417 3.0313 5.23065 2.6473 5.78605C2.26329 6.34146 2.05597 6.99989 2.05249 7.67511ZM14.1524 8.30566C14.0967 8.30566 14.0414 8.29896 13.9877 8.2858H6.20663C5.66729 8.28638 5.1442 8.44346 4.69814 8.73188C4.5356 8.83727 4.38331 8.96011 4.24423 9.09919C3.723 9.62042 3.42983 10.3271 3.42903 11.0643V12.6626C3.42884 12.6908 3.42693 12.7189 3.42337 12.7466L3.41653 17.2823C3.41748 18.0195 3.71079 18.7262 4.23212 19.2474C4.75344 19.7686 5.46007 20.0618 6.19725 20.0626H11.698C11.7197 20.0611 11.7414 20.0608 11.7632 20.0614H16.8252C17.5623 20.0598 18.2687 19.7659 18.7893 19.2441C19.31 18.7223 19.6024 18.0153 19.6024 17.2781V16.8726H18.54C18.5245 16.8726 18.5091 16.8726 18.4936 16.8723C17.9596 16.8715 17.4405 16.71 17.0024 16.412C16.902 16.3451 16.8059 16.2715 16.7149 16.1916C16.4727 15.9802 16.2718 15.7257 16.1225 15.4411C15.9712 15.1521 15.8793 14.8356 15.8524 14.5105C15.8342 14.3211 15.8378 14.1303 15.8624 13.9417C15.8867 13.7559 15.9313 13.5734 15.996 13.3976C16.061 13.2212 16.1453 13.0525 16.2473 12.8947C16.3509 12.7341 16.472 12.5853 16.6077 12.4507C16.7248 12.3317 16.8534 12.2247 16.992 12.1316C17.1299 12.039 17.2763 11.9605 17.4297 11.897C17.6137 11.8212 17.8056 11.7671 18.0013 11.7357C18.1402 11.7123 18.2812 11.7001 18.4229 11.6996H19.5911V11.0661C19.5903 10.329 19.2973 9.62217 18.7761 9.10095C18.2549 8.57972 17.5481 8.28659 16.811 8.2858H14.3171C14.2633 8.29896 14.208 8.30566 14.1524 8.30566ZM13.4597 4.08249V6.89866H6.20929C5.7917 6.89878 5.38058 6.96159 4.98852 7.08186C4.85325 7.12292 4.72009 7.17088 4.58952 7.2256C4.34197 7.33062 4.10526 7.45929 3.88233 7.60966L3.85456 7.62862C3.70619 7.73032 3.56393 7.84196 3.42882 7.96312V7.67511C3.4311 7.28066 3.55219 6.89606 3.7763 6.57146C4.00041 6.24686 4.31713 5.99732 4.68516 5.8554L12.0186 3.08474C12.1789 3.02145 12.3524 2.99928 12.5234 3.02024C12.6944 3.0412 12.8575 3.10462 12.9977 3.20473C13.1409 3.3019 13.2579 3.4328 13.3384 3.58588C13.419 3.73895 13.4606 3.9095 13.4597 4.08249ZM18.4063 13.0872L18.4229 13.0874H20.2858C20.2941 13.0873 20.3025 13.0871 20.3108 13.0867H20.3803C20.434 13.0867 20.4853 13.108 20.5233 13.1459C20.5613 13.1838 20.5829 13.2352 20.5831 13.2889V13.9537C20.5839 13.9631 20.5839 13.9725 20.5831 13.9819V15.2382C20.5834 15.3039 20.5581 15.3671 20.5127 15.4145C20.4923 15.437 20.4671 15.455 20.4395 15.4676C20.4119 15.4802 20.382 15.4871 20.3516 15.4878H18.5412C18.2276 15.4939 17.9225 15.3858 17.6828 15.1836C17.4431 14.9813 17.2854 14.6987 17.2387 14.3886C17.2213 14.2117 17.2448 14.0333 17.3072 13.8669C17.3696 13.7005 17.4691 13.5506 17.5984 13.4288C17.7067 13.3185 17.8363 13.2313 17.9793 13.1726C18.1148 13.1169 18.26 13.088 18.4063 13.0872Z" fill="#A6A6A6"/>
</g>
<defs>
<clipPath id="clip0_1014_21034">
<rect width="24" height="24" fill="white"/>
</clipPath>
</defs>
</svg>
