<svg width="40" height="40" viewBox="0 0 40 40" fill="none" xmlns="http://www.w3.org/2000/svg">
<g clip-path="url(#clip0_37387_437)">
<path fill-rule="evenodd" clip-rule="evenodd" d="M25.1141 36.2409C24.777 36.2376 24.4414 36.195 24.1141 36.1139C23.1331 35.8506 22.2929 35.2163 21.7711 34.3449L21.5801 34.0259C20.6401 32.4009 19.3491 32.4009 18.4091 34.0259L18.2341 34.3259C17.9813 34.7635 17.644 35.1467 17.242 35.4531C16.84 35.7595 16.3812 35.9831 15.8921 36.1109C15.4043 36.2455 14.8943 36.2794 14.393 36.2106C13.8917 36.1419 13.4096 35.9718 12.9761 35.7109L10.2321 34.1379C9.26111 33.5797 8.55132 32.6589 8.25864 31.5778C7.96596 30.4967 8.11431 29.3437 8.6711 28.3719C8.88727 28.0902 9.02968 27.759 9.08538 27.4083C9.14109 27.0577 9.10834 26.6987 8.9901 26.3639C8.76016 26.0923 8.46567 25.8829 8.13368 25.7548C7.8017 25.6267 7.44285 25.5841 7.0901 25.6309C5.97118 25.628 4.89899 25.1818 4.10826 24.3902C3.31753 23.5985 2.87268 22.5258 2.87109 21.4069V18.6069C2.87321 17.4878 3.3187 16.4151 4.11003 15.6238C4.90135 14.8325 5.97401 14.387 7.0931 14.3849C7.44585 14.4316 7.8047 14.389 8.13668 14.2609C8.46867 14.1328 8.76316 13.9234 8.99311 13.6519C9.11576 13.3169 9.15056 12.9561 9.09419 12.6039C9.03782 12.2517 8.89216 11.9198 8.6711 11.6399C8.11687 10.6694 7.96809 9.51941 8.2571 8.43986C8.39521 7.90036 8.64148 7.39455 8.98098 6.95311C9.32048 6.51167 9.74614 6.14382 10.2321 5.87186L12.9891 4.29386C13.8711 3.78444 14.9187 3.64426 15.9036 3.90387C16.8885 4.16349 17.7309 4.80186 18.2471 5.67986L18.4381 5.99886C19.3781 7.62386 20.6691 7.62386 21.6091 5.99886L21.7841 5.69886C22.0383 5.26043 22.3766 4.87655 22.7796 4.56926C23.1826 4.26198 23.6424 4.03735 24.1324 3.90828C24.6225 3.77921 25.1333 3.74824 25.6354 3.81716C26.1374 3.88608 26.6209 4.05352 27.0581 4.30986L29.7991 5.88686C30.7707 6.44506 31.4808 7.36617 31.7735 8.44775C32.0662 9.52933 31.9175 10.6829 31.3601 11.6549C31.1439 11.9365 31.0015 12.2677 30.9458 12.6184C30.8901 12.969 30.9229 13.3281 31.0411 13.6629C31.2711 13.9344 31.5656 14.1438 31.8975 14.2719C32.2295 14.4 32.5884 14.4426 32.9411 14.3959C34.0602 14.398 35.1329 14.8435 35.9242 15.6348C36.7155 16.4261 37.161 17.4988 37.1631 18.6179V21.4179C37.161 22.537 36.7155 23.6096 35.9242 24.4009C35.1329 25.1922 34.0602 25.6377 32.9411 25.6399C32.5884 25.5931 32.2295 25.6357 31.8975 25.7638C31.5656 25.8919 31.2711 26.1013 31.0411 26.3729C30.9189 26.707 30.884 27.0669 30.9398 27.4183C30.9957 27.7697 31.1403 28.101 31.3601 28.3809C31.6383 28.86 31.8182 29.3897 31.8893 29.9392C31.9603 30.4886 31.9212 31.0467 31.7741 31.5809C31.6355 32.1199 31.3889 32.6252 31.0493 33.0661C30.7096 33.507 30.284 33.8743 29.7981 34.1459L27.0421 35.7229C26.4542 36.0571 25.7904 36.2355 25.1141 36.2409ZM20.002 29C24.9725 29 29.002 24.9706 29.002 20C29.002 15.0294 24.9725 11 20.002 11C15.0314 11 11.002 15.0294 11.002 20C11.002 24.9706 15.0314 29 20.002 29Z" fill="#FBB03B"/>
<path fill-rule="evenodd" clip-rule="evenodd" d="M14.1574 24C14.3261 24 14.476 23.8635 14.5301 23.6605L14.726 22.9264C14.7801 22.7234 14.93 22.5869 15.0987 22.5869H16.8861C17.0548 22.5869 17.2047 22.7234 17.2588 22.9264L17.4547 23.6605C17.5088 23.8635 17.6587 24 17.8274 24H18.6089C18.8818 24 19.0718 23.6558 18.9789 23.3298L16.984 16.3298C16.9276 16.1318 16.7796 16 16.614 16H15.3888C15.2231 16 15.0752 16.1318 15.0188 16.3298L13.0238 23.3298C12.9309 23.6558 13.121 24 13.3939 24H14.1574ZM15.6214 19.5615C15.7411 19.1073 16.2463 19.1062 16.3673 19.5598L16.5972 20.4222C16.6837 20.7464 16.4939 21.0826 16.2245 21.0826H15.7673C15.4984 21.0826 15.3087 20.7477 15.3941 20.4238L15.6214 19.5615Z" fill="#685AD3"/>
<path fill-rule="evenodd" clip-rule="evenodd" d="M24.4147 19.8519C24.5822 19.4644 24.666 19.0389 24.666 18.5755C24.666 18.0741 24.5792 17.6296 24.4057 17.2422C24.2322 16.8547 23.9719 16.5508 23.6248 16.3305C23.2777 16.1102 22.8529 16 22.3502 16H20.2574C20.04 16 19.8638 16.2239 19.8638 16.5V23.5C19.8638 23.7761 20.04 24 20.2574 24H21.0052C21.2225 24 21.3987 23.7761 21.3987 23.5V21.6282C21.3987 21.3521 21.5749 21.1282 21.7923 21.1282H22.3502C22.8648 21.1282 23.2957 21.0104 23.6427 20.7749C23.9898 20.5394 24.2471 20.2317 24.4147 19.8519ZM22.8888 19.3162C22.7451 19.491 22.5267 19.5783 22.2335 19.5783H21.7923C21.5749 19.5783 21.3987 19.3545 21.3987 19.0783V18.0726C21.3987 17.7965 21.5749 17.5726 21.7923 17.5726H22.2335C22.5267 17.5726 22.7451 17.66 22.8888 17.8348C23.0324 18.0095 23.1042 18.2564 23.1042 18.5755C23.1042 18.8946 23.0324 19.1415 22.8888 19.3162Z" fill="#685AD3"/>
<path d="M26.6065 16C26.8238 16 27 16.2239 27 16.5V23.5C27 23.7761 26.8238 24 26.6065 24H25.8586C25.6413 24 25.4651 23.7761 25.4651 23.5V16.5C25.4651 16.2239 25.6413 16 25.8586 16H26.6065Z" fill="#685AD3"/>
</g>
<defs>
<clipPath id="clip0_37387_437">
<rect width="39.999" height="39.999" fill="white" transform="translate(-0.00195312 0.00189209)"/>
</clipPath>
</defs>
</svg>
