<svg width="40" height="41" viewBox="0 0 40 41" fill="none" xmlns="http://www.w3.org/2000/svg">
<path d="M3.99911 33.6172L3.51528 33.491L3.51404 33.4959L3.99911 33.6172ZM27.9991 33.6172L27.5153 33.491L27.5117 33.505L27.5088 33.5191L27.9991 33.6172ZM33.9991 10.6172L34.4829 10.7434L34.4866 10.7294L34.4894 10.7152L33.9991 10.6172ZM9.99911 10.6172L10.4829 10.7434L10.4842 10.7384L9.99911 10.6172ZM18.4903 4.21525C18.5444 3.94447 18.3688 3.68105 18.0981 3.6269C17.8273 3.57274 17.5639 3.74835 17.5097 4.01913L18.4903 4.21525ZM16.5097 9.01913C16.4556 9.28991 16.6312 9.55332 16.9019 9.60748C17.1727 9.66163 17.4361 9.48603 17.4903 9.21525L16.5097 9.01913ZM28.4903 4.21525C28.5444 3.94447 28.3688 3.68105 28.0981 3.6269C27.8273 3.57274 27.5639 3.74835 27.5097 4.01913L28.4903 4.21525ZM26.5097 9.01913C26.4556 9.28991 26.6312 9.55332 26.9019 9.60748C27.1727 9.66163 27.4361 9.48603 27.4903 9.21525L26.5097 9.01913ZM14 20.1172C13.7239 20.1172 13.5 20.341 13.5 20.6172C13.5 20.8933 13.7239 21.1172 14 21.1172V20.1172ZM24.5 21.1172C24.7761 21.1172 25 20.8933 25 20.6172C25 20.341 24.7761 20.1172 24.5 20.1172V21.1172ZM12 27.1172C11.7239 27.1172 11.5 27.341 11.5 27.6172C11.5 27.8933 11.7239 28.1172 12 28.1172V27.1172ZM22.5 28.1172C22.7761 28.1172 23 27.8933 23 27.6172C23 27.341 22.7761 27.1172 22.5 27.1172V28.1172ZM34.5519 34.1191H35.0519V34.1191L34.5519 34.1191ZM13.9991 7.11719H29.9991V6.11719H13.9991V7.11719ZM33.5153 10.491L27.5153 33.491L28.4829 33.7434L34.4829 10.7434L33.5153 10.491ZM23.9991 37.1172H7.99911V38.1172H23.9991V37.1172ZM4.48292 33.7434L10.4829 10.7434L9.5153 10.491L3.5153 33.491L4.48292 33.7434ZM7.99911 37.1172C7.03636 37.1172 6.03171 36.6763 5.32824 36.0054C4.62265 35.3324 4.29213 34.5066 4.48418 33.7385L3.51404 33.4959C3.20602 34.7278 3.77093 35.902 4.63807 36.729C5.50734 37.5581 6.75273 38.1172 7.99911 38.1172V37.1172ZM27.5088 33.5191C27.2699 34.7137 26.8523 35.6128 26.2797 36.208C25.7197 36.7902 24.9782 37.1172 23.9991 37.1172V38.1172C25.2291 38.1172 26.2377 37.6941 27.0004 36.9013C27.7505 36.1216 28.2283 35.0207 28.4894 33.7152L27.5088 33.5191ZM29.9991 7.11719C31.0011 7.11719 32.0037 7.45964 32.6859 8.05611C33.35 8.63671 33.7205 9.46053 33.5088 10.5191L34.4894 10.7152C34.7776 9.27385 34.2527 8.09766 33.3441 7.30327C32.4536 6.52473 31.2063 6.11719 29.9991 6.11719V7.11719ZM13.9991 6.11719C12.7246 6.11719 11.7204 6.70044 10.9831 7.53649C10.2542 8.36313 9.77719 9.44316 9.51403 10.4959L10.4842 10.7384C10.721 9.79122 11.1394 8.87124 11.7332 8.19789C12.3187 7.53394 13.0645 7.11719 13.9991 7.11719V6.11719ZM17.5097 4.01913L16.5097 9.01913L17.4903 9.21525L18.4903 4.21525L17.5097 4.01913ZM27.5097 4.01913L26.5097 9.01913L27.4903 9.21525L28.4903 4.21525L27.5097 4.01913ZM14 21.1172H24.5V20.1172H14V21.1172ZM12 28.1172H22.5V27.1172H12V28.1172ZM24.1988 38.6191H30.5519V37.6191H24.1988V38.6191ZM30.5519 38.6191C33.0372 38.6191 35.0519 36.6044 35.0519 34.1191H34.0519C34.0519 36.0521 32.4849 37.6191 30.5519 37.6191V38.6191ZM35.0519 34.1191L35.0504 9.61716L34.0504 9.61722L34.0519 34.1192L35.0519 34.1191Z" fill="#6E7191"/>
</svg>
