<svg width="41" height="41" viewBox="0 0 41 41" fill="none" xmlns="http://www.w3.org/2000/svg">
<path d="M16.3421 23.7241C16.3421 25.3409 18.3229 27.3046 20.4056 27.3966C22.4884 27.4886 24.6741 25.5069 24.6741 24.091C24.7433 23.556 24.6135 23.0142 24.3093 22.5686C24.0051 22.123 23.5478 21.8048 23.0243 21.6743L18.0089 19.9256C17.4843 19.7971 17.0256 19.4793 16.7211 19.0332C16.4166 18.5871 16.2876 18.0442 16.3591 17.5089C16.3591 16.109 18.3229 14.0283 20.4066 14.1193C22.4904 14.2103 24.6911 16.259 24.6911 17.8758M20.5096 13.3104V28.3085M37.1745 20.8084C37.1745 24.1042 36.1972 27.326 34.3662 30.0663C32.5352 32.8067 29.9327 34.9425 26.8878 36.2038C23.843 37.4651 20.4925 37.7951 17.26 37.1522C14.0275 36.5093 11.0583 34.9224 8.72779 32.592C6.39726 30.2616 4.8101 27.2924 4.167 24.06C3.52391 20.8276 3.85377 17.4771 5.11487 14.4321C6.37596 11.3872 8.51167 8.78457 11.2519 6.95339C13.9921 5.12222 17.2138 4.14473 20.5096 4.14453M37.1914 10.9185V4.25152H30.5254M37.1725 4.14453L28.8406 12.4765" stroke="#6E7191" stroke-linecap="round" stroke-linejoin="round"/>
</svg>
