<svg width="41" height="41" viewBox="0 0 41 41" fill="none" xmlns="http://www.w3.org/2000/svg">
<g clip-path="url(#clip0_35181_7720)">
<path d="M8.5 13.832C8.5 10.7913 11 10.3391 16.5 5.83203C18.5845 4.12388 18.742 3.83203 20.5 3.83203C22.258 3.83203 22.4155 4.12388 24.5 5.83203C30.0697 10.3962 32.5 10.7913 32.5 13.832V34.832C32.5 36.4889 31.1569 37.832 29.5 37.832H11.5C9.84315 37.832 8.5 36.4889 8.5 34.832V13.832Z" stroke="#6E7191"/>
<path d="M23 13.332C23 14.7127 21.8807 15.832 20.5 15.832C19.1193 15.832 18 14.7127 18 13.332C18 11.9513 19.1193 10.832 20.5 10.832C21.8807 10.832 23 11.9513 23 13.332Z" stroke="#6E7191"/>
</g>
<defs>
<clipPath id="clip0_35181_7720">
<rect width="40" height="40" fill="white" transform="translate(0.5 0.832031)"/>
</clipPath>
</defs>
</svg>
