<svg width="41" height="41" viewBox="0 0 41 41" fill="none" xmlns="http://www.w3.org/2000/svg">
<g clip-path="url(#clip0_35181_6206)">
<path d="M31.1622 21.9218V28.0888C31.1622 33.2888 26.3122 37.5057 20.3282 37.5057C14.3442 37.5057 9.49518 33.2888 9.49518 28.0888V21.9218M31.1622 21.9218C31.1622 27.1218 26.3132 30.8388 20.3292 30.8388C14.3452 30.8388 9.49518 27.1218 9.49518 21.9218M31.1622 21.9218V13.5878M31.1622 21.9218C31.1622 27.1218 26.3122 30.8378 20.3282 30.8378C14.3442 30.8378 9.49518 27.1228 9.49518 21.9218M9.49518 21.9218L9.49518 13.5878M31.1622 13.5878C31.1676 15.0401 30.7695 16.4654 30.0122 17.7048C28.2292 20.6378 24.5622 22.5048 20.3282 22.5048C16.0942 22.5048 12.4282 20.6378 10.6442 17.7048C9.88726 16.4653 9.48947 15.04 9.49518 13.5878M31.1622 13.5878C31.1429 12.3144 30.8502 11.0601 30.3037 9.90983C29.7573 8.75954 28.97 7.74016 27.9952 6.92075C25.8516 5.11559 23.1314 4.13976 20.3292 4.17075M9.49518 13.5878C9.51281 12.3166 9.80493 11.0642 10.3515 9.91646C10.8982 8.76869 11.6864 7.75259 12.6622 6.93775C14.8 5.12007 17.5233 4.13725 20.3292 4.17075M9.49518 13.5878C9.49518 8.38775 14.3452 4.17075 20.3292 4.17075" stroke="#6E7191" stroke-linecap="round" stroke-linejoin="round"/>
</g>
<defs>
<clipPath id="clip0_35181_6206">
<rect width="40.005" height="40.005" fill="white" transform="translate(0.495117 0.84375)"/>
</clipPath>
</defs>
</svg>
