<svg width="41" height="41" viewBox="0 0 41 41" fill="none" xmlns="http://www.w3.org/2000/svg">
<path d="M28.3292 37.2952V37.7952H28.9696L28.8143 37.1739L28.3292 37.2952ZM10.6264 37.2952V36.7952H10.6257L10.6264 37.2952ZM3.69929 30.349L4.19929 30.3511V30.349H3.69929ZM10.6414 13.0512V12.5512V13.0512ZM28.3132 13.0512V13.5512H28.3134L28.3132 13.0512ZM29.667 13.1832L29.764 12.6927L29.7638 12.6926L29.667 13.1832ZM32.0837 14.1631L32.3564 13.744L32.3558 13.7436L32.0837 14.1631ZM34.5954 17.0507L34.1426 17.2627L34.1429 17.2633L34.5954 17.0507ZM35.2403 19.6194L34.741 19.6458L34.7411 19.6476L35.2403 19.6194ZM35.2503 21.0552V21.5552H35.7503V21.0552H35.2503ZM30.9959 21.0552L30.9914 21.5552H30.9959V21.0552ZM27.9783 22.302L28.327 22.6605L28.3343 22.6531L27.9783 22.302ZM26.7164 25.7346L26.2186 25.7819L26.2195 25.7901L26.7164 25.7346ZM31.1959 29.6751V29.1751L31.1876 29.1752L31.1959 29.6751ZM35.2553 29.6751H35.7553V29.1751H35.2553V29.6751ZM35.2553 30.349H34.7553L34.7553 30.3508L35.2553 30.349ZM28.3282 37.2912L28.3289 36.7912L27.6876 36.7903L27.8431 37.4124L28.3282 37.2912ZM24.7937 6.40103L24.2943 6.37578L24.2937 6.3884V6.40103H24.7937ZM24.1257 3.86135L24.5481 3.5937L24.5184 3.54694L24.4793 3.5078L24.1257 3.86135ZM21.932 3.53939L21.8036 3.05616L21.7798 3.06249L21.7567 3.07112L21.932 3.53939ZM5.90501 9.53864L6.05926 10.0143L6.06986 10.0108L6.0803 10.0069L5.90501 9.53864ZM4.35421 10.6285L3.95897 10.3223L3.93622 10.3516L3.91805 10.384L4.35421 10.6285ZM3.76628 12.6772L3.26686 12.6532L3.26639 12.6629L3.2663 12.6725L3.76628 12.6772ZM11.9123 25.3647C11.9123 25.0885 11.6885 24.8647 11.4123 24.8647C11.1362 24.8647 10.9123 25.0885 10.9123 25.3647H11.9123ZM10.9123 34.0886C10.9123 34.3647 11.1362 34.5886 11.4123 34.5886C11.6885 34.5886 11.9123 34.3647 11.9123 34.0886H10.9123ZM15.7728 30.2261C16.0489 30.2261 16.2728 30.0023 16.2728 29.7261C16.2728 29.45 16.0489 29.2261 15.7728 29.2261V30.2261ZM7.04887 29.2261C6.77273 29.2261 6.54887 29.45 6.54887 29.7261C6.54887 30.0023 6.77273 30.2261 7.04887 30.2261V29.2261ZM36.8288 29.6759V30.1759H36.9468L37.0524 30.1231L36.8288 29.6759ZM36.7741 21.0569L36.8103 20.5582L36.7922 20.5569H36.7741V21.0569ZM37.1559 21.248L37.5401 20.9279L37.5331 20.9199L37.1559 21.248ZM37.3102 21.683L36.8102 21.676V21.683H37.3102ZM37.3102 29.049H36.8101L36.8103 29.0583L37.3102 29.049ZM37.1637 29.4941L36.7665 29.1904L36.7617 29.1967L36.7571 29.2031L37.1637 29.4941ZM36.8307 29.6749L36.8077 29.1755L36.7019 29.1803L36.6071 29.2277L36.8307 29.6749ZM28.3292 36.7952H10.6264V37.7952H28.3292V36.7952ZM10.6257 36.7952C9.77994 36.7964 8.94228 36.6304 8.16088 36.3068L7.77824 37.2307C8.6814 37.6048 9.6496 37.7966 10.6272 37.7952L10.6257 36.7952ZM8.16088 36.3068C7.37949 35.9832 6.66978 35.5083 6.07255 34.9094L5.36448 35.6156C6.05477 36.3077 6.87508 36.8566 7.77824 37.2307L8.16088 36.3068ZM6.07255 34.9094C5.47533 34.3106 5.00238 33.5996 4.6809 32.8173L3.75596 33.1974C4.12754 34.1016 4.67419 34.9234 5.36448 35.6156L6.07255 34.9094ZM4.6809 32.8173C4.35941 32.035 4.19574 31.1969 4.19928 30.3511L3.19929 30.3469C3.19519 31.3245 3.38437 32.2932 3.75596 33.1974L4.6809 32.8173ZM4.19929 30.349V19.9933H3.19929V30.349H4.19929ZM4.19929 19.9933C4.19929 18.2848 4.87801 16.6462 6.08615 15.4381L5.37904 14.731C3.98337 16.1266 3.19929 18.0196 3.19929 19.9933H4.19929ZM6.08615 15.4381C7.29428 14.2299 8.93286 13.5512 10.6414 13.5512V12.5512C8.66764 12.5512 6.77471 13.3353 5.37904 14.731L6.08615 15.4381ZM10.6414 13.5512H28.3132V12.5512H10.6414V13.5512ZM28.3134 13.5512C28.7353 13.5511 29.1563 13.5921 29.5703 13.6737L29.7638 12.6926C29.2859 12.5984 28.8001 12.5511 28.3131 12.5512L28.3134 13.5512ZM29.5701 13.6737C30.3683 13.8314 31.1291 14.1399 31.8117 14.5826L32.3558 13.7436C31.5665 13.2317 30.6869 12.875 29.764 12.6927L29.5701 13.6737ZM31.811 14.5822C32.8231 15.2407 33.6307 16.1692 34.1426 17.2627L35.0483 16.8387C34.4573 15.5762 33.5249 14.5042 32.3564 13.744L31.811 14.5822ZM34.1429 17.2633C34.4942 18.0114 34.6974 18.8204 34.741 19.6458L35.7396 19.593C35.6892 18.6386 35.4543 17.7031 35.048 16.8381L34.1429 17.2633ZM34.7411 19.6476C34.7475 19.7605 34.7503 19.879 34.7503 19.9983H35.7503C35.7503 19.8637 35.7472 19.7262 35.7396 19.5912L34.7411 19.6476ZM34.7503 19.9983V21.0552H35.7503V19.9983H34.7503ZM35.2503 20.5552H30.9959V21.5552H35.2503V20.5552ZM31.0003 20.5552C30.3724 20.5497 29.7498 20.6704 29.1695 20.9101L29.5514 21.8343C30.0079 21.6457 30.4976 21.5508 30.9914 21.5552L31.0003 20.5552ZM29.1695 20.9101C28.5892 21.1499 28.063 21.5039 27.6222 21.951L28.3343 22.6531C28.6811 22.3014 29.0949 22.0229 29.5514 21.8343L29.1695 20.9101ZM27.6296 21.9436C27.1223 22.4371 26.7321 23.0381 26.488 23.7024L27.4265 24.0475C27.6191 23.5236 27.9268 23.0496 28.3269 22.6605L27.6296 21.9436ZM26.488 23.7024C26.2438 24.3667 26.1517 25.0773 26.2187 25.7819L27.2142 25.6873C27.1614 25.1317 27.234 24.5713 27.4265 24.0475L26.488 23.7024ZM26.2195 25.7901C26.3558 27.0102 26.9422 28.1356 27.8639 28.9465L28.5244 28.1956C27.7895 27.5491 27.322 26.6518 27.2133 25.6791L26.2195 25.7901ZM27.8639 28.9465C28.7857 29.7573 29.9766 30.1954 31.2041 30.1751L31.1876 29.1752C30.2089 29.1914 29.2593 28.8421 28.5244 28.1956L27.8639 28.9465ZM31.1959 30.1751H35.2553V29.1751H31.1959V30.1751ZM34.7553 29.6751V30.349H35.7553V29.6751H34.7553ZM34.7553 30.3508C34.7583 31.1962 34.5942 32.0339 34.2724 32.8157L35.1972 33.1962C35.569 32.2926 35.7587 31.3244 35.7553 30.3473L34.7553 30.3508ZM34.2724 32.8157C33.9507 33.5975 33.4776 34.308 32.8805 34.9064L33.5883 35.6128C34.2785 34.9211 34.8253 34.0999 35.1972 33.1962L34.2724 32.8157ZM32.8805 34.9064C32.2833 35.5049 31.5738 35.9795 30.7927 36.3029L31.1753 37.2268C32.0781 36.853 32.8981 36.3045 33.5883 35.6128L32.8805 34.9064ZM30.7927 36.3029C30.0116 36.6263 29.1743 36.7923 28.3289 36.7912L28.3276 37.7912C29.3047 37.7924 30.2725 37.6007 31.1753 37.2268L30.7927 36.3029ZM27.8431 37.4124L27.8441 37.4164L28.8143 37.1739L28.8133 37.1699L27.8431 37.4124ZM25.2937 13.0512V6.40103H24.2937V13.0512H25.2937ZM25.293 6.42628C25.3435 5.42778 25.0832 4.43818 24.5481 3.5937L23.7034 4.129C24.1279 4.79883 24.3343 5.58378 24.2943 6.37578L25.293 6.42628ZM24.4793 3.5078C23.972 3.00053 23.2446 2.92283 22.7511 2.93237C22.49 2.93742 22.2569 2.96771 22.0898 2.99635C22.0057 3.01076 21.9369 3.02499 21.8879 3.03594C21.8634 3.04142 21.8437 3.0461 21.8295 3.04959C21.8224 3.05134 21.8166 3.05279 21.8123 3.0539C21.8101 3.05445 21.8083 3.05492 21.8069 3.0553C21.8061 3.05549 21.8055 3.05566 21.805 3.0558C21.8047 3.05587 21.8044 3.05594 21.8042 3.056C21.8041 3.05603 21.8039 3.05607 21.8039 3.05608C21.8037 3.05612 21.8036 3.05616 21.932 3.53939C22.0604 4.02262 22.0603 4.02266 22.0602 4.02269C22.0601 4.0227 22.06 4.02273 22.0599 4.02275C22.0598 4.02278 22.0597 4.02281 22.0596 4.02284C22.0594 4.02289 22.0593 4.02291 22.0593 4.02292C22.0593 4.02292 22.0596 4.02284 22.0602 4.02267C22.0615 4.02234 22.0642 4.02167 22.0681 4.02072C22.0759 4.0188 22.0887 4.01574 22.106 4.01187C22.1407 4.00412 22.193 3.99324 22.2587 3.98198C22.3912 3.95928 22.5725 3.93601 22.7704 3.93219C23.1951 3.92398 23.5645 4.00726 23.7722 4.21491L24.4793 3.5078ZM21.7567 3.07112L5.72973 9.07037L6.0803 10.0069L22.1073 4.00766L21.7567 3.07112ZM5.75077 9.06303C5.04062 9.29333 4.41625 9.73212 3.95897 10.3223L4.74944 10.9348C5.08371 10.5034 5.54013 10.1826 6.05926 10.0143L5.75077 9.06303ZM3.91805 10.384C3.52808 11.0798 3.30515 11.8566 3.26686 12.6532L4.2657 12.7013C4.29656 12.0594 4.47617 11.4335 4.79036 10.873L3.91805 10.384ZM3.2663 12.6725L3.19631 20.0476L4.19627 20.0571L4.26626 12.682L3.2663 12.6725ZM10.9123 25.3647V34.0886H11.9123V25.3647H10.9123ZM15.7728 29.2261H7.04887V30.2261H15.7728V29.2261ZM35.2571 30.1759H36.8288V29.1759H35.2571V30.1759ZM36.7741 20.5569H35.2571V21.5569H36.7741V20.5569ZM37.5331 20.9199C37.3497 20.709 37.0901 20.5785 36.8103 20.5582L36.7379 21.5556C36.7532 21.5567 36.7679 21.5638 36.7786 21.5762L37.5331 20.9199ZM37.8101 21.6901C37.814 21.4114 37.7177 21.1412 37.5401 20.928L36.7717 21.5681C36.7973 21.5988 36.8108 21.6372 36.8102 21.676L37.8101 21.6901ZM37.8102 29.049V21.683H36.8102V29.049H37.8102ZM37.561 29.7977C37.7265 29.5812 37.8152 29.3142 37.8101 29.0397L36.8103 29.0583C36.8111 29.105 36.796 29.1518 36.7665 29.1904L37.561 29.7977ZM37.257 30.062C37.3813 29.9944 37.4883 29.8997 37.5703 29.785L36.7571 29.2031C36.7628 29.1952 36.7705 29.1883 36.7794 29.1834L37.257 30.062ZM36.8537 30.1744C36.9947 30.1679 37.1327 30.1296 37.257 30.062L36.7794 29.1834C36.7884 29.1785 36.798 29.1759 36.8077 29.1755L36.8537 30.1744ZM37.0524 30.1231L37.0543 30.1222L36.6071 29.2277L36.6052 29.2287L37.0524 30.1231Z" fill="#6E7191"/>
</svg>
