<svg width="41" height="41" viewBox="0 0 41 41" fill="none" xmlns="http://www.w3.org/2000/svg">
<g clip-path="url(#clip0_35181_5594)">
<path d="M28.129 37.0218V37.5218H28.7694L28.6141 36.9005L28.129 37.0218ZM10.4262 37.0218V36.5218H10.4255L10.4262 37.0218ZM3.49908 30.0757L3.99908 30.0778V30.0757H3.49908ZM10.4412 12.7778V12.2778V12.7778ZM28.113 12.7778V13.2778H28.1131L28.113 12.7778ZM29.4668 12.9098L29.5638 12.4193L29.5635 12.4193L29.4668 12.9098ZM31.8835 13.8897L32.1562 13.4706L32.1556 13.4702L31.8835 13.8897ZM34.3952 16.7773L33.9424 16.9893L33.9427 16.9899L34.3952 16.7773ZM35.0401 19.346L34.5408 19.3724L34.5409 19.3742L35.0401 19.346ZM35.0501 20.7818V21.2818H35.5501V20.7818H35.0501ZM30.7957 20.7818L30.7912 21.2818H30.7957V20.7818ZM27.778 22.0287L28.1267 22.3872L28.1341 22.3797L27.778 22.0287ZM26.5162 25.4612L26.0184 25.5085L26.0193 25.5168L26.5162 25.4612ZM30.9956 29.4018V28.9017L30.9874 28.9018L30.9956 29.4018ZM35.0551 29.4018H35.5551V28.9018H35.0551V29.4018ZM35.0551 30.0757H34.5551L34.5551 30.0774L35.0551 30.0757ZM28.128 37.0178L28.1287 36.5178L27.4874 36.517L27.6429 37.1391L28.128 37.0178ZM36.6286 29.4026V29.9026H36.7466L36.8522 29.8498L36.6286 29.4026ZM36.5739 20.7835L36.6101 20.2848L36.592 20.2835H36.5739V20.7835ZM36.9557 20.9747L37.3399 20.6545L37.3329 20.6465L36.9557 20.9747ZM37.11 21.4097L36.61 21.4026V21.4097H37.11ZM37.11 28.7757H36.6099L36.6101 28.785L37.11 28.7757ZM36.9635 29.2207L36.5663 28.917L36.5615 28.9233L36.5569 28.9297L36.9635 29.2207ZM36.6305 29.4016L36.6075 28.9021L36.5017 28.907L36.4069 28.9544L36.6305 29.4016ZM14.1185 24.6739C14.3654 24.7975 14.6658 24.6976 14.7894 24.4507C14.9131 24.2038 14.8132 23.9034 14.5663 23.7797L14.1185 24.6739ZM11.0481 24.9142L11.5312 25.0428L11.0481 24.9142ZM14.3424 29.726L14.794 29.9406L14.3424 29.726ZM10.6832 29.9484C10.4265 29.8467 10.1359 29.9723 10.0342 30.229C9.93246 30.4858 10.0581 30.7763 10.3148 30.8781L10.6832 29.9484ZM12.999 22.7778C12.999 22.5017 12.7752 22.2778 12.499 22.2778C12.2229 22.2778 11.999 22.5017 11.999 22.7778H12.999ZM11.999 31.7778C11.999 32.054 12.2229 32.2778 12.499 32.2778C12.7752 32.2778 12.999 32.054 12.999 31.7778H11.999ZM17.658 4.48702L17.8421 4.95189L17.658 4.48702ZM14.3989 5.77771L14.5712 6.24726L14.583 6.24258L14.3989 5.77771ZM6.77647 8.57497L6.60422 8.10558V8.10558L6.77647 8.57497ZM28.129 36.5218H10.4262V37.5218H28.129V36.5218ZM10.4255 36.5218C9.57973 36.523 8.74207 36.3571 7.96068 36.0334L7.57803 36.9573C8.4812 37.3314 9.44939 37.5232 10.4269 37.5218L10.4255 36.5218ZM7.96068 36.0334C7.17929 35.7098 6.46957 35.2349 5.87235 34.6361L5.16428 35.3422C5.85456 36.0344 6.67487 36.5833 7.57803 36.9573L7.96068 36.0334ZM5.87235 34.6361C5.27513 34.0372 4.80218 33.3262 4.48069 32.5439L3.55575 32.924C3.92733 33.8282 4.47399 34.65 5.16428 35.3422L5.87235 34.6361ZM4.48069 32.5439C4.15921 31.7616 3.99553 30.9235 3.99908 30.0778L2.99909 30.0736C2.99499 31.0511 3.18417 32.0198 3.55575 32.924L4.48069 32.5439ZM3.99908 30.0757V19.72H2.99908V30.0757H3.99908ZM3.99908 19.72C3.99908 18.0114 4.67781 16.3728 5.88594 15.1647L5.17883 14.4576C3.78316 15.8533 2.99908 17.7462 2.99908 19.72H3.99908ZM5.88594 15.1647C7.09407 13.9566 8.73266 13.2778 10.4412 13.2778V12.2778C8.46744 12.2778 6.5745 13.0619 5.17883 14.4576L5.88594 15.1647ZM10.4412 13.2778H28.113V12.2778H10.4412V13.2778ZM28.1131 13.2778C28.5351 13.2777 28.9561 13.3188 29.3701 13.4004L29.5635 12.4193C29.0857 12.3251 28.5999 12.2777 28.1129 12.2778L28.1131 13.2778ZM29.3699 13.4003C30.1681 13.558 30.9289 13.8665 31.6115 14.3092L32.1556 13.4702C31.3663 12.9583 30.4867 12.6016 29.5638 12.4193L29.3699 13.4003ZM31.6108 14.3088C32.6229 14.9673 33.4305 15.8958 33.9424 16.9893L34.8481 16.5654C34.2571 15.3028 33.3246 14.2309 32.1562 13.4706L31.6108 14.3088ZM33.9427 16.9899C34.294 17.738 34.4972 18.5471 34.5408 19.3724L35.5394 19.3196C35.489 18.3653 35.2541 17.4298 34.8478 16.5648L33.9427 16.9899ZM34.5409 19.3742C34.5473 19.4872 34.5501 19.6056 34.5501 19.725H35.5501C35.5501 19.5904 35.547 19.4528 35.5393 19.3178L34.5409 19.3742ZM34.5501 19.725V20.7818H35.5501V19.725H34.5501ZM35.0501 20.2818H30.7957V21.2818H35.0501V20.2818ZM30.8001 20.2818C30.1722 20.2763 29.5496 20.397 28.9693 20.6368L29.3512 21.561C29.8077 21.3724 30.2974 21.2774 30.7912 21.2818L30.8001 20.2818ZM28.9693 20.6368C28.389 20.8765 27.8628 21.2305 27.422 21.6776L28.1341 22.3797C28.4808 22.028 28.8947 21.7496 29.3512 21.561L28.9693 20.6368ZM27.4294 21.6703C26.9221 22.1637 26.5319 22.7648 26.2877 23.429L27.2263 23.7741C27.4189 23.2502 27.7266 22.7762 28.1267 22.3871L27.4294 21.6703ZM26.2877 23.429C26.0435 24.0933 25.9515 24.8039 26.0184 25.5085L27.014 25.414C26.9612 24.8583 27.0338 24.2979 27.2263 23.7741L26.2877 23.429ZM26.0193 25.5168C26.1556 26.7368 26.742 27.8622 27.6637 28.6731L28.3242 27.9223C27.5893 27.2758 27.1218 26.3785 27.0131 25.4057L26.0193 25.5168ZM27.6637 28.6731C28.5855 29.484 29.7764 29.922 31.0039 29.9017L30.9874 28.9018C30.0087 28.918 29.0591 28.5688 28.3242 27.9223L27.6637 28.6731ZM30.9956 29.9018H35.0551V28.9018H30.9956V29.9018ZM34.5551 29.4018V30.0757H35.5551V29.4018H34.5551ZM34.5551 30.0774C34.5581 30.9228 34.394 31.7605 34.0722 32.5423L34.997 32.9229C35.3688 32.0193 35.5585 31.0511 35.5551 30.0739L34.5551 30.0774ZM34.0722 32.5423C33.7505 33.3241 33.2774 34.0346 32.6803 34.6331L33.3881 35.3394C34.0783 34.6477 34.6251 33.8265 34.997 32.9229L34.0722 32.5423ZM32.6803 34.6331C32.0831 35.2315 31.3736 35.7061 30.5925 36.0295L30.9751 36.9535C31.8779 36.5796 32.6979 36.0311 33.3881 35.3394L32.6803 34.6331ZM30.5925 36.0295C29.8114 36.353 28.9741 36.5189 28.1287 36.5178L28.1273 37.5178C29.1045 37.5191 30.0723 37.3273 30.9751 36.9535L30.5925 36.0295ZM27.6429 37.1391L27.6439 37.1431L28.6141 36.9005L28.6131 36.8965L27.6429 37.1391ZM35.0569 29.9026H36.6286V28.9026H35.0569V29.9026ZM36.5739 20.2835H35.0569V21.2835H36.5739V20.2835ZM37.3329 20.6465C37.1495 20.4356 36.8899 20.3051 36.6101 20.2848L36.5377 21.2822C36.553 21.2833 36.5677 21.2905 36.5784 21.3028L37.3329 20.6465ZM37.6099 21.4167C37.6138 21.138 37.5175 20.8678 37.3399 20.6546L36.5715 21.2947C36.5971 21.3254 36.6106 21.3638 36.61 21.4026L37.6099 21.4167ZM37.61 28.7757V21.4097H36.61V28.7757H37.61ZM37.3607 29.5243C37.5263 29.3078 37.615 29.0408 37.6099 28.7664L36.6101 28.785C36.6109 28.8316 36.5958 28.8784 36.5663 28.917L37.3607 29.5243ZM37.0568 29.7886C37.1811 29.7211 37.2881 29.6263 37.3701 29.5116L36.5569 28.9297C36.5626 28.9218 36.5703 28.9149 36.5792 28.91L37.0568 29.7886ZM36.6535 29.901C36.7945 29.8946 36.9325 29.8562 37.0568 29.7886L36.5792 28.91C36.5882 28.9052 36.5977 28.9026 36.6075 28.9021L36.6535 29.901ZM36.8522 29.8498L36.8541 29.8488L36.4069 28.9544L36.405 28.9553L36.8522 29.8498ZM14.3424 24.2268C14.5663 23.7797 14.5662 23.7797 14.5661 23.7796C14.566 23.7796 14.5659 23.7796 14.5659 23.7795C14.5657 23.7795 14.5656 23.7794 14.5654 23.7793C14.565 23.7791 14.5646 23.7789 14.5642 23.7787C14.5632 23.7782 14.5621 23.7776 14.5607 23.777C14.5579 23.7756 14.5542 23.7738 14.5495 23.7715C14.5403 23.7671 14.5276 23.761 14.5115 23.7534C14.4794 23.7384 14.4339 23.7177 14.3771 23.6934C14.2637 23.6448 14.1035 23.5808 13.9128 23.5178C13.5392 23.3943 13.0146 23.2628 12.4835 23.2792L12.5145 24.2788C12.8773 24.2675 13.2743 24.3599 13.5989 24.4672C13.7574 24.5196 13.8905 24.5728 13.983 24.6125C14.0292 24.6323 14.0648 24.6485 14.0881 24.6594C14.0998 24.6648 14.1083 24.6689 14.1134 24.6714C14.116 24.6727 14.1177 24.6735 14.1186 24.6739C14.119 24.6741 14.1192 24.6742 14.1192 24.6742C14.1192 24.6742 14.1191 24.6742 14.119 24.6741C14.1189 24.6741 14.1189 24.6741 14.1188 24.674C14.1187 24.674 14.1186 24.674 14.1186 24.6739C14.1185 24.6739 14.1185 24.6739 14.3424 24.2268ZM12.4835 23.2792C12.1086 23.2909 11.7001 23.3773 11.3414 23.6226C10.9739 23.8738 10.7047 24.2605 10.5649 24.7855L11.5312 25.0428C11.6176 24.7184 11.7608 24.5472 11.9058 24.4481C12.0595 24.343 12.2634 24.2866 12.5145 24.2788L12.4835 23.2792ZM10.5649 24.7855C10.3922 25.4344 10.6126 25.9717 10.9683 26.3925C11.3041 26.7899 11.7878 27.1185 12.2278 27.4027L12.7703 26.5627C12.3205 26.2721 11.959 26.0157 11.7321 25.7471C11.5249 25.5019 11.4648 25.2924 11.5312 25.0428L10.5649 24.7855ZM12.2278 27.4027C12.8403 27.7983 13.376 28.117 13.7131 28.4869C13.8715 28.6608 13.9552 28.8156 13.9854 28.9602C14.0139 29.0971 14.0045 29.2721 13.8908 29.5114L14.794 29.9406C14.9865 29.5354 15.0439 29.1383 14.9643 28.7563C14.8864 28.3821 14.6872 28.0712 14.4523 27.8134C14.0028 27.3201 13.3106 26.9116 12.7703 26.5627L12.2278 27.4027ZM13.8908 29.5114C13.6338 30.0521 13.1251 30.2573 12.484 30.2766L12.514 31.2761C13.3367 31.2514 14.307 30.9652 14.794 29.9406L13.8908 29.5114ZM12.484 30.2766C12.0444 30.2898 11.5941 30.2099 11.2438 30.1214C11.071 30.0777 10.9276 30.0332 10.8285 30.0001C10.7791 29.9835 10.741 29.9699 10.7161 29.9608C10.7037 29.9562 10.6945 29.9527 10.689 29.9506C10.6862 29.9495 10.6843 29.9488 10.6833 29.9484C10.6828 29.9482 10.6826 29.9481 10.6826 29.9481C10.6826 29.9481 10.6826 29.9482 10.6827 29.9482C10.6828 29.9482 10.6828 29.9482 10.6829 29.9483C10.683 29.9483 10.683 29.9483 10.6831 29.9483C10.6831 29.9484 10.6832 29.9484 10.499 30.4132C10.3148 30.8781 10.3149 30.8781 10.315 30.8781C10.3151 30.8782 10.3151 30.8782 10.3152 30.8782C10.3154 30.8783 10.3155 30.8783 10.3157 30.8784C10.316 30.8786 10.3165 30.8787 10.3169 30.8789C10.3179 30.8793 10.3191 30.8797 10.3205 30.8803C10.3233 30.8814 10.3271 30.8829 10.3319 30.8847C10.3413 30.8883 10.3545 30.8933 10.3712 30.8994C10.4045 30.9116 10.4518 30.9285 10.5112 30.9484C10.6298 30.9881 10.7975 31.04 10.9988 31.0909C11.3967 31.1915 11.9464 31.2932 12.514 31.2761L12.484 30.2766ZM11.999 22.7778V23.779H12.999V22.7778H11.999ZM11.999 23.779V26.9827H12.999V23.779H11.999ZM11.999 26.9827V30.7763H12.999V26.9827H11.999ZM11.999 30.7763V31.7778H12.999V30.7763H11.999ZM24.999 12.7777V9.13573H23.999V12.7777H24.999ZM24.999 9.13573C24.999 5.25271 21.0841 2.59237 17.4739 4.02214L17.8421 4.95189C20.7959 3.78207 23.999 5.95871 23.999 9.13573H24.999ZM17.4739 4.02214L14.2148 5.31284L14.583 6.24258L17.8421 4.95189L17.4739 4.02214ZM14.2267 5.30832L6.60422 8.10558L6.94873 9.04436L14.5712 6.2471L14.2267 5.30832ZM6.60422 8.10558C4.43859 8.90031 2.99902 10.962 2.99902 13.2689H3.99902C3.99902 11.3815 5.17685 9.6946 6.94873 9.04436L6.60422 8.10558ZM2.99902 13.2689V19.72H3.99902V13.2689H2.99902Z" fill="#6E7191"/>
</g>
<defs>
<clipPath id="clip0_35181_5594">
<rect width="40.002" height="40.002" fill="white" transform="translate(0.499023 0.78125)"/>
</clipPath>
</defs>
</svg>
