<svg width="40" height="41" viewBox="0 0 40 41" fill="none" xmlns="http://www.w3.org/2000/svg">
<g clip-path="url(#clip0_35181_4592)">
<path d="M4.94519 36.9963L4.94878 37.4964L4.95651 37.4962L4.94519 36.9963ZM4.21676 36.6965L4.57123 36.3439L4.57099 36.3437L4.21676 36.6965ZM3.91602 35.9671L4.41602 35.9685V35.9671H3.91602ZM3.91602 23.4628H4.41602L4.41602 23.4619L3.91602 23.4628ZM4.21676 22.7334L3.86288 22.3802L3.86225 22.3809L4.21676 22.7334ZM4.94519 22.4337L4.94242 22.9337H4.94519V22.4337ZM17.4553 22.4337V22.9337L17.4575 22.9337L17.4553 22.4337ZM18.1838 22.7334L18.5383 22.3809L18.5372 22.3798L18.1838 22.7334ZM18.4845 23.4628L17.9845 23.4619V23.4628H18.4845ZM18.4845 35.9671H17.9845L17.9845 35.9685L18.4845 35.9671ZM18.1838 36.6965L18.1951 37.1964L18.3961 37.1919L18.538 37.0494L18.1838 36.6965ZM28.0045 16.8222L27.8172 16.3586L28.0045 16.8222ZM16.4041 21.5091L16.5914 21.9727L16.4041 21.5091ZM15.0635 20.94L15.5271 20.7527L15.0635 20.94ZM10.3792 9.34607L9.91563 9.53338L10.3792 9.34607ZM10.9483 8.0054L10.761 7.5418L10.9483 8.0054ZM22.5487 3.31853L22.736 3.78212L22.7365 3.78194L22.5487 3.31853ZM23.8903 3.88724L23.4267 4.07454V4.07454L23.8903 3.88724ZM28.5746 15.4812L29.0383 15.2943L29.0381 15.2938L28.5746 15.4812ZM17.9201 16.7619C17.926 17.038 18.1546 17.257 18.4307 17.2511C18.7068 17.2451 18.9258 17.0165 18.9198 16.7405L17.9201 16.7619ZM18.7628 9.42246C18.7569 9.14638 18.5283 8.92738 18.2522 8.9333C17.9762 8.93922 17.7571 9.16783 17.7631 9.44391L18.7628 9.42246ZM22.8439 15.1487C23.0309 15.352 23.3472 15.3652 23.5504 15.1782C23.7537 14.9913 23.7669 14.675 23.5799 14.4717L22.8439 15.1487ZM18.6319 9.09273C18.445 8.88949 18.1287 8.87629 17.9254 9.06324C17.7222 9.25019 17.709 9.5665 17.8959 9.76973L18.6319 9.09273ZM31.5638 36.5398L31.6937 36.057L31.6933 36.0568L31.5638 36.5398ZM19.4797 33.2998L19.6091 32.8169L19.6087 32.8168L19.4797 33.2998ZM18.7506 32.038L19.2335 32.1675L18.7506 32.038ZM21.9892 19.9587L22.4722 20.0882L21.9892 19.9587ZM23.2518 19.2309L23.1218 19.7137L23.1223 19.7138L23.2518 19.2309ZM35.3359 22.4708L35.2064 22.9537L35.2069 22.9539L35.3359 22.4708ZM36.065 23.7326L35.582 23.6032L36.065 23.7326ZM32.8263 35.8119L32.3434 35.6824L32.8263 35.8119ZM8.81836 26.626V26.126H8.31836V26.626H8.81836ZM8.81836 32.8038H8.31836L8.31836 33.3038H8.81836V32.8038ZM4.9416 36.4963C4.87425 36.4968 4.80607 36.4836 4.74098 36.4568L4.36043 37.3816C4.54565 37.4578 4.74545 37.4978 4.94878 37.4963L4.9416 36.4963ZM4.74098 36.4568C4.67619 36.4301 4.61895 36.3919 4.57123 36.3439L3.8623 37.0492C4.00549 37.1931 4.17491 37.3052 4.36043 37.3816L4.74098 36.4568ZM4.57099 36.3437C4.52213 36.2946 4.48308 36.2359 4.45651 36.1713L3.53176 36.5519C3.60813 36.7375 3.72049 36.9068 3.86254 37.0494L4.57099 36.3437ZM4.45651 36.1713C4.42942 36.1055 4.41583 36.0364 4.41602 35.9685L3.41602 35.9658C3.41548 36.1684 3.45591 36.3676 3.53176 36.5519L4.45651 36.1713ZM4.41602 35.9671V23.4628H3.41602V35.9671H4.41602ZM4.41602 23.4619C4.41575 23.322 4.47158 23.1863 4.57127 23.086L3.86225 22.3809C3.57675 22.6679 3.41525 23.0575 3.41602 23.4638L4.41602 23.4619ZM4.57065 23.0867C4.6192 23.038 4.67674 22.9996 4.74098 22.9732L4.36043 22.0484C4.17442 22.125 4.0055 22.2373 3.86288 22.3802L4.57065 23.0867ZM4.74098 22.9732C4.80552 22.9466 4.874 22.9333 4.94242 22.9337L4.94796 21.9337C4.74576 21.9326 4.54614 21.972 4.36043 22.0484L4.74098 22.9732ZM4.94519 22.9337H17.4553V21.9337H4.94519V22.9337ZM17.4575 22.9337C17.5267 22.9334 17.5954 22.9468 17.6595 22.9732L18.0401 22.0484C17.854 21.9719 17.6545 21.9328 17.4532 21.9337L17.4575 22.9337ZM17.6595 22.9732C17.7234 22.9995 17.7811 23.0379 17.8303 23.0871L18.5372 22.3798C18.395 22.2377 18.2265 22.1251 18.0401 22.0484L17.6595 22.9732ZM17.8293 23.086C17.9289 23.1863 17.9848 23.322 17.9845 23.4619L18.9845 23.4638C18.9853 23.0575 18.8238 22.6679 18.5383 22.3809L17.8293 23.086ZM17.9845 23.4628V35.9671H18.9845V23.4628H17.9845ZM17.9845 35.9685C17.9847 36.0364 17.9711 36.1055 17.944 36.1713L18.8688 36.5519C18.9446 36.3676 18.9851 36.1684 18.9845 35.9658L17.9845 35.9685ZM17.944 36.1713C17.9174 36.2359 17.8784 36.2946 17.8295 36.3437L18.538 37.0494C18.68 36.9068 18.7924 36.7375 18.8688 36.5519L17.944 36.1713ZM18.1724 36.1967L4.93387 36.4964L4.95651 37.4962L18.1951 37.1964L18.1724 36.1967ZM27.8172 16.3586L16.2168 21.0455L16.5914 21.9727L28.1918 17.2858L27.8172 16.3586ZM16.2168 21.0455C16.0865 21.0981 15.9407 21.0968 15.8113 21.0419L15.4206 21.9624C15.7941 22.121 16.2152 22.1247 16.5914 21.9727L16.2168 21.0455ZM15.8113 21.0419C15.6819 20.987 15.5797 20.883 15.5271 20.7527L14.5999 21.1273C14.7519 21.5035 15.0471 21.8039 15.4206 21.9624L15.8113 21.0419ZM15.5271 20.7527L10.8428 9.15877L9.91563 9.53338L14.5999 21.1273L15.5271 20.7527ZM10.8428 9.15877C10.7902 9.02847 10.7914 8.8826 10.8464 8.75324L9.92585 8.36251C9.76731 8.736 9.76363 9.15717 9.91563 9.53338L10.8428 9.15877ZM10.8464 8.75324C10.9013 8.62388 11.0053 8.52163 11.1356 8.46899L10.761 7.5418C10.3848 7.6938 10.0844 7.98902 9.92585 8.36251L10.8464 8.75324ZM11.1356 8.46899L22.736 3.78212L22.3614 2.85494L10.761 7.5418L11.1356 8.46899ZM22.7365 3.78194C22.801 3.75579 22.87 3.74262 22.9397 3.74318L22.9477 2.74321C22.7466 2.74161 22.5473 2.77963 22.361 2.85512L22.7365 3.78194ZM22.9397 3.74318C23.0093 3.74374 23.0781 3.75801 23.1422 3.78519L23.5325 2.86449C23.3474 2.78603 23.1487 2.74482 22.9477 2.74321L22.9397 3.74318ZM23.1422 3.78519C23.2063 3.81236 23.2645 3.8519 23.3133 3.90155L24.0264 3.20047C23.8854 3.05712 23.7176 2.94295 23.5325 2.86449L23.1422 3.78519ZM23.3133 3.90155C23.3621 3.9512 23.4006 4.00999 23.4267 4.07454L24.3539 3.69994C24.2786 3.51354 24.1673 3.34382 24.0264 3.20047L23.3133 3.90155ZM23.4267 4.07454L28.111 15.6685L29.0381 15.2938L24.3539 3.69994L23.4267 4.07454ZM28.1108 15.668C28.1634 15.7985 28.162 15.9446 28.1069 16.0741L29.0273 16.4652C29.186 16.0918 29.19 15.6707 29.0383 15.2943L28.1108 15.668ZM28.1069 16.0741C28.0519 16.2036 27.9477 16.3059 27.8172 16.3586L28.1918 17.2858C28.5681 17.1338 28.8685 16.8387 29.0273 16.4652L28.1069 16.0741ZM18.9198 16.7405L18.7628 9.42246L17.7631 9.44391L17.9201 16.7619L18.9198 16.7405ZM23.5799 14.4717L18.6319 9.09273L17.8959 9.76973L22.8439 15.1487L23.5799 14.4717ZM18.5551 14.6677L21.6301 13.3457L21.2351 12.427L18.1601 13.749L18.5551 14.6677ZM31.6933 36.0568L19.6091 32.8169L19.3502 33.7828L31.4343 37.0227L31.6933 36.0568ZM19.6087 32.8168C19.5414 32.7988 19.4783 32.7678 19.423 32.7254L18.8147 33.5191C18.9743 33.6414 19.1564 33.731 19.3506 33.7829L19.6087 32.8168ZM19.423 32.7254C19.3678 32.683 19.3214 32.6302 19.2865 32.5699L18.4207 33.0702C18.5213 33.2442 18.6552 33.3968 18.8147 33.5191L19.423 32.7254ZM19.2865 32.5699C19.2517 32.5096 19.2291 32.443 19.22 32.374L18.2285 32.5046C18.2548 32.7039 18.3201 32.8961 18.4207 33.0702L19.2865 32.5699ZM19.22 32.374C19.2109 32.3049 19.2155 32.2348 19.2335 32.1675L18.2676 31.9085C18.2156 32.1027 18.2023 32.3052 18.2285 32.5046L19.22 32.374ZM19.2335 32.1675L22.4722 20.0882L21.5063 19.8292L18.2676 31.9085L19.2335 32.1675ZM22.4722 20.0882C22.4902 20.0209 22.5213 19.9579 22.5637 19.9026L21.7706 19.2936C21.6482 19.453 21.5583 19.635 21.5063 19.8292L22.4722 20.0882ZM22.5637 19.9026C22.6062 19.8474 22.659 19.8011 22.7194 19.7663L22.2199 18.8999C22.0458 19.0004 21.8931 19.1341 21.7706 19.2936L22.5637 19.9026ZM22.7194 19.7663C22.7797 19.7315 22.8463 19.709 22.9154 19.6999L22.7857 18.7084C22.5864 18.7344 22.3941 18.7995 22.2199 18.8999L22.7194 19.7663ZM22.9154 19.6999C22.9844 19.6909 23.0546 19.6956 23.1218 19.7137L23.3817 18.748C23.1876 18.6958 22.9851 18.6823 22.7857 18.7084L22.9154 19.6999ZM23.1223 19.7138L35.2064 22.9537L35.4654 21.9879L23.3813 18.7479L23.1223 19.7138ZM35.2069 22.9539C35.2742 22.9718 35.3372 23.0029 35.3925 23.0453L36.0008 22.2516C35.8413 22.1293 35.6591 22.0396 35.4649 21.9877L35.2069 22.9539ZM35.3925 23.0453C35.4478 23.0876 35.4942 23.1405 35.529 23.2008L36.3949 22.7005C36.2943 22.5264 36.1604 22.3738 36.0008 22.2516L35.3925 23.0453ZM35.529 23.2008C35.5639 23.2611 35.5865 23.3276 35.5956 23.3967L36.587 23.2661C36.5608 23.0667 36.4955 22.8746 36.3949 22.7005L35.529 23.2008ZM35.5956 23.3967C35.6047 23.4657 35.6001 23.5359 35.582 23.6032L36.5479 23.8621C36.6 23.668 36.6133 23.4654 36.587 23.2661L35.5956 23.3967ZM35.582 23.6032L32.3434 35.6824L33.3093 35.9414L36.5479 23.8621L35.582 23.6032ZM32.3434 35.6824C32.3254 35.7497 32.2942 35.8128 32.2518 35.868L33.0449 36.4771C33.1674 36.3176 33.2572 36.1356 33.3093 35.9414L32.3434 35.6824ZM32.2518 35.868C32.2094 35.9232 32.1565 35.9696 32.0962 36.0044L32.5956 36.8707C32.7698 36.7703 32.9225 36.6365 33.0449 36.4771L32.2518 35.868ZM32.0962 36.0044C32.0358 36.0391 31.9692 36.0617 31.9002 36.0707L32.0298 37.0623C32.2292 37.0362 32.4215 36.9711 32.5956 36.8707L32.0962 36.0044ZM31.9002 36.0707C31.8311 36.0797 31.761 36.0751 31.6937 36.057L31.4338 37.0226C31.628 37.0749 31.8305 37.0883 32.0298 37.0623L31.9002 36.0707ZM29.6779 27.3539C30.1711 27.4366 30.1711 27.4364 30.1711 27.4362C30.1711 27.4361 30.1712 27.4359 30.1712 27.4358C30.1712 27.4355 30.1713 27.4351 30.1714 27.4348C30.1715 27.434 30.1716 27.4331 30.1718 27.4321C30.1721 27.43 30.1725 27.4274 30.173 27.4242C30.1741 27.4178 30.1754 27.4091 30.1769 27.3982C30.18 27.3766 30.1841 27.3464 30.1886 27.3087C30.1974 27.2334 30.2077 27.1276 30.2144 27.0001C30.2277 26.7472 30.2274 26.398 30.1684 26.0274C30.0536 25.3053 29.6803 24.3437 28.5758 24.056L28.3238 25.0237C28.848 25.1603 29.0888 25.6057 29.1808 26.1845C29.2253 26.4644 29.2267 26.7392 29.2158 26.9477C29.2104 27.0508 29.2021 27.135 29.1954 27.1921C29.192 27.2205 29.1891 27.2421 29.1871 27.2557C29.1862 27.2625 29.1854 27.2672 29.185 27.2699C29.1848 27.2712 29.1847 27.272 29.1847 27.2722C29.1846 27.2723 29.1846 27.2723 29.1847 27.2722C29.1847 27.2721 29.1847 27.272 29.1847 27.2718C29.1847 27.2717 29.1848 27.2716 29.1848 27.2716C29.1848 27.2714 29.1848 27.2712 29.6779 27.3539ZM28.5758 24.056C27.6036 23.8027 26.7659 24.0283 26.1078 24.584C25.4736 25.1196 25.0362 25.934 24.751 26.8263L25.7036 27.1307C25.9588 26.3322 26.3182 25.7152 26.753 25.3481C27.1639 25.0011 27.6673 24.8527 28.3238 25.0237L28.5758 24.056ZM24.751 26.8263C24.4719 27.6999 24.275 28.7122 24.4027 29.6023C24.4674 30.0537 24.6186 30.4943 24.9042 30.8669C25.1937 31.2448 25.6002 31.5248 26.1252 31.6813L26.4109 30.723C26.0725 30.6221 25.8498 30.4569 25.6979 30.2587C25.5421 30.0554 25.4397 29.7892 25.3925 29.4604C25.2964 28.7901 25.4425 27.9479 25.7036 27.1307L24.751 26.8263ZM26.1252 31.6813C27.2413 32.014 28.1424 31.4579 28.7006 30.9273C28.9851 30.657 29.2052 30.3722 29.3534 30.1575C29.428 30.0494 29.4858 29.9571 29.5255 29.8906C29.5455 29.8573 29.561 29.8303 29.5719 29.8108C29.5774 29.8011 29.5817 29.7932 29.5849 29.7874C29.5865 29.7845 29.5878 29.7821 29.5888 29.7802C29.5893 29.7792 29.5897 29.7784 29.5901 29.7777C29.5903 29.7774 29.5904 29.7771 29.5906 29.7768C29.5907 29.7767 29.5908 29.7765 29.5908 29.7764C29.5909 29.7762 29.591 29.7761 29.1493 29.5416C28.7077 29.3072 28.7078 29.3071 28.7079 29.3069C28.7079 29.3069 28.708 29.3068 28.708 29.3067C28.7081 29.3065 28.7081 29.3064 28.7082 29.3064C28.7083 29.3062 28.7083 29.3062 28.7082 29.3063C28.7081 29.3065 28.7077 29.3072 28.7071 29.3083C28.7058 29.3107 28.7034 29.315 28.7 29.3211C28.6932 29.3332 28.6822 29.3524 28.6672 29.3776C28.637 29.428 28.5911 29.5016 28.5305 29.5894C28.4082 29.7665 28.2318 29.9933 28.0117 30.2025C27.561 30.6308 27.0214 30.905 26.4109 30.723L26.1252 31.6813ZM8.81836 27.126H11.6857V26.126H8.81836V27.126ZM11.6857 27.126C12.2318 27.126 12.6745 27.5687 12.6745 28.1148H13.6745C13.6745 27.0165 12.7841 26.126 11.6857 26.126V27.126ZM12.6745 28.1148C12.6745 28.4531 12.5916 28.6991 12.4765 28.8483C12.3746 28.9804 12.2197 29.0758 11.9536 29.0758V30.0758C12.5098 30.0758 12.9653 29.8519 13.2683 29.459C13.5581 29.0833 13.6745 28.5988 13.6745 28.1148H12.6745ZM11.9536 29.0758C11.952 29.0758 11.9504 29.0758 11.9488 29.0758C11.9472 29.0758 11.9456 29.0758 11.9439 29.0758C11.9423 29.0758 11.9407 29.0758 11.939 29.0758C11.9374 29.0758 11.9357 29.0758 11.9341 29.0758C11.9324 29.0758 11.9308 29.0758 11.9291 29.0758C11.9275 29.0758 11.9258 29.0758 11.9241 29.0758C11.9224 29.0758 11.9208 29.0758 11.9191 29.0758C11.9174 29.0758 11.9157 29.0758 11.914 29.0758C11.9123 29.0758 11.9106 29.0758 11.9089 29.0758C11.9072 29.0758 11.9055 29.0758 11.9038 29.0758C11.9021 29.0758 11.9003 29.0758 11.8986 29.0758C11.8969 29.0758 11.8951 29.0758 11.8934 29.0758C11.8917 29.0758 11.8899 29.0758 11.8882 29.0758C11.8864 29.0758 11.8847 29.0758 11.8829 29.0758C11.8812 29.0758 11.8794 29.0758 11.8776 29.0758C11.8759 29.0758 11.8741 29.0758 11.8723 29.0758C11.8705 29.0758 11.8687 29.0758 11.8669 29.0758C11.8651 29.0758 11.8633 29.0758 11.8615 29.0758C11.8597 29.0758 11.8579 29.0758 11.8561 29.0758C11.8543 29.0758 11.8525 29.0758 11.8507 29.0758C11.8489 29.0758 11.847 29.0758 11.8452 29.0758C11.8434 29.0758 11.8415 29.0758 11.8397 29.0758C11.8378 29.0758 11.836 29.0758 11.8341 29.0758C11.8323 29.0758 11.8304 29.0758 11.8286 29.0758C11.8267 29.0758 11.8248 29.0758 11.823 29.0758C11.8211 29.0758 11.8192 29.0758 11.8173 29.0758C11.8154 29.0758 11.8136 29.0758 11.8117 29.0758C11.8098 29.0758 11.8079 29.0758 11.806 29.0758C11.8041 29.0758 11.8022 29.0758 11.8003 29.0758C11.7983 29.0758 11.7964 29.0758 11.7945 29.0758C11.7926 29.0758 11.7907 29.0758 11.7887 29.0758C11.7868 29.0758 11.7849 29.0758 11.7829 29.0758C11.781 29.0758 11.779 29.0758 11.7771 29.0758C11.7751 29.0758 11.7732 29.0758 11.7712 29.0758C11.7693 29.0758 11.7673 29.0758 11.7653 29.0758C11.7634 29.0758 11.7614 29.0758 11.7594 29.0758C11.7574 29.0758 11.7554 29.0758 11.7535 29.0758C11.7515 29.0758 11.7495 29.0758 11.7475 29.0758C11.7455 29.0758 11.7435 29.0758 11.7415 29.0758C11.7395 29.0758 11.7375 29.0758 11.7354 29.0758C11.7334 29.0758 11.7314 29.0758 11.7294 29.0758C11.7273 29.0758 11.7253 29.0758 11.7233 29.0758C11.7213 29.0758 11.7192 29.0758 11.7172 29.0758C11.7151 29.0758 11.7131 29.0758 11.711 29.0758C11.709 29.0758 11.7069 29.0758 11.7049 29.0758C11.7028 29.0758 11.7007 29.0758 11.6987 29.0758C11.6966 29.0758 11.6945 29.0758 11.6924 29.0758C11.6904 29.0758 11.6883 29.0758 11.6862 29.0758C11.6841 29.0758 11.682 29.0758 11.6799 29.0758C11.6778 29.0758 11.6757 29.0758 11.6736 29.0758C11.6715 29.0758 11.6694 29.0758 11.6673 29.0758C11.6652 29.0758 11.6631 29.0758 11.661 29.0758C11.6588 29.0758 11.6567 29.0758 11.6546 29.0758C11.6525 29.0758 11.6503 29.0758 11.6482 29.0758C11.646 29.0758 11.6439 29.0758 11.6418 29.0758C11.6396 29.0758 11.6375 29.0758 11.6353 29.0758C11.6332 29.0758 11.631 29.0758 11.6288 29.0758C11.6267 29.0758 11.6245 29.0758 11.6223 29.0758C11.6202 29.0758 11.618 29.0758 11.6158 29.0758C11.6136 29.0758 11.6115 29.0758 11.6093 29.0758C11.6071 29.0758 11.6049 29.0758 11.6027 29.0758C11.6005 29.0758 11.5983 29.0758 11.5961 29.0758C11.5939 29.0758 11.5917 29.0758 11.5895 29.0758C11.5873 29.0758 11.5851 29.0758 11.5828 29.0758C11.5806 29.0758 11.5784 29.0758 11.5762 29.0758C11.5739 29.0758 11.5717 29.0758 11.5695 29.0758C11.5673 29.0758 11.565 29.0758 11.5628 29.0758C11.5605 29.0758 11.5583 29.0758 11.556 29.0758C11.5538 29.0758 11.5515 29.0758 11.5493 29.0758C11.547 29.0758 11.5448 29.0758 11.5425 29.0758C11.5402 29.0758 11.538 29.0758 11.5357 29.0758C11.5334 29.0758 11.5312 29.0758 11.5289 29.0758C11.5266 29.0758 11.5243 29.0758 11.522 29.0758C11.5198 29.0758 11.5175 29.0758 11.5152 29.0758C11.5129 29.0758 11.5106 29.0758 11.5083 29.0758C11.506 29.0758 11.5037 29.0758 11.5014 29.0758C11.4991 29.0758 11.4968 29.0758 11.4944 29.0758C11.4921 29.0758 11.4898 29.0758 11.4875 29.0758C11.4852 29.0758 11.4828 29.0758 11.4805 29.0758C11.4782 29.0758 11.4759 29.0758 11.4735 29.0758C11.4712 29.0758 11.4689 29.0758 11.4665 29.0758C11.4642 29.0758 11.4618 29.0758 11.4595 29.0758C11.4571 29.0758 11.4548 29.0758 11.4524 29.0758C11.4501 29.0758 11.4477 29.0758 11.4454 29.0758C11.443 29.0758 11.4406 29.0758 11.4383 29.0758C11.4359 29.0758 11.4335 29.0758 11.4311 29.0758C11.4288 29.0758 11.4264 29.0758 11.424 29.0758C11.4216 29.0758 11.4192 29.0758 11.4169 29.0758C11.4145 29.0758 11.4121 29.0758 11.4097 29.0758C11.4073 29.0758 11.4049 29.0758 11.4025 29.0758C11.4001 29.0758 11.3977 29.0758 11.3953 29.0758C11.3929 29.0758 11.3905 29.0758 11.3881 29.0758C11.3856 29.0758 11.3832 29.0758 11.3808 29.0758C11.3784 29.0758 11.376 29.0758 11.3735 29.0758C11.3711 29.0758 11.3687 29.0758 11.3663 29.0758C11.3638 29.0758 11.3614 29.0758 11.359 29.0758C11.3565 29.0758 11.3541 29.0758 11.3516 29.0758C11.3492 29.0758 11.3468 29.0758 11.3443 29.0758C11.3419 29.0758 11.3394 29.0758 11.337 29.0758C11.3345 29.0758 11.332 29.0758 11.3296 29.0758C11.3271 29.0758 11.3247 29.0758 11.3222 29.0758C11.3197 29.0758 11.3173 29.0758 11.3148 29.0758C11.3123 29.0758 11.3098 29.0758 11.3074 29.0758C11.3049 29.0758 11.3024 29.0758 11.2999 29.0758C11.2974 29.0758 11.295 29.0758 11.2925 29.0758C11.29 29.0758 11.2875 29.0758 11.285 29.0758C11.2825 29.0758 11.28 29.0758 11.2775 29.0758C11.275 29.0758 11.2725 29.0758 11.27 29.0758C11.2675 29.0758 11.265 29.0758 11.2625 29.0758C11.26 29.0758 11.2575 29.0758 11.255 29.0758C11.2524 29.0758 11.2499 29.0758 11.2474 29.0758C11.2449 29.0758 11.2424 29.0758 11.2398 29.0758C11.2373 29.0758 11.2348 29.0758 11.2323 29.0758C11.2297 29.0758 11.2272 29.0758 11.2247 29.0758C11.2221 29.0758 11.2196 29.0758 11.2171 29.0758C11.2145 29.0758 11.212 29.0758 11.2094 29.0758C11.2069 29.0758 11.2043 29.0758 11.2018 29.0758C11.1992 29.0758 11.1967 29.0758 11.1941 29.0758C11.1916 29.0758 11.189 29.0758 11.1865 29.0758C11.1839 29.0758 11.1814 29.0758 11.1788 29.0758C11.1762 29.0758 11.1737 29.0758 11.1711 29.0758C11.1685 29.0758 11.166 29.0758 11.1634 29.0758C11.1608 29.0758 11.1582 29.0758 11.1557 29.0758C11.1531 29.0758 11.1505 29.0758 11.1479 29.0758C11.1454 29.0758 11.1428 29.0758 11.1402 29.0758C11.1376 29.0758 11.135 29.0758 11.1324 29.0758C11.1298 29.0758 11.1272 29.0758 11.1246 29.0758C11.1221 29.0758 11.1195 29.0758 11.1169 29.0758C11.1143 29.0758 11.1117 29.0758 11.1091 29.0758C11.1065 29.0758 11.1039 29.0758 11.1013 29.0758C11.0986 29.0758 11.096 29.0758 11.0934 29.0758C11.0908 29.0758 11.0882 29.0758 11.0856 29.0758C11.083 29.0758 11.0804 29.0758 11.0777 29.0758C11.0751 29.0758 11.0725 29.0758 11.0699 29.0758C11.0673 29.0758 11.0646 29.0758 11.062 29.0758C11.0594 29.0758 11.0568 29.0758 11.0541 29.0758C11.0515 29.0758 11.0489 29.0758 11.0463 29.0758C11.0436 29.0758 11.041 29.0758 11.0383 29.0758C11.0357 29.0758 11.0331 29.0758 11.0304 29.0758C11.0278 29.0758 11.0252 29.0758 11.0225 29.0758C11.0199 29.0758 11.0172 29.0758 11.0146 29.0758C11.0119 29.0758 11.0093 29.0758 11.0066 29.0758C11.004 29.0758 11.0013 29.0758 10.9987 29.0758C10.996 29.0758 10.9934 29.0758 10.9907 29.0758C10.9881 29.0758 10.9854 29.0758 10.9827 29.0758C10.9801 29.0758 10.9774 29.0758 10.9748 29.0758C10.9721 29.0758 10.9694 29.0758 10.9668 29.0758C10.9641 29.0758 10.9614 29.0758 10.9588 29.0758C10.9561 29.0758 10.9534 29.0758 10.9508 29.0758C10.9481 29.0758 10.9454 29.0758 10.9427 29.0758C10.9401 29.0758 10.9374 29.0758 10.9347 29.0758C10.932 29.0758 10.9294 29.0758 10.9267 29.0758C10.924 29.0758 10.9213 29.0758 10.9186 29.0758C10.916 29.0758 10.9133 29.0758 10.9106 29.0758C10.9079 29.0758 10.9052 29.0758 10.9025 29.0758C10.8998 29.0758 10.8971 29.0758 10.8945 29.0758C10.8918 29.0758 10.8891 29.0758 10.8864 29.0758C10.8837 29.0758 10.881 29.0758 10.8783 29.0758C10.8756 29.0758 10.8729 29.0758 10.8702 29.0758C10.8675 29.0758 10.8648 29.0758 10.8621 29.0758C10.8594 29.0758 10.8567 29.0758 10.854 29.0758C10.8513 29.0758 10.8486 29.0758 10.8459 29.0758C10.8432 29.0758 10.8405 29.0758 10.8378 29.0758C10.8351 29.0758 10.8324 29.0758 10.8297 29.0758C10.8269 29.0758 10.8242 29.0758 10.8215 29.0758C10.8188 29.0758 10.8161 29.0758 10.8134 29.0758C10.8107 29.0758 10.808 29.0758 10.8052 29.0758C10.8025 29.0758 10.7998 29.0758 10.7971 29.0758C10.7944 29.0758 10.7917 29.0758 10.7889 29.0758C10.7862 29.0758 10.7835 29.0758 10.7808 29.0758C10.7781 29.0758 10.7753 29.0758 10.7726 29.0758C10.7699 29.0758 10.7672 29.0758 10.7645 29.0758C10.7617 29.0758 10.759 29.0758 10.7563 29.0758C10.7536 29.0758 10.7508 29.0758 10.7481 29.0758C10.7454 29.0758 10.7426 29.0758 10.7399 29.0758C10.7372 29.0758 10.7345 29.0758 10.7317 29.0758C10.729 29.0758 10.7263 29.0758 10.7235 29.0758C10.7208 29.0758 10.7181 29.0758 10.7153 29.0758C10.7126 29.0758 10.7099 29.0758 10.7071 29.0758C10.7044 29.0758 10.7017 29.0758 10.6989 29.0758C10.6962 29.0758 10.6935 29.0758 10.6907 29.0758C10.688 29.0758 10.6853 29.0758 10.6825 29.0758C10.6798 29.0758 10.677 29.0758 10.6743 29.0758C10.6716 29.0758 10.6688 29.0758 10.6661 29.0758C10.6634 29.0758 10.6606 29.0758 10.6579 29.0758C10.6551 29.0758 10.6524 29.0758 10.6497 29.0758C10.6469 29.0758 10.6442 29.0758 10.6414 29.0758C10.6387 29.0758 10.6359 29.0758 10.6332 29.0758C10.6305 29.0758 10.6277 29.0758 10.625 29.0758C10.6222 29.0758 10.6195 29.0758 10.6167 29.0758C10.614 29.0758 10.6113 29.0758 10.6085 29.0758C10.6058 29.0758 10.603 29.0758 10.6003 29.0758C10.5975 29.0758 10.5948 29.0758 10.592 29.0758C10.5893 29.0758 10.5865 29.0758 10.5838 29.0758C10.5811 29.0758 10.5783 29.0758 10.5756 29.0758C10.5728 29.0758 10.5701 29.0758 10.5673 29.0758C10.5646 29.0758 10.5618 29.0758 10.5591 29.0758C10.5563 29.0758 10.5536 29.0758 10.5508 29.0758C10.5481 29.0758 10.5454 29.0758 10.5426 29.0758C10.5399 29.0758 10.5371 29.0758 10.5344 29.0758C10.5316 29.0758 10.5289 29.0758 10.5261 29.0758C10.5234 29.0758 10.5206 29.0758 10.5179 29.0758C10.5151 29.0758 10.5124 29.0758 10.5096 29.0758C10.5069 29.0758 10.5041 29.0758 10.5014 29.0758C10.4987 29.0758 10.4959 29.0758 10.4932 29.0758C10.4904 29.0758 10.4877 29.0758 10.4849 29.0758C10.4822 29.0758 10.4794 29.0758 10.4767 29.0758C10.4739 29.0758 10.4712 29.0758 10.4684 29.0758C10.4657 29.0758 10.463 29.0758 10.4602 29.0758C10.4575 29.0758 10.4547 29.0758 10.452 29.0758C10.4492 29.0758 10.4465 29.0758 10.4437 29.0758C10.441 29.0758 10.4383 29.0758 10.4355 29.0758C10.4328 29.0758 10.43 29.0758 10.4273 29.0758C10.4245 29.0758 10.4218 29.0758 10.4191 29.0758C10.4163 29.0758 10.4136 29.0758 10.4108 29.0758C10.4081 29.0758 10.4053 29.0758 10.4026 29.0758C10.3999 29.0758 10.3971 29.0758 10.3944 29.0758C10.3916 29.0758 10.3889 29.0758 10.3862 29.0758C10.3834 29.0758 10.3807 29.0758 10.378 29.0758C10.3752 29.0758 10.3725 29.0758 10.3697 29.0758C10.367 29.0758 10.3643 29.0758 10.3615 29.0758C10.3588 29.0758 10.3561 29.0758 10.3533 29.0758C10.3506 29.0758 10.3479 29.0758 10.3451 29.0758C10.3424 29.0758 10.3397 29.0758 10.3369 29.0758C10.3342 29.0758 10.3315 29.0758 10.3287 29.0758C10.326 29.0758 10.3233 29.0758 10.3206 29.0758C10.3178 29.0758 10.3151 29.0758 10.3124 29.0758C10.3096 29.0758 10.3069 29.0758 10.3042 29.0758C10.3015 29.0758 10.2987 29.0758 10.296 29.0758C10.2933 29.0758 10.2906 29.0758 10.2878 29.0758C10.2851 29.0758 10.2824 29.0758 10.2797 29.0758C10.277 29.0758 10.2742 29.0758 10.2715 29.0758C10.2688 29.0758 10.2661 29.0758 10.2634 29.0758C10.2606 29.0758 10.2579 29.0758 10.2552 29.0758C10.2525 29.0758 10.2498 29.0758 10.2471 29.0758C10.2444 29.0758 10.2416 29.0758 10.2389 29.0758C10.2362 29.0758 10.2335 29.0758 10.2308 29.0758C10.2281 29.0758 10.2254 29.0758 10.2227 29.0758C10.22 29.0758 10.2173 29.0758 10.2146 29.0758C10.2118 29.0758 10.2091 29.0758 10.2064 29.0758C10.2037 29.0758 10.201 29.0758 10.1983 29.0758C10.1956 29.0758 10.1929 29.0758 10.1902 29.0758C10.1875 29.0758 10.1848 29.0758 10.1821 29.0758C10.1794 29.0758 10.1768 29.0758 10.1741 29.0758C10.1714 29.0758 10.1687 29.0758 10.166 29.0758C10.1633 29.0758 10.1606 29.0758 10.1579 29.0758C10.1552 29.0758 10.1525 29.0758 10.1498 29.0758C10.1472 29.0758 10.1445 29.0758 10.1418 29.0758C10.1391 29.0758 10.1364 29.0758 10.1337 29.0758C10.1311 29.0758 10.1284 29.0758 10.1257 29.0758C10.123 29.0758 10.1204 29.0758 10.1177 29.0758C10.115 29.0758 10.1123 29.0758 10.1097 29.0758C10.107 29.0758 10.1043 29.0758 10.1016 29.0758C10.099 29.0758 10.0963 29.0758 10.0936 29.0758C10.091 29.0758 10.0883 29.0758 10.0856 29.0758C10.083 29.0758 10.0803 29.0758 10.0777 29.0758C10.075 29.0758 10.0723 29.0758 10.0697 29.0758C10.067 29.0758 10.0644 29.0758 10.0617 29.0758C10.0591 29.0758 10.0564 29.0758 10.0538 29.0758C10.0511 29.0758 10.0485 29.0758 10.0458 29.0758C10.0432 29.0758 10.0405 29.0758 10.0379 29.0758C10.0352 29.0758 10.0326 29.0758 10.0299 29.0758C10.0273 29.0758 10.0247 29.0758 10.022 29.0758C10.0194 29.0758 10.0168 29.0758 10.0141 29.0758C10.0115 29.0758 10.0089 29.0758 10.0062 29.0758C10.0036 29.0758 10.001 29.0758 9.99835 29.0758C9.99572 29.0758 9.9931 29.0758 9.99047 29.0758C9.98785 29.0758 9.98523 29.0758 9.98261 29.0758C9.97999 29.0758 9.97738 29.0758 9.97476 29.0758C9.97215 29.0758 9.96954 29.0758 9.96692 29.0758C9.96431 29.0758 9.9617 29.0758 9.9591 29.0758C9.95649 29.0758 9.95389 29.0758 9.95128 29.0758C9.94868 29.0758 9.94608 29.0758 9.94348 29.0758C9.94088 29.0758 9.93829 29.0758 9.93569 29.0758C9.9331 29.0758 9.9305 29.0758 9.92791 29.0758C9.92532 29.0758 9.92273 29.0758 9.92015 29.0758C9.91756 29.0758 9.91498 29.0758 9.9124 29.0758C9.90981 29.0758 9.90723 29.0758 9.90466 29.0758C9.90208 29.0758 9.8995 29.0758 9.89693 29.0758C9.89436 29.0758 9.89179 29.0758 9.88922 29.0758C9.88665 29.0758 9.88408 29.0758 9.88152 29.0758C9.87895 29.0758 9.87639 29.0758 9.87383 29.0758C9.87127 29.0758 9.86872 29.0758 9.86616 29.0758C9.86361 29.0758 9.86105 29.0758 9.8585 29.0758C9.85595 29.0758 9.8534 29.0758 9.85086 29.0758C9.84831 29.0758 9.84577 29.0758 9.84323 29.0758C9.84069 29.0758 9.83815 29.0758 9.83562 29.0758C9.83308 29.0758 9.83055 29.0758 9.82801 29.0758C9.82548 29.0758 9.82296 29.0758 9.82043 29.0758C9.8179 29.0758 9.81538 29.0758 9.81286 29.0758C9.81034 29.0758 9.80782 29.0758 9.8053 29.0758C9.80279 29.0758 9.80028 29.0758 9.79776 29.0758C9.79525 29.0758 9.79275 29.0758 9.79024 29.0758C9.78773 29.0758 9.78523 29.0758 9.78273 29.0758C9.78023 29.0758 9.77773 29.0758 9.77524 29.0758C9.77274 29.0758 9.77025 29.0758 9.76776 29.0758C9.76527 29.0758 9.76279 29.0758 9.7603 29.0758C9.75782 29.0758 9.75534 29.0758 9.75286 29.0758C9.75038 29.0758 9.7479 29.0758 9.74543 29.0758C9.74296 29.0758 9.74049 29.0758 9.73802 29.0758C9.73555 29.0758 9.73309 29.0758 9.73063 29.0758C9.72817 29.0758 9.72571 29.0758 9.72325 29.0758C9.72079 29.0758 9.71834 29.0758 9.71589 29.0758C9.71344 29.0758 9.71099 29.0758 9.70855 29.0758C9.7061 29.0758 9.70366 29.0758 9.70122 29.0758C9.69879 29.0758 9.69635 29.0758 9.69392 29.0758C9.69148 29.0758 9.68905 29.0758 9.68663 29.0758C9.6842 29.0758 9.68178 29.0758 9.67936 29.0758C9.67694 29.0758 9.67452 29.0758 9.6721 29.0758C9.66969 29.0758 9.66728 29.0758 9.66487 29.0758C9.66246 29.0758 9.66006 29.0758 9.65766 29.0758C9.65525 29.0758 9.65285 29.0758 9.65046 29.0758C9.64806 29.0758 9.64567 29.0758 9.64328 29.0758C9.64089 29.0758 9.6385 29.0758 9.63612 29.0758C9.63374 29.0758 9.63136 29.0758 9.62898 29.0758C9.62661 29.0758 9.62423 29.0758 9.62186 29.0758C9.61949 29.0758 9.61713 29.0758 9.61476 29.0758C9.6124 29.0758 9.61004 29.0758 9.60768 29.0758C9.60532 29.0758 9.60297 29.0758 9.60062 29.0758C9.59827 29.0758 9.59592 29.0758 9.59358 29.0758C9.59124 29.0758 9.5889 29.0758 9.58656 29.0758C9.58422 29.0758 9.58189 29.0758 9.57956 29.0758C9.57723 29.0758 9.5749 29.0758 9.57258 29.0758C9.57026 29.0758 9.56794 29.0758 9.56562 29.0758C9.56331 29.0758 9.56099 29.0758 9.55869 29.0758C9.55638 29.0758 9.55407 29.0758 9.55177 29.0758C9.54947 29.0758 9.54717 29.0758 9.54487 29.0758C9.54258 29.0758 9.54029 29.0758 9.538 29.0758C9.53571 29.0758 9.53343 29.0758 9.53115 29.0758C9.52887 29.0758 9.52659 29.0758 9.52432 29.0758C9.52205 29.0758 9.51978 29.0758 9.51751 29.0758C9.51525 29.0758 9.51298 29.0758 9.51073 29.0758C9.50847 29.0758 9.50621 29.0758 9.50396 29.0758C9.50171 29.0758 9.49946 29.0758 9.49722 29.0758C9.49498 29.0758 9.49274 29.0758 9.4905 29.0758C9.48827 29.0758 9.48604 29.0758 9.48381 29.0758C9.48158 29.0758 9.47935 29.0758 9.47713 29.0758C9.47491 29.0758 9.4727 29.0758 9.47049 29.0758C9.46827 29.0758 9.46606 29.0758 9.46386 29.0758C9.46165 29.0758 9.45945 29.0758 9.45726 29.0758C9.45506 29.0758 9.45287 29.0758 9.45068 29.0758C9.44849 29.0758 9.4463 29.0758 9.44412 29.0758C9.44194 29.0758 9.43977 29.0758 9.43759 29.0758C9.43542 29.0758 9.43325 29.0758 9.43109 29.0758C9.42892 29.0758 9.42676 29.0758 9.4246 29.0758C9.42245 29.0758 9.42029 29.0758 9.41815 29.0758C9.416 29.0758 9.41385 29.0758 9.41171 29.0758C9.40957 29.0758 9.40744 29.0758 9.40531 29.0758C9.40317 29.0758 9.40105 29.0758 9.39892 29.0758C9.3968 29.0758 9.39468 29.0758 9.39256 29.0758C9.39045 29.0758 9.38834 29.0758 9.38623 29.0758C9.38413 29.0758 9.38202 29.0758 9.37993 29.0758C9.37783 29.0758 9.37573 29.0758 9.37364 29.0758C9.37155 29.0758 9.36947 29.0758 9.36739 29.0758C9.36531 29.0758 9.36323 29.0758 9.36116 29.0758C9.35909 29.0758 9.35702 29.0758 9.35496 29.0758C9.35289 29.0758 9.35083 29.0758 9.34878 29.0758C9.34673 29.0758 9.34468 29.0758 9.34263 29.0758C9.34059 29.0758 9.33854 29.0758 9.33651 29.0758C9.33447 29.0758 9.33244 29.0758 9.33041 29.0758C9.32838 29.0758 9.32636 29.0758 9.32434 29.0758C9.32232 29.0758 9.32031 29.0758 9.3183 29.0758C9.31629 29.0758 9.31429 29.0758 9.31229 29.0758C9.31029 29.0758 9.30829 29.0758 9.3063 29.0758C9.30431 29.0758 9.30232 29.0758 9.30034 29.0758C9.29836 29.0758 9.29638 29.0758 9.29441 29.0758C9.29244 29.0758 9.29047 29.0758 9.28851 29.0758C9.28654 29.0758 9.28458 29.0758 9.28263 29.0758C9.28068 29.0758 9.27873 29.0758 9.27679 29.0758C9.27484 29.0758 9.2729 29.0758 9.27097 29.0758C9.26903 29.0758 9.2671 29.0758 9.26518 29.0758C9.26325 29.0758 9.26133 29.0758 9.25942 29.0758C9.2575 29.0758 9.25559 29.0758 9.25369 29.0758C9.25178 29.0758 9.24988 29.0758 9.24799 29.0758C9.24609 29.0758 9.2442 29.0758 9.24231 29.0758C9.24043 29.0758 9.23855 29.0758 9.23667 29.0758C9.2348 29.0758 9.23293 29.0758 9.23106 29.0758C9.22919 29.0758 9.22733 29.0758 9.22548 29.0758C9.22362 29.0758 9.22177 29.0758 9.21993 29.0758C9.21808 29.0758 9.21624 29.0758 9.2144 29.0758C9.21257 29.0758 9.21074 29.0758 9.20891 29.0758C9.20709 29.0758 9.20527 29.0758 9.20345 29.0758C9.20164 29.0758 9.19983 29.0758 9.19802 29.0758C9.19622 29.0758 9.19442 29.0758 9.19262 29.0758C9.19083 29.0758 9.18904 29.0758 9.18725 29.0758C9.18547 29.0758 9.18369 29.0758 9.18192 29.0758C9.18014 29.0758 9.17838 29.0758 9.17661 29.0758C9.17485 29.0758 9.17309 29.0758 9.17134 29.0758C9.16959 29.0758 9.16784 29.0758 9.1661 29.0758C9.16436 29.0758 9.16262 29.0758 9.16089 29.0758C9.15916 29.0758 9.15743 29.0758 9.15571 29.0758C9.15399 29.0758 9.15228 29.0758 9.15057 29.0758C9.14886 29.0758 9.14715 29.0758 9.14545 29.0758C9.14376 29.0758 9.14206 29.0758 9.14037 29.0758C9.13869 29.0758 9.137 29.0758 9.13533 29.0758C9.13365 29.0758 9.13198 29.0758 9.13031 29.0758C9.12865 29.0758 9.12699 29.0758 9.12533 29.0758C9.12368 29.0758 9.12203 29.0758 9.12039 29.0758C9.11874 29.0758 9.11711 29.0758 9.11547 29.0758C9.11384 29.0758 9.11221 29.0758 9.11059 29.0758C9.10897 29.0758 9.10736 29.0758 9.10575 29.0758C9.10414 29.0758 9.10253 29.0758 9.10094 29.0758C9.09934 29.0758 9.09774 29.0758 9.09616 29.0758C9.09457 29.0758 9.09299 29.0758 9.09141 29.0758C9.08984 29.0758 9.08827 29.0758 9.08671 29.0758C9.08514 29.0758 9.08358 29.0758 9.08203 29.0758C9.08048 29.0758 9.07893 29.0758 9.07739 29.0758C9.07585 29.0758 9.07432 29.0758 9.07279 29.0758C9.07126 29.0758 9.06974 29.0758 9.06822 29.0758C9.0667 29.0758 9.06519 29.0758 9.06369 29.0758C9.06218 29.0758 9.06068 29.0758 9.05919 29.0758C9.0577 29.0758 9.05621 29.0758 9.05473 29.0758C9.05325 29.0758 9.05177 29.0758 9.0503 29.0758C9.04883 29.0758 9.04737 29.0758 9.04591 29.0758C9.04446 29.0758 9.043 29.0758 9.04156 29.0758C9.04011 29.0758 9.03868 29.0758 9.03724 29.0758C9.03581 29.0758 9.03438 29.0758 9.03296 29.0758C9.03154 29.0758 9.03013 29.0758 9.02872 29.0758C9.02731 29.0758 9.02591 29.0758 9.02451 29.0758C9.02312 29.0758 9.02173 29.0758 9.02034 29.0758C9.01896 29.0758 9.01758 29.0758 9.01621 29.0758C9.01484 29.0758 9.01347 29.0758 9.01211 29.0758C9.01076 29.0758 9.0094 29.0758 9.00806 29.0758C9.00671 29.0758 9.00537 29.0758 9.00404 29.0758C9.0027 29.0758 9.00138 29.0758 9.00006 29.0758C8.99874 29.0758 8.99742 29.0758 8.99611 29.0758C8.99481 29.0758 8.9935 29.0758 8.99221 29.0758C8.99091 29.0758 8.98962 29.0758 8.98834 29.0758C8.98706 29.0758 8.98578 29.0758 8.98451 29.0758C8.98324 29.0758 8.98198 29.0758 8.98073 29.0758C8.97947 29.0758 8.97822 29.0758 8.97698 29.0758C8.97573 29.0758 8.9745 29.0758 8.97326 29.0758C8.97203 29.0758 8.97081 29.0758 8.96959 29.0758C8.96838 29.0758 8.96717 29.0758 8.96596 29.0758C8.96476 29.0758 8.96356 29.0758 8.96237 29.0758C8.96118 29.0758 8.95999 29.0758 8.95882 29.0758C8.95764 29.0758 8.95647 29.0758 8.9553 29.0758C8.95414 29.0758 8.95298 29.0758 8.95183 29.0758C8.95068 29.0758 8.94954 29.0758 8.9484 29.0758C8.94726 29.0758 8.94613 29.0758 8.94501 29.0758C8.94389 29.0758 8.94277 29.0758 8.94166 29.0758C8.94055 29.0758 8.93945 29.0758 8.93835 29.0758C8.93725 29.0758 8.93616 29.0758 8.93508 29.0758C8.934 29.0758 8.93292 29.0758 8.93185 29.0758C8.93078 29.0758 8.92972 29.0758 8.92867 29.0758C8.92761 29.0758 8.92656 29.0758 8.92552 29.0758C8.92448 29.0758 8.92345 29.0758 8.92242 29.0758C8.92139 29.0758 8.92037 29.0758 8.91936 29.0758C8.91834 29.0758 8.91734 29.0758 8.91634 29.0758C8.91534 29.0758 8.91435 29.0758 8.91336 29.0758C8.91238 29.0758 8.9114 29.0758 8.91043 29.0758C8.90946 29.0758 8.90849 29.0758 8.90754 29.0758C8.90658 29.0758 8.90563 29.0758 8.90469 29.0758C8.90374 29.0758 8.90281 29.0758 8.90188 29.0758C8.90095 29.0758 8.90003 29.0758 8.89912 29.0758C8.8982 29.0758 8.8973 29.0758 8.8964 29.0758C8.8955 29.0758 8.89461 29.0758 8.89372 29.0758C8.89284 29.0758 8.89196 29.0758 8.89109 29.0758C8.89022 29.0758 8.88936 29.0758 8.8885 29.0758C8.88764 29.0758 8.8868 29.0758 8.88596 29.0758C8.88511 29.0758 8.88428 29.0758 8.88345 29.0758C8.88263 29.0758 8.88181 29.0758 8.881 29.0758C8.88019 29.0758 8.87938 29.0758 8.87859 29.0758C8.87779 29.0758 8.877 29.0758 8.87622 29.0758C8.87544 29.0758 8.87466 29.0758 8.8739 29.0758C8.87313 29.0758 8.87237 29.0758 8.87162 29.0758C8.87087 29.0758 8.87012 29.0758 8.86938 29.0758C8.86865 29.0758 8.86792 29.0758 8.8672 29.0758C8.86648 29.0758 8.86576 29.0758 8.86505 29.0758C8.86435 29.0758 8.86365 29.0758 8.86296 29.0758C8.86227 29.0758 8.86158 29.0758 8.86091 29.0758C8.86023 29.0758 8.85956 29.0758 8.8589 29.0758C8.85824 29.0758 8.85759 29.0758 8.85694 29.0758C8.8563 29.0758 8.85566 29.0758 8.85503 29.0758C8.8544 29.0758 8.85378 29.0758 8.85317 29.0758C8.85255 29.0758 8.85195 29.0758 8.85135 29.0758C8.85075 29.0758 8.85016 29.0758 8.84958 29.0758C8.84899 29.0758 8.84842 29.0758 8.84785 29.0758C8.84728 29.0758 8.84672 29.0758 8.84617 29.0758C8.84562 29.0758 8.84508 29.0758 8.84454 29.0758C8.84401 29.0758 8.84348 29.0758 8.84296 29.0758C8.84244 29.0758 8.84193 29.0758 8.84142 29.0758C8.84092 29.0758 8.84042 29.0758 8.83993 29.0758C8.83945 29.0758 8.83897 29.0758 8.83849 29.0758C8.83802 29.0758 8.83756 29.0758 8.8371 29.0758C8.83665 29.0758 8.8362 29.0758 8.83576 29.0758C8.83532 29.0758 8.83489 29.0758 8.83447 29.0758C8.83404 29.0758 8.83363 29.0758 8.83322 29.0758C8.83281 29.0758 8.83241 29.0758 8.83202 29.0758C8.83163 29.0758 8.83125 29.0758 8.83087 29.0758C8.8305 29.0758 8.83013 29.0758 8.82978 29.0758C8.82942 29.0758 8.82907 29.0758 8.82873 29.0758C8.82838 29.0758 8.82805 29.0758 8.82773 29.0758C8.8274 29.0758 8.82708 29.0758 8.82678 29.0758C8.82647 29.0758 8.82617 29.0758 8.82587 29.0758C8.82558 29.0758 8.8253 29.0758 8.82502 29.0758C8.82475 29.0758 8.82448 29.0758 8.82422 29.0758C8.82397 29.0758 8.82372 29.0758 8.82347 29.0758C8.82323 29.0758 8.823 29.0758 8.82278 29.0758C8.82255 29.0758 8.82233 29.0758 8.82213 29.0758C8.82192 29.0758 8.82172 29.0758 8.82153 29.0758C8.82134 29.0758 8.82116 29.0758 8.82098 29.0758C8.82081 29.0758 8.82064 29.0758 8.82049 29.0758C8.82033 29.0758 8.82018 29.0758 8.82004 29.0758C8.8199 29.0758 8.81977 29.0758 8.81965 29.0758C8.81953 29.0758 8.81942 29.0758 8.81931 29.0758C8.81921 29.0758 8.81911 29.0758 8.81902 29.0758C8.81893 29.0758 8.81886 29.0758 8.81879 29.0758C8.81872 29.0758 8.81865 29.0758 8.8186 29.0758C8.81855 29.0758 8.8185 29.0758 8.81847 29.0758C8.81843 29.0758 8.81841 29.0758 8.81839 29.0758C8.81837 29.0758 8.81836 29.0758 8.81836 29.5758C8.81836 30.0758 8.81837 30.0758 8.81839 30.0758C8.81841 30.0758 8.81843 30.0758 8.81847 30.0758C8.8185 30.0758 8.81855 30.0758 8.8186 30.0758C8.81865 30.0758 8.81872 30.0758 8.81879 30.0758C8.81886 30.0758 8.81893 30.0758 8.81902 30.0758C8.81911 30.0758 8.81921 30.0758 8.81931 30.0758C8.81942 30.0758 8.81953 30.0758 8.81965 30.0758C8.81977 30.0758 8.8199 30.0758 8.82004 30.0758C8.82018 30.0758 8.82033 30.0758 8.82049 30.0758C8.82064 30.0758 8.82081 30.0758 8.82098 30.0758C8.82116 30.0758 8.82134 30.0758 8.82153 30.0758C8.82172 30.0758 8.82192 30.0758 8.82213 30.0758C8.82233 30.0758 8.82255 30.0758 8.82278 30.0758C8.823 30.0758 8.82323 30.0758 8.82347 30.0758C8.82372 30.0758 8.82397 30.0758 8.82422 30.0758C8.82448 30.0758 8.82475 30.0758 8.82502 30.0758C8.8253 30.0758 8.82558 30.0758 8.82587 30.0758C8.82617 30.0758 8.82647 30.0758 8.82678 30.0758C8.82708 30.0758 8.8274 30.0758 8.82773 30.0758C8.82805 30.0758 8.82838 30.0758 8.82873 30.0758C8.82907 30.0758 8.82942 30.0758 8.82978 30.0758C8.83013 30.0758 8.8305 30.0758 8.83087 30.0758C8.83125 30.0758 8.83163 30.0758 8.83202 30.0758C8.83241 30.0758 8.83281 30.0758 8.83322 30.0758C8.83363 30.0758 8.83404 30.0758 8.83447 30.0758C8.83489 30.0758 8.83532 30.0758 8.83576 30.0758C8.8362 30.0758 8.83665 30.0758 8.8371 30.0758C8.83756 30.0758 8.83802 30.0758 8.83849 30.0758C8.83897 30.0758 8.83945 30.0758 8.83993 30.0758C8.84042 30.0758 8.84092 30.0758 8.84142 30.0758C8.84193 30.0758 8.84244 30.0758 8.84296 30.0758C8.84348 30.0758 8.84401 30.0758 8.84454 30.0758C8.84508 30.0758 8.84562 30.0758 8.84617 30.0758C8.84672 30.0758 8.84728 30.0758 8.84785 30.0758C8.84842 30.0758 8.84899 30.0758 8.84958 30.0758C8.85016 30.0758 8.85075 30.0758 8.85135 30.0758C8.85195 30.0758 8.85255 30.0758 8.85317 30.0758C8.85378 30.0758 8.8544 30.0758 8.85503 30.0758C8.85566 30.0758 8.8563 30.0758 8.85694 30.0758C8.85759 30.0758 8.85824 30.0758 8.8589 30.0758C8.85956 30.0758 8.86023 30.0758 8.86091 30.0758C8.86158 30.0758 8.86227 30.0758 8.86296 30.0758C8.86365 30.0758 8.86435 30.0758 8.86505 30.0758C8.86576 30.0758 8.86648 30.0758 8.8672 30.0758C8.86792 30.0758 8.86865 30.0758 8.86938 30.0758C8.87012 30.0758 8.87087 30.0758 8.87162 30.0758C8.87237 30.0758 8.87313 30.0758 8.8739 30.0758C8.87466 30.0758 8.87544 30.0758 8.87622 30.0758C8.877 30.0758 8.87779 30.0758 8.87859 30.0758C8.87938 30.0758 8.88019 30.0758 8.881 30.0758C8.88181 30.0758 8.88263 30.0758 8.88345 30.0758C8.88428 30.0758 8.88511 30.0758 8.88596 30.0758C8.8868 30.0758 8.88764 30.0758 8.8885 30.0758C8.88936 30.0758 8.89022 30.0758 8.89109 30.0758C8.89196 30.0758 8.89284 30.0758 8.89372 30.0758C8.89461 30.0758 8.8955 30.0758 8.8964 30.0758C8.8973 30.0758 8.8982 30.0758 8.89912 30.0758C8.90003 30.0758 8.90095 30.0758 8.90188 30.0758C8.90281 30.0758 8.90374 30.0758 8.90469 30.0758C8.90563 30.0758 8.90658 30.0758 8.90754 30.0758C8.90849 30.0758 8.90946 30.0758 8.91043 30.0758C8.9114 30.0758 8.91238 30.0758 8.91336 30.0758C8.91435 30.0758 8.91534 30.0758 8.91634 30.0758C8.91734 30.0758 8.91834 30.0758 8.91936 30.0758C8.92037 30.0758 8.92139 30.0758 8.92242 30.0758C8.92345 30.0758 8.92448 30.0758 8.92552 30.0758C8.92656 30.0758 8.92761 30.0758 8.92867 30.0758C8.92972 30.0758 8.93078 30.0758 8.93185 30.0758C8.93292 30.0758 8.934 30.0758 8.93508 30.0758C8.93616 30.0758 8.93725 30.0758 8.93835 30.0758C8.93945 30.0758 8.94055 30.0758 8.94166 30.0758C8.94277 30.0758 8.94389 30.0758 8.94501 30.0758C8.94613 30.0758 8.94726 30.0758 8.9484 30.0758C8.94954 30.0758 8.95068 30.0758 8.95183 30.0758C8.95298 30.0758 8.95414 30.0758 8.9553 30.0758C8.95647 30.0758 8.95764 30.0758 8.95882 30.0758C8.95999 30.0758 8.96118 30.0758 8.96237 30.0758C8.96356 30.0758 8.96476 30.0758 8.96596 30.0758C8.96717 30.0758 8.96838 30.0758 8.96959 30.0758C8.97081 30.0758 8.97203 30.0758 8.97326 30.0758C8.9745 30.0758 8.97573 30.0758 8.97698 30.0758C8.97822 30.0758 8.97947 30.0758 8.98073 30.0758C8.98198 30.0758 8.98324 30.0758 8.98451 30.0758C8.98578 30.0758 8.98706 30.0758 8.98834 30.0758C8.98962 30.0758 8.99091 30.0758 8.99221 30.0758C8.9935 30.0758 8.99481 30.0758 8.99611 30.0758C8.99742 30.0758 8.99874 30.0758 9.00006 30.0758C9.00138 30.0758 9.0027 30.0758 9.00404 30.0758C9.00537 30.0758 9.00671 30.0758 9.00806 30.0758C9.0094 30.0758 9.01076 30.0758 9.01211 30.0758C9.01347 30.0758 9.01484 30.0758 9.01621 30.0758C9.01758 30.0758 9.01896 30.0758 9.02034 30.0758C9.02173 30.0758 9.02312 30.0758 9.02451 30.0758C9.02591 30.0758 9.02731 30.0758 9.02872 30.0758C9.03013 30.0758 9.03154 30.0758 9.03296 30.0758C9.03438 30.0758 9.03581 30.0758 9.03724 30.0758C9.03868 30.0758 9.04011 30.0758 9.04156 30.0758C9.043 30.0758 9.04446 30.0758 9.04591 30.0758C9.04737 30.0758 9.04883 30.0758 9.0503 30.0758C9.05177 30.0758 9.05325 30.0758 9.05473 30.0758C9.05621 30.0758 9.0577 30.0758 9.05919 30.0758C9.06068 30.0758 9.06218 30.0758 9.06369 30.0758C9.06519 30.0758 9.0667 30.0758 9.06822 30.0758C9.06974 30.0758 9.07126 30.0758 9.07279 30.0758C9.07432 30.0758 9.07585 30.0758 9.07739 30.0758C9.07893 30.0758 9.08048 30.0758 9.08203 30.0758C9.08358 30.0758 9.08514 30.0758 9.08671 30.0758C9.08827 30.0758 9.08984 30.0758 9.09141 30.0758C9.09299 30.0758 9.09457 30.0758 9.09616 30.0758C9.09774 30.0758 9.09934 30.0758 9.10094 30.0758C9.10253 30.0758 9.10414 30.0758 9.10575 30.0758C9.10736 30.0758 9.10897 30.0758 9.11059 30.0758C9.11221 30.0758 9.11384 30.0758 9.11547 30.0758C9.11711 30.0758 9.11874 30.0758 9.12039 30.0758C9.12203 30.0758 9.12368 30.0758 9.12533 30.0758C9.12699 30.0758 9.12865 30.0758 9.13031 30.0758C9.13198 30.0758 9.13365 30.0758 9.13533 30.0758C9.137 30.0758 9.13869 30.0758 9.14037 30.0758C9.14206 30.0758 9.14376 30.0758 9.14545 30.0758C9.14715 30.0758 9.14886 30.0758 9.15057 30.0758C9.15228 30.0758 9.15399 30.0758 9.15571 30.0758C9.15743 30.0758 9.15916 30.0758 9.16089 30.0758C9.16262 30.0758 9.16436 30.0758 9.1661 30.0758C9.16784 30.0758 9.16959 30.0758 9.17134 30.0758C9.17309 30.0758 9.17485 30.0758 9.17661 30.0758C9.17838 30.0758 9.18014 30.0758 9.18192 30.0758C9.18369 30.0758 9.18547 30.0758 9.18725 30.0758C9.18904 30.0758 9.19083 30.0758 9.19262 30.0758C9.19442 30.0758 9.19622 30.0758 9.19802 30.0758C9.19983 30.0758 9.20164 30.0758 9.20345 30.0758C9.20527 30.0758 9.20709 30.0758 9.20891 30.0758C9.21074 30.0758 9.21257 30.0758 9.2144 30.0758C9.21624 30.0758 9.21808 30.0758 9.21993 30.0758C9.22177 30.0758 9.22362 30.0758 9.22548 30.0758C9.22733 30.0758 9.22919 30.0758 9.23106 30.0758C9.23293 30.0758 9.2348 30.0758 9.23667 30.0758C9.23855 30.0758 9.24043 30.0758 9.24231 30.0758C9.2442 30.0758 9.24609 30.0758 9.24799 30.0758C9.24988 30.0758 9.25178 30.0758 9.25369 30.0758C9.25559 30.0758 9.2575 30.0758 9.25942 30.0758C9.26133 30.0758 9.26325 30.0758 9.26518 30.0758C9.2671 30.0758 9.26903 30.0758 9.27097 30.0758C9.2729 30.0758 9.27484 30.0758 9.27679 30.0758C9.27873 30.0758 9.28068 30.0758 9.28263 30.0758C9.28458 30.0758 9.28654 30.0758 9.28851 30.0758C9.29047 30.0758 9.29244 30.0758 9.29441 30.0758C9.29638 30.0758 9.29836 30.0758 9.30034 30.0758C9.30232 30.0758 9.30431 30.0758 9.3063 30.0758C9.30829 30.0758 9.31029 30.0758 9.31229 30.0758C9.31429 30.0758 9.31629 30.0758 9.3183 30.0758C9.32031 30.0758 9.32232 30.0758 9.32434 30.0758C9.32636 30.0758 9.32838 30.0758 9.33041 30.0758C9.33244 30.0758 9.33447 30.0758 9.33651 30.0758C9.33854 30.0758 9.34059 30.0758 9.34263 30.0758C9.34468 30.0758 9.34673 30.0758 9.34878 30.0758C9.35083 30.0758 9.35289 30.0758 9.35496 30.0758C9.35702 30.0758 9.35909 30.0758 9.36116 30.0758C9.36323 30.0758 9.36531 30.0758 9.36739 30.0758C9.36947 30.0758 9.37155 30.0758 9.37364 30.0758C9.37573 30.0758 9.37783 30.0758 9.37993 30.0758C9.38202 30.0758 9.38413 30.0758 9.38623 30.0758C9.38834 30.0758 9.39045 30.0758 9.39256 30.0758C9.39468 30.0758 9.3968 30.0758 9.39892 30.0758C9.40105 30.0758 9.40317 30.0758 9.40531 30.0758C9.40744 30.0758 9.40957 30.0758 9.41171 30.0758C9.41385 30.0758 9.416 30.0758 9.41815 30.0758C9.42029 30.0758 9.42245 30.0758 9.4246 30.0758C9.42676 30.0758 9.42892 30.0758 9.43109 30.0758C9.43325 30.0758 9.43542 30.0758 9.43759 30.0758C9.43977 30.0758 9.44194 30.0758 9.44412 30.0758C9.4463 30.0758 9.44849 30.0758 9.45068 30.0758C9.45287 30.0758 9.45506 30.0758 9.45726 30.0758C9.45945 30.0758 9.46165 30.0758 9.46386 30.0758C9.46606 30.0758 9.46827 30.0758 9.47049 30.0758C9.4727 30.0758 9.47491 30.0758 9.47713 30.0758C9.47935 30.0758 9.48158 30.0758 9.48381 30.0758C9.48604 30.0758 9.48827 30.0758 9.4905 30.0758C9.49274 30.0758 9.49498 30.0758 9.49722 30.0758C9.49946 30.0758 9.50171 30.0758 9.50396 30.0758C9.50621 30.0758 9.50847 30.0758 9.51073 30.0758C9.51298 30.0758 9.51525 30.0758 9.51751 30.0758C9.51978 30.0758 9.52205 30.0758 9.52432 30.0758C9.52659 30.0758 9.52887 30.0758 9.53115 30.0758C9.53343 30.0758 9.53571 30.0758 9.538 30.0758C9.54029 30.0758 9.54258 30.0758 9.54487 30.0758C9.54717 30.0758 9.54947 30.0758 9.55177 30.0758C9.55407 30.0758 9.55638 30.0758 9.55869 30.0758C9.56099 30.0758 9.56331 30.0758 9.56562 30.0758C9.56794 30.0758 9.57026 30.0758 9.57258 30.0758C9.5749 30.0758 9.57723 30.0758 9.57956 30.0758C9.58189 30.0758 9.58422 30.0758 9.58656 30.0758C9.5889 30.0758 9.59124 30.0758 9.59358 30.0758C9.59592 30.0758 9.59827 30.0758 9.60062 30.0758C9.60297 30.0758 9.60532 30.0758 9.60768 30.0758C9.61004 30.0758 9.6124 30.0758 9.61476 30.0758C9.61713 30.0758 9.61949 30.0758 9.62186 30.0758C9.62423 30.0758 9.62661 30.0758 9.62898 30.0758C9.63136 30.0758 9.63374 30.0758 9.63612 30.0758C9.6385 30.0758 9.64089 30.0758 9.64328 30.0758C9.64567 30.0758 9.64806 30.0758 9.65046 30.0758C9.65285 30.0758 9.65525 30.0758 9.65766 30.0758C9.66006 30.0758 9.66246 30.0758 9.66487 30.0758C9.66728 30.0758 9.66969 30.0758 9.6721 30.0758C9.67452 30.0758 9.67694 30.0758 9.67936 30.0758C9.68178 30.0758 9.6842 30.0758 9.68663 30.0758C9.68905 30.0758 9.69148 30.0758 9.69392 30.0758C9.69635 30.0758 9.69879 30.0758 9.70122 30.0758C9.70366 30.0758 9.7061 30.0758 9.70855 30.0758C9.71099 30.0758 9.71344 30.0758 9.71589 30.0758C9.71834 30.0758 9.72079 30.0758 9.72325 30.0758C9.72571 30.0758 9.72817 30.0758 9.73063 30.0758C9.73309 30.0758 9.73555 30.0758 9.73802 30.0758C9.74049 30.0758 9.74296 30.0758 9.74543 30.0758C9.7479 30.0758 9.75038 30.0758 9.75286 30.0758C9.75534 30.0758 9.75782 30.0758 9.7603 30.0758C9.76279 30.0758 9.76527 30.0758 9.76776 30.0758C9.77025 30.0758 9.77274 30.0758 9.77524 30.0758C9.77773 30.0758 9.78023 30.0758 9.78273 30.0758C9.78523 30.0758 9.78773 30.0758 9.79024 30.0758C9.79275 30.0758 9.79525 30.0758 9.79776 30.0758C9.80028 30.0758 9.80279 30.0758 9.8053 30.0758C9.80782 30.0758 9.81034 30.0758 9.81286 30.0758C9.81538 30.0758 9.8179 30.0758 9.82043 30.0758C9.82296 30.0758 9.82548 30.0758 9.82801 30.0758C9.83055 30.0758 9.83308 30.0758 9.83562 30.0758C9.83815 30.0758 9.84069 30.0758 9.84323 30.0758C9.84577 30.0758 9.84831 30.0758 9.85086 30.0758C9.8534 30.0758 9.85595 30.0758 9.8585 30.0758C9.86105 30.0758 9.86361 30.0758 9.86616 30.0758C9.86872 30.0758 9.87127 30.0758 9.87383 30.0758C9.87639 30.0758 9.87895 30.0758 9.88152 30.0758C9.88408 30.0758 9.88665 30.0758 9.88922 30.0758C9.89179 30.0758 9.89436 30.0758 9.89693 30.0758C9.8995 30.0758 9.90208 30.0758 9.90466 30.0758C9.90723 30.0758 9.90981 30.0758 9.9124 30.0758C9.91498 30.0758 9.91756 30.0758 9.92015 30.0758C9.92273 30.0758 9.92532 30.0758 9.92791 30.0758C9.9305 30.0758 9.9331 30.0758 9.93569 30.0758C9.93829 30.0758 9.94088 30.0758 9.94348 30.0758C9.94608 30.0758 9.94868 30.0758 9.95128 30.0758C9.95389 30.0758 9.95649 30.0758 9.9591 30.0758C9.9617 30.0758 9.96431 30.0758 9.96692 30.0758C9.96954 30.0758 9.97215 30.0758 9.97476 30.0758C9.97738 30.0758 9.97999 30.0758 9.98261 30.0758C9.98523 30.0758 9.98785 30.0758 9.99047 30.0758C9.9931 30.0758 9.99572 30.0758 9.99835 30.0758C10.001 30.0758 10.0036 30.0758 10.0062 30.0758C10.0089 30.0758 10.0115 30.0758 10.0141 30.0758C10.0168 30.0758 10.0194 30.0758 10.022 30.0758C10.0247 30.0758 10.0273 30.0758 10.0299 30.0758C10.0326 30.0758 10.0352 30.0758 10.0379 30.0758C10.0405 30.0758 10.0432 30.0758 10.0458 30.0758C10.0485 30.0758 10.0511 30.0758 10.0538 30.0758C10.0564 30.0758 10.0591 30.0758 10.0617 30.0758C10.0644 30.0758 10.067 30.0758 10.0697 30.0758C10.0723 30.0758 10.075 30.0758 10.0777 30.0758C10.0803 30.0758 10.083 30.0758 10.0856 30.0758C10.0883 30.0758 10.091 30.0758 10.0936 30.0758C10.0963 30.0758 10.099 30.0758 10.1016 30.0758C10.1043 30.0758 10.107 30.0758 10.1097 30.0758C10.1123 30.0758 10.115 30.0758 10.1177 30.0758C10.1204 30.0758 10.123 30.0758 10.1257 30.0758C10.1284 30.0758 10.1311 30.0758 10.1337 30.0758C10.1364 30.0758 10.1391 30.0758 10.1418 30.0758C10.1445 30.0758 10.1472 30.0758 10.1498 30.0758C10.1525 30.0758 10.1552 30.0758 10.1579 30.0758C10.1606 30.0758 10.1633 30.0758 10.166 30.0758C10.1687 30.0758 10.1714 30.0758 10.1741 30.0758C10.1768 30.0758 10.1794 30.0758 10.1821 30.0758C10.1848 30.0758 10.1875 30.0758 10.1902 30.0758C10.1929 30.0758 10.1956 30.0758 10.1983 30.0758C10.201 30.0758 10.2037 30.0758 10.2064 30.0758C10.2091 30.0758 10.2118 30.0758 10.2146 30.0758C10.2173 30.0758 10.22 30.0758 10.2227 30.0758C10.2254 30.0758 10.2281 30.0758 10.2308 30.0758C10.2335 30.0758 10.2362 30.0758 10.2389 30.0758C10.2416 30.0758 10.2444 30.0758 10.2471 30.0758C10.2498 30.0758 10.2525 30.0758 10.2552 30.0758C10.2579 30.0758 10.2606 30.0758 10.2634 30.0758C10.2661 30.0758 10.2688 30.0758 10.2715 30.0758C10.2742 30.0758 10.277 30.0758 10.2797 30.0758C10.2824 30.0758 10.2851 30.0758 10.2878 30.0758C10.2906 30.0758 10.2933 30.0758 10.296 30.0758C10.2987 30.0758 10.3015 30.0758 10.3042 30.0758C10.3069 30.0758 10.3096 30.0758 10.3124 30.0758C10.3151 30.0758 10.3178 30.0758 10.3206 30.0758C10.3233 30.0758 10.326 30.0758 10.3287 30.0758C10.3315 30.0758 10.3342 30.0758 10.3369 30.0758C10.3397 30.0758 10.3424 30.0758 10.3451 30.0758C10.3479 30.0758 10.3506 30.0758 10.3533 30.0758C10.3561 30.0758 10.3588 30.0758 10.3615 30.0758C10.3643 30.0758 10.367 30.0758 10.3697 30.0758C10.3725 30.0758 10.3752 30.0758 10.378 30.0758C10.3807 30.0758 10.3834 30.0758 10.3862 30.0758C10.3889 30.0758 10.3916 30.0758 10.3944 30.0758C10.3971 30.0758 10.3999 30.0758 10.4026 30.0758C10.4053 30.0758 10.4081 30.0758 10.4108 30.0758C10.4136 30.0758 10.4163 30.0758 10.4191 30.0758C10.4218 30.0758 10.4245 30.0758 10.4273 30.0758C10.43 30.0758 10.4328 30.0758 10.4355 30.0758C10.4383 30.0758 10.441 30.0758 10.4437 30.0758C10.4465 30.0758 10.4492 30.0758 10.452 30.0758C10.4547 30.0758 10.4575 30.0758 10.4602 30.0758C10.463 30.0758 10.4657 30.0758 10.4684 30.0758C10.4712 30.0758 10.4739 30.0758 10.4767 30.0758C10.4794 30.0758 10.4822 30.0758 10.4849 30.0758C10.4877 30.0758 10.4904 30.0758 10.4932 30.0758C10.4959 30.0758 10.4987 30.0758 10.5014 30.0758C10.5041 30.0758 10.5069 30.0758 10.5096 30.0758C10.5124 30.0758 10.5151 30.0758 10.5179 30.0758C10.5206 30.0758 10.5234 30.0758 10.5261 30.0758C10.5289 30.0758 10.5316 30.0758 10.5344 30.0758C10.5371 30.0758 10.5399 30.0758 10.5426 30.0758C10.5454 30.0758 10.5481 30.0758 10.5508 30.0758C10.5536 30.0758 10.5563 30.0758 10.5591 30.0758C10.5618 30.0758 10.5646 30.0758 10.5673 30.0758C10.5701 30.0758 10.5728 30.0758 10.5756 30.0758C10.5783 30.0758 10.5811 30.0758 10.5838 30.0758C10.5865 30.0758 10.5893 30.0758 10.592 30.0758C10.5948 30.0758 10.5975 30.0758 10.6003 30.0758C10.603 30.0758 10.6058 30.0758 10.6085 30.0758C10.6113 30.0758 10.614 30.0758 10.6167 30.0758C10.6195 30.0758 10.6222 30.0758 10.625 30.0758C10.6277 30.0758 10.6305 30.0758 10.6332 30.0758C10.6359 30.0758 10.6387 30.0758 10.6414 30.0758C10.6442 30.0758 10.6469 30.0758 10.6497 30.0758C10.6524 30.0758 10.6551 30.0758 10.6579 30.0758C10.6606 30.0758 10.6634 30.0758 10.6661 30.0758C10.6688 30.0758 10.6716 30.0758 10.6743 30.0758C10.677 30.0758 10.6798 30.0758 10.6825 30.0758C10.6853 30.0758 10.688 30.0758 10.6907 30.0758C10.6935 30.0758 10.6962 30.0758 10.6989 30.0758C10.7017 30.0758 10.7044 30.0758 10.7071 30.0758C10.7099 30.0758 10.7126 30.0758 10.7153 30.0758C10.7181 30.0758 10.7208 30.0758 10.7235 30.0758C10.7263 30.0758 10.729 30.0758 10.7317 30.0758C10.7345 30.0758 10.7372 30.0758 10.7399 30.0758C10.7426 30.0758 10.7454 30.0758 10.7481 30.0758C10.7508 30.0758 10.7536 30.0758 10.7563 30.0758C10.759 30.0758 10.7617 30.0758 10.7645 30.0758C10.7672 30.0758 10.7699 30.0758 10.7726 30.0758C10.7753 30.0758 10.7781 30.0758 10.7808 30.0758C10.7835 30.0758 10.7862 30.0758 10.7889 30.0758C10.7917 30.0758 10.7944 30.0758 10.7971 30.0758C10.7998 30.0758 10.8025 30.0758 10.8052 30.0758C10.808 30.0758 10.8107 30.0758 10.8134 30.0758C10.8161 30.0758 10.8188 30.0758 10.8215 30.0758C10.8242 30.0758 10.8269 30.0758 10.8297 30.0758C10.8324 30.0758 10.8351 30.0758 10.8378 30.0758C10.8405 30.0758 10.8432 30.0758 10.8459 30.0758C10.8486 30.0758 10.8513 30.0758 10.854 30.0758C10.8567 30.0758 10.8594 30.0758 10.8621 30.0758C10.8648 30.0758 10.8675 30.0758 10.8702 30.0758C10.8729 30.0758 10.8756 30.0758 10.8783 30.0758C10.881 30.0758 10.8837 30.0758 10.8864 30.0758C10.8891 30.0758 10.8918 30.0758 10.8945 30.0758C10.8971 30.0758 10.8998 30.0758 10.9025 30.0758C10.9052 30.0758 10.9079 30.0758 10.9106 30.0758C10.9133 30.0758 10.916 30.0758 10.9186 30.0758C10.9213 30.0758 10.924 30.0758 10.9267 30.0758C10.9294 30.0758 10.932 30.0758 10.9347 30.0758C10.9374 30.0758 10.9401 30.0758 10.9427 30.0758C10.9454 30.0758 10.9481 30.0758 10.9508 30.0758C10.9534 30.0758 10.9561 30.0758 10.9588 30.0758C10.9614 30.0758 10.9641 30.0758 10.9668 30.0758C10.9694 30.0758 10.9721 30.0758 10.9748 30.0758C10.9774 30.0758 10.9801 30.0758 10.9827 30.0758C10.9854 30.0758 10.9881 30.0758 10.9907 30.0758C10.9934 30.0758 10.996 30.0758 10.9987 30.0758C11.0013 30.0758 11.004 30.0758 11.0066 30.0758C11.0093 30.0758 11.0119 30.0758 11.0146 30.0758C11.0172 30.0758 11.0199 30.0758 11.0225 30.0758C11.0252 30.0758 11.0278 30.0758 11.0304 30.0758C11.0331 30.0758 11.0357 30.0758 11.0383 30.0758C11.041 30.0758 11.0436 30.0758 11.0463 30.0758C11.0489 30.0758 11.0515 30.0758 11.0541 30.0758C11.0568 30.0758 11.0594 30.0758 11.062 30.0758C11.0646 30.0758 11.0673 30.0758 11.0699 30.0758C11.0725 30.0758 11.0751 30.0758 11.0777 30.0758C11.0804 30.0758 11.083 30.0758 11.0856 30.0758C11.0882 30.0758 11.0908 30.0758 11.0934 30.0758C11.096 30.0758 11.0986 30.0758 11.1013 30.0758C11.1039 30.0758 11.1065 30.0758 11.1091 30.0758C11.1117 30.0758 11.1143 30.0758 11.1169 30.0758C11.1195 30.0758 11.1221 30.0758 11.1246 30.0758C11.1272 30.0758 11.1298 30.0758 11.1324 30.0758C11.135 30.0758 11.1376 30.0758 11.1402 30.0758C11.1428 30.0758 11.1454 30.0758 11.1479 30.0758C11.1505 30.0758 11.1531 30.0758 11.1557 30.0758C11.1582 30.0758 11.1608 30.0758 11.1634 30.0758C11.166 30.0758 11.1685 30.0758 11.1711 30.0758C11.1737 30.0758 11.1762 30.0758 11.1788 30.0758C11.1814 30.0758 11.1839 30.0758 11.1865 30.0758C11.189 30.0758 11.1916 30.0758 11.1941 30.0758C11.1967 30.0758 11.1992 30.0758 11.2018 30.0758C11.2043 30.0758 11.2069 30.0758 11.2094 30.0758C11.212 30.0758 11.2145 30.0758 11.2171 30.0758C11.2196 30.0758 11.2221 30.0758 11.2247 30.0758C11.2272 30.0758 11.2297 30.0758 11.2323 30.0758C11.2348 30.0758 11.2373 30.0758 11.2398 30.0758C11.2424 30.0758 11.2449 30.0758 11.2474 30.0758C11.2499 30.0758 11.2524 30.0758 11.255 30.0758C11.2575 30.0758 11.26 30.0758 11.2625 30.0758C11.265 30.0758 11.2675 30.0758 11.27 30.0758C11.2725 30.0758 11.275 30.0758 11.2775 30.0758C11.28 30.0758 11.2825 30.0758 11.285 30.0758C11.2875 30.0758 11.29 30.0758 11.2925 30.0758C11.295 30.0758 11.2974 30.0758 11.2999 30.0758C11.3024 30.0758 11.3049 30.0758 11.3074 30.0758C11.3098 30.0758 11.3123 30.0758 11.3148 30.0758C11.3173 30.0758 11.3197 30.0758 11.3222 30.0758C11.3247 30.0758 11.3271 30.0758 11.3296 30.0758C11.332 30.0758 11.3345 30.0758 11.337 30.0758C11.3394 30.0758 11.3419 30.0758 11.3443 30.0758C11.3468 30.0758 11.3492 30.0758 11.3516 30.0758C11.3541 30.0758 11.3565 30.0758 11.359 30.0758C11.3614 30.0758 11.3638 30.0758 11.3663 30.0758C11.3687 30.0758 11.3711 30.0758 11.3735 30.0758C11.376 30.0758 11.3784 30.0758 11.3808 30.0758C11.3832 30.0758 11.3856 30.0758 11.3881 30.0758C11.3905 30.0758 11.3929 30.0758 11.3953 30.0758C11.3977 30.0758 11.4001 30.0758 11.4025 30.0758C11.4049 30.0758 11.4073 30.0758 11.4097 30.0758C11.4121 30.0758 11.4145 30.0758 11.4169 30.0758C11.4192 30.0758 11.4216 30.0758 11.424 30.0758C11.4264 30.0758 11.4288 30.0758 11.4311 30.0758C11.4335 30.0758 11.4359 30.0758 11.4383 30.0758C11.4406 30.0758 11.443 30.0758 11.4454 30.0758C11.4477 30.0758 11.4501 30.0758 11.4524 30.0758C11.4548 30.0758 11.4571 30.0758 11.4595 30.0758C11.4618 30.0758 11.4642 30.0758 11.4665 30.0758C11.4689 30.0758 11.4712 30.0758 11.4735 30.0758C11.4759 30.0758 11.4782 30.0758 11.4805 30.0758C11.4828 30.0758 11.4852 30.0758 11.4875 30.0758C11.4898 30.0758 11.4921 30.0758 11.4944 30.0758C11.4968 30.0758 11.4991 30.0758 11.5014 30.0758C11.5037 30.0758 11.506 30.0758 11.5083 30.0758C11.5106 30.0758 11.5129 30.0758 11.5152 30.0758C11.5175 30.0758 11.5198 30.0758 11.522 30.0758C11.5243 30.0758 11.5266 30.0758 11.5289 30.0758C11.5312 30.0758 11.5334 30.0758 11.5357 30.0758C11.538 30.0758 11.5402 30.0758 11.5425 30.0758C11.5448 30.0758 11.547 30.0758 11.5493 30.0758C11.5515 30.0758 11.5538 30.0758 11.556 30.0758C11.5583 30.0758 11.5605 30.0758 11.5628 30.0758C11.565 30.0758 11.5673 30.0758 11.5695 30.0758C11.5717 30.0758 11.5739 30.0758 11.5762 30.0758C11.5784 30.0758 11.5806 30.0758 11.5828 30.0758C11.5851 30.0758 11.5873 30.0758 11.5895 30.0758C11.5917 30.0758 11.5939 30.0758 11.5961 30.0758C11.5983 30.0758 11.6005 30.0758 11.6027 30.0758C11.6049 30.0758 11.6071 30.0758 11.6093 30.0758C11.6115 30.0758 11.6136 30.0758 11.6158 30.0758C11.618 30.0758 11.6202 30.0758 11.6223 30.0758C11.6245 30.0758 11.6267 30.0758 11.6288 30.0758C11.631 30.0758 11.6332 30.0758 11.6353 30.0758C11.6375 30.0758 11.6396 30.0758 11.6418 30.0758C11.6439 30.0758 11.646 30.0758 11.6482 30.0758C11.6503 30.0758 11.6525 30.0758 11.6546 30.0758C11.6567 30.0758 11.6588 30.0758 11.661 30.0758C11.6631 30.0758 11.6652 30.0758 11.6673 30.0758C11.6694 30.0758 11.6715 30.0758 11.6736 30.0758C11.6757 30.0758 11.6778 30.0758 11.6799 30.0758C11.682 30.0758 11.6841 30.0758 11.6862 30.0758C11.6883 30.0758 11.6904 30.0758 11.6924 30.0758C11.6945 30.0758 11.6966 30.0758 11.6987 30.0758C11.7007 30.0758 11.7028 30.0758 11.7049 30.0758C11.7069 30.0758 11.709 30.0758 11.711 30.0758C11.7131 30.0758 11.7151 30.0758 11.7172 30.0758C11.7192 30.0758 11.7213 30.0758 11.7233 30.0758C11.7253 30.0758 11.7273 30.0758 11.7294 30.0758C11.7314 30.0758 11.7334 30.0758 11.7354 30.0758C11.7375 30.0758 11.7395 30.0758 11.7415 30.0758C11.7435 30.0758 11.7455 30.0758 11.7475 30.0758C11.7495 30.0758 11.7515 30.0758 11.7535 30.0758C11.7554 30.0758 11.7574 30.0758 11.7594 30.0758C11.7614 30.0758 11.7634 30.0758 11.7653 30.0758C11.7673 30.0758 11.7693 30.0758 11.7712 30.0758C11.7732 30.0758 11.7751 30.0758 11.7771 30.0758C11.779 30.0758 11.781 30.0758 11.7829 30.0758C11.7849 30.0758 11.7868 30.0758 11.7887 30.0758C11.7907 30.0758 11.7926 30.0758 11.7945 30.0758C11.7964 30.0758 11.7983 30.0758 11.8003 30.0758C11.8022 30.0758 11.8041 30.0758 11.806 30.0758C11.8079 30.0758 11.8098 30.0758 11.8117 30.0758C11.8136 30.0758 11.8154 30.0758 11.8173 30.0758C11.8192 30.0758 11.8211 30.0758 11.823 30.0758C11.8248 30.0758 11.8267 30.0758 11.8286 30.0758C11.8304 30.0758 11.8323 30.0758 11.8341 30.0758C11.836 30.0758 11.8378 30.0758 11.8397 30.0758C11.8415 30.0758 11.8434 30.0758 11.8452 30.0758C11.847 30.0758 11.8489 30.0758 11.8507 30.0758C11.8525 30.0758 11.8543 30.0758 11.8561 30.0758C11.8579 30.0758 11.8597 30.0758 11.8615 30.0758C11.8633 30.0758 11.8651 30.0758 11.8669 30.0758C11.8687 30.0758 11.8705 30.0758 11.8723 30.0758C11.8741 30.0758 11.8759 30.0758 11.8776 30.0758C11.8794 30.0758 11.8812 30.0758 11.8829 30.0758C11.8847 30.0758 11.8864 30.0758 11.8882 30.0758C11.8899 30.0758 11.8917 30.0758 11.8934 30.0758C11.8951 30.0758 11.8969 30.0758 11.8986 30.0758C11.9003 30.0758 11.9021 30.0758 11.9038 30.0758C11.9055 30.0758 11.9072 30.0758 11.9089 30.0758C11.9106 30.0758 11.9123 30.0758 11.914 30.0758C11.9157 30.0758 11.9174 30.0758 11.9191 30.0758C11.9208 30.0758 11.9224 30.0758 11.9241 30.0758C11.9258 30.0758 11.9275 30.0758 11.9291 30.0758C11.9308 30.0758 11.9324 30.0758 11.9341 30.0758C11.9357 30.0758 11.9374 30.0758 11.939 30.0758C11.9407 30.0758 11.9423 30.0758 11.9439 30.0758C11.9456 30.0758 11.9472 30.0758 11.9488 30.0758C11.9504 30.0758 11.952 30.0758 11.9536 30.0758V29.0758ZM9.31836 29.5758V26.626H8.31836V29.5758H9.31836ZM8.81836 30.0758H11.9536V29.0758H8.81836V30.0758ZM11.9536 30.0758C12.5879 30.0758 13.0816 30.5641 13.0816 31.1759H14.0816C14.0816 29.9894 13.1175 29.0758 11.9536 29.0758V30.0758ZM13.0816 31.1759C13.0816 31.7988 12.5766 32.3038 11.9536 32.3038V33.3038C13.1289 33.3038 14.0816 32.3511 14.0816 31.1759H13.0816ZM11.9536 32.3038H8.81836V33.3038H11.9536V32.3038ZM9.31836 32.8038L9.31836 29.5758H8.31836L8.31836 32.8038H9.31836Z" fill="#6E7191"/>
</g>
<defs>
<clipPath id="clip0_35181_4592">
<rect width="40" height="40" fill="white" transform="translate(0 0.119141)"/>
</clipPath>
</defs>
</svg>
