<svg width="40" height="40" viewBox="0 0 40 40" fill="none" xmlns="http://www.w3.org/2000/svg">
<g clip-path="url(#clip0_35181_20)">
<path d="M7.4541 32.5459C10.7812 35.873 15.2919 37.7447 19.9971 37.75C24.7022 37.7447 29.213 35.873 32.54 32.5459C35.8671 29.2188 37.7388 24.7081 37.7441 20.0029C37.7388 15.2978 35.8671 10.7865 32.54 7.45947C29.213 4.13241 24.7022 2.26115 19.9971 2.25586C15.2919 2.26115 10.7812 4.13241 7.4541 7.45947C4.12704 10.7865 2.25529 15.2978 2.25 20.0029C2.25529 24.7081 4.12704 29.2188 7.4541 32.5459Z" stroke="#6E7191"/>
<path d="M15.3027 17.2891C15.3027 17.2891 15.5527 14.7891 16.8027 12.7891C18.0527 10.7891 20.3027 9.28909 22.3027 10.789C24.8027 12.7891 24.8027 15.2648 24.3027 16.2891C23.6174 17.6931 21.7078 18.9314 20.8027 20.2891C18.8027 23.2892 19.3027 25.7891 19.3027 25.7891" stroke="#6E7191" stroke-linecap="round" stroke-linejoin="round"/>
<path d="M19.3027 28.7891V29.2891" stroke="#6E7191" stroke-linecap="round" stroke-linejoin="round"/>
</g>
<defs>
<clipPath id="clip0_35181_20">
<rect width="39.999" height="39.999" fill="white" transform="translate(-0.00195312 0.00292969)"/>
</clipPath>
</defs>
</svg>
