<svg width="40" height="41" viewBox="0 0 40 41" fill="none" xmlns="http://www.w3.org/2000/svg">
<g clip-path="url(#clip0_35181_4738)">
<path d="M20.0099 10.7162C20.0099 10.7162 33.0143 10.3453 20.0099 20.879C7.00553 31.4126 20.0099 30.5777 20.0099 30.5777M33.3634 38.6487H28.3647C25.8319 38.6487 23.7824 36.5992 23.7824 34.0665V29.0677C23.7824 26.535 25.8319 24.4855 28.3647 24.4855H33.3634C35.8961 24.4855 37.9456 26.535 37.9456 29.0677V34.0665C37.9456 36.5992 35.8961 38.6487 33.3634 38.6487ZM31.5074 31.7326C31.5074 32.0087 31.2836 32.2325 31.0075 32.2325C30.7314 32.2325 30.5076 32.0087 30.5076 31.7326C30.5076 31.4565 30.7314 31.2327 31.0075 31.2327C31.2836 31.2327 31.5074 31.4565 31.5074 31.7326ZM9.20269 16.9874C5.30365 16.9874 2.12109 13.8049 2.12109 9.90581C2.12109 6.00677 5.30365 2.82422 9.20269 2.82422C13.1017 2.82422 16.2843 6.00677 16.2843 9.90581C16.2843 13.8049 13.1184 16.9874 9.20269 16.9874ZM9.51018 9.73534C9.51018 10.0114 9.28636 10.2353 9.01025 10.2353C8.73414 10.2353 8.51031 10.0114 8.51031 9.73534C8.51031 9.45923 8.73414 9.2354 9.01025 9.2354C9.28636 9.2354 9.51018 9.45923 9.51018 9.73534Z" stroke="#6E7191" stroke-linecap="round"/>
</g>
<defs>
<clipPath id="clip0_35181_4738">
<rect width="40" height="40" fill="white" transform="translate(0.00195312 0.736328)"/>
</clipPath>
</defs>
</svg>
