<svg width="40" height="41" viewBox="0 0 40 41" fill="none" xmlns="http://www.w3.org/2000/svg">
<g clip-path="url(#clip0_35181_5024)">
<path d="M14.501 3.75977C14.501 3.48362 14.2771 3.25977 14.001 3.25977C13.7248 3.25977 13.501 3.48362 13.501 3.75977H14.501ZM13.501 8.75977C13.501 9.03591 13.7248 9.25977 14.001 9.25977C14.2771 9.25977 14.501 9.03591 14.501 8.75977H13.501ZM26.501 3.75977C26.501 3.48362 26.2771 3.25977 26.001 3.25977C25.7248 3.25977 25.501 3.48362 25.501 3.75977H26.501ZM25.501 8.75977C25.501 9.03591 25.7248 9.25977 26.001 9.25977C26.2771 9.25977 26.501 9.03591 26.501 8.75977H25.501ZM3.49902 30.0098C3.22288 30.0098 2.99902 30.2336 2.99902 30.5098C2.99902 30.7859 3.22288 31.0098 3.49902 31.0098V30.0098ZM36.7578 31.0098C37.034 31.0098 37.2578 30.7859 37.2578 30.5098C37.2578 30.2336 37.034 30.0098 36.7578 30.0098V31.0098ZM18.499 15.2598L18.4718 15.759C18.4809 15.7595 18.4899 15.7598 18.499 15.7598V15.2598ZM22.499 15.2598V15.7598C22.5077 15.7598 22.5163 15.7595 22.525 15.7591L22.499 15.2598ZM16.499 15.7598L16.149 15.4027L16.149 15.4027L16.499 15.7598ZM15.999 19.2598L16.4223 18.9937L15.999 19.2598ZM24.499 15.7598L24.7629 15.3351L24.499 15.7598ZM25.499 18.2598L25.0139 18.1385C25.012 18.1462 25.0103 18.154 25.0087 18.1617L25.499 18.2598ZM23.8138 19.7954C23.5573 19.8976 23.4323 20.1885 23.5346 20.445C23.6369 20.7015 23.9277 20.8265 24.1842 20.7242L23.8138 19.7954ZM16.6581 20.4402C16.8969 20.5789 17.2029 20.4977 17.3416 20.2589C17.4802 20.0201 17.3991 19.7141 17.1603 19.5754L16.6581 20.4402ZM11.001 6.25977H29.001V5.25977H11.001V6.25977ZM36.501 13.7598V29.7598H37.501V13.7598H36.501ZM29.001 37.2598H11.001V38.2598H29.001V37.2598ZM3.50098 29.7598V13.7598H2.50098V29.7598H3.50098ZM11.001 37.2598C6.85884 37.2598 3.50098 33.9019 3.50098 29.7598H2.50098C2.50098 34.4542 6.30656 38.2598 11.001 38.2598V37.2598ZM36.501 29.7598C36.501 33.9019 33.1431 37.2598 29.001 37.2598V38.2598C33.6954 38.2598 37.501 34.4542 37.501 29.7598H36.501ZM29.001 6.25977C33.1431 6.25977 36.501 9.61763 36.501 13.7598H37.501C37.501 9.06535 33.6954 5.25977 29.001 5.25977V6.25977ZM11.001 5.25977C6.30656 5.25977 2.50098 9.06535 2.50098 13.7598H3.50098C3.50098 9.61763 6.85884 6.25977 11.001 6.25977V5.25977ZM13.501 3.75977V8.75977H14.501V3.75977H13.501ZM25.501 3.75977V8.75977H26.501V3.75977H25.501ZM3.49902 31.0098H36.7578V30.0098H3.49902V31.0098ZM17.6051 20.5078H22.3968V19.5078H17.6051V20.5078ZM22.3968 26.2161H17.6051V27.2161H22.3968V26.2161ZM17.6051 26.2161C16.0288 26.2161 14.751 24.9383 14.751 23.362H13.751C13.751 25.4906 15.4765 27.2161 17.6051 27.2161V26.2161ZM25.251 23.362C25.251 24.9383 23.9731 26.2161 22.3968 26.2161V27.2161C24.5254 27.2161 26.251 25.4906 26.251 23.362H25.251ZM22.3968 20.5078C23.9731 20.5078 25.251 21.7857 25.251 23.362H26.251C26.251 21.2334 24.5254 19.5078 22.3968 19.5078V20.5078ZM17.6051 19.5078C15.4765 19.5078 13.751 21.2334 13.751 23.362H14.751C14.751 21.7857 16.0288 20.5078 17.6051 20.5078V19.5078ZM18.499 15.7598H22.499V14.7598H18.499V15.7598ZM15.999 17.7598C15.999 17.0262 16.48 16.4786 16.849 16.1168L16.149 15.4027C15.767 15.7771 14.999 16.582 14.999 17.7598H15.999ZM16.849 16.1168C17.016 15.9532 17.3666 15.8411 17.7812 15.7897C17.9715 15.7661 18.1471 15.7584 18.2756 15.7567C18.3395 15.7559 18.3907 15.7566 18.425 15.7574C18.4421 15.7579 18.4549 15.7583 18.4629 15.7586C18.4669 15.7588 18.4697 15.7589 18.4712 15.759C18.472 15.759 18.4724 15.7591 18.4725 15.7591C18.4726 15.7591 18.4725 15.7591 18.4724 15.7591C18.4724 15.7591 18.4723 15.7591 18.4722 15.759C18.4721 15.759 18.4721 15.759 18.472 15.759C18.4719 15.759 18.4718 15.759 18.499 15.2598C18.5261 14.7605 18.526 14.7605 18.5259 14.7605C18.5258 14.7605 18.5257 14.7605 18.5256 14.7605C18.5254 14.7605 18.5252 14.7605 18.525 14.7604C18.5245 14.7604 18.524 14.7604 18.5234 14.7604C18.5221 14.7603 18.5205 14.7602 18.5186 14.7601C18.5147 14.7599 18.5095 14.7597 18.503 14.7594C18.4901 14.7589 18.472 14.7583 18.4494 14.7577C18.4042 14.7566 18.3405 14.7558 18.2628 14.7568C18.1082 14.7588 17.8943 14.768 17.6581 14.7973C17.2198 14.8517 16.5705 14.9896 16.149 15.4027L16.849 16.1168ZM16.4223 18.9937C16.3585 18.8922 16.2796 18.7856 16.2369 18.724C16.1871 18.6523 16.1501 18.5928 16.1191 18.5254C16.0606 18.398 15.999 18.1884 15.999 17.7598H14.999C14.999 18.2868 15.0752 18.6486 15.2105 18.943C15.2764 19.0865 15.3504 19.2005 15.4154 19.2942C15.4875 19.3981 15.5272 19.4488 15.5757 19.5259L16.4223 18.9937ZM22.499 15.2598C22.525 15.7591 22.5249 15.7591 22.5247 15.7591C22.5247 15.7591 22.5246 15.7591 22.5245 15.7591C22.5244 15.7591 22.5242 15.7591 22.5241 15.7591C22.5239 15.7591 22.5237 15.7591 22.5237 15.7592C22.5235 15.7592 22.5235 15.7592 22.5238 15.7591C22.5245 15.7591 22.5261 15.759 22.5287 15.759C22.534 15.7588 22.5431 15.7585 22.5557 15.7583C22.581 15.7579 22.6203 15.7579 22.6712 15.7593C22.7733 15.7622 22.92 15.7712 23.092 15.7957C23.4415 15.8455 23.8668 15.9556 24.2351 16.1845L24.7629 15.3351C24.2341 15.0065 23.6594 14.8665 23.2332 14.8057C23.0173 14.7749 22.8322 14.7634 22.6995 14.7597C22.6329 14.7578 22.5791 14.7579 22.5405 14.7584C22.5213 14.7587 22.5058 14.7592 22.4944 14.7595C22.4887 14.7597 22.4841 14.7599 22.4805 14.7601C22.4787 14.7602 22.4772 14.7602 22.4759 14.7603C22.4753 14.7603 22.4747 14.7604 22.4742 14.7604C22.474 14.7604 22.4737 14.7604 22.4735 14.7604C22.4734 14.7604 22.4733 14.7604 22.4732 14.7604C22.4731 14.7604 22.4729 14.7604 22.499 15.2598ZM24.2351 16.1845C24.4186 16.2985 24.6668 16.6107 24.8462 17.0404C25.0243 17.4673 25.079 17.8782 25.0139 18.1385L25.9841 18.3811C26.1231 17.825 25.9872 17.1782 25.769 16.6553C25.552 16.1353 25.1982 15.6056 24.7629 15.3351L24.2351 16.1845ZM25.0087 18.1617C24.8464 18.9736 24.3218 19.5928 23.8138 19.7954L24.1842 20.7242C25.0652 20.373 25.774 19.4343 25.9893 18.3578L25.0087 18.1617ZM17.1603 19.5754C17.0484 19.5105 16.8843 19.4064 16.7313 19.2892C16.567 19.1633 16.4622 19.0572 16.4223 18.9937L15.5757 19.5259C15.715 19.7474 15.9398 19.9425 16.1231 20.0829C16.3177 20.232 16.519 20.3595 16.6581 20.4402L17.1603 19.5754Z" fill="#6E7191"/>
</g>
<defs>
<clipPath id="clip0_35181_5024">
<rect width="39.999" height="39.999" fill="white" transform="translate(0.000976562 0.757812)"/>
</clipPath>
</defs>
</svg>
