<svg width="40" height="41" viewBox="0 0 40 41" fill="none" xmlns="http://www.w3.org/2000/svg">
<g clip-path="url(#clip0_35181_5045)">
<path d="M13.498 3.75977C13.498 3.48362 13.2742 3.25977 12.998 3.25977C12.7219 3.25977 12.498 3.48362 12.498 3.75977H13.498ZM12.498 9.75977C12.498 10.0359 12.7219 10.2598 12.998 10.2598C13.2742 10.2598 13.498 10.0359 13.498 9.75977H12.498ZM25.998 3.75977C25.998 3.48362 25.7742 3.25977 25.498 3.25977C25.2219 3.25977 24.998 3.48362 24.998 3.75977H25.998ZM24.998 9.75977C24.998 10.0359 25.2219 10.2598 25.498 10.2598C25.7742 10.2598 25.998 10.0359 25.998 9.75977H24.998ZM5.49805 15.2598C5.2219 15.2598 4.99805 15.4836 4.99805 15.7598C4.99805 16.0359 5.2219 16.2598 5.49805 16.2598V15.2598ZM33.498 16.2598C33.7742 16.2598 33.998 16.0359 33.998 15.7598C33.998 15.4836 33.7742 15.2598 33.498 15.2598V16.2598ZM29.498 27.2598C29.498 26.9836 29.2742 26.7598 28.998 26.7598C28.7219 26.7598 28.498 26.9836 28.498 27.2598H29.498ZM28.998 31.2598V31.7598H29.498V31.2598H28.998ZM25.998 30.7598C25.7219 30.7598 25.498 30.9836 25.498 31.2598C25.498 31.5359 25.7219 31.7598 25.998 31.7598V30.7598ZM12.998 21.7598C12.7219 21.7598 12.498 21.9836 12.498 22.2598C12.498 22.5359 12.7219 22.7598 12.998 22.7598V21.7598ZM13.998 22.7598C14.2742 22.7598 14.498 22.5359 14.498 22.2598C14.498 21.9836 14.2742 21.7598 13.998 21.7598V22.7598ZM18.998 21.7598C18.7219 21.7598 18.498 21.9836 18.498 22.2598C18.498 22.5359 18.7219 22.7598 18.998 22.7598V21.7598ZM19.998 22.7598C20.2742 22.7598 20.498 22.5359 20.498 22.2598C20.498 21.9836 20.2742 21.7598 19.998 21.7598V22.7598ZM12.998 26.7598C12.7219 26.7598 12.498 26.9836 12.498 27.2598C12.498 27.5359 12.7219 27.7598 12.998 27.7598V26.7598ZM13.998 27.7598C14.2742 27.7598 14.498 27.5359 14.498 27.2598C14.498 26.9836 14.2742 26.7598 13.998 26.7598V27.7598ZM33.498 26.4292C33.498 26.7053 33.7219 26.9292 33.998 26.9292C34.2742 26.9292 34.498 26.7053 34.498 26.4292H33.498ZM23.5991 36.2598C23.8752 36.2598 24.0991 36.0359 24.0991 35.7598C24.0991 35.4836 23.8752 35.2598 23.5991 35.2598V36.2598ZM12.498 3.75977V9.75977H13.498V3.75977H12.498ZM24.998 3.75977V9.75977H25.998V3.75977H24.998ZM5.49805 16.2598H33.498V15.2598H5.49805V16.2598ZM34.998 30.7598C34.998 34.3496 32.0879 37.2598 28.498 37.2598V38.2598C32.6402 38.2598 35.998 34.9019 35.998 30.7598H34.998ZM28.498 37.2598C24.9082 37.2598 21.998 34.3496 21.998 30.7598H20.998C20.998 34.9019 24.3559 38.2598 28.498 38.2598V37.2598ZM21.998 30.7598C21.998 27.1699 24.9082 24.2598 28.498 24.2598V23.2598C24.3559 23.2598 20.998 26.6176 20.998 30.7598H21.998ZM28.498 24.2598C32.0879 24.2598 34.998 27.1699 34.998 30.7598H35.998C35.998 26.6176 32.6402 23.2598 28.498 23.2598V24.2598ZM28.498 27.2598V31.2598H29.498V27.2598H28.498ZM28.998 30.7598H25.998V31.7598H28.998V30.7598ZM12.998 22.7598H13.998V21.7598H12.998V22.7598ZM18.998 22.7598H19.998V21.7598H18.998V22.7598ZM12.998 27.7598H13.998V26.7598H12.998V27.7598ZM34.498 26.4292V12.7598H33.498V26.4292H34.498ZM34.498 12.7598C34.498 9.16992 31.5879 6.25977 27.998 6.25977V7.25977C31.0356 7.25977 33.498 9.7222 33.498 12.7598H34.498ZM27.998 6.25977H10.998V7.25977H27.998V6.25977ZM10.998 6.25977C7.4082 6.25977 4.49805 9.16991 4.49805 12.7598H5.49805C5.49805 9.7222 7.96048 7.25977 10.998 7.25977V6.25977ZM4.49805 12.7598V29.7598H5.49805V12.7598H4.49805ZM4.49805 29.7598C4.49805 33.3496 7.4082 36.2598 10.998 36.2598V35.2598C7.96048 35.2598 5.49805 32.7973 5.49805 29.7598H4.49805ZM10.998 36.2598H23.5991V35.2598H10.998V36.2598Z" fill="#6E7191"/>
</g>
<defs>
<clipPath id="clip0_35181_5045">
<rect width="40.003" height="40.003" fill="white" transform="translate(-0.00195312 0.765625)"/>
</clipPath>
</defs>
</svg>
