<svg width="41" height="41" viewBox="0 0 41 41" fill="none" xmlns="http://www.w3.org/2000/svg">
<path d="M20.6531 18.8089V33.807M16.4866 29.2735C16.4866 30.8903 18.4674 32.8541 20.5501 32.9461C22.6329 33.0381 24.8186 31.0563 24.8186 29.6405C24.8878 29.1054 24.758 28.5636 24.4538 28.118C24.1496 27.6725 23.6923 27.3542 23.1688 27.2238L18.1534 25.475C17.6288 25.3466 17.1701 25.0288 16.8656 24.5827C16.5611 24.1366 16.4322 23.5937 16.5036 23.0583C16.5036 21.6585 18.4674 19.5777 20.5511 19.6687C22.6349 19.7597 24.8356 21.8085 24.8356 23.4253M20.5001 14.2484C27.5557 14.2484 33.7433 23.9744 33.7433 30.6036C33.7433 37.2328 27.5557 38.2547 20.5001 38.2547C13.4445 38.2547 7.25684 37.2328 7.25684 30.6036C7.25684 23.9744 13.4445 14.2484 20.5001 14.2484ZM19.9233 12.2805C20.1352 12.2805 20.351 12.2652 20.5658 12.2347L20.7064 12.2146L20.846 12.2344C21.0628 12.2652 21.2796 12.2805 21.4915 12.2805C22.2004 12.2805 23.2207 12.1041 24.0615 11.2636C24.8416 10.4839 25.532 9.08246 25.9099 7.51454C26.2555 6.07893 26.2047 5.05904 26.0895 4.72461C26.0378 4.71484 25.9538 4.70508 25.8308 4.70508C24.8826 4.70508 22.9532 5.29363 21.2444 6.38456L20.7064 6.72802L20.1684 6.38431C18.4606 5.29363 16.5321 4.70508 15.583 4.70508C15.46 4.70508 15.376 4.71509 15.3243 4.72461C15.2091 5.06026 15.1583 6.07991 15.5039 7.51454C15.8808 9.0827 16.5722 10.4841 17.3514 11.2633C18.1931 12.1041 19.2144 12.2805 19.9233 12.2805Z" stroke="#6E7191" stroke-linecap="round" stroke-linejoin="round"/>
</svg>
