<svg width="41" height="41" viewBox="0 0 41 41" fill="none" xmlns="http://www.w3.org/2000/svg">
<g clip-path="url(#clip0_35181_5622)">
<path d="M4.50098 17.2852C4.50098 17.2852 4.50098 11.2852 7.00098 8.28516C9.50098 5.28516 15.501 5.28516 15.501 5.28516L13.501 8.28516" stroke="#6E7191" stroke-linecap="round" stroke-linejoin="round"/>
<path d="M35.7304 24.9996C35.7304 24.9996 35.5493 30.9969 32.9598 33.9201C30.3704 36.8432 24.3732 36.6621 24.3732 36.6621L26.4628 33.7239" stroke="#6E7191" stroke-linecap="round" stroke-linejoin="round"/>
<path d="M15.001 35.2852H5.50098C5.50098 35.2852 8.50098 32.2852 9.00098 30.2852C9.50098 28.2852 9.00098 26.3824 9.00098 25.2852C9.00098 24.1879 9.50098 22.2852 11.501 22.2852C13.501 22.2852 14.001 23.7852 14.001 23.7852" stroke="#6E7191" stroke-linecap="round" stroke-linejoin="round"/>
<path d="M34.5007 6.28508C34.5007 6.28508 28.0007 3.28508 27.5007 7.28508C27.0007 11.2851 35.5007 11.285 35.0007 14.7851C34.5007 18.2852 27.5007 16.7851 27.5007 16.7851M31.0005 3.28516V19.2852" stroke="#6E7191" stroke-linecap="round" stroke-linejoin="round"/>
<path d="M5.50098 28.7852H13.001" stroke="#6E7191" stroke-linecap="round" stroke-linejoin="round"/>
</g>
<defs>
<clipPath id="clip0_35181_5622">
<rect width="40" height="40" fill="white" transform="translate(0.500977 0.785156)"/>
</clipPath>
</defs>
</svg>
