<svg width="41" height="41" viewBox="0 0 41 41" fill="none" xmlns="http://www.w3.org/2000/svg">
<g clip-path="url(#clip0_35181_5736)">
<path d="M31.7853 15.9748C32.5046 11.3808 30.4522 8.57095 25.728 6.47572C25.4335 6.34712 25.1249 6.21322 24.7948 6.08826L21.8702 4.98134C20.0568 4.30664 18.0756 4.22752 16.2141 4.75544C14.3527 5.28336 12.7079 6.39085 11.5187 7.91712C10.9759 8.6167 10.5426 9.39477 10.2337 10.2246M10.2337 10.2246L7.57703 16.8621M10.2337 10.2246C9.13688 10.7817 7.14295 11.9983 6.304 13.0315C5.46506 14.0646 4.80027 15.2918 4.34789 16.6425C3.8955 17.9932 3.66444 19.4407 3.66801 20.9018V24.7526L3.66805 24.7852M30.7459 10.2104C32.5943 10.9147 34.4244 12.3752 35.577 14.289C36.7297 16.2027 37.357 18.5191 37.368 20.9018L37.3679 24.7852M26.7521 38.0242H14.2461C13.8173 38.0226 13.3889 37.9959 12.9631 37.9442C7.33513 37.5752 4.12813 34.3522 3.74313 28.6602C3.68984 28.2561 3.66311 27.8489 3.66313 27.4412V24.3142C3.65956 23.1278 3.89062 21.9524 4.34301 20.8555C4.79539 19.7587 5.46018 18.7622 6.29912 17.9232C7.13807 17.0843 8.13461 16.4195 9.23143 15.9671C10.3282 15.5147 11.5037 15.2837 12.6901 15.2872H28.3401C29.2256 15.2824 30.1067 15.4122 30.9531 15.6722C32.8015 16.2442 34.4195 17.3904 35.5722 18.9444C36.7249 20.4984 37.3522 22.3794 37.3631 24.3142V27.4412C37.3631 27.7942 37.3471 28.1302 37.3311 28.4512C36.9821 34.7202 33.3261 38.0242 26.7521 38.0242Z" stroke="#6E7191"/>
</g>
<defs>
<clipPath id="clip0_35181_5736">
<rect width="40.002" height="40.002" fill="white" transform="translate(0.498047 0.789062)"/>
</clipPath>
</defs>
</svg>
