<svg width="40" height="41" viewBox="0 0 40 41" fill="none" xmlns="http://www.w3.org/2000/svg">
<g clip-path="url(#clip0_35181_4877)">
<path d="M20.0056 3.58789L20.0057 3.08789H20.0055L20.0056 3.58789ZM32.1406 8.61279L32.4941 8.25921L32.494 8.25911L32.1406 8.61279ZM20 12.252C20 11.9758 19.7761 11.752 19.5 11.752C19.2239 11.752 19 11.9758 19 12.252H20ZM19.5 21.752H19C19 21.9221 19.0865 22.0805 19.2296 22.1725L19.5 21.752ZM26.2296 26.6725C26.4619 26.8219 26.7713 26.7546 26.9206 26.5223C27.0699 26.29 27.0027 25.9807 26.7704 25.8314L26.2296 26.6725ZM20.0055 3.08789C15.9198 3.08839 11.9607 4.50559 8.80269 7.09791L9.43718 7.87084C12.4163 5.42531 16.1513 4.08836 20.0056 4.08789L20.0055 3.08789ZM8.80269 7.09791C5.6447 9.69022 3.48326 13.2973 2.68663 17.3046L3.66744 17.4996C4.41895 13.7192 6.45801 10.3164 9.43718 7.87084L8.80269 7.09791ZM2.68663 17.3046C1.89 21.3119 2.50747 25.4713 4.43385 29.0744L5.31572 28.6029C3.49842 25.2038 2.91592 21.28 3.66744 17.4996L2.68663 17.3046ZM4.43385 29.0744C6.36023 32.6774 9.47633 35.5011 13.2512 37.0643L13.6338 36.1403C10.0727 34.6657 7.13302 32.0019 5.31572 28.6029L4.43385 29.0744ZM13.2512 37.0643C17.0261 38.6274 21.2261 38.8333 25.1358 37.6469L24.8454 36.69C21.1571 37.8092 17.1949 37.615 13.6338 36.1403L13.2512 37.0643ZM25.1358 37.6469C29.0455 36.4605 32.4228 33.9551 34.6924 30.5578L33.8608 30.0023C31.7198 33.2073 28.5337 35.5708 24.8454 36.69L25.1358 37.6469ZM34.6924 30.5578C36.9619 27.1604 37.9833 23.0814 37.5825 19.0154L36.5873 19.1135C36.9655 22.9493 36.0019 26.7973 33.8608 30.0023L34.6924 30.5578ZM37.5825 19.0154C37.1816 14.9494 35.3834 11.148 32.4941 8.25921L31.7871 8.96638C34.5127 11.6916 36.2092 15.2777 36.5873 19.1135L37.5825 19.0154ZM32.494 8.25911C29.181 4.94856 24.6892 3.08867 20.0057 3.08789L20.0055 4.08789C24.4241 4.08863 28.6616 5.84327 31.7872 8.96648L32.494 8.25911ZM19 12.252V21.752H20V12.252H19ZM19.2296 22.1725L26.2296 26.6725L26.7704 25.8314L19.7704 21.3314L19.2296 22.1725Z" fill="#6E7191"/>
</g>
<defs>
<clipPath id="clip0_35181_4877">
<rect width="39.999" height="39.999" fill="white" transform="translate(0 0.75)"/>
</clipPath>
</defs>
</svg>
